<?xml version="1.0" encoding="UTF-8" standalone="no"?>
<!DOCTYPE svg PUBLIC "-//W3C//DTD SVG 1.1//EN"
 "http://www.w3.org/Graphics/SVG/1.1/DTD/svg11.dtd">
<!-- Generated by graphviz version 2.43.0 (0)
 -->
<!-- Title: inst/include/adaptive_species.h Pages: 1 -->
<svg width="531pt" height="151pt"
 viewBox="0.00 0.00 531.00 151.00" xmlns="http://www.w3.org/2000/svg" xmlns:xlink="http://www.w3.org/1999/xlink">
<g id="graph0" class="graph" transform="scale(1 1) rotate(0) translate(4 147)">
<title>inst/include/adaptive_species.h</title>
<!-- Node1 -->
<g id="node1" class="node">
<title>Node1</title>
<g id="a_node1"><a xlink:title=" ">
<polygon fill="#bfbfbf" stroke="black" points="109.5,-112.5 109.5,-142.5 228.5,-142.5 228.5,-112.5 109.5,-112.5"/>
<text text-anchor="start" x="117.5" y="-130.5" font-family="Helvetica,sans-Serif" font-size="10.00">inst/include/adaptive</text>
<text text-anchor="middle" x="169" y="-119.5" font-family="Helvetica,sans-Serif" font-size="10.00">_species.h</text>
</a>
</g>
</g>
<!-- Node2 -->
<g id="node2" class="node">
<title>Node2</title>
<g id="a_node2"><a xlink:title=" ">
<polygon fill="none" stroke="#bfbfbf" points="0,-56.5 0,-75.5 56,-75.5 56,-56.5 0,-56.5"/>
<text text-anchor="middle" x="28" y="-63.5" font-family="Helvetica,sans-Serif" font-size="10.00">solver.h</text>
</a>
</g>
</g>
<!-- Node1&#45;&gt;Node2 -->
<g id="edge1" class="edge">
<title>Node1&#45;&gt;Node2</title>
<path fill="none" stroke="midnightblue" d="M135.58,-112.4C112.03,-102.46 80.76,-89.26 58.01,-79.66"/>
<polygon fill="midnightblue" stroke="midnightblue" points="59.09,-76.32 48.52,-75.66 56.37,-82.77 59.09,-76.32"/>
</g>
<!-- Node3 -->
<g id="node3" class="node">
<title>Node3</title>
<g id="a_node3"><a xlink:title=" ">
<polygon fill="none" stroke="#bfbfbf" points="81.5,-0.5 81.5,-19.5 128.5,-19.5 128.5,-0.5 81.5,-0.5"/>
<text text-anchor="middle" x="105" y="-7.5" font-family="Helvetica,sans-Serif" font-size="10.00">vector</text>
</a>
</g>
</g>
<!-- Node1&#45;&gt;Node3 -->
<g id="edge2" class="edge">
<title>Node1&#45;&gt;Node3</title>
<path fill="none" stroke="midnightblue" d="M140.09,-112.45C126.15,-103.99 110.8,-91.78 103,-76 95.89,-61.61 97.3,-43.15 99.95,-29.58"/>
<polygon fill="midnightblue" stroke="midnightblue" points="103.43,-30.07 102.31,-19.54 96.62,-28.47 103.43,-30.07"/>
</g>
<!-- Node4 -->
<g id="node4" class="node">
<title>Node4</title>
<g id="a_node4"><a xlink:title=" ">
<polygon fill="none" stroke="#bfbfbf" points="112,-56.5 112,-75.5 156,-75.5 156,-56.5 112,-56.5"/>
<text text-anchor="middle" x="134" y="-63.5" font-family="Helvetica,sans-Serif" font-size="10.00">string</text>
</a>
</g>
</g>
<!-- Node1&#45;&gt;Node4 -->
<g id="edge3" class="edge">
<title>Node1&#45;&gt;Node4</title>
<path fill="none" stroke="midnightblue" d="M160.71,-112.4C155.78,-104.02 149.49,-93.33 144.25,-84.42"/>
<polygon fill="midnightblue" stroke="midnightblue" points="147.18,-82.5 139.09,-75.66 141.15,-86.05 147.18,-82.5"/>
</g>
<!-- Node5 -->
<g id="node5" class="node">
<title>Node5</title>
<g id="a_node5"><a xlink:title=" ">
<polygon fill="none" stroke="#bfbfbf" points="174.5,-56.5 174.5,-75.5 235.5,-75.5 235.5,-56.5 174.5,-56.5"/>
<text text-anchor="middle" x="205" y="-63.5" font-family="Helvetica,sans-Serif" font-size="10.00">io_utils.h</text>
</a>
</g>
</g>
<!-- Node1&#45;&gt;Node5 -->
<g id="edge4" class="edge">
<title>Node1&#45;&gt;Node5</title>
<path fill="none" stroke="midnightblue" d="M177.53,-112.4C182.6,-104.02 189.07,-93.33 194.46,-84.42"/>
<polygon fill="midnightblue" stroke="midnightblue" points="197.58,-86.03 199.76,-75.66 191.59,-82.4 197.58,-86.03"/>
</g>
<!-- Node6 -->
<g id="node6" class="node">
<title>Node6</title>
<g id="a_node6"><a xlink:href="moving__average_8h.html" target="_top" xlink:title=" ">
<polygon fill="none" stroke="black" points="253.5,-56.5 253.5,-75.5 384.5,-75.5 384.5,-56.5 253.5,-56.5"/>
<text text-anchor="middle" x="319" y="-63.5" font-family="Helvetica,sans-Serif" font-size="10.00">utils/moving_average.h</text>
</a>
</g>
</g>
<!-- Node1&#45;&gt;Node6 -->
<g id="edge5" class="edge">
<title>Node1&#45;&gt;Node6</title>
<path fill="none" stroke="midnightblue" d="M204.55,-112.4C229.83,-102.37 263.47,-89.03 287.73,-79.4"/>
<polygon fill="midnightblue" stroke="midnightblue" points="289.17,-82.6 297.17,-75.66 286.59,-76.09 289.17,-82.6"/>
</g>
<!-- Node12 -->
<g id="node12" class="node">
<title>Node12</title>
<g id="a_node12"><a xlink:href="adaptive__species_8tpp.html" target="_top" xlink:title=" ">
<polygon fill="none" stroke="black" points="403,-56.5 403,-75.5 523,-75.5 523,-56.5 403,-56.5"/>
<text text-anchor="middle" x="463" y="-63.5" font-family="Helvetica,sans-Serif" font-size="10.00">adaptive_species.tpp</text>
</a>
</g>
</g>
<!-- Node1&#45;&gt;Node12 -->
<g id="edge12" class="edge">
<title>Node1&#45;&gt;Node12</title>
<path fill="none" stroke="midnightblue" d="M228.85,-114.39C282.37,-103.56 360,-87.85 410.98,-77.53"/>
<polygon fill="midnightblue" stroke="midnightblue" points="411.7,-80.95 420.81,-75.54 410.31,-74.09 411.7,-80.95"/>
</g>
<!-- Node6&#45;&gt;Node3 -->
<g id="edge10" class="edge">
<title>Node6&#45;&gt;Node3</title>
<path fill="none" stroke="midnightblue" d="M285.09,-56.44C244.87,-46.29 178.25,-29.48 138.3,-19.4"/>
<polygon fill="midnightblue" stroke="midnightblue" points="139.06,-15.98 128.5,-16.93 137.34,-22.77 139.06,-15.98"/>
</g>
<!-- Node7 -->
<g id="node7" class="node">
<title>Node7</title>
<g id="a_node7"><a xlink:title=" ">
<polygon fill="none" stroke="#bfbfbf" points="167,-0.5 167,-19.5 227,-19.5 227,-0.5 167,-0.5"/>
<text text-anchor="middle" x="197" y="-7.5" font-family="Helvetica,sans-Serif" font-size="10.00">iostream</text>
</a>
</g>
</g>
<!-- Node6&#45;&gt;Node7 -->
<g id="edge6" class="edge">
<title>Node6&#45;&gt;Node7</title>
<path fill="none" stroke="midnightblue" d="M299.67,-56.44C279.68,-47.6 248.26,-33.69 225.44,-23.59"/>
<polygon fill="midnightblue" stroke="midnightblue" points="226.8,-20.36 216.24,-19.52 223.97,-26.76 226.8,-20.36"/>
</g>
<!-- Node8 -->
<g id="node8" class="node">
<title>Node8</title>
<g id="a_node8"><a xlink:title=" ">
<polygon fill="none" stroke="#bfbfbf" points="245,-0.5 245,-19.5 277,-19.5 277,-0.5 245,-0.5"/>
<text text-anchor="middle" x="261" y="-7.5" font-family="Helvetica,sans-Serif" font-size="10.00">list</text>
</a>
</g>
</g>
<!-- Node6&#45;&gt;Node8 -->
<g id="edge7" class="edge">
<title>Node6&#45;&gt;Node8</title>
<path fill="none" stroke="midnightblue" d="M309.68,-56.32C301.11,-48.34 288.19,-36.31 277.81,-26.65"/>
<polygon fill="midnightblue" stroke="midnightblue" points="280.19,-24.09 270.49,-19.83 275.42,-29.21 280.19,-24.09"/>
</g>
<!-- Node9 -->
<g id="node9" class="node">
<title>Node9</title>
<g id="a_node9"><a xlink:title=" ">
<polygon fill="none" stroke="#bfbfbf" points="295.5,-0.5 295.5,-19.5 342.5,-19.5 342.5,-0.5 295.5,-0.5"/>
<text text-anchor="middle" x="319" y="-7.5" font-family="Helvetica,sans-Serif" font-size="10.00">cmath</text>
</a>
</g>
</g>
<!-- Node6&#45;&gt;Node9 -->
<g id="edge8" class="edge">
<title>Node6&#45;&gt;Node9</title>
<path fill="none" stroke="midnightblue" d="M319,-56.08C319,-49.01 319,-38.86 319,-29.99"/>
<polygon fill="midnightblue" stroke="midnightblue" points="322.5,-29.75 319,-19.75 315.5,-29.75 322.5,-29.75"/>
</g>
<!-- Node10 -->
<g id="node10" class="node">
<title>Node10</title>
<g id="a_node10"><a xlink:title=" ">
<polygon fill="none" stroke="#bfbfbf" points="361,-0.5 361,-19.5 413,-19.5 413,-0.5 361,-0.5"/>
<text text-anchor="middle" x="387" y="-7.5" font-family="Helvetica,sans-Serif" font-size="10.00">cassert</text>
</a>
</g>
</g>
<!-- Node6&#45;&gt;Node10 -->
<g id="edge9" class="edge">
<title>Node6&#45;&gt;Node10</title>
<path fill="none" stroke="midnightblue" d="M329.93,-56.32C340.17,-48.18 355.72,-35.84 368,-26.09"/>
<polygon fill="midnightblue" stroke="midnightblue" points="370.22,-28.79 375.88,-19.83 365.87,-23.31 370.22,-28.79"/>
</g>
<!-- Node11 -->
<g id="node11" class="node">
<title>Node11</title>
<g id="a_node11"><a xlink:title=" ">
<polygon fill="none" stroke="#bfbfbf" points="431,-0.5 431,-19.5 495,-19.5 495,-0.5 431,-0.5"/>
<text text-anchor="middle" x="463" y="-7.5" font-family="Helvetica,sans-Serif" font-size="10.00">algorithm</text>
</a>
</g>
</g>
<!-- Node6&#45;&gt;Node11 -->
<g id="edge11" class="edge">
<title>Node6&#45;&gt;Node11</title>
<path fill="none" stroke="midnightblue" d="M341.82,-56.44C365.83,-47.44 403.83,-33.19 430.87,-23.05"/>
<polygon fill="midnightblue" stroke="midnightblue" points="432.16,-26.3 440.29,-19.52 429.7,-19.75 432.16,-26.3"/>
</g>
</g>
</svg>
