<?xml version="1.0" encoding="UTF-8" standalone="no"?>
<!DOCTYPE svg PUBLIC "-//W3C//DTD SVG 1.1//EN"
 "http://www.w3.org/Graphics/SVG/1.1/DTD/svg11.dtd">
<!-- Generated by graphviz version 2.43.0 (0)
 -->
<!-- Title: src/adaptive_species.tpp Pages: 1 -->
<svg width="760pt" height="285pt"
 viewBox="0.00 0.00 760.00 285.00" xmlns="http://www.w3.org/2000/svg" xmlns:xlink="http://www.w3.org/1999/xlink">
<g id="graph0" class="graph" transform="scale(1 1) rotate(0) translate(4 281)">
<title>src/adaptive_species.tpp</title>
<!-- Node1 -->
<g id="node1" class="node">
<title>Node1</title>
<g id="a_node1"><a xlink:title=" ">
<polygon fill="#bfbfbf" stroke="black" points="307,-257.5 307,-276.5 444,-276.5 444,-257.5 307,-257.5"/>
<text text-anchor="middle" x="375.5" y="-264.5" font-family="Helvetica,sans-Serif" font-size="10.00">src/adaptive_species.tpp</text>
</a>
</g>
</g>
<!-- Node2 -->
<g id="node2" class="node">
<title>Node2</title>
<g id="a_node2"><a xlink:href="adaptive__species_8h.html" target="_top" xlink:title=" ">
<polygon fill="none" stroke="black" points="316,-190.5 316,-220.5 435,-220.5 435,-190.5 316,-190.5"/>
<text text-anchor="start" x="324" y="-208.5" font-family="Helvetica,sans-Serif" font-size="10.00">inst/include/adaptive</text>
<text text-anchor="middle" x="375.5" y="-197.5" font-family="Helvetica,sans-Serif" font-size="10.00">_species.h</text>
</a>
</g>
</g>
<!-- Node1&#45;&gt;Node2 -->
<g id="edge1" class="edge">
<title>Node1&#45;&gt;Node2</title>
<path fill="none" stroke="midnightblue" d="M375.5,-247.23C375.5,-238.59 375.5,-228.5 375.5,-220.52"/>
<polygon fill="midnightblue" stroke="midnightblue" points="372,-247.48 375.5,-257.48 379,-247.48 372,-247.48"/>
</g>
<!-- Node3 -->
<g id="node3" class="node">
<title>Node3</title>
<g id="a_node3"><a xlink:href="light__environment_8cpp.html" target="_top" xlink:title=" ">
<polygon fill="none" stroke="black" points="0,-129 0,-148 143,-148 143,-129 0,-129"/>
<text text-anchor="middle" x="71.5" y="-136" font-family="Helvetica,sans-Serif" font-size="10.00">src/light_environment.cpp</text>
</a>
</g>
</g>
<!-- Node2&#45;&gt;Node3 -->
<g id="edge2" class="edge">
<title>Node2&#45;&gt;Node3</title>
<path fill="none" stroke="midnightblue" d="M306,-189.64C245.9,-176.79 161.11,-158.66 111.67,-148.09"/>
<polygon fill="midnightblue" stroke="midnightblue" points="305.29,-193.07 315.8,-191.74 306.75,-186.22 305.29,-193.07"/>
</g>
<!-- Node4 -->
<g id="node4" class="node">
<title>Node4</title>
<g id="a_node4"><a xlink:href="pspm__interface_8cpp.html" target="_top" xlink:title=" ">
<polygon fill="none" stroke="black" points="161.5,-129 161.5,-148 291.5,-148 291.5,-129 161.5,-129"/>
<text text-anchor="middle" x="226.5" y="-136" font-family="Helvetica,sans-Serif" font-size="10.00">src/pspm_interface.cpp</text>
</a>
</g>
</g>
<!-- Node2&#45;&gt;Node4 -->
<g id="edge3" class="edge">
<title>Node2&#45;&gt;Node4</title>
<path fill="none" stroke="midnightblue" d="M333.77,-186.3C305.03,-173.76 268.18,-157.68 246,-148.01"/>
<polygon fill="midnightblue" stroke="midnightblue" points="332.6,-189.61 343.17,-190.4 335.4,-183.19 332.6,-189.61"/>
</g>
<!-- Node5 -->
<g id="node5" class="node">
<title>Node5</title>
<g id="a_node5"><a xlink:href="community__properties_8h.html" target="_top" xlink:title=" ">
<polygon fill="none" stroke="black" points="310,-123.5 310,-153.5 441,-153.5 441,-123.5 310,-123.5"/>
<text text-anchor="start" x="318" y="-141.5" font-family="Helvetica,sans-Serif" font-size="10.00">inst/include/community</text>
<text text-anchor="middle" x="375.5" y="-130.5" font-family="Helvetica,sans-Serif" font-size="10.00">_properties.h</text>
</a>
</g>
</g>
<!-- Node2&#45;&gt;Node5 -->
<g id="edge4" class="edge">
<title>Node2&#45;&gt;Node5</title>
<path fill="none" stroke="midnightblue" d="M375.5,-180.11C375.5,-171.15 375.5,-161.32 375.5,-153.58"/>
<polygon fill="midnightblue" stroke="midnightblue" points="372,-180.4 375.5,-190.4 379,-180.4 372,-180.4"/>
</g>
<!-- Node7 -->
<g id="node7" class="node">
<title>Node7</title>
<g id="a_node7"><a xlink:href="plantfate__patch_8h.html" target="_top" xlink:title=" ">
<polygon fill="none" stroke="black" points="409.5,-56.5 409.5,-86.5 529.5,-86.5 529.5,-56.5 409.5,-56.5"/>
<text text-anchor="start" x="417.5" y="-74.5" font-family="Helvetica,sans-Serif" font-size="10.00">inst/include/plantfate</text>
<text text-anchor="middle" x="469.5" y="-63.5" font-family="Helvetica,sans-Serif" font-size="10.00">_patch.h</text>
</a>
</g>
</g>
<!-- Node2&#45;&gt;Node7 -->
<g id="edge11" class="edge">
<title>Node2&#45;&gt;Node7</title>
<path fill="none" stroke="midnightblue" d="M414.91,-185.12C427.64,-177.1 440.71,-166.67 449.5,-154 463.7,-133.53 467.85,-104.04 469.04,-86.72"/>
<polygon fill="midnightblue" stroke="midnightblue" points="413.02,-182.18 406.21,-190.29 416.6,-188.19 413.02,-182.18"/>
</g>
<!-- Node11 -->
<g id="node11" class="node">
<title>Node11</title>
<g id="a_node11"><a xlink:href="state__restore_8h.html" target="_top" xlink:title=" ">
<polygon fill="none" stroke="black" points="498,-123.5 498,-153.5 599,-153.5 599,-123.5 498,-123.5"/>
<text text-anchor="start" x="506" y="-141.5" font-family="Helvetica,sans-Serif" font-size="10.00">inst/include/state</text>
<text text-anchor="middle" x="548.5" y="-130.5" font-family="Helvetica,sans-Serif" font-size="10.00">_restore.h</text>
</a>
</g>
</g>
<!-- Node2&#45;&gt;Node11 -->
<g id="edge12" class="edge">
<title>Node2&#45;&gt;Node11</title>
<path fill="none" stroke="midnightblue" d="M422.56,-186.82C450.37,-176.37 485.09,-163.32 511.03,-153.58"/>
<polygon fill="midnightblue" stroke="midnightblue" points="421.17,-183.6 413.04,-190.4 423.63,-190.16 421.17,-183.6"/>
</g>
<!-- Node6 -->
<g id="node6" class="node">
<title>Node6</title>
<g id="a_node6"><a xlink:href="community__properties_8cpp.html" target="_top" xlink:title=" ">
<polygon fill="none" stroke="black" points="176.5,-0.5 176.5,-19.5 340.5,-19.5 340.5,-0.5 176.5,-0.5"/>
<text text-anchor="middle" x="258.5" y="-7.5" font-family="Helvetica,sans-Serif" font-size="10.00">src/community_properties.cpp</text>
</a>
</g>
</g>
<!-- Node5&#45;&gt;Node6 -->
<g id="edge5" class="edge">
<title>Node5&#45;&gt;Node6</title>
<path fill="none" stroke="midnightblue" d="M355.7,-116.1C329.61,-87.89 284.89,-39.53 266.63,-19.79"/>
<polygon fill="midnightblue" stroke="midnightblue" points="353.17,-118.51 362.53,-123.48 358.31,-113.76 353.17,-118.51"/>
</g>
<!-- Node5&#45;&gt;Node7 -->
<g id="edge6" class="edge">
<title>Node5&#45;&gt;Node7</title>
<path fill="none" stroke="midnightblue" d="M404.49,-117.45C418.95,-107.45 436.09,-95.6 449.14,-86.58"/>
<polygon fill="midnightblue" stroke="midnightblue" points="402.13,-114.83 395.9,-123.4 406.11,-120.59 402.13,-114.83"/>
</g>
<!-- Node7&#45;&gt;Node6 -->
<g id="edge7" class="edge">
<title>Node7&#45;&gt;Node6</title>
<path fill="none" stroke="midnightblue" d="M409.96,-53.71C370.42,-42.56 320.17,-28.39 288.67,-19.51"/>
<polygon fill="midnightblue" stroke="midnightblue" points="409.19,-57.13 419.76,-56.47 411.09,-50.39 409.19,-57.13"/>
</g>
<!-- Node8 -->
<g id="node8" class="node">
<title>Node8</title>
<g id="a_node8"><a xlink:href="plantfate__patch_8cpp.html" target="_top" xlink:title=" ">
<polygon fill="none" stroke="black" points="359,-0.5 359,-19.5 490,-19.5 490,-0.5 359,-0.5"/>
<text text-anchor="middle" x="424.5" y="-7.5" font-family="Helvetica,sans-Serif" font-size="10.00">src/plantfate_patch.cpp</text>
</a>
</g>
</g>
<!-- Node7&#45;&gt;Node8 -->
<g id="edge8" class="edge">
<title>Node7&#45;&gt;Node8</title>
<path fill="none" stroke="midnightblue" d="M452.79,-48.4C445.23,-38.41 436.74,-27.18 431.05,-19.66"/>
<polygon fill="midnightblue" stroke="midnightblue" points="450.01,-50.53 458.84,-56.4 455.6,-46.31 450.01,-50.53"/>
</g>
<!-- Node9 -->
<g id="node9" class="node">
<title>Node9</title>
<g id="a_node9"><a xlink:href="r__interface_8cpp.html" target="_top" xlink:title=" ">
<polygon fill="none" stroke="black" points="508,-0.5 508,-19.5 615,-19.5 615,-0.5 508,-0.5"/>
<text text-anchor="middle" x="561.5" y="-7.5" font-family="Helvetica,sans-Serif" font-size="10.00">src/r_interface.cpp</text>
</a>
</g>
</g>
<!-- Node7&#45;&gt;Node9 -->
<g id="edge9" class="edge">
<title>Node7&#45;&gt;Node9</title>
<path fill="none" stroke="midnightblue" d="M500,-50.78C516.3,-40.23 535.55,-27.78 548.11,-19.66"/>
<polygon fill="midnightblue" stroke="midnightblue" points="497.8,-48.03 491.3,-56.4 501.6,-53.91 497.8,-48.03"/>
</g>
<!-- Node10 -->
<g id="node10" class="node">
<title>Node10</title>
<g id="a_node10"><a xlink:href="state__restore_8cpp.html" target="_top" xlink:title=" ">
<polygon fill="none" stroke="black" points="633,-0.5 633,-19.5 752,-19.5 752,-0.5 633,-0.5"/>
<text text-anchor="middle" x="692.5" y="-7.5" font-family="Helvetica,sans-Serif" font-size="10.00">src/state_restore.cpp</text>
</a>
</g>
</g>
<!-- Node7&#45;&gt;Node10 -->
<g id="edge10" class="edge">
<title>Node7&#45;&gt;Node10</title>
<path fill="none" stroke="midnightblue" d="M531.9,-53.85C573.77,-42.68 627.18,-28.43 660.62,-19.51"/>
<polygon fill="midnightblue" stroke="midnightblue" points="530.83,-50.51 522.07,-56.47 532.63,-57.28 530.83,-50.51"/>
</g>
<!-- Node11&#45;&gt;Node7 -->
<g id="edge14" class="edge">
<title>Node11&#45;&gt;Node7</title>
<path fill="none" stroke="midnightblue" d="M523.44,-116.88C511.44,-107.01 497.37,-95.43 486.61,-86.58"/>
<polygon fill="midnightblue" stroke="midnightblue" points="521.41,-119.75 531.36,-123.4 525.86,-114.34 521.41,-119.75"/>
</g>
<!-- Node11&#45;&gt;Node10 -->
<g id="edge13" class="edge">
<title>Node11&#45;&gt;Node10</title>
<path fill="none" stroke="midnightblue" d="M572.05,-116.82C604.03,-88.72 659.83,-39.7 682.5,-19.79"/>
<polygon fill="midnightblue" stroke="midnightblue" points="569.66,-114.25 564.46,-123.48 574.28,-119.51 569.66,-114.25"/>
</g>
</g>
</svg>
