<?xml version="1.0" encoding="UTF-8" standalone="no"?>
<!DOCTYPE svg PUBLIC "-//W3C//DTD SVG 1.1//EN"
 "http://www.w3.org/Graphics/SVG/1.1/DTD/svg11.dtd">
<!-- Generated by graphviz version 2.43.0 (0)
 -->
<!-- Title: inst/include/assimilation.h Pages: 1 -->
<svg width="628pt" height="252pt"
 viewBox="0.00 0.00 627.50 252.00" xmlns="http://www.w3.org/2000/svg" xmlns:xlink="http://www.w3.org/1999/xlink">
<g id="graph0" class="graph" transform="scale(1 1) rotate(0) translate(4 248)">
<title>inst/include/assimilation.h</title>
<!-- Node1 -->
<g id="node1" class="node">
<title>Node1</title>
<g id="a_node1"><a xlink:title=" ">
<polygon fill="#bfbfbf" stroke="black" points="333.5,-224.5 333.5,-243.5 478.5,-243.5 478.5,-224.5 333.5,-224.5"/>
<text text-anchor="middle" x="406" y="-231.5" font-family="Helvetica,sans-Serif" font-size="10.00">inst/include/assimilation.h</text>
</a>
</g>
</g>
<!-- Node2 -->
<g id="node2" class="node">
<title>Node2</title>
<g id="a_node2"><a xlink:title=" ">
<polygon fill="none" stroke="#bfbfbf" points="276.5,-168.5 276.5,-187.5 335.5,-187.5 335.5,-168.5 276.5,-168.5"/>
<text text-anchor="middle" x="306" y="-175.5" font-family="Helvetica,sans-Serif" font-size="10.00">phydro.h</text>
</a>
</g>
</g>
<!-- Node1&#45;&gt;Node2 -->
<g id="edge1" class="edge">
<title>Node1&#45;&gt;Node2</title>
<path fill="none" stroke="midnightblue" d="M389.93,-224.32C374.04,-215.74 349.49,-202.49 331.04,-192.52"/>
<polygon fill="midnightblue" stroke="midnightblue" points="332.49,-189.33 322.03,-187.65 329.16,-195.49 332.49,-189.33"/>
</g>
<!-- Node3 -->
<g id="node3" class="node">
<title>Node3</title>
<g id="a_node3"><a xlink:href="traits__params_8h.html" target="_top" xlink:title=" ">
<polygon fill="none" stroke="black" points="317.5,-112.5 317.5,-131.5 410.5,-131.5 410.5,-112.5 317.5,-112.5"/>
<text text-anchor="middle" x="364" y="-119.5" font-family="Helvetica,sans-Serif" font-size="10.00">traits_params.h</text>
</a>
</g>
</g>
<!-- Node1&#45;&gt;Node3 -->
<g id="edge2" class="edge">
<title>Node1&#45;&gt;Node3</title>
<path fill="none" stroke="midnightblue" d="M400.91,-224.26C395.87,-215.36 388.19,-201.04 383,-188 376.89,-172.64 371.76,-154.54 368.38,-141.35"/>
<polygon fill="midnightblue" stroke="midnightblue" points="371.76,-140.45 365.96,-131.59 364.97,-142.13 371.76,-140.45"/>
</g>
<!-- Node16 -->
<g id="node16" class="node">
<title>Node16</title>
<g id="a_node16"><a xlink:href="plant__architecture_8h.html" target="_top" xlink:title=" ">
<polygon fill="none" stroke="black" points="392,-168.5 392,-187.5 506,-187.5 506,-168.5 392,-168.5"/>
<text text-anchor="middle" x="449" y="-175.5" font-family="Helvetica,sans-Serif" font-size="10.00">plant_architecture.h</text>
</a>
</g>
</g>
<!-- Node1&#45;&gt;Node16 -->
<g id="edge16" class="edge">
<title>Node1&#45;&gt;Node16</title>
<path fill="none" stroke="midnightblue" d="M413.1,-224.08C419.24,-216.38 428.27,-205.03 435.74,-195.65"/>
<polygon fill="midnightblue" stroke="midnightblue" points="438.54,-197.75 442.03,-187.75 433.06,-193.39 438.54,-197.75"/>
</g>
<!-- Node17 -->
<g id="node17" class="node">
<title>Node17</title>
<g id="a_node17"><a xlink:href="assimilation_8tpp.html" target="_top" xlink:title=" ">
<polygon fill="none" stroke="black" points="524.5,-168.5 524.5,-187.5 619.5,-187.5 619.5,-168.5 524.5,-168.5"/>
<text text-anchor="middle" x="572" y="-175.5" font-family="Helvetica,sans-Serif" font-size="10.00">assimilation.tpp</text>
</a>
</g>
</g>
<!-- Node1&#45;&gt;Node17 -->
<g id="edge19" class="edge">
<title>Node1&#45;&gt;Node17</title>
<path fill="none" stroke="midnightblue" d="M432.3,-224.44C460.35,-215.32 504.94,-200.81 536.18,-190.65"/>
<polygon fill="midnightblue" stroke="midnightblue" points="537.39,-193.94 545.82,-187.52 535.23,-187.28 537.39,-193.94"/>
</g>
<!-- Node4 -->
<g id="node4" class="node">
<title>Node4</title>
<g id="a_node4"><a xlink:href="initializer__v2_8h.html" target="_top" xlink:title=" ">
<polygon fill="none" stroke="black" points="173.5,-56.5 173.5,-75.5 286.5,-75.5 286.5,-56.5 173.5,-56.5"/>
<text text-anchor="middle" x="230" y="-63.5" font-family="Helvetica,sans-Serif" font-size="10.00">utils/initializer_v2.h</text>
</a>
</g>
</g>
<!-- Node3&#45;&gt;Node4 -->
<g id="edge3" class="edge">
<title>Node3&#45;&gt;Node4</title>
<path fill="none" stroke="midnightblue" d="M342.77,-112.44C320.62,-103.52 285.68,-89.44 260.56,-79.32"/>
<polygon fill="midnightblue" stroke="midnightblue" points="261.72,-76.01 251.13,-75.52 259.1,-82.5 261.72,-76.01"/>
</g>
<!-- Node7 -->
<g id="node7" class="node">
<title>Node7</title>
<g id="a_node7"><a xlink:title=" ">
<polygon fill="none" stroke="#bfbfbf" points="0,-0.5 0,-19.5 44,-19.5 44,-0.5 0,-0.5"/>
<text text-anchor="middle" x="22" y="-7.5" font-family="Helvetica,sans-Serif" font-size="10.00">string</text>
</a>
</g>
</g>
<!-- Node3&#45;&gt;Node7 -->
<g id="edge14" class="edge">
<title>Node3&#45;&gt;Node7</title>
<path fill="none" stroke="midnightblue" d="M317.18,-113.31C276.16,-105.91 215.26,-93.29 164,-76 121.48,-61.66 74.6,-38.7 46.76,-24.25"/>
<polygon fill="midnightblue" stroke="midnightblue" points="48.22,-21.07 37.74,-19.53 44.97,-27.27 48.22,-21.07"/>
</g>
<!-- Node13 -->
<g id="node13" class="node">
<title>Node13</title>
<g id="a_node13"><a xlink:title=" ">
<polygon fill="none" stroke="#bfbfbf" points="304.5,-56.5 304.5,-75.5 365.5,-75.5 365.5,-56.5 304.5,-56.5"/>
<text text-anchor="middle" x="335" y="-63.5" font-family="Helvetica,sans-Serif" font-size="10.00">io_utils.h</text>
</a>
</g>
</g>
<!-- Node3&#45;&gt;Node13 -->
<g id="edge12" class="edge">
<title>Node3&#45;&gt;Node13</title>
<path fill="none" stroke="midnightblue" d="M359.21,-112.08C355.24,-104.69 349.47,-93.95 344.57,-84.81"/>
<polygon fill="midnightblue" stroke="midnightblue" points="347.51,-82.91 339.7,-75.75 341.35,-86.22 347.51,-82.91"/>
</g>
<!-- Node14 -->
<g id="node14" class="node">
<title>Node14</title>
<g id="a_node14"><a xlink:title=" ">
<polygon fill="none" stroke="#bfbfbf" points="454.5,-56.5 454.5,-75.5 501.5,-75.5 501.5,-56.5 454.5,-56.5"/>
<text text-anchor="middle" x="478" y="-63.5" font-family="Helvetica,sans-Serif" font-size="10.00">cmath</text>
</a>
</g>
</g>
<!-- Node3&#45;&gt;Node14 -->
<g id="edge13" class="edge">
<title>Node3&#45;&gt;Node14</title>
<path fill="none" stroke="midnightblue" d="M382.06,-112.44C400.57,-103.68 429.58,-89.94 450.86,-79.86"/>
<polygon fill="midnightblue" stroke="midnightblue" points="452.48,-82.96 460.02,-75.52 449.49,-76.63 452.48,-82.96"/>
</g>
<!-- Node15 -->
<g id="node15" class="node">
<title>Node15</title>
<g id="a_node15"><a xlink:title=" ">
<polygon fill="none" stroke="#bfbfbf" points="384,-56.5 384,-75.5 436,-75.5 436,-56.5 384,-56.5"/>
<text text-anchor="middle" x="410" y="-63.5" font-family="Helvetica,sans-Serif" font-size="10.00">cassert</text>
</a>
</g>
</g>
<!-- Node3&#45;&gt;Node15 -->
<g id="edge15" class="edge">
<title>Node3&#45;&gt;Node15</title>
<path fill="none" stroke="midnightblue" d="M371.6,-112.08C378.23,-104.3 388.02,-92.8 396.06,-83.37"/>
<polygon fill="midnightblue" stroke="midnightblue" points="398.73,-85.63 402.55,-75.75 393.4,-81.09 398.73,-85.63"/>
</g>
<!-- Node5 -->
<g id="node5" class="node">
<title>Node5</title>
<g id="a_node5"><a xlink:title=" ">
<polygon fill="none" stroke="#bfbfbf" points="62,-0.5 62,-19.5 122,-19.5 122,-0.5 62,-0.5"/>
<text text-anchor="middle" x="92" y="-7.5" font-family="Helvetica,sans-Serif" font-size="10.00">iostream</text>
</a>
</g>
</g>
<!-- Node4&#45;&gt;Node5 -->
<g id="edge4" class="edge">
<title>Node4&#45;&gt;Node5</title>
<path fill="none" stroke="midnightblue" d="M208.13,-56.44C185.22,-47.48 149.02,-33.31 123.13,-23.18"/>
<polygon fill="midnightblue" stroke="midnightblue" points="124.35,-19.9 113.76,-19.52 121.8,-26.42 124.35,-19.9"/>
</g>
<!-- Node6 -->
<g id="node6" class="node">
<title>Node6</title>
<g id="a_node6"><a xlink:title=" ">
<polygon fill="none" stroke="#bfbfbf" points="140,-0.5 140,-19.5 184,-19.5 184,-0.5 140,-0.5"/>
<text text-anchor="middle" x="162" y="-7.5" font-family="Helvetica,sans-Serif" font-size="10.00">regex</text>
</a>
</g>
</g>
<!-- Node4&#45;&gt;Node6 -->
<g id="edge5" class="edge">
<title>Node4&#45;&gt;Node6</title>
<path fill="none" stroke="midnightblue" d="M219.07,-56.32C208.83,-48.18 193.28,-35.84 181,-26.09"/>
<polygon fill="midnightblue" stroke="midnightblue" points="183.13,-23.31 173.12,-19.83 178.78,-28.79 183.13,-23.31"/>
</g>
<!-- Node4&#45;&gt;Node7 -->
<g id="edge6" class="edge">
<title>Node4&#45;&gt;Node7</title>
<path fill="none" stroke="midnightblue" d="M194.98,-56.47C161.23,-48.16 108.5,-34.97 54.13,-20.25"/>
<polygon fill="midnightblue" stroke="midnightblue" points="54.89,-16.83 44.33,-17.58 53.06,-23.58 54.89,-16.83"/>
</g>
<!-- Node8 -->
<g id="node8" class="node">
<title>Node8</title>
<g id="a_node8"><a xlink:title=" ">
<polygon fill="none" stroke="#bfbfbf" points="202.5,-0.5 202.5,-19.5 257.5,-19.5 257.5,-0.5 202.5,-0.5"/>
<text text-anchor="middle" x="230" y="-7.5" font-family="Helvetica,sans-Serif" font-size="10.00">fstream</text>
</a>
</g>
</g>
<!-- Node4&#45;&gt;Node8 -->
<g id="edge7" class="edge">
<title>Node4&#45;&gt;Node8</title>
<path fill="none" stroke="midnightblue" d="M230,-56.08C230,-49.01 230,-38.86 230,-29.99"/>
<polygon fill="midnightblue" stroke="midnightblue" points="233.5,-29.75 230,-19.75 226.5,-29.75 233.5,-29.75"/>
</g>
<!-- Node9 -->
<g id="node9" class="node">
<title>Node9</title>
<g id="a_node9"><a xlink:title=" ">
<polygon fill="none" stroke="#bfbfbf" points="275.5,-0.5 275.5,-19.5 322.5,-19.5 322.5,-0.5 275.5,-0.5"/>
<text text-anchor="middle" x="299" y="-7.5" font-family="Helvetica,sans-Serif" font-size="10.00">vector</text>
</a>
</g>
</g>
<!-- Node4&#45;&gt;Node9 -->
<g id="edge8" class="edge">
<title>Node4&#45;&gt;Node9</title>
<path fill="none" stroke="midnightblue" d="M241.09,-56.32C251.49,-48.18 267.26,-35.84 279.72,-26.09"/>
<polygon fill="midnightblue" stroke="midnightblue" points="281.99,-28.75 287.71,-19.83 277.68,-23.24 281.99,-28.75"/>
</g>
<!-- Node10 -->
<g id="node10" class="node">
<title>Node10</title>
<g id="a_node10"><a xlink:title=" ">
<polygon fill="none" stroke="#bfbfbf" points="341,-0.5 341,-19.5 397,-19.5 397,-0.5 341,-0.5"/>
<text text-anchor="middle" x="369" y="-7.5" font-family="Helvetica,sans-Serif" font-size="10.00">sstream</text>
</a>
</g>
</g>
<!-- Node4&#45;&gt;Node10 -->
<g id="edge9" class="edge">
<title>Node4&#45;&gt;Node10</title>
<path fill="none" stroke="midnightblue" d="M252.02,-56.44C275.1,-47.48 311.56,-33.31 337.64,-23.18"/>
<polygon fill="midnightblue" stroke="midnightblue" points="339.02,-26.4 347.08,-19.52 336.49,-19.88 339.02,-26.4"/>
</g>
<!-- Node11 -->
<g id="node11" class="node">
<title>Node11</title>
<g id="a_node11"><a xlink:title=" ">
<polygon fill="none" stroke="#bfbfbf" points="415.5,-0.5 415.5,-19.5 480.5,-19.5 480.5,-0.5 415.5,-0.5"/>
<text text-anchor="middle" x="448" y="-7.5" font-family="Helvetica,sans-Serif" font-size="10.00">stdexcept</text>
</a>
</g>
</g>
<!-- Node4&#45;&gt;Node11 -->
<g id="edge10" class="edge">
<title>Node4&#45;&gt;Node11</title>
<path fill="none" stroke="midnightblue" d="M264.54,-56.44C302.81,-46.96 364.52,-31.68 405.67,-21.49"/>
<polygon fill="midnightblue" stroke="midnightblue" points="406.53,-24.88 415.4,-19.08 404.85,-18.08 406.53,-24.88"/>
</g>
<!-- Node12 -->
<g id="node12" class="node">
<title>Node12</title>
<g id="a_node12"><a xlink:title=" ">
<polygon fill="none" stroke="#bfbfbf" points="498.5,-0.5 498.5,-19.5 591.5,-19.5 591.5,-0.5 498.5,-0.5"/>
<text text-anchor="middle" x="545" y="-7.5" font-family="Helvetica,sans-Serif" font-size="10.00">unordered_map</text>
</a>
</g>
</g>
<!-- Node4&#45;&gt;Node12 -->
<g id="edge11" class="edge">
<title>Node4&#45;&gt;Node12</title>
<path fill="none" stroke="midnightblue" d="M279.91,-56.44C336.65,-46.72 429.08,-30.87 488.44,-20.7"/>
<polygon fill="midnightblue" stroke="midnightblue" points="489.14,-24.13 498.4,-18.99 487.95,-17.23 489.14,-24.13"/>
</g>
<!-- Node16&#45;&gt;Node3 -->
<g id="edge18" class="edge">
<title>Node16&#45;&gt;Node3</title>
<path fill="none" stroke="midnightblue" d="M435.34,-168.32C422.08,-159.9 401.73,-146.97 386.15,-137.07"/>
<polygon fill="midnightblue" stroke="midnightblue" points="387.94,-134.06 377.62,-131.65 384.19,-139.97 387.94,-134.06"/>
</g>
<!-- Node16&#45;&gt;Node14 -->
<g id="edge17" class="edge">
<title>Node16&#45;&gt;Node14</title>
<path fill="none" stroke="midnightblue" d="M451.28,-168.37C455.98,-150.54 466.85,-109.3 473.18,-85.27"/>
<polygon fill="midnightblue" stroke="midnightblue" points="476.57,-86.15 475.73,-75.59 469.8,-84.37 476.57,-86.15"/>
</g>
</g>
</svg>
