<?xml version="1.0" encoding="UTF-8" standalone="no"?>
<!DOCTYPE svg PUBLIC "-//W3C//DTD SVG 1.1//EN"
 "http://www.w3.org/Graphics/SVG/1.1/DTD/svg11.dtd">
<!-- Generated by graphviz version 2.43.0 (0)
 -->
<!-- Title: inst/include/assimilation.h Pages: 1 -->
<svg width="960pt" height="330pt"
 viewBox="0.00 0.00 960.00 330.00" xmlns="http://www.w3.org/2000/svg" xmlns:xlink="http://www.w3.org/1999/xlink">
<g id="graph0" class="graph" transform="scale(1 1) rotate(0) translate(4 326)">
<title>inst/include/assimilation.h</title>
<!-- Node1 -->
<g id="node1" class="node">
<title>Node1</title>
<g id="a_node1"><a xlink:title=" ">
<polygon fill="#bfbfbf" stroke="black" points="137,-302.5 137,-321.5 282,-321.5 282,-302.5 137,-302.5"/>
<text text-anchor="middle" x="209.5" y="-309.5" font-family="Helvetica,sans-Serif" font-size="10.00">inst/include/assimilation.h</text>
</a>
</g>
</g>
<!-- Node2 -->
<g id="node2" class="node">
<title>Node2</title>
<g id="a_node2"><a xlink:href="assimilation_8cpp.html" target="_top" xlink:title=" ">
<polygon fill="none" stroke="black" points="67.5,-246.5 67.5,-265.5 181.5,-265.5 181.5,-246.5 67.5,-246.5"/>
<text text-anchor="middle" x="124.5" y="-253.5" font-family="Helvetica,sans-Serif" font-size="10.00">src/assimilation.cpp</text>
</a>
</g>
</g>
<!-- Node1&#45;&gt;Node2 -->
<g id="edge1" class="edge">
<title>Node1&#45;&gt;Node2</title>
<path fill="none" stroke="midnightblue" d="M187.31,-296.9C171.72,-287 151.37,-274.07 138.12,-265.65"/>
<polygon fill="midnightblue" stroke="midnightblue" points="185.53,-299.92 195.84,-302.32 189.28,-294.01 185.53,-299.92"/>
</g>
<!-- Node3 -->
<g id="node3" class="node">
<title>Node3</title>
<g id="a_node3"><a xlink:href="life__history_8h.html" target="_top" xlink:title=" ">
<polygon fill="none" stroke="black" points="129.5,-190.5 129.5,-209.5 267.5,-209.5 267.5,-190.5 129.5,-190.5"/>
<text text-anchor="middle" x="198.5" y="-197.5" font-family="Helvetica,sans-Serif" font-size="10.00">inst/include/life_history.h</text>
</a>
</g>
</g>
<!-- Node1&#45;&gt;Node3 -->
<g id="edge2" class="edge">
<title>Node1&#45;&gt;Node3</title>
<path fill="none" stroke="midnightblue" d="M207.63,-292.35C205.23,-268.25 201.13,-227.31 199.36,-209.59"/>
<polygon fill="midnightblue" stroke="midnightblue" points="204.16,-292.77 208.64,-302.37 211.12,-292.07 204.16,-292.77"/>
</g>
<!-- Node7 -->
<g id="node7" class="node">
<title>Node7</title>
<g id="a_node7"><a xlink:href="plant_8h.html" target="_top" xlink:title=" ">
<polygon fill="none" stroke="black" points="259.5,-246.5 259.5,-265.5 369.5,-265.5 369.5,-246.5 259.5,-246.5"/>
<text text-anchor="middle" x="314.5" y="-253.5" font-family="Helvetica,sans-Serif" font-size="10.00">inst/include/plant.h</text>
</a>
</g>
</g>
<!-- Node1&#45;&gt;Node7 -->
<g id="edge6" class="edge">
<title>Node1&#45;&gt;Node7</title>
<path fill="none" stroke="midnightblue" d="M235.31,-297.73C254.75,-287.73 280.85,-274.31 297.67,-265.65"/>
<polygon fill="midnightblue" stroke="midnightblue" points="233.66,-294.64 226.37,-302.32 236.86,-300.86 233.66,-294.64"/>
</g>
<!-- Node4 -->
<g id="node4" class="node">
<title>Node4</title>
<g id="a_node4"><a xlink:href="life__history_8cpp.html" target="_top" xlink:title=" ">
<polygon fill="none" stroke="black" points="0,-129 0,-148 107,-148 107,-129 0,-129"/>
<text text-anchor="middle" x="53.5" y="-136" font-family="Helvetica,sans-Serif" font-size="10.00">src/life_history.cpp</text>
</a>
</g>
</g>
<!-- Node3&#45;&gt;Node4 -->
<g id="edge3" class="edge">
<title>Node3&#45;&gt;Node4</title>
<path fill="none" stroke="midnightblue" d="M168.36,-186.63C140.19,-175.07 98.88,-158.12 74.24,-148.01"/>
<polygon fill="midnightblue" stroke="midnightblue" points="167.14,-189.92 177.73,-190.48 169.8,-183.44 167.14,-189.92"/>
</g>
<!-- Node5 -->
<g id="node5" class="node">
<title>Node5</title>
<g id="a_node5"><a xlink:href="r__interface_8cpp.html" target="_top" xlink:title=" ">
<polygon fill="none" stroke="black" points="217,-0.5 217,-19.5 324,-19.5 324,-0.5 217,-0.5"/>
<text text-anchor="middle" x="270.5" y="-7.5" font-family="Helvetica,sans-Serif" font-size="10.00">src/r_interface.cpp</text>
</a>
</g>
</g>
<!-- Node3&#45;&gt;Node5 -->
<g id="edge4" class="edge">
<title>Node3&#45;&gt;Node5</title>
<path fill="none" stroke="midnightblue" d="M205.39,-181.01C220.52,-141.5 256.18,-48.38 267.2,-19.62"/>
<polygon fill="midnightblue" stroke="midnightblue" points="202.09,-179.84 201.78,-190.43 208.63,-182.35 202.09,-179.84"/>
</g>
<!-- Node6 -->
<g id="node6" class="node">
<title>Node6</title>
<g id="a_node6"><a xlink:href="lho_8cpp.html" target="_top" xlink:title=" ">
<polygon fill="none" stroke="black" points="125,-129 125,-148 204,-148 204,-129 125,-129"/>
<text text-anchor="middle" x="164.5" y="-136" font-family="Helvetica,sans-Serif" font-size="10.00">tests/lho.cpp</text>
</a>
</g>
</g>
<!-- Node3&#45;&gt;Node6 -->
<g id="edge5" class="edge">
<title>Node3&#45;&gt;Node6</title>
<path fill="none" stroke="midnightblue" d="M188.6,-181.67C182.28,-170.61 174.36,-156.75 169.36,-148.01"/>
<polygon fill="midnightblue" stroke="midnightblue" points="185.63,-183.53 193.63,-190.48 191.71,-180.06 185.63,-183.53"/>
</g>
<!-- Node7&#45;&gt;Node3 -->
<g id="edge8" class="edge">
<title>Node7&#45;&gt;Node3</title>
<path fill="none" stroke="midnightblue" d="M286.78,-242.1C265.11,-232.01 235.6,-218.27 216.79,-209.52"/>
<polygon fill="midnightblue" stroke="midnightblue" points="285.58,-245.4 296.12,-246.44 288.53,-239.05 285.58,-245.4"/>
</g>
<!-- Node8 -->
<g id="node8" class="node">
<title>Node8</title>
<g id="a_node8"><a xlink:href="plant_8cpp.html" target="_top" xlink:title=" ">
<polygon fill="none" stroke="black" points="286,-190.5 286,-209.5 365,-209.5 365,-190.5 286,-190.5"/>
<text text-anchor="middle" x="325.5" y="-197.5" font-family="Helvetica,sans-Serif" font-size="10.00">src/plant.cpp</text>
</a>
</g>
</g>
<!-- Node7&#45;&gt;Node8 -->
<g id="edge7" class="edge">
<title>Node7&#45;&gt;Node8</title>
<path fill="none" stroke="midnightblue" d="M318.35,-236.1C320.18,-227.14 322.27,-216.86 323.72,-209.75"/>
<polygon fill="midnightblue" stroke="midnightblue" points="314.88,-235.59 316.32,-246.08 321.74,-236.98 314.88,-235.59"/>
</g>
<!-- Node9 -->
<g id="node9" class="node">
<title>Node9</title>
<g id="a_node9"><a xlink:href="pspm__interface_8h.html" target="_top" xlink:title=" ">
<polygon fill="none" stroke="black" points="445,-190.5 445,-209.5 606,-209.5 606,-190.5 445,-190.5"/>
<text text-anchor="middle" x="525.5" y="-197.5" font-family="Helvetica,sans-Serif" font-size="10.00">inst/include/pspm_interface.h</text>
</a>
</g>
</g>
<!-- Node7&#45;&gt;Node9 -->
<g id="edge9" class="edge">
<title>Node7&#45;&gt;Node9</title>
<path fill="none" stroke="midnightblue" d="M357.64,-243.96C397.49,-233.76 455.86,-218.82 492.22,-209.52"/>
<polygon fill="midnightblue" stroke="midnightblue" points="356.75,-240.57 347.93,-246.44 358.49,-247.35 356.75,-240.57"/>
</g>
<!-- Node9&#45;&gt;Node5 -->
<g id="edge12" class="edge">
<title>Node9&#45;&gt;Node5</title>
<path fill="none" stroke="midnightblue" d="M434.45,-192.52C376.73,-186.43 309.33,-174.98 289.5,-154 253.54,-115.96 263.63,-44.72 268.55,-19.84"/>
<polygon fill="midnightblue" stroke="midnightblue" points="434.43,-196.04 444.73,-193.56 435.13,-189.07 434.43,-196.04"/>
</g>
<!-- Node10 -->
<g id="node10" class="node">
<title>Node10</title>
<g id="a_node10"><a xlink:href="light__environment_8cpp.html" target="_top" xlink:title=" ">
<polygon fill="none" stroke="black" points="299,-129 299,-148 442,-148 442,-129 299,-129"/>
<text text-anchor="middle" x="370.5" y="-136" font-family="Helvetica,sans-Serif" font-size="10.00">src/light_environment.cpp</text>
</a>
</g>
</g>
<!-- Node9&#45;&gt;Node10 -->
<g id="edge10" class="edge">
<title>Node9&#45;&gt;Node10</title>
<path fill="none" stroke="midnightblue" d="M493.67,-186.78C463.55,-175.22 419.12,-158.16 392.67,-148.01"/>
<polygon fill="midnightblue" stroke="midnightblue" points="492.7,-190.16 503.29,-190.48 495.21,-183.62 492.7,-190.16"/>
</g>
<!-- Node11 -->
<g id="node11" class="node">
<title>Node11</title>
<g id="a_node11"><a xlink:href="pspm__interface_8cpp.html" target="_top" xlink:title=" ">
<polygon fill="none" stroke="black" points="460.5,-129 460.5,-148 590.5,-148 590.5,-129 460.5,-129"/>
<text text-anchor="middle" x="525.5" y="-136" font-family="Helvetica,sans-Serif" font-size="10.00">src/pspm_interface.cpp</text>
</a>
</g>
</g>
<!-- Node9&#45;&gt;Node11 -->
<g id="edge11" class="edge">
<title>Node9&#45;&gt;Node11</title>
<path fill="none" stroke="midnightblue" d="M525.5,-180.32C525.5,-169.5 525.5,-156.4 525.5,-148.01"/>
<polygon fill="midnightblue" stroke="midnightblue" points="522,-180.48 525.5,-190.48 529,-180.48 522,-180.48"/>
</g>
<!-- Node12 -->
<g id="node12" class="node">
<title>Node12</title>
<g id="a_node12"><a xlink:href="community__properties_8h.html" target="_top" xlink:title=" ">
<polygon fill="none" stroke="black" points="609,-123.5 609,-153.5 740,-153.5 740,-123.5 609,-123.5"/>
<text text-anchor="start" x="617" y="-141.5" font-family="Helvetica,sans-Serif" font-size="10.00">inst/include/community</text>
<text text-anchor="middle" x="674.5" y="-130.5" font-family="Helvetica,sans-Serif" font-size="10.00">_properties.h</text>
</a>
</g>
</g>
<!-- Node9&#45;&gt;Node12 -->
<g id="edge13" class="edge">
<title>Node9&#45;&gt;Node12</title>
<path fill="none" stroke="midnightblue" d="M556.25,-186.72C580.44,-177.06 614.14,-163.6 639.38,-153.52"/>
<polygon fill="midnightblue" stroke="midnightblue" points="554.84,-183.52 546.85,-190.48 557.43,-190.02 554.84,-183.52"/>
</g>
<!-- Node14 -->
<g id="node14" class="node">
<title>Node14</title>
<g id="a_node14"><a xlink:href="plantfate__patch_8h.html" target="_top" xlink:title=" ">
<polygon fill="none" stroke="black" points="689.5,-56.5 689.5,-86.5 809.5,-86.5 809.5,-56.5 689.5,-56.5"/>
<text text-anchor="start" x="697.5" y="-74.5" font-family="Helvetica,sans-Serif" font-size="10.00">inst/include/plantfate</text>
<text text-anchor="middle" x="749.5" y="-63.5" font-family="Helvetica,sans-Serif" font-size="10.00">_patch.h</text>
</a>
</g>
</g>
<!-- Node9&#45;&gt;Node14 -->
<g id="edge20" class="edge">
<title>Node9&#45;&gt;Node14</title>
<path fill="none" stroke="midnightblue" d="M616.27,-192.3C670.66,-186.19 732.46,-174.8 749.5,-154 765.01,-135.06 759.56,-104.5 754.39,-86.67"/>
<polygon fill="midnightblue" stroke="midnightblue" points="615.79,-188.83 606.22,-193.38 616.53,-195.79 615.79,-188.83"/>
</g>
<!-- Node17 -->
<g id="node17" class="node">
<title>Node17</title>
<g id="a_node17"><a xlink:href="state__restore_8h.html" target="_top" xlink:title=" ">
<polygon fill="none" stroke="black" points="797,-123.5 797,-153.5 898,-153.5 898,-123.5 797,-123.5"/>
<text text-anchor="start" x="805" y="-141.5" font-family="Helvetica,sans-Serif" font-size="10.00">inst/include/state</text>
<text text-anchor="middle" x="847.5" y="-130.5" font-family="Helvetica,sans-Serif" font-size="10.00">_restore.h</text>
</a>
</g>
</g>
<!-- Node9&#45;&gt;Node17 -->
<g id="edge21" class="edge">
<title>Node9&#45;&gt;Node17</title>
<path fill="none" stroke="midnightblue" d="M588.4,-188.82C640.52,-180.18 716.49,-167.14 782.5,-154 787.15,-153.07 791.98,-152.07 796.81,-151.05"/>
<polygon fill="midnightblue" stroke="midnightblue" points="587.59,-185.4 578.3,-190.49 588.74,-192.31 587.59,-185.4"/>
</g>
<!-- Node13 -->
<g id="node13" class="node">
<title>Node13</title>
<g id="a_node13"><a xlink:href="community__properties_8cpp.html" target="_top" xlink:title=" ">
<polygon fill="none" stroke="black" points="501.5,-0.5 501.5,-19.5 665.5,-19.5 665.5,-0.5 501.5,-0.5"/>
<text text-anchor="middle" x="583.5" y="-7.5" font-family="Helvetica,sans-Serif" font-size="10.00">src/community_properties.cpp</text>
</a>
</g>
</g>
<!-- Node12&#45;&gt;Node13 -->
<g id="edge14" class="edge">
<title>Node12&#45;&gt;Node13</title>
<path fill="none" stroke="midnightblue" d="M658.32,-115C637.92,-86.65 603.84,-39.28 589.82,-19.79"/>
<polygon fill="midnightblue" stroke="midnightblue" points="655.73,-117.41 664.41,-123.48 661.42,-113.32 655.73,-117.41"/>
</g>
<!-- Node12&#45;&gt;Node14 -->
<g id="edge15" class="edge">
<title>Node12&#45;&gt;Node14</title>
<path fill="none" stroke="midnightblue" d="M698.62,-116.6C709.94,-106.78 723.14,-95.34 733.26,-86.58"/>
<polygon fill="midnightblue" stroke="midnightblue" points="696.04,-114.2 690.77,-123.4 700.62,-119.49 696.04,-114.2"/>
</g>
<!-- Node14&#45;&gt;Node5 -->
<g id="edge18" class="edge">
<title>Node14&#45;&gt;Node5</title>
<path fill="none" stroke="midnightblue" d="M679.36,-61.79C582.84,-49.8 411.14,-28.47 324.17,-17.67"/>
<polygon fill="midnightblue" stroke="midnightblue" points="678.96,-65.27 689.32,-63.02 679.83,-58.32 678.96,-65.27"/>
</g>
<!-- Node14&#45;&gt;Node13 -->
<g id="edge16" class="edge">
<title>Node14&#45;&gt;Node13</title>
<path fill="none" stroke="midnightblue" d="M700.52,-52.94C669.93,-41.98 631.9,-28.35 607.65,-19.66"/>
<polygon fill="midnightblue" stroke="midnightblue" points="699.57,-56.32 710.16,-56.4 701.93,-49.73 699.57,-56.32"/>
</g>
<!-- Node15 -->
<g id="node15" class="node">
<title>Node15</title>
<g id="a_node15"><a xlink:href="plantfate__patch_8cpp.html" target="_top" xlink:title=" ">
<polygon fill="none" stroke="black" points="684,-0.5 684,-19.5 815,-19.5 815,-0.5 684,-0.5"/>
<text text-anchor="middle" x="749.5" y="-7.5" font-family="Helvetica,sans-Serif" font-size="10.00">src/plantfate_patch.cpp</text>
</a>
</g>
</g>
<!-- Node14&#45;&gt;Node15 -->
<g id="edge17" class="edge">
<title>Node14&#45;&gt;Node15</title>
<path fill="none" stroke="midnightblue" d="M749.5,-46.29C749.5,-36.86 749.5,-26.65 749.5,-19.66"/>
<polygon fill="midnightblue" stroke="midnightblue" points="746,-46.4 749.5,-56.4 753,-46.4 746,-46.4"/>
</g>
<!-- Node16 -->
<g id="node16" class="node">
<title>Node16</title>
<g id="a_node16"><a xlink:href="state__restore_8cpp.html" target="_top" xlink:title=" ">
<polygon fill="none" stroke="black" points="833,-0.5 833,-19.5 952,-19.5 952,-0.5 833,-0.5"/>
<text text-anchor="middle" x="892.5" y="-7.5" font-family="Helvetica,sans-Serif" font-size="10.00">src/state_restore.cpp</text>
</a>
</g>
</g>
<!-- Node14&#45;&gt;Node16 -->
<g id="edge19" class="edge">
<title>Node14&#45;&gt;Node16</title>
<path fill="none" stroke="midnightblue" d="M792.72,-52.52C818.89,-41.63 851.08,-28.23 871.69,-19.66"/>
<polygon fill="midnightblue" stroke="midnightblue" points="791.28,-49.33 783.39,-56.4 793.97,-55.79 791.28,-49.33"/>
</g>
<!-- Node17&#45;&gt;Node14 -->
<g id="edge23" class="edge">
<title>Node17&#45;&gt;Node14</title>
<path fill="none" stroke="midnightblue" d="M817.7,-117.73C802.53,-107.68 784.46,-95.68 770.72,-86.58"/>
<polygon fill="midnightblue" stroke="midnightblue" points="815.97,-120.79 826.24,-123.4 819.84,-114.95 815.97,-120.79"/>
</g>
<!-- Node17&#45;&gt;Node16 -->
<g id="edge22" class="edge">
<title>Node17&#45;&gt;Node16</title>
<path fill="none" stroke="midnightblue" d="M855.9,-113.89C866.02,-85.43 882.53,-39.03 889.37,-19.79"/>
<polygon fill="midnightblue" stroke="midnightblue" points="852.54,-112.88 852.49,-123.48 859.14,-115.23 852.54,-112.88"/>
</g>
</g>
</svg>
