<?xml version="1.0" encoding="UTF-8" standalone="no"?>
<!DOCTYPE svg PUBLIC "-//W3C//DTD SVG 1.1//EN"
 "http://www.w3.org/Graphics/SVG/1.1/DTD/svg11.dtd">
<!-- Generated by graphviz version 2.43.0 (0)
 -->
<!-- Title: src/assimilation.cpp Pages: 1 -->
<svg width="600pt" height="308pt"
 viewBox="0.00 0.00 599.50 308.00" xmlns="http://www.w3.org/2000/svg" xmlns:xlink="http://www.w3.org/1999/xlink">
<g id="graph0" class="graph" transform="scale(1 1) rotate(0) translate(4 304)">
<title>src/assimilation.cpp</title>
<!-- Node1 -->
<g id="node1" class="node">
<title>Node1</title>
<g id="a_node1"><a xlink:title=" ">
<polygon fill="#bfbfbf" stroke="black" points="419,-280.5 419,-299.5 533,-299.5 533,-280.5 419,-280.5"/>
<text text-anchor="middle" x="476" y="-287.5" font-family="Helvetica,sans-Serif" font-size="10.00">src/assimilation.cpp</text>
</a>
</g>
</g>
<!-- Node2 -->
<g id="node2" class="node">
<title>Node2</title>
<g id="a_node2"><a xlink:href="assimilation_8h.html" target="_top" xlink:title=" ">
<polygon fill="none" stroke="black" points="334,-224.5 334,-243.5 420,-243.5 420,-224.5 334,-224.5"/>
<text text-anchor="middle" x="377" y="-231.5" font-family="Helvetica,sans-Serif" font-size="10.00">assimilation.h</text>
</a>
</g>
</g>
<!-- Node1&#45;&gt;Node2 -->
<g id="edge1" class="edge">
<title>Node1&#45;&gt;Node2</title>
<path fill="none" stroke="midnightblue" d="M460.09,-280.32C444.36,-271.74 420.06,-258.49 401.79,-248.52"/>
<polygon fill="midnightblue" stroke="midnightblue" points="403.32,-245.37 392.87,-243.65 399.97,-251.52 403.32,-245.37"/>
</g>
<!-- Node15 -->
<g id="node15" class="node">
<title>Node15</title>
<g id="a_node15"><a xlink:title=" ">
<polygon fill="none" stroke="#bfbfbf" points="454.5,-56.5 454.5,-75.5 501.5,-75.5 501.5,-56.5 454.5,-56.5"/>
<text text-anchor="middle" x="478" y="-63.5" font-family="Helvetica,sans-Serif" font-size="10.00">cmath</text>
</a>
</g>
</g>
<!-- Node1&#45;&gt;Node15 -->
<g id="edge21" class="edge">
<title>Node1&#45;&gt;Node15</title>
<path fill="none" stroke="midnightblue" d="M486.55,-280.36C505.08,-264.41 542.84,-228.29 557,-188 571.93,-145.53 527.12,-103.15 498.98,-81.6"/>
<polygon fill="midnightblue" stroke="midnightblue" points="500.99,-78.73 490.86,-75.6 496.83,-84.36 500.99,-78.73"/>
</g>
<!-- Node3 -->
<g id="node3" class="node">
<title>Node3</title>
<g id="a_node3"><a xlink:title=" ">
<polygon fill="none" stroke="#bfbfbf" points="204.5,-168.5 204.5,-187.5 263.5,-187.5 263.5,-168.5 204.5,-168.5"/>
<text text-anchor="middle" x="234" y="-175.5" font-family="Helvetica,sans-Serif" font-size="10.00">phydro.h</text>
</a>
</g>
</g>
<!-- Node2&#45;&gt;Node3 -->
<g id="edge2" class="edge">
<title>Node2&#45;&gt;Node3</title>
<path fill="none" stroke="midnightblue" d="M354.34,-224.44C330.6,-215.48 293.09,-201.31 266.26,-191.18"/>
<polygon fill="midnightblue" stroke="midnightblue" points="267.14,-187.77 256.55,-187.52 264.67,-194.32 267.14,-187.77"/>
</g>
<!-- Node4 -->
<g id="node4" class="node">
<title>Node4</title>
<g id="a_node4"><a xlink:href="traits__params_8h.html" target="_top" xlink:title=" ">
<polygon fill="none" stroke="black" points="288.5,-112.5 288.5,-131.5 381.5,-131.5 381.5,-112.5 288.5,-112.5"/>
<text text-anchor="middle" x="335" y="-119.5" font-family="Helvetica,sans-Serif" font-size="10.00">traits_params.h</text>
</a>
</g>
</g>
<!-- Node2&#45;&gt;Node4 -->
<g id="edge3" class="edge">
<title>Node2&#45;&gt;Node4</title>
<path fill="none" stroke="midnightblue" d="M354.54,-224.38C339.23,-217.18 320.14,-205.29 311,-188 302.78,-172.45 311.78,-153.45 321.02,-140.02"/>
<polygon fill="midnightblue" stroke="midnightblue" points="324.04,-141.82 327.24,-131.72 318.44,-137.63 324.04,-141.82"/>
</g>
<!-- Node17 -->
<g id="node17" class="node">
<title>Node17</title>
<g id="a_node17"><a xlink:href="plant__architecture_8h.html" target="_top" xlink:title=" ">
<polygon fill="none" stroke="black" points="320,-168.5 320,-187.5 434,-187.5 434,-168.5 320,-168.5"/>
<text text-anchor="middle" x="377" y="-175.5" font-family="Helvetica,sans-Serif" font-size="10.00">plant_architecture.h</text>
</a>
</g>
</g>
<!-- Node2&#45;&gt;Node17 -->
<g id="edge17" class="edge">
<title>Node2&#45;&gt;Node17</title>
<path fill="none" stroke="midnightblue" d="M377,-224.08C377,-217.01 377,-206.86 377,-197.99"/>
<polygon fill="midnightblue" stroke="midnightblue" points="380.5,-197.75 377,-187.75 373.5,-197.75 380.5,-197.75"/>
</g>
<!-- Node18 -->
<g id="node18" class="node">
<title>Node18</title>
<g id="a_node18"><a xlink:href="assimilation_8tpp.html" target="_top" xlink:title=" ">
<polygon fill="none" stroke="black" points="452.5,-168.5 452.5,-187.5 547.5,-187.5 547.5,-168.5 452.5,-168.5"/>
<text text-anchor="middle" x="500" y="-175.5" font-family="Helvetica,sans-Serif" font-size="10.00">assimilation.tpp</text>
</a>
</g>
</g>
<!-- Node2&#45;&gt;Node18 -->
<g id="edge20" class="edge">
<title>Node2&#45;&gt;Node18</title>
<path fill="none" stroke="midnightblue" d="M396.49,-224.44C416.64,-215.6 448.32,-201.69 471.33,-191.59"/>
<polygon fill="midnightblue" stroke="midnightblue" points="472.85,-194.74 480.6,-187.52 470.04,-188.33 472.85,-194.74"/>
</g>
<!-- Node5 -->
<g id="node5" class="node">
<title>Node5</title>
<g id="a_node5"><a xlink:href="initializer__v2_8h.html" target="_top" xlink:title=" ">
<polygon fill="none" stroke="black" points="173.5,-56.5 173.5,-75.5 286.5,-75.5 286.5,-56.5 173.5,-56.5"/>
<text text-anchor="middle" x="230" y="-63.5" font-family="Helvetica,sans-Serif" font-size="10.00">utils/initializer_v2.h</text>
</a>
</g>
</g>
<!-- Node4&#45;&gt;Node5 -->
<g id="edge4" class="edge">
<title>Node4&#45;&gt;Node5</title>
<path fill="none" stroke="midnightblue" d="M318.13,-112.32C301.29,-103.66 275.19,-90.24 255.76,-80.25"/>
<polygon fill="midnightblue" stroke="midnightblue" points="257.32,-77.12 246.83,-75.65 254.12,-83.34 257.32,-77.12"/>
</g>
<!-- Node8 -->
<g id="node8" class="node">
<title>Node8</title>
<g id="a_node8"><a xlink:title=" ">
<polygon fill="none" stroke="#bfbfbf" points="0,-0.5 0,-19.5 44,-19.5 44,-0.5 0,-0.5"/>
<text text-anchor="middle" x="22" y="-7.5" font-family="Helvetica,sans-Serif" font-size="10.00">string</text>
</a>
</g>
</g>
<!-- Node4&#45;&gt;Node8 -->
<g id="edge15" class="edge">
<title>Node4&#45;&gt;Node8</title>
<path fill="none" stroke="midnightblue" d="M294.67,-112.45C259.64,-104.54 207.79,-91.65 164,-76 121.98,-60.98 75.29,-38.4 47.31,-24.2"/>
<polygon fill="midnightblue" stroke="midnightblue" points="48.73,-20.99 38.23,-19.55 45.54,-27.22 48.73,-20.99"/>
</g>
<!-- Node14 -->
<g id="node14" class="node">
<title>Node14</title>
<g id="a_node14"><a xlink:title=" ">
<polygon fill="none" stroke="#bfbfbf" points="304.5,-56.5 304.5,-75.5 365.5,-75.5 365.5,-56.5 304.5,-56.5"/>
<text text-anchor="middle" x="335" y="-63.5" font-family="Helvetica,sans-Serif" font-size="10.00">io_utils.h</text>
</a>
</g>
</g>
<!-- Node4&#45;&gt;Node14 -->
<g id="edge13" class="edge">
<title>Node4&#45;&gt;Node14</title>
<path fill="none" stroke="midnightblue" d="M335,-112.08C335,-105.01 335,-94.86 335,-85.99"/>
<polygon fill="midnightblue" stroke="midnightblue" points="338.5,-85.75 335,-75.75 331.5,-85.75 338.5,-85.75"/>
</g>
<!-- Node4&#45;&gt;Node15 -->
<g id="edge14" class="edge">
<title>Node4&#45;&gt;Node15</title>
<path fill="none" stroke="midnightblue" d="M357.66,-112.44C381.4,-103.48 418.91,-89.31 445.74,-79.18"/>
<polygon fill="midnightblue" stroke="midnightblue" points="447.33,-82.32 455.45,-75.52 444.86,-75.77 447.33,-82.32"/>
</g>
<!-- Node16 -->
<g id="node16" class="node">
<title>Node16</title>
<g id="a_node16"><a xlink:title=" ">
<polygon fill="none" stroke="#bfbfbf" points="384,-56.5 384,-75.5 436,-75.5 436,-56.5 384,-56.5"/>
<text text-anchor="middle" x="410" y="-63.5" font-family="Helvetica,sans-Serif" font-size="10.00">cassert</text>
</a>
</g>
</g>
<!-- Node4&#45;&gt;Node16 -->
<g id="edge16" class="edge">
<title>Node4&#45;&gt;Node16</title>
<path fill="none" stroke="midnightblue" d="M347.05,-112.32C358.46,-104.11 375.83,-91.6 389.43,-81.81"/>
<polygon fill="midnightblue" stroke="midnightblue" points="391.66,-84.52 397.73,-75.83 387.57,-78.84 391.66,-84.52"/>
</g>
<!-- Node6 -->
<g id="node6" class="node">
<title>Node6</title>
<g id="a_node6"><a xlink:title=" ">
<polygon fill="none" stroke="#bfbfbf" points="62,-0.5 62,-19.5 122,-19.5 122,-0.5 62,-0.5"/>
<text text-anchor="middle" x="92" y="-7.5" font-family="Helvetica,sans-Serif" font-size="10.00">iostream</text>
</a>
</g>
</g>
<!-- Node5&#45;&gt;Node6 -->
<g id="edge5" class="edge">
<title>Node5&#45;&gt;Node6</title>
<path fill="none" stroke="midnightblue" d="M208.13,-56.44C185.22,-47.48 149.02,-33.31 123.13,-23.18"/>
<polygon fill="midnightblue" stroke="midnightblue" points="124.35,-19.9 113.76,-19.52 121.8,-26.42 124.35,-19.9"/>
</g>
<!-- Node7 -->
<g id="node7" class="node">
<title>Node7</title>
<g id="a_node7"><a xlink:title=" ">
<polygon fill="none" stroke="#bfbfbf" points="140,-0.5 140,-19.5 184,-19.5 184,-0.5 140,-0.5"/>
<text text-anchor="middle" x="162" y="-7.5" font-family="Helvetica,sans-Serif" font-size="10.00">regex</text>
</a>
</g>
</g>
<!-- Node5&#45;&gt;Node7 -->
<g id="edge6" class="edge">
<title>Node5&#45;&gt;Node7</title>
<path fill="none" stroke="midnightblue" d="M219.07,-56.32C208.83,-48.18 193.28,-35.84 181,-26.09"/>
<polygon fill="midnightblue" stroke="midnightblue" points="183.13,-23.31 173.12,-19.83 178.78,-28.79 183.13,-23.31"/>
</g>
<!-- Node5&#45;&gt;Node8 -->
<g id="edge7" class="edge">
<title>Node5&#45;&gt;Node8</title>
<path fill="none" stroke="midnightblue" d="M194.98,-56.47C161.23,-48.16 108.5,-34.97 54.13,-20.25"/>
<polygon fill="midnightblue" stroke="midnightblue" points="54.89,-16.83 44.33,-17.58 53.06,-23.58 54.89,-16.83"/>
</g>
<!-- Node9 -->
<g id="node9" class="node">
<title>Node9</title>
<g id="a_node9"><a xlink:title=" ">
<polygon fill="none" stroke="#bfbfbf" points="202.5,-0.5 202.5,-19.5 257.5,-19.5 257.5,-0.5 202.5,-0.5"/>
<text text-anchor="middle" x="230" y="-7.5" font-family="Helvetica,sans-Serif" font-size="10.00">fstream</text>
</a>
</g>
</g>
<!-- Node5&#45;&gt;Node9 -->
<g id="edge8" class="edge">
<title>Node5&#45;&gt;Node9</title>
<path fill="none" stroke="midnightblue" d="M230,-56.08C230,-49.01 230,-38.86 230,-29.99"/>
<polygon fill="midnightblue" stroke="midnightblue" points="233.5,-29.75 230,-19.75 226.5,-29.75 233.5,-29.75"/>
</g>
<!-- Node10 -->
<g id="node10" class="node">
<title>Node10</title>
<g id="a_node10"><a xlink:title=" ">
<polygon fill="none" stroke="#bfbfbf" points="275.5,-0.5 275.5,-19.5 322.5,-19.5 322.5,-0.5 275.5,-0.5"/>
<text text-anchor="middle" x="299" y="-7.5" font-family="Helvetica,sans-Serif" font-size="10.00">vector</text>
</a>
</g>
</g>
<!-- Node5&#45;&gt;Node10 -->
<g id="edge9" class="edge">
<title>Node5&#45;&gt;Node10</title>
<path fill="none" stroke="midnightblue" d="M241.09,-56.32C251.49,-48.18 267.26,-35.84 279.72,-26.09"/>
<polygon fill="midnightblue" stroke="midnightblue" points="281.99,-28.75 287.71,-19.83 277.68,-23.24 281.99,-28.75"/>
</g>
<!-- Node11 -->
<g id="node11" class="node">
<title>Node11</title>
<g id="a_node11"><a xlink:title=" ">
<polygon fill="none" stroke="#bfbfbf" points="341,-0.5 341,-19.5 397,-19.5 397,-0.5 341,-0.5"/>
<text text-anchor="middle" x="369" y="-7.5" font-family="Helvetica,sans-Serif" font-size="10.00">sstream</text>
</a>
</g>
</g>
<!-- Node5&#45;&gt;Node11 -->
<g id="edge10" class="edge">
<title>Node5&#45;&gt;Node11</title>
<path fill="none" stroke="midnightblue" d="M252.02,-56.44C275.1,-47.48 311.56,-33.31 337.64,-23.18"/>
<polygon fill="midnightblue" stroke="midnightblue" points="339.02,-26.4 347.08,-19.52 336.49,-19.88 339.02,-26.4"/>
</g>
<!-- Node12 -->
<g id="node12" class="node">
<title>Node12</title>
<g id="a_node12"><a xlink:title=" ">
<polygon fill="none" stroke="#bfbfbf" points="415.5,-0.5 415.5,-19.5 480.5,-19.5 480.5,-0.5 415.5,-0.5"/>
<text text-anchor="middle" x="448" y="-7.5" font-family="Helvetica,sans-Serif" font-size="10.00">stdexcept</text>
</a>
</g>
</g>
<!-- Node5&#45;&gt;Node12 -->
<g id="edge11" class="edge">
<title>Node5&#45;&gt;Node12</title>
<path fill="none" stroke="midnightblue" d="M264.54,-56.44C302.81,-46.96 364.52,-31.68 405.67,-21.49"/>
<polygon fill="midnightblue" stroke="midnightblue" points="406.53,-24.88 415.4,-19.08 404.85,-18.08 406.53,-24.88"/>
</g>
<!-- Node13 -->
<g id="node13" class="node">
<title>Node13</title>
<g id="a_node13"><a xlink:title=" ">
<polygon fill="none" stroke="#bfbfbf" points="498.5,-0.5 498.5,-19.5 591.5,-19.5 591.5,-0.5 498.5,-0.5"/>
<text text-anchor="middle" x="545" y="-7.5" font-family="Helvetica,sans-Serif" font-size="10.00">unordered_map</text>
</a>
</g>
</g>
<!-- Node5&#45;&gt;Node13 -->
<g id="edge12" class="edge">
<title>Node5&#45;&gt;Node13</title>
<path fill="none" stroke="midnightblue" d="M279.91,-56.44C336.65,-46.72 429.08,-30.87 488.44,-20.7"/>
<polygon fill="midnightblue" stroke="midnightblue" points="489.14,-24.13 498.4,-18.99 487.95,-17.23 489.14,-24.13"/>
</g>
<!-- Node17&#45;&gt;Node4 -->
<g id="edge19" class="edge">
<title>Node17&#45;&gt;Node4</title>
<path fill="none" stroke="midnightblue" d="M370.06,-168.08C364.07,-160.38 355.25,-149.03 347.95,-139.65"/>
<polygon fill="midnightblue" stroke="midnightblue" points="350.71,-137.5 341.81,-131.75 345.18,-141.79 350.71,-137.5"/>
</g>
<!-- Node17&#45;&gt;Node15 -->
<g id="edge18" class="edge">
<title>Node17&#45;&gt;Node15</title>
<path fill="none" stroke="midnightblue" d="M384.93,-168.37C401.81,-149.97 441.57,-106.67 463.26,-83.05"/>
<polygon fill="midnightblue" stroke="midnightblue" points="465.93,-85.32 470.11,-75.59 460.77,-80.59 465.93,-85.32"/>
</g>
</g>
</svg>
