<?xml version="1.0" encoding="UTF-8" standalone="no"?>
<!DOCTYPE svg PUBLIC "-//W3C//DTD SVG 1.1//EN"
 "http://www.w3.org/Graphics/SVG/1.1/DTD/svg11.dtd">
<!-- Generated by graphviz version 2.43.0 (0)
 -->
<!-- Title: plant::PlantTraits::init Pages: 1 -->
<svg width="292pt" height="127pt"
 viewBox="0.00 0.00 292.00 126.50" xmlns="http://www.w3.org/2000/svg" xmlns:xlink="http://www.w3.org/1999/xlink">
<g id="graph0" class="graph" transform="scale(1 1) rotate(0) translate(4 122.5)">
<title>plant::PlantTraits::init</title>
<!-- Node1 -->
<g id="node1" class="node">
<title>Node1</title>
<g id="a_node1"><a xlink:title=" ">
<polygon fill="#bfbfbf" stroke="black" points="185,-39 185,-69 284,-69 284,-39 185,-39"/>
<text text-anchor="start" x="193" y="-57" font-family="Helvetica,sans-Serif" font-size="10.00">plant::PlantTraits</text>
<text text-anchor="middle" x="234.5" y="-46" font-family="Helvetica,sans-Serif" font-size="10.00">::init</text>
</a>
</g>
</g>
<!-- Node2 -->
<g id="node2" class="node">
<title>Node2</title>
<g id="a_node2"><a xlink:href="classplant_1_1PlantTraits.html#a9b4568e865eeba7ed29f0cfa06d81d43" target="_top" xlink:title=" ">
<polygon fill="none" stroke="black" points="25,-88 25,-118 124,-118 124,-88 25,-88"/>
<text text-anchor="start" x="33" y="-106" font-family="Helvetica,sans-Serif" font-size="10.00">plant::PlantTraits</text>
<text text-anchor="middle" x="74.5" y="-95" font-family="Helvetica,sans-Serif" font-size="10.00">::initFromFile</text>
</a>
</g>
</g>
<!-- Node1&#45;&gt;Node2 -->
<g id="edge1" class="edge">
<title>Node1&#45;&gt;Node2</title>
<path fill="none" stroke="midnightblue" d="M175.1,-72.11C158.3,-77.32 140.17,-82.95 124.03,-87.95"/>
<polygon fill="midnightblue" stroke="midnightblue" points="176.29,-75.41 184.81,-69.1 174.22,-68.72 176.29,-75.41"/>
</g>
<!-- Node3 -->
<g id="node3" class="node">
<title>Node3</title>
<g id="a_node3"><a xlink:href="classpfate_1_1LifeHistoryOptimizer.html#aa4cb2a8040fff4223c34ca2838fadfda" target="_top" xlink:title=" ">
<polygon fill="none" stroke="black" points="0,-39 0,-69 149,-69 149,-39 0,-39"/>
<text text-anchor="start" x="8" y="-57" font-family="Helvetica,sans-Serif" font-size="10.00">pfate::LifeHistoryOptimizer</text>
<text text-anchor="middle" x="74.5" y="-46" font-family="Helvetica,sans-Serif" font-size="10.00">::LifeHistoryOptimizer</text>
</a>
</g>
</g>
<!-- Node1&#45;&gt;Node3 -->
<g id="edge2" class="edge">
<title>Node1&#45;&gt;Node3</title>
<path fill="none" stroke="midnightblue" d="M174.76,-54C166.37,-54 157.65,-54 149.02,-54"/>
<polygon fill="midnightblue" stroke="midnightblue" points="174.81,-57.5 184.81,-54 174.81,-50.5 174.81,-57.5"/>
</g>
<!-- Node4 -->
<g id="node4" class="node">
<title>Node4</title>
<g id="a_node4"><a xlink:href="classpfate_1_1Patch.html#a8b436c6aac2f58c3dd3cba0c979f61d9" target="_top" xlink:title=" ">
<polygon fill="none" stroke="black" points="20.5,-0.5 20.5,-19.5 128.5,-19.5 128.5,-0.5 20.5,-0.5"/>
<text text-anchor="middle" x="74.5" y="-7.5" font-family="Helvetica,sans-Serif" font-size="10.00">pfate::Patch::Patch</text>
</a>
</g>
</g>
<!-- Node1&#45;&gt;Node4 -->
<g id="edge3" class="edge">
<title>Node1&#45;&gt;Node4</title>
<path fill="none" stroke="midnightblue" d="M175.07,-37.31C166.33,-34.84 157.43,-32.35 149,-30 136.64,-26.56 123.1,-22.86 111.04,-19.58"/>
<polygon fill="midnightblue" stroke="midnightblue" points="174.25,-40.72 184.82,-40.07 176.15,-33.98 174.25,-40.72"/>
</g>
</g>
</svg>
