<?xml version="1.0" encoding="UTF-8" standalone="no"?>
<!DOCTYPE svg PUBLIC "-//W3C//DTD SVG 1.1//EN"
 "http://www.w3.org/Graphics/SVG/1.1/DTD/svg11.dtd">
<!-- Generated by graphviz version 2.43.0 (0)
 -->
<!-- Title: io::Initializer::get Pages: 1 -->
<svg width="456pt" height="176pt"
 viewBox="0.00 0.00 456.00 176.00" xmlns="http://www.w3.org/2000/svg" xmlns:xlink="http://www.w3.org/1999/xlink">
<g id="graph0" class="graph" transform="scale(1 1) rotate(0) translate(4 172)">
<title>io::Initializer::get</title>
<!-- Node1 -->
<g id="node1" class="node">
<title>Node1</title>
<g id="a_node1"><a xlink:title=" ">
<polygon fill="#bfbfbf" stroke="black" points="349,-50 349,-69 448,-69 448,-50 349,-50"/>
<text text-anchor="middle" x="398.5" y="-57" font-family="Helvetica,sans-Serif" font-size="10.00">io::Initializer::get</text>
</a>
</g>
</g>
<!-- Node2 -->
<g id="node2" class="node">
<title>Node2</title>
<g id="a_node2"><a xlink:href="classplant_1_1PlantTraits.html#a752ff5e88101f3002440c3cd8879cf31" target="_top" xlink:title=" ">
<polygon fill="none" stroke="black" points="199.5,-93.5 199.5,-123.5 298.5,-123.5 298.5,-93.5 199.5,-93.5"/>
<text text-anchor="start" x="207.5" y="-111.5" font-family="Helvetica,sans-Serif" font-size="10.00">plant::PlantTraits</text>
<text text-anchor="middle" x="249" y="-100.5" font-family="Helvetica,sans-Serif" font-size="10.00">::init</text>
</a>
</g>
</g>
<!-- Node1&#45;&gt;Node2 -->
<g id="edge1" class="edge">
<title>Node1&#45;&gt;Node2</title>
<path fill="none" stroke="midnightblue" d="M359.21,-72.22C339.65,-78.72 315.73,-86.66 295.26,-93.46"/>
<polygon fill="midnightblue" stroke="midnightblue" points="360.32,-75.54 368.71,-69.06 358.12,-68.9 360.32,-75.54"/>
</g>
<!-- Node5 -->
<g id="node5" class="node">
<title>Node5</title>
<g id="a_node5"><a xlink:href="classpfate_1_1Patch.html#a8b436c6aac2f58c3dd3cba0c979f61d9" target="_top" xlink:title=" ">
<polygon fill="none" stroke="black" points="20.5,-50 20.5,-69 128.5,-69 128.5,-50 20.5,-50"/>
<text text-anchor="middle" x="74.5" y="-57" font-family="Helvetica,sans-Serif" font-size="10.00">pfate::Patch::Patch</text>
</a>
</g>
</g>
<!-- Node1&#45;&gt;Node5 -->
<g id="edge9" class="edge">
<title>Node1&#45;&gt;Node5</title>
<path fill="none" stroke="midnightblue" d="M361.14,-46.79C346.39,-42.26 329.08,-37.74 313,-35.5 256.65,-27.65 241.56,-29.37 185,-35.5 159.65,-38.25 131.57,-44.47 110.2,-49.89"/>
<polygon fill="midnightblue" stroke="midnightblue" points="360.3,-50.19 370.89,-49.89 362.42,-43.52 360.3,-50.19"/>
</g>
<!-- Node6 -->
<g id="node6" class="node">
<title>Node6</title>
<g id="a_node6"><a xlink:href="classplant_1_1PlantParameters.html#a6f4ee512f917665608504a6a893d92f3" target="_top" xlink:title=" ">
<polygon fill="none" stroke="black" points="185,-44.5 185,-74.5 313,-74.5 313,-44.5 185,-44.5"/>
<text text-anchor="start" x="193" y="-62.5" font-family="Helvetica,sans-Serif" font-size="10.00">plant::PlantParameters</text>
<text text-anchor="middle" x="249" y="-51.5" font-family="Helvetica,sans-Serif" font-size="10.00">::init</text>
</a>
</g>
</g>
<!-- Node1&#45;&gt;Node6 -->
<g id="edge5" class="edge">
<title>Node1&#45;&gt;Node6</title>
<path fill="none" stroke="midnightblue" d="M338.7,-59.5C330.29,-59.5 321.61,-59.5 313.12,-59.5"/>
<polygon fill="midnightblue" stroke="midnightblue" points="338.79,-63 348.79,-59.5 338.79,-56 338.79,-63"/>
</g>
<!-- Node3 -->
<g id="node3" class="node">
<title>Node3</title>
<g id="a_node3"><a xlink:href="classplant_1_1PlantTraits.html#a9b4568e865eeba7ed29f0cfa06d81d43" target="_top" xlink:title=" ">
<polygon fill="none" stroke="black" points="25,-137.5 25,-167.5 124,-167.5 124,-137.5 25,-137.5"/>
<text text-anchor="start" x="33" y="-155.5" font-family="Helvetica,sans-Serif" font-size="10.00">plant::PlantTraits</text>
<text text-anchor="middle" x="74.5" y="-144.5" font-family="Helvetica,sans-Serif" font-size="10.00">::initFromFile</text>
</a>
</g>
</g>
<!-- Node2&#45;&gt;Node3 -->
<g id="edge2" class="edge">
<title>Node2&#45;&gt;Node3</title>
<path fill="none" stroke="midnightblue" d="M189.61,-123.39C168.35,-128.82 144.57,-134.88 124.24,-140.07"/>
<polygon fill="midnightblue" stroke="midnightblue" points="190.67,-126.74 199.49,-120.87 188.94,-119.95 190.67,-126.74"/>
</g>
<!-- Node4 -->
<g id="node4" class="node">
<title>Node4</title>
<g id="a_node4"><a xlink:href="classpfate_1_1LifeHistoryOptimizer.html#aa4cb2a8040fff4223c34ca2838fadfda" target="_top" xlink:title=" ">
<polygon fill="none" stroke="black" points="0,-88.5 0,-118.5 149,-118.5 149,-88.5 0,-88.5"/>
<text text-anchor="start" x="8" y="-106.5" font-family="Helvetica,sans-Serif" font-size="10.00">pfate::LifeHistoryOptimizer</text>
<text text-anchor="middle" x="74.5" y="-95.5" font-family="Helvetica,sans-Serif" font-size="10.00">::LifeHistoryOptimizer</text>
</a>
</g>
</g>
<!-- Node2&#45;&gt;Node4 -->
<g id="edge3" class="edge">
<title>Node2&#45;&gt;Node4</title>
<path fill="none" stroke="midnightblue" d="M189.34,-106.8C176.4,-106.42 162.54,-106.02 149.1,-105.63"/>
<polygon fill="midnightblue" stroke="midnightblue" points="189.39,-110.3 199.49,-107.09 189.6,-103.31 189.39,-110.3"/>
</g>
<!-- Node2&#45;&gt;Node5 -->
<g id="edge4" class="edge">
<title>Node2&#45;&gt;Node5</title>
<path fill="none" stroke="midnightblue" d="M189.48,-91.15C176.18,-87.27 162.12,-83.21 149,-79.5 136.66,-76.01 123.11,-72.3 111.05,-69.03"/>
<polygon fill="midnightblue" stroke="midnightblue" points="188.88,-94.63 199.46,-94.08 190.85,-87.91 188.88,-94.63"/>
</g>
<!-- Node6&#45;&gt;Node4 -->
<g id="edge7" class="edge">
<title>Node6&#45;&gt;Node4</title>
<path fill="none" stroke="midnightblue" d="M179.02,-77.09C164.25,-80.86 148.76,-84.81 134.41,-88.47"/>
<polygon fill="midnightblue" stroke="midnightblue" points="180.29,-80.38 189.12,-74.52 178.56,-73.6 180.29,-80.38"/>
</g>
<!-- Node6&#45;&gt;Node5 -->
<g id="edge8" class="edge">
<title>Node6&#45;&gt;Node5</title>
<path fill="none" stroke="midnightblue" d="M174.67,-59.5C159.18,-59.5 143.12,-59.5 128.55,-59.5"/>
<polygon fill="midnightblue" stroke="midnightblue" points="174.75,-63 184.75,-59.5 174.75,-56 174.75,-63"/>
</g>
<!-- Node7 -->
<g id="node7" class="node">
<title>Node7</title>
<g id="a_node7"><a xlink:href="classplant_1_1PlantParameters.html#a80569bfa425831d8f3f89a134c958f0d" target="_top" xlink:title=" ">
<polygon fill="none" stroke="black" points="10.5,-0.5 10.5,-30.5 138.5,-30.5 138.5,-0.5 10.5,-0.5"/>
<text text-anchor="start" x="18.5" y="-18.5" font-family="Helvetica,sans-Serif" font-size="10.00">plant::PlantParameters</text>
<text text-anchor="middle" x="74.5" y="-7.5" font-family="Helvetica,sans-Serif" font-size="10.00">::initFromFile</text>
</a>
</g>
</g>
<!-- Node6&#45;&gt;Node7 -->
<g id="edge6" class="edge">
<title>Node6&#45;&gt;Node7</title>
<path fill="none" stroke="midnightblue" d="M179.02,-41.91C164.25,-38.14 148.76,-34.19 134.41,-30.53"/>
<polygon fill="midnightblue" stroke="midnightblue" points="178.56,-45.4 189.12,-44.48 180.29,-38.62 178.56,-45.4"/>
</g>
</g>
</svg>
