<?xml version="1.0" encoding="UTF-8" standalone="no"?>
<!DOCTYPE svg PUBLIC "-//W3C//DTD SVG 1.1//EN"
 "http://www.w3.org/Graphics/SVG/1.1/DTD/svg11.dtd">
<!-- Generated by graphviz version 2.43.0 (0)
 -->
<!-- Title: pfate::CommunityProperties::isResident Pages: 1 -->
<svg width="356pt" height="198pt"
 viewBox="0.00 0.00 356.00 198.00" xmlns="http://www.w3.org/2000/svg" xmlns:xlink="http://www.w3.org/1999/xlink">
<g id="graph0" class="graph" transform="scale(1 1) rotate(0) translate(4 194)">
<title>pfate::CommunityProperties::isResident</title>
<!-- Node1 -->
<g id="node1" class="node">
<title>Node1</title>
<g id="a_node1"><a xlink:title=" ">
<polygon fill="#bfbfbf" stroke="black" points="193,-82.5 193,-112.5 348,-112.5 348,-82.5 193,-82.5"/>
<text text-anchor="start" x="201" y="-100.5" font-family="Helvetica,sans-Serif" font-size="10.00">pfate::CommunityProperties</text>
<text text-anchor="middle" x="270.5" y="-89.5" font-family="Helvetica,sans-Serif" font-size="10.00">::isResident</text>
</a>
</g>
</g>
<!-- Node2 -->
<g id="node2" class="node">
<title>Node2</title>
<g id="a_node2"><a xlink:href="classpfate_1_1CommunityProperties.html#aac12adee027152b72045c1459d3b9d45" target="_top" xlink:title=" ">
<polygon fill="none" stroke="black" points="1,-159.5 1,-189.5 156,-189.5 156,-159.5 1,-159.5"/>
<text text-anchor="start" x="9" y="-177.5" font-family="Helvetica,sans-Serif" font-size="10.00">pfate::CommunityProperties</text>
<text text-anchor="middle" x="78.5" y="-166.5" font-family="Helvetica,sans-Serif" font-size="10.00">::integrate_prop</text>
</a>
</g>
</g>
<!-- Node1&#45;&gt;Node2 -->
<g id="edge1" class="edge">
<title>Node1&#45;&gt;Node2</title>
<path fill="none" stroke="midnightblue" d="M231.26,-117.15C209.76,-127.78 182.25,-140.7 157,-150.5 148.86,-153.66 140.12,-156.7 131.54,-159.49"/>
<polygon fill="midnightblue" stroke="midnightblue" points="233,-120.19 240.38,-112.6 229.87,-113.93 233,-120.19"/>
</g>
<!-- Node3 -->
<g id="node3" class="node">
<title>Node3</title>
<g id="a_node3"><a xlink:href="classpfate_1_1CommunityProperties.html#ae9239df9eca22647dad6c20d80809e6e" target="_top" xlink:title=" ">
<polygon fill="none" stroke="black" points="1,-110.5 1,-140.5 156,-140.5 156,-110.5 1,-110.5"/>
<text text-anchor="start" x="9" y="-128.5" font-family="Helvetica,sans-Serif" font-size="10.00">pfate::CommunityProperties</text>
<text text-anchor="middle" x="78.5" y="-117.5" font-family="Helvetica,sans-Serif" font-size="10.00">::integrate_prop_above</text>
</a>
</g>
</g>
<!-- Node1&#45;&gt;Node3 -->
<g id="edge2" class="edge">
<title>Node1&#45;&gt;Node3</title>
<path fill="none" stroke="midnightblue" d="M182.81,-110.28C173.94,-111.58 164.96,-112.91 156.21,-114.2"/>
<polygon fill="midnightblue" stroke="midnightblue" points="183.38,-113.73 192.77,-108.81 182.36,-106.8 183.38,-113.73"/>
</g>
<!-- Node4 -->
<g id="node4" class="node">
<title>Node4</title>
<g id="a_node4"><a xlink:href="classpfate_1_1CommunityProperties.html#a135d707a7096d92aed79188bb47133eb" target="_top" xlink:title=" ">
<polygon fill="none" stroke="black" points="1,-50 1,-91 156,-91 156,-50 1,-50"/>
<text text-anchor="start" x="9" y="-79" font-family="Helvetica,sans-Serif" font-size="10.00">pfate::CommunityProperties</text>
<text text-anchor="start" x="9" y="-68" font-family="Helvetica,sans-Serif" font-size="10.00">::integrate_prop_above_per</text>
<text text-anchor="middle" x="78.5" y="-57" font-family="Helvetica,sans-Serif" font-size="10.00">_species</text>
</a>
</g>
</g>
<!-- Node1&#45;&gt;Node4 -->
<g id="edge3" class="edge">
<title>Node1&#45;&gt;Node4</title>
<path fill="none" stroke="midnightblue" d="M182.81,-85.18C173.94,-83.92 164.96,-82.65 156.21,-81.4"/>
<polygon fill="midnightblue" stroke="midnightblue" points="182.37,-88.65 192.77,-86.6 183.36,-81.72 182.37,-88.65"/>
</g>
<!-- Node5 -->
<g id="node5" class="node">
<title>Node5</title>
<g id="a_node5"><a xlink:href="classpfate_1_1CommunityProperties.html#ac9263330804834fd388da6131fbc6963" target="_top" xlink:title=" ">
<polygon fill="none" stroke="black" points="0,-0.5 0,-30.5 157,-30.5 157,-0.5 0,-0.5"/>
<text text-anchor="start" x="8" y="-18.5" font-family="Helvetica,sans-Serif" font-size="10.00">pfate::CommunityProperties</text>
<text text-anchor="middle" x="78.5" y="-7.5" font-family="Helvetica,sans-Serif" font-size="10.00">::integrate_prop_per_species</text>
</a>
</g>
</g>
<!-- Node1&#45;&gt;Node5 -->
<g id="edge4" class="edge">
<title>Node1&#45;&gt;Node5</title>
<path fill="none" stroke="midnightblue" d="M233.89,-77.64C212.09,-65.95 183.4,-51.37 157,-40.5 148.37,-36.95 139.04,-33.57 129.94,-30.5"/>
<polygon fill="midnightblue" stroke="midnightblue" points="232.32,-80.78 242.78,-82.46 235.65,-74.62 232.32,-80.78"/>
</g>
</g>
</svg>
