<?xml version="1.0" encoding="UTF-8" standalone="no"?>
<!DOCTYPE svg PUBLIC "-//W3C//DTD SVG 1.1//EN"
 "http://www.w3.org/Graphics/SVG/1.1/DTD/svg11.dtd">
<!-- Generated by graphviz version 2.43.0 (0)
 -->
<!-- Title: pfate::env::LightEnvironment::print Pages: 1 -->
<svg width="345pt" height="78pt"
 viewBox="0.00 0.00 345.00 77.50" xmlns="http://www.w3.org/2000/svg" xmlns:xlink="http://www.w3.org/1999/xlink">
<g id="graph0" class="graph" transform="scale(1 1) rotate(0) translate(4 73.5)">
<title>pfate::env::LightEnvironment::print</title>
<!-- Node1 -->
<g id="node1" class="node">
<title>Node1</title>
<g id="a_node1"><a xlink:title=" ">
<polygon fill="#bfbfbf" stroke="black" points="179,-17 179,-47 337,-47 337,-17 179,-17"/>
<text text-anchor="start" x="187" y="-35" font-family="Helvetica,sans-Serif" font-size="10.00">pfate::env::LightEnvironment</text>
<text text-anchor="middle" x="258" y="-24" font-family="Helvetica,sans-Serif" font-size="10.00">::print</text>
</a>
</g>
</g>
<!-- Node2 -->
<g id="node2" class="node">
<title>Node2</title>
<g id="a_node2"><a xlink:href="classpfate_1_1PSPM__Environment.html#a682b7187690d22bce0dd6cd51ddc7026" target="_top" xlink:title=" ">
<polygon fill="none" stroke="black" points="0,-39 0,-69 143,-69 143,-39 0,-39"/>
<text text-anchor="start" x="8" y="-57" font-family="Helvetica,sans-Serif" font-size="10.00">pfate::PSPM_Environment</text>
<text text-anchor="middle" x="71.5" y="-46" font-family="Helvetica,sans-Serif" font-size="10.00">::print</text>
</a>
</g>
</g>
<!-- Node1&#45;&gt;Node2 -->
<g id="edge1" class="edge">
<title>Node1&#45;&gt;Node2</title>
<path fill="none" stroke="midnightblue" d="M168.75,-42.52C160.2,-43.54 151.6,-44.57 143.26,-45.56"/>
<polygon fill="midnightblue" stroke="midnightblue" points="169.24,-45.99 178.76,-41.33 168.41,-39.04 169.24,-45.99"/>
</g>
<!-- Node3 -->
<g id="node3" class="node">
<title>Node3</title>
<g id="a_node3"><a xlink:href="r__interface_8cpp.html#a7897b94cdc1a829775ac5241571cd456" target="_top" xlink:title=" ">
<polygon fill="none" stroke="black" points="26.5,-0.5 26.5,-19.5 116.5,-19.5 116.5,-0.5 26.5,-0.5"/>
<text text-anchor="middle" x="71.5" y="-7.5" font-family="Helvetica,sans-Serif" font-size="10.00">RCPP_MODULE</text>
</a>
</g>
</g>
<!-- Node1&#45;&gt;Node3 -->
<g id="edge2" class="edge">
<title>Node1&#45;&gt;Node3</title>
<path fill="none" stroke="midnightblue" d="M168.75,-21.48C150.68,-19.32 132.41,-17.14 116.71,-15.27"/>
<polygon fill="midnightblue" stroke="midnightblue" points="168.41,-24.96 178.76,-22.67 169.24,-18.01 168.41,-24.96"/>
</g>
</g>
</svg>
