<?xml version="1.0" encoding="UTF-8" standalone="no"?>
<!DOCTYPE svg PUBLIC "-//W3C//DTD SVG 1.1//EN"
 "http://www.w3.org/Graphics/SVG/1.1/DTD/svg11.dtd">
<!-- Generated by graphviz version 2.43.0 (0)
 -->
<!-- Title: pfate::CommunityProperties::closeStreams Pages: 1 -->
<svg width="432pt" height="39pt"
 viewBox="0.00 0.00 432.00 39.00" xmlns="http://www.w3.org/2000/svg" xmlns:xlink="http://www.w3.org/1999/xlink">
<g id="graph0" class="graph" transform="scale(1 1) rotate(0) translate(4 35)">
<title>pfate::CommunityProperties::closeStreams</title>
<!-- Node1 -->
<g id="node1" class="node">
<title>Node1</title>
<g id="a_node1"><a xlink:title=" ">
<polygon fill="#bfbfbf" stroke="black" points="269,-0.5 269,-30.5 424,-30.5 424,-0.5 269,-0.5"/>
<text text-anchor="start" x="277" y="-18.5" font-family="Helvetica,sans-Serif" font-size="10.00">pfate::CommunityProperties</text>
<text text-anchor="middle" x="346.5" y="-7.5" font-family="Helvetica,sans-Serif" font-size="10.00">::closeStreams</text>
</a>
</g>
</g>
<!-- Node2 -->
<g id="node2" class="node">
<title>Node2</title>
<g id="a_node2"><a xlink:href="classpfate_1_1Patch.html#ab76971ff4ca9bf75128d6bbe186d9456" target="_top" xlink:title=" ">
<polygon fill="none" stroke="black" points="126,-6 126,-25 233,-25 233,-6 126,-6"/>
<text text-anchor="middle" x="179.5" y="-13" font-family="Helvetica,sans-Serif" font-size="10.00">pfate::Patch::close</text>
</a>
</g>
</g>
<!-- Node1&#45;&gt;Node2 -->
<g id="edge1" class="edge">
<title>Node1&#45;&gt;Node2</title>
<path fill="none" stroke="midnightblue" d="M258.7,-15.5C250.1,-15.5 241.56,-15.5 233.47,-15.5"/>
<polygon fill="midnightblue" stroke="midnightblue" points="258.8,-19 268.8,-15.5 258.8,-12 258.8,-19"/>
</g>
<!-- Node3 -->
<g id="node3" class="node">
<title>Node3</title>
<g id="a_node3"><a xlink:href="r__interface_8cpp.html#a7897b94cdc1a829775ac5241571cd456" target="_top" xlink:title=" ">
<polygon fill="none" stroke="black" points="0,-6 0,-25 90,-25 90,-6 0,-6"/>
<text text-anchor="middle" x="45" y="-13" font-family="Helvetica,sans-Serif" font-size="10.00">RCPP_MODULE</text>
</a>
</g>
</g>
<!-- Node2&#45;&gt;Node3 -->
<g id="edge2" class="edge">
<title>Node2&#45;&gt;Node3</title>
<path fill="none" stroke="midnightblue" d="M115.66,-15.5C107,-15.5 98.26,-15.5 90.04,-15.5"/>
<polygon fill="midnightblue" stroke="midnightblue" points="115.75,-19 125.75,-15.5 115.75,-12 115.75,-19"/>
</g>
</g>
</svg>
