<?xml version="1.0" encoding="UTF-8" standalone="no"?>
<!DOCTYPE svg PUBLIC "-//W3C//DTD SVG 1.1//EN"
 "http://www.w3.org/Graphics/SVG/1.1/DTD/svg11.dtd">
<!-- Generated by graphviz version 2.43.0 (0)
 -->
<!-- Title: plant::Plant::p_survival_germination Pages: 1 -->
<svg width="828pt" height="371pt"
 viewBox="0.00 0.00 828.00 370.50" xmlns="http://www.w3.org/2000/svg" xmlns:xlink="http://www.w3.org/1999/xlink">
<g id="graph0" class="graph" transform="scale(1 1) rotate(0) translate(4 366.5)">
<title>plant::Plant::p_survival_germination</title>
<!-- Node1 -->
<g id="node1" class="node">
<title>Node1</title>
<g id="a_node1"><a xlink:title="Probability of survival during germination (i.e. until recruitment stage)">
<polygon fill="#bfbfbf" stroke="black" points="0,-147.5 0,-177.5 128,-177.5 128,-147.5 0,-147.5"/>
<text text-anchor="start" x="8" y="-165.5" font-family="Helvetica,sans-Serif" font-size="10.00">plant::Plant::p_survival</text>
<text text-anchor="middle" x="64" y="-154.5" font-family="Helvetica,sans-Serif" font-size="10.00">_germination</text>
</a>
</g>
</g>
<!-- Node2 -->
<g id="node2" class="node">
<title>Node2</title>
<g id="a_node2"><a xlink:href="classplant_1_1Assimilator.html#ade28356f5c19a8033b3781308f21202a" target="_top" xlink:title="Calculate whole&#45;plant net assimilation.">
<polygon fill="none" stroke="black" points="164,-147.5 164,-177.5 267,-177.5 267,-147.5 164,-147.5"/>
<text text-anchor="start" x="172" y="-165.5" font-family="Helvetica,sans-Serif" font-size="10.00">plant::Assimilator</text>
<text text-anchor="middle" x="215.5" y="-154.5" font-family="Helvetica,sans-Serif" font-size="10.00">::net_production</text>
</a>
</g>
</g>
<!-- Node1&#45;&gt;Node2 -->
<g id="edge1" class="edge">
<title>Node1&#45;&gt;Node2</title>
<path fill="none" stroke="midnightblue" d="M128.4,-162.5C136.78,-162.5 145.34,-162.5 153.67,-162.5"/>
<polygon fill="midnightblue" stroke="midnightblue" points="153.68,-166 163.68,-162.5 153.68,-159 153.68,-166"/>
</g>
<!-- Node3 -->
<g id="node3" class="node">
<title>Node3</title>
<g id="a_node3"><a xlink:href="classplant_1_1Assimilator.html#ac0e69ab9225a2d1be337b10446cfa126" target="_top" xlink:title="Calculate whole&#45;plant gross assimilation, transpiration, gs, etc.">
<polygon fill="none" stroke="black" points="303,-294.5 303,-324.5 465,-324.5 465,-294.5 303,-294.5"/>
<text text-anchor="start" x="311" y="-312.5" font-family="Helvetica,sans-Serif" font-size="10.00">plant::Assimilator</text>
<text text-anchor="middle" x="384" y="-301.5" font-family="Helvetica,sans-Serif" font-size="10.00">::calc_plant_assimilation_rate</text>
</a>
</g>
</g>
<!-- Node2&#45;&gt;Node3 -->
<g id="edge2" class="edge">
<title>Node2&#45;&gt;Node3</title>
<path fill="none" stroke="midnightblue" d="M223.14,-177.85C235.2,-203.92 263.19,-256.8 303,-285.5 305.06,-286.98 307.21,-288.38 309.43,-289.69"/>
<polygon fill="midnightblue" stroke="midnightblue" points="307.81,-292.79 318.3,-294.32 311.06,-286.59 307.81,-292.79"/>
</g>
<!-- Node8 -->
<g id="node8" class="node">
<title>Node8</title>
<g id="a_node8"><a xlink:href="classplant_1_1Assimilator.html#ad33549c793850f11330fd48829367c55" target="_top" xlink:title="Calculate leaf and fine&#45;root respiration rates.">
<polygon fill="none" stroke="black" points="322,-245.5 322,-275.5 446,-275.5 446,-245.5 322,-245.5"/>
<text text-anchor="start" x="330" y="-263.5" font-family="Helvetica,sans-Serif" font-size="10.00">plant::Assimilator</text>
<text text-anchor="middle" x="384" y="-252.5" font-family="Helvetica,sans-Serif" font-size="10.00">::leaf_respiration_rate</text>
</a>
</g>
</g>
<!-- Node2&#45;&gt;Node8 -->
<g id="edge7" class="edge">
<title>Node2&#45;&gt;Node8</title>
<path fill="none" stroke="midnightblue" d="M230.38,-177.68C246.38,-194.34 274.2,-220.78 303,-236.5 306.31,-238.31 309.78,-240 313.33,-241.57"/>
<polygon fill="midnightblue" stroke="midnightblue" points="312.32,-244.94 322.9,-245.48 314.97,-238.46 312.32,-244.94"/>
</g>
<!-- Node9 -->
<g id="node9" class="node">
<title>Node9</title>
<g id="a_node9"><a xlink:href="classplant_1_1Assimilator.html#a0da26c8e10a188774954652ec0402e09" target="_top" xlink:title="Calculate leaf and fine&#45;root turnover rates.">
<polygon fill="none" stroke="black" points="327.5,-196.5 327.5,-226.5 440.5,-226.5 440.5,-196.5 327.5,-196.5"/>
<text text-anchor="start" x="335.5" y="-214.5" font-family="Helvetica,sans-Serif" font-size="10.00">plant::Assimilator</text>
<text text-anchor="middle" x="384" y="-203.5" font-family="Helvetica,sans-Serif" font-size="10.00">::leaf_turnover_rate</text>
</a>
</g>
</g>
<!-- Node2&#45;&gt;Node9 -->
<g id="edge8" class="edge">
<title>Node2&#45;&gt;Node9</title>
<path fill="none" stroke="midnightblue" d="M267.36,-177.47C284.63,-182.55 304.1,-188.28 322.07,-193.57"/>
<polygon fill="midnightblue" stroke="midnightblue" points="321.3,-196.99 331.88,-196.45 323.27,-190.27 321.3,-196.99"/>
</g>
<!-- Node11 -->
<g id="node11" class="node">
<title>Node11</title>
<g id="a_node11"><a xlink:href="classplant_1_1Assimilator.html#a07a83723c0f4cc6e98968dfb241c6ce7" target="_top" xlink:title="Leaf economics &#45; calculate optimal leaf lifespan.">
<polygon fill="none" stroke="black" points="321.5,-147.5 321.5,-177.5 446.5,-177.5 446.5,-147.5 321.5,-147.5"/>
<text text-anchor="start" x="329.5" y="-165.5" font-family="Helvetica,sans-Serif" font-size="10.00">plant::Assimilator</text>
<text text-anchor="middle" x="384" y="-154.5" font-family="Helvetica,sans-Serif" font-size="10.00">::les_update_lifespans</text>
</a>
</g>
</g>
<!-- Node2&#45;&gt;Node11 -->
<g id="edge10" class="edge">
<title>Node2&#45;&gt;Node11</title>
<path fill="none" stroke="midnightblue" d="M267.36,-162.5C281.19,-162.5 296.44,-162.5 311.19,-162.5"/>
<polygon fill="midnightblue" stroke="midnightblue" points="311.3,-166 321.3,-162.5 311.3,-159 311.3,-166"/>
</g>
<!-- Node12 -->
<g id="node12" class="node">
<title>Node12</title>
<g id="a_node12"><a xlink:href="classplant_1_1Assimilator.html#aeedad55e35be6fa1d908731a123e2c4f" target="_top" xlink:title="Calculate leaf and fine&#45;root respiration rates.">
<polygon fill="none" stroke="black" points="321.5,-98.5 321.5,-128.5 446.5,-128.5 446.5,-98.5 321.5,-98.5"/>
<text text-anchor="start" x="329.5" y="-116.5" font-family="Helvetica,sans-Serif" font-size="10.00">plant::Assimilator</text>
<text text-anchor="middle" x="384" y="-105.5" font-family="Helvetica,sans-Serif" font-size="10.00">::root_respiration_rate</text>
</a>
</g>
</g>
<!-- Node2&#45;&gt;Node12 -->
<g id="edge11" class="edge">
<title>Node2&#45;&gt;Node12</title>
<path fill="none" stroke="midnightblue" d="M267.36,-147.53C284.63,-142.45 304.1,-136.72 322.07,-131.43"/>
<polygon fill="midnightblue" stroke="midnightblue" points="323.27,-134.73 331.88,-128.55 321.3,-128.01 323.27,-134.73"/>
</g>
<!-- Node14 -->
<g id="node14" class="node">
<title>Node14</title>
<g id="a_node14"><a xlink:href="classplant_1_1Assimilator.html#a31ccc72fe7255233a1640d1f708eebc7" target="_top" xlink:title="Calculate leaf and fine&#45;root turnover rates.">
<polygon fill="none" stroke="black" points="327.5,-49.5 327.5,-79.5 440.5,-79.5 440.5,-49.5 327.5,-49.5"/>
<text text-anchor="start" x="335.5" y="-67.5" font-family="Helvetica,sans-Serif" font-size="10.00">plant::Assimilator</text>
<text text-anchor="middle" x="384" y="-56.5" font-family="Helvetica,sans-Serif" font-size="10.00">::root_turnover_rate</text>
</a>
</g>
</g>
<!-- Node2&#45;&gt;Node14 -->
<g id="edge13" class="edge">
<title>Node2&#45;&gt;Node14</title>
<path fill="none" stroke="midnightblue" d="M230.74,-147.3C246.86,-130.92 274.58,-105.1 303,-89.5 307.7,-86.92 312.71,-84.56 317.84,-82.42"/>
<polygon fill="midnightblue" stroke="midnightblue" points="319.11,-85.68 327.16,-78.79 316.57,-79.16 319.11,-85.68"/>
</g>
<!-- Node15 -->
<g id="node15" class="node">
<title>Node15</title>
<g id="a_node15"><a xlink:href="classplant_1_1Assimilator.html#ad1f356c7c009ad495c9e9a3994c92fd3" target="_top" xlink:title="Calculate leaf and fine&#45;root respiration rates.">
<polygon fill="none" stroke="black" points="309.5,-0.5 309.5,-30.5 458.5,-30.5 458.5,-0.5 309.5,-0.5"/>
<text text-anchor="start" x="317.5" y="-18.5" font-family="Helvetica,sans-Serif" font-size="10.00">plant::Assimilator</text>
<text text-anchor="middle" x="384" y="-7.5" font-family="Helvetica,sans-Serif" font-size="10.00">::sapwood_respiration_rate</text>
</a>
</g>
</g>
<!-- Node2&#45;&gt;Node15 -->
<g id="edge15" class="edge">
<title>Node2&#45;&gt;Node15</title>
<path fill="none" stroke="midnightblue" d="M223.14,-147.15C235.2,-121.08 263.19,-68.2 303,-39.5 305.06,-38.02 307.21,-36.62 309.43,-35.31"/>
<polygon fill="midnightblue" stroke="midnightblue" points="311.06,-38.41 318.3,-30.68 307.81,-32.21 311.06,-38.41"/>
</g>
<!-- Node4 -->
<g id="node4" class="node">
<title>Node4</title>
<g id="a_node4"><a xlink:href="group__ppa__module.html#ga4c6834623dae9423d2981a0b28b0f155" target="_top" xlink:title="Realized crown projection area at height z.">
<polygon fill="none" stroke="black" points="501,-318.5 501,-348.5 632,-348.5 632,-318.5 501,-318.5"/>
<text text-anchor="start" x="509" y="-336.5" font-family="Helvetica,sans-Serif" font-size="10.00">plant::PlantArchitecture</text>
<text text-anchor="middle" x="566.5" y="-325.5" font-family="Helvetica,sans-Serif" font-size="10.00">::crown_area_above</text>
</a>
</g>
</g>
<!-- Node3&#45;&gt;Node4 -->
<g id="edge3" class="edge">
<title>Node3&#45;&gt;Node4</title>
<path fill="none" stroke="midnightblue" d="M465.22,-320.17C473.72,-321.3 482.34,-322.44 490.78,-323.56"/>
<polygon fill="midnightblue" stroke="midnightblue" points="490.58,-327.07 500.95,-324.92 491.5,-320.13 490.58,-327.07"/>
</g>
<!-- Node7 -->
<g id="node7" class="node">
<title>Node7</title>
<g id="a_node7"><a xlink:href="classplant_1_1Assimilator.html#a01115927f79cc407240f59af57c12d17" target="_top" xlink:title="Calculate leaf&#45;level assimilation rate using the Phydro model ///.">
<polygon fill="none" stroke="black" points="501,-269.5 501,-299.5 632,-299.5 632,-269.5 501,-269.5"/>
<text text-anchor="start" x="509" y="-287.5" font-family="Helvetica,sans-Serif" font-size="10.00">plant::Assimilator</text>
<text text-anchor="middle" x="566.5" y="-276.5" font-family="Helvetica,sans-Serif" font-size="10.00">::leaf_assimilation_rate</text>
</a>
</g>
</g>
<!-- Node3&#45;&gt;Node7 -->
<g id="edge6" class="edge">
<title>Node3&#45;&gt;Node7</title>
<path fill="none" stroke="midnightblue" d="M465.22,-298.39C473.72,-297.21 482.34,-296.02 490.78,-294.85"/>
<polygon fill="midnightblue" stroke="midnightblue" points="491.53,-298.28 500.95,-293.44 490.57,-291.35 491.53,-298.28"/>
</g>
<!-- Node5 -->
<g id="node5" class="node">
<title>Node5</title>
<g id="a_node5"><a xlink:href="classplant_1_1PlantArchitecture.html#a81452fb0a56656f176f653d3bf9650d9" target="_top" xlink:title="Vertical profiles of crown and stem">
<polygon fill="none" stroke="black" points="672.5,-343 672.5,-362 815.5,-362 815.5,-343 672.5,-343"/>
<text text-anchor="middle" x="744" y="-350" font-family="Helvetica,sans-Serif" font-size="10.00">plant::PlantArchitecture::q</text>
</a>
</g>
</g>
<!-- Node4&#45;&gt;Node5 -->
<g id="edge4" class="edge">
<title>Node4&#45;&gt;Node5</title>
<path fill="none" stroke="midnightblue" d="M632.35,-340.52C642.09,-341.58 652.24,-342.67 662.26,-343.76"/>
<polygon fill="midnightblue" stroke="midnightblue" points="661.9,-347.24 672.22,-344.84 662.65,-340.28 661.9,-347.24"/>
</g>
<!-- Node6 -->
<g id="node6" class="node">
<title>Node6</title>
<g id="a_node6"><a xlink:href="classplant_1_1PlantArchitecture.html#a4d571b1b0165d995f3d2ca0fe21a4b28" target="_top" xlink:title="The height at which crown radius is maximum.">
<polygon fill="none" stroke="black" points="668,-305 668,-324 820,-324 820,-305 668,-305"/>
<text text-anchor="middle" x="744" y="-312" font-family="Helvetica,sans-Serif" font-size="10.00">plant::PlantArchitecture::zm</text>
</a>
</g>
</g>
<!-- Node4&#45;&gt;Node6 -->
<g id="edge5" class="edge">
<title>Node4&#45;&gt;Node6</title>
<path fill="none" stroke="midnightblue" d="M632.35,-326.48C640.63,-325.58 649.21,-324.65 657.75,-323.73"/>
<polygon fill="midnightblue" stroke="midnightblue" points="658.18,-327.2 667.74,-322.65 657.42,-320.24 658.18,-327.2"/>
</g>
<!-- Node10 -->
<g id="node10" class="node">
<title>Node10</title>
<g id="a_node10"><a xlink:href="classplant_1_1PlantArchitecture.html#a36ebf17a1799f27ce12bd27f637f88a9" target="_top" xlink:title="Get biomass in various carbon pools.">
<polygon fill="none" stroke="black" points="501,-196.5 501,-226.5 632,-226.5 632,-196.5 501,-196.5"/>
<text text-anchor="start" x="509" y="-214.5" font-family="Helvetica,sans-Serif" font-size="10.00">plant::PlantArchitecture</text>
<text text-anchor="middle" x="566.5" y="-203.5" font-family="Helvetica,sans-Serif" font-size="10.00">::leaf_mass</text>
</a>
</g>
</g>
<!-- Node9&#45;&gt;Node10 -->
<g id="edge9" class="edge">
<title>Node9&#45;&gt;Node10</title>
<path fill="none" stroke="midnightblue" d="M440.63,-211.5C456.41,-211.5 473.86,-211.5 490.59,-211.5"/>
<polygon fill="midnightblue" stroke="midnightblue" points="490.89,-215 500.88,-211.5 490.88,-208 490.89,-215"/>
</g>
<!-- Node13 -->
<g id="node13" class="node">
<title>Node13</title>
<g id="a_node13"><a xlink:href="classplant_1_1PlantArchitecture.html#af767ab32b2c9aff347144ce7dff349be" target="_top" xlink:title="Get biomass in various carbon pools.">
<polygon fill="none" stroke="black" points="501,-73.5 501,-103.5 632,-103.5 632,-73.5 501,-73.5"/>
<text text-anchor="start" x="509" y="-91.5" font-family="Helvetica,sans-Serif" font-size="10.00">plant::PlantArchitecture</text>
<text text-anchor="middle" x="566.5" y="-80.5" font-family="Helvetica,sans-Serif" font-size="10.00">::root_mass</text>
</a>
</g>
</g>
<!-- Node12&#45;&gt;Node13 -->
<g id="edge12" class="edge">
<title>Node12&#45;&gt;Node13</title>
<path fill="none" stroke="midnightblue" d="M446.61,-104.97C460.8,-103 476.05,-100.89 490.73,-98.86"/>
<polygon fill="midnightblue" stroke="midnightblue" points="491.35,-102.3 500.78,-97.46 490.39,-95.37 491.35,-102.3"/>
</g>
<!-- Node14&#45;&gt;Node13 -->
<g id="edge14" class="edge">
<title>Node14&#45;&gt;Node13</title>
<path fill="none" stroke="midnightblue" d="M440.63,-71.9C456.41,-74 473.86,-76.32 490.59,-78.54"/>
<polygon fill="midnightblue" stroke="midnightblue" points="490.51,-82.06 500.88,-79.91 491.43,-75.12 490.51,-82.06"/>
</g>
<!-- Node16 -->
<g id="node16" class="node">
<title>Node16</title>
<g id="a_node16"><a xlink:href="classplant_1_1PlantArchitecture.html#a0f95752c3574b4dfadb93e92582e5fa5" target="_top" xlink:title="Get biomass in various carbon pools.">
<polygon fill="none" stroke="black" points="501,-0.5 501,-30.5 632,-30.5 632,-0.5 501,-0.5"/>
<text text-anchor="start" x="509" y="-18.5" font-family="Helvetica,sans-Serif" font-size="10.00">plant::PlantArchitecture</text>
<text text-anchor="middle" x="566.5" y="-7.5" font-family="Helvetica,sans-Serif" font-size="10.00">::sapwood_mass</text>
</a>
</g>
</g>
<!-- Node15&#45;&gt;Node16 -->
<g id="edge16" class="edge">
<title>Node15&#45;&gt;Node16</title>
<path fill="none" stroke="midnightblue" d="M458.68,-15.5C469.24,-15.5 480.12,-15.5 490.7,-15.5"/>
<polygon fill="midnightblue" stroke="midnightblue" points="490.74,-19 500.74,-15.5 490.74,-12 490.74,-19"/>
</g>
<!-- Node17 -->
<g id="node17" class="node">
<title>Node17</title>
<g id="a_node17"><a xlink:href="classplant_1_1PlantArchitecture.html#a1fea368ef9182afc3aedfb76bcc4b3ee" target="_top" xlink:title="Get biomass in various carbon pools.">
<polygon fill="none" stroke="black" points="678.5,-0.5 678.5,-30.5 809.5,-30.5 809.5,-0.5 678.5,-0.5"/>
<text text-anchor="start" x="686.5" y="-18.5" font-family="Helvetica,sans-Serif" font-size="10.00">plant::PlantArchitecture</text>
<text text-anchor="middle" x="744" y="-7.5" font-family="Helvetica,sans-Serif" font-size="10.00">::stem_mass</text>
</a>
</g>
</g>
<!-- Node16&#45;&gt;Node17 -->
<g id="edge17" class="edge">
<title>Node16&#45;&gt;Node17</title>
<path fill="none" stroke="midnightblue" d="M632.35,-15.5C643.98,-15.5 656.19,-15.5 668.08,-15.5"/>
<polygon fill="midnightblue" stroke="midnightblue" points="668.42,-19 678.42,-15.5 668.42,-12 668.42,-19"/>
</g>
</g>
</svg>
