<?xml version="1.0" encoding="UTF-8" standalone="no"?>
<!DOCTYPE svg PUBLIC "-//W3C//DTD SVG 1.1//EN"
 "http://www.w3.org/Graphics/SVG/1.1/DTD/svg11.dtd">
<!-- Generated by graphviz version 2.43.0 (0)
 -->
<!-- Title: pfate::PSPM_Plant Pages: 1 -->
<svg width="228pt" height="95pt"
 viewBox="0.00 0.00 228.00 95.00" xmlns="http://www.w3.org/2000/svg" xmlns:xlink="http://www.w3.org/1999/xlink">
<g id="graph0" class="graph" transform="scale(1 1) rotate(0) translate(4 91)">
<title>pfate::PSPM_Plant</title>
<!-- Node1 -->
<g id="node1" class="node">
<title>Node1</title>
<g id="a_node1"><a xlink:title="This class entends the Plant class to interface with the PSPM Solver.">
<polygon fill="#bfbfbf" stroke="black" points="42.5,-0.5 42.5,-19.5 147.5,-19.5 147.5,-0.5 42.5,-0.5"/>
<text text-anchor="middle" x="95" y="-7.5" font-family="Helvetica,sans-Serif" font-size="10.00">pfate::PSPM_Plant</text>
</a>
</g>
</g>
<!-- Node2 -->
<g id="node2" class="node">
<title>Node2</title>
<g id="a_node2"><a xlink:href="classplant_1_1Plant.html" target="_top" xlink:title="The class for an individual plant.">
<polygon fill="none" stroke="black" points="0,-62 0,-81 72,-81 72,-62 0,-62"/>
<text text-anchor="middle" x="36" y="-69" font-family="Helvetica,sans-Serif" font-size="10.00">plant::Plant</text>
</a>
</g>
</g>
<!-- Node2&#45;&gt;Node1 -->
<g id="edge1" class="edge">
<title>Node2&#45;&gt;Node1</title>
<path fill="none" stroke="midnightblue" d="M51.54,-54.82C62.75,-43.52 77.46,-28.69 86.56,-19.51"/>
<polygon fill="midnightblue" stroke="midnightblue" points="49.01,-52.41 44.45,-61.98 53.98,-57.34 49.01,-52.41"/>
</g>
<!-- Node3 -->
<g id="node3" class="node">
<title>Node3</title>
<g id="a_node3"><a xlink:title=" ">
<polygon fill="none" stroke="#bfbfbf" points="90,-56.5 90,-86.5 220,-86.5 220,-56.5 90,-56.5"/>
<text text-anchor="start" x="98" y="-74.5" font-family="Helvetica,sans-Serif" font-size="10.00">IndividualBase&lt; STATE</text>
<text text-anchor="middle" x="155" y="-63.5" font-family="Helvetica,sans-Serif" font-size="10.00">_DIM &gt;</text>
</a>
</g>
</g>
<!-- Node3&#45;&gt;Node1 -->
<g id="edge2" class="edge">
<title>Node3&#45;&gt;Node1</title>
<path fill="none" stroke="midnightblue" d="M133.62,-49.3C123.32,-39.09 111.55,-27.41 103.73,-19.66"/>
<polygon fill="midnightblue" stroke="midnightblue" points="131.22,-51.84 140.78,-56.4 136.14,-46.87 131.22,-51.84"/>
</g>
</g>
</svg>
