<?xml version="1.0" encoding="UTF-8" standalone="no"?>
<!DOCTYPE svg PUBLIC "-//W3C//DTD SVG 1.1//EN"
 "http://www.w3.org/Graphics/SVG/1.1/DTD/svg11.dtd">
<!-- Generated by graphviz version 2.43.0 (0)
 -->
<!-- Title: plant::PlantArchitecture::leaf_mass Pages: 1 -->
<svg width="1312pt" height="315pt"
 viewBox="0.00 0.00 1312.00 315.00" xmlns="http://www.w3.org/2000/svg" xmlns:xlink="http://www.w3.org/1999/xlink">
<g id="graph0" class="graph" transform="scale(1 1) rotate(0) translate(4 311)">
<title>plant::PlantArchitecture::leaf_mass</title>
<!-- Node1 -->
<g id="node1" class="node">
<title>Node1</title>
<g id="a_node1"><a xlink:title="Get biomass in various carbon pools.">
<polygon fill="#bfbfbf" stroke="black" points="1173,-71.5 1173,-101.5 1304,-101.5 1304,-71.5 1173,-71.5"/>
<text text-anchor="start" x="1181" y="-89.5" font-family="Helvetica,sans-Serif" font-size="10.00">plant::PlantArchitecture</text>
<text text-anchor="middle" x="1238.5" y="-78.5" font-family="Helvetica,sans-Serif" font-size="10.00">::leaf_mass</text>
</a>
</g>
</g>
<!-- Node2 -->
<g id="node2" class="node">
<title>Node2</title>
<g id="a_node2"><a xlink:href="classpfate_1_1LifeHistoryOptimizer.html#a05951c4085bd4f5a06fbbb66b8c3092d" target="_top" xlink:title=" ">
<polygon fill="none" stroke="black" points="496,-90.5 496,-120.5 645,-120.5 645,-90.5 496,-90.5"/>
<text text-anchor="start" x="504" y="-108.5" font-family="Helvetica,sans-Serif" font-size="10.00">pfate::LifeHistoryOptimizer</text>
<text text-anchor="middle" x="570.5" y="-97.5" font-family="Helvetica,sans-Serif" font-size="10.00">::get_state</text>
</a>
</g>
</g>
<!-- Node1&#45;&gt;Node2 -->
<g id="edge1" class="edge">
<title>Node1&#45;&gt;Node2</title>
<path fill="none" stroke="midnightblue" d="M1162.59,-88.64C1034.04,-92.3 772.97,-99.75 645.24,-103.4"/>
<polygon fill="midnightblue" stroke="midnightblue" points="1162.84,-92.13 1172.73,-88.35 1162.64,-85.13 1162.84,-92.13"/>
</g>
<!-- Node6 -->
<g id="node6" class="node">
<title>Node6</title>
<g id="a_node6"><a xlink:href="classplant_1_1Assimilator.html#a0da26c8e10a188774954652ec0402e09" target="_top" xlink:title="Calculate leaf and fine&#45;root turnover rates.">
<polygon fill="none" stroke="black" points="1003,-145.5 1003,-175.5 1116,-175.5 1116,-145.5 1003,-145.5"/>
<text text-anchor="start" x="1011" y="-163.5" font-family="Helvetica,sans-Serif" font-size="10.00">plant::Assimilator</text>
<text text-anchor="middle" x="1059.5" y="-152.5" font-family="Helvetica,sans-Serif" font-size="10.00">::leaf_turnover_rate</text>
</a>
</g>
</g>
<!-- Node1&#45;&gt;Node6 -->
<g id="edge5" class="edge">
<title>Node1&#45;&gt;Node6</title>
<path fill="none" stroke="midnightblue" d="M1191.93,-105.55C1162.2,-117.98 1123.96,-133.97 1096.39,-145.49"/>
<polygon fill="midnightblue" stroke="midnightblue" points="1193.38,-108.74 1201.25,-101.65 1190.68,-102.28 1193.38,-108.74"/>
</g>
<!-- Node17 -->
<g id="node17" class="node">
<title>Node17</title>
<g id="a_node17"><a xlink:href="classplant_1_1PlantArchitecture.html#a93ab8f81042a6f39a158aea24ed17ed2" target="_top" xlink:title="Get biomass in various carbon pools.">
<polygon fill="none" stroke="black" points="994,-49.5 994,-79.5 1125,-79.5 1125,-49.5 994,-49.5"/>
<text text-anchor="start" x="1002" y="-67.5" font-family="Helvetica,sans-Serif" font-size="10.00">plant::PlantArchitecture</text>
<text text-anchor="middle" x="1059.5" y="-56.5" font-family="Helvetica,sans-Serif" font-size="10.00">::total_mass</text>
</a>
</g>
</g>
<!-- Node1&#45;&gt;Node17 -->
<g id="edge23" class="edge">
<title>Node1&#45;&gt;Node17</title>
<path fill="none" stroke="midnightblue" d="M1162.92,-77.23C1150.4,-75.67 1137.51,-74.07 1125.27,-72.55"/>
<polygon fill="midnightblue" stroke="midnightblue" points="1162.49,-80.7 1172.85,-78.46 1163.36,-73.76 1162.49,-80.7"/>
</g>
<!-- Node18 -->
<g id="node18" class="node">
<title>Node18</title>
<g id="a_node18"><a xlink:href="classpfate_1_1CommunityProperties.html#a81a6aaa8387766442c2e9da98b2566f5" target="_top" xlink:title=" ">
<polygon fill="none" stroke="black" points="982,-0.5 982,-30.5 1137,-30.5 1137,-0.5 982,-0.5"/>
<text text-anchor="start" x="990" y="-18.5" font-family="Helvetica,sans-Serif" font-size="10.00">pfate::CommunityProperties</text>
<text text-anchor="middle" x="1059.5" y="-7.5" font-family="Helvetica,sans-Serif" font-size="10.00">::update</text>
</a>
</g>
</g>
<!-- Node1&#45;&gt;Node18 -->
<g id="edge24" class="edge">
<title>Node1&#45;&gt;Node18</title>
<path fill="none" stroke="midnightblue" d="M1199.05,-67.05C1180.55,-58.07 1157.89,-47.62 1137,-39.5 1128.96,-36.37 1120.32,-33.35 1111.85,-30.57"/>
<polygon fill="midnightblue" stroke="midnightblue" points="1197.53,-70.2 1208.05,-71.46 1200.61,-63.91 1197.53,-70.2"/>
</g>
<!-- Node3 -->
<g id="node3" class="node">
<title>Node3</title>
<g id="a_node3"><a xlink:href="classpfate_1_1LifeHistoryOptimizer.html#a54629ecd5847e8354ce3d3293d964a69" target="_top" xlink:title=" ">
<polygon fill="none" stroke="black" points="311,-90.5 311,-120.5 460,-120.5 460,-90.5 311,-90.5"/>
<text text-anchor="start" x="319" y="-108.5" font-family="Helvetica,sans-Serif" font-size="10.00">pfate::LifeHistoryOptimizer</text>
<text text-anchor="middle" x="385.5" y="-97.5" font-family="Helvetica,sans-Serif" font-size="10.00">::printState</text>
</a>
</g>
</g>
<!-- Node2&#45;&gt;Node3 -->
<g id="edge2" class="edge">
<title>Node2&#45;&gt;Node3</title>
<path fill="none" stroke="midnightblue" d="M485.61,-105.5C477.16,-105.5 468.62,-105.5 460.29,-105.5"/>
<polygon fill="midnightblue" stroke="midnightblue" points="485.86,-109 495.86,-105.5 485.86,-102 485.86,-109"/>
</g>
<!-- Node5 -->
<g id="node5" class="node">
<title>Node5</title>
<g id="a_node5"><a xlink:href="r__interface_8cpp.html#a7897b94cdc1a829775ac5241571cd456" target="_top" xlink:title=" ">
<polygon fill="none" stroke="black" points="0,-66 0,-85 90,-85 90,-66 0,-66"/>
<text text-anchor="middle" x="45" y="-73" font-family="Helvetica,sans-Serif" font-size="10.00">RCPP_MODULE</text>
</a>
</g>
</g>
<!-- Node2&#45;&gt;Node5 -->
<g id="edge4" class="edge">
<title>Node2&#45;&gt;Node5</title>
<path fill="none" stroke="midnightblue" d="M546.05,-83.47C525.26,-65.55 493.12,-41.64 460,-31.5 317.97,11.99 137.19,-42.69 71.39,-65.96"/>
<polygon fill="midnightblue" stroke="midnightblue" points="543.9,-86.24 553.71,-90.24 548.54,-81 543.9,-86.24"/>
</g>
<!-- Node4 -->
<g id="node4" class="node">
<title>Node4</title>
<g id="a_node4"><a xlink:href="lho_8cpp.html#ae66f6b31b5ad750f1fe042a706a4e3d4" target="_top" xlink:title=" ">
<polygon fill="none" stroke="black" points="180,-161 180,-180 221,-180 221,-161 180,-161"/>
<text text-anchor="middle" x="200.5" y="-168" font-family="Helvetica,sans-Serif" font-size="10.00">main</text>
</a>
</g>
</g>
<!-- Node3&#45;&gt;Node4 -->
<g id="edge3" class="edge">
<title>Node3&#45;&gt;Node4</title>
<path fill="none" stroke="midnightblue" d="M327.81,-123.74C322.12,-125.65 316.44,-127.6 311,-129.5 279.39,-140.57 243.04,-154.4 221.19,-162.84"/>
<polygon fill="midnightblue" stroke="midnightblue" points="328.97,-127.05 337.35,-120.57 326.75,-120.41 328.97,-127.05"/>
</g>
<!-- Node7 -->
<g id="node7" class="node">
<title>Node7</title>
<g id="a_node7"><a xlink:href="classplant_1_1Assimilator.html#ade28356f5c19a8033b3781308f21202a" target="_top" xlink:title="Calculate whole&#45;plant net assimilation.">
<polygon fill="none" stroke="black" points="843,-153.5 843,-183.5 946,-183.5 946,-153.5 843,-153.5"/>
<text text-anchor="start" x="851" y="-171.5" font-family="Helvetica,sans-Serif" font-size="10.00">plant::Assimilator</text>
<text text-anchor="middle" x="894.5" y="-160.5" font-family="Helvetica,sans-Serif" font-size="10.00">::net_production</text>
</a>
</g>
</g>
<!-- Node6&#45;&gt;Node7 -->
<g id="edge6" class="edge">
<title>Node6&#45;&gt;Node7</title>
<path fill="none" stroke="midnightblue" d="M992.8,-163.72C977.29,-164.49 960.97,-165.29 946.24,-166.01"/>
<polygon fill="midnightblue" stroke="midnightblue" points="993.04,-167.22 1002.86,-163.23 992.7,-160.23 993.04,-167.22"/>
</g>
<!-- Node8 -->
<g id="node8" class="node">
<title>Node8</title>
<g id="a_node8"><a xlink:href="group__libpspm__interface.html#ga6c9356733f84aca1d7bc6980bc97f157" target="_top" xlink:title=" ">
<polygon fill="none" stroke="black" points="512.5,-139.5 512.5,-169.5 628.5,-169.5 628.5,-139.5 512.5,-139.5"/>
<text text-anchor="start" x="520.5" y="-157.5" font-family="Helvetica,sans-Serif" font-size="10.00">plant::Plant::calc</text>
<text text-anchor="middle" x="570.5" y="-146.5" font-family="Helvetica,sans-Serif" font-size="10.00">_demographic_rates</text>
</a>
</g>
</g>
<!-- Node7&#45;&gt;Node8 -->
<g id="edge7" class="edge">
<title>Node7&#45;&gt;Node8</title>
<path fill="none" stroke="midnightblue" d="M832.59,-170.55C790.07,-171.48 732.02,-171.75 681,-168.5 663.98,-167.42 645.56,-165.39 628.77,-163.22"/>
<polygon fill="midnightblue" stroke="midnightblue" points="832.86,-174.04 842.78,-170.31 832.7,-167.05 832.86,-174.04"/>
</g>
<!-- Node12 -->
<g id="node12" class="node">
<title>Node12</title>
<g id="a_node12"><a xlink:href="classplant_1_1Plant.html#a48612779a5850cca9cc6f6caff1ccb8b" target="_top" xlink:title="LAI model.">
<polygon fill="none" stroke="black" points="681,-140 681,-159 807,-159 807,-140 681,-140"/>
<text text-anchor="middle" x="744" y="-147" font-family="Helvetica,sans-Serif" font-size="10.00">plant::Plant::lai_model</text>
</a>
</g>
</g>
<!-- Node7&#45;&gt;Node12 -->
<g id="edge15" class="edge">
<title>Node7&#45;&gt;Node12</title>
<path fill="none" stroke="midnightblue" d="M832.65,-160.71C824.19,-159.63 815.5,-158.52 807.02,-157.44"/>
<polygon fill="midnightblue" stroke="midnightblue" points="832.45,-164.22 842.81,-162.01 833.34,-157.27 832.45,-164.22"/>
</g>
<!-- Node13 -->
<g id="node13" class="node">
<title>Node13</title>
<g id="a_node13"><a xlink:href="classplant_1_1Plant.html#a03c45eaaabce7ff0287598818dc4847f" target="_top" xlink:title="Probability of survival during germination (i.e. until recruitment stage)">
<polygon fill="none" stroke="black" points="506.5,-227.5 506.5,-257.5 634.5,-257.5 634.5,-227.5 506.5,-227.5"/>
<text text-anchor="start" x="514.5" y="-245.5" font-family="Helvetica,sans-Serif" font-size="10.00">plant::Plant::p_survival</text>
<text text-anchor="middle" x="570.5" y="-234.5" font-family="Helvetica,sans-Serif" font-size="10.00">_germination</text>
</a>
</g>
</g>
<!-- Node7&#45;&gt;Node13 -->
<g id="edge17" class="edge">
<title>Node7&#45;&gt;Node13</title>
<path fill="none" stroke="midnightblue" d="M832.94,-182.42C776.3,-195.43 692.03,-214.8 634.59,-228"/>
<polygon fill="midnightblue" stroke="midnightblue" points="833.87,-185.79 842.83,-180.14 832.3,-178.97 833.87,-185.79"/>
</g>
<!-- Node8&#45;&gt;Node4 -->
<g id="edge13" class="edge">
<title>Node8&#45;&gt;Node4</title>
<path fill="none" stroke="midnightblue" d="M504.81,-171.79C490.18,-175 474.64,-177.85 460,-179.5 371.2,-189.51 264.25,-178.52 221.03,-173.13"/>
<polygon fill="midnightblue" stroke="midnightblue" points="505.79,-175.16 514.77,-169.53 504.24,-168.33 505.79,-175.16"/>
</g>
<!-- Node9 -->
<g id="node9" class="node">
<title>Node9</title>
<g id="a_node9"><a xlink:href="classpfate_1_1LifeHistoryOptimizer.html#ad68ae2c0d92d28dbe0cc5d5ef03a695b" target="_top" xlink:title=" ">
<polygon fill="none" stroke="black" points="311,-41.5 311,-71.5 460,-71.5 460,-41.5 311,-41.5"/>
<text text-anchor="start" x="319" y="-59.5" font-family="Helvetica,sans-Serif" font-size="10.00">pfate::LifeHistoryOptimizer</text>
<text text-anchor="middle" x="385.5" y="-48.5" font-family="Helvetica,sans-Serif" font-size="10.00">::grow_for_dt</text>
</a>
</g>
</g>
<!-- Node8&#45;&gt;Node9 -->
<g id="edge8" class="edge">
<title>Node8&#45;&gt;Node9</title>
<path fill="none" stroke="midnightblue" d="M503.98,-134.68C501.2,-133.07 498.53,-131.35 496,-129.5 474.2,-113.52 481.89,-96.34 460,-80.5 455.32,-77.12 450.14,-74.19 444.76,-71.67"/>
<polygon fill="midnightblue" stroke="midnightblue" points="502.62,-137.92 513.12,-139.38 505.83,-131.69 502.62,-137.92"/>
</g>
<!-- Node11 -->
<g id="node11" class="node">
<title>Node11</title>
<g id="a_node11"><a xlink:href="group__libpspm__interface.html#gac98af9ecd8e8391fd5afbcd276603e51" target="_top" xlink:title=" ">
<polygon fill="none" stroke="black" points="330,-139.5 330,-169.5 441,-169.5 441,-139.5 330,-139.5"/>
<text text-anchor="start" x="338" y="-157.5" font-family="Helvetica,sans-Serif" font-size="10.00">pfate::PSPM_Plant::</text>
<text text-anchor="middle" x="385.5" y="-146.5" font-family="Helvetica,sans-Serif" font-size="10.00">preCompute</text>
</a>
</g>
</g>
<!-- Node8&#45;&gt;Node11 -->
<g id="edge14" class="edge">
<title>Node8&#45;&gt;Node11</title>
<path fill="none" stroke="midnightblue" d="M502.3,-154.5C482.13,-154.5 460.27,-154.5 441.03,-154.5"/>
<polygon fill="midnightblue" stroke="midnightblue" points="502.35,-158 512.35,-154.5 502.35,-151 502.35,-158"/>
</g>
<!-- Node9&#45;&gt;Node4 -->
<g id="edge11" class="edge">
<title>Node9&#45;&gt;Node4</title>
<path fill="none" stroke="midnightblue" d="M318.56,-76.01C315.95,-77.41 313.42,-78.91 311,-80.5 290.76,-93.85 293.25,-105.53 275,-121.5 257.12,-137.16 233.94,-151.82 218.44,-160.95"/>
<polygon fill="midnightblue" stroke="midnightblue" points="320.2,-79.1 327.67,-71.59 317.15,-72.8 320.2,-79.1"/>
</g>
<!-- Node9&#45;&gt;Node5 -->
<g id="edge12" class="edge">
<title>Node9&#45;&gt;Node5</title>
<path fill="none" stroke="midnightblue" d="M300.57,-61.21C233.93,-64.95 143.4,-70.03 90.19,-73.02"/>
<polygon fill="midnightblue" stroke="midnightblue" points="300.84,-64.7 310.63,-60.65 300.45,-57.71 300.84,-64.7"/>
</g>
<!-- Node10 -->
<g id="node10" class="node">
<title>Node10</title>
<g id="a_node10"><a xlink:href="classpfate_1_1LifeHistoryOptimizer.html#a34aebe9641428e3d0bcb1d59ec936e8f" target="_top" xlink:title=" ">
<polygon fill="none" stroke="black" points="126,-82.5 126,-112.5 275,-112.5 275,-82.5 126,-82.5"/>
<text text-anchor="start" x="134" y="-100.5" font-family="Helvetica,sans-Serif" font-size="10.00">pfate::LifeHistoryOptimizer</text>
<text text-anchor="middle" x="200.5" y="-89.5" font-family="Helvetica,sans-Serif" font-size="10.00">::calcFitness</text>
</a>
</g>
</g>
<!-- Node9&#45;&gt;Node10 -->
<g id="edge9" class="edge">
<title>Node9&#45;&gt;Node10</title>
<path fill="none" stroke="midnightblue" d="M307.59,-73.73C294.63,-76.63 281.28,-79.63 268.6,-82.47"/>
<polygon fill="midnightblue" stroke="midnightblue" points="308.4,-77.14 317.4,-71.53 306.87,-70.31 308.4,-77.14"/>
</g>
<!-- Node10&#45;&gt;Node5 -->
<g id="edge10" class="edge">
<title>Node10&#45;&gt;Node5</title>
<path fill="none" stroke="midnightblue" d="M115.93,-85.52C107.12,-84.26 98.43,-83.01 90.33,-81.85"/>
<polygon fill="midnightblue" stroke="midnightblue" points="115.5,-89 125.9,-86.95 116.49,-82.07 115.5,-89"/>
</g>
<!-- Node12&#45;&gt;Node8 -->
<g id="edge16" class="edge">
<title>Node12&#45;&gt;Node8</title>
<path fill="none" stroke="midnightblue" d="M670.54,-151.61C656.57,-152.02 642.13,-152.44 628.73,-152.83"/>
<polygon fill="midnightblue" stroke="midnightblue" points="670.71,-155.11 680.6,-151.32 670.5,-148.11 670.71,-155.11"/>
</g>
<!-- Node14 -->
<g id="node14" class="node">
<title>Node14</title>
<g id="a_node14"><a xlink:href="group__libpspm__interface.html#ga98991525cfbe254180dda76a24df6246" target="_top" xlink:title=" ">
<polygon fill="none" stroke="black" points="316,-276.5 316,-306.5 455,-306.5 455,-276.5 316,-276.5"/>
<text text-anchor="start" x="324" y="-294.5" font-family="Helvetica,sans-Serif" font-size="10.00">pfate::PSPM_Plant::</text>
<text text-anchor="middle" x="385.5" y="-283.5" font-family="Helvetica,sans-Serif" font-size="10.00">establishmentProbability</text>
</a>
</g>
</g>
<!-- Node13&#45;&gt;Node14 -->
<g id="edge18" class="edge">
<title>Node13&#45;&gt;Node14</title>
<path fill="none" stroke="midnightblue" d="M503.21,-260.25C483.38,-265.56 461.83,-271.33 442.71,-276.45"/>
<polygon fill="midnightblue" stroke="midnightblue" points="504.35,-263.57 513.1,-257.6 502.54,-256.81 504.35,-263.57"/>
</g>
<!-- Node16 -->
<g id="node16" class="node">
<title>Node16</title>
<g id="a_node16"><a xlink:href="classpfate_1_1LifeHistoryOptimizer.html#a498360fd80194590570542dcecd524c7" target="_top" xlink:title=" ">
<polygon fill="none" stroke="black" points="311,-227.5 311,-257.5 460,-257.5 460,-227.5 311,-227.5"/>
<text text-anchor="start" x="319" y="-245.5" font-family="Helvetica,sans-Serif" font-size="10.00">pfate::LifeHistoryOptimizer</text>
<text text-anchor="middle" x="385.5" y="-234.5" font-family="Helvetica,sans-Serif" font-size="10.00">::init</text>
</a>
</g>
</g>
<!-- Node13&#45;&gt;Node16 -->
<g id="edge20" class="edge">
<title>Node13&#45;&gt;Node16</title>
<path fill="none" stroke="midnightblue" d="M496,-242.5C484.18,-242.5 471.94,-242.5 460.12,-242.5"/>
<polygon fill="midnightblue" stroke="midnightblue" points="496.27,-246 506.27,-242.5 496.27,-239 496.27,-246"/>
</g>
<!-- Node15 -->
<g id="node15" class="node">
<title>Node15</title>
<g id="a_node15"><a xlink:href="classpfate_1_1PSPM__Plant.html#a2422f6eebeee0e4d590e155b1563fd3f" target="_top" xlink:title=" ">
<polygon fill="none" stroke="black" points="145,-276.5 145,-306.5 256,-306.5 256,-276.5 145,-276.5"/>
<text text-anchor="start" x="153" y="-294.5" font-family="Helvetica,sans-Serif" font-size="10.00">pfate::PSPM_Plant::</text>
<text text-anchor="middle" x="200.5" y="-283.5" font-family="Helvetica,sans-Serif" font-size="10.00">init_accumulators</text>
</a>
</g>
</g>
<!-- Node14&#45;&gt;Node15 -->
<g id="edge19" class="edge">
<title>Node14&#45;&gt;Node15</title>
<path fill="none" stroke="midnightblue" d="M305.58,-291.5C288.95,-291.5 271.76,-291.5 256.26,-291.5"/>
<polygon fill="midnightblue" stroke="midnightblue" points="305.84,-295 315.84,-291.5 305.84,-288 305.84,-295"/>
</g>
<!-- Node16&#45;&gt;Node4 -->
<g id="edge21" class="edge">
<title>Node16&#45;&gt;Node4</title>
<path fill="none" stroke="midnightblue" d="M336.39,-223.57C298.82,-208.79 248.54,-189.01 221.21,-178.25"/>
<polygon fill="midnightblue" stroke="midnightblue" points="335.55,-227 346.14,-227.41 338.11,-220.49 335.55,-227"/>
</g>
<!-- Node16&#45;&gt;Node5 -->
<g id="edge22" class="edge">
<title>Node16&#45;&gt;Node5</title>
<path fill="none" stroke="midnightblue" d="M300.56,-240.91C246.82,-236.31 177.73,-223.43 126,-189.5 85.16,-162.71 58.96,-107.22 49.73,-85"/>
<polygon fill="midnightblue" stroke="midnightblue" points="300.51,-244.42 310.75,-241.7 301.05,-237.44 300.51,-244.42"/>
</g>
</g>
</svg>
