<?xml version="1.0" encoding="UTF-8" standalone="no"?>
<!DOCTYPE svg PUBLIC "-//W3C//DTD SVG 1.1//EN"
 "http://www.w3.org/Graphics/SVG/1.1/DTD/svg11.dtd">
<!-- Generated by graphviz version 2.43.0 (0)
 -->
<!-- Title: pfate::Patch::addSpeciesAndProbes Pages: 1 -->
<svg width="475pt" height="176pt"
 viewBox="0.00 0.00 475.00 176.00" xmlns="http://www.w3.org/2000/svg" xmlns:xlink="http://www.w3.org/1999/xlink">
<g id="graph0" class="graph" transform="scale(1 1) rotate(0) translate(4 172)">
<title>pfate::Patch::addSpeciesAndProbes</title>
<!-- Node1 -->
<g id="node1" class="node">
<title>Node1</title>
<g id="a_node1"><a xlink:title=" ">
<polygon fill="#bfbfbf" stroke="black" points="0,-71.5 0,-101.5 137,-101.5 137,-71.5 0,-71.5"/>
<text text-anchor="start" x="8" y="-89.5" font-family="Helvetica,sans-Serif" font-size="10.00">pfate::Patch::addSpecies</text>
<text text-anchor="middle" x="68.5" y="-78.5" font-family="Helvetica,sans-Serif" font-size="10.00">AndProbes</text>
</a>
</g>
</g>
<!-- Node2 -->
<g id="node2" class="node">
<title>Node2</title>
<g id="a_node2"><a xlink:href="classpfate_1_1AdaptiveSpecies.html#a16515855c9263b486fad79596b693726" target="_top" xlink:title=" ">
<polygon fill="none" stroke="black" points="173,-137.5 173,-167.5 302,-167.5 302,-137.5 173,-137.5"/>
<text text-anchor="start" x="181" y="-155.5" font-family="Helvetica,sans-Serif" font-size="10.00">pfate::AdaptiveSpecies</text>
<text text-anchor="middle" x="237.5" y="-144.5" font-family="Helvetica,sans-Serif" font-size="10.00">::createVariants</text>
</a>
</g>
</g>
<!-- Node1&#45;&gt;Node2 -->
<g id="edge1" class="edge">
<title>Node1&#45;&gt;Node2</title>
<path fill="none" stroke="midnightblue" d="M107.34,-101.51C126.94,-109.28 151.25,-118.91 173,-127.5 178.1,-129.51 183.42,-131.61 188.73,-133.71"/>
<polygon fill="midnightblue" stroke="midnightblue" points="187.63,-137.03 198.21,-137.44 190.19,-130.52 187.63,-137.03"/>
</g>
<!-- Node4 -->
<g id="node4" class="node">
<title>Node4</title>
<g id="a_node4"><a xlink:href="classplant_1_1Plant.html#a99d31208f7afa12bc10ee138bf190ef8" target="_top" xlink:title="This function initializes the plant (traits, par, and geometry) from params and traits objects.">
<polygon fill="none" stroke="black" points="190.5,-99 190.5,-118 284.5,-118 284.5,-99 190.5,-99"/>
<text text-anchor="middle" x="237.5" y="-106" font-family="Helvetica,sans-Serif" font-size="10.00">plant::Plant::init</text>
</a>
</g>
</g>
<!-- Node1&#45;&gt;Node4 -->
<g id="edge3" class="edge">
<title>Node1&#45;&gt;Node4</title>
<path fill="none" stroke="midnightblue" d="M137.43,-95.45C151.53,-97.31 166.25,-99.25 179.89,-101.04"/>
<polygon fill="midnightblue" stroke="midnightblue" points="179.72,-104.55 190.09,-102.39 180.63,-97.61 179.72,-104.55"/>
</g>
<!-- Node5 -->
<g id="node5" class="node">
<title>Node5</title>
<g id="a_node5"><a xlink:href="classMovingAverager.html#a2aeb3873ec0fc25b9db25ba57a9a67a5" target="_top" xlink:title=" ">
<polygon fill="none" stroke="black" points="179,-49.5 179,-79.5 296,-79.5 296,-49.5 179,-49.5"/>
<text text-anchor="start" x="187" y="-67.5" font-family="Helvetica,sans-Serif" font-size="10.00">MovingAverager::set</text>
<text text-anchor="middle" x="237.5" y="-56.5" font-family="Helvetica,sans-Serif" font-size="10.00">_interval</text>
</a>
</g>
</g>
<!-- Node1&#45;&gt;Node5 -->
<g id="edge4" class="edge">
<title>Node1&#45;&gt;Node5</title>
<path fill="none" stroke="midnightblue" d="M137.43,-77.55C147.72,-76.2 158.34,-74.8 168.63,-73.44"/>
<polygon fill="midnightblue" stroke="midnightblue" points="169.34,-76.88 178.79,-72.1 168.42,-69.94 169.34,-76.88"/>
</g>
<!-- Node6 -->
<g id="node6" class="node">
<title>Node6</title>
<g id="a_node6"><a xlink:href="classpfate_1_1PSPM__Plant.html#a47f004a9746c6c04eb34bc94b29690ff" target="_top" xlink:title=" ">
<polygon fill="none" stroke="black" points="182,-0.5 182,-30.5 293,-30.5 293,-0.5 182,-0.5"/>
<text text-anchor="start" x="190" y="-18.5" font-family="Helvetica,sans-Serif" font-size="10.00">pfate::PSPM_Plant::</text>
<text text-anchor="middle" x="237.5" y="-7.5" font-family="Helvetica,sans-Serif" font-size="10.00">set_size</text>
</a>
</g>
</g>
<!-- Node1&#45;&gt;Node6 -->
<g id="edge5" class="edge">
<title>Node1&#45;&gt;Node6</title>
<path fill="none" stroke="midnightblue" d="M102.44,-71.43C122.7,-62.26 149.24,-50.45 173,-40.5 177.79,-38.49 182.81,-36.44 187.83,-34.41"/>
<polygon fill="midnightblue" stroke="midnightblue" points="189.45,-37.53 197.44,-30.57 186.85,-31.03 189.45,-37.53"/>
</g>
<!-- Node3 -->
<g id="node3" class="node">
<title>Node3</title>
<g id="a_node3"><a xlink:href="classpfate_1_1AdaptiveSpecies.html#ab94e0033960c83b836cce94b57245e11" target="_top" xlink:title=" ">
<polygon fill="none" stroke="black" points="338,-137.5 338,-167.5 467,-167.5 467,-137.5 338,-137.5"/>
<text text-anchor="start" x="346" y="-155.5" font-family="Helvetica,sans-Serif" font-size="10.00">pfate::AdaptiveSpecies</text>
<text text-anchor="middle" x="402.5" y="-144.5" font-family="Helvetica,sans-Serif" font-size="10.00">::set_traits</text>
</a>
</g>
</g>
<!-- Node2&#45;&gt;Node3 -->
<g id="edge2" class="edge">
<title>Node2&#45;&gt;Node3</title>
<path fill="none" stroke="midnightblue" d="M302.45,-152.5C310.76,-152.5 319.32,-152.5 327.77,-152.5"/>
<polygon fill="midnightblue" stroke="midnightblue" points="328,-156 338,-152.5 328,-149 328,-156"/>
</g>
</g>
</svg>
