<?xml version="1.0" encoding="UTF-8" standalone="no"?>
<!DOCTYPE svg PUBLIC "-//W3C//DTD SVG 1.1//EN"
 "http://www.w3.org/Graphics/SVG/1.1/DTD/svg11.dtd">
<!-- Generated by graphviz version 2.43.0 (0)
 -->
<!-- Title: pfate::env::Climate::set_forcing_acclim Pages: 1 -->
<svg width="985pt" height="132pt"
 viewBox="0.00 0.00 985.00 132.00" xmlns="http://www.w3.org/2000/svg" xmlns:xlink="http://www.w3.org/1999/xlink">
<g id="graph0" class="graph" transform="scale(1 1) rotate(0) translate(4 128)">
<title>pfate::env::Climate::set_forcing_acclim</title>
<!-- Node1 -->
<g id="node1" class="node">
<title>Node1</title>
<g id="a_node1"><a xlink:title="Update acclim forcing as exp&#45;weighted average of current and new value.">
<polygon fill="#bfbfbf" stroke="black" points="863,-24.5 863,-54.5 977,-54.5 977,-24.5 863,-24.5"/>
<text text-anchor="start" x="871" y="-42.5" font-family="Helvetica,sans-Serif" font-size="10.00">pfate::env::Climate</text>
<text text-anchor="middle" x="920" y="-31.5" font-family="Helvetica,sans-Serif" font-size="10.00">::set_forcing_acclim</text>
</a>
</g>
</g>
<!-- Node2 -->
<g id="node2" class="node">
<title>Node2</title>
<g id="a_node2"><a xlink:href="classpfate_1_1env_1_1ClimateStream.html#a259d5b50ebd9d8e801ee6cd079f6fb75" target="_top" xlink:title=" ">
<polygon fill="none" stroke="black" points="681,-24.5 681,-54.5 827,-54.5 827,-24.5 681,-24.5"/>
<text text-anchor="start" x="689" y="-42.5" font-family="Helvetica,sans-Serif" font-size="10.00">pfate::env::ClimateStream</text>
<text text-anchor="middle" x="754" y="-31.5" font-family="Helvetica,sans-Serif" font-size="10.00">::updateClimate</text>
</a>
</g>
</g>
<!-- Node1&#45;&gt;Node2 -->
<g id="edge1" class="edge">
<title>Node1&#45;&gt;Node2</title>
<path fill="none" stroke="midnightblue" d="M852.52,-39.5C844.18,-39.5 835.61,-39.5 827.18,-39.5"/>
<polygon fill="midnightblue" stroke="midnightblue" points="852.56,-43 862.56,-39.5 852.56,-36 852.56,-43"/>
</g>
<!-- Node3 -->
<g id="node3" class="node">
<title>Node3</title>
<g id="a_node3"><a xlink:href="classpfate_1_1LifeHistoryOptimizer.html#ad2f441a77b37f12f0cc15cd89977412e" target="_top" xlink:title=" ">
<polygon fill="none" stroke="black" points="496,-49.5 496,-79.5 645,-79.5 645,-49.5 496,-49.5"/>
<text text-anchor="start" x="504" y="-67.5" font-family="Helvetica,sans-Serif" font-size="10.00">pfate::LifeHistoryOptimizer</text>
<text text-anchor="middle" x="570.5" y="-56.5" font-family="Helvetica,sans-Serif" font-size="10.00">::update_climate</text>
</a>
</g>
</g>
<!-- Node2&#45;&gt;Node3 -->
<g id="edge2" class="edge">
<title>Node2&#45;&gt;Node3</title>
<path fill="none" stroke="midnightblue" d="M670.82,-50.82C662.31,-51.99 653.7,-53.18 645.29,-54.34"/>
<polygon fill="midnightblue" stroke="midnightblue" points="671.32,-54.28 680.74,-49.45 670.36,-47.35 671.32,-54.28"/>
</g>
<!-- Node8 -->
<g id="node8" class="node">
<title>Node8</title>
<g id="a_node8"><a xlink:href="classpfate_1_1Patch.html#a4ef446560886e3bc56e08e196ee17827" target="_top" xlink:title=" ">
<polygon fill="none" stroke="black" points="513,-0.5 513,-30.5 628,-30.5 628,-0.5 513,-0.5"/>
<text text-anchor="start" x="521" y="-18.5" font-family="Helvetica,sans-Serif" font-size="10.00">pfate::Patch::update</text>
<text text-anchor="middle" x="570.5" y="-7.5" font-family="Helvetica,sans-Serif" font-size="10.00">_climate</text>
</a>
</g>
</g>
<!-- Node2&#45;&gt;Node8 -->
<g id="edge8" class="edge">
<title>Node2&#45;&gt;Node8</title>
<path fill="none" stroke="midnightblue" d="M670.82,-28.63C656.39,-26.73 641.67,-24.78 628.13,-22.99"/>
<polygon fill="midnightblue" stroke="midnightblue" points="670.37,-32.1 680.74,-29.95 671.29,-25.16 670.37,-32.1"/>
</g>
<!-- Node4 -->
<g id="node4" class="node">
<title>Node4</title>
<g id="a_node4"><a xlink:href="classpfate_1_1LifeHistoryOptimizer.html#ad68ae2c0d92d28dbe0cc5d5ef03a695b" target="_top" xlink:title=" ">
<polygon fill="none" stroke="black" points="311,-49.5 311,-79.5 460,-79.5 460,-49.5 311,-49.5"/>
<text text-anchor="start" x="319" y="-67.5" font-family="Helvetica,sans-Serif" font-size="10.00">pfate::LifeHistoryOptimizer</text>
<text text-anchor="middle" x="385.5" y="-56.5" font-family="Helvetica,sans-Serif" font-size="10.00">::grow_for_dt</text>
</a>
</g>
</g>
<!-- Node3&#45;&gt;Node4 -->
<g id="edge3" class="edge">
<title>Node3&#45;&gt;Node4</title>
<path fill="none" stroke="midnightblue" d="M485.61,-64.5C477.16,-64.5 468.62,-64.5 460.29,-64.5"/>
<polygon fill="midnightblue" stroke="midnightblue" points="485.86,-68 495.86,-64.5 485.86,-61 485.86,-68"/>
</g>
<!-- Node5 -->
<g id="node5" class="node">
<title>Node5</title>
<g id="a_node5"><a xlink:href="classpfate_1_1LifeHistoryOptimizer.html#a34aebe9641428e3d0bcb1d59ec936e8f" target="_top" xlink:title=" ">
<polygon fill="none" stroke="black" points="126,-93.5 126,-123.5 275,-123.5 275,-93.5 126,-93.5"/>
<text text-anchor="start" x="134" y="-111.5" font-family="Helvetica,sans-Serif" font-size="10.00">pfate::LifeHistoryOptimizer</text>
<text text-anchor="middle" x="200.5" y="-100.5" font-family="Helvetica,sans-Serif" font-size="10.00">::calcFitness</text>
</a>
</g>
</g>
<!-- Node4&#45;&gt;Node5 -->
<g id="edge4" class="edge">
<title>Node4&#45;&gt;Node5</title>
<path fill="none" stroke="midnightblue" d="M312.23,-81.88C296.28,-85.71 279.52,-89.74 264,-93.47"/>
<polygon fill="midnightblue" stroke="midnightblue" points="313.13,-85.26 322.03,-79.52 311.49,-78.45 313.13,-85.26"/>
</g>
<!-- Node6 -->
<g id="node6" class="node">
<title>Node6</title>
<g id="a_node6"><a xlink:href="r__interface_8cpp.html#a7897b94cdc1a829775ac5241571cd456" target="_top" xlink:title=" ">
<polygon fill="none" stroke="black" points="0,-77 0,-96 90,-96 90,-77 0,-77"/>
<text text-anchor="middle" x="45" y="-84" font-family="Helvetica,sans-Serif" font-size="10.00">RCPP_MODULE</text>
</a>
</g>
</g>
<!-- Node4&#45;&gt;Node6 -->
<g id="edge7" class="edge">
<title>Node4&#45;&gt;Node6</title>
<path fill="none" stroke="midnightblue" d="M300.57,-69.95C233.93,-74.29 143.4,-80.17 90.19,-83.63"/>
<polygon fill="midnightblue" stroke="midnightblue" points="300.88,-73.44 310.63,-69.3 300.43,-66.46 300.88,-73.44"/>
</g>
<!-- Node7 -->
<g id="node7" class="node">
<title>Node7</title>
<g id="a_node7"><a xlink:href="lho_8cpp.html#ae66f6b31b5ad750f1fe042a706a4e3d4" target="_top" xlink:title=" ">
<polygon fill="none" stroke="black" points="180,-17 180,-36 221,-36 221,-17 180,-17"/>
<text text-anchor="middle" x="200.5" y="-24" font-family="Helvetica,sans-Serif" font-size="10.00">main</text>
</a>
</g>
</g>
<!-- Node4&#45;&gt;Node7 -->
<g id="edge6" class="edge">
<title>Node4&#45;&gt;Node7</title>
<path fill="none" stroke="midnightblue" d="M302.04,-47.38C271.95,-41.13 240.55,-34.61 221.01,-30.55"/>
<polygon fill="midnightblue" stroke="midnightblue" points="301.67,-50.88 312.17,-49.48 303.09,-44.02 301.67,-50.88"/>
</g>
<!-- Node5&#45;&gt;Node6 -->
<g id="edge5" class="edge">
<title>Node5&#45;&gt;Node6</title>
<path fill="none" stroke="midnightblue" d="M115.93,-96.52C107.12,-95.26 98.43,-94.01 90.33,-92.85"/>
<polygon fill="midnightblue" stroke="midnightblue" points="115.5,-100 125.9,-97.95 116.49,-93.07 115.5,-100"/>
</g>
</g>
</svg>
