<?xml version="1.0" encoding="UTF-8" standalone="no"?>
<!DOCTYPE svg PUBLIC "-//W3C//DTD SVG 1.1//EN"
 "http://www.w3.org/Graphics/SVG/1.1/DTD/svg11.dtd">
<!-- Generated by graphviz version 2.43.0 (0)
 -->
<!-- Title: plant::PlantArchitecture::coarse_root_mass Pages: 1 -->
<svg width="592pt" height="110pt"
 viewBox="0.00 0.00 592.00 110.00" xmlns="http://www.w3.org/2000/svg" xmlns:xlink="http://www.w3.org/1999/xlink">
<g id="graph0" class="graph" transform="scale(1 1) rotate(0) translate(4 106)">
<title>plant::PlantArchitecture::coarse_root_mass</title>
<!-- Node1 -->
<g id="node1" class="node">
<title>Node1</title>
<g id="a_node1"><a xlink:title="Get biomass in various carbon pools.">
<polygon fill="#bfbfbf" stroke="black" points="453,-24.5 453,-54.5 584,-54.5 584,-24.5 453,-24.5"/>
<text text-anchor="start" x="461" y="-42.5" font-family="Helvetica,sans-Serif" font-size="10.00">plant::PlantArchitecture</text>
<text text-anchor="middle" x="518.5" y="-31.5" font-family="Helvetica,sans-Serif" font-size="10.00">::coarse_root_mass</text>
</a>
</g>
</g>
<!-- Node2 -->
<g id="node2" class="node">
<title>Node2</title>
<g id="a_node2"><a xlink:href="classpfate_1_1LifeHistoryOptimizer.html#a05951c4085bd4f5a06fbbb66b8c3092d" target="_top" xlink:title=" ">
<polygon fill="none" stroke="black" points="265,-49.5 265,-79.5 414,-79.5 414,-49.5 265,-49.5"/>
<text text-anchor="start" x="273" y="-67.5" font-family="Helvetica,sans-Serif" font-size="10.00">pfate::LifeHistoryOptimizer</text>
<text text-anchor="middle" x="339.5" y="-56.5" font-family="Helvetica,sans-Serif" font-size="10.00">::get_state</text>
</a>
</g>
</g>
<!-- Node1&#45;&gt;Node2 -->
<g id="edge1" class="edge">
<title>Node1&#45;&gt;Node2</title>
<path fill="none" stroke="midnightblue" d="M442.73,-50.06C433.31,-51.39 423.67,-52.75 414.26,-54.08"/>
<polygon fill="midnightblue" stroke="midnightblue" points="443.44,-53.5 452.85,-48.63 442.46,-46.56 443.44,-53.5"/>
</g>
<!-- Node6 -->
<g id="node6" class="node">
<title>Node6</title>
<g id="a_node6"><a xlink:href="classpfate_1_1CommunityProperties.html#a81a6aaa8387766442c2e9da98b2566f5" target="_top" xlink:title=" ">
<polygon fill="none" stroke="black" points="262,-0.5 262,-30.5 417,-30.5 417,-0.5 262,-0.5"/>
<text text-anchor="start" x="270" y="-18.5" font-family="Helvetica,sans-Serif" font-size="10.00">pfate::CommunityProperties</text>
<text text-anchor="middle" x="339.5" y="-7.5" font-family="Helvetica,sans-Serif" font-size="10.00">::update</text>
</a>
</g>
</g>
<!-- Node1&#45;&gt;Node6 -->
<g id="edge5" class="edge">
<title>Node1&#45;&gt;Node6</title>
<path fill="none" stroke="midnightblue" d="M442.7,-29.36C434.3,-28.22 425.73,-27.06 417.3,-25.91"/>
<polygon fill="midnightblue" stroke="midnightblue" points="442.47,-32.86 452.85,-30.73 443.41,-25.92 442.47,-32.86"/>
</g>
<!-- Node3 -->
<g id="node3" class="node">
<title>Node3</title>
<g id="a_node3"><a xlink:href="classpfate_1_1LifeHistoryOptimizer.html#a54629ecd5847e8354ce3d3293d964a69" target="_top" xlink:title=" ">
<polygon fill="none" stroke="black" points="77,-71.5 77,-101.5 226,-101.5 226,-71.5 77,-71.5"/>
<text text-anchor="start" x="85" y="-89.5" font-family="Helvetica,sans-Serif" font-size="10.00">pfate::LifeHistoryOptimizer</text>
<text text-anchor="middle" x="151.5" y="-78.5" font-family="Helvetica,sans-Serif" font-size="10.00">::printState</text>
</a>
</g>
</g>
<!-- Node2&#45;&gt;Node3 -->
<g id="edge2" class="edge">
<title>Node2&#45;&gt;Node3</title>
<path fill="none" stroke="midnightblue" d="M255.01,-74.38C245.36,-75.52 235.58,-76.67 226.09,-77.8"/>
<polygon fill="midnightblue" stroke="midnightblue" points="255.47,-77.85 264.99,-73.19 254.65,-70.89 255.47,-77.85"/>
</g>
<!-- Node5 -->
<g id="node5" class="node">
<title>Node5</title>
<g id="a_node5"><a xlink:href="r__interface_8cpp.html#a7897b94cdc1a829775ac5241571cd456" target="_top" xlink:title=" ">
<polygon fill="none" stroke="black" points="106.5,-33 106.5,-52 196.5,-52 196.5,-33 106.5,-33"/>
<text text-anchor="middle" x="151.5" y="-40" font-family="Helvetica,sans-Serif" font-size="10.00">RCPP_MODULE</text>
</a>
</g>
</g>
<!-- Node2&#45;&gt;Node5 -->
<g id="edge4" class="edge">
<title>Node2&#45;&gt;Node5</title>
<path fill="none" stroke="midnightblue" d="M254.86,-54.61C234.75,-52.23 214.04,-49.78 196.56,-47.71"/>
<polygon fill="midnightblue" stroke="midnightblue" points="254.65,-58.11 264.99,-55.81 255.47,-51.15 254.65,-58.11"/>
</g>
<!-- Node4 -->
<g id="node4" class="node">
<title>Node4</title>
<g id="a_node4"><a xlink:href="lho_8cpp.html#ae66f6b31b5ad750f1fe042a706a4e3d4" target="_top" xlink:title=" ">
<polygon fill="none" stroke="black" points="0,-77 0,-96 41,-96 41,-77 0,-77"/>
<text text-anchor="middle" x="20.5" y="-84" font-family="Helvetica,sans-Serif" font-size="10.00">main</text>
</a>
</g>
</g>
<!-- Node3&#45;&gt;Node4 -->
<g id="edge3" class="edge">
<title>Node3&#45;&gt;Node4</title>
<path fill="none" stroke="midnightblue" d="M66.86,-86.5C57.34,-86.5 48.44,-86.5 41.08,-86.5"/>
<polygon fill="midnightblue" stroke="midnightblue" points="66.96,-90 76.96,-86.5 66.96,-83 66.96,-90"/>
</g>
</g>
</svg>
