<?xml version="1.0" encoding="UTF-8" standalone="no"?>
<!DOCTYPE svg PUBLIC "-//W3C//DTD SVG 1.1//EN"
 "http://www.w3.org/Graphics/SVG/1.1/DTD/svg11.dtd">
<!-- Generated by graphviz version 2.43.0 (0)
 -->
<!-- Title: pfate::Patch::init Pages: 1 -->
<svg width="626pt" height="438pt"
 viewBox="0.00 0.00 626.00 438.00" xmlns="http://www.w3.org/2000/svg" xmlns:xlink="http://www.w3.org/1999/xlink">
<g id="graph0" class="graph" transform="scale(1 1) rotate(0) translate(4 434)">
<title>pfate::Patch::init</title>
<!-- Node1 -->
<g id="node1" class="node">
<title>Node1</title>
<g id="a_node1"><a xlink:title=" ">
<polygon fill="#bfbfbf" stroke="black" points="0,-170 0,-189 97,-189 97,-170 0,-170"/>
<text text-anchor="middle" x="48.5" y="-177" font-family="Helvetica,sans-Serif" font-size="10.00">pfate::Patch::init</text>
</a>
</g>
</g>
<!-- Node2 -->
<g id="node2" class="node">
<title>Node2</title>
<g id="a_node2"><a xlink:href="classpfate_1_1Patch.html#ac014924ea9c6590fa2031788057cf271" target="_top" xlink:title=" ">
<polygon fill="none" stroke="black" points="142,-333.5 142,-363.5 279,-363.5 279,-333.5 142,-333.5"/>
<text text-anchor="start" x="150" y="-351.5" font-family="Helvetica,sans-Serif" font-size="10.00">pfate::Patch::addSpecies</text>
<text text-anchor="middle" x="210.5" y="-340.5" font-family="Helvetica,sans-Serif" font-size="10.00">AndProbes</text>
</a>
</g>
</g>
<!-- Node1&#45;&gt;Node2 -->
<g id="edge1" class="edge">
<title>Node1&#45;&gt;Node2</title>
<path fill="none" stroke="midnightblue" d="M52.35,-189.27C60.45,-215.29 86.1,-286.87 133,-324.5 134.59,-325.77 136.24,-326.98 137.96,-328.12"/>
<polygon fill="midnightblue" stroke="midnightblue" points="136.51,-331.33 146.91,-333.32 140.02,-325.28 136.51,-331.33"/>
</g>
<!-- Node8 -->
<g id="node8" class="node">
<title>Node8</title>
<g id="a_node8"><a xlink:href="classpfate_1_1env_1_1ClimateStream.html#af886bf0c88d29c9460067a124c000f3d" target="_top" xlink:title=" ">
<polygon fill="none" stroke="black" points="137.5,-284.5 137.5,-314.5 283.5,-314.5 283.5,-284.5 137.5,-284.5"/>
<text text-anchor="start" x="145.5" y="-302.5" font-family="Helvetica,sans-Serif" font-size="10.00">pfate::env::ClimateStream</text>
<text text-anchor="middle" x="210.5" y="-291.5" font-family="Helvetica,sans-Serif" font-size="10.00">::init</text>
</a>
</g>
</g>
<!-- Node1&#45;&gt;Node8 -->
<g id="edge7" class="edge">
<title>Node1&#45;&gt;Node8</title>
<path fill="none" stroke="midnightblue" d="M55.32,-189.24C67.38,-208.56 96.96,-251.91 133,-275.5 135.46,-277.11 138.03,-278.61 140.68,-280.02"/>
<polygon fill="midnightblue" stroke="midnightblue" points="139.41,-283.3 149.94,-284.45 142.43,-276.98 139.41,-283.3"/>
</g>
<!-- Node9 -->
<g id="node9" class="node">
<title>Node9</title>
<g id="a_node9"><a xlink:href="classpfate_1_1CommunityProperties.html#ac56567794c0dd3291d53070d6ba419b0" target="_top" xlink:title=" ">
<polygon fill="none" stroke="black" points="133,-235.5 133,-265.5 288,-265.5 288,-235.5 133,-235.5"/>
<text text-anchor="start" x="141" y="-253.5" font-family="Helvetica,sans-Serif" font-size="10.00">pfate::CommunityProperties</text>
<text text-anchor="middle" x="210.5" y="-242.5" font-family="Helvetica,sans-Serif" font-size="10.00">::openStreams</text>
</a>
</g>
</g>
<!-- Node1&#45;&gt;Node9 -->
<g id="edge8" class="edge">
<title>Node1&#45;&gt;Node9</title>
<path fill="none" stroke="midnightblue" d="M64.4,-189.15C80.73,-199.42 107.96,-215.67 133,-226.5 137.4,-228.4 142,-230.23 146.67,-231.96"/>
<polygon fill="midnightblue" stroke="midnightblue" points="145.7,-235.34 156.3,-235.39 148.05,-228.74 145.7,-235.34"/>
</g>
<!-- Node10 -->
<g id="node10" class="node">
<title>Node10</title>
<g id="a_node10"><a xlink:href="classpfate_1_1Patch.html#ab58a899c33839507b147bc7a59a2d5c2" target="_top" xlink:title=" ">
<polygon fill="none" stroke="black" points="145.5,-186.5 145.5,-216.5 275.5,-216.5 275.5,-186.5 145.5,-186.5"/>
<text text-anchor="start" x="153.5" y="-204.5" font-family="Helvetica,sans-Serif" font-size="10.00">pfate::Patch::readTraits</text>
<text text-anchor="middle" x="210.5" y="-193.5" font-family="Helvetica,sans-Serif" font-size="10.00">FromFile</text>
</a>
</g>
</g>
<!-- Node1&#45;&gt;Node10 -->
<g id="edge9" class="edge">
<title>Node1&#45;&gt;Node10</title>
<path fill="none" stroke="midnightblue" d="M97.07,-186.04C108.99,-187.68 122.07,-189.48 134.96,-191.25"/>
<polygon fill="midnightblue" stroke="midnightblue" points="134.84,-194.77 145.23,-192.66 135.8,-187.83 134.84,-194.77"/>
</g>
<!-- Node11 -->
<g id="node11" class="node">
<title>Node11</title>
<g id="a_node11"><a xlink:href="namespacepfate.html#acf2c2a4b2aac6abc0c2c61691e3b0f21" target="_top" xlink:title=" ">
<polygon fill="none" stroke="black" points="156.5,-148 156.5,-167 264.5,-167 264.5,-148 156.5,-148"/>
<text text-anchor="middle" x="210.5" y="-155" font-family="Helvetica,sans-Serif" font-size="10.00">pfate::restoreState</text>
</a>
</g>
</g>
<!-- Node1&#45;&gt;Node11 -->
<g id="edge10" class="edge">
<title>Node1&#45;&gt;Node11</title>
<path fill="none" stroke="midnightblue" d="M97.07,-172.96C112.48,-170.84 129.82,-168.46 146.19,-166.21"/>
<polygon fill="midnightblue" stroke="midnightblue" points="146.8,-169.65 156.23,-164.82 145.84,-162.72 146.8,-169.65"/>
</g>
<!-- Node13 -->
<g id="node13" class="node">
<title>Node13</title>
<g id="a_node13"><a xlink:href="classpfate_1_1env_1_1Climate.html#ad15a02a1fa35c5d34d8b46f4a58421fb" target="_top" xlink:title="Set acclimation timescale.">
<polygon fill="none" stroke="black" points="146.5,-98.5 146.5,-128.5 274.5,-128.5 274.5,-98.5 146.5,-98.5"/>
<text text-anchor="start" x="154.5" y="-116.5" font-family="Helvetica,sans-Serif" font-size="10.00">pfate::env::Climate</text>
<text text-anchor="middle" x="210.5" y="-105.5" font-family="Helvetica,sans-Serif" font-size="10.00">::set_acclim_timescale</text>
</a>
</g>
</g>
<!-- Node1&#45;&gt;Node13 -->
<g id="edge12" class="edge">
<title>Node1&#45;&gt;Node13</title>
<path fill="none" stroke="midnightblue" d="M67.09,-169.96C83.76,-161.14 109.66,-147.99 133,-138.5 138.47,-136.28 144.22,-134.1 150.01,-132.03"/>
<polygon fill="midnightblue" stroke="midnightblue" points="151.46,-135.23 159.75,-128.63 149.15,-128.62 151.46,-135.23"/>
</g>
<!-- Node14 -->
<g id="node14" class="node">
<title>Node14</title>
<g id="a_node14"><a xlink:href="classpfate_1_1env_1_1Climate.html#a75a84463176cf6c2c86192959fdb686b" target="_top" xlink:title=" ">
<polygon fill="none" stroke="black" points="155.5,-49.5 155.5,-79.5 265.5,-79.5 265.5,-49.5 155.5,-49.5"/>
<text text-anchor="start" x="163.5" y="-67.5" font-family="Helvetica,sans-Serif" font-size="10.00">pfate::env::Climate</text>
<text text-anchor="middle" x="210.5" y="-56.5" font-family="Helvetica,sans-Serif" font-size="10.00">::set_elevation</text>
</a>
</g>
</g>
<!-- Node1&#45;&gt;Node14 -->
<g id="edge13" class="edge">
<title>Node1&#45;&gt;Node14</title>
<path fill="none" stroke="midnightblue" d="M55.64,-170C68.04,-151.57 97.89,-110.81 133,-88.5 137.05,-85.93 141.39,-83.61 145.87,-81.54"/>
<polygon fill="midnightblue" stroke="midnightblue" points="147.37,-84.7 155.23,-77.59 144.65,-78.25 147.37,-84.7"/>
</g>
<!-- Node16 -->
<g id="node16" class="node">
<title>Node16</title>
<g id="a_node16"><a xlink:href="classplant_1_1PlantParameters.html#a7a0dc41bcb06a66292f3040918893c4b" target="_top" xlink:title=" ">
<polygon fill="none" stroke="black" points="146.5,-0.5 146.5,-30.5 274.5,-30.5 274.5,-0.5 146.5,-0.5"/>
<text text-anchor="start" x="154.5" y="-18.5" font-family="Helvetica,sans-Serif" font-size="10.00">plant::PlantParameters</text>
<text text-anchor="middle" x="210.5" y="-7.5" font-family="Helvetica,sans-Serif" font-size="10.00">::set_tscale</text>
</a>
</g>
</g>
<!-- Node1&#45;&gt;Node16 -->
<g id="edge15" class="edge">
<title>Node1&#45;&gt;Node16</title>
<path fill="none" stroke="midnightblue" d="M52.58,-169.7C61.06,-144.27 87.25,-75.63 133,-39.5 134.78,-38.1 136.63,-36.78 138.56,-35.53"/>
<polygon fill="midnightblue" stroke="midnightblue" points="140.37,-38.53 147.35,-30.55 136.92,-32.44 140.37,-38.53"/>
</g>
<!-- Node3 -->
<g id="node3" class="node">
<title>Node3</title>
<g id="a_node3"><a xlink:href="classpfate_1_1AdaptiveSpecies.html#a16515855c9263b486fad79596b693726" target="_top" xlink:title=" ">
<polygon fill="none" stroke="black" points="324,-399.5 324,-429.5 453,-429.5 453,-399.5 324,-399.5"/>
<text text-anchor="start" x="332" y="-417.5" font-family="Helvetica,sans-Serif" font-size="10.00">pfate::AdaptiveSpecies</text>
<text text-anchor="middle" x="388.5" y="-406.5" font-family="Helvetica,sans-Serif" font-size="10.00">::createVariants</text>
</a>
</g>
</g>
<!-- Node2&#45;&gt;Node3 -->
<g id="edge2" class="edge">
<title>Node2&#45;&gt;Node3</title>
<path fill="none" stroke="midnightblue" d="M251.88,-363.64C277.37,-373.2 310.48,-385.62 337.61,-395.79"/>
<polygon fill="midnightblue" stroke="midnightblue" points="336.72,-399.19 347.31,-399.43 339.18,-392.64 336.72,-399.19"/>
</g>
<!-- Node5 -->
<g id="node5" class="node">
<title>Node5</title>
<g id="a_node5"><a xlink:href="classplant_1_1Plant.html#a99d31208f7afa12bc10ee138bf190ef8" target="_top" xlink:title="This function initializes the plant (traits, par, and geometry) from params and traits objects.">
<polygon fill="none" stroke="black" points="341.5,-361 341.5,-380 435.5,-380 435.5,-361 341.5,-361"/>
<text text-anchor="middle" x="388.5" y="-368" font-family="Helvetica,sans-Serif" font-size="10.00">plant::Plant::init</text>
</a>
</g>
</g>
<!-- Node2&#45;&gt;Node5 -->
<g id="edge4" class="edge">
<title>Node2&#45;&gt;Node5</title>
<path fill="none" stroke="midnightblue" d="M279.04,-356.94C296.3,-359.1 314.67,-361.4 331.3,-363.47"/>
<polygon fill="midnightblue" stroke="midnightblue" points="331.04,-366.97 341.39,-364.74 331.91,-360.02 331.04,-366.97"/>
</g>
<!-- Node6 -->
<g id="node6" class="node">
<title>Node6</title>
<g id="a_node6"><a xlink:href="classMovingAverager.html#a2aeb3873ec0fc25b9db25ba57a9a67a5" target="_top" xlink:title=" ">
<polygon fill="none" stroke="black" points="330,-311.5 330,-341.5 447,-341.5 447,-311.5 330,-311.5"/>
<text text-anchor="start" x="338" y="-329.5" font-family="Helvetica,sans-Serif" font-size="10.00">MovingAverager::set</text>
<text text-anchor="middle" x="388.5" y="-318.5" font-family="Helvetica,sans-Serif" font-size="10.00">_interval</text>
</a>
</g>
</g>
<!-- Node2&#45;&gt;Node6 -->
<g id="edge5" class="edge">
<title>Node2&#45;&gt;Node6</title>
<path fill="none" stroke="midnightblue" d="M279.04,-340.06C292.41,-338.39 306.44,-336.63 319.81,-334.96"/>
<polygon fill="midnightblue" stroke="midnightblue" points="320.39,-338.42 329.88,-333.7 319.52,-331.47 320.39,-338.42"/>
</g>
<!-- Node7 -->
<g id="node7" class="node">
<title>Node7</title>
<g id="a_node7"><a xlink:href="classpfate_1_1PSPM__Plant.html#a47f004a9746c6c04eb34bc94b29690ff" target="_top" xlink:title=" ">
<polygon fill="none" stroke="black" points="333,-262.5 333,-292.5 444,-292.5 444,-262.5 333,-262.5"/>
<text text-anchor="start" x="341" y="-280.5" font-family="Helvetica,sans-Serif" font-size="10.00">pfate::PSPM_Plant::</text>
<text text-anchor="middle" x="388.5" y="-269.5" font-family="Helvetica,sans-Serif" font-size="10.00">set_size</text>
</a>
</g>
</g>
<!-- Node2&#45;&gt;Node7 -->
<g id="edge6" class="edge">
<title>Node2&#45;&gt;Node7</title>
<path fill="none" stroke="midnightblue" d="M265.22,-333.49C272.98,-330.79 280.78,-327.78 288,-324.5 305.07,-316.75 307.21,-310.85 324,-302.5 328.05,-300.49 332.3,-298.52 336.6,-296.62"/>
<polygon fill="midnightblue" stroke="midnightblue" points="338.22,-299.74 346.05,-292.61 335.48,-293.3 338.22,-299.74"/>
</g>
<!-- Node4 -->
<g id="node4" class="node">
<title>Node4</title>
<g id="a_node4"><a xlink:href="classpfate_1_1AdaptiveSpecies.html#ab94e0033960c83b836cce94b57245e11" target="_top" xlink:title=" ">
<polygon fill="none" stroke="black" points="489,-399.5 489,-429.5 618,-429.5 618,-399.5 489,-399.5"/>
<text text-anchor="start" x="497" y="-417.5" font-family="Helvetica,sans-Serif" font-size="10.00">pfate::AdaptiveSpecies</text>
<text text-anchor="middle" x="553.5" y="-406.5" font-family="Helvetica,sans-Serif" font-size="10.00">::set_traits</text>
</a>
</g>
</g>
<!-- Node3&#45;&gt;Node4 -->
<g id="edge3" class="edge">
<title>Node3&#45;&gt;Node4</title>
<path fill="none" stroke="midnightblue" d="M453.45,-414.5C461.76,-414.5 470.32,-414.5 478.77,-414.5"/>
<polygon fill="midnightblue" stroke="midnightblue" points="479,-418 489,-414.5 479,-411 479,-418"/>
</g>
<!-- Node12 -->
<g id="node12" class="node">
<title>Node12</title>
<g id="a_node12"><a xlink:href="classpfate_1_1Patch.html#ab28768ff1b01cb532dfc9bca2d8ce2cb" target="_top" xlink:title=" ">
<polygon fill="none" stroke="black" points="330.5,-148 330.5,-167 446.5,-167 446.5,-148 330.5,-148"/>
<text text-anchor="middle" x="388.5" y="-155" font-family="Helvetica,sans-Serif" font-size="10.00">pfate::Patch::restore</text>
</a>
</g>
</g>
<!-- Node11&#45;&gt;Node12 -->
<g id="edge11" class="edge">
<title>Node11&#45;&gt;Node12</title>
<path fill="none" stroke="midnightblue" d="M264.78,-157.5C282.28,-157.5 301.96,-157.5 320.36,-157.5"/>
<polygon fill="midnightblue" stroke="midnightblue" points="320.42,-161 330.42,-157.5 320.42,-154 320.42,-161"/>
</g>
<!-- Node15 -->
<g id="node15" class="node">
<title>Node15</title>
<g id="a_node15"><a xlink:href="classpfate_1_1env_1_1Clim.html#a5a793121fa13f16263c703418fa42715" target="_top" xlink:title=" ">
<polygon fill="none" stroke="black" points="330.5,-49.5 330.5,-79.5 446.5,-79.5 446.5,-49.5 330.5,-49.5"/>
<text text-anchor="start" x="338.5" y="-67.5" font-family="Helvetica,sans-Serif" font-size="10.00">pfate::env::Clim::set</text>
<text text-anchor="middle" x="388.5" y="-56.5" font-family="Helvetica,sans-Serif" font-size="10.00">_elevation</text>
</a>
</g>
</g>
<!-- Node14&#45;&gt;Node15 -->
<g id="edge14" class="edge">
<title>Node14&#45;&gt;Node15</title>
<path fill="none" stroke="midnightblue" d="M265.74,-64.5C282.96,-64.5 302.21,-64.5 320.24,-64.5"/>
<polygon fill="midnightblue" stroke="midnightblue" points="320.39,-68 330.39,-64.5 320.39,-61 320.39,-68"/>
</g>
</g>
</svg>
