<?xml version="1.0" encoding="UTF-8" standalone="no"?>
<!DOCTYPE svg PUBLIC "-//W3C//DTD SVG 1.1//EN"
 "http://www.w3.org/Graphics/SVG/1.1/DTD/svg11.dtd">
<!-- Generated by graphviz version 2.43.0 (0)
 -->
<!-- Title: plant::Plant::get_biomass Pages: 1 -->
<svg width="601pt" height="165pt"
 viewBox="0.00 0.00 601.00 165.00" xmlns="http://www.w3.org/2000/svg" xmlns:xlink="http://www.w3.org/1999/xlink">
<g id="graph0" class="graph" transform="scale(1 1) rotate(0) translate(4 161)">
<title>plant::Plant::get_biomass</title>
<!-- Node1 -->
<g id="node1" class="node">
<title>Node1</title>
<g id="a_node1"><a xlink:title="Get plant biomass.">
<polygon fill="#bfbfbf" stroke="black" points="453,-50 453,-69 593,-69 593,-50 453,-50"/>
<text text-anchor="middle" x="523" y="-57" font-family="Helvetica,sans-Serif" font-size="10.00">plant::Plant::get_biomass</text>
</a>
</g>
</g>
<!-- Node2 -->
<g id="node2" class="node">
<title>Node2</title>
<g id="a_node2"><a xlink:href="classpfate_1_1LifeHistoryOptimizer.html#a05951c4085bd4f5a06fbbb66b8c3092d" target="_top" xlink:title=" ">
<polygon fill="none" stroke="black" points="265,-88.5 265,-118.5 414,-118.5 414,-88.5 265,-88.5"/>
<text text-anchor="start" x="273" y="-106.5" font-family="Helvetica,sans-Serif" font-size="10.00">pfate::LifeHistoryOptimizer</text>
<text text-anchor="middle" x="339.5" y="-95.5" font-family="Helvetica,sans-Serif" font-size="10.00">::get_state</text>
</a>
</g>
</g>
<!-- Node1&#45;&gt;Node2 -->
<g id="edge1" class="edge">
<title>Node1&#45;&gt;Node2</title>
<path fill="none" stroke="midnightblue" d="M472.69,-71.46C451.09,-76.69 425.52,-82.89 402.64,-88.43"/>
<polygon fill="midnightblue" stroke="midnightblue" points="473.72,-74.8 482.62,-69.05 472.07,-68 473.72,-74.8"/>
</g>
<!-- Node4 -->
<g id="node4" class="node">
<title>Node4</title>
<g id="a_node4"><a xlink:href="lho_8cpp.html#ae66f6b31b5ad750f1fe042a706a4e3d4" target="_top" xlink:title=" ">
<polygon fill="none" stroke="black" points="0,-91 0,-110 41,-110 41,-91 0,-91"/>
<text text-anchor="middle" x="20.5" y="-98" font-family="Helvetica,sans-Serif" font-size="10.00">main</text>
</a>
</g>
</g>
<!-- Node1&#45;&gt;Node4 -->
<g id="edge5" class="edge">
<title>Node1&#45;&gt;Node4</title>
<path fill="none" stroke="midnightblue" d="M442.77,-54.99C352.99,-51.69 202.8,-51.68 77,-78.5 64.63,-81.14 51.45,-86.26 41.03,-90.89"/>
<polygon fill="midnightblue" stroke="midnightblue" points="442.75,-58.49 452.88,-55.39 443.02,-51.5 442.75,-58.49"/>
</g>
<!-- Node6 -->
<g id="node6" class="node">
<title>Node6</title>
<g id="a_node6"><a xlink:href="classpfate_1_1CommunityProperties.html#a81a6aaa8387766442c2e9da98b2566f5" target="_top" xlink:title=" ">
<polygon fill="none" stroke="black" points="262,-0.5 262,-30.5 417,-30.5 417,-0.5 262,-0.5"/>
<text text-anchor="start" x="270" y="-18.5" font-family="Helvetica,sans-Serif" font-size="10.00">pfate::CommunityProperties</text>
<text text-anchor="middle" x="339.5" y="-7.5" font-family="Helvetica,sans-Serif" font-size="10.00">::update</text>
</a>
</g>
</g>
<!-- Node1&#45;&gt;Node6 -->
<g id="edge6" class="edge">
<title>Node1&#45;&gt;Node6</title>
<path fill="none" stroke="midnightblue" d="M472.69,-47.54C451.09,-42.31 425.52,-36.11 402.64,-30.57"/>
<polygon fill="midnightblue" stroke="midnightblue" points="472.07,-51 482.62,-49.95 473.72,-44.2 472.07,-51"/>
</g>
<!-- Node3 -->
<g id="node3" class="node">
<title>Node3</title>
<g id="a_node3"><a xlink:href="classpfate_1_1LifeHistoryOptimizer.html#a54629ecd5847e8354ce3d3293d964a69" target="_top" xlink:title=" ">
<polygon fill="none" stroke="black" points="77,-126.5 77,-156.5 226,-156.5 226,-126.5 77,-126.5"/>
<text text-anchor="start" x="85" y="-144.5" font-family="Helvetica,sans-Serif" font-size="10.00">pfate::LifeHistoryOptimizer</text>
<text text-anchor="middle" x="151.5" y="-133.5" font-family="Helvetica,sans-Serif" font-size="10.00">::printState</text>
</a>
</g>
</g>
<!-- Node2&#45;&gt;Node3 -->
<g id="edge2" class="edge">
<title>Node2&#45;&gt;Node3</title>
<path fill="none" stroke="midnightblue" d="M255.01,-120.56C245.36,-122.53 235.58,-124.53 226.09,-126.47"/>
<polygon fill="midnightblue" stroke="midnightblue" points="255.89,-123.95 264.99,-118.52 254.49,-117.09 255.89,-123.95"/>
</g>
<!-- Node5 -->
<g id="node5" class="node">
<title>Node5</title>
<g id="a_node5"><a xlink:href="r__interface_8cpp.html#a7897b94cdc1a829775ac5241571cd456" target="_top" xlink:title=" ">
<polygon fill="none" stroke="black" points="106.5,-88 106.5,-107 196.5,-107 196.5,-88 106.5,-88"/>
<text text-anchor="middle" x="151.5" y="-95" font-family="Helvetica,sans-Serif" font-size="10.00">RCPP_MODULE</text>
</a>
</g>
</g>
<!-- Node2&#45;&gt;Node5 -->
<g id="edge4" class="edge">
<title>Node2&#45;&gt;Node5</title>
<path fill="none" stroke="midnightblue" d="M254.86,-100.8C234.75,-100.15 214.04,-99.49 196.56,-98.92"/>
<polygon fill="midnightblue" stroke="midnightblue" points="254.88,-104.3 264.99,-101.13 255.11,-97.31 254.88,-104.3"/>
</g>
<!-- Node3&#45;&gt;Node4 -->
<g id="edge3" class="edge">
<title>Node3&#45;&gt;Node4</title>
<path fill="none" stroke="midnightblue" d="M93.51,-123.39C74.77,-117.43 55.17,-111.2 41.16,-106.75"/>
<polygon fill="midnightblue" stroke="midnightblue" points="92.61,-126.77 103.2,-126.47 94.73,-120.1 92.61,-126.77"/>
</g>
</g>
</svg>
