<?xml version="1.0" encoding="UTF-8" standalone="no"?>
<!DOCTYPE svg PUBLIC "-//W3C//DTD SVG 1.1//EN"
 "http://www.w3.org/Graphics/SVG/1.1/DTD/svg11.dtd">
<!-- Generated by graphviz version 2.43.0 (0)
 -->
<!-- Title: pfate::CommunityProperties::update Pages: 1 -->
<svg width="694pt" height="302pt"
 viewBox="0.00 0.00 694.00 302.00" xmlns="http://www.w3.org/2000/svg" xmlns:xlink="http://www.w3.org/1999/xlink">
<g id="graph0" class="graph" transform="scale(1 1) rotate(0) translate(4 298)">
<title>pfate::CommunityProperties::update</title>
<!-- Node1 -->
<g id="node1" class="node">
<title>Node1</title>
<g id="a_node1"><a xlink:title=" ">
<polygon fill="#bfbfbf" stroke="black" points="0,-137.5 0,-167.5 155,-167.5 155,-137.5 0,-137.5"/>
<text text-anchor="start" x="8" y="-155.5" font-family="Helvetica,sans-Serif" font-size="10.00">pfate::CommunityProperties</text>
<text text-anchor="middle" x="77.5" y="-144.5" font-family="Helvetica,sans-Serif" font-size="10.00">::update</text>
</a>
</g>
</g>
<!-- Node2 -->
<g id="node2" class="node">
<title>Node2</title>
<g id="a_node2"><a xlink:href="classplant_1_1PlantArchitecture.html#aaf65bbe9f64372d21b76509f0463f944" target="_top" xlink:title="Get biomass in various carbon pools.">
<polygon fill="none" stroke="black" points="195.5,-263.5 195.5,-293.5 326.5,-293.5 326.5,-263.5 195.5,-263.5"/>
<text text-anchor="start" x="203.5" y="-281.5" font-family="Helvetica,sans-Serif" font-size="10.00">plant::PlantArchitecture</text>
<text text-anchor="middle" x="261" y="-270.5" font-family="Helvetica,sans-Serif" font-size="10.00">::coarse_root_mass</text>
</a>
</g>
</g>
<!-- Node1&#45;&gt;Node2 -->
<g id="edge1" class="edge">
<title>Node1&#45;&gt;Node2</title>
<path fill="none" stroke="midnightblue" d="M93.36,-167.75C113.87,-188.16 152.67,-224.56 191,-248.5 197.17,-252.35 203.92,-255.95 210.71,-259.22"/>
<polygon fill="midnightblue" stroke="midnightblue" points="209.39,-262.46 219.93,-263.47 212.31,-256.11 209.39,-262.46"/>
</g>
<!-- Node3 -->
<g id="node3" class="node">
<title>Node3</title>
<g id="a_node3"><a xlink:href="classplant_1_1PlantArchitecture.html#a1fea368ef9182afc3aedfb76bcc4b3ee" target="_top" xlink:title="Get biomass in various carbon pools.">
<polygon fill="none" stroke="black" points="367,-232.5 367,-262.5 498,-262.5 498,-232.5 367,-232.5"/>
<text text-anchor="start" x="375" y="-250.5" font-family="Helvetica,sans-Serif" font-size="10.00">plant::PlantArchitecture</text>
<text text-anchor="middle" x="432.5" y="-239.5" font-family="Helvetica,sans-Serif" font-size="10.00">::stem_mass</text>
</a>
</g>
</g>
<!-- Node1&#45;&gt;Node3 -->
<g id="edge11" class="edge">
<title>Node1&#45;&gt;Node3</title>
<path fill="none" stroke="midnightblue" d="M114.79,-167.53C136.62,-176.2 165.11,-186.85 191,-194.5 245.84,-210.69 309.02,-224.43 356.85,-233.86"/>
<polygon fill="midnightblue" stroke="midnightblue" points="356.34,-237.33 366.82,-235.81 357.68,-230.45 356.34,-237.33"/>
</g>
<!-- Node4 -->
<g id="node4" class="node">
<title>Node4</title>
<g id="a_node4"><a xlink:href="group__ppa__module.html#ga4c6834623dae9423d2981a0b28b0f155" target="_top" xlink:title="Realized crown projection area at height z.">
<polygon fill="none" stroke="black" points="367,-167.5 367,-197.5 498,-197.5 498,-167.5 367,-167.5"/>
<text text-anchor="start" x="375" y="-185.5" font-family="Helvetica,sans-Serif" font-size="10.00">plant::PlantArchitecture</text>
<text text-anchor="middle" x="432.5" y="-174.5" font-family="Helvetica,sans-Serif" font-size="10.00">::crown_area_above</text>
</a>
</g>
</g>
<!-- Node1&#45;&gt;Node4 -->
<g id="edge3" class="edge">
<title>Node1&#45;&gt;Node4</title>
<path fill="none" stroke="midnightblue" d="M138.88,-167.53C155.65,-171.12 173.94,-174.49 191,-176.5 246.26,-183.03 309.14,-184.39 356.74,-184.19"/>
<polygon fill="midnightblue" stroke="midnightblue" points="356.98,-187.69 366.96,-184.12 356.94,-180.69 356.98,-187.69"/>
</g>
<!-- Node7 -->
<g id="node7" class="node">
<title>Node7</title>
<g id="a_node7"><a xlink:href="classplant_1_1PlantArchitecture.html#ac57d3c7ed468b593d9696785bd37d71a" target="_top" xlink:title="Vertical profiles of crown and stem">
<polygon fill="none" stroke="black" points="195.5,-137.5 195.5,-167.5 326.5,-167.5 326.5,-137.5 195.5,-137.5"/>
<text text-anchor="start" x="203.5" y="-155.5" font-family="Helvetica,sans-Serif" font-size="10.00">plant::PlantArchitecture</text>
<text text-anchor="middle" x="261" y="-144.5" font-family="Helvetica,sans-Serif" font-size="10.00">::diameter_at_height</text>
</a>
</g>
</g>
<!-- Node1&#45;&gt;Node7 -->
<g id="edge6" class="edge">
<title>Node1&#45;&gt;Node7</title>
<path fill="none" stroke="midnightblue" d="M155.21,-152.5C165.12,-152.5 175.26,-152.5 185.14,-152.5"/>
<polygon fill="midnightblue" stroke="midnightblue" points="185.32,-156 195.32,-152.5 185.32,-149 185.32,-156"/>
</g>
<!-- Node8 -->
<g id="node8" class="node">
<title>Node8</title>
<g id="a_node8"><a xlink:href="classplant_1_1Plant.html#a0e254502cb2bb6edf6e0e86e0db268d7" target="_top" xlink:title="Get plant biomass.">
<polygon fill="none" stroke="black" points="191,-99 191,-118 331,-118 331,-99 191,-99"/>
<text text-anchor="middle" x="261" y="-106" font-family="Helvetica,sans-Serif" font-size="10.00">plant::Plant::get_biomass</text>
</a>
</g>
</g>
<!-- Node1&#45;&gt;Node8 -->
<g id="edge8" class="edge">
<title>Node1&#45;&gt;Node8</title>
<path fill="none" stroke="midnightblue" d="M140.45,-137.48C163.42,-131.91 189.12,-125.68 210.79,-120.43"/>
<polygon fill="midnightblue" stroke="midnightblue" points="211.87,-123.77 220.76,-118.01 210.22,-116.97 211.87,-123.77"/>
</g>
<!-- Node9 -->
<g id="node9" class="node">
<title>Node9</title>
<g id="a_node9"><a xlink:href="classplant_1_1PlantArchitecture.html#a36ebf17a1799f27ce12bd27f637f88a9" target="_top" xlink:title="Get biomass in various carbon pools.">
<polygon fill="none" stroke="black" points="195.5,-49.5 195.5,-79.5 326.5,-79.5 326.5,-49.5 195.5,-49.5"/>
<text text-anchor="start" x="203.5" y="-67.5" font-family="Helvetica,sans-Serif" font-size="10.00">plant::PlantArchitecture</text>
<text text-anchor="middle" x="261" y="-56.5" font-family="Helvetica,sans-Serif" font-size="10.00">::leaf_mass</text>
</a>
</g>
</g>
<!-- Node1&#45;&gt;Node9 -->
<g id="edge9" class="edge">
<title>Node1&#45;&gt;Node9</title>
<path fill="none" stroke="midnightblue" d="M102.92,-137.3C125.31,-123.73 159.65,-103.84 191,-89.5 195.66,-87.37 200.56,-85.29 205.51,-83.3"/>
<polygon fill="midnightblue" stroke="midnightblue" points="206.98,-86.48 215.03,-79.59 204.44,-79.96 206.98,-86.48"/>
</g>
<!-- Node10 -->
<g id="node10" class="node">
<title>Node10</title>
<g id="a_node10"><a xlink:href="classplant_1_1PlantArchitecture.html#af767ab32b2c9aff347144ce7dff349be" target="_top" xlink:title="Get biomass in various carbon pools.">
<polygon fill="none" stroke="black" points="195.5,-0.5 195.5,-30.5 326.5,-30.5 326.5,-0.5 195.5,-0.5"/>
<text text-anchor="start" x="203.5" y="-18.5" font-family="Helvetica,sans-Serif" font-size="10.00">plant::PlantArchitecture</text>
<text text-anchor="middle" x="261" y="-7.5" font-family="Helvetica,sans-Serif" font-size="10.00">::root_mass</text>
</a>
</g>
</g>
<!-- Node1&#45;&gt;Node10 -->
<g id="edge10" class="edge">
<title>Node1&#45;&gt;Node10</title>
<path fill="none" stroke="midnightblue" d="M89.96,-137.15C108.62,-113.12 147.88,-66.61 191,-39.5 193.6,-37.87 196.33,-36.33 199.13,-34.88"/>
<polygon fill="midnightblue" stroke="midnightblue" points="200.74,-37.98 208.3,-30.56 197.76,-31.65 200.74,-37.98"/>
</g>
<!-- Node2&#45;&gt;Node3 -->
<g id="edge2" class="edge">
<title>Node2&#45;&gt;Node3</title>
<path fill="none" stroke="midnightblue" d="M326.56,-266.69C336.46,-264.88 346.74,-263 356.83,-261.16"/>
<polygon fill="midnightblue" stroke="midnightblue" points="357.63,-264.57 366.83,-259.33 356.37,-257.68 357.63,-264.57"/>
</g>
<!-- Node5 -->
<g id="node5" class="node">
<title>Node5</title>
<g id="a_node5"><a xlink:href="classplant_1_1PlantArchitecture.html#a81452fb0a56656f176f653d3bf9650d9" target="_top" xlink:title="Vertical profiles of crown and stem">
<polygon fill="none" stroke="black" points="538.5,-192 538.5,-211 681.5,-211 681.5,-192 538.5,-192"/>
<text text-anchor="middle" x="610" y="-199" font-family="Helvetica,sans-Serif" font-size="10.00">plant::PlantArchitecture::q</text>
</a>
</g>
</g>
<!-- Node4&#45;&gt;Node5 -->
<g id="edge4" class="edge">
<title>Node4&#45;&gt;Node5</title>
<path fill="none" stroke="midnightblue" d="M498.35,-189.52C508.09,-190.58 518.24,-191.67 528.26,-192.76"/>
<polygon fill="midnightblue" stroke="midnightblue" points="527.9,-196.24 538.22,-193.84 528.65,-189.28 527.9,-196.24"/>
</g>
<!-- Node6 -->
<g id="node6" class="node">
<title>Node6</title>
<g id="a_node6"><a xlink:href="classplant_1_1PlantArchitecture.html#a4d571b1b0165d995f3d2ca0fe21a4b28" target="_top" xlink:title="The height at which crown radius is maximum.">
<polygon fill="none" stroke="black" points="534,-154 534,-173 686,-173 686,-154 534,-154"/>
<text text-anchor="middle" x="610" y="-161" font-family="Helvetica,sans-Serif" font-size="10.00">plant::PlantArchitecture::zm</text>
</a>
</g>
</g>
<!-- Node4&#45;&gt;Node6 -->
<g id="edge5" class="edge">
<title>Node4&#45;&gt;Node6</title>
<path fill="none" stroke="midnightblue" d="M498.35,-175.48C506.63,-174.58 515.21,-173.65 523.75,-172.73"/>
<polygon fill="midnightblue" stroke="midnightblue" points="524.18,-176.2 533.74,-171.65 523.42,-169.24 524.18,-176.2"/>
</g>
<!-- Node7&#45;&gt;Node4 -->
<g id="edge7" class="edge">
<title>Node7&#45;&gt;Node4</title>
<path fill="none" stroke="midnightblue" d="M326.56,-163.93C336.46,-165.68 346.74,-167.5 356.83,-169.28"/>
<polygon fill="midnightblue" stroke="midnightblue" points="356.38,-172.76 366.83,-171.05 357.6,-165.87 356.38,-172.76"/>
</g>
</g>
</svg>
