<?xml version="1.0" encoding="UTF-8" standalone="no"?>
<!DOCTYPE svg PUBLIC "-//W3C//DTD SVG 1.1//EN"
 "http://www.w3.org/Graphics/SVG/1.1/DTD/svg11.dtd">
<!-- Generated by graphviz version 2.43.0 (0)
 -->
<!-- Title: pfate::LifeHistoryOptimizer::grow_for_dt Pages: 1 -->
<svg width="1247pt" height="632pt"
 viewBox="0.00 0.00 1247.00 632.00" xmlns="http://www.w3.org/2000/svg" xmlns:xlink="http://www.w3.org/1999/xlink">
<g id="graph0" class="graph" transform="scale(1 1) rotate(0) translate(4 628)">
<title>pfate::LifeHistoryOptimizer::grow_for_dt</title>
<!-- Node1 -->
<g id="node1" class="node">
<title>Node1</title>
<g id="a_node1"><a xlink:title=" ">
<polygon fill="#bfbfbf" stroke="black" points="0,-132.5 0,-162.5 149,-162.5 149,-132.5 0,-132.5"/>
<text text-anchor="start" x="8" y="-150.5" font-family="Helvetica,sans-Serif" font-size="10.00">pfate::LifeHistoryOptimizer</text>
<text text-anchor="middle" x="74.5" y="-139.5" font-family="Helvetica,sans-Serif" font-size="10.00">::grow_for_dt</text>
</a>
</g>
</g>
<!-- Node2 -->
<g id="node2" class="node">
<title>Node2</title>
<g id="a_node2"><a xlink:href="group__libpspm__interface.html#ga6c9356733f84aca1d7bc6980bc97f157" target="_top" xlink:title=" ">
<polygon fill="none" stroke="black" points="201.5,-346.5 201.5,-376.5 317.5,-376.5 317.5,-346.5 201.5,-346.5"/>
<text text-anchor="start" x="209.5" y="-364.5" font-family="Helvetica,sans-Serif" font-size="10.00">plant::Plant::calc</text>
<text text-anchor="middle" x="259.5" y="-353.5" font-family="Helvetica,sans-Serif" font-size="10.00">_demographic_rates</text>
</a>
</g>
</g>
<!-- Node1&#45;&gt;Node2 -->
<g id="edge1" class="edge">
<title>Node1&#45;&gt;Node2</title>
<path fill="none" stroke="midnightblue" d="M88.37,-162.55C119.93,-199.46 201.36,-294.68 238.95,-338.64"/>
<polygon fill="midnightblue" stroke="midnightblue" points="236.49,-341.14 245.65,-346.47 241.81,-336.59 236.49,-341.14"/>
</g>
<!-- Node3 -->
<g id="node3" class="node">
<title>Node3</title>
<g id="a_node3"><a xlink:href="group__libpspm__interface.html#ga35a2b0d4d10c6dd2125bae36fb2f20a9" target="_top" xlink:title=" ">
<polygon fill="none" stroke="black" points="370,-466 370,-485 519,-485 519,-466 370,-466"/>
<text text-anchor="middle" x="444.5" y="-473" font-family="Helvetica,sans-Serif" font-size="10.00">plant::Plant::fecundity_rate</text>
</a>
</g>
</g>
<!-- Node1&#45;&gt;Node3 -->
<g id="edge30" class="edge">
<title>Node1&#45;&gt;Node3</title>
<path fill="none" stroke="midnightblue" d="M78.13,-162.53C86.2,-204.25 114.49,-322.59 185,-386.5 233.33,-430.31 304.28,-452.74 359.63,-464.11"/>
<polygon fill="midnightblue" stroke="midnightblue" points="359.28,-467.61 369.77,-466.1 360.64,-460.74 359.28,-467.61"/>
</g>
<!-- Node28 -->
<g id="node28" class="node">
<title>Node28</title>
<g id="a_node28"><a xlink:href="classplant_1_1PlantArchitecture.html#a4ee1ef386497f18eb1f7d2ef2db3cff3" target="_top" xlink:title=" ">
<polygon fill="none" stroke="black" points="555,-148.5 555,-178.5 686,-178.5 686,-148.5 555,-148.5"/>
<text text-anchor="start" x="563" y="-166.5" font-family="Helvetica,sans-Serif" font-size="10.00">plant::PlantArchitecture</text>
<text text-anchor="middle" x="620.5" y="-155.5" font-family="Helvetica,sans-Serif" font-size="10.00">::get_size</text>
</a>
</g>
</g>
<!-- Node1&#45;&gt;Node28 -->
<g id="edge32" class="edge">
<title>Node1&#45;&gt;Node28</title>
<path fill="none" stroke="midnightblue" d="M149.15,-149.67C252.8,-152.71 440.68,-158.24 544.87,-161.3"/>
<polygon fill="midnightblue" stroke="midnightblue" points="544.89,-164.81 554.99,-161.6 545.1,-157.81 544.89,-164.81"/>
</g>
<!-- Node29 -->
<g id="node29" class="node">
<title>Node29</title>
<g id="a_node29"><a xlink:href="classpfate_1_1LifeHistoryOptimizer.html#a641e49a2bc1086fe64d1e0fe2fa47311" target="_top" xlink:title=" ">
<polygon fill="none" stroke="black" points="185,-88.5 185,-118.5 334,-118.5 334,-88.5 185,-88.5"/>
<text text-anchor="start" x="193" y="-106.5" font-family="Helvetica,sans-Serif" font-size="10.00">pfate::LifeHistoryOptimizer</text>
<text text-anchor="middle" x="259.5" y="-95.5" font-family="Helvetica,sans-Serif" font-size="10.00">::get_rates</text>
</a>
</g>
</g>
<!-- Node1&#45;&gt;Node29 -->
<g id="edge31" class="edge">
<title>Node1&#45;&gt;Node29</title>
<path fill="none" stroke="midnightblue" d="M137.97,-132.48C153.49,-128.75 170.25,-124.72 186.2,-120.88"/>
<polygon fill="midnightblue" stroke="midnightblue" points="187.1,-124.27 196,-118.53 185.46,-117.46 187.1,-124.27"/>
</g>
<!-- Node30 -->
<g id="node30" class="node">
<title>Node30</title>
<g id="a_node30"><a xlink:href="rk4_8h.html#a3d0ee2e6387dc2895fd9a41509912863" target="_top" xlink:title=" ">
<polygon fill="none" stroke="black" points="241.5,-50 241.5,-69 277.5,-69 277.5,-50 241.5,-50"/>
<text text-anchor="middle" x="259.5" y="-57" font-family="Helvetica,sans-Serif" font-size="10.00">RK4</text>
</a>
</g>
</g>
<!-- Node1&#45;&gt;Node30 -->
<g id="edge33" class="edge">
<title>Node1&#45;&gt;Node30</title>
<path fill="none" stroke="midnightblue" d="M95.9,-132.3C117.17,-117.07 151.97,-93.88 185,-79.5 199.78,-73.06 217.16,-68.22 231.3,-64.91"/>
<polygon fill="midnightblue" stroke="midnightblue" points="232.38,-68.26 241.39,-62.68 230.87,-61.43 232.38,-68.26"/>
</g>
<!-- Node31 -->
<g id="node31" class="node">
<title>Node31</title>
<g id="a_node31"><a xlink:href="classpfate_1_1LifeHistoryOptimizer.html#a72fdc4d5a3ac119efcb676a1f4436156" target="_top" xlink:title=" ">
<polygon fill="none" stroke="black" points="185,-176.5 185,-206.5 334,-206.5 334,-176.5 185,-176.5"/>
<text text-anchor="start" x="193" y="-194.5" font-family="Helvetica,sans-Serif" font-size="10.00">pfate::LifeHistoryOptimizer</text>
<text text-anchor="middle" x="259.5" y="-183.5" font-family="Helvetica,sans-Serif" font-size="10.00">::set_state</text>
</a>
</g>
</g>
<!-- Node1&#45;&gt;Node31 -->
<g id="edge34" class="edge">
<title>Node1&#45;&gt;Node31</title>
<path fill="none" stroke="midnightblue" d="M137.97,-162.52C153.49,-166.25 170.25,-170.28 186.2,-174.12"/>
<polygon fill="midnightblue" stroke="midnightblue" points="185.46,-177.54 196,-176.47 187.1,-170.73 185.46,-177.54"/>
</g>
<!-- Node33 -->
<g id="node33" class="node">
<title>Node33</title>
<g id="a_node33"><a xlink:href="classpfate_1_1LifeHistoryOptimizer.html#ad2f441a77b37f12f0cc15cd89977412e" target="_top" xlink:title=" ">
<polygon fill="none" stroke="black" points="185,-0.5 185,-30.5 334,-30.5 334,-0.5 185,-0.5"/>
<text text-anchor="start" x="193" y="-18.5" font-family="Helvetica,sans-Serif" font-size="10.00">pfate::LifeHistoryOptimizer</text>
<text text-anchor="middle" x="259.5" y="-7.5" font-family="Helvetica,sans-Serif" font-size="10.00">::update_climate</text>
</a>
</g>
</g>
<!-- Node1&#45;&gt;Node33 -->
<g id="edge37" class="edge">
<title>Node1&#45;&gt;Node33</title>
<path fill="none" stroke="midnightblue" d="M87.33,-132.19C105.83,-109.22 143.78,-65.82 185,-40.5 188.39,-38.42 191.98,-36.48 195.67,-34.69"/>
<polygon fill="midnightblue" stroke="midnightblue" points="197.31,-37.79 205.02,-30.52 194.46,-31.4 197.31,-37.79"/>
</g>
<!-- Node2&#45;&gt;Node3 -->
<g id="edge2" class="edge">
<title>Node2&#45;&gt;Node3</title>
<path fill="none" stroke="midnightblue" d="M277.32,-376.64C302.79,-399.33 350.26,-440.67 370,-451.5 377.87,-455.82 386.64,-459.51 395.3,-462.62"/>
<polygon fill="midnightblue" stroke="midnightblue" points="394.39,-466.01 404.99,-465.88 396.63,-459.38 394.39,-466.01"/>
</g>
<!-- Node4 -->
<g id="node4" class="node">
<title>Node4</title>
<g id="a_node4"><a xlink:href="classplant_1_1Plant.html#a48612779a5850cca9cc6f6caff1ccb8b" target="_top" xlink:title="LAI model.">
<polygon fill="none" stroke="black" points="381.5,-390 381.5,-409 507.5,-409 507.5,-390 381.5,-390"/>
<text text-anchor="middle" x="444.5" y="-397" font-family="Helvetica,sans-Serif" font-size="10.00">plant::Plant::lai_model</text>
</a>
</g>
</g>
<!-- Node2&#45;&gt;Node4 -->
<g id="edge3" class="edge">
<title>Node2&#45;&gt;Node4</title>
<path fill="none" stroke="midnightblue" d="M317.65,-373.37C339.93,-377.99 365.39,-383.28 387.56,-387.88"/>
<polygon fill="midnightblue" stroke="midnightblue" points="386.98,-391.34 397.48,-389.94 388.4,-384.48 386.98,-391.34"/>
</g>
<!-- Node6 -->
<g id="node6" class="node">
<title>Node6</title>
<g id="a_node6"><a xlink:href="classplant_1_1Assimilator.html#ade28356f5c19a8033b3781308f21202a" target="_top" xlink:title="Calculate whole&#45;plant net assimilation.">
<polygon fill="none" stroke="black" points="569,-422.5 569,-452.5 672,-452.5 672,-422.5 569,-422.5"/>
<text text-anchor="start" x="577" y="-440.5" font-family="Helvetica,sans-Serif" font-size="10.00">plant::Assimilator</text>
<text text-anchor="middle" x="620.5" y="-429.5" font-family="Helvetica,sans-Serif" font-size="10.00">::net_production</text>
</a>
</g>
</g>
<!-- Node2&#45;&gt;Node6 -->
<g id="edge24" class="edge">
<title>Node2&#45;&gt;Node6</title>
<path fill="none" stroke="midnightblue" d="M282.85,-376.6C304.22,-390.17 337.85,-409.33 370,-418.5 432.53,-436.34 507.24,-439.82 558.5,-439.62"/>
<polygon fill="midnightblue" stroke="midnightblue" points="558.78,-443.12 568.75,-439.53 558.72,-436.12 558.78,-443.12"/>
</g>
<!-- Node23 -->
<g id="node23" class="node">
<title>Node23</title>
<g id="a_node23"><a xlink:href="group__libpspm__interface.html#ga8b3531e4d6f3471834a94a828b54f8cd" target="_top" xlink:title=" ">
<polygon fill="none" stroke="black" points="370.5,-352 370.5,-371 518.5,-371 518.5,-352 370.5,-352"/>
<text text-anchor="middle" x="444.5" y="-359" font-family="Helvetica,sans-Serif" font-size="10.00">plant::Plant::mortality_rate</text>
</a>
</g>
</g>
<!-- Node2&#45;&gt;Node23 -->
<g id="edge23" class="edge">
<title>Node2&#45;&gt;Node23</title>
<path fill="none" stroke="midnightblue" d="M317.65,-361.5C331.07,-361.5 345.64,-361.5 359.95,-361.5"/>
<polygon fill="midnightblue" stroke="midnightblue" points="360.3,-365 370.3,-361.5 360.3,-358 360.3,-365"/>
</g>
<!-- Node24 -->
<g id="node24" class="node">
<title>Node24</title>
<g id="a_node24"><a xlink:href="classplant_1_1Plant.html#af19cb4918c06a6660da62386a2d2ea36" target="_top" xlink:title="Partition total biomass dm_dt_tot into various carbon pools.">
<polygon fill="none" stroke="black" points="385,-302.5 385,-332.5 504,-332.5 504,-302.5 385,-302.5"/>
<text text-anchor="start" x="393" y="-320.5" font-family="Helvetica,sans-Serif" font-size="10.00">plant::Plant::partition</text>
<text text-anchor="middle" x="444.5" y="-309.5" font-family="Helvetica,sans-Serif" font-size="10.00">_biomass</text>
</a>
</g>
</g>
<!-- Node2&#45;&gt;Node24 -->
<g id="edge25" class="edge">
<title>Node2&#45;&gt;Node24</title>
<path fill="none" stroke="midnightblue" d="M317.65,-347.76C335.87,-343.38 356.21,-338.49 375.14,-333.94"/>
<polygon fill="midnightblue" stroke="midnightblue" points="375.99,-337.33 384.89,-331.59 374.35,-330.53 375.99,-337.33"/>
</g>
<!-- Node26 -->
<g id="node26" class="node">
<title>Node26</title>
<g id="a_node26"><a xlink:href="group__libpspm__interface.html#gae3454b0d55be59a37e19915d47431da6" target="_top" xlink:title=" ">
<polygon fill="none" stroke="black" points="395.5,-214.5 395.5,-244.5 493.5,-244.5 493.5,-214.5 395.5,-214.5"/>
<text text-anchor="start" x="403.5" y="-232.5" font-family="Helvetica,sans-Serif" font-size="10.00">plant::Plant::size</text>
<text text-anchor="middle" x="444.5" y="-221.5" font-family="Helvetica,sans-Serif" font-size="10.00">_growth_rate</text>
</a>
</g>
</g>
<!-- Node2&#45;&gt;Node26 -->
<g id="edge27" class="edge">
<title>Node2&#45;&gt;Node26</title>
<path fill="none" stroke="midnightblue" d="M281.49,-346.36C314.09,-322.85 376.96,-277.49 414.07,-250.73"/>
<polygon fill="midnightblue" stroke="midnightblue" points="416.41,-253.36 422.47,-244.67 412.31,-247.68 416.41,-253.36"/>
</g>
<!-- Node5 -->
<g id="node5" class="node">
<title>Node5</title>
<g id="a_node5"><a xlink:href="classplant_1_1PlantArchitecture.html#a7e5250a6704a5e8d80e4200259c1acf9" target="_top" xlink:title="Rate of change of leaf mass due to change in LAI.">
<polygon fill="none" stroke="black" points="555,-373.5 555,-403.5 686,-403.5 686,-373.5 555,-373.5"/>
<text text-anchor="start" x="563" y="-391.5" font-family="Helvetica,sans-Serif" font-size="10.00">plant::PlantArchitecture</text>
<text text-anchor="middle" x="620.5" y="-380.5" font-family="Helvetica,sans-Serif" font-size="10.00">::dmass_dt_lai</text>
</a>
</g>
</g>
<!-- Node4&#45;&gt;Node5 -->
<g id="edge4" class="edge">
<title>Node4&#45;&gt;Node5</title>
<path fill="none" stroke="midnightblue" d="M507.83,-395.56C519.79,-394.8 532.43,-394 544.73,-393.23"/>
<polygon fill="midnightblue" stroke="midnightblue" points="545.21,-396.7 554.97,-392.58 544.77,-389.72 545.21,-396.7"/>
</g>
<!-- Node4&#45;&gt;Node6 -->
<g id="edge5" class="edge">
<title>Node4&#45;&gt;Node6</title>
<path fill="none" stroke="midnightblue" d="M489.41,-409.09C510.46,-413.69 536,-419.27 558.87,-424.26"/>
<polygon fill="midnightblue" stroke="midnightblue" points="558.3,-427.72 568.82,-426.43 559.8,-420.88 558.3,-427.72"/>
</g>
<!-- Node22 -->
<g id="node22" class="node">
<title>Node22</title>
<g id="a_node22"><a xlink:href="classplant_1_1PlantArchitecture.html#a6765e3aee8ac12969e1e47aed2aea2da" target="_top" xlink:title="Set the crown LAI and properties that change with LAI.">
<polygon fill="none" stroke="black" points="555,-260.5 555,-290.5 686,-290.5 686,-260.5 555,-260.5"/>
<text text-anchor="start" x="563" y="-278.5" font-family="Helvetica,sans-Serif" font-size="10.00">plant::PlantArchitecture</text>
<text text-anchor="middle" x="620.5" y="-267.5" font-family="Helvetica,sans-Serif" font-size="10.00">::set_lai</text>
</a>
</g>
</g>
<!-- Node4&#45;&gt;Node22 -->
<g id="edge22" class="edge">
<title>Node4&#45;&gt;Node22</title>
<path fill="none" stroke="midnightblue" d="M503.74,-389.85C509.25,-387.39 514.47,-384.32 519,-380.5 548.81,-355.37 526.71,-327.33 555,-300.5 556.66,-298.92 558.44,-297.44 560.3,-296.05"/>
<polygon fill="midnightblue" stroke="midnightblue" points="562.39,-298.86 568.91,-290.52 558.61,-292.98 562.39,-298.86"/>
</g>
<!-- Node7 -->
<g id="node7" class="node">
<title>Node7</title>
<g id="a_node7"><a xlink:href="classplant_1_1Assimilator.html#ac0e69ab9225a2d1be337b10446cfa126" target="_top" xlink:title="Calculate whole&#45;plant gross assimilation, transpiration, gs, etc.">
<polygon fill="none" stroke="black" points="722,-569.5 722,-599.5 884,-599.5 884,-569.5 722,-569.5"/>
<text text-anchor="start" x="730" y="-587.5" font-family="Helvetica,sans-Serif" font-size="10.00">plant::Assimilator</text>
<text text-anchor="middle" x="803" y="-576.5" font-family="Helvetica,sans-Serif" font-size="10.00">::calc_plant_assimilation_rate</text>
</a>
</g>
</g>
<!-- Node6&#45;&gt;Node7 -->
<g id="edge6" class="edge">
<title>Node6&#45;&gt;Node7</title>
<path fill="none" stroke="midnightblue" d="M629.88,-452.83C644.89,-478.87 678.88,-531.72 722,-560.5 724.43,-562.12 726.97,-563.64 729.6,-565.05"/>
<polygon fill="midnightblue" stroke="midnightblue" points="728.26,-568.29 738.78,-569.49 731.3,-561.99 728.26,-568.29"/>
</g>
<!-- Node12 -->
<g id="node12" class="node">
<title>Node12</title>
<g id="a_node12"><a xlink:href="classplant_1_1Assimilator.html#ad33549c793850f11330fd48829367c55" target="_top" xlink:title="Calculate leaf and fine&#45;root respiration rates.">
<polygon fill="none" stroke="black" points="741,-520.5 741,-550.5 865,-550.5 865,-520.5 741,-520.5"/>
<text text-anchor="start" x="749" y="-538.5" font-family="Helvetica,sans-Serif" font-size="10.00">plant::Assimilator</text>
<text text-anchor="middle" x="803" y="-527.5" font-family="Helvetica,sans-Serif" font-size="10.00">::leaf_respiration_rate</text>
</a>
</g>
</g>
<!-- Node6&#45;&gt;Node12 -->
<g id="edge11" class="edge">
<title>Node6&#45;&gt;Node12</title>
<path fill="none" stroke="midnightblue" d="M638.1,-452.55C657.12,-469.09 689.82,-495.43 722,-511.5 725.79,-513.39 729.77,-515.17 733.83,-516.83"/>
<polygon fill="midnightblue" stroke="midnightblue" points="732.82,-520.19 743.41,-520.48 735.32,-513.65 732.82,-520.19"/>
</g>
<!-- Node13 -->
<g id="node13" class="node">
<title>Node13</title>
<g id="a_node13"><a xlink:href="classplant_1_1Assimilator.html#a0da26c8e10a188774954652ec0402e09" target="_top" xlink:title="Calculate leaf and fine&#45;root turnover rates.">
<polygon fill="none" stroke="black" points="746.5,-471.5 746.5,-501.5 859.5,-501.5 859.5,-471.5 746.5,-471.5"/>
<text text-anchor="start" x="754.5" y="-489.5" font-family="Helvetica,sans-Serif" font-size="10.00">plant::Assimilator</text>
<text text-anchor="middle" x="803" y="-478.5" font-family="Helvetica,sans-Serif" font-size="10.00">::leaf_turnover_rate</text>
</a>
</g>
</g>
<!-- Node6&#45;&gt;Node13 -->
<g id="edge12" class="edge">
<title>Node6&#45;&gt;Node13</title>
<path fill="none" stroke="midnightblue" d="M672.26,-451.28C692.24,-456.7 715.44,-463 736.65,-468.76"/>
<polygon fill="midnightblue" stroke="midnightblue" points="735.99,-472.21 746.56,-471.45 737.83,-465.45 735.99,-472.21"/>
</g>
<!-- Node15 -->
<g id="node15" class="node">
<title>Node15</title>
<g id="a_node15"><a xlink:href="classplant_1_1Assimilator.html#a07a83723c0f4cc6e98968dfb241c6ce7" target="_top" xlink:title="Leaf economics &#45; calculate optimal leaf lifespan.">
<polygon fill="none" stroke="black" points="740.5,-422.5 740.5,-452.5 865.5,-452.5 865.5,-422.5 740.5,-422.5"/>
<text text-anchor="start" x="748.5" y="-440.5" font-family="Helvetica,sans-Serif" font-size="10.00">plant::Assimilator</text>
<text text-anchor="middle" x="803" y="-429.5" font-family="Helvetica,sans-Serif" font-size="10.00">::les_update_lifespans</text>
</a>
</g>
</g>
<!-- Node6&#45;&gt;Node15 -->
<g id="edge14" class="edge">
<title>Node6&#45;&gt;Node15</title>
<path fill="none" stroke="midnightblue" d="M672.26,-437.5C690.28,-437.5 710.93,-437.5 730.37,-437.5"/>
<polygon fill="midnightblue" stroke="midnightblue" points="730.4,-441 740.4,-437.5 730.4,-434 730.4,-441"/>
</g>
<!-- Node16 -->
<g id="node16" class="node">
<title>Node16</title>
<g id="a_node16"><a xlink:href="classplant_1_1Assimilator.html#aeedad55e35be6fa1d908731a123e2c4f" target="_top" xlink:title="Calculate leaf and fine&#45;root respiration rates.">
<polygon fill="none" stroke="black" points="740.5,-324.5 740.5,-354.5 865.5,-354.5 865.5,-324.5 740.5,-324.5"/>
<text text-anchor="start" x="748.5" y="-342.5" font-family="Helvetica,sans-Serif" font-size="10.00">plant::Assimilator</text>
<text text-anchor="middle" x="803" y="-331.5" font-family="Helvetica,sans-Serif" font-size="10.00">::root_respiration_rate</text>
</a>
</g>
</g>
<!-- Node6&#45;&gt;Node16 -->
<g id="edge15" class="edge">
<title>Node6&#45;&gt;Node16</title>
<path fill="none" stroke="midnightblue" d="M671.31,-422.4C676.51,-419.83 681.52,-416.88 686,-413.5 707.57,-397.22 700.01,-380.2 722,-364.5 724.87,-362.45 727.91,-360.57 731.07,-358.83"/>
<polygon fill="midnightblue" stroke="midnightblue" points="732.8,-361.88 740.23,-354.34 729.71,-355.6 732.8,-361.88"/>
</g>
<!-- Node18 -->
<g id="node18" class="node">
<title>Node18</title>
<g id="a_node18"><a xlink:href="classplant_1_1Assimilator.html#a31ccc72fe7255233a1640d1f708eebc7" target="_top" xlink:title="Calculate leaf and fine&#45;root turnover rates.">
<polygon fill="none" stroke="black" points="746.5,-373.5 746.5,-403.5 859.5,-403.5 859.5,-373.5 746.5,-373.5"/>
<text text-anchor="start" x="754.5" y="-391.5" font-family="Helvetica,sans-Serif" font-size="10.00">plant::Assimilator</text>
<text text-anchor="middle" x="803" y="-380.5" font-family="Helvetica,sans-Serif" font-size="10.00">::root_turnover_rate</text>
</a>
</g>
</g>
<!-- Node6&#45;&gt;Node18 -->
<g id="edge17" class="edge">
<title>Node6&#45;&gt;Node18</title>
<path fill="none" stroke="midnightblue" d="M672.26,-423.72C692.24,-418.3 715.44,-412 736.65,-406.24"/>
<polygon fill="midnightblue" stroke="midnightblue" points="737.83,-409.55 746.56,-403.55 735.99,-402.79 737.83,-409.55"/>
</g>
<!-- Node19 -->
<g id="node19" class="node">
<title>Node19</title>
<g id="a_node19"><a xlink:href="classplant_1_1Assimilator.html#ad1f356c7c009ad495c9e9a3994c92fd3" target="_top" xlink:title="Calculate leaf and fine&#45;root respiration rates.">
<polygon fill="none" stroke="black" points="728.5,-275.5 728.5,-305.5 877.5,-305.5 877.5,-275.5 728.5,-275.5"/>
<text text-anchor="start" x="736.5" y="-293.5" font-family="Helvetica,sans-Serif" font-size="10.00">plant::Assimilator</text>
<text text-anchor="middle" x="803" y="-282.5" font-family="Helvetica,sans-Serif" font-size="10.00">::sapwood_respiration_rate</text>
</a>
</g>
</g>
<!-- Node6&#45;&gt;Node19 -->
<g id="edge19" class="edge">
<title>Node6&#45;&gt;Node19</title>
<path fill="none" stroke="midnightblue" d="M672.03,-423.76C677.16,-420.95 681.95,-417.56 686,-413.5 718.74,-380.62 688.39,-347.49 722,-315.5 723.67,-313.91 725.44,-312.42 727.29,-311.03"/>
<polygon fill="midnightblue" stroke="midnightblue" points="729.35,-313.86 735.86,-305.5 725.56,-307.98 729.35,-313.86"/>
</g>
<!-- Node8 -->
<g id="node8" class="node">
<title>Node8</title>
<g id="a_node8"><a xlink:href="group__ppa__module.html#ga4c6834623dae9423d2981a0b28b0f155" target="_top" xlink:title="Realized crown projection area at height z.">
<polygon fill="none" stroke="black" points="920,-544.5 920,-574.5 1051,-574.5 1051,-544.5 920,-544.5"/>
<text text-anchor="start" x="928" y="-562.5" font-family="Helvetica,sans-Serif" font-size="10.00">plant::PlantArchitecture</text>
<text text-anchor="middle" x="985.5" y="-551.5" font-family="Helvetica,sans-Serif" font-size="10.00">::crown_area_above</text>
</a>
</g>
</g>
<!-- Node7&#45;&gt;Node8 -->
<g id="edge7" class="edge">
<title>Node7&#45;&gt;Node8</title>
<path fill="none" stroke="midnightblue" d="M884.22,-573.39C892.72,-572.21 901.34,-571.02 909.78,-569.85"/>
<polygon fill="midnightblue" stroke="midnightblue" points="910.53,-573.28 919.95,-568.44 909.57,-566.35 910.53,-573.28"/>
</g>
<!-- Node11 -->
<g id="node11" class="node">
<title>Node11</title>
<g id="a_node11"><a xlink:href="classplant_1_1Assimilator.html#a01115927f79cc407240f59af57c12d17" target="_top" xlink:title="Calculate leaf&#45;level assimilation rate using the Phydro model ///.">
<polygon fill="none" stroke="black" points="920,-593.5 920,-623.5 1051,-623.5 1051,-593.5 920,-593.5"/>
<text text-anchor="start" x="928" y="-611.5" font-family="Helvetica,sans-Serif" font-size="10.00">plant::Assimilator</text>
<text text-anchor="middle" x="985.5" y="-600.5" font-family="Helvetica,sans-Serif" font-size="10.00">::leaf_assimilation_rate</text>
</a>
</g>
</g>
<!-- Node7&#45;&gt;Node11 -->
<g id="edge10" class="edge">
<title>Node7&#45;&gt;Node11</title>
<path fill="none" stroke="midnightblue" d="M884.22,-595.17C892.72,-596.3 901.34,-597.44 909.78,-598.56"/>
<polygon fill="midnightblue" stroke="midnightblue" points="909.58,-602.07 919.95,-599.92 910.5,-595.13 909.58,-602.07"/>
</g>
<!-- Node9 -->
<g id="node9" class="node">
<title>Node9</title>
<g id="a_node9"><a xlink:href="classplant_1_1PlantArchitecture.html#a81452fb0a56656f176f653d3bf9650d9" target="_top" xlink:title="Vertical profiles of crown and stem">
<polygon fill="none" stroke="black" points="1091.5,-531 1091.5,-550 1234.5,-550 1234.5,-531 1091.5,-531"/>
<text text-anchor="middle" x="1163" y="-538" font-family="Helvetica,sans-Serif" font-size="10.00">plant::PlantArchitecture::q</text>
</a>
</g>
</g>
<!-- Node8&#45;&gt;Node9 -->
<g id="edge8" class="edge">
<title>Node8&#45;&gt;Node9</title>
<path fill="none" stroke="midnightblue" d="M1051.35,-552.48C1061.09,-551.42 1071.24,-550.33 1081.26,-549.24"/>
<polygon fill="midnightblue" stroke="midnightblue" points="1081.65,-552.72 1091.22,-548.16 1080.9,-545.76 1081.65,-552.72"/>
</g>
<!-- Node10 -->
<g id="node10" class="node">
<title>Node10</title>
<g id="a_node10"><a xlink:href="classplant_1_1PlantArchitecture.html#a4d571b1b0165d995f3d2ca0fe21a4b28" target="_top" xlink:title="The height at which crown radius is maximum.">
<polygon fill="none" stroke="black" points="1087,-569 1087,-588 1239,-588 1239,-569 1087,-569"/>
<text text-anchor="middle" x="1163" y="-576" font-family="Helvetica,sans-Serif" font-size="10.00">plant::PlantArchitecture::zm</text>
</a>
</g>
</g>
<!-- Node8&#45;&gt;Node10 -->
<g id="edge9" class="edge">
<title>Node8&#45;&gt;Node10</title>
<path fill="none" stroke="midnightblue" d="M1051.35,-566.52C1059.63,-567.42 1068.21,-568.35 1076.75,-569.27"/>
<polygon fill="midnightblue" stroke="midnightblue" points="1076.42,-572.76 1086.74,-570.35 1077.18,-565.8 1076.42,-572.76"/>
</g>
<!-- Node14 -->
<g id="node14" class="node">
<title>Node14</title>
<g id="a_node14"><a xlink:href="classplant_1_1PlantArchitecture.html#a36ebf17a1799f27ce12bd27f637f88a9" target="_top" xlink:title="Get biomass in various carbon pools.">
<polygon fill="none" stroke="black" points="920,-471.5 920,-501.5 1051,-501.5 1051,-471.5 920,-471.5"/>
<text text-anchor="start" x="928" y="-489.5" font-family="Helvetica,sans-Serif" font-size="10.00">plant::PlantArchitecture</text>
<text text-anchor="middle" x="985.5" y="-478.5" font-family="Helvetica,sans-Serif" font-size="10.00">::leaf_mass</text>
</a>
</g>
</g>
<!-- Node13&#45;&gt;Node14 -->
<g id="edge13" class="edge">
<title>Node13&#45;&gt;Node14</title>
<path fill="none" stroke="midnightblue" d="M859.63,-486.5C875.41,-486.5 892.86,-486.5 909.59,-486.5"/>
<polygon fill="midnightblue" stroke="midnightblue" points="909.89,-490 919.88,-486.5 909.88,-483 909.89,-490"/>
</g>
<!-- Node17 -->
<g id="node17" class="node">
<title>Node17</title>
<g id="a_node17"><a xlink:href="classplant_1_1PlantArchitecture.html#af767ab32b2c9aff347144ce7dff349be" target="_top" xlink:title="Get biomass in various carbon pools.">
<polygon fill="none" stroke="black" points="920,-348.5 920,-378.5 1051,-378.5 1051,-348.5 920,-348.5"/>
<text text-anchor="start" x="928" y="-366.5" font-family="Helvetica,sans-Serif" font-size="10.00">plant::PlantArchitecture</text>
<text text-anchor="middle" x="985.5" y="-355.5" font-family="Helvetica,sans-Serif" font-size="10.00">::root_mass</text>
</a>
</g>
</g>
<!-- Node16&#45;&gt;Node17 -->
<g id="edge16" class="edge">
<title>Node16&#45;&gt;Node17</title>
<path fill="none" stroke="midnightblue" d="M865.61,-347.69C879.8,-349.58 895.05,-351.61 909.73,-353.56"/>
<polygon fill="midnightblue" stroke="midnightblue" points="909.4,-357.05 919.78,-354.89 910.33,-350.11 909.4,-357.05"/>
</g>
<!-- Node18&#45;&gt;Node17 -->
<g id="edge18" class="edge">
<title>Node18&#45;&gt;Node17</title>
<path fill="none" stroke="midnightblue" d="M859.63,-380.8C875.41,-378.61 892.86,-376.19 909.59,-373.88"/>
<polygon fill="midnightblue" stroke="midnightblue" points="910.46,-377.29 919.88,-372.45 909.5,-370.35 910.46,-377.29"/>
</g>
<!-- Node20 -->
<g id="node20" class="node">
<title>Node20</title>
<g id="a_node20"><a xlink:href="classplant_1_1PlantArchitecture.html#a0f95752c3574b4dfadb93e92582e5fa5" target="_top" xlink:title="Get biomass in various carbon pools.">
<polygon fill="none" stroke="black" points="920,-275.5 920,-305.5 1051,-305.5 1051,-275.5 920,-275.5"/>
<text text-anchor="start" x="928" y="-293.5" font-family="Helvetica,sans-Serif" font-size="10.00">plant::PlantArchitecture</text>
<text text-anchor="middle" x="985.5" y="-282.5" font-family="Helvetica,sans-Serif" font-size="10.00">::sapwood_mass</text>
</a>
</g>
</g>
<!-- Node19&#45;&gt;Node20 -->
<g id="edge20" class="edge">
<title>Node19&#45;&gt;Node20</title>
<path fill="none" stroke="midnightblue" d="M877.68,-290.5C888.24,-290.5 899.12,-290.5 909.7,-290.5"/>
<polygon fill="midnightblue" stroke="midnightblue" points="909.74,-294 919.74,-290.5 909.74,-287 909.74,-294"/>
</g>
<!-- Node21 -->
<g id="node21" class="node">
<title>Node21</title>
<g id="a_node21"><a xlink:href="classplant_1_1PlantArchitecture.html#a1fea368ef9182afc3aedfb76bcc4b3ee" target="_top" xlink:title="Get biomass in various carbon pools.">
<polygon fill="none" stroke="black" points="1097.5,-275.5 1097.5,-305.5 1228.5,-305.5 1228.5,-275.5 1097.5,-275.5"/>
<text text-anchor="start" x="1105.5" y="-293.5" font-family="Helvetica,sans-Serif" font-size="10.00">plant::PlantArchitecture</text>
<text text-anchor="middle" x="1163" y="-282.5" font-family="Helvetica,sans-Serif" font-size="10.00">::stem_mass</text>
</a>
</g>
</g>
<!-- Node20&#45;&gt;Node21 -->
<g id="edge21" class="edge">
<title>Node20&#45;&gt;Node21</title>
<path fill="none" stroke="midnightblue" d="M1051.35,-290.5C1062.98,-290.5 1075.19,-290.5 1087.08,-290.5"/>
<polygon fill="midnightblue" stroke="midnightblue" points="1087.42,-294 1097.42,-290.5 1087.42,-287 1087.42,-294"/>
</g>
<!-- Node25 -->
<g id="node25" class="node">
<title>Node25</title>
<g id="a_node25"><a xlink:href="classplant_1_1PlantArchitecture.html#a459c5123d878d20d25f86e64996d2c64" target="_top" xlink:title="Derivatives required for biomass partitioning">
<polygon fill="none" stroke="black" points="555,-309.5 555,-339.5 686,-339.5 686,-309.5 555,-309.5"/>
<text text-anchor="start" x="563" y="-327.5" font-family="Helvetica,sans-Serif" font-size="10.00">plant::PlantArchitecture</text>
<text text-anchor="middle" x="620.5" y="-316.5" font-family="Helvetica,sans-Serif" font-size="10.00">::dreproduction_dmass</text>
</a>
</g>
</g>
<!-- Node24&#45;&gt;Node25 -->
<g id="edge26" class="edge">
<title>Node24&#45;&gt;Node25</title>
<path fill="none" stroke="midnightblue" d="M504.41,-319.87C517.37,-320.39 531.27,-320.95 544.76,-321.49"/>
<polygon fill="midnightblue" stroke="midnightblue" points="544.85,-325 554.98,-321.9 545.13,-318.01 544.85,-325"/>
</g>
<!-- Node27 -->
<g id="node27" class="node">
<title>Node27</title>
<g id="a_node27"><a xlink:href="classplant_1_1PlantArchitecture.html#acdc3841d5f648fabc0202e04e2bfb8a3" target="_top" xlink:title="Derivatives required for biomass partitioning">
<polygon fill="none" stroke="black" points="555,-211.5 555,-241.5 686,-241.5 686,-211.5 555,-211.5"/>
<text text-anchor="start" x="563" y="-229.5" font-family="Helvetica,sans-Serif" font-size="10.00">plant::PlantArchitecture</text>
<text text-anchor="middle" x="620.5" y="-218.5" font-family="Helvetica,sans-Serif" font-size="10.00">::dsize_dmass</text>
</a>
</g>
</g>
<!-- Node26&#45;&gt;Node27 -->
<g id="edge28" class="edge">
<title>Node26&#45;&gt;Node27</title>
<path fill="none" stroke="midnightblue" d="M493.51,-228.67C509.32,-228.4 527.29,-228.09 544.61,-227.79"/>
<polygon fill="midnightblue" stroke="midnightblue" points="544.77,-231.29 554.71,-227.62 544.65,-224.29 544.77,-231.29"/>
</g>
<!-- Node26&#45;&gt;Node28 -->
<g id="edge29" class="edge">
<title>Node26&#45;&gt;Node28</title>
<path fill="none" stroke="midnightblue" d="M491.13,-214.45C500.39,-211.26 510.04,-207.85 519,-204.5 537.32,-197.65 557.3,-189.62 574.59,-182.49"/>
<polygon fill="midnightblue" stroke="midnightblue" points="575.99,-185.7 583.89,-178.63 573.31,-179.23 575.99,-185.7"/>
</g>
<!-- Node31&#45;&gt;Node22 -->
<g id="edge35" class="edge">
<title>Node31&#45;&gt;Node22</title>
<path fill="none" stroke="midnightblue" d="M280.62,-206.73C301.68,-221.76 336.3,-243.96 370,-254.5 426.86,-272.28 494.35,-277.04 544.79,-277.63"/>
<polygon fill="midnightblue" stroke="midnightblue" points="544.95,-281.13 554.97,-277.69 544.99,-274.13 544.95,-281.13"/>
</g>
<!-- Node32 -->
<g id="node32" class="node">
<title>Node32</title>
<g id="a_node32"><a xlink:href="classplant_1_1Plant.html#a1157bce8a29e6a26f2e5d4cc30909aea" target="_top" xlink:title="Set size (diameter and all associated variables) from x.">
<polygon fill="none" stroke="black" points="385.5,-176 385.5,-195 503.5,-195 503.5,-176 385.5,-176"/>
<text text-anchor="middle" x="444.5" y="-183" font-family="Helvetica,sans-Serif" font-size="10.00">plant::Plant::set_size</text>
</a>
</g>
</g>
<!-- Node31&#45;&gt;Node32 -->
<g id="edge36" class="edge">
<title>Node31&#45;&gt;Node32</title>
<path fill="none" stroke="midnightblue" d="M334.14,-189.09C347.75,-188.64 361.92,-188.17 375.36,-187.73"/>
<polygon fill="midnightblue" stroke="midnightblue" points="375.59,-191.23 385.47,-187.4 375.36,-184.23 375.59,-191.23"/>
</g>
<!-- Node34 -->
<g id="node34" class="node">
<title>Node34</title>
<g id="a_node34"><a xlink:href="classpfate_1_1env_1_1ClimateStream.html#a259d5b50ebd9d8e801ee6cd079f6fb75" target="_top" xlink:title=" ">
<polygon fill="none" stroke="black" points="371.5,-0.5 371.5,-30.5 517.5,-30.5 517.5,-0.5 371.5,-0.5"/>
<text text-anchor="start" x="379.5" y="-18.5" font-family="Helvetica,sans-Serif" font-size="10.00">pfate::env::ClimateStream</text>
<text text-anchor="middle" x="444.5" y="-7.5" font-family="Helvetica,sans-Serif" font-size="10.00">::updateClimate</text>
</a>
</g>
</g>
<!-- Node33&#45;&gt;Node34 -->
<g id="edge38" class="edge">
<title>Node33&#45;&gt;Node34</title>
<path fill="none" stroke="midnightblue" d="M334.14,-15.5C343.09,-15.5 352.28,-15.5 361.34,-15.5"/>
<polygon fill="midnightblue" stroke="midnightblue" points="361.5,-19 371.5,-15.5 361.5,-12 361.5,-19"/>
</g>
<!-- Node35 -->
<g id="node35" class="node">
<title>Node35</title>
<g id="a_node35"><a xlink:href="classpfate_1_1env_1_1Climate.html#a9584e9aa19e54c0df7492e9d1efe9b33" target="_top" xlink:title="Update acclim forcing as exp&#45;weighted average of current and new value.">
<polygon fill="none" stroke="black" points="563.5,-0.5 563.5,-30.5 677.5,-30.5 677.5,-0.5 563.5,-0.5"/>
<text text-anchor="start" x="571.5" y="-18.5" font-family="Helvetica,sans-Serif" font-size="10.00">pfate::env::Climate</text>
<text text-anchor="middle" x="620.5" y="-7.5" font-family="Helvetica,sans-Serif" font-size="10.00">::set_forcing_acclim</text>
</a>
</g>
</g>
<!-- Node34&#45;&gt;Node35 -->
<g id="edge39" class="edge">
<title>Node34&#45;&gt;Node35</title>
<path fill="none" stroke="midnightblue" d="M517.53,-15.5C529.39,-15.5 541.63,-15.5 553.34,-15.5"/>
<polygon fill="midnightblue" stroke="midnightblue" points="553.46,-19 563.46,-15.5 553.46,-12 553.46,-19"/>
</g>
</g>
</svg>
