<?xml version="1.0" encoding="UTF-8" standalone="no"?>
<!DOCTYPE svg PUBLIC "-//W3C//DTD SVG 1.1//EN"
 "http://www.w3.org/Graphics/SVG/1.1/DTD/svg11.dtd">
<!-- Generated by graphviz version 2.43.0 (0)
 -->
<!-- Title: pfate::PSPM_Environment Pages: 1 -->
<svg width="394pt" height="174pt"
 viewBox="0.00 0.00 393.50 174.00" xmlns="http://www.w3.org/2000/svg" xmlns:xlink="http://www.w3.org/1999/xlink">
<g id="graph0" class="graph" transform="scale(1 1) rotate(0) translate(4 170)">
<title>pfate::PSPM_Environment</title>
<!-- Node1 -->
<g id="node1" class="node">
<title>Node1</title>
<g id="a_node1"><a xlink:title="This class provides a common interface to different components of the environment.">
<polygon fill="#bfbfbf" stroke="black" points="175,-0.5 175,-19.5 318,-19.5 318,-0.5 175,-0.5"/>
<text text-anchor="middle" x="246.5" y="-7.5" font-family="Helvetica,sans-Serif" font-size="10.00">pfate::PSPM_Environment</text>
</a>
</g>
</g>
<!-- Node2 -->
<g id="node2" class="node">
<title>Node2</title>
<g id="a_node2"><a xlink:href="classpfate_1_1env_1_1LightEnvironment.html" target="_top" xlink:title=" ">
<polygon fill="none" stroke="black" points="92.5,-57.5 92.5,-76.5 250.5,-76.5 250.5,-57.5 92.5,-57.5"/>
<text text-anchor="middle" x="171.5" y="-64.5" font-family="Helvetica,sans-Serif" font-size="10.00">pfate::env::LightEnvironment</text>
</a>
</g>
</g>
<!-- Node2&#45;&gt;Node1 -->
<g id="edge1" class="edge">
<title>Node2&#45;&gt;Node1</title>
<path fill="none" stroke="midnightblue" d="M191.56,-51.29C205.31,-41.21 223.07,-28.19 234.62,-19.71"/>
<polygon fill="midnightblue" stroke="midnightblue" points="189.21,-48.67 183.22,-57.41 193.35,-54.31 189.21,-48.67"/>
</g>
<!-- Node3 -->
<g id="node3" class="node">
<title>Node3</title>
<g id="a_node3"><a xlink:title=" ">
<polygon fill="none" stroke="#bfbfbf" points="0,-146.5 0,-165.5 103,-165.5 103,-146.5 0,-146.5"/>
<text text-anchor="middle" x="51.5" y="-153.5" font-family="Helvetica,sans-Serif" font-size="10.00">EnvironmentBase</text>
</a>
</g>
</g>
<!-- Node3&#45;&gt;Node2 -->
<g id="edge2" class="edge">
<title>Node3&#45;&gt;Node2</title>
<path fill="none" stroke="midnightblue" d="M71.57,-140.45C96.73,-122.21 139.06,-91.52 159.6,-76.62"/>
<polygon fill="midnightblue" stroke="midnightblue" points="69.49,-137.64 63.44,-146.34 73.6,-143.3 69.49,-137.64"/>
</g>
<!-- Node4 -->
<g id="node4" class="node">
<title>Node4</title>
<g id="a_node4"><a xlink:title=" ">
<polygon fill="none" stroke="#bfbfbf" points="121.5,-146.5 121.5,-165.5 245.5,-165.5 245.5,-146.5 121.5,-146.5"/>
<text text-anchor="middle" x="183.5" y="-153.5" font-family="Helvetica,sans-Serif" font-size="10.00">std::vector&lt; double &gt;</text>
</a>
</g>
</g>
<!-- Node4&#45;&gt;Node2 -->
<g id="edge3" class="edge">
<title>Node4&#45;&gt;Node2</title>
<path fill="none" stroke="#9a32cd" stroke-dasharray="5,2" d="M180.91,-136.19C178.36,-117.74 174.59,-90.41 172.69,-76.62"/>
<polygon fill="#9a32cd" stroke="#9a32cd" points="177.47,-136.91 182.31,-146.34 184.41,-135.96 177.47,-136.91"/>
<text text-anchor="middle" x="226" y="-120" font-family="Helvetica,sans-Serif" font-size="10.00"> canopy_openness</text>
<text text-anchor="middle" x="226" y="-109" font-family="Helvetica,sans-Serif" font-size="10.00">fapar_tot</text>
<text text-anchor="middle" x="226" y="-98" font-family="Helvetica,sans-Serif" font-size="10.00">z_star</text>
</g>
<!-- Node5 -->
<g id="node5" class="node">
<title>Node5</title>
<g id="a_node5"><a xlink:href="classpfate_1_1env_1_1Climate.html" target="_top" xlink:title=" ">
<polygon fill="none" stroke="black" points="268.5,-57.5 268.5,-76.5 378.5,-76.5 378.5,-57.5 268.5,-57.5"/>
<text text-anchor="middle" x="323.5" y="-64.5" font-family="Helvetica,sans-Serif" font-size="10.00">pfate::env::Climate</text>
</a>
</g>
</g>
<!-- Node5&#45;&gt;Node1 -->
<g id="edge4" class="edge">
<title>Node5&#45;&gt;Node1</title>
<path fill="none" stroke="midnightblue" d="M303.25,-51.54C289,-41.35 270.39,-28.07 258.45,-19.53"/>
<polygon fill="midnightblue" stroke="midnightblue" points="301.3,-54.44 311.47,-57.41 305.37,-48.75 301.3,-54.44"/>
</g>
<!-- Node6 -->
<g id="node6" class="node">
<title>Node6</title>
<g id="a_node6"><a xlink:href="classpfate_1_1env_1_1Clim.html" target="_top" xlink:title=" ">
<polygon fill="none" stroke="black" points="276,-146.5 276,-165.5 371,-165.5 371,-146.5 276,-146.5"/>
<text text-anchor="middle" x="323.5" y="-153.5" font-family="Helvetica,sans-Serif" font-size="10.00">pfate::env::Clim</text>
</a>
</g>
</g>
<!-- Node6&#45;&gt;Node5 -->
<g id="edge5" class="edge">
<title>Node6&#45;&gt;Node5</title>
<path fill="none" stroke="#9a32cd" stroke-dasharray="5,2" d="M323.5,-136.19C323.5,-117.74 323.5,-90.41 323.5,-76.62"/>
<polygon fill="#9a32cd" stroke="#9a32cd" points="320,-136.34 323.5,-146.34 327,-136.34 320,-136.34"/>
<text text-anchor="middle" x="354.5" y="-114.5" font-family="Helvetica,sans-Serif" font-size="10.00"> clim_acclim</text>
<text text-anchor="middle" x="354.5" y="-103.5" font-family="Helvetica,sans-Serif" font-size="10.00">clim_inst</text>
</g>
</g>
</svg>
