<?xml version="1.0" encoding="UTF-8" standalone="no"?>
<!DOCTYPE svg PUBLIC "-//W3C//DTD SVG 1.1//EN"
 "http://www.w3.org/Graphics/SVG/1.1/DTD/svg11.dtd">
<!-- Generated by graphviz version 2.43.0 (0)
 -->
<!-- Title: pfate::Patch::Patch Pages: 1 -->
<svg width="685pt" height="226pt"
 viewBox="0.00 0.00 685.00 226.18" xmlns="http://www.w3.org/2000/svg" xmlns:xlink="http://www.w3.org/1999/xlink">
<g id="graph0" class="graph" transform="scale(1 1) rotate(0) translate(4 222.18)">
<title>pfate::Patch::Patch</title>
<!-- Node1 -->
<g id="node1" class="node">
<title>Node1</title>
<g id="a_node1"><a xlink:title=" ">
<polygon fill="#bfbfbf" stroke="black" points="0,-98.5 0,-117.5 108,-117.5 108,-98.5 0,-98.5"/>
<text text-anchor="middle" x="54" y="-105.5" font-family="Helvetica,sans-Serif" font-size="10.00">pfate::Patch::Patch</text>
</a>
</g>
</g>
<!-- Node2 -->
<g id="node2" class="node">
<title>Node2</title>
<g id="a_node2"><a xlink:href="classio_1_1Initializer.html#a098a8511a950a4449925c8315af36bdb" target="_top" xlink:title=" ">
<polygon fill="none" stroke="black" points="308,-150.5 308,-169.5 407,-169.5 407,-150.5 308,-150.5"/>
<text text-anchor="middle" x="357.5" y="-157.5" font-family="Helvetica,sans-Serif" font-size="10.00">io::Initializer::get</text>
</a>
</g>
</g>
<!-- Node1&#45;&gt;Node2 -->
<g id="edge1" class="edge">
<title>Node1&#45;&gt;Node2</title>
<path fill="none" stroke="midnightblue" d="M60.28,-117.78C72.07,-138.41 102.76,-186 144,-204 196.14,-226.76 216.74,-217.52 272,-204 294.56,-198.48 317.8,-185.77 334.18,-175.43"/>
<polygon fill="midnightblue" stroke="midnightblue" points="336.52,-178.08 342.98,-169.68 332.69,-172.22 336.52,-178.08"/>
</g>
<!-- Node5 -->
<g id="node5" class="node">
<title>Node5</title>
<g id="a_node5"><a xlink:href="classio_1_1Initializer.html#a92f49c1ad4e16a85f3f0f12201cb9707" target="_top" xlink:title=" ">
<polygon fill="none" stroke="black" points="308,-82 308,-112 407,-112 407,-82 308,-82"/>
<text text-anchor="start" x="316" y="-100" font-family="Helvetica,sans-Serif" font-size="10.00">io::Initializer::get</text>
<text text-anchor="middle" x="357.5" y="-89" font-family="Helvetica,sans-Serif" font-size="10.00">_vector</text>
</a>
</g>
</g>
<!-- Node1&#45;&gt;Node5 -->
<g id="edge4" class="edge">
<title>Node1&#45;&gt;Node5</title>
<path fill="none" stroke="midnightblue" d="M108.21,-106.06C161.25,-104.12 242.53,-101.16 297.52,-99.15"/>
<polygon fill="midnightblue" stroke="midnightblue" points="297.94,-102.64 307.81,-98.78 297.69,-95.64 297.94,-102.64"/>
</g>
<!-- Node6 -->
<g id="node6" class="node">
<title>Node6</title>
<g id="a_node6"><a xlink:href="classio_1_1Initializer.html#abbf31e66329bd03f5d968988c5aa1213" target="_top" xlink:title=" ">
<polygon fill="none" stroke="black" points="308,-33 308,-63 407,-63 407,-33 308,-33"/>
<text text-anchor="start" x="316" y="-51" font-family="Helvetica,sans-Serif" font-size="10.00">io::Initializer::get</text>
<text text-anchor="middle" x="357.5" y="-40" font-family="Helvetica,sans-Serif" font-size="10.00">_verbatim</text>
</a>
</g>
</g>
<!-- Node1&#45;&gt;Node6 -->
<g id="edge6" class="edge">
<title>Node1&#45;&gt;Node6</title>
<path fill="none" stroke="midnightblue" d="M102.77,-98.49C155.72,-87.96 241.12,-70.96 298.02,-59.64"/>
<polygon fill="midnightblue" stroke="midnightblue" points="298.83,-63.05 307.95,-57.66 297.46,-56.18 298.83,-63.05"/>
</g>
<!-- Node7 -->
<g id="node7" class="node">
<title>Node7</title>
<g id="a_node7"><a xlink:href="classplant_1_1PlantTraits.html#a752ff5e88101f3002440c3cd8879cf31" target="_top" xlink:title=" ">
<polygon fill="none" stroke="black" points="158.5,-164 158.5,-194 257.5,-194 257.5,-164 158.5,-164"/>
<text text-anchor="start" x="166.5" y="-182" font-family="Helvetica,sans-Serif" font-size="10.00">plant::PlantTraits</text>
<text text-anchor="middle" x="208" y="-171" font-family="Helvetica,sans-Serif" font-size="10.00">::init</text>
</a>
</g>
</g>
<!-- Node1&#45;&gt;Node7 -->
<g id="edge8" class="edge">
<title>Node1&#45;&gt;Node7</title>
<path fill="none" stroke="midnightblue" d="M71.76,-117.64C89.42,-127.61 118.21,-143.33 144,-155 147.84,-156.74 151.84,-158.46 155.89,-160.14"/>
<polygon fill="midnightblue" stroke="midnightblue" points="154.78,-163.46 165.36,-163.96 157.4,-156.97 154.78,-163.46"/>
</g>
<!-- Node8 -->
<g id="node8" class="node">
<title>Node8</title>
<g id="a_node8"><a xlink:href="classplant_1_1PlantParameters.html#a6f4ee512f917665608504a6a893d92f3" target="_top" xlink:title=" ">
<polygon fill="none" stroke="black" points="144,-115 144,-145 272,-145 272,-115 144,-115"/>
<text text-anchor="start" x="152" y="-133" font-family="Helvetica,sans-Serif" font-size="10.00">plant::PlantParameters</text>
<text text-anchor="middle" x="208" y="-122" font-family="Helvetica,sans-Serif" font-size="10.00">::init</text>
</a>
</g>
</g>
<!-- Node1&#45;&gt;Node8 -->
<g id="edge10" class="edge">
<title>Node1&#45;&gt;Node8</title>
<path fill="none" stroke="midnightblue" d="M108.16,-115.69C116.47,-116.9 125.18,-118.16 133.84,-119.41"/>
<polygon fill="midnightblue" stroke="midnightblue" points="133.55,-122.91 143.95,-120.87 134.56,-115.98 133.55,-122.91"/>
</g>
<!-- Node9 -->
<g id="node9" class="node">
<title>Node9</title>
<g id="a_node9"><a xlink:href="classio_1_1Initializer.html#a7c3261fb7e141a0d06d9b0c41de9af66" target="_top" xlink:title=" ">
<polygon fill="none" stroke="black" points="153,-0.5 153,-19.5 263,-19.5 263,-0.5 153,-0.5"/>
<text text-anchor="middle" x="208" y="-7.5" font-family="Helvetica,sans-Serif" font-size="10.00">io::Initializer::parse</text>
</a>
</g>
</g>
<!-- Node1&#45;&gt;Node9 -->
<g id="edge12" class="edge">
<title>Node1&#45;&gt;Node9</title>
<path fill="none" stroke="midnightblue" d="M64.58,-98.16C80.07,-82.72 112.08,-52.65 144,-34 150.96,-29.93 158.74,-26.31 166.39,-23.2"/>
<polygon fill="midnightblue" stroke="midnightblue" points="167.87,-26.38 175.95,-19.53 165.36,-19.85 167.87,-26.38"/>
</g>
<!-- Node3 -->
<g id="node3" class="node">
<title>Node3</title>
<g id="a_node3"><a xlink:href="classio_1_1Initializer.html#a06fe79d6d19f76180836e03e3ad6b7fb" target="_top" xlink:title=" ">
<polygon fill="none" stroke="black" points="443,-82 443,-112 542,-112 542,-82 443,-82"/>
<text text-anchor="start" x="451" y="-100" font-family="Helvetica,sans-Serif" font-size="10.00">io::Initializer::get</text>
<text text-anchor="middle" x="492.5" y="-89" font-family="Helvetica,sans-Serif" font-size="10.00">_value</text>
</a>
</g>
</g>
<!-- Node2&#45;&gt;Node3 -->
<g id="edge2" class="edge">
<title>Node2&#45;&gt;Node3</title>
<path fill="none" stroke="midnightblue" d="M378.7,-150.43C397.69,-141.44 426.68,-127.71 450.51,-116.42"/>
<polygon fill="midnightblue" stroke="midnightblue" points="452.16,-119.51 459.7,-112.07 449.16,-113.18 452.16,-119.51"/>
</g>
<!-- Node4 -->
<g id="node4" class="node">
<title>Node4</title>
<g id="a_node4"><a xlink:href="classio_1_1Initializer.html#a310526fc5b0c2c257bee66d6f48fa4ae" target="_top" xlink:title=" ">
<polygon fill="none" stroke="black" points="578,-82 578,-112 677,-112 677,-82 578,-82"/>
<text text-anchor="start" x="586" y="-100" font-family="Helvetica,sans-Serif" font-size="10.00">io::Initializer::get</text>
<text text-anchor="middle" x="627.5" y="-89" font-family="Helvetica,sans-Serif" font-size="10.00">_section</text>
</a>
</g>
</g>
<!-- Node3&#45;&gt;Node4 -->
<g id="edge3" class="edge">
<title>Node3&#45;&gt;Node4</title>
<path fill="none" stroke="midnightblue" d="M542.27,-97C550.49,-97 559.1,-97 567.55,-97"/>
<polygon fill="midnightblue" stroke="midnightblue" points="567.74,-100.5 577.74,-97 567.74,-93.5 567.74,-100.5"/>
</g>
<!-- Node5&#45;&gt;Node3 -->
<g id="edge5" class="edge">
<title>Node5&#45;&gt;Node3</title>
<path fill="none" stroke="midnightblue" d="M407.27,-97C415.49,-97 424.1,-97 432.55,-97"/>
<polygon fill="midnightblue" stroke="midnightblue" points="432.74,-100.5 442.74,-97 432.74,-93.5 432.74,-100.5"/>
</g>
<!-- Node6&#45;&gt;Node3 -->
<g id="edge7" class="edge">
<title>Node6&#45;&gt;Node3</title>
<path fill="none" stroke="midnightblue" d="M399.49,-63.1C412.51,-67.9 427.07,-73.26 440.69,-78.28"/>
<polygon fill="midnightblue" stroke="midnightblue" points="439.82,-81.69 450.42,-81.86 442.24,-75.12 439.82,-81.69"/>
</g>
<!-- Node7&#45;&gt;Node2 -->
<g id="edge9" class="edge">
<title>Node7&#45;&gt;Node2</title>
<path fill="none" stroke="midnightblue" d="M257.71,-172.73C270.54,-171.07 284.53,-169.27 297.84,-167.56"/>
<polygon fill="midnightblue" stroke="midnightblue" points="298.37,-171.02 307.85,-166.27 297.48,-164.07 298.37,-171.02"/>
</g>
<!-- Node8&#45;&gt;Node2 -->
<g id="edge11" class="edge">
<title>Node8&#45;&gt;Node2</title>
<path fill="none" stroke="midnightblue" d="M272.41,-142.9C281.49,-144.74 290.78,-146.63 299.71,-148.45"/>
<polygon fill="midnightblue" stroke="midnightblue" points="299.13,-151.9 309.63,-150.47 300.53,-145.04 299.13,-151.9"/>
</g>
</g>
</svg>
