<?xml version="1.0" encoding="UTF-8" standalone="no"?>
<!DOCTYPE svg PUBLIC "-//W3C//DTD SVG 1.1//EN"
 "http://www.w3.org/Graphics/SVG/1.1/DTD/svg11.dtd">
<!-- Generated by graphviz version 2.43.0 (0)
 -->
<!-- Title: pfate::Patch::update_climate Pages: 1 -->
<svg width="455pt" height="39pt"
 viewBox="0.00 0.00 455.00 39.00" xmlns="http://www.w3.org/2000/svg" xmlns:xlink="http://www.w3.org/1999/xlink">
<g id="graph0" class="graph" transform="scale(1 1) rotate(0) translate(4 35)">
<title>pfate::Patch::update_climate</title>
<!-- Node1 -->
<g id="node1" class="node">
<title>Node1</title>
<g id="a_node1"><a xlink:title=" ">
<polygon fill="#bfbfbf" stroke="black" points="0,-0.5 0,-30.5 115,-30.5 115,-0.5 0,-0.5"/>
<text text-anchor="start" x="8" y="-18.5" font-family="Helvetica,sans-Serif" font-size="10.00">pfate::Patch::update</text>
<text text-anchor="middle" x="57.5" y="-7.5" font-family="Helvetica,sans-Serif" font-size="10.00">_climate</text>
</a>
</g>
</g>
<!-- Node2 -->
<g id="node2" class="node">
<title>Node2</title>
<g id="a_node2"><a xlink:href="classpfate_1_1env_1_1ClimateStream.html#a259d5b50ebd9d8e801ee6cd079f6fb75" target="_top" xlink:title=" ">
<polygon fill="none" stroke="black" points="151,-0.5 151,-30.5 297,-30.5 297,-0.5 151,-0.5"/>
<text text-anchor="start" x="159" y="-18.5" font-family="Helvetica,sans-Serif" font-size="10.00">pfate::env::ClimateStream</text>
<text text-anchor="middle" x="224" y="-7.5" font-family="Helvetica,sans-Serif" font-size="10.00">::updateClimate</text>
</a>
</g>
</g>
<!-- Node1&#45;&gt;Node2 -->
<g id="edge1" class="edge">
<title>Node1&#45;&gt;Node2</title>
<path fill="none" stroke="midnightblue" d="M115.11,-15.5C123.39,-15.5 132.06,-15.5 140.73,-15.5"/>
<polygon fill="midnightblue" stroke="midnightblue" points="140.89,-19 150.89,-15.5 140.89,-12 140.89,-19"/>
</g>
<!-- Node3 -->
<g id="node3" class="node">
<title>Node3</title>
<g id="a_node3"><a xlink:href="classpfate_1_1env_1_1Climate.html#a9584e9aa19e54c0df7492e9d1efe9b33" target="_top" xlink:title="Update acclim forcing as exp&#45;weighted average of current and new value.">
<polygon fill="none" stroke="black" points="333,-0.5 333,-30.5 447,-30.5 447,-0.5 333,-0.5"/>
<text text-anchor="start" x="341" y="-18.5" font-family="Helvetica,sans-Serif" font-size="10.00">pfate::env::Climate</text>
<text text-anchor="middle" x="390" y="-7.5" font-family="Helvetica,sans-Serif" font-size="10.00">::set_forcing_acclim</text>
</a>
</g>
</g>
<!-- Node2&#45;&gt;Node3 -->
<g id="edge2" class="edge">
<title>Node2&#45;&gt;Node3</title>
<path fill="none" stroke="midnightblue" d="M297.41,-15.5C305.83,-15.5 314.38,-15.5 322.71,-15.5"/>
<polygon fill="midnightblue" stroke="midnightblue" points="322.74,-19 332.74,-15.5 322.74,-12 322.74,-19"/>
</g>
</g>
</svg>
