<?xml version="1.0" encoding="UTF-8" standalone="no"?>
<!DOCTYPE svg PUBLIC "-//W3C//DTD SVG 1.1//EN"
 "http://www.w3.org/Graphics/SVG/1.1/DTD/svg11.dtd">
<!-- Generated by graphviz version 2.43.0 (0)
 -->
<!-- Title: pfate::LifeHistoryOptimizer Pages: 1 -->
<svg width="1447pt" height="453pt"
 viewBox="0.00 0.00 1447.00 452.50" xmlns="http://www.w3.org/2000/svg" xmlns:xlink="http://www.w3.org/1999/xlink">
<g id="graph0" class="graph" transform="scale(1 1) rotate(0) translate(4 448.5)">
<title>pfate::LifeHistoryOptimizer</title>
<!-- Node1 -->
<g id="node1" class="node">
<title>Node1</title>
<g id="a_node1"><a xlink:title=" ">
<polygon fill="#bfbfbf" stroke="black" points="1290,-256 1290,-275 1439,-275 1439,-256 1290,-256"/>
<text text-anchor="middle" x="1364.5" y="-263" font-family="Helvetica,sans-Serif" font-size="10.00">pfate::LifeHistoryOptimizer</text>
</a>
</g>
</g>
<!-- Node2 -->
<g id="node2" class="node">
<title>Node2</title>
<g id="a_node2"><a xlink:href="classpfate_1_1env_1_1ClimateStream.html" target="_top" xlink:title=" ">
<polygon fill="none" stroke="black" points="682,-102 682,-121 828,-121 828,-102 682,-102"/>
<text text-anchor="middle" x="755" y="-109" font-family="Helvetica,sans-Serif" font-size="10.00">pfate::env::ClimateStream</text>
</a>
</g>
</g>
<!-- Node2&#45;&gt;Node1 -->
<g id="edge1" class="edge">
<title>Node2&#45;&gt;Node1</title>
<path fill="none" stroke="#9a32cd" stroke-dasharray="5,2" d="M838.5,-115.04C904.47,-119.1 999,-127.66 1080,-145.5 1155.22,-162.07 1173.37,-170.77 1244,-201.5 1282.41,-218.21 1325.18,-242.63 1347.68,-255.95"/>
<polygon fill="#9a32cd" stroke="#9a32cd" points="838.35,-111.53 828.16,-114.43 837.94,-118.52 838.35,-111.53"/>
<text text-anchor="middle" x="1051" y="-148.5" font-family="Helvetica,sans-Serif" font-size="10.00"> c_stream</text>
</g>
<!-- Node3 -->
<g id="node3" class="node">
<title>Node3</title>
<g id="a_node3"><a xlink:title=" ">
<polygon fill="none" stroke="#bfbfbf" points="354.5,-133 354.5,-152 419.5,-152 419.5,-133 354.5,-133"/>
<text text-anchor="middle" x="387" y="-140" font-family="Helvetica,sans-Serif" font-size="10.00">std::string</text>
</a>
</g>
</g>
<!-- Node3&#45;&gt;Node2 -->
<g id="edge2" class="edge">
<title>Node3&#45;&gt;Node2</title>
<path fill="none" stroke="#9a32cd" stroke-dasharray="5,2" d="M429.6,-138.98C490.94,-133.78 606.49,-123.99 681.83,-117.61"/>
<polygon fill="#9a32cd" stroke="#9a32cd" points="429.19,-135.5 419.52,-139.83 429.78,-142.47 429.19,-135.5"/>
<text text-anchor="middle" x="487.5" y="-161.5" font-family="Helvetica,sans-Serif" font-size="10.00"> a_metFile</text>
<text text-anchor="middle" x="487.5" y="-150.5" font-family="Helvetica,sans-Serif" font-size="10.00">co2File</text>
<text text-anchor="middle" x="487.5" y="-139.5" font-family="Helvetica,sans-Serif" font-size="10.00">i_metFile</text>
</g>
<!-- Node16 -->
<g id="node16" class="node">
<title>Node16</title>
<g id="a_node16"><a xlink:href="classplant_1_1PlantTraits.html" target="_top" xlink:title=" ">
<polygon fill="none" stroke="black" points="875.5,-293 875.5,-312 974.5,-312 974.5,-293 875.5,-293"/>
<text text-anchor="middle" x="925" y="-300" font-family="Helvetica,sans-Serif" font-size="10.00">plant::PlantTraits</text>
</a>
</g>
</g>
<!-- Node3&#45;&gt;Node16 -->
<g id="edge17" class="edge">
<title>Node3&#45;&gt;Node16</title>
<path fill="none" stroke="#9a32cd" stroke-dasharray="5,2" d="M400.71,-160.26C423.11,-189.89 472.79,-248.55 531,-272.5 647.12,-320.28 798.69,-314.98 875.23,-308.14"/>
<polygon fill="#9a32cd" stroke="#9a32cd" points="403.41,-158.02 394.65,-152.06 397.78,-162.18 403.41,-158.02"/>
<text text-anchor="middle" x="597.5" y="-309.5" font-family="Helvetica,sans-Serif" font-size="10.00"> species_name</text>
</g>
<!-- Node17 -->
<g id="node17" class="node">
<title>Node17</title>
<g id="a_node17"><a xlink:title=" ">
<polygon fill="none" stroke="#bfbfbf" points="539.5,-222 539.5,-263 655.5,-263 655.5,-222 539.5,-222"/>
<text text-anchor="start" x="547.5" y="-251" font-family="Helvetica,sans-Serif" font-size="10.00">std::unordered_map</text>
<text text-anchor="start" x="547.5" y="-240" font-family="Helvetica,sans-Serif" font-size="10.00">&lt; std::string, double</text>
<text text-anchor="middle" x="597.5" y="-229" font-family="Helvetica,sans-Serif" font-size="10.00"> PlantTraits::* &gt;</text>
</a>
</g>
</g>
<!-- Node3&#45;&gt;Node17 -->
<g id="edge19" class="edge">
<title>Node3&#45;&gt;Node17</title>
<path fill="none" stroke="#9a32cd" stroke-dasharray="5,2" d="M417.31,-156.56C452.78,-173.57 512.8,-202.36 553.51,-221.88"/>
<polygon fill="#9a32cd" stroke="#9a32cd" points="418.52,-153.26 407.99,-152.09 415.49,-159.57 418.52,-153.26"/>
<text text-anchor="middle" x="487.5" y="-204.5" font-family="Helvetica,sans-Serif" font-size="10.00"> keys</text>
</g>
<!-- Node24 -->
<g id="node24" class="node">
<title>Node24</title>
<g id="a_node24"><a xlink:title=" ">
<polygon fill="none" stroke="#bfbfbf" points="533,-50.5 533,-80.5 662,-80.5 662,-50.5 533,-50.5"/>
<text text-anchor="start" x="541" y="-68.5" font-family="Helvetica,sans-Serif" font-size="10.00">std::unordered_map</text>
<text text-anchor="middle" x="597.5" y="-57.5" font-family="Helvetica,sans-Serif" font-size="10.00">&lt; std::string, section &gt;</text>
</a>
</g>
</g>
<!-- Node3&#45;&gt;Node24 -->
<g id="edge27" class="edge">
<title>Node3&#45;&gt;Node24</title>
<path fill="none" stroke="#9a32cd" stroke-dasharray="5,2" d="M413.35,-127.94C427.39,-120.28 445.32,-111.13 462,-104.5 485.5,-95.16 512.1,-86.97 535.41,-80.54"/>
<polygon fill="#9a32cd" stroke="#9a32cd" points="411.37,-125.04 404.33,-132.96 414.77,-131.16 411.37,-125.04"/>
<text text-anchor="middle" x="487.5" y="-107.5" font-family="Helvetica,sans-Serif" font-size="10.00"> keys</text>
</g>
<!-- Node4 -->
<g id="node4" class="node">
<title>Node4</title>
<g id="a_node4"><a xlink:title=" ">
<polygon fill="none" stroke="#bfbfbf" points="129,-127.5 129,-157.5 233,-157.5 233,-127.5 129,-127.5"/>
<text text-anchor="start" x="137" y="-145.5" font-family="Helvetica,sans-Serif" font-size="10.00">std::basic_string&lt;</text>
<text text-anchor="middle" x="181" y="-134.5" font-family="Helvetica,sans-Serif" font-size="10.00"> Char &gt;</text>
</a>
</g>
</g>
<!-- Node4&#45;&gt;Node3 -->
<g id="edge3" class="edge">
<title>Node4&#45;&gt;Node3</title>
<path fill="none" stroke="midnightblue" d="M243.3,-142.5C279.94,-142.5 324.94,-142.5 354.5,-142.5"/>
<polygon fill="midnightblue" stroke="midnightblue" points="243.21,-139 233.21,-142.5 243.21,-146 243.21,-139"/>
</g>
<!-- Node5 -->
<g id="node5" class="node">
<title>Node5</title>
<g id="a_node5"><a xlink:href="classpfate_1_1ErgodicEnvironment.html" target="_top" xlink:title=" ">
<polygon fill="none" stroke="black" points="1098,-362 1098,-381 1244,-381 1244,-362 1098,-362"/>
<text text-anchor="middle" x="1171" y="-369" font-family="Helvetica,sans-Serif" font-size="10.00">pfate::ErgodicEnvironment</text>
</a>
</g>
</g>
<!-- Node5&#45;&gt;Node1 -->
<g id="edge4" class="edge">
<title>Node5&#45;&gt;Node1</title>
<path fill="none" stroke="#9a32cd" stroke-dasharray="5,2" d="M1239.78,-359.26C1250.89,-355.94 1262.02,-351.76 1272,-346.5 1307.66,-327.71 1340.79,-292.2 1355.5,-275.13"/>
<polygon fill="#9a32cd" stroke="#9a32cd" points="1238.76,-355.91 1230.06,-361.96 1240.63,-362.66 1238.76,-355.91"/>
<text text-anchor="middle" x="1267" y="-352.5" font-family="Helvetica,sans-Serif" font-size="10.00"> C</text>
</g>
<!-- Node6 -->
<g id="node6" class="node">
<title>Node6</title>
<g id="a_node6"><a xlink:href="classpfate_1_1env_1_1LightEnvironment.html" target="_top" xlink:title=" ">
<polygon fill="none" stroke="black" points="846,-377 846,-396 1004,-396 1004,-377 846,-377"/>
<text text-anchor="middle" x="925" y="-384" font-family="Helvetica,sans-Serif" font-size="10.00">pfate::env::LightEnvironment</text>
</a>
</g>
</g>
<!-- Node6&#45;&gt;Node5 -->
<g id="edge5" class="edge">
<title>Node6&#45;&gt;Node5</title>
<path fill="none" stroke="midnightblue" d="M1014.54,-381.06C1041.83,-379.38 1071.54,-377.55 1097.61,-375.95"/>
<polygon fill="midnightblue" stroke="midnightblue" points="1013.98,-377.58 1004.21,-381.69 1014.41,-384.57 1013.98,-377.58"/>
</g>
<!-- Node7 -->
<g id="node7" class="node">
<title>Node7</title>
<g id="a_node7"><a xlink:title=" ">
<polygon fill="none" stroke="#bfbfbf" points="546,-425 546,-444 649,-444 649,-425 546,-425"/>
<text text-anchor="middle" x="597.5" y="-432" font-family="Helvetica,sans-Serif" font-size="10.00">EnvironmentBase</text>
</a>
</g>
</g>
<!-- Node7&#45;&gt;Node6 -->
<g id="edge6" class="edge">
<title>Node7&#45;&gt;Node6</title>
<path fill="none" stroke="midnightblue" d="M659.4,-435.39C706,-434.96 771.63,-431.96 828,-420.5 854.34,-415.14 883.24,-404.16 902.38,-396.12"/>
<polygon fill="midnightblue" stroke="midnightblue" points="659.15,-431.89 649.17,-435.44 659.19,-438.89 659.15,-431.89"/>
</g>
<!-- Node8 -->
<g id="node8" class="node">
<title>Node8</title>
<g id="a_node8"><a xlink:title=" ">
<polygon fill="none" stroke="#bfbfbf" points="535.5,-377 535.5,-396 659.5,-396 659.5,-377 535.5,-377"/>
<text text-anchor="middle" x="597.5" y="-384" font-family="Helvetica,sans-Serif" font-size="10.00">std::vector&lt; double &gt;</text>
</a>
</g>
</g>
<!-- Node8&#45;&gt;Node6 -->
<g id="edge7" class="edge">
<title>Node8&#45;&gt;Node6</title>
<path fill="none" stroke="#9a32cd" stroke-dasharray="5,2" d="M669.87,-386.5C721.85,-386.5 792.25,-386.5 845.77,-386.5"/>
<polygon fill="#9a32cd" stroke="#9a32cd" points="669.72,-383 659.72,-386.5 669.72,-390 669.72,-383"/>
<text text-anchor="middle" x="755" y="-411.5" font-family="Helvetica,sans-Serif" font-size="10.00"> canopy_openness</text>
<text text-anchor="middle" x="755" y="-400.5" font-family="Helvetica,sans-Serif" font-size="10.00">fapar_tot</text>
<text text-anchor="middle" x="755" y="-389.5" font-family="Helvetica,sans-Serif" font-size="10.00">z_star</text>
</g>
<!-- Node9 -->
<g id="node9" class="node">
<title>Node9</title>
<g id="a_node9"><a xlink:href="classpfate_1_1env_1_1Climate.html" target="_top" xlink:title=" ">
<polygon fill="none" stroke="black" points="870,-337 870,-356 980,-356 980,-337 870,-337"/>
<text text-anchor="middle" x="925" y="-344" font-family="Helvetica,sans-Serif" font-size="10.00">pfate::env::Climate</text>
</a>
</g>
</g>
<!-- Node9&#45;&gt;Node5 -->
<g id="edge8" class="edge">
<title>Node9&#45;&gt;Node5</title>
<path fill="none" stroke="midnightblue" d="M990.17,-353.08C1023.28,-356.47 1063.77,-360.62 1097.94,-364.12"/>
<polygon fill="midnightblue" stroke="midnightblue" points="990.46,-349.59 980.15,-352.05 989.74,-356.55 990.46,-349.59"/>
</g>
<!-- Node10 -->
<g id="node10" class="node">
<title>Node10</title>
<g id="a_node10"><a xlink:href="classpfate_1_1env_1_1Clim.html" target="_top" xlink:title=" ">
<polygon fill="none" stroke="black" points="550,-332 550,-351 645,-351 645,-332 550,-332"/>
<text text-anchor="middle" x="597.5" y="-339" font-family="Helvetica,sans-Serif" font-size="10.00">pfate::env::Clim</text>
</a>
</g>
</g>
<!-- Node10&#45;&gt;Node9 -->
<g id="edge9" class="edge">
<title>Node10&#45;&gt;Node9</title>
<path fill="none" stroke="#9a32cd" stroke-dasharray="5,2" d="M655.26,-342.37C715.64,-343.3 810.49,-344.76 869.86,-345.67"/>
<polygon fill="#9a32cd" stroke="#9a32cd" points="655.19,-338.87 645.14,-342.22 655.08,-345.87 655.19,-338.87"/>
<text text-anchor="middle" x="755" y="-358.5" font-family="Helvetica,sans-Serif" font-size="10.00"> clim_acclim</text>
<text text-anchor="middle" x="755" y="-347.5" font-family="Helvetica,sans-Serif" font-size="10.00">clim_inst</text>
</g>
<!-- Node11 -->
<g id="node11" class="node">
<title>Node11</title>
<g id="a_node11"><a xlink:href="classplant_1_1Plant.html" target="_top" xlink:title="The class for an individual plant.">
<polygon fill="none" stroke="black" points="1135,-211 1135,-230 1207,-230 1207,-211 1135,-211"/>
<text text-anchor="middle" x="1171" y="-218" font-family="Helvetica,sans-Serif" font-size="10.00">plant::Plant</text>
</a>
</g>
</g>
<!-- Node11&#45;&gt;Node1 -->
<g id="edge10" class="edge">
<title>Node11&#45;&gt;Node1</title>
<path fill="none" stroke="#9a32cd" stroke-dasharray="5,2" d="M1217.14,-231.11C1249.23,-238.65 1291.96,-248.69 1322.96,-255.97"/>
<polygon fill="#9a32cd" stroke="#9a32cd" points="1217.66,-227.63 1207.12,-228.75 1216.06,-234.45 1217.66,-227.63"/>
<text text-anchor="middle" x="1267" y="-246.5" font-family="Helvetica,sans-Serif" font-size="10.00"> P</text>
</g>
<!-- Node12 -->
<g id="node12" class="node">
<title>Node12</title>
<g id="a_node12"><a xlink:href="structplant_1_1PlantAssimilationResult.html" target="_top" xlink:title="Set of all variables calculated by the assimilator.">
<polygon fill="none" stroke="black" points="531,-167.5 531,-197.5 664,-197.5 664,-167.5 531,-167.5"/>
<text text-anchor="start" x="539" y="-185.5" font-family="Helvetica,sans-Serif" font-size="10.00">plant::PlantAssimilation</text>
<text text-anchor="middle" x="597.5" y="-174.5" font-family="Helvetica,sans-Serif" font-size="10.00">Result</text>
</a>
</g>
</g>
<!-- Node12&#45;&gt;Node11 -->
<g id="edge11" class="edge">
<title>Node12&#45;&gt;Node11</title>
<path fill="none" stroke="#9a32cd" stroke-dasharray="5,2" d="M674.05,-166.2C756,-151.13 890.36,-134.04 1004,-155.5 1060.57,-166.18 1122.57,-195.65 1152.24,-210.97"/>
<polygon fill="#9a32cd" stroke="#9a32cd" points="673.25,-162.79 664.07,-168.08 674.54,-169.67 673.25,-162.79"/>
<text text-anchor="middle" x="925" y="-158.5" font-family="Helvetica,sans-Serif" font-size="10.00"> res</text>
</g>
<!-- Node15 -->
<g id="node15" class="node">
<title>Node15</title>
<g id="a_node15"><a xlink:href="classplant_1_1Assimilator.html" target="_top" xlink:title="Object for computing gross and net production, respiration, and turnover.">
<polygon fill="none" stroke="black" points="873.5,-176 873.5,-195 976.5,-195 976.5,-176 873.5,-176"/>
<text text-anchor="middle" x="925" y="-183" font-family="Helvetica,sans-Serif" font-size="10.00">plant::Assimilator</text>
</a>
</g>
</g>
<!-- Node12&#45;&gt;Node15 -->
<g id="edge15" class="edge">
<title>Node12&#45;&gt;Node15</title>
<path fill="none" stroke="#9a32cd" stroke-dasharray="5,2" d="M674.38,-183.2C735.64,-183.76 820.14,-184.54 873.42,-185.03"/>
<polygon fill="#9a32cd" stroke="#9a32cd" points="674.4,-179.7 664.37,-183.11 674.34,-186.7 674.4,-179.7"/>
<text text-anchor="middle" x="755" y="-188.5" font-family="Helvetica,sans-Serif" font-size="10.00"> plant_assim</text>
</g>
<!-- Node13 -->
<g id="node13" class="node">
<title>Node13</title>
<g id="a_node13"><a xlink:href="classplant_1_1PlantParameters.html" target="_top" xlink:title=" ">
<polygon fill="none" stroke="black" points="861,-214 861,-233 989,-233 989,-214 861,-214"/>
<text text-anchor="middle" x="925" y="-221" font-family="Helvetica,sans-Serif" font-size="10.00">plant::PlantParameters</text>
</a>
</g>
</g>
<!-- Node13&#45;&gt;Node1 -->
<g id="edge31" class="edge">
<title>Node13&#45;&gt;Node1</title>
<path fill="none" stroke="#9a32cd" stroke-dasharray="5,2" d="M990.67,-236.41C995.29,-238.19 999.78,-240.21 1004,-242.5 1013.67,-247.76 1011.81,-255.34 1022,-259.5 1068.74,-278.56 1204.35,-274.92 1289.95,-270.35"/>
<polygon fill="#9a32cd" stroke="#9a32cd" points="991.65,-233.05 981.06,-233.09 989.36,-239.66 991.65,-233.05"/>
<text text-anchor="middle" x="1171" y="-277.5" font-family="Helvetica,sans-Serif" font-size="10.00"> par0</text>
</g>
<!-- Node13&#45;&gt;Node11 -->
<g id="edge12" class="edge">
<title>Node13&#45;&gt;Node11</title>
<path fill="none" stroke="#9a32cd" stroke-dasharray="5,2" d="M999.25,-215.92C1006.93,-215.34 1014.62,-214.85 1022,-214.5 1047.75,-213.3 1054.24,-213.64 1080,-214.5 1098.16,-215.1 1118.34,-216.39 1134.98,-217.62"/>
<polygon fill="#9a32cd" stroke="#9a32cd" points="998.89,-212.44 989.2,-216.73 999.45,-219.42 998.89,-212.44"/>
<text text-anchor="middle" x="1051" y="-217.5" font-family="Helvetica,sans-Serif" font-size="10.00"> par</text>
</g>
<!-- Node14 -->
<g id="node14" class="node">
<title>Node14</title>
<g id="a_node14"><a xlink:href="classplant_1_1PlantArchitecture.html" target="_top" xlink:title="Everything about the plant&#39;s architecture, i.e. relationships among various physical dimensions.">
<polygon fill="none" stroke="black" points="859.5,-252 859.5,-271 990.5,-271 990.5,-252 859.5,-252"/>
<text text-anchor="middle" x="925" y="-259" font-family="Helvetica,sans-Serif" font-size="10.00">plant::PlantArchitecture</text>
</a>
</g>
</g>
<!-- Node14&#45;&gt;Node11 -->
<g id="edge13" class="edge">
<title>Node14&#45;&gt;Node11</title>
<path fill="none" stroke="#9a32cd" stroke-dasharray="5,2" d="M992.48,-250.33C1038.44,-242.61 1097.76,-232.64 1134.85,-226.41"/>
<polygon fill="#9a32cd" stroke="#9a32cd" points="991.87,-246.88 982.59,-251.99 993.03,-253.79 991.87,-246.88"/>
<text text-anchor="middle" x="1051" y="-248.5" font-family="Helvetica,sans-Serif" font-size="10.00"> geometry</text>
</g>
<!-- Node15&#45;&gt;Node11 -->
<g id="edge14" class="edge">
<title>Node15&#45;&gt;Node11</title>
<path fill="none" stroke="#9a32cd" stroke-dasharray="5,2" d="M986.7,-189.07C1015.15,-191.24 1049.43,-194.57 1080,-199.5 1098.22,-202.44 1118.23,-206.97 1134.75,-211.08"/>
<polygon fill="#9a32cd" stroke="#9a32cd" points="986.73,-185.56 976.5,-188.32 986.22,-192.54 986.73,-185.56"/>
<text text-anchor="middle" x="1051" y="-202.5" font-family="Helvetica,sans-Serif" font-size="10.00"> assimilator</text>
</g>
<!-- Node16&#45;&gt;Node1 -->
<g id="edge32" class="edge">
<title>Node16&#45;&gt;Node1</title>
<path fill="none" stroke="#9a32cd" stroke-dasharray="5,2" d="M984.94,-303.38C1054.05,-303.63 1171.9,-301.57 1272,-287.5 1291.58,-284.75 1313.09,-279.68 1330.33,-275.11"/>
<polygon fill="#9a32cd" stroke="#9a32cd" points="984.71,-299.88 974.69,-303.33 984.67,-306.88 984.71,-299.88"/>
<text text-anchor="middle" x="1171" y="-305.5" font-family="Helvetica,sans-Serif" font-size="10.00"> traits0</text>
</g>
<!-- Node16&#45;&gt;Node11 -->
<g id="edge16" class="edge">
<title>Node16&#45;&gt;Node11</title>
<path fill="none" stroke="#9a32cd" stroke-dasharray="5,2" d="M979.73,-290.61C1009.7,-283.3 1047.44,-272.94 1080,-260.5 1088.36,-257.31 1089.89,-255.27 1098,-251.5 1114.17,-243.99 1132.64,-236.04 1146.83,-230.08"/>
<polygon fill="#9a32cd" stroke="#9a32cd" points="978.79,-287.24 969.88,-292.97 980.42,-294.04 978.79,-287.24"/>
<text text-anchor="middle" x="1051" y="-281.5" font-family="Helvetica,sans-Serif" font-size="10.00"> traits</text>
</g>
<!-- Node17&#45;&gt;Node16 -->
<g id="edge18" class="edge">
<title>Node17&#45;&gt;Node16</title>
<path fill="none" stroke="#9a32cd" stroke-dasharray="5,2" d="M666.02,-250.38C711.94,-256.26 773.93,-265.21 828,-276.5 849.64,-281.02 873.64,-287.52 892.23,-292.89"/>
<polygon fill="#9a32cd" stroke="#9a32cd" points="666.25,-246.89 655.89,-249.1 665.37,-253.83 666.25,-246.89"/>
<text text-anchor="middle" x="755" y="-279.5" font-family="Helvetica,sans-Serif" font-size="10.00"> members</text>
</g>
<!-- Node18 -->
<g id="node18" class="node">
<title>Node18</title>
<g id="a_node18"><a xlink:href="classio_1_1Initializer.html" target="_top" xlink:title="A simple initializer that reads parameters from an ini file.">
<polygon fill="none" stroke="black" points="1132.5,-52 1132.5,-71 1209.5,-71 1209.5,-52 1132.5,-52"/>
<text text-anchor="middle" x="1171" y="-59" font-family="Helvetica,sans-Serif" font-size="10.00">io::Initializer</text>
</a>
</g>
</g>
<!-- Node18&#45;&gt;Node1 -->
<g id="edge20" class="edge">
<title>Node18&#45;&gt;Node1</title>
<path fill="none" stroke="#9a32cd" stroke-dasharray="5,2" d="M1220.07,-59.06C1237.83,-60.38 1257.2,-64.7 1272,-75.5 1335.28,-121.69 1356.7,-223.43 1362.03,-255.57"/>
<polygon fill="#9a32cd" stroke="#9a32cd" points="1220,-55.55 1209.85,-58.6 1219.69,-62.54 1220,-55.55"/>
<text text-anchor="middle" x="1267" y="-78.5" font-family="Helvetica,sans-Serif" font-size="10.00"> I</text>
</g>
<!-- Node19 -->
<g id="node19" class="node">
<title>Node19</title>
<g id="a_node19"><a xlink:title=" ">
<polygon fill="none" stroke="#bfbfbf" points="885.5,-6 885.5,-25 964.5,-25 964.5,-6 885.5,-6"/>
<text text-anchor="middle" x="925" y="-13" font-family="Helvetica,sans-Serif" font-size="10.00">std::ifstream</text>
</a>
</g>
</g>
<!-- Node19&#45;&gt;Node18 -->
<g id="edge21" class="edge">
<title>Node19&#45;&gt;Node18</title>
<path fill="none" stroke="#9a32cd" stroke-dasharray="5,2" d="M974.48,-20.41C1004.95,-23.91 1044.98,-29.28 1080,-36.5 1100.01,-40.62 1122.13,-46.74 1139.43,-51.9"/>
<polygon fill="#9a32cd" stroke="#9a32cd" points="974.86,-16.93 964.53,-19.29 974.08,-23.88 974.86,-16.93"/>
<text text-anchor="middle" x="1051" y="-39.5" font-family="Helvetica,sans-Serif" font-size="10.00"> fin</text>
</g>
<!-- Node20 -->
<g id="node20" class="node">
<title>Node20</title>
<g id="a_node20"><a xlink:title=" ">
<polygon fill="none" stroke="#bfbfbf" points="542.5,-0.5 542.5,-30.5 652.5,-30.5 652.5,-0.5 542.5,-0.5"/>
<text text-anchor="start" x="550.5" y="-18.5" font-family="Helvetica,sans-Serif" font-size="10.00">std::basic_ifstream</text>
<text text-anchor="middle" x="597.5" y="-7.5" font-family="Helvetica,sans-Serif" font-size="10.00">&lt; Char &gt;</text>
</a>
</g>
</g>
<!-- Node20&#45;&gt;Node19 -->
<g id="edge22" class="edge">
<title>Node20&#45;&gt;Node19</title>
<path fill="none" stroke="midnightblue" d="M662.94,-15.5C729.17,-15.5 830.16,-15.5 885.1,-15.5"/>
<polygon fill="midnightblue" stroke="midnightblue" points="662.62,-12 652.62,-15.5 662.62,-19 662.62,-12"/>
</g>
<!-- Node21 -->
<g id="node21" class="node">
<title>Node21</title>
<g id="a_node21"><a xlink:title=" ">
<polygon fill="none" stroke="#bfbfbf" points="334,-0.5 334,-30.5 440,-30.5 440,-0.5 334,-0.5"/>
<text text-anchor="start" x="342" y="-18.5" font-family="Helvetica,sans-Serif" font-size="10.00">std::basic_istream</text>
<text text-anchor="middle" x="387" y="-7.5" font-family="Helvetica,sans-Serif" font-size="10.00">&lt; Char &gt;</text>
</a>
</g>
</g>
<!-- Node21&#45;&gt;Node20 -->
<g id="edge23" class="edge">
<title>Node21&#45;&gt;Node20</title>
<path fill="none" stroke="midnightblue" d="M450.18,-15.5C479.43,-15.5 513.99,-15.5 542.18,-15.5"/>
<polygon fill="midnightblue" stroke="midnightblue" points="450.08,-12 440.08,-15.5 450.08,-19 450.08,-12"/>
</g>
<!-- Node22 -->
<g id="node22" class="node">
<title>Node22</title>
<g id="a_node22"><a xlink:title=" ">
<polygon fill="none" stroke="#bfbfbf" points="117,-6 117,-25 245,-25 245,-6 117,-6"/>
<text text-anchor="middle" x="181" y="-13" font-family="Helvetica,sans-Serif" font-size="10.00">std::basic_ios&lt; Char &gt;</text>
</a>
</g>
</g>
<!-- Node22&#45;&gt;Node21 -->
<g id="edge24" class="edge">
<title>Node22&#45;&gt;Node21</title>
<path fill="none" stroke="midnightblue" d="M255.32,-15.5C281.27,-15.5 309.92,-15.5 333.76,-15.5"/>
<polygon fill="midnightblue" stroke="midnightblue" points="255.15,-12 245.15,-15.5 255.15,-19 255.15,-12"/>
</g>
<!-- Node23 -->
<g id="node23" class="node">
<title>Node23</title>
<g id="a_node23"><a xlink:title=" ">
<polygon fill="none" stroke="#bfbfbf" points="0,-6 0,-25 80,-25 80,-6 0,-6"/>
<text text-anchor="middle" x="40" y="-13" font-family="Helvetica,sans-Serif" font-size="10.00">std::ios_base</text>
</a>
</g>
</g>
<!-- Node23&#45;&gt;Node22 -->
<g id="edge25" class="edge">
<title>Node23&#45;&gt;Node22</title>
<path fill="none" stroke="midnightblue" d="M90.28,-15.5C98.85,-15.5 107.87,-15.5 116.75,-15.5"/>
<polygon fill="midnightblue" stroke="midnightblue" points="90.09,-12 80.09,-15.5 90.09,-19 90.09,-12"/>
</g>
<!-- Node24&#45;&gt;Node18 -->
<g id="edge26" class="edge">
<title>Node24&#45;&gt;Node18</title>
<path fill="none" stroke="#9a32cd" stroke-dasharray="5,2" d="M672.23,-64.98C795.52,-64.12 1039.19,-62.42 1132.47,-61.76"/>
<polygon fill="#9a32cd" stroke="#9a32cd" points="672.09,-61.48 662.12,-65.05 672.14,-68.48 672.09,-61.48"/>
<text text-anchor="middle" x="925" y="-67.5" font-family="Helvetica,sans-Serif" font-size="10.00"> sections</text>
</g>
<!-- Node25 -->
<g id="node25" class="node">
<title>Node25</title>
<g id="a_node25"><a xlink:title=" ">
<polygon fill="none" stroke="#bfbfbf" points="330,-50.5 330,-80.5 444,-80.5 444,-50.5 330,-50.5"/>
<text text-anchor="start" x="338" y="-68.5" font-family="Helvetica,sans-Serif" font-size="10.00">std::unordered_map</text>
<text text-anchor="middle" x="387" y="-57.5" font-family="Helvetica,sans-Serif" font-size="10.00">&lt; K, T &gt;</text>
</a>
</g>
</g>
<!-- Node25&#45;&gt;Node24 -->
<g id="edge28" class="edge">
<title>Node25&#45;&gt;Node24</title>
<path fill="none" stroke="#9a32cd" stroke-dasharray="5,2" d="M454.33,-65.5C479.46,-65.5 508,-65.5 532.89,-65.5"/>
<polygon fill="#9a32cd" stroke="#9a32cd" points="454.15,-62 444.15,-65.5 454.15,-69 454.15,-62"/>
<text text-anchor="middle" x="487.5" y="-68.5" font-family="Helvetica,sans-Serif" font-size="10.00"> elements</text>
</g>
<!-- Node26 -->
<g id="node26" class="node">
<title>Node26</title>
<g id="a_node26"><a xlink:title=" ">
<polygon fill="none" stroke="#bfbfbf" points="166.5,-88 166.5,-107 195.5,-107 195.5,-88 166.5,-88"/>
<text text-anchor="middle" x="181" y="-95" font-family="Helvetica,sans-Serif" font-size="10.00">K</text>
</a>
</g>
</g>
<!-- Node26&#45;&gt;Node25 -->
<g id="edge29" class="edge">
<title>Node26&#45;&gt;Node25</title>
<path fill="none" stroke="#9a32cd" stroke-dasharray="5,2" d="M205.72,-93.78C235.92,-89.04 289.05,-80.71 329.84,-74.31"/>
<polygon fill="#9a32cd" stroke="#9a32cd" points="205.04,-90.34 195.7,-95.35 206.12,-97.26 205.04,-90.34"/>
<text text-anchor="middle" x="287.5" y="-87.5" font-family="Helvetica,sans-Serif" font-size="10.00"> keys</text>
</g>
<!-- Node27 -->
<g id="node27" class="node">
<title>Node27</title>
<g id="a_node27"><a xlink:title=" ">
<polygon fill="none" stroke="#bfbfbf" points="166.5,-50 166.5,-69 195.5,-69 195.5,-50 166.5,-50"/>
<text text-anchor="middle" x="181" y="-57" font-family="Helvetica,sans-Serif" font-size="10.00">T</text>
</a>
</g>
</g>
<!-- Node27&#45;&gt;Node25 -->
<g id="edge30" class="edge">
<title>Node27&#45;&gt;Node25</title>
<path fill="none" stroke="#9a32cd" stroke-dasharray="5,2" d="M205.72,-60.2C235.92,-61.09 289.05,-62.65 329.84,-63.85"/>
<polygon fill="#9a32cd" stroke="#9a32cd" points="205.8,-56.7 195.7,-59.9 205.59,-63.7 205.8,-56.7"/>
<text text-anchor="middle" x="287.5" y="-66.5" font-family="Helvetica,sans-Serif" font-size="10.00"> elements</text>
</g>
</g>
</svg>
