<?xml version="1.0" encoding="UTF-8" standalone="no"?>
<!DOCTYPE svg PUBLIC "-//W3C//DTD SVG 1.1//EN"
 "http://www.w3.org/Graphics/SVG/1.1/DTD/svg11.dtd">
<!-- Generated by graphviz version 2.43.0 (0)
 -->
<!-- Title: pfate::env::LightEnvironment Pages: 1 -->
<svg width="261pt" height="117pt"
 viewBox="0.00 0.00 260.50 117.00" xmlns="http://www.w3.org/2000/svg" xmlns:xlink="http://www.w3.org/1999/xlink">
<g id="graph0" class="graph" transform="scale(1 1) rotate(0) translate(4 113)">
<title>pfate::env::LightEnvironment</title>
<!-- Node1 -->
<g id="node1" class="node">
<title>Node1</title>
<g id="a_node1"><a xlink:title=" ">
<polygon fill="#bfbfbf" stroke="black" points="38.5,-0.5 38.5,-19.5 196.5,-19.5 196.5,-0.5 38.5,-0.5"/>
<text text-anchor="middle" x="117.5" y="-7.5" font-family="Helvetica,sans-Serif" font-size="10.00">pfate::env::LightEnvironment</text>
</a>
</g>
</g>
<!-- Node2 -->
<g id="node2" class="node">
<title>Node2</title>
<g id="a_node2"><a xlink:title=" ">
<polygon fill="none" stroke="#bfbfbf" points="0,-89.5 0,-108.5 103,-108.5 103,-89.5 0,-89.5"/>
<text text-anchor="middle" x="51.5" y="-96.5" font-family="Helvetica,sans-Serif" font-size="10.00">EnvironmentBase</text>
</a>
</g>
</g>
<!-- Node2&#45;&gt;Node1 -->
<g id="edge1" class="edge">
<title>Node2&#45;&gt;Node1</title>
<path fill="none" stroke="midnightblue" d="M64.21,-81.24C78.19,-62.82 100.1,-33.93 110.96,-19.62"/>
<polygon fill="midnightblue" stroke="midnightblue" points="61.33,-79.26 58.07,-89.34 66.9,-83.49 61.33,-79.26"/>
</g>
<!-- Node3 -->
<g id="node3" class="node">
<title>Node3</title>
<g id="a_node3"><a xlink:title=" ">
<polygon fill="none" stroke="#bfbfbf" points="121.5,-89.5 121.5,-108.5 245.5,-108.5 245.5,-89.5 121.5,-89.5"/>
<text text-anchor="middle" x="183.5" y="-96.5" font-family="Helvetica,sans-Serif" font-size="10.00">std::vector&lt; double &gt;</text>
</a>
</g>
</g>
<!-- Node3&#45;&gt;Node1 -->
<g id="edge2" class="edge">
<title>Node3&#45;&gt;Node1</title>
<path fill="none" stroke="#9a32cd" stroke-dasharray="5,2" d="M170.79,-81.24C156.81,-62.82 134.9,-33.93 124.04,-19.62"/>
<polygon fill="#9a32cd" stroke="#9a32cd" points="168.1,-83.49 176.93,-89.34 173.67,-79.26 168.1,-83.49"/>
<text text-anchor="middle" x="207" y="-63" font-family="Helvetica,sans-Serif" font-size="10.00"> canopy_openness</text>
<text text-anchor="middle" x="207" y="-52" font-family="Helvetica,sans-Serif" font-size="10.00">fapar_tot</text>
<text text-anchor="middle" x="207" y="-41" font-family="Helvetica,sans-Serif" font-size="10.00">z_star</text>
</g>
</g>
</svg>
