<?xml version="1.0" encoding="UTF-8" standalone="no"?>
<!DOCTYPE svg PUBLIC "-//W3C//DTD SVG 1.1//EN"
 "http://www.w3.org/Graphics/SVG/1.1/DTD/svg11.dtd">
<!-- Generated by graphviz version 2.43.0 (0)
 -->
<!-- Title: pfate::PlantFateConfig Pages: 1 -->
<svg width="463pt" height="342pt"
 viewBox="0.00 0.00 463.00 342.00" xmlns="http://www.w3.org/2000/svg" xmlns:xlink="http://www.w3.org/1999/xlink">
<g id="graph0" class="graph" transform="scale(1 1) rotate(0) translate(4 338)">
<title>pfate::PlantFateConfig</title>
<!-- Node1 -->
<g id="node1" class="node">
<title>Node1</title>
<g id="a_node1"><a xlink:title=" ">
<polygon fill="#bfbfbf" stroke="black" points="180.5,-0.5 180.5,-19.5 305.5,-19.5 305.5,-0.5 180.5,-0.5"/>
<text text-anchor="middle" x="243" y="-7.5" font-family="Helvetica,sans-Serif" font-size="10.00">pfate::PlantFateConfig</text>
</a>
</g>
</g>
<!-- Node2 -->
<g id="node2" class="node">
<title>Node2</title>
<g id="a_node2"><a xlink:title=" ">
<polygon fill="none" stroke="#bfbfbf" points="19.5,-246.5 19.5,-265.5 84.5,-265.5 84.5,-246.5 19.5,-246.5"/>
<text text-anchor="middle" x="52" y="-253.5" font-family="Helvetica,sans-Serif" font-size="10.00">std::string</text>
</a>
</g>
</g>
<!-- Node2&#45;&gt;Node1 -->
<g id="edge1" class="edge">
<title>Node2&#45;&gt;Node1</title>
<path fill="none" stroke="#9a32cd" stroke-dasharray="5,2" d="M44.49,-236.45C31.77,-201.71 10.55,-126.03 45,-78 75.56,-35.39 134.71,-19.54 180.43,-13.81"/>
<polygon fill="#9a32cd" stroke="#9a32cd" points="41.39,-238.12 48.24,-246.2 47.92,-235.61 41.39,-238.12"/>
<text text-anchor="middle" x="104.5" y="-191" font-family="Helvetica,sans-Serif" font-size="10.00"> config_outfile</text>
<text text-anchor="middle" x="104.5" y="-180" font-family="Helvetica,sans-Serif" font-size="10.00">continueFrom_configFile</text>
<text text-anchor="middle" x="104.5" y="-169" font-family="Helvetica,sans-Serif" font-size="10.00">continueFrom_stateFile</text>
<text text-anchor="middle" x="104.5" y="-158" font-family="Helvetica,sans-Serif" font-size="10.00">expt_dir</text>
<text text-anchor="middle" x="104.5" y="-147" font-family="Helvetica,sans-Serif" font-size="10.00">out_dir</text>
<text text-anchor="middle" x="104.5" y="-136" font-family="Helvetica,sans-Serif" font-size="10.00">paramsFile</text>
<text text-anchor="middle" x="104.5" y="-125" font-family="Helvetica,sans-Serif" font-size="10.00">parent_dir</text>
<text text-anchor="middle" x="104.5" y="-114" font-family="Helvetica,sans-Serif" font-size="10.00">solver_method</text>
<text text-anchor="middle" x="104.5" y="-103" font-family="Helvetica,sans-Serif" font-size="10.00">state_outfile</text>
<text text-anchor="middle" x="104.5" y="-92" font-family="Helvetica,sans-Serif" font-size="10.00">time_unit</text>
<text text-anchor="middle" x="104.5" y="-81" font-family="Helvetica,sans-Serif" font-size="10.00">...</text>
</g>
<!-- Node4 -->
<g id="node4" class="node">
<title>Node4</title>
<g id="a_node4"><a xlink:title=" ">
<polygon fill="none" stroke="#bfbfbf" points="173,-129 173,-148 313,-148 313,-129 173,-129"/>
<text text-anchor="middle" x="243" y="-136" font-family="Helvetica,sans-Serif" font-size="10.00">std::vector&lt; std::string &gt;</text>
</a>
</g>
</g>
<!-- Node2&#45;&gt;Node4 -->
<g id="edge4" class="edge">
<title>Node2&#45;&gt;Node4</title>
<path fill="none" stroke="#9a32cd" stroke-dasharray="5,2" d="M79.28,-241.99C101.24,-231.21 132.67,-215.11 159,-199 186.13,-182.39 216.14,-160.11 231.91,-148.08"/>
<polygon fill="#9a32cd" stroke="#9a32cd" points="77.66,-238.88 70.2,-246.4 80.73,-245.18 77.66,-238.88"/>
<text text-anchor="middle" x="152.5" y="-220" font-family="Helvetica,sans-Serif" font-size="10.00"> elements</text>
</g>
<!-- Node3 -->
<g id="node3" class="node">
<title>Node3</title>
<g id="a_node3"><a xlink:title=" ">
<polygon fill="none" stroke="#bfbfbf" points="0,-303.5 0,-333.5 104,-333.5 104,-303.5 0,-303.5"/>
<text text-anchor="start" x="8" y="-321.5" font-family="Helvetica,sans-Serif" font-size="10.00">std::basic_string&lt;</text>
<text text-anchor="middle" x="52" y="-310.5" font-family="Helvetica,sans-Serif" font-size="10.00"> Char &gt;</text>
</a>
</g>
</g>
<!-- Node3&#45;&gt;Node2 -->
<g id="edge2" class="edge">
<title>Node3&#45;&gt;Node2</title>
<path fill="none" stroke="midnightblue" d="M52,-293.35C52,-283.51 52,-272.78 52,-265.54"/>
<polygon fill="midnightblue" stroke="midnightblue" points="48.5,-293.47 52,-303.47 55.5,-293.47 48.5,-293.47"/>
</g>
<!-- Node4&#45;&gt;Node1 -->
<g id="edge3" class="edge">
<title>Node4&#45;&gt;Node1</title>
<path fill="none" stroke="#9a32cd" stroke-dasharray="5,2" d="M243,-118.44C243,-90.62 243,-40.04 243,-19.76"/>
<polygon fill="#9a32cd" stroke="#9a32cd" points="239.5,-118.81 243,-128.81 246.5,-118.81 239.5,-118.81"/>
<text text-anchor="middle" x="284" y="-46.5" font-family="Helvetica,sans-Serif" font-size="10.00"> evolvable_traits</text>
</g>
<!-- Node5 -->
<g id="node5" class="node">
<title>Node5</title>
<g id="a_node5"><a xlink:title=" ">
<polygon fill="none" stroke="#bfbfbf" points="331,-129 331,-148 455,-148 455,-129 331,-129"/>
<text text-anchor="middle" x="393" y="-136" font-family="Helvetica,sans-Serif" font-size="10.00">std::vector&lt; double &gt;</text>
</a>
</g>
</g>
<!-- Node5&#45;&gt;Node1 -->
<g id="edge5" class="edge">
<title>Node5&#45;&gt;Node1</title>
<path fill="none" stroke="#9a32cd" stroke-dasharray="5,2" d="M386.03,-119.57C376.47,-97.26 357.19,-59.51 329,-38 317.8,-29.46 303.85,-23.58 290.46,-19.56"/>
<polygon fill="#9a32cd" stroke="#9a32cd" points="382.81,-120.95 389.84,-128.88 389.29,-118.3 382.81,-120.95"/>
<text text-anchor="middle" x="385.5" y="-52" font-family="Helvetica,sans-Serif" font-size="10.00"> trait_scalars</text>
<text text-anchor="middle" x="385.5" y="-41" font-family="Helvetica,sans-Serif" font-size="10.00">trait_variances</text>
</g>
</g>
</svg>
