<?xml version="1.0" encoding="UTF-8" standalone="no"?>
<!DOCTYPE svg PUBLIC "-//W3C//DTD SVG 1.1//EN"
 "http://www.w3.org/Graphics/SVG/1.1/DTD/svg11.dtd">
<!-- Generated by graphviz version 2.43.0 (0)
 -->
<!-- Title: plant::Plant Pages: 1 -->
<svg width="805pt" height="220pt"
 viewBox="0.00 0.00 805.00 220.00" xmlns="http://www.w3.org/2000/svg" xmlns:xlink="http://www.w3.org/1999/xlink">
<g id="graph0" class="graph" transform="scale(1 1) rotate(0) translate(4 216)">
<title>plant::Plant</title>
<!-- Node1 -->
<g id="node1" class="node">
<title>Node1</title>
<g id="a_node1"><a xlink:title="The class for an individual plant.">
<polygon fill="#bfbfbf" stroke="black" points="725,-123.5 725,-142.5 797,-142.5 797,-123.5 725,-123.5"/>
<text text-anchor="middle" x="761" y="-130.5" font-family="Helvetica,sans-Serif" font-size="10.00">plant::Plant</text>
</a>
</g>
</g>
<!-- Node2 -->
<g id="node2" class="node">
<title>Node2</title>
<g id="a_node2"><a xlink:href="structplant_1_1PlantAssimilationResult.html" target="_top" xlink:title="Set of all variables calculated by the assimilator.">
<polygon fill="none" stroke="black" points="268,-179 268,-209 401,-209 401,-179 268,-179"/>
<text text-anchor="start" x="276" y="-197" font-family="Helvetica,sans-Serif" font-size="10.00">plant::PlantAssimilation</text>
<text text-anchor="middle" x="334.5" y="-186" font-family="Helvetica,sans-Serif" font-size="10.00">Result</text>
</a>
</g>
</g>
<!-- Node2&#45;&gt;Node1 -->
<g id="edge1" class="edge">
<title>Node2&#45;&gt;Node1</title>
<path fill="none" stroke="#9a32cd" stroke-dasharray="5,2" d="M411.26,-199.68C413.87,-199.8 416.46,-199.91 419,-200 513.27,-203.38 537.64,-203.49 631,-190 665.26,-185.05 675.59,-187.53 707,-173 723.53,-165.35 739.85,-151.91 749.91,-142.74"/>
<polygon fill="#9a32cd" stroke="#9a32cd" points="411.28,-196.18 401.11,-199.16 410.92,-203.17 411.28,-196.18"/>
<text text-anchor="middle" x="565.5" y="-204" font-family="Helvetica,sans-Serif" font-size="10.00"> res</text>
</g>
<!-- Node5 -->
<g id="node5" class="node">
<title>Node5</title>
<g id="a_node5"><a xlink:href="classplant_1_1Assimilator.html" target="_top" xlink:title="Object for computing gross and net production, respiration, and turnover.">
<polygon fill="none" stroke="black" points="514,-161.5 514,-180.5 617,-180.5 617,-161.5 514,-161.5"/>
<text text-anchor="middle" x="565.5" y="-168.5" font-family="Helvetica,sans-Serif" font-size="10.00">plant::Assimilator</text>
</a>
</g>
</g>
<!-- Node2&#45;&gt;Node5 -->
<g id="edge5" class="edge">
<title>Node2&#45;&gt;Node5</title>
<path fill="none" stroke="#9a32cd" stroke-dasharray="5,2" d="M411.39,-186.38C445.04,-183 483.72,-179.11 513.79,-176.09"/>
<polygon fill="#9a32cd" stroke="#9a32cd" points="410.72,-182.93 401.12,-187.41 411.42,-189.89 410.72,-182.93"/>
<text text-anchor="middle" x="450.5" y="-188" font-family="Helvetica,sans-Serif" font-size="10.00"> plant_assim</text>
</g>
<!-- Node3 -->
<g id="node3" class="node">
<title>Node3</title>
<g id="a_node3"><a xlink:href="classplant_1_1PlantParameters.html" target="_top" xlink:title=" ">
<polygon fill="none" stroke="black" points="501.5,-123.5 501.5,-142.5 629.5,-142.5 629.5,-123.5 501.5,-123.5"/>
<text text-anchor="middle" x="565.5" y="-130.5" font-family="Helvetica,sans-Serif" font-size="10.00">plant::PlantParameters</text>
</a>
</g>
</g>
<!-- Node3&#45;&gt;Node1 -->
<g id="edge2" class="edge">
<title>Node3&#45;&gt;Node1</title>
<path fill="none" stroke="#9a32cd" stroke-dasharray="5,2" d="M639.77,-133C668.96,-133 701.19,-133 724.92,-133"/>
<polygon fill="#9a32cd" stroke="#9a32cd" points="639.59,-129.5 629.59,-133 639.59,-136.5 639.59,-129.5"/>
<text text-anchor="middle" x="678" y="-136" font-family="Helvetica,sans-Serif" font-size="10.00"> par</text>
</g>
<!-- Node4 -->
<g id="node4" class="node">
<title>Node4</title>
<g id="a_node4"><a xlink:href="classplant_1_1PlantArchitecture.html" target="_top" xlink:title="Everything about the plant&#39;s architecture, i.e. relationships among various physical dimensions.">
<polygon fill="none" stroke="black" points="500,-85.5 500,-104.5 631,-104.5 631,-85.5 500,-85.5"/>
<text text-anchor="middle" x="565.5" y="-92.5" font-family="Helvetica,sans-Serif" font-size="10.00">plant::PlantArchitecture</text>
</a>
</g>
</g>
<!-- Node4&#45;&gt;Node1 -->
<g id="edge3" class="edge">
<title>Node4&#45;&gt;Node1</title>
<path fill="none" stroke="#9a32cd" stroke-dasharray="5,2" d="M641.14,-105.6C662.5,-109.07 685.76,-113.27 707,-118 714,-119.56 721.45,-121.49 728.48,-123.45"/>
<polygon fill="#9a32cd" stroke="#9a32cd" points="641.57,-102.13 631.14,-104.01 640.47,-109.04 641.57,-102.13"/>
<text text-anchor="middle" x="678" y="-121" font-family="Helvetica,sans-Serif" font-size="10.00"> geometry</text>
</g>
<!-- Node5&#45;&gt;Node1 -->
<g id="edge4" class="edge">
<title>Node5&#45;&gt;Node1</title>
<path fill="none" stroke="#9a32cd" stroke-dasharray="5,2" d="M627.12,-161.86C651.98,-157.79 680.96,-152.65 707,-147 713.05,-145.69 719.44,-144.14 725.61,-142.56"/>
<polygon fill="#9a32cd" stroke="#9a32cd" points="626.42,-158.42 617.11,-163.47 627.54,-165.33 626.42,-158.42"/>
<text text-anchor="middle" x="678" y="-161" font-family="Helvetica,sans-Serif" font-size="10.00"> assimilator</text>
</g>
<!-- Node6 -->
<g id="node6" class="node">
<title>Node6</title>
<g id="a_node6"><a xlink:href="classplant_1_1PlantTraits.html" target="_top" xlink:title=" ">
<polygon fill="none" stroke="black" points="516,-47.5 516,-66.5 615,-66.5 615,-47.5 516,-47.5"/>
<text text-anchor="middle" x="565.5" y="-54.5" font-family="Helvetica,sans-Serif" font-size="10.00">plant::PlantTraits</text>
</a>
</g>
</g>
<!-- Node6&#45;&gt;Node1 -->
<g id="edge6" class="edge">
<title>Node6&#45;&gt;Node1</title>
<path fill="none" stroke="#9a32cd" stroke-dasharray="5,2" d="M625.18,-65.34C651.15,-70.49 681.51,-78.57 707,-91 723.88,-99.23 740.37,-113.58 750.35,-123.18"/>
<polygon fill="#9a32cd" stroke="#9a32cd" points="625.57,-61.85 615.1,-63.44 624.28,-68.73 625.57,-61.85"/>
<text text-anchor="middle" x="678" y="-94" font-family="Helvetica,sans-Serif" font-size="10.00"> traits</text>
</g>
<!-- Node7 -->
<g id="node7" class="node">
<title>Node7</title>
<g id="a_node7"><a xlink:title=" ">
<polygon fill="none" stroke="#bfbfbf" points="141,-40.5 141,-59.5 206,-59.5 206,-40.5 141,-40.5"/>
<text text-anchor="middle" x="173.5" y="-47.5" font-family="Helvetica,sans-Serif" font-size="10.00">std::string</text>
</a>
</g>
</g>
<!-- Node7&#45;&gt;Node6 -->
<g id="edge7" class="edge">
<title>Node7&#45;&gt;Node6</title>
<path fill="none" stroke="#9a32cd" stroke-dasharray="5,2" d="M216.25,-55.38C218.87,-55.62 221.47,-55.83 224,-56 338.41,-63.79 367.33,-60.39 482,-59 492.89,-58.87 504.58,-58.64 515.64,-58.38"/>
<polygon fill="#9a32cd" stroke="#9a32cd" points="216.45,-51.88 206.14,-54.34 215.73,-58.84 216.45,-51.88"/>
<text text-anchor="middle" x="334.5" y="-64" font-family="Helvetica,sans-Serif" font-size="10.00"> species_name</text>
</g>
<!-- Node9 -->
<g id="node9" class="node">
<title>Node9</title>
<g id="a_node9"><a xlink:title=" ">
<polygon fill="none" stroke="#bfbfbf" points="276.5,-0.5 276.5,-41.5 392.5,-41.5 392.5,-0.5 276.5,-0.5"/>
<text text-anchor="start" x="284.5" y="-29.5" font-family="Helvetica,sans-Serif" font-size="10.00">std::unordered_map</text>
<text text-anchor="start" x="284.5" y="-18.5" font-family="Helvetica,sans-Serif" font-size="10.00">&lt; std::string, double</text>
<text text-anchor="middle" x="334.5" y="-7.5" font-family="Helvetica,sans-Serif" font-size="10.00"> PlantTraits::* &gt;</text>
</a>
</g>
</g>
<!-- Node7&#45;&gt;Node9 -->
<g id="edge10" class="edge">
<title>Node7&#45;&gt;Node9</title>
<path fill="none" stroke="#9a32cd" stroke-dasharray="5,2" d="M216.37,-42.36C234.72,-39.02 256.54,-35.04 276.34,-31.42"/>
<polygon fill="#9a32cd" stroke="#9a32cd" points="215.5,-38.96 206.29,-44.2 216.76,-45.85 215.5,-38.96"/>
<text text-anchor="middle" x="237" y="-44" font-family="Helvetica,sans-Serif" font-size="10.00"> keys</text>
</g>
<!-- Node8 -->
<g id="node8" class="node">
<title>Node8</title>
<g id="a_node8"><a xlink:title=" ">
<polygon fill="none" stroke="#bfbfbf" points="0,-35 0,-65 104,-65 104,-35 0,-35"/>
<text text-anchor="start" x="8" y="-53" font-family="Helvetica,sans-Serif" font-size="10.00">std::basic_string&lt;</text>
<text text-anchor="middle" x="52" y="-42" font-family="Helvetica,sans-Serif" font-size="10.00"> Char &gt;</text>
</a>
</g>
</g>
<!-- Node8&#45;&gt;Node7 -->
<g id="edge8" class="edge">
<title>Node8&#45;&gt;Node7</title>
<path fill="none" stroke="midnightblue" d="M114.1,-50C123.41,-50 132.68,-50 141,-50"/>
<polygon fill="midnightblue" stroke="midnightblue" points="114.03,-46.5 104.03,-50 114.03,-53.5 114.03,-46.5"/>
</g>
<!-- Node9&#45;&gt;Node6 -->
<g id="edge9" class="edge">
<title>Node9&#45;&gt;Node6</title>
<path fill="none" stroke="#9a32cd" stroke-dasharray="5,2" d="M402.7,-31.56C438.94,-37.26 482.85,-44.16 515.78,-49.34"/>
<polygon fill="#9a32cd" stroke="#9a32cd" points="403.12,-28.09 392.7,-29.99 402.03,-35 403.12,-28.09"/>
<text text-anchor="middle" x="450.5" y="-47" font-family="Helvetica,sans-Serif" font-size="10.00"> members</text>
</g>
</g>
</svg>
