<?xml version="1.0" encoding="UTF-8" standalone="no"?>
<!DOCTYPE svg PUBLIC "-//W3C//DTD SVG 1.1//EN"
 "http://www.w3.org/Graphics/SVG/1.1/DTD/svg11.dtd">
<!-- Generated by graphviz version 2.43.0 (0)
 -->
<!-- Title: pfate::Patch::readTraitsFromFile Pages: 1 -->
<svg width="397pt" height="39pt"
 viewBox="0.00 0.00 397.00 39.00" xmlns="http://www.w3.org/2000/svg" xmlns:xlink="http://www.w3.org/1999/xlink">
<g id="graph0" class="graph" transform="scale(1 1) rotate(0) translate(4 35)">
<title>pfate::Patch::readTraitsFromFile</title>
<!-- Node1 -->
<g id="node1" class="node">
<title>Node1</title>
<g id="a_node1"><a xlink:title=" ">
<polygon fill="#bfbfbf" stroke="black" points="259,-0.5 259,-30.5 389,-30.5 389,-0.5 259,-0.5"/>
<text text-anchor="start" x="267" y="-18.5" font-family="Helvetica,sans-Serif" font-size="10.00">pfate::Patch::readTraits</text>
<text text-anchor="middle" x="324" y="-7.5" font-family="Helvetica,sans-Serif" font-size="10.00">FromFile</text>
</a>
</g>
</g>
<!-- Node2 -->
<g id="node2" class="node">
<title>Node2</title>
<g id="a_node2"><a xlink:href="classpfate_1_1Patch.html#ad2e4b86b03a6a6834a363bf19c1d9587" target="_top" xlink:title=" ">
<polygon fill="none" stroke="black" points="126,-6 126,-25 223,-25 223,-6 126,-6"/>
<text text-anchor="middle" x="174.5" y="-13" font-family="Helvetica,sans-Serif" font-size="10.00">pfate::Patch::init</text>
</a>
</g>
</g>
<!-- Node1&#45;&gt;Node2 -->
<g id="edge1" class="edge">
<title>Node1&#45;&gt;Node2</title>
<path fill="none" stroke="midnightblue" d="M248.59,-15.5C239.94,-15.5 231.29,-15.5 223.14,-15.5"/>
<polygon fill="midnightblue" stroke="midnightblue" points="248.73,-19 258.73,-15.5 248.73,-12 248.73,-19"/>
</g>
<!-- Node3 -->
<g id="node3" class="node">
<title>Node3</title>
<g id="a_node3"><a xlink:href="r__interface_8cpp.html#a7897b94cdc1a829775ac5241571cd456" target="_top" xlink:title=" ">
<polygon fill="none" stroke="black" points="0,-6 0,-25 90,-25 90,-6 0,-6"/>
<text text-anchor="middle" x="45" y="-13" font-family="Helvetica,sans-Serif" font-size="10.00">RCPP_MODULE</text>
</a>
</g>
</g>
<!-- Node2&#45;&gt;Node3 -->
<g id="edge2" class="edge">
<title>Node2&#45;&gt;Node3</title>
<path fill="none" stroke="midnightblue" d="M115.46,-15.5C107.02,-15.5 98.43,-15.5 90.32,-15.5"/>
<polygon fill="midnightblue" stroke="midnightblue" points="115.66,-19 125.66,-15.5 115.66,-12 115.66,-19"/>
</g>
</g>
</svg>
