<?xml version="1.0" encoding="UTF-8" standalone="no"?>
<!DOCTYPE svg PUBLIC "-//W3C//DTD SVG 1.1//EN"
 "http://www.w3.org/Graphics/SVG/1.1/DTD/svg11.dtd">
<!-- Generated by graphviz version 2.43.0 (0)
 -->
<!-- Title: pfate::PSPM_Environment Pages: 1 -->
<svg width="294pt" height="140pt"
 viewBox="0.00 0.00 294.00 140.00" xmlns="http://www.w3.org/2000/svg" xmlns:xlink="http://www.w3.org/1999/xlink">
<g id="graph0" class="graph" transform="scale(1 1) rotate(0) translate(4 136)">
<title>pfate::PSPM_Environment</title>
<!-- Node1 -->
<g id="node1" class="node">
<title>Node1</title>
<g id="a_node1"><a xlink:title="This class provides a common interface to different components of the environment.">
<polygon fill="#bfbfbf" stroke="black" points="83.5,-0.5 83.5,-19.5 226.5,-19.5 226.5,-0.5 83.5,-0.5"/>
<text text-anchor="middle" x="155" y="-7.5" font-family="Helvetica,sans-Serif" font-size="10.00">pfate::PSPM_Environment</text>
</a>
</g>
</g>
<!-- Node2 -->
<g id="node2" class="node">
<title>Node2</title>
<g id="a_node2"><a xlink:href="classpfate_1_1env_1_1LightEnvironment.html" target="_top" xlink:title=" ">
<polygon fill="none" stroke="black" points="0,-56.5 0,-75.5 158,-75.5 158,-56.5 0,-56.5"/>
<text text-anchor="middle" x="79" y="-63.5" font-family="Helvetica,sans-Serif" font-size="10.00">pfate::env::LightEnvironment</text>
</a>
</g>
</g>
<!-- Node2&#45;&gt;Node1 -->
<g id="edge1" class="edge">
<title>Node2&#45;&gt;Node1</title>
<path fill="none" stroke="midnightblue" d="M99.58,-50.38C113.31,-40.62 130.93,-28.11 142.57,-19.83"/>
<polygon fill="midnightblue" stroke="midnightblue" points="97.34,-47.68 91.21,-56.32 101.39,-53.38 97.34,-47.68"/>
</g>
<!-- Node3 -->
<g id="node3" class="node">
<title>Node3</title>
<g id="a_node3"><a xlink:title=" ">
<polygon fill="none" stroke="#bfbfbf" points="27.5,-112.5 27.5,-131.5 130.5,-131.5 130.5,-112.5 27.5,-112.5"/>
<text text-anchor="middle" x="79" y="-119.5" font-family="Helvetica,sans-Serif" font-size="10.00">EnvironmentBase</text>
</a>
</g>
</g>
<!-- Node3&#45;&gt;Node2 -->
<g id="edge2" class="edge">
<title>Node3&#45;&gt;Node2</title>
<path fill="none" stroke="midnightblue" d="M79,-101.8C79,-92.91 79,-82.78 79,-75.75"/>
<polygon fill="midnightblue" stroke="midnightblue" points="75.5,-102.08 79,-112.08 82.5,-102.08 75.5,-102.08"/>
</g>
<!-- Node4 -->
<g id="node4" class="node">
<title>Node4</title>
<g id="a_node4"><a xlink:href="classpfate_1_1env_1_1Climate.html" target="_top" xlink:title=" ">
<polygon fill="none" stroke="black" points="176,-56.5 176,-75.5 286,-75.5 286,-56.5 176,-56.5"/>
<text text-anchor="middle" x="231" y="-63.5" font-family="Helvetica,sans-Serif" font-size="10.00">pfate::env::Climate</text>
</a>
</g>
</g>
<!-- Node4&#45;&gt;Node1 -->
<g id="edge3" class="edge">
<title>Node4&#45;&gt;Node1</title>
<path fill="none" stroke="midnightblue" d="M210.42,-50.38C196.69,-40.62 179.07,-28.11 167.43,-19.83"/>
<polygon fill="midnightblue" stroke="midnightblue" points="208.61,-53.38 218.79,-56.32 212.66,-47.68 208.61,-53.38"/>
</g>
</g>
</svg>
