<?xml version="1.0" encoding="UTF-8" standalone="no"?>
<!DOCTYPE svg PUBLIC "-//W3C//DTD SVG 1.1//EN"
 "http://www.w3.org/Graphics/SVG/1.1/DTD/svg11.dtd">
<!-- Generated by graphviz version 2.43.0 (0)
 -->
<!-- Title: pfate::LifeHistoryOptimizer::LifeHistoryOptimizer Pages: 1 -->
<svg width="726pt" height="220pt"
 viewBox="0.00 0.00 726.00 220.00" xmlns="http://www.w3.org/2000/svg" xmlns:xlink="http://www.w3.org/1999/xlink">
<g id="graph0" class="graph" transform="scale(1 1) rotate(0) translate(4 216)">
<title>pfate::LifeHistoryOptimizer::LifeHistoryOptimizer</title>
<!-- Node1 -->
<g id="node1" class="node">
<title>Node1</title>
<g id="a_node1"><a xlink:title=" ">
<polygon fill="#bfbfbf" stroke="black" points="0,-88.5 0,-118.5 149,-118.5 149,-88.5 0,-88.5"/>
<text text-anchor="start" x="8" y="-106.5" font-family="Helvetica,sans-Serif" font-size="10.00">pfate::LifeHistoryOptimizer</text>
<text text-anchor="middle" x="74.5" y="-95.5" font-family="Helvetica,sans-Serif" font-size="10.00">::LifeHistoryOptimizer</text>
</a>
</g>
</g>
<!-- Node2 -->
<g id="node2" class="node">
<title>Node2</title>
<g id="a_node2"><a xlink:href="classio_1_1Initializer.html#abbf31e66329bd03f5d968988c5aa1213" target="_top" xlink:title=" ">
<polygon fill="none" stroke="black" points="349,-181.5 349,-211.5 448,-211.5 448,-181.5 349,-181.5"/>
<text text-anchor="start" x="357" y="-199.5" font-family="Helvetica,sans-Serif" font-size="10.00">io::Initializer::get</text>
<text text-anchor="middle" x="398.5" y="-188.5" font-family="Helvetica,sans-Serif" font-size="10.00">_verbatim</text>
</a>
</g>
</g>
<!-- Node1&#45;&gt;Node2 -->
<g id="edge1" class="edge">
<title>Node1&#45;&gt;Node2</title>
<path fill="none" stroke="midnightblue" d="M91.83,-118.52C112.02,-136.09 148.25,-164.43 185,-177.5 234.75,-195.2 295,-199.08 338.62,-199.04"/>
<polygon fill="midnightblue" stroke="midnightblue" points="338.8,-202.54 348.77,-198.96 338.75,-195.54 338.8,-202.54"/>
</g>
<!-- Node5 -->
<g id="node5" class="node">
<title>Node5</title>
<g id="a_node5"><a xlink:href="classplant_1_1PlantTraits.html#a752ff5e88101f3002440c3cd8879cf31" target="_top" xlink:title=" ">
<polygon fill="none" stroke="black" points="199.5,-137.5 199.5,-167.5 298.5,-167.5 298.5,-137.5 199.5,-137.5"/>
<text text-anchor="start" x="207.5" y="-155.5" font-family="Helvetica,sans-Serif" font-size="10.00">plant::PlantTraits</text>
<text text-anchor="middle" x="249" y="-144.5" font-family="Helvetica,sans-Serif" font-size="10.00">::init</text>
</a>
</g>
</g>
<!-- Node1&#45;&gt;Node5 -->
<g id="edge4" class="edge">
<title>Node1&#45;&gt;Node5</title>
<path fill="none" stroke="midnightblue" d="M128.66,-118.6C147.97,-124.09 169.89,-130.31 189.62,-135.92"/>
<polygon fill="midnightblue" stroke="midnightblue" points="188.84,-139.33 199.41,-138.7 190.75,-132.6 188.84,-139.33"/>
</g>
<!-- Node7 -->
<g id="node7" class="node">
<title>Node7</title>
<g id="a_node7"><a xlink:href="classplant_1_1PlantParameters.html#a6f4ee512f917665608504a6a893d92f3" target="_top" xlink:title=" ">
<polygon fill="none" stroke="black" points="185,-88.5 185,-118.5 313,-118.5 313,-88.5 185,-88.5"/>
<text text-anchor="start" x="193" y="-106.5" font-family="Helvetica,sans-Serif" font-size="10.00">plant::PlantParameters</text>
<text text-anchor="middle" x="249" y="-95.5" font-family="Helvetica,sans-Serif" font-size="10.00">::init</text>
</a>
</g>
</g>
<!-- Node1&#45;&gt;Node7 -->
<g id="edge7" class="edge">
<title>Node1&#45;&gt;Node7</title>
<path fill="none" stroke="midnightblue" d="M149.16,-103.5C157.62,-103.5 166.25,-103.5 174.71,-103.5"/>
<polygon fill="midnightblue" stroke="midnightblue" points="174.92,-107 184.92,-103.5 174.92,-100 174.92,-107"/>
</g>
<!-- Node8 -->
<g id="node8" class="node">
<title>Node8</title>
<g id="a_node8"><a xlink:href="classio_1_1Initializer.html#a7c3261fb7e141a0d06d9b0c41de9af66" target="_top" xlink:title=" ">
<polygon fill="none" stroke="black" points="194,-50 194,-69 304,-69 304,-50 194,-50"/>
<text text-anchor="middle" x="249" y="-57" font-family="Helvetica,sans-Serif" font-size="10.00">io::Initializer::parse</text>
</a>
</g>
</g>
<!-- Node1&#45;&gt;Node8 -->
<g id="edge9" class="edge">
<title>Node1&#45;&gt;Node8</title>
<path fill="none" stroke="midnightblue" d="M134.38,-88.48C156.11,-82.94 180.41,-76.74 200.95,-71.5"/>
<polygon fill="midnightblue" stroke="midnightblue" points="201.88,-74.88 210.71,-69.01 200.15,-68.09 201.88,-74.88"/>
</g>
<!-- Node9 -->
<g id="node9" class="node">
<title>Node9</title>
<g id="a_node9"><a xlink:href="classplant_1_1PlantParameters.html#a7a0dc41bcb06a66292f3040918893c4b" target="_top" xlink:title=" ">
<polygon fill="none" stroke="black" points="185,-0.5 185,-30.5 313,-30.5 313,-0.5 185,-0.5"/>
<text text-anchor="start" x="193" y="-18.5" font-family="Helvetica,sans-Serif" font-size="10.00">plant::PlantParameters</text>
<text text-anchor="middle" x="249" y="-7.5" font-family="Helvetica,sans-Serif" font-size="10.00">::set_tscale</text>
</a>
</g>
</g>
<!-- Node1&#45;&gt;Node9 -->
<g id="edge10" class="edge">
<title>Node1&#45;&gt;Node9</title>
<path fill="none" stroke="midnightblue" d="M99.31,-88.46C121.14,-75 154.59,-55.19 185,-40.5 189.28,-38.43 193.77,-36.4 198.31,-34.43"/>
<polygon fill="midnightblue" stroke="midnightblue" points="199.77,-37.62 207.63,-30.52 197.06,-31.16 199.77,-37.62"/>
</g>
<!-- Node3 -->
<g id="node3" class="node">
<title>Node3</title>
<g id="a_node3"><a xlink:href="classio_1_1Initializer.html#a06fe79d6d19f76180836e03e3ad6b7fb" target="_top" xlink:title=" ">
<polygon fill="none" stroke="black" points="484,-159.5 484,-189.5 583,-189.5 583,-159.5 484,-159.5"/>
<text text-anchor="start" x="492" y="-177.5" font-family="Helvetica,sans-Serif" font-size="10.00">io::Initializer::get</text>
<text text-anchor="middle" x="533.5" y="-166.5" font-family="Helvetica,sans-Serif" font-size="10.00">_value</text>
</a>
</g>
</g>
<!-- Node2&#45;&gt;Node3 -->
<g id="edge2" class="edge">
<title>Node2&#45;&gt;Node3</title>
<path fill="none" stroke="midnightblue" d="M448.27,-188.43C456.58,-187.06 465.29,-185.62 473.83,-184.2"/>
<polygon fill="midnightblue" stroke="midnightblue" points="474.44,-187.65 483.74,-182.57 473.3,-180.75 474.44,-187.65"/>
</g>
<!-- Node4 -->
<g id="node4" class="node">
<title>Node4</title>
<g id="a_node4"><a xlink:href="classio_1_1Initializer.html#a310526fc5b0c2c257bee66d6f48fa4ae" target="_top" xlink:title=" ">
<polygon fill="none" stroke="black" points="619,-159.5 619,-189.5 718,-189.5 718,-159.5 619,-159.5"/>
<text text-anchor="start" x="627" y="-177.5" font-family="Helvetica,sans-Serif" font-size="10.00">io::Initializer::get</text>
<text text-anchor="middle" x="668.5" y="-166.5" font-family="Helvetica,sans-Serif" font-size="10.00">_section</text>
</a>
</g>
</g>
<!-- Node3&#45;&gt;Node4 -->
<g id="edge3" class="edge">
<title>Node3&#45;&gt;Node4</title>
<path fill="none" stroke="midnightblue" d="M583.27,-174.5C591.49,-174.5 600.1,-174.5 608.55,-174.5"/>
<polygon fill="midnightblue" stroke="midnightblue" points="608.74,-178 618.74,-174.5 608.74,-171 608.74,-178"/>
</g>
<!-- Node6 -->
<g id="node6" class="node">
<title>Node6</title>
<g id="a_node6"><a xlink:href="classio_1_1Initializer.html#a098a8511a950a4449925c8315af36bdb" target="_top" xlink:title=" ">
<polygon fill="none" stroke="black" points="349,-143 349,-162 448,-162 448,-143 349,-143"/>
<text text-anchor="middle" x="398.5" y="-150" font-family="Helvetica,sans-Serif" font-size="10.00">io::Initializer::get</text>
</a>
</g>
</g>
<!-- Node5&#45;&gt;Node6 -->
<g id="edge5" class="edge">
<title>Node5&#45;&gt;Node6</title>
<path fill="none" stroke="midnightblue" d="M298.71,-152.5C311.54,-152.5 325.53,-152.5 338.84,-152.5"/>
<polygon fill="midnightblue" stroke="midnightblue" points="338.85,-156 348.85,-152.5 338.85,-149 338.85,-156"/>
</g>
<!-- Node6&#45;&gt;Node3 -->
<g id="edge6" class="edge">
<title>Node6&#45;&gt;Node3</title>
<path fill="none" stroke="midnightblue" d="M448.27,-160.57C456.58,-161.94 465.29,-163.38 473.83,-164.8"/>
<polygon fill="midnightblue" stroke="midnightblue" points="473.3,-168.25 483.74,-166.43 474.44,-161.35 473.3,-168.25"/>
</g>
<!-- Node7&#45;&gt;Node6 -->
<g id="edge8" class="edge">
<title>Node7&#45;&gt;Node6</title>
<path fill="none" stroke="midnightblue" d="M295.46,-118.6C315.79,-125.35 339.49,-133.23 358.94,-139.69"/>
<polygon fill="midnightblue" stroke="midnightblue" points="358.08,-143.09 368.68,-142.92 360.29,-136.45 358.08,-143.09"/>
</g>
</g>
</svg>
