<?xml version="1.0" encoding="UTF-8" standalone="no"?>
<!DOCTYPE svg PUBLIC "-//W3C//DTD SVG 1.1//EN"
 "http://www.w3.org/Graphics/SVG/1.1/DTD/svg11.dtd">
<!-- Generated by graphviz version 2.43.0 (0)
 -->
<!-- Title: plant::PlantArchitecture::root_mass Pages: 1 -->
<svg width="1312pt" height="320pt"
 viewBox="0.00 0.00 1312.00 320.00" xmlns="http://www.w3.org/2000/svg" xmlns:xlink="http://www.w3.org/1999/xlink">
<g id="graph0" class="graph" transform="scale(1 1) rotate(0) translate(4 316)">
<title>plant::PlantArchitecture::root_mass</title>
<!-- Node1 -->
<g id="node1" class="node">
<title>Node1</title>
<g id="a_node1"><a xlink:title="Get biomass in various carbon pools.">
<polygon fill="#bfbfbf" stroke="black" points="1173,-93.5 1173,-123.5 1304,-123.5 1304,-93.5 1173,-93.5"/>
<text text-anchor="start" x="1181" y="-111.5" font-family="Helvetica,sans-Serif" font-size="10.00">plant::PlantArchitecture</text>
<text text-anchor="middle" x="1238.5" y="-100.5" font-family="Helvetica,sans-Serif" font-size="10.00">::root_mass</text>
</a>
</g>
</g>
<!-- Node2 -->
<g id="node2" class="node">
<title>Node2</title>
<g id="a_node2"><a xlink:href="classpfate_1_1LifeHistoryOptimizer.html#a05951c4085bd4f5a06fbbb66b8c3092d" target="_top" xlink:title=" ">
<polygon fill="none" stroke="black" points="496,-93.5 496,-123.5 645,-123.5 645,-93.5 496,-93.5"/>
<text text-anchor="start" x="504" y="-111.5" font-family="Helvetica,sans-Serif" font-size="10.00">pfate::LifeHistoryOptimizer</text>
<text text-anchor="middle" x="570.5" y="-100.5" font-family="Helvetica,sans-Serif" font-size="10.00">::get_state</text>
</a>
</g>
</g>
<!-- Node1&#45;&gt;Node2 -->
<g id="edge1" class="edge">
<title>Node1&#45;&gt;Node2</title>
<path fill="none" stroke="midnightblue" d="M1162.59,-108.5C1034.04,-108.5 772.97,-108.5 645.24,-108.5"/>
<polygon fill="midnightblue" stroke="midnightblue" points="1162.73,-112 1172.73,-108.5 1162.73,-105 1162.73,-112"/>
</g>
<!-- Node6 -->
<g id="node6" class="node">
<title>Node6</title>
<g id="a_node6"><a xlink:href="classplant_1_1Assimilator.html#aeedad55e35be6fa1d908731a123e2c4f" target="_top" xlink:title="Calculate leaf and fine&#45;root respiration rates.">
<polygon fill="none" stroke="black" points="997,-137.5 997,-167.5 1122,-167.5 1122,-137.5 997,-137.5"/>
<text text-anchor="start" x="1005" y="-155.5" font-family="Helvetica,sans-Serif" font-size="10.00">plant::Assimilator</text>
<text text-anchor="middle" x="1059.5" y="-144.5" font-family="Helvetica,sans-Serif" font-size="10.00">::root_respiration_rate</text>
</a>
</g>
</g>
<!-- Node1&#45;&gt;Node6 -->
<g id="edge5" class="edge">
<title>Node1&#45;&gt;Node6</title>
<path fill="none" stroke="midnightblue" d="M1167.16,-125.99C1151.87,-129.79 1135.82,-133.78 1120.95,-137.47"/>
<polygon fill="midnightblue" stroke="midnightblue" points="1168.22,-129.33 1177.08,-123.52 1166.53,-122.54 1168.22,-129.33"/>
</g>
<!-- Node17 -->
<g id="node17" class="node">
<title>Node17</title>
<g id="a_node17"><a xlink:href="classplant_1_1Assimilator.html#a31ccc72fe7255233a1640d1f708eebc7" target="_top" xlink:title="Calculate leaf and fine&#45;root turnover rates.">
<polygon fill="none" stroke="black" points="1003,-186.5 1003,-216.5 1116,-216.5 1116,-186.5 1003,-186.5"/>
<text text-anchor="start" x="1011" y="-204.5" font-family="Helvetica,sans-Serif" font-size="10.00">plant::Assimilator</text>
<text text-anchor="middle" x="1059.5" y="-193.5" font-family="Helvetica,sans-Serif" font-size="10.00">::root_turnover_rate</text>
</a>
</g>
</g>
<!-- Node1&#45;&gt;Node17 -->
<g id="edge23" class="edge">
<title>Node1&#45;&gt;Node17</title>
<path fill="none" stroke="midnightblue" d="M1210.35,-129.94C1190.82,-144.58 1163.37,-163.59 1137,-176.5 1129.47,-180.19 1121.27,-183.52 1113.12,-186.46"/>
<polygon fill="midnightblue" stroke="midnightblue" points="1212.63,-132.6 1218.47,-123.76 1208.39,-127.03 1212.63,-132.6"/>
</g>
<!-- Node18 -->
<g id="node18" class="node">
<title>Node18</title>
<g id="a_node18"><a xlink:href="classplant_1_1PlantArchitecture.html#a93ab8f81042a6f39a158aea24ed17ed2" target="_top" xlink:title="Get biomass in various carbon pools.">
<polygon fill="none" stroke="black" points="994,-49.5 994,-79.5 1125,-79.5 1125,-49.5 994,-49.5"/>
<text text-anchor="start" x="1002" y="-67.5" font-family="Helvetica,sans-Serif" font-size="10.00">plant::PlantArchitecture</text>
<text text-anchor="middle" x="1059.5" y="-56.5" font-family="Helvetica,sans-Serif" font-size="10.00">::total_mass</text>
</a>
</g>
</g>
<!-- Node1&#45;&gt;Node18 -->
<g id="edge25" class="edge">
<title>Node1&#45;&gt;Node18</title>
<path fill="none" stroke="midnightblue" d="M1167.16,-91.01C1151.87,-87.21 1135.82,-83.22 1120.95,-79.53"/>
<polygon fill="midnightblue" stroke="midnightblue" points="1166.53,-94.46 1177.08,-93.48 1168.22,-87.67 1166.53,-94.46"/>
</g>
<!-- Node19 -->
<g id="node19" class="node">
<title>Node19</title>
<g id="a_node19"><a xlink:href="classpfate_1_1CommunityProperties.html#a81a6aaa8387766442c2e9da98b2566f5" target="_top" xlink:title=" ">
<polygon fill="none" stroke="black" points="982,-0.5 982,-30.5 1137,-30.5 1137,-0.5 982,-0.5"/>
<text text-anchor="start" x="990" y="-18.5" font-family="Helvetica,sans-Serif" font-size="10.00">pfate::CommunityProperties</text>
<text text-anchor="middle" x="1059.5" y="-7.5" font-family="Helvetica,sans-Serif" font-size="10.00">::update</text>
</a>
</g>
</g>
<!-- Node1&#45;&gt;Node19 -->
<g id="edge26" class="edge">
<title>Node1&#45;&gt;Node19</title>
<path fill="none" stroke="midnightblue" d="M1211.17,-87.18C1191.64,-72.19 1163.86,-52.57 1137,-39.5 1130.24,-36.21 1122.93,-33.24 1115.6,-30.6"/>
<polygon fill="midnightblue" stroke="midnightblue" points="1209.23,-90.1 1219.27,-93.49 1213.53,-84.58 1209.23,-90.1"/>
</g>
<!-- Node3 -->
<g id="node3" class="node">
<title>Node3</title>
<g id="a_node3"><a xlink:href="classpfate_1_1LifeHistoryOptimizer.html#a54629ecd5847e8354ce3d3293d964a69" target="_top" xlink:title=" ">
<polygon fill="none" stroke="black" points="311,-95.5 311,-125.5 460,-125.5 460,-95.5 311,-95.5"/>
<text text-anchor="start" x="319" y="-113.5" font-family="Helvetica,sans-Serif" font-size="10.00">pfate::LifeHistoryOptimizer</text>
<text text-anchor="middle" x="385.5" y="-102.5" font-family="Helvetica,sans-Serif" font-size="10.00">::printState</text>
</a>
</g>
</g>
<!-- Node2&#45;&gt;Node3 -->
<g id="edge2" class="edge">
<title>Node2&#45;&gt;Node3</title>
<path fill="none" stroke="midnightblue" d="M485.61,-109.42C477.16,-109.51 468.62,-109.6 460.29,-109.69"/>
<polygon fill="midnightblue" stroke="midnightblue" points="485.9,-112.91 495.86,-109.3 485.82,-105.91 485.9,-112.91"/>
</g>
<!-- Node5 -->
<g id="node5" class="node">
<title>Node5</title>
<g id="a_node5"><a xlink:href="r__interface_8cpp.html#a7897b94cdc1a829775ac5241571cd456" target="_top" xlink:title=" ">
<polygon fill="none" stroke="black" points="0,-71 0,-90 90,-90 90,-71 0,-71"/>
<text text-anchor="middle" x="45" y="-78" font-family="Helvetica,sans-Serif" font-size="10.00">RCPP_MODULE</text>
</a>
</g>
</g>
<!-- Node2&#45;&gt;Node5 -->
<g id="edge4" class="edge">
<title>Node2&#45;&gt;Node5</title>
<path fill="none" stroke="midnightblue" d="M545.58,-86.75C524.7,-69.35 492.71,-46.29 460,-36.5 318.05,5.99 137.96,-47.79 71.84,-70.9"/>
<polygon fill="midnightblue" stroke="midnightblue" points="543.4,-89.5 553.28,-93.34 547.95,-84.18 543.4,-89.5"/>
</g>
<!-- Node4 -->
<g id="node4" class="node">
<title>Node4</title>
<g id="a_node4"><a xlink:href="lho_8cpp.html#ae66f6b31b5ad750f1fe042a706a4e3d4" target="_top" xlink:title=" ">
<polygon fill="none" stroke="black" points="180,-166 180,-185 221,-185 221,-166 180,-166"/>
<text text-anchor="middle" x="200.5" y="-173" font-family="Helvetica,sans-Serif" font-size="10.00">main</text>
</a>
</g>
</g>
<!-- Node3&#45;&gt;Node4 -->
<g id="edge3" class="edge">
<title>Node3&#45;&gt;Node4</title>
<path fill="none" stroke="midnightblue" d="M327.81,-128.74C322.12,-130.65 316.44,-132.6 311,-134.5 279.39,-145.57 243.04,-159.4 221.19,-167.84"/>
<polygon fill="midnightblue" stroke="midnightblue" points="328.97,-132.05 337.35,-125.57 326.75,-125.41 328.97,-132.05"/>
</g>
<!-- Node7 -->
<g id="node7" class="node">
<title>Node7</title>
<g id="a_node7"><a xlink:href="classplant_1_1Assimilator.html#ade28356f5c19a8033b3781308f21202a" target="_top" xlink:title="Calculate whole&#45;plant net assimilation.">
<polygon fill="none" stroke="black" points="843,-183.5 843,-213.5 946,-213.5 946,-183.5 843,-183.5"/>
<text text-anchor="start" x="851" y="-201.5" font-family="Helvetica,sans-Serif" font-size="10.00">plant::Assimilator</text>
<text text-anchor="middle" x="894.5" y="-190.5" font-family="Helvetica,sans-Serif" font-size="10.00">::net_production</text>
</a>
</g>
</g>
<!-- Node6&#45;&gt;Node7 -->
<g id="edge6" class="edge">
<title>Node6&#45;&gt;Node7</title>
<path fill="none" stroke="midnightblue" d="M995.18,-170.37C978.96,-174.95 961.72,-179.81 946.22,-184.19"/>
<polygon fill="midnightblue" stroke="midnightblue" points="996.45,-173.65 1005.13,-167.56 994.55,-166.91 996.45,-173.65"/>
</g>
<!-- Node8 -->
<g id="node8" class="node">
<title>Node8</title>
<g id="a_node8"><a xlink:href="group__libpspm__interface.html#ga6c9356733f84aca1d7bc6980bc97f157" target="_top" xlink:title=" ">
<polygon fill="none" stroke="black" points="512.5,-145.5 512.5,-175.5 628.5,-175.5 628.5,-145.5 512.5,-145.5"/>
<text text-anchor="start" x="520.5" y="-163.5" font-family="Helvetica,sans-Serif" font-size="10.00">plant::Plant::calc</text>
<text text-anchor="middle" x="570.5" y="-152.5" font-family="Helvetica,sans-Serif" font-size="10.00">_demographic_rates</text>
</a>
</g>
</g>
<!-- Node7&#45;&gt;Node8 -->
<g id="edge7" class="edge">
<title>Node7&#45;&gt;Node8</title>
<path fill="none" stroke="midnightblue" d="M832.51,-194.39C789.95,-191.19 731.89,-186.18 681,-179.5 663.97,-177.27 645.55,-174.29 628.76,-171.35"/>
<polygon fill="midnightblue" stroke="midnightblue" points="832.48,-197.9 842.71,-195.14 832.99,-190.92 832.48,-197.9"/>
</g>
<!-- Node12 -->
<g id="node12" class="node">
<title>Node12</title>
<g id="a_node12"><a xlink:href="classplant_1_1Plant.html#a48612779a5850cca9cc6f6caff1ccb8b" target="_top" xlink:title="LAI model.">
<polygon fill="none" stroke="black" points="681,-151 681,-170 807,-170 807,-151 681,-151"/>
<text text-anchor="middle" x="744" y="-158" font-family="Helvetica,sans-Serif" font-size="10.00">plant::Plant::lai_model</text>
</a>
</g>
</g>
<!-- Node7&#45;&gt;Node12 -->
<g id="edge15" class="edge">
<title>Node7&#45;&gt;Node12</title>
<path fill="none" stroke="midnightblue" d="M832.88,-182.99C815.76,-178.61 797.65,-173.97 782.34,-170.05"/>
<polygon fill="midnightblue" stroke="midnightblue" points="832.25,-186.44 842.81,-185.53 833.99,-179.66 832.25,-186.44"/>
</g>
<!-- Node13 -->
<g id="node13" class="node">
<title>Node13</title>
<g id="a_node13"><a xlink:href="classplant_1_1Plant.html#a03c45eaaabce7ff0287598818dc4847f" target="_top" xlink:title="Probability of survival during germination (i.e. until recruitment stage)">
<polygon fill="none" stroke="black" points="506.5,-232.5 506.5,-262.5 634.5,-262.5 634.5,-232.5 506.5,-232.5"/>
<text text-anchor="start" x="514.5" y="-250.5" font-family="Helvetica,sans-Serif" font-size="10.00">plant::Plant::p_survival</text>
<text text-anchor="middle" x="570.5" y="-239.5" font-family="Helvetica,sans-Serif" font-size="10.00">_germination</text>
</a>
</g>
</g>
<!-- Node7&#45;&gt;Node13 -->
<g id="edge17" class="edge">
<title>Node7&#45;&gt;Node13</title>
<path fill="none" stroke="midnightblue" d="M832.94,-207.72C776.3,-216.34 692.03,-229.16 634.59,-237.9"/>
<polygon fill="midnightblue" stroke="midnightblue" points="833.47,-211.17 842.83,-206.21 832.42,-204.25 833.47,-211.17"/>
</g>
<!-- Node8&#45;&gt;Node4 -->
<g id="edge13" class="edge">
<title>Node8&#45;&gt;Node4</title>
<path fill="none" stroke="midnightblue" d="M502.45,-176.87C488.5,-179.63 473.84,-182.06 460,-183.5 371.13,-192.73 264.22,-182.78 221.02,-177.89"/>
<polygon fill="midnightblue" stroke="midnightblue" points="503.36,-180.25 512.46,-174.81 501.96,-173.4 503.36,-180.25"/>
</g>
<!-- Node9 -->
<g id="node9" class="node">
<title>Node9</title>
<g id="a_node9"><a xlink:href="classpfate_1_1LifeHistoryOptimizer.html#ad68ae2c0d92d28dbe0cc5d5ef03a695b" target="_top" xlink:title=" ">
<polygon fill="none" stroke="black" points="311,-46.5 311,-76.5 460,-76.5 460,-46.5 311,-46.5"/>
<text text-anchor="start" x="319" y="-64.5" font-family="Helvetica,sans-Serif" font-size="10.00">pfate::LifeHistoryOptimizer</text>
<text text-anchor="middle" x="385.5" y="-53.5" font-family="Helvetica,sans-Serif" font-size="10.00">::grow_for_dt</text>
</a>
</g>
</g>
<!-- Node8&#45;&gt;Node9 -->
<g id="edge8" class="edge">
<title>Node8&#45;&gt;Node9</title>
<path fill="none" stroke="midnightblue" d="M509.35,-140.87C504.65,-138.37 500.14,-135.58 496,-132.5 474.9,-116.77 481.47,-100.71 460,-85.5 455.18,-82.09 449.85,-79.14 444.32,-76.59"/>
<polygon fill="midnightblue" stroke="midnightblue" points="508.02,-144.12 518.54,-145.35 511.08,-137.82 508.02,-144.12"/>
</g>
<!-- Node11 -->
<g id="node11" class="node">
<title>Node11</title>
<g id="a_node11"><a xlink:href="group__libpspm__interface.html#gac98af9ecd8e8391fd5afbcd276603e51" target="_top" xlink:title=" ">
<polygon fill="none" stroke="black" points="330,-144.5 330,-174.5 441,-174.5 441,-144.5 330,-144.5"/>
<text text-anchor="start" x="338" y="-162.5" font-family="Helvetica,sans-Serif" font-size="10.00">pfate::PSPM_Plant::</text>
<text text-anchor="middle" x="385.5" y="-151.5" font-family="Helvetica,sans-Serif" font-size="10.00">preCompute</text>
</a>
</g>
</g>
<!-- Node8&#45;&gt;Node11 -->
<g id="edge14" class="edge">
<title>Node8&#45;&gt;Node11</title>
<path fill="none" stroke="midnightblue" d="M502.3,-160.13C482.13,-160.02 460.27,-159.9 441.03,-159.8"/>
<polygon fill="midnightblue" stroke="midnightblue" points="502.33,-163.63 512.35,-160.19 502.37,-156.63 502.33,-163.63"/>
</g>
<!-- Node9&#45;&gt;Node4 -->
<g id="edge11" class="edge">
<title>Node9&#45;&gt;Node4</title>
<path fill="none" stroke="midnightblue" d="M318.56,-81.01C315.95,-82.41 313.42,-83.91 311,-85.5 290.76,-98.85 293.25,-110.53 275,-126.5 257.12,-142.16 233.94,-156.82 218.44,-165.95"/>
<polygon fill="midnightblue" stroke="midnightblue" points="320.2,-84.1 327.67,-76.59 317.15,-77.8 320.2,-84.1"/>
</g>
<!-- Node9&#45;&gt;Node5 -->
<g id="edge12" class="edge">
<title>Node9&#45;&gt;Node5</title>
<path fill="none" stroke="midnightblue" d="M300.57,-66.21C233.93,-69.95 143.4,-75.03 90.19,-78.02"/>
<polygon fill="midnightblue" stroke="midnightblue" points="300.84,-69.7 310.63,-65.65 300.45,-62.71 300.84,-69.7"/>
</g>
<!-- Node10 -->
<g id="node10" class="node">
<title>Node10</title>
<g id="a_node10"><a xlink:href="classpfate_1_1LifeHistoryOptimizer.html#a34aebe9641428e3d0bcb1d59ec936e8f" target="_top" xlink:title=" ">
<polygon fill="none" stroke="black" points="126,-87.5 126,-117.5 275,-117.5 275,-87.5 126,-87.5"/>
<text text-anchor="start" x="134" y="-105.5" font-family="Helvetica,sans-Serif" font-size="10.00">pfate::LifeHistoryOptimizer</text>
<text text-anchor="middle" x="200.5" y="-94.5" font-family="Helvetica,sans-Serif" font-size="10.00">::calcFitness</text>
</a>
</g>
</g>
<!-- Node9&#45;&gt;Node10 -->
<g id="edge9" class="edge">
<title>Node9&#45;&gt;Node10</title>
<path fill="none" stroke="midnightblue" d="M307.59,-78.73C294.63,-81.63 281.28,-84.63 268.6,-87.47"/>
<polygon fill="midnightblue" stroke="midnightblue" points="308.4,-82.14 317.4,-76.53 306.87,-75.31 308.4,-82.14"/>
</g>
<!-- Node10&#45;&gt;Node5 -->
<g id="edge10" class="edge">
<title>Node10&#45;&gt;Node5</title>
<path fill="none" stroke="midnightblue" d="M115.93,-90.52C107.12,-89.26 98.43,-88.01 90.33,-86.85"/>
<polygon fill="midnightblue" stroke="midnightblue" points="115.5,-94 125.9,-91.95 116.49,-87.07 115.5,-94"/>
</g>
<!-- Node12&#45;&gt;Node8 -->
<g id="edge16" class="edge">
<title>Node12&#45;&gt;Node8</title>
<path fill="none" stroke="midnightblue" d="M670.54,-160.5C656.57,-160.5 642.13,-160.5 628.73,-160.5"/>
<polygon fill="midnightblue" stroke="midnightblue" points="670.6,-164 680.6,-160.5 670.6,-157 670.6,-164"/>
</g>
<!-- Node14 -->
<g id="node14" class="node">
<title>Node14</title>
<g id="a_node14"><a xlink:href="group__libpspm__interface.html#ga98991525cfbe254180dda76a24df6246" target="_top" xlink:title=" ">
<polygon fill="none" stroke="black" points="316,-281.5 316,-311.5 455,-311.5 455,-281.5 316,-281.5"/>
<text text-anchor="start" x="324" y="-299.5" font-family="Helvetica,sans-Serif" font-size="10.00">pfate::PSPM_Plant::</text>
<text text-anchor="middle" x="385.5" y="-288.5" font-family="Helvetica,sans-Serif" font-size="10.00">establishmentProbability</text>
</a>
</g>
</g>
<!-- Node13&#45;&gt;Node14 -->
<g id="edge18" class="edge">
<title>Node13&#45;&gt;Node14</title>
<path fill="none" stroke="midnightblue" d="M503.21,-265.25C483.38,-270.56 461.83,-276.33 442.71,-281.45"/>
<polygon fill="midnightblue" stroke="midnightblue" points="504.35,-268.57 513.1,-262.6 502.54,-261.81 504.35,-268.57"/>
</g>
<!-- Node16 -->
<g id="node16" class="node">
<title>Node16</title>
<g id="a_node16"><a xlink:href="classpfate_1_1LifeHistoryOptimizer.html#a498360fd80194590570542dcecd524c7" target="_top" xlink:title=" ">
<polygon fill="none" stroke="black" points="311,-232.5 311,-262.5 460,-262.5 460,-232.5 311,-232.5"/>
<text text-anchor="start" x="319" y="-250.5" font-family="Helvetica,sans-Serif" font-size="10.00">pfate::LifeHistoryOptimizer</text>
<text text-anchor="middle" x="385.5" y="-239.5" font-family="Helvetica,sans-Serif" font-size="10.00">::init</text>
</a>
</g>
</g>
<!-- Node13&#45;&gt;Node16 -->
<g id="edge20" class="edge">
<title>Node13&#45;&gt;Node16</title>
<path fill="none" stroke="midnightblue" d="M496,-247.5C484.18,-247.5 471.94,-247.5 460.12,-247.5"/>
<polygon fill="midnightblue" stroke="midnightblue" points="496.27,-251 506.27,-247.5 496.27,-244 496.27,-251"/>
</g>
<!-- Node15 -->
<g id="node15" class="node">
<title>Node15</title>
<g id="a_node15"><a xlink:href="classpfate_1_1PSPM__Plant.html#a2422f6eebeee0e4d590e155b1563fd3f" target="_top" xlink:title=" ">
<polygon fill="none" stroke="black" points="145,-281.5 145,-311.5 256,-311.5 256,-281.5 145,-281.5"/>
<text text-anchor="start" x="153" y="-299.5" font-family="Helvetica,sans-Serif" font-size="10.00">pfate::PSPM_Plant::</text>
<text text-anchor="middle" x="200.5" y="-288.5" font-family="Helvetica,sans-Serif" font-size="10.00">init_accumulators</text>
</a>
</g>
</g>
<!-- Node14&#45;&gt;Node15 -->
<g id="edge19" class="edge">
<title>Node14&#45;&gt;Node15</title>
<path fill="none" stroke="midnightblue" d="M305.58,-296.5C288.95,-296.5 271.76,-296.5 256.26,-296.5"/>
<polygon fill="midnightblue" stroke="midnightblue" points="305.84,-300 315.84,-296.5 305.84,-293 305.84,-300"/>
</g>
<!-- Node16&#45;&gt;Node4 -->
<g id="edge21" class="edge">
<title>Node16&#45;&gt;Node4</title>
<path fill="none" stroke="midnightblue" d="M336.39,-228.57C298.82,-213.79 248.54,-194.01 221.21,-183.25"/>
<polygon fill="midnightblue" stroke="midnightblue" points="335.55,-232 346.14,-232.41 338.11,-225.49 335.55,-232"/>
</g>
<!-- Node16&#45;&gt;Node5 -->
<g id="edge22" class="edge">
<title>Node16&#45;&gt;Node5</title>
<path fill="none" stroke="midnightblue" d="M300.56,-245.91C246.82,-241.31 177.73,-228.43 126,-194.5 85.16,-167.71 58.96,-112.22 49.73,-90"/>
<polygon fill="midnightblue" stroke="midnightblue" points="300.51,-249.42 310.75,-246.7 301.05,-242.44 300.51,-249.42"/>
</g>
<!-- Node17&#45;&gt;Node7 -->
<g id="edge24" class="edge">
<title>Node17&#45;&gt;Node7</title>
<path fill="none" stroke="midnightblue" d="M992.8,-200.29C977.29,-200.01 960.97,-199.71 946.24,-199.43"/>
<polygon fill="midnightblue" stroke="midnightblue" points="992.8,-203.79 1002.86,-200.48 992.93,-196.79 992.8,-203.79"/>
</g>
</g>
</svg>
