<?xml version="1.0" encoding="UTF-8" standalone="no"?>
<!DOCTYPE svg PUBLIC "-//W3C//DTD SVG 1.1//EN"
 "http://www.w3.org/Graphics/SVG/1.1/DTD/svg11.dtd">
<!-- Generated by graphviz version 2.43.0 (0)
 -->
<!-- Title: plant::Assimilator::net_production Pages: 1 -->
<svg width="664pt" height="371pt"
 viewBox="0.00 0.00 664.00 370.50" xmlns="http://www.w3.org/2000/svg" xmlns:xlink="http://www.w3.org/1999/xlink">
<g id="graph0" class="graph" transform="scale(1 1) rotate(0) translate(4 366.5)">
<title>plant::Assimilator::net_production</title>
<!-- Node1 -->
<g id="node1" class="node">
<title>Node1</title>
<g id="a_node1"><a xlink:title="Calculate whole&#45;plant net assimilation.">
<polygon fill="#bfbfbf" stroke="black" points="0,-147.5 0,-177.5 103,-177.5 103,-147.5 0,-147.5"/>
<text text-anchor="start" x="8" y="-165.5" font-family="Helvetica,sans-Serif" font-size="10.00">plant::Assimilator</text>
<text text-anchor="middle" x="51.5" y="-154.5" font-family="Helvetica,sans-Serif" font-size="10.00">::net_production</text>
</a>
</g>
</g>
<!-- Node2 -->
<g id="node2" class="node">
<title>Node2</title>
<g id="a_node2"><a xlink:href="classplant_1_1Assimilator.html#ac0e69ab9225a2d1be337b10446cfa126" target="_top" xlink:title="Calculate whole&#45;plant gross assimilation, transpiration, gs, etc.">
<polygon fill="none" stroke="black" points="139,-294.5 139,-324.5 301,-324.5 301,-294.5 139,-294.5"/>
<text text-anchor="start" x="147" y="-312.5" font-family="Helvetica,sans-Serif" font-size="10.00">plant::Assimilator</text>
<text text-anchor="middle" x="220" y="-301.5" font-family="Helvetica,sans-Serif" font-size="10.00">::calc_plant_assimilation_rate</text>
</a>
</g>
</g>
<!-- Node1&#45;&gt;Node2 -->
<g id="edge1" class="edge">
<title>Node1&#45;&gt;Node2</title>
<path fill="none" stroke="midnightblue" d="M59.14,-177.85C71.2,-203.92 99.19,-256.8 139,-285.5 141.06,-286.98 143.21,-288.38 145.43,-289.69"/>
<polygon fill="midnightblue" stroke="midnightblue" points="143.81,-292.79 154.3,-294.32 147.06,-286.59 143.81,-292.79"/>
</g>
<!-- Node7 -->
<g id="node7" class="node">
<title>Node7</title>
<g id="a_node7"><a xlink:href="classplant_1_1Assimilator.html#ad33549c793850f11330fd48829367c55" target="_top" xlink:title="Calculate leaf and fine&#45;root respiration rates.">
<polygon fill="none" stroke="black" points="158,-245.5 158,-275.5 282,-275.5 282,-245.5 158,-245.5"/>
<text text-anchor="start" x="166" y="-263.5" font-family="Helvetica,sans-Serif" font-size="10.00">plant::Assimilator</text>
<text text-anchor="middle" x="220" y="-252.5" font-family="Helvetica,sans-Serif" font-size="10.00">::leaf_respiration_rate</text>
</a>
</g>
</g>
<!-- Node1&#45;&gt;Node7 -->
<g id="edge6" class="edge">
<title>Node1&#45;&gt;Node7</title>
<path fill="none" stroke="midnightblue" d="M66.38,-177.68C82.38,-194.34 110.2,-220.78 139,-236.5 142.31,-238.31 145.78,-240 149.33,-241.57"/>
<polygon fill="midnightblue" stroke="midnightblue" points="148.32,-244.94 158.9,-245.48 150.97,-238.46 148.32,-244.94"/>
</g>
<!-- Node8 -->
<g id="node8" class="node">
<title>Node8</title>
<g id="a_node8"><a xlink:href="classplant_1_1Assimilator.html#a0da26c8e10a188774954652ec0402e09" target="_top" xlink:title="Calculate leaf and fine&#45;root turnover rates.">
<polygon fill="none" stroke="black" points="163.5,-196.5 163.5,-226.5 276.5,-226.5 276.5,-196.5 163.5,-196.5"/>
<text text-anchor="start" x="171.5" y="-214.5" font-family="Helvetica,sans-Serif" font-size="10.00">plant::Assimilator</text>
<text text-anchor="middle" x="220" y="-203.5" font-family="Helvetica,sans-Serif" font-size="10.00">::leaf_turnover_rate</text>
</a>
</g>
</g>
<!-- Node1&#45;&gt;Node8 -->
<g id="edge7" class="edge">
<title>Node1&#45;&gt;Node8</title>
<path fill="none" stroke="midnightblue" d="M103.36,-177.47C120.63,-182.55 140.1,-188.28 158.07,-193.57"/>
<polygon fill="midnightblue" stroke="midnightblue" points="157.3,-196.99 167.88,-196.45 159.27,-190.27 157.3,-196.99"/>
</g>
<!-- Node10 -->
<g id="node10" class="node">
<title>Node10</title>
<g id="a_node10"><a xlink:href="classplant_1_1Assimilator.html#a07a83723c0f4cc6e98968dfb241c6ce7" target="_top" xlink:title="Leaf economics &#45; calculate optimal leaf lifespan.">
<polygon fill="none" stroke="black" points="157.5,-147.5 157.5,-177.5 282.5,-177.5 282.5,-147.5 157.5,-147.5"/>
<text text-anchor="start" x="165.5" y="-165.5" font-family="Helvetica,sans-Serif" font-size="10.00">plant::Assimilator</text>
<text text-anchor="middle" x="220" y="-154.5" font-family="Helvetica,sans-Serif" font-size="10.00">::les_update_lifespans</text>
</a>
</g>
</g>
<!-- Node1&#45;&gt;Node10 -->
<g id="edge9" class="edge">
<title>Node1&#45;&gt;Node10</title>
<path fill="none" stroke="midnightblue" d="M103.36,-162.5C117.19,-162.5 132.44,-162.5 147.19,-162.5"/>
<polygon fill="midnightblue" stroke="midnightblue" points="147.3,-166 157.3,-162.5 147.3,-159 147.3,-166"/>
</g>
<!-- Node11 -->
<g id="node11" class="node">
<title>Node11</title>
<g id="a_node11"><a xlink:href="classplant_1_1Assimilator.html#aeedad55e35be6fa1d908731a123e2c4f" target="_top" xlink:title="Calculate leaf and fine&#45;root respiration rates.">
<polygon fill="none" stroke="black" points="157.5,-98.5 157.5,-128.5 282.5,-128.5 282.5,-98.5 157.5,-98.5"/>
<text text-anchor="start" x="165.5" y="-116.5" font-family="Helvetica,sans-Serif" font-size="10.00">plant::Assimilator</text>
<text text-anchor="middle" x="220" y="-105.5" font-family="Helvetica,sans-Serif" font-size="10.00">::root_respiration_rate</text>
</a>
</g>
</g>
<!-- Node1&#45;&gt;Node11 -->
<g id="edge10" class="edge">
<title>Node1&#45;&gt;Node11</title>
<path fill="none" stroke="midnightblue" d="M103.36,-147.53C120.63,-142.45 140.1,-136.72 158.07,-131.43"/>
<polygon fill="midnightblue" stroke="midnightblue" points="159.27,-134.73 167.88,-128.55 157.3,-128.01 159.27,-134.73"/>
</g>
<!-- Node13 -->
<g id="node13" class="node">
<title>Node13</title>
<g id="a_node13"><a xlink:href="classplant_1_1Assimilator.html#a31ccc72fe7255233a1640d1f708eebc7" target="_top" xlink:title="Calculate leaf and fine&#45;root turnover rates.">
<polygon fill="none" stroke="black" points="163.5,-49.5 163.5,-79.5 276.5,-79.5 276.5,-49.5 163.5,-49.5"/>
<text text-anchor="start" x="171.5" y="-67.5" font-family="Helvetica,sans-Serif" font-size="10.00">plant::Assimilator</text>
<text text-anchor="middle" x="220" y="-56.5" font-family="Helvetica,sans-Serif" font-size="10.00">::root_turnover_rate</text>
</a>
</g>
</g>
<!-- Node1&#45;&gt;Node13 -->
<g id="edge12" class="edge">
<title>Node1&#45;&gt;Node13</title>
<path fill="none" stroke="midnightblue" d="M66.74,-147.3C82.86,-130.92 110.58,-105.1 139,-89.5 143.7,-86.92 148.71,-84.56 153.84,-82.42"/>
<polygon fill="midnightblue" stroke="midnightblue" points="155.11,-85.68 163.16,-78.79 152.57,-79.16 155.11,-85.68"/>
</g>
<!-- Node14 -->
<g id="node14" class="node">
<title>Node14</title>
<g id="a_node14"><a xlink:href="classplant_1_1Assimilator.html#ad1f356c7c009ad495c9e9a3994c92fd3" target="_top" xlink:title="Calculate leaf and fine&#45;root respiration rates.">
<polygon fill="none" stroke="black" points="145.5,-0.5 145.5,-30.5 294.5,-30.5 294.5,-0.5 145.5,-0.5"/>
<text text-anchor="start" x="153.5" y="-18.5" font-family="Helvetica,sans-Serif" font-size="10.00">plant::Assimilator</text>
<text text-anchor="middle" x="220" y="-7.5" font-family="Helvetica,sans-Serif" font-size="10.00">::sapwood_respiration_rate</text>
</a>
</g>
</g>
<!-- Node1&#45;&gt;Node14 -->
<g id="edge14" class="edge">
<title>Node1&#45;&gt;Node14</title>
<path fill="none" stroke="midnightblue" d="M59.14,-147.15C71.2,-121.08 99.19,-68.2 139,-39.5 141.06,-38.02 143.21,-36.62 145.43,-35.31"/>
<polygon fill="midnightblue" stroke="midnightblue" points="147.06,-38.41 154.3,-30.68 143.81,-32.21 147.06,-38.41"/>
</g>
<!-- Node3 -->
<g id="node3" class="node">
<title>Node3</title>
<g id="a_node3"><a xlink:href="group__ppa__module.html#ga4c6834623dae9423d2981a0b28b0f155" target="_top" xlink:title="Realized crown projection area at height z.">
<polygon fill="none" stroke="black" points="337,-318.5 337,-348.5 468,-348.5 468,-318.5 337,-318.5"/>
<text text-anchor="start" x="345" y="-336.5" font-family="Helvetica,sans-Serif" font-size="10.00">plant::PlantArchitecture</text>
<text text-anchor="middle" x="402.5" y="-325.5" font-family="Helvetica,sans-Serif" font-size="10.00">::crown_area_above</text>
</a>
</g>
</g>
<!-- Node2&#45;&gt;Node3 -->
<g id="edge2" class="edge">
<title>Node2&#45;&gt;Node3</title>
<path fill="none" stroke="midnightblue" d="M301.22,-320.17C309.72,-321.3 318.34,-322.44 326.78,-323.56"/>
<polygon fill="midnightblue" stroke="midnightblue" points="326.58,-327.07 336.95,-324.92 327.5,-320.13 326.58,-327.07"/>
</g>
<!-- Node6 -->
<g id="node6" class="node">
<title>Node6</title>
<g id="a_node6"><a xlink:href="classplant_1_1Assimilator.html#a01115927f79cc407240f59af57c12d17" target="_top" xlink:title="Calculate leaf&#45;level assimilation rate using the Phydro model ///.">
<polygon fill="none" stroke="black" points="337,-269.5 337,-299.5 468,-299.5 468,-269.5 337,-269.5"/>
<text text-anchor="start" x="345" y="-287.5" font-family="Helvetica,sans-Serif" font-size="10.00">plant::Assimilator</text>
<text text-anchor="middle" x="402.5" y="-276.5" font-family="Helvetica,sans-Serif" font-size="10.00">::leaf_assimilation_rate</text>
</a>
</g>
</g>
<!-- Node2&#45;&gt;Node6 -->
<g id="edge5" class="edge">
<title>Node2&#45;&gt;Node6</title>
<path fill="none" stroke="midnightblue" d="M301.22,-298.39C309.72,-297.21 318.34,-296.02 326.78,-294.85"/>
<polygon fill="midnightblue" stroke="midnightblue" points="327.53,-298.28 336.95,-293.44 326.57,-291.35 327.53,-298.28"/>
</g>
<!-- Node4 -->
<g id="node4" class="node">
<title>Node4</title>
<g id="a_node4"><a xlink:href="classplant_1_1PlantArchitecture.html#a81452fb0a56656f176f653d3bf9650d9" target="_top" xlink:title="Vertical profiles of crown and stem">
<polygon fill="none" stroke="black" points="508.5,-343 508.5,-362 651.5,-362 651.5,-343 508.5,-343"/>
<text text-anchor="middle" x="580" y="-350" font-family="Helvetica,sans-Serif" font-size="10.00">plant::PlantArchitecture::q</text>
</a>
</g>
</g>
<!-- Node3&#45;&gt;Node4 -->
<g id="edge3" class="edge">
<title>Node3&#45;&gt;Node4</title>
<path fill="none" stroke="midnightblue" d="M468.35,-340.52C478.09,-341.58 488.24,-342.67 498.26,-343.76"/>
<polygon fill="midnightblue" stroke="midnightblue" points="497.9,-347.24 508.22,-344.84 498.65,-340.28 497.9,-347.24"/>
</g>
<!-- Node5 -->
<g id="node5" class="node">
<title>Node5</title>
<g id="a_node5"><a xlink:href="classplant_1_1PlantArchitecture.html#a4d571b1b0165d995f3d2ca0fe21a4b28" target="_top" xlink:title="The height at which crown radius is maximum.">
<polygon fill="none" stroke="black" points="504,-305 504,-324 656,-324 656,-305 504,-305"/>
<text text-anchor="middle" x="580" y="-312" font-family="Helvetica,sans-Serif" font-size="10.00">plant::PlantArchitecture::zm</text>
</a>
</g>
</g>
<!-- Node3&#45;&gt;Node5 -->
<g id="edge4" class="edge">
<title>Node3&#45;&gt;Node5</title>
<path fill="none" stroke="midnightblue" d="M468.35,-326.48C476.63,-325.58 485.21,-324.65 493.75,-323.73"/>
<polygon fill="midnightblue" stroke="midnightblue" points="494.18,-327.2 503.74,-322.65 493.42,-320.24 494.18,-327.2"/>
</g>
<!-- Node9 -->
<g id="node9" class="node">
<title>Node9</title>
<g id="a_node9"><a xlink:href="classplant_1_1PlantArchitecture.html#a36ebf17a1799f27ce12bd27f637f88a9" target="_top" xlink:title="Get biomass in various carbon pools.">
<polygon fill="none" stroke="black" points="337,-196.5 337,-226.5 468,-226.5 468,-196.5 337,-196.5"/>
<text text-anchor="start" x="345" y="-214.5" font-family="Helvetica,sans-Serif" font-size="10.00">plant::PlantArchitecture</text>
<text text-anchor="middle" x="402.5" y="-203.5" font-family="Helvetica,sans-Serif" font-size="10.00">::leaf_mass</text>
</a>
</g>
</g>
<!-- Node8&#45;&gt;Node9 -->
<g id="edge8" class="edge">
<title>Node8&#45;&gt;Node9</title>
<path fill="none" stroke="midnightblue" d="M276.63,-211.5C292.41,-211.5 309.86,-211.5 326.59,-211.5"/>
<polygon fill="midnightblue" stroke="midnightblue" points="326.89,-215 336.88,-211.5 326.88,-208 326.89,-215"/>
</g>
<!-- Node12 -->
<g id="node12" class="node">
<title>Node12</title>
<g id="a_node12"><a xlink:href="classplant_1_1PlantArchitecture.html#af767ab32b2c9aff347144ce7dff349be" target="_top" xlink:title="Get biomass in various carbon pools.">
<polygon fill="none" stroke="black" points="337,-73.5 337,-103.5 468,-103.5 468,-73.5 337,-73.5"/>
<text text-anchor="start" x="345" y="-91.5" font-family="Helvetica,sans-Serif" font-size="10.00">plant::PlantArchitecture</text>
<text text-anchor="middle" x="402.5" y="-80.5" font-family="Helvetica,sans-Serif" font-size="10.00">::root_mass</text>
</a>
</g>
</g>
<!-- Node11&#45;&gt;Node12 -->
<g id="edge11" class="edge">
<title>Node11&#45;&gt;Node12</title>
<path fill="none" stroke="midnightblue" d="M282.61,-104.97C296.8,-103 312.05,-100.89 326.73,-98.86"/>
<polygon fill="midnightblue" stroke="midnightblue" points="327.35,-102.3 336.78,-97.46 326.39,-95.37 327.35,-102.3"/>
</g>
<!-- Node13&#45;&gt;Node12 -->
<g id="edge13" class="edge">
<title>Node13&#45;&gt;Node12</title>
<path fill="none" stroke="midnightblue" d="M276.63,-71.9C292.41,-74 309.86,-76.32 326.59,-78.54"/>
<polygon fill="midnightblue" stroke="midnightblue" points="326.51,-82.06 336.88,-79.91 327.43,-75.12 326.51,-82.06"/>
</g>
<!-- Node15 -->
<g id="node15" class="node">
<title>Node15</title>
<g id="a_node15"><a xlink:href="classplant_1_1PlantArchitecture.html#a0f95752c3574b4dfadb93e92582e5fa5" target="_top" xlink:title="Get biomass in various carbon pools.">
<polygon fill="none" stroke="black" points="337,-0.5 337,-30.5 468,-30.5 468,-0.5 337,-0.5"/>
<text text-anchor="start" x="345" y="-18.5" font-family="Helvetica,sans-Serif" font-size="10.00">plant::PlantArchitecture</text>
<text text-anchor="middle" x="402.5" y="-7.5" font-family="Helvetica,sans-Serif" font-size="10.00">::sapwood_mass</text>
</a>
</g>
</g>
<!-- Node14&#45;&gt;Node15 -->
<g id="edge15" class="edge">
<title>Node14&#45;&gt;Node15</title>
<path fill="none" stroke="midnightblue" d="M294.68,-15.5C305.24,-15.5 316.12,-15.5 326.7,-15.5"/>
<polygon fill="midnightblue" stroke="midnightblue" points="326.74,-19 336.74,-15.5 326.74,-12 326.74,-19"/>
</g>
<!-- Node16 -->
<g id="node16" class="node">
<title>Node16</title>
<g id="a_node16"><a xlink:href="classplant_1_1PlantArchitecture.html#a1fea368ef9182afc3aedfb76bcc4b3ee" target="_top" xlink:title="Get biomass in various carbon pools.">
<polygon fill="none" stroke="black" points="514.5,-0.5 514.5,-30.5 645.5,-30.5 645.5,-0.5 514.5,-0.5"/>
<text text-anchor="start" x="522.5" y="-18.5" font-family="Helvetica,sans-Serif" font-size="10.00">plant::PlantArchitecture</text>
<text text-anchor="middle" x="580" y="-7.5" font-family="Helvetica,sans-Serif" font-size="10.00">::stem_mass</text>
</a>
</g>
</g>
<!-- Node15&#45;&gt;Node16 -->
<g id="edge16" class="edge">
<title>Node15&#45;&gt;Node16</title>
<path fill="none" stroke="midnightblue" d="M468.35,-15.5C479.98,-15.5 492.19,-15.5 504.08,-15.5"/>
<polygon fill="midnightblue" stroke="midnightblue" points="504.42,-19 514.42,-15.5 504.42,-12 504.42,-19"/>
</g>
</g>
</svg>
