<?xml version="1.0" encoding="UTF-8" standalone="no"?>
<!DOCTYPE svg PUBLIC "-//W3C//DTD SVG 1.1//EN"
 "http://www.w3.org/Graphics/SVG/1.1/DTD/svg11.dtd">
<!-- Generated by graphviz version 2.43.0 (0)
 -->
<!-- Title: pfate::AdaptiveSpecies::AdaptiveSpecies Pages: 1 -->
<svg width="302pt" height="88pt"
 viewBox="0.00 0.00 302.00 88.00" xmlns="http://www.w3.org/2000/svg" xmlns:xlink="http://www.w3.org/1999/xlink">
<g id="graph0" class="graph" transform="scale(1 1) rotate(0) translate(4 84)">
<title>pfate::AdaptiveSpecies::AdaptiveSpecies</title>
<!-- Node1 -->
<g id="node1" class="node">
<title>Node1</title>
<g id="a_node1"><a xlink:title=" ">
<polygon fill="#bfbfbf" stroke="black" points="0,-24.5 0,-54.5 129,-54.5 129,-24.5 0,-24.5"/>
<text text-anchor="start" x="8" y="-42.5" font-family="Helvetica,sans-Serif" font-size="10.00">pfate::AdaptiveSpecies</text>
<text text-anchor="middle" x="64.5" y="-31.5" font-family="Helvetica,sans-Serif" font-size="10.00">::AdaptiveSpecies</text>
</a>
</g>
</g>
<!-- Node2 -->
<g id="node2" class="node">
<title>Node2</title>
<g id="a_node2"><a xlink:href="classpfate_1_1AdaptiveSpecies.html#a8b510f4ec1b129a3d141e8ec678921d1" target="_top" xlink:title=" ">
<polygon fill="none" stroke="black" points="165,-49.5 165,-79.5 294,-79.5 294,-49.5 165,-49.5"/>
<text text-anchor="start" x="173" y="-67.5" font-family="Helvetica,sans-Serif" font-size="10.00">pfate::AdaptiveSpecies</text>
<text text-anchor="middle" x="229.5" y="-56.5" font-family="Helvetica,sans-Serif" font-size="10.00">::get_traits</text>
</a>
</g>
</g>
<!-- Node1&#45;&gt;Node2 -->
<g id="edge1" class="edge">
<title>Node1&#45;&gt;Node2</title>
<path fill="none" stroke="midnightblue" d="M129.45,-49.31C137.85,-50.6 146.51,-51.92 155.05,-53.23"/>
<polygon fill="midnightblue" stroke="midnightblue" points="154.58,-56.7 165,-54.76 155.64,-49.78 154.58,-56.7"/>
</g>
<!-- Node3 -->
<g id="node3" class="node">
<title>Node3</title>
<g id="a_node3"><a xlink:href="classMovingAverager.html#a2aeb3873ec0fc25b9db25ba57a9a67a5" target="_top" xlink:title=" ">
<polygon fill="none" stroke="black" points="171,-0.5 171,-30.5 288,-30.5 288,-0.5 171,-0.5"/>
<text text-anchor="start" x="179" y="-18.5" font-family="Helvetica,sans-Serif" font-size="10.00">MovingAverager::set</text>
<text text-anchor="middle" x="229.5" y="-7.5" font-family="Helvetica,sans-Serif" font-size="10.00">_interval</text>
</a>
</g>
</g>
<!-- Node1&#45;&gt;Node3 -->
<g id="edge2" class="edge">
<title>Node1&#45;&gt;Node3</title>
<path fill="none" stroke="midnightblue" d="M129.45,-30.08C139.69,-28.58 150.31,-27.01 160.63,-25.49"/>
<polygon fill="midnightblue" stroke="midnightblue" points="161.45,-28.91 170.83,-23.99 160.43,-21.99 161.45,-28.91"/>
</g>
</g>
</svg>
