<?xml version="1.0" encoding="UTF-8" standalone="no"?>
<!DOCTYPE svg PUBLIC "-//W3C//DTD SVG 1.1//EN"
 "http://www.w3.org/Graphics/SVG/1.1/DTD/svg11.dtd">
<!-- Generated by graphviz version 2.43.0 (0)
 -->
<!-- Title: pfate::LifeHistoryOptimizer::get_state Pages: 1 -->
<svg width="500pt" height="214pt"
 viewBox="0.00 0.00 500.00 214.00" xmlns="http://www.w3.org/2000/svg" xmlns:xlink="http://www.w3.org/1999/xlink">
<g id="graph0" class="graph" transform="scale(1 1) rotate(0) translate(4 210)">
<title>pfate::LifeHistoryOptimizer::get_state</title>
<!-- Node1 -->
<g id="node1" class="node">
<title>Node1</title>
<g id="a_node1"><a xlink:title=" ">
<polygon fill="#bfbfbf" stroke="black" points="0,-93.5 0,-123.5 149,-123.5 149,-93.5 0,-93.5"/>
<text text-anchor="start" x="8" y="-111.5" font-family="Helvetica,sans-Serif" font-size="10.00">pfate::LifeHistoryOptimizer</text>
<text text-anchor="middle" x="74.5" y="-100.5" font-family="Helvetica,sans-Serif" font-size="10.00">::get_state</text>
</a>
</g>
</g>
<!-- Node2 -->
<g id="node2" class="node">
<title>Node2</title>
<g id="a_node2"><a xlink:href="classplant_1_1PlantArchitecture.html#aaf65bbe9f64372d21b76509f0463f944" target="_top" xlink:title="Get biomass in various carbon pools.">
<polygon fill="none" stroke="black" points="189.5,-175.5 189.5,-205.5 320.5,-205.5 320.5,-175.5 189.5,-175.5"/>
<text text-anchor="start" x="197.5" y="-193.5" font-family="Helvetica,sans-Serif" font-size="10.00">plant::PlantArchitecture</text>
<text text-anchor="middle" x="255" y="-182.5" font-family="Helvetica,sans-Serif" font-size="10.00">::coarse_root_mass</text>
</a>
</g>
</g>
<!-- Node1&#45;&gt;Node2 -->
<g id="edge1" class="edge">
<title>Node1&#45;&gt;Node2</title>
<path fill="none" stroke="midnightblue" d="M106.52,-123.57C128.38,-134.1 158.37,-148.39 185,-160.5 192.86,-164.08 201.27,-167.8 209.41,-171.37"/>
<polygon fill="midnightblue" stroke="midnightblue" points="208.23,-174.68 218.8,-175.46 211.03,-168.26 208.23,-174.68"/>
</g>
<!-- Node3 -->
<g id="node3" class="node">
<title>Node3</title>
<g id="a_node3"><a xlink:href="classplant_1_1PlantArchitecture.html#a1fea368ef9182afc3aedfb76bcc4b3ee" target="_top" xlink:title="Get biomass in various carbon pools.">
<polygon fill="none" stroke="black" points="361,-153.5 361,-183.5 492,-183.5 492,-153.5 361,-153.5"/>
<text text-anchor="start" x="369" y="-171.5" font-family="Helvetica,sans-Serif" font-size="10.00">plant::PlantArchitecture</text>
<text text-anchor="middle" x="426.5" y="-160.5" font-family="Helvetica,sans-Serif" font-size="10.00">::stem_mass</text>
</a>
</g>
</g>
<!-- Node1&#45;&gt;Node3 -->
<g id="edge6" class="edge">
<title>Node1&#45;&gt;Node3</title>
<path fill="none" stroke="midnightblue" d="M149.12,-121.31C161.11,-123.38 173.4,-125.5 185,-127.5 240.63,-137.07 303.52,-147.79 351.03,-155.86"/>
<polygon fill="midnightblue" stroke="midnightblue" points="350.48,-159.32 360.93,-157.55 351.66,-152.42 350.48,-159.32"/>
</g>
<!-- Node4 -->
<g id="node4" class="node">
<title>Node4</title>
<g id="a_node4"><a xlink:href="classplant_1_1Plant.html#a0e254502cb2bb6edf6e0e86e0db268d7" target="_top" xlink:title="Get plant biomass.">
<polygon fill="none" stroke="black" points="185,-99 185,-118 325,-118 325,-99 185,-99"/>
<text text-anchor="middle" x="255" y="-106" font-family="Helvetica,sans-Serif" font-size="10.00">plant::Plant::get_biomass</text>
</a>
</g>
</g>
<!-- Node1&#45;&gt;Node4 -->
<g id="edge3" class="edge">
<title>Node1&#45;&gt;Node4</title>
<path fill="none" stroke="midnightblue" d="M149.13,-108.5C157.53,-108.5 166.12,-108.5 174.59,-108.5"/>
<polygon fill="midnightblue" stroke="midnightblue" points="174.84,-112 184.84,-108.5 174.84,-105 174.84,-112"/>
</g>
<!-- Node5 -->
<g id="node5" class="node">
<title>Node5</title>
<g id="a_node5"><a xlink:href="classplant_1_1PlantArchitecture.html#a36ebf17a1799f27ce12bd27f637f88a9" target="_top" xlink:title="Get biomass in various carbon pools.">
<polygon fill="none" stroke="black" points="189.5,-49.5 189.5,-79.5 320.5,-79.5 320.5,-49.5 189.5,-49.5"/>
<text text-anchor="start" x="197.5" y="-67.5" font-family="Helvetica,sans-Serif" font-size="10.00">plant::PlantArchitecture</text>
<text text-anchor="middle" x="255" y="-56.5" font-family="Helvetica,sans-Serif" font-size="10.00">::leaf_mass</text>
</a>
</g>
</g>
<!-- Node1&#45;&gt;Node5 -->
<g id="edge4" class="edge">
<title>Node1&#45;&gt;Node5</title>
<path fill="none" stroke="midnightblue" d="M136.43,-93.48C151.43,-89.78 167.61,-85.79 183.04,-81.99"/>
<polygon fill="midnightblue" stroke="midnightblue" points="184.17,-85.32 193.04,-79.53 182.49,-78.52 184.17,-85.32"/>
</g>
<!-- Node6 -->
<g id="node6" class="node">
<title>Node6</title>
<g id="a_node6"><a xlink:href="classplant_1_1PlantArchitecture.html#af767ab32b2c9aff347144ce7dff349be" target="_top" xlink:title="Get biomass in various carbon pools.">
<polygon fill="none" stroke="black" points="189.5,-0.5 189.5,-30.5 320.5,-30.5 320.5,-0.5 189.5,-0.5"/>
<text text-anchor="start" x="197.5" y="-18.5" font-family="Helvetica,sans-Serif" font-size="10.00">plant::PlantArchitecture</text>
<text text-anchor="middle" x="255" y="-7.5" font-family="Helvetica,sans-Serif" font-size="10.00">::root_mass</text>
</a>
</g>
</g>
<!-- Node1&#45;&gt;Node6 -->
<g id="edge5" class="edge">
<title>Node1&#45;&gt;Node6</title>
<path fill="none" stroke="midnightblue" d="M96.96,-93.3C118.5,-78.5 152.99,-56.03 185,-40.5 189.36,-38.39 193.94,-36.35 198.59,-34.41"/>
<polygon fill="midnightblue" stroke="midnightblue" points="200.17,-37.55 208.16,-30.59 197.58,-31.05 200.17,-37.55"/>
</g>
<!-- Node2&#45;&gt;Node3 -->
<g id="edge2" class="edge">
<title>Node2&#45;&gt;Node3</title>
<path fill="none" stroke="midnightblue" d="M320.56,-182.12C330.46,-180.84 340.74,-179.5 350.83,-178.19"/>
<polygon fill="midnightblue" stroke="midnightblue" points="351.37,-181.65 360.83,-176.89 350.47,-174.71 351.37,-181.65"/>
</g>
</g>
</svg>
