<?xml version="1.0" encoding="UTF-8" standalone="no"?>
<!DOCTYPE svg PUBLIC "-//W3C//DTD SVG 1.1//EN"
 "http://www.w3.org/Graphics/SVG/1.1/DTD/svg11.dtd">
<!-- Generated by graphviz version 2.43.0 (0)
 -->
<!-- Title: pfate::env::Climate::set_elevation Pages: 1 -->
<svg width="429pt" height="78pt"
 viewBox="0.00 0.00 429.00 77.50" xmlns="http://www.w3.org/2000/svg" xmlns:xlink="http://www.w3.org/1999/xlink">
<g id="graph0" class="graph" transform="scale(1 1) rotate(0) translate(4 73.5)">
<title>pfate::env::Climate::set_elevation</title>
<!-- Node1 -->
<g id="node1" class="node">
<title>Node1</title>
<g id="a_node1"><a xlink:title=" ">
<polygon fill="#bfbfbf" stroke="black" points="311,-17 311,-47 421,-47 421,-17 311,-17"/>
<text text-anchor="start" x="319" y="-35" font-family="Helvetica,sans-Serif" font-size="10.00">pfate::env::Climate</text>
<text text-anchor="middle" x="366" y="-24" font-family="Helvetica,sans-Serif" font-size="10.00">::set_elevation</text>
</a>
</g>
</g>
<!-- Node2 -->
<g id="node2" class="node">
<title>Node2</title>
<g id="a_node2"><a xlink:href="classpfate_1_1LifeHistoryOptimizer.html#a498360fd80194590570542dcecd524c7" target="_top" xlink:title=" ">
<polygon fill="none" stroke="black" points="126,-39 126,-69 275,-69 275,-39 126,-39"/>
<text text-anchor="start" x="134" y="-57" font-family="Helvetica,sans-Serif" font-size="10.00">pfate::LifeHistoryOptimizer</text>
<text text-anchor="middle" x="200.5" y="-46" font-family="Helvetica,sans-Serif" font-size="10.00">::init</text>
</a>
</g>
</g>
<!-- Node1&#45;&gt;Node2 -->
<g id="edge1" class="edge">
<title>Node1&#45;&gt;Node2</title>
<path fill="none" stroke="midnightblue" d="M300.56,-40.67C292.23,-41.79 283.66,-42.94 275.2,-44.08"/>
<polygon fill="midnightblue" stroke="midnightblue" points="301.11,-44.13 310.56,-39.33 300.18,-37.19 301.11,-44.13"/>
</g>
<!-- Node5 -->
<g id="node5" class="node">
<title>Node5</title>
<g id="a_node5"><a xlink:href="classpfate_1_1Patch.html#ad2e4b86b03a6a6834a363bf19c1d9587" target="_top" xlink:title=" ">
<polygon fill="none" stroke="black" points="152,-0.5 152,-19.5 249,-19.5 249,-0.5 152,-0.5"/>
<text text-anchor="middle" x="200.5" y="-7.5" font-family="Helvetica,sans-Serif" font-size="10.00">pfate::Patch::init</text>
</a>
</g>
</g>
<!-- Node1&#45;&gt;Node5 -->
<g id="edge4" class="edge">
<title>Node1&#45;&gt;Node5</title>
<path fill="none" stroke="midnightblue" d="M300.6,-23.33C283.44,-21.03 265.21,-18.57 249.12,-16.41"/>
<polygon fill="midnightblue" stroke="midnightblue" points="300.18,-26.81 310.56,-24.67 301.11,-19.87 300.18,-26.81"/>
</g>
<!-- Node3 -->
<g id="node3" class="node">
<title>Node3</title>
<g id="a_node3"><a xlink:href="lho_8cpp.html#ae66f6b31b5ad750f1fe042a706a4e3d4" target="_top" xlink:title=" ">
<polygon fill="none" stroke="black" points="24.5,-44.5 24.5,-63.5 65.5,-63.5 65.5,-44.5 24.5,-44.5"/>
<text text-anchor="middle" x="45" y="-51.5" font-family="Helvetica,sans-Serif" font-size="10.00">main</text>
</a>
</g>
</g>
<!-- Node2&#45;&gt;Node3 -->
<g id="edge2" class="edge">
<title>Node2&#45;&gt;Node3</title>
<path fill="none" stroke="midnightblue" d="M115.77,-54C97.04,-54 78.87,-54 65.77,-54"/>
<polygon fill="midnightblue" stroke="midnightblue" points="115.9,-57.5 125.9,-54 115.9,-50.5 115.9,-57.5"/>
</g>
<!-- Node4 -->
<g id="node4" class="node">
<title>Node4</title>
<g id="a_node4"><a xlink:href="r__interface_8cpp.html#a7897b94cdc1a829775ac5241571cd456" target="_top" xlink:title=" ">
<polygon fill="none" stroke="black" points="0,-3.5 0,-22.5 90,-22.5 90,-3.5 0,-3.5"/>
<text text-anchor="middle" x="45" y="-10.5" font-family="Helvetica,sans-Serif" font-size="10.00">RCPP_MODULE</text>
</a>
</g>
</g>
<!-- Node2&#45;&gt;Node4 -->
<g id="edge3" class="edge">
<title>Node2&#45;&gt;Node4</title>
<path fill="none" stroke="midnightblue" d="M133.46,-36.36C115.71,-31.62 97.18,-26.67 81.77,-22.55"/>
<polygon fill="midnightblue" stroke="midnightblue" points="132.65,-39.77 143.21,-38.97 134.46,-33 132.65,-39.77"/>
</g>
<!-- Node5&#45;&gt;Node4 -->
<g id="edge5" class="edge">
<title>Node5&#45;&gt;Node4</title>
<path fill="none" stroke="midnightblue" d="M141.38,-11.14C124.35,-11.47 106.03,-11.83 90.04,-12.14"/>
<polygon fill="midnightblue" stroke="midnightblue" points="141.84,-14.63 151.77,-10.93 141.71,-7.63 141.84,-14.63"/>
</g>
</g>
</svg>
