<?xml version="1.0" encoding="UTF-8" standalone="no"?>
<!DOCTYPE svg PUBLIC "-//W3C//DTD SVG 1.1//EN"
 "http://www.w3.org/Graphics/SVG/1.1/DTD/svg11.dtd">
<!-- Generated by graphviz version 2.43.0 (0)
 -->
<!-- Title: plant::PlantArchitecture::grow_for_dt Pages: 1 -->
<svg width="473pt" height="323pt"
 viewBox="0.00 0.00 473.00 323.00" xmlns="http://www.w3.org/2000/svg" xmlns:xlink="http://www.w3.org/1999/xlink">
<g id="graph0" class="graph" transform="scale(1 1) rotate(0) translate(4 319)">
<title>plant::PlantArchitecture::grow_for_dt</title>
<!-- Node1 -->
<g id="node1" class="node">
<title>Node1</title>
<g id="a_node1"><a xlink:title=" ">
<polygon fill="#bfbfbf" stroke="black" points="0,-142.5 0,-172.5 131,-172.5 131,-142.5 0,-142.5"/>
<text text-anchor="start" x="8" y="-160.5" font-family="Helvetica,sans-Serif" font-size="10.00">plant::PlantArchitecture</text>
<text text-anchor="middle" x="65.5" y="-149.5" font-family="Helvetica,sans-Serif" font-size="10.00">::grow_for_dt</text>
</a>
</g>
</g>
<!-- Node2 -->
<g id="node2" class="node">
<title>Node2</title>
<g id="a_node2"><a xlink:href="classplant_1_1PlantArchitecture.html#a7e5250a6704a5e8d80e4200259c1acf9" target="_top" xlink:title="Rate of change of leaf mass due to change in LAI.">
<polygon fill="none" stroke="black" points="167,-284.5 167,-314.5 298,-314.5 298,-284.5 167,-284.5"/>
<text text-anchor="start" x="175" y="-302.5" font-family="Helvetica,sans-Serif" font-size="10.00">plant::PlantArchitecture</text>
<text text-anchor="middle" x="232.5" y="-291.5" font-family="Helvetica,sans-Serif" font-size="10.00">::dmass_dt_lai</text>
</a>
</g>
</g>
<!-- Node1&#45;&gt;Node2 -->
<g id="edge1" class="edge">
<title>Node1&#45;&gt;Node2</title>
<path fill="none" stroke="midnightblue" d="M75.74,-172.7C91.52,-197.51 126,-246.8 167,-275.5 169.1,-276.97 171.3,-278.36 173.57,-279.68"/>
<polygon fill="midnightblue" stroke="midnightblue" points="172.11,-282.86 182.59,-284.39 175.35,-276.66 172.11,-282.86"/>
</g>
<!-- Node3 -->
<g id="node3" class="node">
<title>Node3</title>
<g id="a_node3"><a xlink:href="classplant_1_1PlantArchitecture.html#acdc3841d5f648fabc0202e04e2bfb8a3" target="_top" xlink:title="Derivatives required for biomass partitioning">
<polygon fill="none" stroke="black" points="167,-235.5 167,-265.5 298,-265.5 298,-235.5 167,-235.5"/>
<text text-anchor="start" x="175" y="-253.5" font-family="Helvetica,sans-Serif" font-size="10.00">plant::PlantArchitecture</text>
<text text-anchor="middle" x="232.5" y="-242.5" font-family="Helvetica,sans-Serif" font-size="10.00">::dsize_dmass</text>
</a>
</g>
</g>
<!-- Node1&#45;&gt;Node3 -->
<g id="edge2" class="edge">
<title>Node1&#45;&gt;Node3</title>
<path fill="none" stroke="midnightblue" d="M85.62,-172.75C105.2,-187.84 136.95,-210.89 167,-226.5 170.27,-228.2 173.68,-229.83 177.16,-231.4"/>
<polygon fill="midnightblue" stroke="midnightblue" points="175.9,-234.66 186.47,-235.37 178.65,-228.22 175.9,-234.66"/>
</g>
<!-- Node4 -->
<g id="node4" class="node">
<title>Node4</title>
<g id="a_node4"><a xlink:href="classplant_1_1PlantArchitecture.html#a4ee1ef386497f18eb1f7d2ef2db3cff3" target="_top" xlink:title=" ">
<polygon fill="none" stroke="black" points="167,-186.5 167,-216.5 298,-216.5 298,-186.5 167,-186.5"/>
<text text-anchor="start" x="175" y="-204.5" font-family="Helvetica,sans-Serif" font-size="10.00">plant::PlantArchitecture</text>
<text text-anchor="middle" x="232.5" y="-193.5" font-family="Helvetica,sans-Serif" font-size="10.00">::get_size</text>
</a>
</g>
</g>
<!-- Node1&#45;&gt;Node4 -->
<g id="edge3" class="edge">
<title>Node1&#45;&gt;Node4</title>
<path fill="none" stroke="midnightblue" d="M122.82,-172.52C136.42,-176.15 151.08,-180.05 165.09,-183.79"/>
<polygon fill="midnightblue" stroke="midnightblue" points="164.59,-187.28 175.15,-186.47 166.39,-180.52 164.59,-187.28"/>
</g>
<!-- Node5 -->
<g id="node5" class="node">
<title>Node5</title>
<g id="a_node5"><a xlink:href="rk4_8h.html#a3d0ee2e6387dc2895fd9a41509912863" target="_top" xlink:title=" ">
<polygon fill="none" stroke="black" points="214.5,-148 214.5,-167 250.5,-167 250.5,-148 214.5,-148"/>
<text text-anchor="middle" x="232.5" y="-155" font-family="Helvetica,sans-Serif" font-size="10.00">RK4</text>
</a>
</g>
</g>
<!-- Node1&#45;&gt;Node5 -->
<g id="edge4" class="edge">
<title>Node1&#45;&gt;Node5</title>
<path fill="none" stroke="midnightblue" d="M131.24,-157.5C156.53,-157.5 184.16,-157.5 204,-157.5"/>
<polygon fill="midnightblue" stroke="midnightblue" points="204.15,-161 214.15,-157.5 204.15,-154 204.15,-161"/>
</g>
<!-- Node6 -->
<g id="node6" class="node">
<title>Node6</title>
<g id="a_node6"><a xlink:href="classplant_1_1PlantArchitecture.html#a0f95752c3574b4dfadb93e92582e5fa5" target="_top" xlink:title="Get biomass in various carbon pools.">
<polygon fill="none" stroke="black" points="167,-98.5 167,-128.5 298,-128.5 298,-98.5 167,-98.5"/>
<text text-anchor="start" x="175" y="-116.5" font-family="Helvetica,sans-Serif" font-size="10.00">plant::PlantArchitecture</text>
<text text-anchor="middle" x="232.5" y="-105.5" font-family="Helvetica,sans-Serif" font-size="10.00">::sapwood_mass</text>
</a>
</g>
</g>
<!-- Node1&#45;&gt;Node6 -->
<g id="edge5" class="edge">
<title>Node1&#45;&gt;Node6</title>
<path fill="none" stroke="midnightblue" d="M122.82,-142.48C136.42,-138.85 151.08,-134.95 165.09,-131.21"/>
<polygon fill="midnightblue" stroke="midnightblue" points="166.39,-134.48 175.15,-128.53 164.59,-127.72 166.39,-134.48"/>
</g>
<!-- Node8 -->
<g id="node8" class="node">
<title>Node8</title>
<g id="a_node8"><a xlink:href="classplant_1_1PlantArchitecture.html#a6765e3aee8ac12969e1e47aed2aea2da" target="_top" xlink:title="Set the crown LAI and properties that change with LAI.">
<polygon fill="none" stroke="black" points="167,-49.5 167,-79.5 298,-79.5 298,-49.5 167,-49.5"/>
<text text-anchor="start" x="175" y="-67.5" font-family="Helvetica,sans-Serif" font-size="10.00">plant::PlantArchitecture</text>
<text text-anchor="middle" x="232.5" y="-56.5" font-family="Helvetica,sans-Serif" font-size="10.00">::set_lai</text>
</a>
</g>
</g>
<!-- Node1&#45;&gt;Node8 -->
<g id="edge7" class="edge">
<title>Node1&#45;&gt;Node8</title>
<path fill="none" stroke="midnightblue" d="M86.07,-142.3C105.74,-127.51 137.33,-105.04 167,-89.5 170.94,-87.44 175.08,-85.45 179.3,-83.56"/>
<polygon fill="midnightblue" stroke="midnightblue" points="180.76,-86.74 188.57,-79.58 178,-80.31 180.76,-86.74"/>
</g>
<!-- Node9 -->
<g id="node9" class="node">
<title>Node9</title>
<g id="a_node9"><a xlink:href="classplant_1_1PlantArchitecture.html#a2971e2eae68c0ffe788e570ff9fd32d4" target="_top" xlink:title="Set plant size (diameter) and other variables that scale with size">
<polygon fill="none" stroke="black" points="167,-0.5 167,-30.5 298,-30.5 298,-0.5 167,-0.5"/>
<text text-anchor="start" x="175" y="-18.5" font-family="Helvetica,sans-Serif" font-size="10.00">plant::PlantArchitecture</text>
<text text-anchor="middle" x="232.5" y="-7.5" font-family="Helvetica,sans-Serif" font-size="10.00">::set_size</text>
</a>
</g>
</g>
<!-- Node1&#45;&gt;Node9 -->
<g id="edge8" class="edge">
<title>Node1&#45;&gt;Node9</title>
<path fill="none" stroke="midnightblue" d="M75.81,-142.49C91.71,-117.99 126.33,-69.25 167,-40.5 169.65,-38.63 172.45,-36.87 175.36,-35.23"/>
<polygon fill="midnightblue" stroke="midnightblue" points="177,-38.32 184.29,-30.64 173.8,-32.1 177,-38.32"/>
</g>
<!-- Node7 -->
<g id="node7" class="node">
<title>Node7</title>
<g id="a_node7"><a xlink:href="classplant_1_1PlantArchitecture.html#a1fea368ef9182afc3aedfb76bcc4b3ee" target="_top" xlink:title="Get biomass in various carbon pools.">
<polygon fill="none" stroke="black" points="334,-98.5 334,-128.5 465,-128.5 465,-98.5 334,-98.5"/>
<text text-anchor="start" x="342" y="-116.5" font-family="Helvetica,sans-Serif" font-size="10.00">plant::PlantArchitecture</text>
<text text-anchor="middle" x="399.5" y="-105.5" font-family="Helvetica,sans-Serif" font-size="10.00">::stem_mass</text>
</a>
</g>
</g>
<!-- Node6&#45;&gt;Node7 -->
<g id="edge6" class="edge">
<title>Node6&#45;&gt;Node7</title>
<path fill="none" stroke="midnightblue" d="M298.24,-113.5C306.58,-113.5 315.18,-113.5 323.67,-113.5"/>
<polygon fill="midnightblue" stroke="midnightblue" points="323.95,-117 333.95,-113.5 323.95,-110 323.95,-117"/>
</g>
</g>
</svg>
