<?xml version="1.0" encoding="UTF-8" standalone="no"?>
<!DOCTYPE svg PUBLIC "-//W3C//DTD SVG 1.1//EN"
 "http://www.w3.org/Graphics/SVG/1.1/DTD/svg11.dtd">
<!-- Generated by graphviz version 2.43.0 (0)
 -->
<!-- Title: plant::Plant::lai_model Pages: 1 -->
<svg width="854pt" height="371pt"
 viewBox="0.00 0.00 854.00 370.50" xmlns="http://www.w3.org/2000/svg" xmlns:xlink="http://www.w3.org/1999/xlink">
<g id="graph0" class="graph" transform="scale(1 1) rotate(0) translate(4 366.5)">
<title>plant::Plant::lai_model</title>
<!-- Node1 -->
<g id="node1" class="node">
<title>Node1</title>
<g id="a_node1"><a xlink:title="LAI model.">
<polygon fill="#bfbfbf" stroke="black" points="0,-153 0,-172 126,-172 126,-153 0,-153"/>
<text text-anchor="middle" x="63" y="-160" font-family="Helvetica,sans-Serif" font-size="10.00">plant::Plant::lai_model</text>
</a>
</g>
</g>
<!-- Node2 -->
<g id="node2" class="node">
<title>Node2</title>
<g id="a_node2"><a xlink:href="classplant_1_1PlantArchitecture.html#a7e5250a6704a5e8d80e4200259c1acf9" target="_top" xlink:title="Rate of change of leaf mass due to change in LAI.">
<polygon fill="none" stroke="black" points="162,-196.5 162,-226.5 293,-226.5 293,-196.5 162,-196.5"/>
<text text-anchor="start" x="170" y="-214.5" font-family="Helvetica,sans-Serif" font-size="10.00">plant::PlantArchitecture</text>
<text text-anchor="middle" x="227.5" y="-203.5" font-family="Helvetica,sans-Serif" font-size="10.00">::dmass_dt_lai</text>
</a>
</g>
</g>
<!-- Node1&#45;&gt;Node2 -->
<g id="edge1" class="edge">
<title>Node1&#45;&gt;Node2</title>
<path fill="none" stroke="midnightblue" d="M95.72,-172.06C115.93,-178.16 142.76,-186.25 166.85,-193.51"/>
<polygon fill="midnightblue" stroke="midnightblue" points="166.05,-196.93 176.63,-196.46 168.07,-190.23 166.05,-196.93"/>
</g>
<!-- Node3 -->
<g id="node3" class="node">
<title>Node3</title>
<g id="a_node3"><a xlink:href="classplant_1_1Assimilator.html#ade28356f5c19a8033b3781308f21202a" target="_top" xlink:title="Calculate whole&#45;plant net assimilation.">
<polygon fill="none" stroke="black" points="176,-147.5 176,-177.5 279,-177.5 279,-147.5 176,-147.5"/>
<text text-anchor="start" x="184" y="-165.5" font-family="Helvetica,sans-Serif" font-size="10.00">plant::Assimilator</text>
<text text-anchor="middle" x="227.5" y="-154.5" font-family="Helvetica,sans-Serif" font-size="10.00">::net_production</text>
</a>
</g>
</g>
<!-- Node1&#45;&gt;Node3 -->
<g id="edge2" class="edge">
<title>Node1&#45;&gt;Node3</title>
<path fill="none" stroke="midnightblue" d="M126.36,-162.5C139.29,-162.5 152.89,-162.5 165.75,-162.5"/>
<polygon fill="midnightblue" stroke="midnightblue" points="165.88,-166 175.88,-162.5 165.88,-159 165.88,-166"/>
</g>
<!-- Node19 -->
<g id="node19" class="node">
<title>Node19</title>
<g id="a_node19"><a xlink:href="classplant_1_1PlantArchitecture.html#a6765e3aee8ac12969e1e47aed2aea2da" target="_top" xlink:title="Set the crown LAI and properties that change with LAI.">
<polygon fill="none" stroke="black" points="162,-98.5 162,-128.5 293,-128.5 293,-98.5 162,-98.5"/>
<text text-anchor="start" x="170" y="-116.5" font-family="Helvetica,sans-Serif" font-size="10.00">plant::PlantArchitecture</text>
<text text-anchor="middle" x="227.5" y="-105.5" font-family="Helvetica,sans-Serif" font-size="10.00">::set_lai</text>
</a>
</g>
</g>
<!-- Node1&#45;&gt;Node19 -->
<g id="edge19" class="edge">
<title>Node1&#45;&gt;Node19</title>
<path fill="none" stroke="midnightblue" d="M95.72,-152.94C115.93,-146.84 142.76,-138.75 166.85,-131.49"/>
<polygon fill="midnightblue" stroke="midnightblue" points="168.07,-134.77 176.63,-128.54 166.05,-128.07 168.07,-134.77"/>
</g>
<!-- Node4 -->
<g id="node4" class="node">
<title>Node4</title>
<g id="a_node4"><a xlink:href="classplant_1_1Assimilator.html#ac0e69ab9225a2d1be337b10446cfa126" target="_top" xlink:title="Calculate whole&#45;plant gross assimilation, transpiration, gs, etc.">
<polygon fill="none" stroke="black" points="329,-294.5 329,-324.5 491,-324.5 491,-294.5 329,-294.5"/>
<text text-anchor="start" x="337" y="-312.5" font-family="Helvetica,sans-Serif" font-size="10.00">plant::Assimilator</text>
<text text-anchor="middle" x="410" y="-301.5" font-family="Helvetica,sans-Serif" font-size="10.00">::calc_plant_assimilation_rate</text>
</a>
</g>
</g>
<!-- Node3&#45;&gt;Node4 -->
<g id="edge3" class="edge">
<title>Node3&#45;&gt;Node4</title>
<path fill="none" stroke="midnightblue" d="M279.05,-177.05C284.17,-179.94 288.96,-183.39 293,-187.5 325.52,-220.6 295.21,-253.7 329,-285.5 330.27,-286.7 331.6,-287.83 332.97,-288.91"/>
<polygon fill="midnightblue" stroke="midnightblue" points="331.08,-291.86 341.34,-294.5 334.97,-286.03 331.08,-291.86"/>
</g>
<!-- Node9 -->
<g id="node9" class="node">
<title>Node9</title>
<g id="a_node9"><a xlink:href="classplant_1_1Assimilator.html#ad33549c793850f11330fd48829367c55" target="_top" xlink:title="Calculate leaf and fine&#45;root respiration rates.">
<polygon fill="none" stroke="black" points="348,-245.5 348,-275.5 472,-275.5 472,-245.5 348,-245.5"/>
<text text-anchor="start" x="356" y="-263.5" font-family="Helvetica,sans-Serif" font-size="10.00">plant::Assimilator</text>
<text text-anchor="middle" x="410" y="-252.5" font-family="Helvetica,sans-Serif" font-size="10.00">::leaf_respiration_rate</text>
</a>
</g>
</g>
<!-- Node3&#45;&gt;Node9 -->
<g id="edge8" class="edge">
<title>Node3&#45;&gt;Node9</title>
<path fill="none" stroke="midnightblue" d="M276.65,-177.59C282.44,-180.42 288.04,-183.7 293,-187.5 314.46,-203.93 306.92,-220.92 329,-236.5 332.02,-238.63 335.23,-240.58 338.57,-242.35"/>
<polygon fill="midnightblue" stroke="midnightblue" points="337.11,-245.53 347.65,-246.66 340.12,-239.21 337.11,-245.53"/>
</g>
<!-- Node10 -->
<g id="node10" class="node">
<title>Node10</title>
<g id="a_node10"><a xlink:href="classplant_1_1Assimilator.html#a0da26c8e10a188774954652ec0402e09" target="_top" xlink:title="Calculate leaf and fine&#45;root turnover rates.">
<polygon fill="none" stroke="black" points="353.5,-196.5 353.5,-226.5 466.5,-226.5 466.5,-196.5 353.5,-196.5"/>
<text text-anchor="start" x="361.5" y="-214.5" font-family="Helvetica,sans-Serif" font-size="10.00">plant::Assimilator</text>
<text text-anchor="middle" x="410" y="-203.5" font-family="Helvetica,sans-Serif" font-size="10.00">::leaf_turnover_rate</text>
</a>
</g>
</g>
<!-- Node3&#45;&gt;Node10 -->
<g id="edge9" class="edge">
<title>Node3&#45;&gt;Node10</title>
<path fill="none" stroke="midnightblue" d="M279.26,-176.28C299.24,-181.7 322.44,-188 343.65,-193.76"/>
<polygon fill="midnightblue" stroke="midnightblue" points="342.99,-197.21 353.56,-196.45 344.83,-190.45 342.99,-197.21"/>
</g>
<!-- Node12 -->
<g id="node12" class="node">
<title>Node12</title>
<g id="a_node12"><a xlink:href="classplant_1_1Assimilator.html#a07a83723c0f4cc6e98968dfb241c6ce7" target="_top" xlink:title="Leaf economics &#45; calculate optimal leaf lifespan.">
<polygon fill="none" stroke="black" points="347.5,-147.5 347.5,-177.5 472.5,-177.5 472.5,-147.5 347.5,-147.5"/>
<text text-anchor="start" x="355.5" y="-165.5" font-family="Helvetica,sans-Serif" font-size="10.00">plant::Assimilator</text>
<text text-anchor="middle" x="410" y="-154.5" font-family="Helvetica,sans-Serif" font-size="10.00">::les_update_lifespans</text>
</a>
</g>
</g>
<!-- Node3&#45;&gt;Node12 -->
<g id="edge11" class="edge">
<title>Node3&#45;&gt;Node12</title>
<path fill="none" stroke="midnightblue" d="M279.26,-162.5C297.28,-162.5 317.93,-162.5 337.37,-162.5"/>
<polygon fill="midnightblue" stroke="midnightblue" points="337.4,-166 347.4,-162.5 337.4,-159 337.4,-166"/>
</g>
<!-- Node13 -->
<g id="node13" class="node">
<title>Node13</title>
<g id="a_node13"><a xlink:href="classplant_1_1Assimilator.html#aeedad55e35be6fa1d908731a123e2c4f" target="_top" xlink:title="Calculate leaf and fine&#45;root respiration rates.">
<polygon fill="none" stroke="black" points="347.5,-98.5 347.5,-128.5 472.5,-128.5 472.5,-98.5 347.5,-98.5"/>
<text text-anchor="start" x="355.5" y="-116.5" font-family="Helvetica,sans-Serif" font-size="10.00">plant::Assimilator</text>
<text text-anchor="middle" x="410" y="-105.5" font-family="Helvetica,sans-Serif" font-size="10.00">::root_respiration_rate</text>
</a>
</g>
</g>
<!-- Node3&#45;&gt;Node13 -->
<g id="edge12" class="edge">
<title>Node3&#45;&gt;Node13</title>
<path fill="none" stroke="midnightblue" d="M279.26,-148.72C299.24,-143.3 322.44,-137 343.65,-131.24"/>
<polygon fill="midnightblue" stroke="midnightblue" points="344.83,-134.55 353.56,-128.55 342.99,-127.79 344.83,-134.55"/>
</g>
<!-- Node15 -->
<g id="node15" class="node">
<title>Node15</title>
<g id="a_node15"><a xlink:href="classplant_1_1Assimilator.html#a31ccc72fe7255233a1640d1f708eebc7" target="_top" xlink:title="Calculate leaf and fine&#45;root turnover rates.">
<polygon fill="none" stroke="black" points="353.5,-49.5 353.5,-79.5 466.5,-79.5 466.5,-49.5 353.5,-49.5"/>
<text text-anchor="start" x="361.5" y="-67.5" font-family="Helvetica,sans-Serif" font-size="10.00">plant::Assimilator</text>
<text text-anchor="middle" x="410" y="-56.5" font-family="Helvetica,sans-Serif" font-size="10.00">::root_turnover_rate</text>
</a>
</g>
</g>
<!-- Node3&#45;&gt;Node15 -->
<g id="edge14" class="edge">
<title>Node3&#45;&gt;Node15</title>
<path fill="none" stroke="midnightblue" d="M278.31,-147.4C283.51,-144.83 288.52,-141.88 293,-138.5 314.57,-122.22 307.01,-105.2 329,-89.5 333.59,-86.22 338.62,-83.37 343.86,-80.88"/>
<polygon fill="midnightblue" stroke="midnightblue" points="345.63,-83.93 353.45,-76.78 342.88,-77.49 345.63,-83.93"/>
</g>
<!-- Node16 -->
<g id="node16" class="node">
<title>Node16</title>
<g id="a_node16"><a xlink:href="classplant_1_1Assimilator.html#ad1f356c7c009ad495c9e9a3994c92fd3" target="_top" xlink:title="Calculate leaf and fine&#45;root respiration rates.">
<polygon fill="none" stroke="black" points="335.5,-0.5 335.5,-30.5 484.5,-30.5 484.5,-0.5 335.5,-0.5"/>
<text text-anchor="start" x="343.5" y="-18.5" font-family="Helvetica,sans-Serif" font-size="10.00">plant::Assimilator</text>
<text text-anchor="middle" x="410" y="-7.5" font-family="Helvetica,sans-Serif" font-size="10.00">::sapwood_respiration_rate</text>
</a>
</g>
</g>
<!-- Node3&#45;&gt;Node16 -->
<g id="edge16" class="edge">
<title>Node3&#45;&gt;Node16</title>
<path fill="none" stroke="midnightblue" d="M279.05,-148.78C284.17,-145.96 288.96,-142.57 293,-138.5 325.98,-105.27 294.96,-71.64 329,-39.5 330.12,-38.44 331.29,-37.43 332.49,-36.46"/>
<polygon fill="midnightblue" stroke="midnightblue" points="334.65,-39.23 340.95,-30.71 330.71,-33.44 334.65,-39.23"/>
</g>
<!-- Node5 -->
<g id="node5" class="node">
<title>Node5</title>
<g id="a_node5"><a xlink:href="group__ppa__module.html#ga4c6834623dae9423d2981a0b28b0f155" target="_top" xlink:title="Realized crown projection area at height z.">
<polygon fill="none" stroke="black" points="527,-318.5 527,-348.5 658,-348.5 658,-318.5 527,-318.5"/>
<text text-anchor="start" x="535" y="-336.5" font-family="Helvetica,sans-Serif" font-size="10.00">plant::PlantArchitecture</text>
<text text-anchor="middle" x="592.5" y="-325.5" font-family="Helvetica,sans-Serif" font-size="10.00">::crown_area_above</text>
</a>
</g>
</g>
<!-- Node4&#45;&gt;Node5 -->
<g id="edge4" class="edge">
<title>Node4&#45;&gt;Node5</title>
<path fill="none" stroke="midnightblue" d="M491.22,-320.17C499.72,-321.3 508.34,-322.44 516.78,-323.56"/>
<polygon fill="midnightblue" stroke="midnightblue" points="516.58,-327.07 526.95,-324.92 517.5,-320.13 516.58,-327.07"/>
</g>
<!-- Node8 -->
<g id="node8" class="node">
<title>Node8</title>
<g id="a_node8"><a xlink:href="classplant_1_1Assimilator.html#a01115927f79cc407240f59af57c12d17" target="_top" xlink:title="Calculate leaf&#45;level assimilation rate using the Phydro model ///.">
<polygon fill="none" stroke="black" points="527,-269.5 527,-299.5 658,-299.5 658,-269.5 527,-269.5"/>
<text text-anchor="start" x="535" y="-287.5" font-family="Helvetica,sans-Serif" font-size="10.00">plant::Assimilator</text>
<text text-anchor="middle" x="592.5" y="-276.5" font-family="Helvetica,sans-Serif" font-size="10.00">::leaf_assimilation_rate</text>
</a>
</g>
</g>
<!-- Node4&#45;&gt;Node8 -->
<g id="edge7" class="edge">
<title>Node4&#45;&gt;Node8</title>
<path fill="none" stroke="midnightblue" d="M491.22,-298.39C499.72,-297.21 508.34,-296.02 516.78,-294.85"/>
<polygon fill="midnightblue" stroke="midnightblue" points="517.53,-298.28 526.95,-293.44 516.57,-291.35 517.53,-298.28"/>
</g>
<!-- Node6 -->
<g id="node6" class="node">
<title>Node6</title>
<g id="a_node6"><a xlink:href="classplant_1_1PlantArchitecture.html#a81452fb0a56656f176f653d3bf9650d9" target="_top" xlink:title="Vertical profiles of crown and stem">
<polygon fill="none" stroke="black" points="698.5,-343 698.5,-362 841.5,-362 841.5,-343 698.5,-343"/>
<text text-anchor="middle" x="770" y="-350" font-family="Helvetica,sans-Serif" font-size="10.00">plant::PlantArchitecture::q</text>
</a>
</g>
</g>
<!-- Node5&#45;&gt;Node6 -->
<g id="edge5" class="edge">
<title>Node5&#45;&gt;Node6</title>
<path fill="none" stroke="midnightblue" d="M658.35,-340.52C668.09,-341.58 678.24,-342.67 688.26,-343.76"/>
<polygon fill="midnightblue" stroke="midnightblue" points="687.9,-347.24 698.22,-344.84 688.65,-340.28 687.9,-347.24"/>
</g>
<!-- Node7 -->
<g id="node7" class="node">
<title>Node7</title>
<g id="a_node7"><a xlink:href="classplant_1_1PlantArchitecture.html#a4d571b1b0165d995f3d2ca0fe21a4b28" target="_top" xlink:title="The height at which crown radius is maximum.">
<polygon fill="none" stroke="black" points="694,-305 694,-324 846,-324 846,-305 694,-305"/>
<text text-anchor="middle" x="770" y="-312" font-family="Helvetica,sans-Serif" font-size="10.00">plant::PlantArchitecture::zm</text>
</a>
</g>
</g>
<!-- Node5&#45;&gt;Node7 -->
<g id="edge6" class="edge">
<title>Node5&#45;&gt;Node7</title>
<path fill="none" stroke="midnightblue" d="M658.35,-326.48C666.63,-325.58 675.21,-324.65 683.75,-323.73"/>
<polygon fill="midnightblue" stroke="midnightblue" points="684.18,-327.2 693.74,-322.65 683.42,-320.24 684.18,-327.2"/>
</g>
<!-- Node11 -->
<g id="node11" class="node">
<title>Node11</title>
<g id="a_node11"><a xlink:href="classplant_1_1PlantArchitecture.html#a36ebf17a1799f27ce12bd27f637f88a9" target="_top" xlink:title="Get biomass in various carbon pools.">
<polygon fill="none" stroke="black" points="527,-196.5 527,-226.5 658,-226.5 658,-196.5 527,-196.5"/>
<text text-anchor="start" x="535" y="-214.5" font-family="Helvetica,sans-Serif" font-size="10.00">plant::PlantArchitecture</text>
<text text-anchor="middle" x="592.5" y="-203.5" font-family="Helvetica,sans-Serif" font-size="10.00">::leaf_mass</text>
</a>
</g>
</g>
<!-- Node10&#45;&gt;Node11 -->
<g id="edge10" class="edge">
<title>Node10&#45;&gt;Node11</title>
<path fill="none" stroke="midnightblue" d="M466.63,-211.5C482.41,-211.5 499.86,-211.5 516.59,-211.5"/>
<polygon fill="midnightblue" stroke="midnightblue" points="516.89,-215 526.88,-211.5 516.88,-208 516.89,-215"/>
</g>
<!-- Node14 -->
<g id="node14" class="node">
<title>Node14</title>
<g id="a_node14"><a xlink:href="classplant_1_1PlantArchitecture.html#af767ab32b2c9aff347144ce7dff349be" target="_top" xlink:title="Get biomass in various carbon pools.">
<polygon fill="none" stroke="black" points="527,-73.5 527,-103.5 658,-103.5 658,-73.5 527,-73.5"/>
<text text-anchor="start" x="535" y="-91.5" font-family="Helvetica,sans-Serif" font-size="10.00">plant::PlantArchitecture</text>
<text text-anchor="middle" x="592.5" y="-80.5" font-family="Helvetica,sans-Serif" font-size="10.00">::root_mass</text>
</a>
</g>
</g>
<!-- Node13&#45;&gt;Node14 -->
<g id="edge13" class="edge">
<title>Node13&#45;&gt;Node14</title>
<path fill="none" stroke="midnightblue" d="M472.61,-104.97C486.8,-103 502.05,-100.89 516.73,-98.86"/>
<polygon fill="midnightblue" stroke="midnightblue" points="517.35,-102.3 526.78,-97.46 516.39,-95.37 517.35,-102.3"/>
</g>
<!-- Node15&#45;&gt;Node14 -->
<g id="edge15" class="edge">
<title>Node15&#45;&gt;Node14</title>
<path fill="none" stroke="midnightblue" d="M466.63,-71.9C482.41,-74 499.86,-76.32 516.59,-78.54"/>
<polygon fill="midnightblue" stroke="midnightblue" points="516.51,-82.06 526.88,-79.91 517.43,-75.12 516.51,-82.06"/>
</g>
<!-- Node17 -->
<g id="node17" class="node">
<title>Node17</title>
<g id="a_node17"><a xlink:href="classplant_1_1PlantArchitecture.html#a0f95752c3574b4dfadb93e92582e5fa5" target="_top" xlink:title="Get biomass in various carbon pools.">
<polygon fill="none" stroke="black" points="527,-0.5 527,-30.5 658,-30.5 658,-0.5 527,-0.5"/>
<text text-anchor="start" x="535" y="-18.5" font-family="Helvetica,sans-Serif" font-size="10.00">plant::PlantArchitecture</text>
<text text-anchor="middle" x="592.5" y="-7.5" font-family="Helvetica,sans-Serif" font-size="10.00">::sapwood_mass</text>
</a>
</g>
</g>
<!-- Node16&#45;&gt;Node17 -->
<g id="edge17" class="edge">
<title>Node16&#45;&gt;Node17</title>
<path fill="none" stroke="midnightblue" d="M484.68,-15.5C495.24,-15.5 506.12,-15.5 516.7,-15.5"/>
<polygon fill="midnightblue" stroke="midnightblue" points="516.74,-19 526.74,-15.5 516.74,-12 516.74,-19"/>
</g>
<!-- Node18 -->
<g id="node18" class="node">
<title>Node18</title>
<g id="a_node18"><a xlink:href="classplant_1_1PlantArchitecture.html#a1fea368ef9182afc3aedfb76bcc4b3ee" target="_top" xlink:title="Get biomass in various carbon pools.">
<polygon fill="none" stroke="black" points="704.5,-0.5 704.5,-30.5 835.5,-30.5 835.5,-0.5 704.5,-0.5"/>
<text text-anchor="start" x="712.5" y="-18.5" font-family="Helvetica,sans-Serif" font-size="10.00">plant::PlantArchitecture</text>
<text text-anchor="middle" x="770" y="-7.5" font-family="Helvetica,sans-Serif" font-size="10.00">::stem_mass</text>
</a>
</g>
</g>
<!-- Node17&#45;&gt;Node18 -->
<g id="edge18" class="edge">
<title>Node17&#45;&gt;Node18</title>
<path fill="none" stroke="midnightblue" d="M658.35,-15.5C669.98,-15.5 682.19,-15.5 694.08,-15.5"/>
<polygon fill="midnightblue" stroke="midnightblue" points="694.42,-19 704.42,-15.5 694.42,-12 694.42,-19"/>
</g>
</g>
</svg>
