<?xml version="1.0" encoding="UTF-8" standalone="no"?>
<!DOCTYPE svg PUBLIC "-//W3C//DTD SVG 1.1//EN"
 "http://www.w3.org/Graphics/SVG/1.1/DTD/svg11.dtd">
<!-- Generated by graphviz version 2.43.0 (0)
 -->
<!-- Title: plant::PlantArchitecture::set_lai Pages: 1 -->
<svg width="987pt" height="206pt"
 viewBox="0.00 0.00 987.00 206.00" xmlns="http://www.w3.org/2000/svg" xmlns:xlink="http://www.w3.org/1999/xlink">
<g id="graph0" class="graph" transform="scale(1 1) rotate(0) translate(4 202)">
<title>plant::PlantArchitecture::set_lai</title>
<!-- Node1 -->
<g id="node1" class="node">
<title>Node1</title>
<g id="a_node1"><a xlink:title="Set the crown LAI and properties that change with LAI.">
<polygon fill="#bfbfbf" stroke="black" points="848,-82.5 848,-112.5 979,-112.5 979,-82.5 848,-82.5"/>
<text text-anchor="start" x="856" y="-100.5" font-family="Helvetica,sans-Serif" font-size="10.00">plant::PlantArchitecture</text>
<text text-anchor="middle" x="913.5" y="-89.5" font-family="Helvetica,sans-Serif" font-size="10.00">::set_lai</text>
</a>
</g>
</g>
<!-- Node2 -->
<g id="node2" class="node">
<title>Node2</title>
<g id="a_node2"><a xlink:href="classplant_1_1PlantArchitecture.html#afb649f77f93a938b777aef361638b08b" target="_top" xlink:title=" ">
<polygon fill="none" stroke="black" points="681,-167.5 681,-197.5 812,-197.5 812,-167.5 681,-167.5"/>
<text text-anchor="start" x="689" y="-185.5" font-family="Helvetica,sans-Serif" font-size="10.00">plant::PlantArchitecture</text>
<text text-anchor="middle" x="746.5" y="-174.5" font-family="Helvetica,sans-Serif" font-size="10.00">::grow_for_dt</text>
</a>
</g>
</g>
<!-- Node1&#45;&gt;Node2 -->
<g id="edge1" class="edge">
<title>Node1&#45;&gt;Node2</title>
<path fill="none" stroke="midnightblue" d="M876.94,-117.7C857.84,-128.36 833.81,-141.47 812,-152.5 801.97,-157.57 790.92,-162.83 780.84,-167.5"/>
<polygon fill="midnightblue" stroke="midnightblue" points="878.87,-120.63 885.88,-112.69 875.45,-114.52 878.87,-120.63"/>
</g>
<!-- Node3 -->
<g id="node3" class="node">
<title>Node3</title>
<g id="a_node3"><a xlink:href="classpfate_1_1LifeHistoryOptimizer.html#a498360fd80194590570542dcecd524c7" target="_top" xlink:title=" ">
<polygon fill="none" stroke="black" points="311,-167.5 311,-197.5 460,-197.5 460,-167.5 311,-167.5"/>
<text text-anchor="start" x="319" y="-185.5" font-family="Helvetica,sans-Serif" font-size="10.00">pfate::LifeHistoryOptimizer</text>
<text text-anchor="middle" x="385.5" y="-174.5" font-family="Helvetica,sans-Serif" font-size="10.00">::init</text>
</a>
</g>
</g>
<!-- Node1&#45;&gt;Node3 -->
<g id="edge2" class="edge">
<title>Node1&#45;&gt;Node3</title>
<path fill="none" stroke="midnightblue" d="M838.08,-111.85C829.3,-113.46 820.46,-115.05 812,-116.5 688.78,-137.7 544.95,-159.37 460.03,-171.85"/>
<polygon fill="midnightblue" stroke="midnightblue" points="838.75,-115.29 847.95,-110.03 837.48,-108.4 838.75,-115.29"/>
</g>
<!-- Node6 -->
<g id="node6" class="node">
<title>Node6</title>
<g id="a_node6"><a xlink:href="classplant_1_1Plant.html#a48612779a5850cca9cc6f6caff1ccb8b" target="_top" xlink:title="LAI model.">
<polygon fill="none" stroke="black" points="683.5,-88 683.5,-107 809.5,-107 809.5,-88 683.5,-88"/>
<text text-anchor="middle" x="746.5" y="-95" font-family="Helvetica,sans-Serif" font-size="10.00">plant::Plant::lai_model</text>
</a>
</g>
</g>
<!-- Node1&#45;&gt;Node6 -->
<g id="edge5" class="edge">
<title>Node1&#45;&gt;Node6</title>
<path fill="none" stroke="midnightblue" d="M837.66,-97.5C828.29,-97.5 818.78,-97.5 809.62,-97.5"/>
<polygon fill="midnightblue" stroke="midnightblue" points="837.76,-101 847.76,-97.5 837.76,-94 837.76,-101"/>
</g>
<!-- Node11 -->
<g id="node11" class="node">
<title>Node11</title>
<g id="a_node11"><a xlink:href="classpfate_1_1LifeHistoryOptimizer.html#a72fdc4d5a3ac119efcb676a1f4436156" target="_top" xlink:title=" ">
<polygon fill="none" stroke="black" points="496,-30.5 496,-60.5 645,-60.5 645,-30.5 496,-30.5"/>
<text text-anchor="start" x="504" y="-48.5" font-family="Helvetica,sans-Serif" font-size="10.00">pfate::LifeHistoryOptimizer</text>
<text text-anchor="middle" x="570.5" y="-37.5" font-family="Helvetica,sans-Serif" font-size="10.00">::set_state</text>
</a>
</g>
</g>
<!-- Node1&#45;&gt;Node11 -->
<g id="edge14" class="edge">
<title>Node1&#45;&gt;Node11</title>
<path fill="none" stroke="midnightblue" d="M838.11,-83C829.32,-81.42 820.47,-79.88 812,-78.5 756.16,-69.4 692.74,-60.77 645.06,-54.62"/>
<polygon fill="midnightblue" stroke="midnightblue" points="837.51,-86.45 847.98,-84.8 838.77,-79.56 837.51,-86.45"/>
</g>
<!-- Node12 -->
<g id="node12" class="node">
<title>Node12</title>
<g id="a_node12"><a xlink:href="classplant_1_1PlantArchitecture.html#af08f391be0b7aa39683b0cc605683c2c" target="_top" xlink:title="Set size and lai, the two state variables that define plant geometry.">
<polygon fill="none" stroke="black" points="681,-0.5 681,-30.5 812,-30.5 812,-0.5 681,-0.5"/>
<text text-anchor="start" x="689" y="-18.5" font-family="Helvetica,sans-Serif" font-size="10.00">plant::PlantArchitecture</text>
<text text-anchor="middle" x="746.5" y="-7.5" font-family="Helvetica,sans-Serif" font-size="10.00">::set_state</text>
</a>
</g>
</g>
<!-- Node1&#45;&gt;Node12 -->
<g id="edge16" class="edge">
<title>Node1&#45;&gt;Node12</title>
<path fill="none" stroke="midnightblue" d="M875.2,-77.73C856.35,-67.86 833.06,-55.84 812,-45.5 801.91,-40.55 790.85,-35.32 780.77,-30.65"/>
<polygon fill="midnightblue" stroke="midnightblue" points="873.59,-80.83 884.07,-82.38 876.85,-74.64 873.59,-80.83"/>
</g>
<!-- Node4 -->
<g id="node4" class="node">
<title>Node4</title>
<g id="a_node4"><a xlink:href="lho_8cpp.html#ae66f6b31b5ad750f1fe042a706a4e3d4" target="_top" xlink:title=" ">
<polygon fill="none" stroke="black" points="180,-129 180,-148 221,-148 221,-129 180,-129"/>
<text text-anchor="middle" x="200.5" y="-136" font-family="Helvetica,sans-Serif" font-size="10.00">main</text>
</a>
</g>
</g>
<!-- Node3&#45;&gt;Node4 -->
<g id="edge3" class="edge">
<title>Node3&#45;&gt;Node4</title>
<path fill="none" stroke="midnightblue" d="M311.98,-165.06C279.18,-157.18 242.98,-148.47 221.25,-143.25"/>
<polygon fill="midnightblue" stroke="midnightblue" points="311.49,-168.55 322.03,-167.48 313.13,-161.74 311.49,-168.55"/>
</g>
<!-- Node5 -->
<g id="node5" class="node">
<title>Node5</title>
<g id="a_node5"><a xlink:href="r__interface_8cpp.html#a7897b94cdc1a829775ac5241571cd456" target="_top" xlink:title=" ">
<polygon fill="none" stroke="black" points="0,-80 0,-99 90,-99 90,-80 0,-80"/>
<text text-anchor="middle" x="45" y="-87" font-family="Helvetica,sans-Serif" font-size="10.00">RCPP_MODULE</text>
</a>
</g>
</g>
<!-- Node3&#45;&gt;Node5 -->
<g id="edge4" class="edge">
<title>Node3&#45;&gt;Node5</title>
<path fill="none" stroke="midnightblue" d="M300.66,-186.92C248.49,-186.68 181.08,-180.82 126,-157.5 94.78,-144.28 66.69,-114.38 53.67,-99.01"/>
<polygon fill="midnightblue" stroke="midnightblue" points="300.89,-190.42 310.88,-186.9 300.87,-183.42 300.89,-190.42"/>
</g>
<!-- Node7 -->
<g id="node7" class="node">
<title>Node7</title>
<g id="a_node7"><a xlink:href="group__libpspm__interface.html#ga6c9356733f84aca1d7bc6980bc97f157" target="_top" xlink:title=" ">
<polygon fill="none" stroke="black" points="512.5,-79.5 512.5,-109.5 628.5,-109.5 628.5,-79.5 512.5,-79.5"/>
<text text-anchor="start" x="520.5" y="-97.5" font-family="Helvetica,sans-Serif" font-size="10.00">plant::Plant::calc</text>
<text text-anchor="middle" x="570.5" y="-86.5" font-family="Helvetica,sans-Serif" font-size="10.00">_demographic_rates</text>
</a>
</g>
</g>
<!-- Node6&#45;&gt;Node7 -->
<g id="edge6" class="edge">
<title>Node6&#45;&gt;Node7</title>
<path fill="none" stroke="midnightblue" d="M673.05,-96.25C658.27,-96 642.92,-95.73 628.75,-95.49"/>
<polygon fill="midnightblue" stroke="midnightblue" points="673.11,-99.75 683.17,-96.43 673.24,-92.75 673.11,-99.75"/>
</g>
<!-- Node7&#45;&gt;Node4 -->
<g id="edge12" class="edge">
<title>Node7&#45;&gt;Node4</title>
<path fill="none" stroke="midnightblue" d="M502.41,-111.5C488.46,-114.56 473.81,-117.43 460,-119.5 371.44,-132.79 264.36,-136.9 221.07,-138.07"/>
<polygon fill="midnightblue" stroke="midnightblue" points="503.42,-114.86 512.41,-109.25 501.89,-108.03 503.42,-114.86"/>
</g>
<!-- Node8 -->
<g id="node8" class="node">
<title>Node8</title>
<g id="a_node8"><a xlink:href="classpfate_1_1LifeHistoryOptimizer.html#ad68ae2c0d92d28dbe0cc5d5ef03a695b" target="_top" xlink:title=" ">
<polygon fill="none" stroke="black" points="311,-30.5 311,-60.5 460,-60.5 460,-30.5 311,-30.5"/>
<text text-anchor="start" x="319" y="-48.5" font-family="Helvetica,sans-Serif" font-size="10.00">pfate::LifeHistoryOptimizer</text>
<text text-anchor="middle" x="385.5" y="-37.5" font-family="Helvetica,sans-Serif" font-size="10.00">::grow_for_dt</text>
</a>
</g>
</g>
<!-- Node7&#45;&gt;Node8 -->
<g id="edge7" class="edge">
<title>Node7&#45;&gt;Node8</title>
<path fill="none" stroke="midnightblue" d="M503.21,-76.75C483.38,-71.44 461.83,-65.67 442.71,-60.55"/>
<polygon fill="midnightblue" stroke="midnightblue" points="502.54,-80.19 513.1,-79.4 504.35,-73.43 502.54,-80.19"/>
</g>
<!-- Node10 -->
<g id="node10" class="node">
<title>Node10</title>
<g id="a_node10"><a xlink:href="group__libpspm__interface.html#gac98af9ecd8e8391fd5afbcd276603e51" target="_top" xlink:title=" ">
<polygon fill="none" stroke="black" points="330,-79.5 330,-109.5 441,-109.5 441,-79.5 330,-79.5"/>
<text text-anchor="start" x="338" y="-97.5" font-family="Helvetica,sans-Serif" font-size="10.00">pfate::PSPM_Plant::</text>
<text text-anchor="middle" x="385.5" y="-86.5" font-family="Helvetica,sans-Serif" font-size="10.00">preCompute</text>
</a>
</g>
</g>
<!-- Node7&#45;&gt;Node10 -->
<g id="edge13" class="edge">
<title>Node7&#45;&gt;Node10</title>
<path fill="none" stroke="midnightblue" d="M502.3,-94.5C482.13,-94.5 460.27,-94.5 441.03,-94.5"/>
<polygon fill="midnightblue" stroke="midnightblue" points="502.35,-98 512.35,-94.5 502.35,-91 502.35,-98"/>
</g>
<!-- Node8&#45;&gt;Node4 -->
<g id="edge10" class="edge">
<title>Node8&#45;&gt;Node4</title>
<path fill="none" stroke="midnightblue" d="M322.28,-64.56C318.38,-66.4 314.59,-68.37 311,-70.5 292.33,-81.56 293,-91.37 275,-103.5 257.89,-115.03 236.39,-124.8 221.07,-131.06"/>
<polygon fill="midnightblue" stroke="midnightblue" points="323.74,-67.74 331.51,-60.55 320.95,-61.33 323.74,-67.74"/>
</g>
<!-- Node8&#45;&gt;Node5 -->
<g id="edge11" class="edge">
<title>Node8&#45;&gt;Node5</title>
<path fill="none" stroke="midnightblue" d="M315.59,-62.79C302.19,-65.71 288.21,-68.46 275,-70.5 211.13,-80.39 136.39,-85.37 90.12,-87.7"/>
<polygon fill="midnightblue" stroke="midnightblue" points="316.7,-66.13 325.69,-60.54 315.17,-59.3 316.7,-66.13"/>
</g>
<!-- Node9 -->
<g id="node9" class="node">
<title>Node9</title>
<g id="a_node9"><a xlink:href="classpfate_1_1LifeHistoryOptimizer.html#a34aebe9641428e3d0bcb1d59ec936e8f" target="_top" xlink:title=" ">
<polygon fill="none" stroke="black" points="126,-30.5 126,-60.5 275,-60.5 275,-30.5 126,-30.5"/>
<text text-anchor="start" x="134" y="-48.5" font-family="Helvetica,sans-Serif" font-size="10.00">pfate::LifeHistoryOptimizer</text>
<text text-anchor="middle" x="200.5" y="-37.5" font-family="Helvetica,sans-Serif" font-size="10.00">::calcFitness</text>
</a>
</g>
</g>
<!-- Node8&#45;&gt;Node9 -->
<g id="edge8" class="edge">
<title>Node8&#45;&gt;Node9</title>
<path fill="none" stroke="midnightblue" d="M300.61,-45.5C292.16,-45.5 283.62,-45.5 275.29,-45.5"/>
<polygon fill="midnightblue" stroke="midnightblue" points="300.86,-49 310.86,-45.5 300.86,-42 300.86,-49"/>
</g>
<!-- Node9&#45;&gt;Node5 -->
<g id="edge9" class="edge">
<title>Node9&#45;&gt;Node5</title>
<path fill="none" stroke="midnightblue" d="M137.22,-63.35C117.44,-69.02 96.34,-75.07 79.42,-79.92"/>
<polygon fill="midnightblue" stroke="midnightblue" points="138.45,-66.64 147.1,-60.52 136.53,-59.91 138.45,-66.64"/>
</g>
<!-- Node11&#45;&gt;Node8 -->
<g id="edge15" class="edge">
<title>Node11&#45;&gt;Node8</title>
<path fill="none" stroke="midnightblue" d="M485.61,-45.5C477.16,-45.5 468.62,-45.5 460.29,-45.5"/>
<polygon fill="midnightblue" stroke="midnightblue" points="485.86,-49 495.86,-45.5 485.86,-42 485.86,-49"/>
</g>
</g>
</svg>
