<?xml version="1.0" encoding="UTF-8" standalone="no"?>
<!DOCTYPE svg PUBLIC "-//W3C//DTD SVG 1.1//EN"
 "http://www.w3.org/Graphics/SVG/1.1/DTD/svg11.dtd">
<!-- Generated by graphviz version 2.43.0 (0)
 -->
<!-- Title: io::Initializer Pages: 1 -->
<svg width="373pt" height="376pt"
 viewBox="0.00 0.00 373.00 376.00" xmlns="http://www.w3.org/2000/svg" xmlns:xlink="http://www.w3.org/1999/xlink">
<g id="graph0" class="graph" transform="scale(1 1) rotate(0) translate(4 372)">
<title>io::Initializer</title>
<!-- Node1 -->
<g id="node1" class="node">
<title>Node1</title>
<g id="a_node1"><a xlink:title="A simple initializer that reads parameters from an ini file.">
<polygon fill="#bfbfbf" stroke="black" points="86.5,-0.5 86.5,-19.5 163.5,-19.5 163.5,-0.5 86.5,-0.5"/>
<text text-anchor="middle" x="125" y="-7.5" font-family="Helvetica,sans-Serif" font-size="10.00">io::Initializer</text>
</a>
</g>
</g>
<!-- Node2 -->
<g id="node2" class="node">
<title>Node2</title>
<g id="a_node2"><a xlink:title=" ">
<polygon fill="none" stroke="#bfbfbf" points="25.5,-73 25.5,-92 104.5,-92 104.5,-73 25.5,-73"/>
<text text-anchor="middle" x="65" y="-80" font-family="Helvetica,sans-Serif" font-size="10.00">std::ifstream</text>
</a>
</g>
</g>
<!-- Node2&#45;&gt;Node1 -->
<g id="edge1" class="edge">
<title>Node2&#45;&gt;Node1</title>
<path fill="none" stroke="#9a32cd" stroke-dasharray="5,2" d="M79.13,-64.9C91.18,-50.74 108.02,-30.96 117.58,-19.72"/>
<polygon fill="#9a32cd" stroke="#9a32cd" points="76.17,-62.97 72.36,-72.86 81.5,-67.51 76.17,-62.97"/>
<text text-anchor="middle" x="109" y="-41" font-family="Helvetica,sans-Serif" font-size="10.00"> fin</text>
</g>
<!-- Node3 -->
<g id="node3" class="node">
<title>Node3</title>
<g id="a_node3"><a xlink:title=" ">
<polygon fill="none" stroke="#bfbfbf" points="10,-145.5 10,-175.5 120,-175.5 120,-145.5 10,-145.5"/>
<text text-anchor="start" x="18" y="-163.5" font-family="Helvetica,sans-Serif" font-size="10.00">std::basic_ifstream</text>
<text text-anchor="middle" x="65" y="-152.5" font-family="Helvetica,sans-Serif" font-size="10.00">&lt; Char &gt;</text>
</a>
</g>
</g>
<!-- Node3&#45;&gt;Node2 -->
<g id="edge2" class="edge">
<title>Node3&#45;&gt;Node2</title>
<path fill="none" stroke="midnightblue" d="M65,-135.17C65,-120.4 65,-102.45 65,-92.06"/>
<polygon fill="midnightblue" stroke="midnightblue" points="61.5,-135.2 65,-145.2 68.5,-135.21 61.5,-135.2"/>
</g>
<!-- Node4 -->
<g id="node4" class="node">
<title>Node4</title>
<g id="a_node4"><a xlink:title=" ">
<polygon fill="none" stroke="#bfbfbf" points="11,-223.5 11,-253.5 117,-253.5 117,-223.5 11,-223.5"/>
<text text-anchor="start" x="19" y="-241.5" font-family="Helvetica,sans-Serif" font-size="10.00">std::basic_istream</text>
<text text-anchor="middle" x="64" y="-230.5" font-family="Helvetica,sans-Serif" font-size="10.00">&lt; Char &gt;</text>
</a>
</g>
</g>
<!-- Node4&#45;&gt;Node3 -->
<g id="edge3" class="edge">
<title>Node4&#45;&gt;Node3</title>
<path fill="none" stroke="midnightblue" d="M64.32,-213.09C64.48,-200.76 64.67,-186.22 64.81,-175.73"/>
<polygon fill="midnightblue" stroke="midnightblue" points="60.82,-213.16 64.19,-223.2 67.82,-213.25 60.82,-213.16"/>
</g>
<!-- Node5 -->
<g id="node5" class="node">
<title>Node5</title>
<g id="a_node5"><a xlink:title=" ">
<polygon fill="none" stroke="#bfbfbf" points="0,-291.5 0,-310.5 128,-310.5 128,-291.5 0,-291.5"/>
<text text-anchor="middle" x="64" y="-298.5" font-family="Helvetica,sans-Serif" font-size="10.00">std::basic_ios&lt; Char &gt;</text>
</a>
</g>
</g>
<!-- Node5&#45;&gt;Node4 -->
<g id="edge4" class="edge">
<title>Node5&#45;&gt;Node4</title>
<path fill="none" stroke="midnightblue" d="M64,-281.22C64,-272.36 64,-261.96 64,-253.76"/>
<polygon fill="midnightblue" stroke="midnightblue" points="60.5,-281.33 64,-291.33 67.5,-281.33 60.5,-281.33"/>
</g>
<!-- Node6 -->
<g id="node6" class="node">
<title>Node6</title>
<g id="a_node6"><a xlink:title=" ">
<polygon fill="none" stroke="#bfbfbf" points="24,-348.5 24,-367.5 104,-367.5 104,-348.5 24,-348.5"/>
<text text-anchor="middle" x="64" y="-355.5" font-family="Helvetica,sans-Serif" font-size="10.00">std::ios_base</text>
</a>
</g>
</g>
<!-- Node6&#45;&gt;Node5 -->
<g id="edge5" class="edge">
<title>Node6&#45;&gt;Node5</title>
<path fill="none" stroke="midnightblue" d="M64,-338.12C64,-328.82 64,-318.06 64,-310.71"/>
<polygon fill="midnightblue" stroke="midnightblue" points="60.5,-338.41 64,-348.41 67.5,-338.41 60.5,-338.41"/>
</g>
<!-- Node7 -->
<g id="node7" class="node">
<title>Node7</title>
<g id="a_node7"><a xlink:title=" ">
<polygon fill="none" stroke="#bfbfbf" points="122.5,-67.5 122.5,-97.5 251.5,-97.5 251.5,-67.5 122.5,-67.5"/>
<text text-anchor="start" x="130.5" y="-85.5" font-family="Helvetica,sans-Serif" font-size="10.00">std::unordered_map</text>
<text text-anchor="middle" x="187" y="-74.5" font-family="Helvetica,sans-Serif" font-size="10.00">&lt; std::string, section &gt;</text>
</a>
</g>
</g>
<!-- Node7&#45;&gt;Node1 -->
<g id="edge6" class="edge">
<title>Node7&#45;&gt;Node1</title>
<path fill="none" stroke="#9a32cd" stroke-dasharray="5,2" d="M167.55,-59.38C155.81,-46.04 141.49,-29.76 132.82,-19.89"/>
<polygon fill="#9a32cd" stroke="#9a32cd" points="165.22,-62.04 174.45,-67.23 170.48,-57.41 165.22,-62.04"/>
<text text-anchor="middle" x="180" y="-41" font-family="Helvetica,sans-Serif" font-size="10.00"> sections</text>
</g>
<!-- Node8 -->
<g id="node8" class="node">
<title>Node8</title>
<g id="a_node8"><a xlink:title=" ">
<polygon fill="none" stroke="#bfbfbf" points="154.5,-151 154.5,-170 219.5,-170 219.5,-151 154.5,-151"/>
<text text-anchor="middle" x="187" y="-158" font-family="Helvetica,sans-Serif" font-size="10.00">std::string</text>
</a>
</g>
</g>
<!-- Node8&#45;&gt;Node7 -->
<g id="edge7" class="edge">
<title>Node8&#45;&gt;Node7</title>
<path fill="none" stroke="#9a32cd" stroke-dasharray="5,2" d="M187,-140.78C187,-127.4 187,-109.69 187,-97.52"/>
<polygon fill="#9a32cd" stroke="#9a32cd" points="183.5,-140.78 187,-150.78 190.5,-140.78 183.5,-140.78"/>
<text text-anchor="middle" x="200" y="-119" font-family="Helvetica,sans-Serif" font-size="10.00"> keys</text>
</g>
<!-- Node9 -->
<g id="node9" class="node">
<title>Node9</title>
<g id="a_node9"><a xlink:title=" ">
<polygon fill="none" stroke="#bfbfbf" points="135,-223.5 135,-253.5 239,-253.5 239,-223.5 135,-223.5"/>
<text text-anchor="start" x="143" y="-241.5" font-family="Helvetica,sans-Serif" font-size="10.00">std::basic_string&lt;</text>
<text text-anchor="middle" x="187" y="-230.5" font-family="Helvetica,sans-Serif" font-size="10.00"> Char &gt;</text>
</a>
</g>
</g>
<!-- Node9&#45;&gt;Node8 -->
<g id="edge8" class="edge">
<title>Node9&#45;&gt;Node8</title>
<path fill="none" stroke="midnightblue" d="M187,-213.17C187,-198.4 187,-180.45 187,-170.06"/>
<polygon fill="midnightblue" stroke="midnightblue" points="183.5,-213.2 187,-223.2 190.5,-213.21 183.5,-213.2"/>
</g>
<!-- Node10 -->
<g id="node10" class="node">
<title>Node10</title>
<g id="a_node10"><a xlink:title=" ">
<polygon fill="none" stroke="#bfbfbf" points="238,-145.5 238,-175.5 352,-175.5 352,-145.5 238,-145.5"/>
<text text-anchor="start" x="246" y="-163.5" font-family="Helvetica,sans-Serif" font-size="10.00">std::unordered_map</text>
<text text-anchor="middle" x="295" y="-152.5" font-family="Helvetica,sans-Serif" font-size="10.00">&lt; K, T &gt;</text>
</a>
</g>
</g>
<!-- Node10&#45;&gt;Node7 -->
<g id="edge9" class="edge">
<title>Node10&#45;&gt;Node7</title>
<path fill="none" stroke="#9a32cd" stroke-dasharray="5,2" d="M266.74,-139.61C247.95,-126.39 223.74,-109.36 206.95,-97.54"/>
<polygon fill="#9a32cd" stroke="#9a32cd" points="264.75,-142.49 274.94,-145.38 268.78,-136.77 264.75,-142.49"/>
<text text-anchor="middle" x="272.5" y="-119" font-family="Helvetica,sans-Serif" font-size="10.00"> elements</text>
</g>
<!-- Node11 -->
<g id="node11" class="node">
<title>Node11</title>
<g id="a_node11"><a xlink:title=" ">
<polygon fill="none" stroke="#bfbfbf" points="268.5,-229 268.5,-248 297.5,-248 297.5,-229 268.5,-229"/>
<text text-anchor="middle" x="283" y="-236" font-family="Helvetica,sans-Serif" font-size="10.00">K</text>
</a>
</g>
</g>
<!-- Node11&#45;&gt;Node10 -->
<g id="edge10" class="edge">
<title>Node11&#45;&gt;Node10</title>
<path fill="none" stroke="#9a32cd" stroke-dasharray="5,2" d="M282.19,-218.64C282.19,-210.95 282.59,-202 284,-194 285.08,-187.9 287.09,-181.39 289.11,-175.81"/>
<polygon fill="#9a32cd" stroke="#9a32cd" points="278.7,-218.84 282.43,-228.76 285.7,-218.68 278.7,-218.84"/>
<text text-anchor="middle" x="297" y="-197" font-family="Helvetica,sans-Serif" font-size="10.00"> keys</text>
</g>
<!-- Node12 -->
<g id="node12" class="node">
<title>Node12</title>
<g id="a_node12"><a xlink:title=" ">
<polygon fill="none" stroke="#bfbfbf" points="317.5,-229 317.5,-248 346.5,-248 346.5,-229 317.5,-229"/>
<text text-anchor="middle" x="332" y="-236" font-family="Helvetica,sans-Serif" font-size="10.00">T</text>
</a>
</g>
</g>
<!-- Node12&#45;&gt;Node10 -->
<g id="edge11" class="edge">
<title>Node12&#45;&gt;Node10</title>
<path fill="none" stroke="#9a32cd" stroke-dasharray="5,2" d="M323.28,-219.58C316.72,-206.11 307.87,-187.93 301.83,-175.52"/>
<polygon fill="#9a32cd" stroke="#9a32cd" points="320.23,-221.32 327.76,-228.78 326.53,-218.26 320.23,-221.32"/>
<text text-anchor="middle" x="340.5" y="-197" font-family="Helvetica,sans-Serif" font-size="10.00"> elements</text>
</g>
</g>
</svg>
