<?xml version="1.0" encoding="UTF-8" standalone="no"?>
<!DOCTYPE svg PUBLIC "-//W3C//DTD SVG 1.1//EN"
 "http://www.w3.org/Graphics/SVG/1.1/DTD/svg11.dtd">
<!-- Generated by graphviz version 2.43.0 (0)
 -->
<!-- Title: plant::PlantArchitecture::get_size Pages: 1 -->
<svg width="954pt" height="185pt"
 viewBox="0.00 0.00 954.00 185.00" xmlns="http://www.w3.org/2000/svg" xmlns:xlink="http://www.w3.org/1999/xlink">
<g id="graph0" class="graph" transform="scale(1 1) rotate(0) translate(4 181)">
<title>plant::PlantArchitecture::get_size</title>
<!-- Node1 -->
<g id="node1" class="node">
<title>Node1</title>
<g id="a_node1"><a xlink:title=" ">
<polygon fill="#bfbfbf" stroke="black" points="815,-73.5 815,-103.5 946,-103.5 946,-73.5 815,-73.5"/>
<text text-anchor="start" x="823" y="-91.5" font-family="Helvetica,sans-Serif" font-size="10.00">plant::PlantArchitecture</text>
<text text-anchor="middle" x="880.5" y="-80.5" font-family="Helvetica,sans-Serif" font-size="10.00">::get_size</text>
</a>
</g>
</g>
<!-- Node2 -->
<g id="node2" class="node">
<title>Node2</title>
<g id="a_node2"><a xlink:href="classpfate_1_1LifeHistoryOptimizer.html#ad68ae2c0d92d28dbe0cc5d5ef03a695b" target="_top" xlink:title=" ">
<polygon fill="none" stroke="black" points="311,-104.5 311,-134.5 460,-134.5 460,-104.5 311,-104.5"/>
<text text-anchor="start" x="319" y="-122.5" font-family="Helvetica,sans-Serif" font-size="10.00">pfate::LifeHistoryOptimizer</text>
<text text-anchor="middle" x="385.5" y="-111.5" font-family="Helvetica,sans-Serif" font-size="10.00">::grow_for_dt</text>
</a>
</g>
</g>
<!-- Node1&#45;&gt;Node2 -->
<g id="edge1" class="edge">
<title>Node1&#45;&gt;Node2</title>
<path fill="none" stroke="midnightblue" d="M848.13,-108.83C828.99,-120 803.57,-132.73 779,-138.5 668.75,-164.41 536.45,-148.73 457.05,-134.5"/>
<polygon fill="midnightblue" stroke="midnightblue" points="849.94,-111.83 856.71,-103.68 846.34,-105.82 849.94,-111.83"/>
</g>
<!-- Node6 -->
<g id="node6" class="node">
<title>Node6</title>
<g id="a_node6"><a xlink:href="classplant_1_1PlantArchitecture.html#afb649f77f93a938b777aef361638b08b" target="_top" xlink:title=" ">
<polygon fill="none" stroke="black" points="648,-98.5 648,-128.5 779,-128.5 779,-98.5 648,-98.5"/>
<text text-anchor="start" x="656" y="-116.5" font-family="Helvetica,sans-Serif" font-size="10.00">plant::PlantArchitecture</text>
<text text-anchor="middle" x="713.5" y="-105.5" font-family="Helvetica,sans-Serif" font-size="10.00">::grow_for_dt</text>
</a>
</g>
</g>
<!-- Node1&#45;&gt;Node6 -->
<g id="edge6" class="edge">
<title>Node1&#45;&gt;Node6</title>
<path fill="none" stroke="midnightblue" d="M804.76,-99.82C796.18,-101.12 787.48,-102.44 779.05,-103.72"/>
<polygon fill="midnightblue" stroke="midnightblue" points="805.4,-103.27 814.76,-98.31 804.35,-96.35 805.4,-103.27"/>
</g>
<!-- Node7 -->
<g id="node7" class="node">
<title>Node7</title>
<g id="a_node7"><a xlink:href="group__trait__evolution.html#gaad464c09ff3a32053e5100c4e87e6c61" target="_top" xlink:title="Print out evolvable traits and other important variables of the plant in a single line.">
<polygon fill="none" stroke="black" points="658,-49.5 658,-79.5 769,-79.5 769,-49.5 658,-49.5"/>
<text text-anchor="start" x="666" y="-67.5" font-family="Helvetica,sans-Serif" font-size="10.00">pfate::PSPM_Plant::</text>
<text text-anchor="middle" x="713.5" y="-56.5" font-family="Helvetica,sans-Serif" font-size="10.00">print</text>
</a>
</g>
</g>
<!-- Node1&#45;&gt;Node7 -->
<g id="edge7" class="edge">
<title>Node1&#45;&gt;Node7</title>
<path fill="none" stroke="midnightblue" d="M804.77,-77.63C792.79,-75.89 780.58,-74.11 769.18,-72.45"/>
<polygon fill="midnightblue" stroke="midnightblue" points="804.36,-81.11 814.76,-79.08 805.37,-74.18 804.36,-81.11"/>
</g>
<!-- Node8 -->
<g id="node8" class="node">
<title>Node8</title>
<g id="a_node8"><a xlink:href="group__libpspm__interface.html#gae3454b0d55be59a37e19915d47431da6" target="_top" xlink:title=" ">
<polygon fill="none" stroke="black" points="664.5,-0.5 664.5,-30.5 762.5,-30.5 762.5,-0.5 664.5,-0.5"/>
<text text-anchor="start" x="672.5" y="-18.5" font-family="Helvetica,sans-Serif" font-size="10.00">plant::Plant::size</text>
<text text-anchor="middle" x="713.5" y="-7.5" font-family="Helvetica,sans-Serif" font-size="10.00">_growth_rate</text>
</a>
</g>
</g>
<!-- Node1&#45;&gt;Node8 -->
<g id="edge8" class="edge">
<title>Node1&#45;&gt;Node8</title>
<path fill="none" stroke="midnightblue" d="M840.43,-68.99C821.96,-59.99 799.5,-49.35 779,-40.5 771.17,-37.12 762.72,-33.69 754.6,-30.5"/>
<polygon fill="midnightblue" stroke="midnightblue" points="838.91,-72.14 849.43,-73.4 841.99,-65.86 838.91,-72.14"/>
</g>
<!-- Node3 -->
<g id="node3" class="node">
<title>Node3</title>
<g id="a_node3"><a xlink:href="classpfate_1_1LifeHistoryOptimizer.html#a34aebe9641428e3d0bcb1d59ec936e8f" target="_top" xlink:title=" ">
<polygon fill="none" stroke="black" points="126,-146.5 126,-176.5 275,-176.5 275,-146.5 126,-146.5"/>
<text text-anchor="start" x="134" y="-164.5" font-family="Helvetica,sans-Serif" font-size="10.00">pfate::LifeHistoryOptimizer</text>
<text text-anchor="middle" x="200.5" y="-153.5" font-family="Helvetica,sans-Serif" font-size="10.00">::calcFitness</text>
</a>
</g>
</g>
<!-- Node2&#45;&gt;Node3 -->
<g id="edge2" class="edge">
<title>Node2&#45;&gt;Node3</title>
<path fill="none" stroke="midnightblue" d="M308.91,-136.85C294.96,-140.05 280.51,-143.37 266.9,-146.49"/>
<polygon fill="midnightblue" stroke="midnightblue" points="309.99,-140.19 318.95,-134.54 308.42,-133.37 309.99,-140.19"/>
</g>
<!-- Node4 -->
<g id="node4" class="node">
<title>Node4</title>
<g id="a_node4"><a xlink:href="r__interface_8cpp.html#a7897b94cdc1a829775ac5241571cd456" target="_top" xlink:title=" ">
<polygon fill="none" stroke="black" points="0,-130 0,-149 90,-149 90,-130 0,-130"/>
<text text-anchor="middle" x="45" y="-137" font-family="Helvetica,sans-Serif" font-size="10.00">RCPP_MODULE</text>
</a>
</g>
</g>
<!-- Node2&#45;&gt;Node4 -->
<g id="edge5" class="edge">
<title>Node2&#45;&gt;Node4</title>
<path fill="none" stroke="midnightblue" d="M300.57,-124.46C233.93,-128.4 143.4,-133.74 90.19,-136.89"/>
<polygon fill="midnightblue" stroke="midnightblue" points="300.86,-127.95 310.63,-123.86 300.44,-120.96 300.86,-127.95"/>
</g>
<!-- Node5 -->
<g id="node5" class="node">
<title>Node5</title>
<g id="a_node5"><a xlink:href="lho_8cpp.html#ae66f6b31b5ad750f1fe042a706a4e3d4" target="_top" xlink:title=" ">
<polygon fill="none" stroke="black" points="180,-69 180,-88 221,-88 221,-69 180,-69"/>
<text text-anchor="middle" x="200.5" y="-76" font-family="Helvetica,sans-Serif" font-size="10.00">main</text>
</a>
</g>
</g>
<!-- Node2&#45;&gt;Node5 -->
<g id="edge4" class="edge">
<title>Node2&#45;&gt;Node5</title>
<path fill="none" stroke="midnightblue" d="M307.23,-102.19C275.62,-95.11 241.68,-87.5 221.02,-82.87"/>
<polygon fill="midnightblue" stroke="midnightblue" points="306.87,-105.69 317.4,-104.47 308.4,-98.86 306.87,-105.69"/>
</g>
<!-- Node3&#45;&gt;Node4 -->
<g id="edge3" class="edge">
<title>Node3&#45;&gt;Node4</title>
<path fill="none" stroke="midnightblue" d="M115.93,-149.52C107.12,-148.26 98.43,-147.01 90.33,-145.85"/>
<polygon fill="midnightblue" stroke="midnightblue" points="115.5,-153 125.9,-150.95 116.49,-146.07 115.5,-153"/>
</g>
<!-- Node9 -->
<g id="node9" class="node">
<title>Node9</title>
<g id="a_node9"><a xlink:href="group__libpspm__interface.html#ga6c9356733f84aca1d7bc6980bc97f157" target="_top" xlink:title=" ">
<polygon fill="none" stroke="black" points="496,-38.5 496,-68.5 612,-68.5 612,-38.5 496,-38.5"/>
<text text-anchor="start" x="504" y="-56.5" font-family="Helvetica,sans-Serif" font-size="10.00">plant::Plant::calc</text>
<text text-anchor="middle" x="554" y="-45.5" font-family="Helvetica,sans-Serif" font-size="10.00">_demographic_rates</text>
</a>
</g>
</g>
<!-- Node8&#45;&gt;Node9 -->
<g id="edge9" class="edge">
<title>Node8&#45;&gt;Node9</title>
<path fill="none" stroke="midnightblue" d="M654.53,-29.49C640.72,-32.82 626,-36.37 612.23,-39.69"/>
<polygon fill="midnightblue" stroke="midnightblue" points="655.49,-32.86 664.39,-27.11 653.85,-26.05 655.49,-32.86"/>
</g>
<!-- Node9&#45;&gt;Node2 -->
<g id="edge10" class="edge">
<title>Node9&#45;&gt;Node2</title>
<path fill="none" stroke="midnightblue" d="M505.28,-72.42C479.65,-82.58 448.49,-94.93 424.52,-104.43"/>
<polygon fill="midnightblue" stroke="midnightblue" points="506.8,-75.58 514.8,-68.64 504.22,-69.07 506.8,-75.58"/>
</g>
<!-- Node9&#45;&gt;Node5 -->
<g id="edge11" class="edge">
<title>Node9&#45;&gt;Node5</title>
<path fill="none" stroke="midnightblue" d="M485.56,-58.3C403.89,-64.11 271.09,-73.55 221.24,-77.1"/>
<polygon fill="midnightblue" stroke="midnightblue" points="486.02,-61.77 495.74,-57.57 485.52,-54.79 486.02,-61.77"/>
</g>
<!-- Node10 -->
<g id="node10" class="node">
<title>Node10</title>
<g id="a_node10"><a xlink:href="group__libpspm__interface.html#gac98af9ecd8e8391fd5afbcd276603e51" target="_top" xlink:title=" ">
<polygon fill="none" stroke="black" points="330,-16.5 330,-46.5 441,-46.5 441,-16.5 330,-16.5"/>
<text text-anchor="start" x="338" y="-34.5" font-family="Helvetica,sans-Serif" font-size="10.00">pfate::PSPM_Plant::</text>
<text text-anchor="middle" x="385.5" y="-23.5" font-family="Helvetica,sans-Serif" font-size="10.00">preCompute</text>
</a>
</g>
</g>
<!-- Node9&#45;&gt;Node10 -->
<g id="edge12" class="edge">
<title>Node9&#45;&gt;Node10</title>
<path fill="none" stroke="midnightblue" d="M485.59,-44.59C470.8,-42.64 455.31,-40.59 441.1,-38.71"/>
<polygon fill="midnightblue" stroke="midnightblue" points="485.33,-48.09 495.7,-45.93 486.24,-41.15 485.33,-48.09"/>
</g>
</g>
</svg>
