<?xml version="1.0" encoding="UTF-8" standalone="no"?>
<!DOCTYPE svg PUBLIC "-//W3C//DTD SVG 1.1//EN"
 "http://www.w3.org/Graphics/SVG/1.1/DTD/svg11.dtd">
<!-- Generated by graphviz version 2.43.0 (0)
 -->
<!-- Title: pfate::LifeHistoryOptimizer::printMeta Pages: 1 -->
<svg width="339pt" height="78pt"
 viewBox="0.00 0.00 339.00 77.50" xmlns="http://www.w3.org/2000/svg" xmlns:xlink="http://www.w3.org/1999/xlink">
<g id="graph0" class="graph" transform="scale(1 1) rotate(0) translate(4 73.5)">
<title>pfate::LifeHistoryOptimizer::printMeta</title>
<!-- Node1 -->
<g id="node1" class="node">
<title>Node1</title>
<g id="a_node1"><a xlink:title=" ">
<polygon fill="#bfbfbf" stroke="black" points="0,-22.5 0,-52.5 149,-52.5 149,-22.5 0,-22.5"/>
<text text-anchor="start" x="8" y="-40.5" font-family="Helvetica,sans-Serif" font-size="10.00">pfate::LifeHistoryOptimizer</text>
<text text-anchor="middle" x="74.5" y="-29.5" font-family="Helvetica,sans-Serif" font-size="10.00">::printMeta</text>
</a>
</g>
</g>
<!-- Node2 -->
<g id="node2" class="node">
<title>Node2</title>
<g id="a_node2"><a xlink:href="classplant_1_1Plant.html#a9fb2114ee93a45631252716682aa0b60" target="_top" xlink:title=" ">
<polygon fill="none" stroke="black" points="207.5,-50 207.5,-69 308.5,-69 308.5,-50 207.5,-50"/>
<text text-anchor="middle" x="258" y="-57" font-family="Helvetica,sans-Serif" font-size="10.00">plant::Plant::print</text>
</a>
</g>
</g>
<!-- Node1&#45;&gt;Node2 -->
<g id="edge1" class="edge">
<title>Node1&#45;&gt;Node2</title>
<path fill="none" stroke="midnightblue" d="M149.06,-46.42C165.18,-48.37 182.06,-50.42 197.54,-52.29"/>
<polygon fill="midnightblue" stroke="midnightblue" points="197.15,-55.77 207.5,-53.5 197.99,-48.82 197.15,-55.77"/>
</g>
<!-- Node3 -->
<g id="node3" class="node">
<title>Node3</title>
<g id="a_node3"><a xlink:href="classpfate_1_1ErgodicEnvironment.html#a342c3ec04d748bdf6ddb0fc863aedbaa" target="_top" xlink:title=" ">
<polygon fill="none" stroke="black" points="185,-0.5 185,-30.5 331,-30.5 331,-0.5 185,-0.5"/>
<text text-anchor="start" x="193" y="-18.5" font-family="Helvetica,sans-Serif" font-size="10.00">pfate::ErgodicEnvironment</text>
<text text-anchor="middle" x="258" y="-7.5" font-family="Helvetica,sans-Serif" font-size="10.00">::print</text>
</a>
</g>
</g>
<!-- Node1&#45;&gt;Node3 -->
<g id="edge2" class="edge">
<title>Node1&#45;&gt;Node3</title>
<path fill="none" stroke="midnightblue" d="M149.06,-28.58C157.54,-27.56 166.22,-26.5 174.8,-25.46"/>
<polygon fill="midnightblue" stroke="midnightblue" points="175.3,-28.93 184.81,-24.25 174.46,-21.98 175.3,-28.93"/>
</g>
</g>
</svg>
