<?xml version="1.0" encoding="UTF-8" standalone="no"?>
<!DOCTYPE svg PUBLIC "-//W3C//DTD SVG 1.1//EN"
 "http://www.w3.org/Graphics/SVG/1.1/DTD/svg11.dtd">
<!-- Generated by graphviz version 2.43.0 (0)
 -->
<!-- Title: pfate::ErgodicEnvironment::print Pages: 1 -->
<svg width="465pt" height="61pt"
 viewBox="0.00 0.00 465.00 61.00" xmlns="http://www.w3.org/2000/svg" xmlns:xlink="http://www.w3.org/1999/xlink">
<g id="graph0" class="graph" transform="scale(1 1) rotate(0) translate(4 57)">
<title>pfate::ErgodicEnvironment::print</title>
<!-- Node1 -->
<g id="node1" class="node">
<title>Node1</title>
<g id="a_node1"><a xlink:title=" ">
<polygon fill="#bfbfbf" stroke="black" points="311,-0.5 311,-30.5 457,-30.5 457,-0.5 311,-0.5"/>
<text text-anchor="start" x="319" y="-18.5" font-family="Helvetica,sans-Serif" font-size="10.00">pfate::ErgodicEnvironment</text>
<text text-anchor="middle" x="384" y="-7.5" font-family="Helvetica,sans-Serif" font-size="10.00">::print</text>
</a>
</g>
</g>
<!-- Node2 -->
<g id="node2" class="node">
<title>Node2</title>
<g id="a_node2"><a xlink:href="classpfate_1_1LifeHistoryOptimizer.html#ae55d76e297c7f599d00bea55334c517d" target="_top" xlink:title=" ">
<polygon fill="none" stroke="black" points="126,-22.5 126,-52.5 275,-52.5 275,-22.5 126,-22.5"/>
<text text-anchor="start" x="134" y="-40.5" font-family="Helvetica,sans-Serif" font-size="10.00">pfate::LifeHistoryOptimizer</text>
<text text-anchor="middle" x="200.5" y="-29.5" font-family="Helvetica,sans-Serif" font-size="10.00">::printMeta</text>
</a>
</g>
</g>
<!-- Node1&#45;&gt;Node2 -->
<g id="edge1" class="edge">
<title>Node1&#45;&gt;Node2</title>
<path fill="none" stroke="midnightblue" d="M300.54,-25.49C292.12,-26.52 283.61,-27.55 275.29,-28.56"/>
<polygon fill="midnightblue" stroke="midnightblue" points="301.24,-28.94 310.74,-24.26 300.4,-21.99 301.24,-28.94"/>
</g>
<!-- Node3 -->
<g id="node3" class="node">
<title>Node3</title>
<g id="a_node3"><a xlink:href="r__interface_8cpp.html#a7897b94cdc1a829775ac5241571cd456" target="_top" xlink:title=" ">
<polygon fill="none" stroke="black" points="0,-6 0,-25 90,-25 90,-6 0,-6"/>
<text text-anchor="middle" x="45" y="-13" font-family="Helvetica,sans-Serif" font-size="10.00">RCPP_MODULE</text>
</a>
</g>
</g>
<!-- Node1&#45;&gt;Node3 -->
<g id="edge3" class="edge">
<title>Node1&#45;&gt;Node3</title>
<path fill="none" stroke="midnightblue" d="M300.78,-13.82C292.08,-13.69 283.36,-13.58 275,-13.5 208.78,-12.89 192.22,-12.67 126,-13.5 114.33,-13.65 101.71,-13.91 90.01,-14.2"/>
<polygon fill="midnightblue" stroke="midnightblue" points="300.91,-17.32 310.97,-13.98 301.02,-10.32 300.91,-17.32"/>
</g>
<!-- Node2&#45;&gt;Node3 -->
<g id="edge2" class="edge">
<title>Node2&#45;&gt;Node3</title>
<path fill="none" stroke="midnightblue" d="M115.93,-25.52C107.12,-24.26 98.43,-23.01 90.33,-21.85"/>
<polygon fill="midnightblue" stroke="midnightblue" points="115.5,-29 125.9,-26.95 116.49,-22.07 115.5,-29"/>
</g>
</g>
</svg>
