<?xml version="1.0" encoding="UTF-8" standalone="no"?>
<!DOCTYPE svg PUBLIC "-//W3C//DTD SVG 1.1//EN"
 "http://www.w3.org/Graphics/SVG/1.1/DTD/svg11.dtd">
<!-- Generated by graphviz version 2.43.0 (0)
 -->
<!-- Title: pfate::Patch::simulate_to Pages: 1 -->
<svg width="420pt" height="28pt"
 viewBox="0.00 0.00 420.00 28.00" xmlns="http://www.w3.org/2000/svg" xmlns:xlink="http://www.w3.org/1999/xlink">
<g id="graph0" class="graph" transform="scale(1 1) rotate(0) translate(4 24)">
<title>pfate::Patch::simulate_to</title>
<!-- Node1 -->
<g id="node1" class="node">
<title>Node1</title>
<g id="a_node1"><a xlink:title="This function simulates patch to time t.">
<polygon fill="#bfbfbf" stroke="black" points="0,-0.5 0,-19.5 139,-19.5 139,-0.5 0,-0.5"/>
<text text-anchor="middle" x="69.5" y="-7.5" font-family="Helvetica,sans-Serif" font-size="10.00">pfate::Patch::simulate_to</text>
</a>
</g>
</g>
<!-- Node2 -->
<g id="node2" class="node">
<title>Node2</title>
<g id="a_node2"><a xlink:href="namespacepfate.html#aa3b7425f62503d7549ea5237bccee611" target="_top" xlink:title=" ">
<polygon fill="none" stroke="black" points="175,-0.5 175,-19.5 272,-19.5 272,-0.5 175,-0.5"/>
<text text-anchor="middle" x="223.5" y="-7.5" font-family="Helvetica,sans-Serif" font-size="10.00">pfate::saveState</text>
</a>
</g>
</g>
<!-- Node1&#45;&gt;Node2 -->
<g id="edge1" class="edge">
<title>Node1&#45;&gt;Node2</title>
<path fill="none" stroke="midnightblue" d="M139.38,-10C147.78,-10 156.29,-10 164.51,-10"/>
<polygon fill="midnightblue" stroke="midnightblue" points="164.72,-13.5 174.72,-10 164.72,-6.5 164.72,-13.5"/>
</g>
<!-- Node3 -->
<g id="node3" class="node">
<title>Node3</title>
<g id="a_node3"><a xlink:href="classpfate_1_1Patch.html#ae945da577720468b8fbf6afe71536a3b" target="_top" xlink:title=" ">
<polygon fill="none" stroke="black" points="308,-0.5 308,-19.5 412,-19.5 412,-0.5 308,-0.5"/>
<text text-anchor="middle" x="360" y="-7.5" font-family="Helvetica,sans-Serif" font-size="10.00">pfate::Patch::save</text>
</a>
</g>
</g>
<!-- Node2&#45;&gt;Node3 -->
<g id="edge2" class="edge">
<title>Node2&#45;&gt;Node3</title>
<path fill="none" stroke="midnightblue" d="M272.3,-10C280.46,-10 289.04,-10 297.49,-10"/>
<polygon fill="midnightblue" stroke="midnightblue" points="297.71,-13.5 307.71,-10 297.71,-6.5 297.71,-13.5"/>
</g>
</g>
</svg>
