<?xml version="1.0" encoding="UTF-8" standalone="no"?>
<!DOCTYPE svg PUBLIC "-//W3C//DTD SVG 1.1//EN"
 "http://www.w3.org/Graphics/SVG/1.1/DTD/svg11.dtd">
<!-- Generated by graphviz version 2.43.0 (0)
 -->
<!-- Title: plant::Plant::p_survival_dispersal Pages: 1 -->
<svg width="468pt" height="118pt"
 viewBox="0.00 0.00 468.00 117.50" xmlns="http://www.w3.org/2000/svg" xmlns:xlink="http://www.w3.org/1999/xlink">
<g id="graph0" class="graph" transform="scale(1 1) rotate(0) translate(4 113.5)">
<title>plant::Plant::p_survival_dispersal</title>
<!-- Node1 -->
<g id="node1" class="node">
<title>Node1</title>
<g id="a_node1"><a xlink:title="Probability of survival during dispersal.">
<polygon fill="#bfbfbf" stroke="black" points="332,-54 332,-84 460,-84 460,-54 332,-54"/>
<text text-anchor="start" x="340" y="-72" font-family="Helvetica,sans-Serif" font-size="10.00">plant::Plant::p_survival</text>
<text text-anchor="middle" x="396" y="-61" font-family="Helvetica,sans-Serif" font-size="10.00">_dispersal</text>
</a>
</g>
</g>
<!-- Node2 -->
<g id="node2" class="node">
<title>Node2</title>
<g id="a_node2"><a xlink:href="group__libpspm__interface.html#ga98991525cfbe254180dda76a24df6246" target="_top" xlink:title=" ">
<polygon fill="none" stroke="black" points="152,-79 152,-109 291,-109 291,-79 152,-79"/>
<text text-anchor="start" x="160" y="-97" font-family="Helvetica,sans-Serif" font-size="10.00">pfate::PSPM_Plant::</text>
<text text-anchor="middle" x="221.5" y="-86" font-family="Helvetica,sans-Serif" font-size="10.00">establishmentProbability</text>
</a>
</g>
</g>
<!-- Node1&#45;&gt;Node2 -->
<g id="edge1" class="edge">
<title>Node1&#45;&gt;Node2</title>
<path fill="none" stroke="midnightblue" d="M321.74,-79.62C311.64,-81.08 301.29,-82.58 291.27,-84.03"/>
<polygon fill="midnightblue" stroke="midnightblue" points="322.35,-83.07 331.75,-78.17 321.35,-76.14 322.35,-83.07"/>
</g>
<!-- Node4 -->
<g id="node4" class="node">
<title>Node4</title>
<g id="a_node4"><a xlink:href="classpfate_1_1LifeHistoryOptimizer.html#a498360fd80194590570542dcecd524c7" target="_top" xlink:title=" ">
<polygon fill="none" stroke="black" points="147,-30 147,-60 296,-60 296,-30 147,-30"/>
<text text-anchor="start" x="155" y="-48" font-family="Helvetica,sans-Serif" font-size="10.00">pfate::LifeHistoryOptimizer</text>
<text text-anchor="middle" x="221.5" y="-37" font-family="Helvetica,sans-Serif" font-size="10.00">::init</text>
</a>
</g>
</g>
<!-- Node1&#45;&gt;Node4 -->
<g id="edge3" class="edge">
<title>Node1&#45;&gt;Node4</title>
<path fill="none" stroke="midnightblue" d="M321.61,-58.79C313.22,-57.62 304.66,-56.43 296.27,-55.26"/>
<polygon fill="midnightblue" stroke="midnightblue" points="321.36,-62.29 331.75,-60.2 322.32,-55.35 321.36,-62.29"/>
</g>
<!-- Node3 -->
<g id="node3" class="node">
<title>Node3</title>
<g id="a_node3"><a xlink:href="classpfate_1_1PSPM__Plant.html#a2422f6eebeee0e4d590e155b1563fd3f" target="_top" xlink:title=" ">
<polygon fill="none" stroke="black" points="0,-79 0,-109 111,-109 111,-79 0,-79"/>
<text text-anchor="start" x="8" y="-97" font-family="Helvetica,sans-Serif" font-size="10.00">pfate::PSPM_Plant::</text>
<text text-anchor="middle" x="55.5" y="-86" font-family="Helvetica,sans-Serif" font-size="10.00">init_accumulators</text>
</a>
</g>
</g>
<!-- Node2&#45;&gt;Node3 -->
<g id="edge2" class="edge">
<title>Node2&#45;&gt;Node3</title>
<path fill="none" stroke="midnightblue" d="M141.63,-94C131.3,-94 120.92,-94 111.12,-94"/>
<polygon fill="midnightblue" stroke="midnightblue" points="141.9,-97.5 151.9,-94 141.9,-90.5 141.9,-97.5"/>
</g>
<!-- Node5 -->
<g id="node5" class="node">
<title>Node5</title>
<g id="a_node5"><a xlink:href="lho_8cpp.html#ae66f6b31b5ad750f1fe042a706a4e3d4" target="_top" xlink:title=" ">
<polygon fill="none" stroke="black" points="35,-38.5 35,-57.5 76,-57.5 76,-38.5 35,-38.5"/>
<text text-anchor="middle" x="55.5" y="-45.5" font-family="Helvetica,sans-Serif" font-size="10.00">main</text>
</a>
</g>
</g>
<!-- Node4&#45;&gt;Node5 -->
<g id="edge4" class="edge">
<title>Node4&#45;&gt;Node5</title>
<path fill="none" stroke="midnightblue" d="M136.63,-46.53C114.02,-46.95 91.6,-47.36 76.25,-47.64"/>
<polygon fill="midnightblue" stroke="midnightblue" points="136.72,-50.03 146.66,-46.35 136.59,-43.03 136.72,-50.03"/>
</g>
<!-- Node6 -->
<g id="node6" class="node">
<title>Node6</title>
<g id="a_node6"><a xlink:href="r__interface_8cpp.html#a7897b94cdc1a829775ac5241571cd456" target="_top" xlink:title=" ">
<polygon fill="none" stroke="black" points="10.5,-0.5 10.5,-19.5 100.5,-19.5 100.5,-0.5 10.5,-0.5"/>
<text text-anchor="middle" x="55.5" y="-7.5" font-family="Helvetica,sans-Serif" font-size="10.00">RCPP_MODULE</text>
</a>
</g>
</g>
<!-- Node4&#45;&gt;Node6 -->
<g id="edge5" class="edge">
<title>Node4&#45;&gt;Node6</title>
<path fill="none" stroke="midnightblue" d="M140.18,-27.86C126.65,-24.97 113.06,-22.07 100.88,-19.47"/>
<polygon fill="midnightblue" stroke="midnightblue" points="139.49,-31.29 150,-29.95 140.95,-24.44 139.49,-31.29"/>
</g>
</g>
</svg>
