<?xml version="1.0" encoding="UTF-8" standalone="no"?>
<!DOCTYPE svg PUBLIC "-//W3C//DTD SVG 1.1//EN"
 "http://www.w3.org/Graphics/SVG/1.1/DTD/svg11.dtd">
<!-- Generated by graphviz version 2.43.0 (0)
 -->
<!-- Title: plant::PlantParameters::initFromFile Pages: 1 -->
<svg width="705pt" height="78pt"
 viewBox="0.00 0.00 705.00 77.50" xmlns="http://www.w3.org/2000/svg" xmlns:xlink="http://www.w3.org/1999/xlink">
<g id="graph0" class="graph" transform="scale(1 1) rotate(0) translate(4 73.5)">
<title>plant::PlantParameters::initFromFile</title>
<!-- Node1 -->
<g id="node1" class="node">
<title>Node1</title>
<g id="a_node1"><a xlink:title=" ">
<polygon fill="#bfbfbf" stroke="black" points="0,-17 0,-47 128,-47 128,-17 0,-17"/>
<text text-anchor="start" x="8" y="-35" font-family="Helvetica,sans-Serif" font-size="10.00">plant::PlantParameters</text>
<text text-anchor="middle" x="64" y="-24" font-family="Helvetica,sans-Serif" font-size="10.00">::initFromFile</text>
</a>
</g>
</g>
<!-- Node2 -->
<g id="node2" class="node">
<title>Node2</title>
<g id="a_node2"><a xlink:href="classplant_1_1PlantParameters.html#a6f4ee512f917665608504a6a893d92f3" target="_top" xlink:title=" ">
<polygon fill="none" stroke="black" points="164,-39 164,-69 292,-69 292,-39 164,-39"/>
<text text-anchor="start" x="172" y="-57" font-family="Helvetica,sans-Serif" font-size="10.00">plant::PlantParameters</text>
<text text-anchor="middle" x="228" y="-46" font-family="Helvetica,sans-Serif" font-size="10.00">::init</text>
</a>
</g>
</g>
<!-- Node1&#45;&gt;Node2 -->
<g id="edge1" class="edge">
<title>Node1&#45;&gt;Node2</title>
<path fill="none" stroke="midnightblue" d="M128.1,-40.57C136.53,-41.71 145.23,-42.9 153.81,-44.06"/>
<polygon fill="midnightblue" stroke="midnightblue" points="153.43,-47.54 163.81,-45.42 154.37,-40.6 153.43,-47.54"/>
</g>
<!-- Node6 -->
<g id="node6" class="node">
<title>Node6</title>
<g id="a_node6"><a xlink:href="classio_1_1Initializer.html#a7c3261fb7e141a0d06d9b0c41de9af66" target="_top" xlink:title=" ">
<polygon fill="none" stroke="black" points="173,-0.5 173,-19.5 283,-19.5 283,-0.5 173,-0.5"/>
<text text-anchor="middle" x="228" y="-7.5" font-family="Helvetica,sans-Serif" font-size="10.00">io::Initializer::parse</text>
</a>
</g>
</g>
<!-- Node1&#45;&gt;Node6 -->
<g id="edge5" class="edge">
<title>Node1&#45;&gt;Node6</title>
<path fill="none" stroke="midnightblue" d="M128.1,-23.43C139.39,-21.9 151.17,-20.3 162.5,-18.76"/>
<polygon fill="midnightblue" stroke="midnightblue" points="163.31,-22.18 172.75,-17.37 162.37,-15.24 163.31,-22.18"/>
</g>
<!-- Node3 -->
<g id="node3" class="node">
<title>Node3</title>
<g id="a_node3"><a xlink:href="classio_1_1Initializer.html#a098a8511a950a4449925c8315af36bdb" target="_top" xlink:title=" ">
<polygon fill="none" stroke="black" points="328,-44.5 328,-63.5 427,-63.5 427,-44.5 328,-44.5"/>
<text text-anchor="middle" x="377.5" y="-51.5" font-family="Helvetica,sans-Serif" font-size="10.00">io::Initializer::get</text>
</a>
</g>
</g>
<!-- Node2&#45;&gt;Node3 -->
<g id="edge2" class="edge">
<title>Node2&#45;&gt;Node3</title>
<path fill="none" stroke="midnightblue" d="M292.41,-54C300.85,-54 309.47,-54 317.82,-54"/>
<polygon fill="midnightblue" stroke="midnightblue" points="317.85,-57.5 327.85,-54 317.85,-50.5 317.85,-57.5"/>
</g>
<!-- Node4 -->
<g id="node4" class="node">
<title>Node4</title>
<g id="a_node4"><a xlink:href="classio_1_1Initializer.html#a06fe79d6d19f76180836e03e3ad6b7fb" target="_top" xlink:title=" ">
<polygon fill="none" stroke="black" points="463,-39 463,-69 562,-69 562,-39 463,-39"/>
<text text-anchor="start" x="471" y="-57" font-family="Helvetica,sans-Serif" font-size="10.00">io::Initializer::get</text>
<text text-anchor="middle" x="512.5" y="-46" font-family="Helvetica,sans-Serif" font-size="10.00">_value</text>
</a>
</g>
</g>
<!-- Node3&#45;&gt;Node4 -->
<g id="edge3" class="edge">
<title>Node3&#45;&gt;Node4</title>
<path fill="none" stroke="midnightblue" d="M427.27,-54C435.49,-54 444.1,-54 452.55,-54"/>
<polygon fill="midnightblue" stroke="midnightblue" points="452.74,-57.5 462.74,-54 452.74,-50.5 452.74,-57.5"/>
</g>
<!-- Node5 -->
<g id="node5" class="node">
<title>Node5</title>
<g id="a_node5"><a xlink:href="classio_1_1Initializer.html#a310526fc5b0c2c257bee66d6f48fa4ae" target="_top" xlink:title=" ">
<polygon fill="none" stroke="black" points="598,-39 598,-69 697,-69 697,-39 598,-39"/>
<text text-anchor="start" x="606" y="-57" font-family="Helvetica,sans-Serif" font-size="10.00">io::Initializer::get</text>
<text text-anchor="middle" x="647.5" y="-46" font-family="Helvetica,sans-Serif" font-size="10.00">_section</text>
</a>
</g>
</g>
<!-- Node4&#45;&gt;Node5 -->
<g id="edge4" class="edge">
<title>Node4&#45;&gt;Node5</title>
<path fill="none" stroke="midnightblue" d="M562.27,-54C570.49,-54 579.1,-54 587.55,-54"/>
<polygon fill="midnightblue" stroke="midnightblue" points="587.74,-57.5 597.74,-54 587.74,-50.5 587.74,-57.5"/>
</g>
</g>
</svg>
