<?xml version="1.0" encoding="UTF-8" standalone="no"?>
<!DOCTYPE svg PUBLIC "-//W3C//DTD SVG 1.1//EN"
 "http://www.w3.org/Graphics/SVG/1.1/DTD/svg11.dtd">
<!-- Generated by graphviz version 2.43.0 (0)
 -->
<!-- Title: pfate::LifeHistoryOptimizer::set_state Pages: 1 -->
<svg width="324pt" height="78pt"
 viewBox="0.00 0.00 324.00 77.50" xmlns="http://www.w3.org/2000/svg" xmlns:xlink="http://www.w3.org/1999/xlink">
<g id="graph0" class="graph" transform="scale(1 1) rotate(0) translate(4 73.5)">
<title>pfate::LifeHistoryOptimizer::set_state</title>
<!-- Node1 -->
<g id="node1" class="node">
<title>Node1</title>
<g id="a_node1"><a xlink:title=" ">
<polygon fill="#bfbfbf" stroke="black" points="0,-17 0,-47 149,-47 149,-17 0,-17"/>
<text text-anchor="start" x="8" y="-35" font-family="Helvetica,sans-Serif" font-size="10.00">pfate::LifeHistoryOptimizer</text>
<text text-anchor="middle" x="74.5" y="-24" font-family="Helvetica,sans-Serif" font-size="10.00">::set_state</text>
</a>
</g>
</g>
<!-- Node2 -->
<g id="node2" class="node">
<title>Node2</title>
<g id="a_node2"><a xlink:href="classplant_1_1PlantArchitecture.html#a6765e3aee8ac12969e1e47aed2aea2da" target="_top" xlink:title="Set the crown LAI and properties that change with LAI.">
<polygon fill="none" stroke="black" points="185,-39 185,-69 316,-69 316,-39 185,-39"/>
<text text-anchor="start" x="193" y="-57" font-family="Helvetica,sans-Serif" font-size="10.00">plant::PlantArchitecture</text>
<text text-anchor="middle" x="250.5" y="-46" font-family="Helvetica,sans-Serif" font-size="10.00">::set_lai</text>
</a>
</g>
</g>
<!-- Node1&#45;&gt;Node2 -->
<g id="edge1" class="edge">
<title>Node1&#45;&gt;Node2</title>
<path fill="none" stroke="midnightblue" d="M149.04,-41.3C157.57,-42.38 166.28,-43.48 174.83,-44.56"/>
<polygon fill="midnightblue" stroke="midnightblue" points="174.41,-48.03 184.77,-45.82 175.29,-41.09 174.41,-48.03"/>
</g>
<!-- Node3 -->
<g id="node3" class="node">
<title>Node3</title>
<g id="a_node3"><a xlink:href="classplant_1_1Plant.html#a1157bce8a29e6a26f2e5d4cc30909aea" target="_top" xlink:title="Set size (diameter and all associated variables) from x.">
<polygon fill="none" stroke="black" points="191.5,-0.5 191.5,-19.5 309.5,-19.5 309.5,-0.5 191.5,-0.5"/>
<text text-anchor="middle" x="250.5" y="-7.5" font-family="Helvetica,sans-Serif" font-size="10.00">plant::Plant::set_size</text>
</a>
</g>
</g>
<!-- Node1&#45;&gt;Node3 -->
<g id="edge2" class="edge">
<title>Node1&#45;&gt;Node3</title>
<path fill="none" stroke="midnightblue" d="M149.04,-22.7C159.72,-21.35 170.68,-19.97 181.26,-18.63"/>
<polygon fill="midnightblue" stroke="midnightblue" points="181.77,-22.09 191.25,-17.36 180.89,-15.15 181.77,-22.09"/>
</g>
</g>
</svg>
