<?xml version="1.0" encoding="UTF-8" standalone="no"?>
<!DOCTYPE svg PUBLIC "-//W3C//DTD SVG 1.1//EN"
 "http://www.w3.org/Graphics/SVG/1.1/DTD/svg11.dtd">
<!-- Generated by graphviz version 2.43.0 (0)
 -->
<!-- Title: plant::Plant::init Pages: 1 -->
<svg width="546pt" height="110pt"
 viewBox="0.00 0.00 546.00 109.50" xmlns="http://www.w3.org/2000/svg" xmlns:xlink="http://www.w3.org/1999/xlink">
<g id="graph0" class="graph" transform="scale(1 1) rotate(0) translate(4 105.5)">
<title>plant::Plant::init</title>
<!-- Node1 -->
<g id="node1" class="node">
<title>Node1</title>
<g id="a_node1"><a xlink:title="This function initializes the plant (traits, par, and geometry) from params and traits objects.">
<polygon fill="#bfbfbf" stroke="black" points="444,-51.5 444,-70.5 538,-70.5 538,-51.5 444,-51.5"/>
<text text-anchor="middle" x="491" y="-58.5" font-family="Helvetica,sans-Serif" font-size="10.00">plant::Plant::init</text>
</a>
</g>
</g>
<!-- Node2 -->
<g id="node2" class="node">
<title>Node2</title>
<g id="a_node2"><a xlink:href="classpfate_1_1Patch.html#ac014924ea9c6590fa2031788057cf271" target="_top" xlink:title=" ">
<polygon fill="none" stroke="black" points="265,-71 265,-101 402,-101 402,-71 265,-71"/>
<text text-anchor="start" x="273" y="-89" font-family="Helvetica,sans-Serif" font-size="10.00">pfate::Patch::addSpecies</text>
<text text-anchor="middle" x="333.5" y="-78" font-family="Helvetica,sans-Serif" font-size="10.00">AndProbes</text>
</a>
</g>
</g>
<!-- Node1&#45;&gt;Node2 -->
<g id="edge1" class="edge">
<title>Node1&#45;&gt;Node2</title>
<path fill="none" stroke="midnightblue" d="M433.72,-70.05C423.47,-71.7 412.68,-73.43 402.14,-75.13"/>
<polygon fill="midnightblue" stroke="midnightblue" points="434.45,-73.48 443.77,-68.43 433.34,-66.56 434.45,-73.48"/>
</g>
<!-- Node5 -->
<g id="node5" class="node">
<title>Node5</title>
<g id="a_node5"><a xlink:href="classpfate_1_1LifeHistoryOptimizer.html#a498360fd80194590570542dcecd524c7" target="_top" xlink:title=" ">
<polygon fill="none" stroke="black" points="259,-22 259,-52 408,-52 408,-22 259,-22"/>
<text text-anchor="start" x="267" y="-40" font-family="Helvetica,sans-Serif" font-size="10.00">pfate::LifeHistoryOptimizer</text>
<text text-anchor="middle" x="333.5" y="-29" font-family="Helvetica,sans-Serif" font-size="10.00">::init</text>
</a>
</g>
</g>
<!-- Node1&#45;&gt;Node5 -->
<g id="edge4" class="edge">
<title>Node1&#45;&gt;Node5</title>
<path fill="none" stroke="midnightblue" d="M433.83,-52.33C425.51,-51.05 416.84,-49.71 408.23,-48.38"/>
<polygon fill="midnightblue" stroke="midnightblue" points="433.35,-55.8 443.77,-53.86 434.42,-48.88 433.35,-55.8"/>
</g>
<!-- Node3 -->
<g id="node3" class="node">
<title>Node3</title>
<g id="a_node3"><a xlink:href="classpfate_1_1Patch.html#ad2e4b86b03a6a6834a363bf19c1d9587" target="_top" xlink:title=" ">
<polygon fill="none" stroke="black" points="126,-76.5 126,-95.5 223,-95.5 223,-76.5 126,-76.5"/>
<text text-anchor="middle" x="174.5" y="-83.5" font-family="Helvetica,sans-Serif" font-size="10.00">pfate::Patch::init</text>
</a>
</g>
</g>
<!-- Node2&#45;&gt;Node3 -->
<g id="edge2" class="edge">
<title>Node2&#45;&gt;Node3</title>
<path fill="none" stroke="midnightblue" d="M254.38,-86C243.74,-86 233.1,-86 223.22,-86"/>
<polygon fill="midnightblue" stroke="midnightblue" points="254.55,-89.5 264.55,-86 254.55,-82.5 254.55,-89.5"/>
</g>
<!-- Node4 -->
<g id="node4" class="node">
<title>Node4</title>
<g id="a_node4"><a xlink:href="r__interface_8cpp.html#a7897b94cdc1a829775ac5241571cd456" target="_top" xlink:title=" ">
<polygon fill="none" stroke="black" points="0,-57.5 0,-76.5 90,-76.5 90,-57.5 0,-57.5"/>
<text text-anchor="middle" x="45" y="-64.5" font-family="Helvetica,sans-Serif" font-size="10.00">RCPP_MODULE</text>
</a>
</g>
</g>
<!-- Node3&#45;&gt;Node4 -->
<g id="edge3" class="edge">
<title>Node3&#45;&gt;Node4</title>
<path fill="none" stroke="midnightblue" d="M115.74,-77.39C107.21,-76.12 98.52,-74.83 90.32,-73.6"/>
<polygon fill="midnightblue" stroke="midnightblue" points="115.25,-80.86 125.66,-78.87 116.29,-73.94 115.25,-80.86"/>
</g>
<!-- Node5&#45;&gt;Node4 -->
<g id="edge6" class="edge">
<title>Node5&#45;&gt;Node4</title>
<path fill="none" stroke="midnightblue" d="M248.52,-45.79C196.64,-51.23 132.16,-57.98 90.08,-62.38"/>
<polygon fill="midnightblue" stroke="midnightblue" points="249.14,-49.25 258.72,-44.73 248.41,-42.29 249.14,-49.25"/>
</g>
<!-- Node6 -->
<g id="node6" class="node">
<title>Node6</title>
<g id="a_node6"><a xlink:href="lho_8cpp.html#ae66f6b31b5ad750f1fe042a706a4e3d4" target="_top" xlink:title=" ">
<polygon fill="none" stroke="black" points="154,-0.5 154,-19.5 195,-19.5 195,-0.5 154,-0.5"/>
<text text-anchor="middle" x="174.5" y="-7.5" font-family="Helvetica,sans-Serif" font-size="10.00">main</text>
</a>
</g>
</g>
<!-- Node5&#45;&gt;Node6 -->
<g id="edge5" class="edge">
<title>Node5&#45;&gt;Node6</title>
<path fill="none" stroke="midnightblue" d="M248.72,-22.59C228.64,-19.14 209.02,-15.76 195.15,-13.38"/>
<polygon fill="midnightblue" stroke="midnightblue" points="248.15,-26.05 258.6,-24.29 249.34,-19.15 248.15,-26.05"/>
</g>
</g>
</svg>
