<?xml version="1.0" encoding="UTF-8" standalone="no"?>
<!DOCTYPE svg PUBLIC "-//W3C//DTD SVG 1.1//EN"
 "http://www.w3.org/Graphics/SVG/1.1/DTD/svg11.dtd">
<!-- Generated by graphviz version 2.43.0 (0)
 -->
<!-- Title: pfate::LifeHistoryOptimizer::init Pages: 1 -->
<svg width="1044pt" height="409pt"
 viewBox="0.00 0.00 1044.00 409.00" xmlns="http://www.w3.org/2000/svg" xmlns:xlink="http://www.w3.org/1999/xlink">
<g id="graph0" class="graph" transform="scale(1 1) rotate(0) translate(4 405)">
<title>pfate::LifeHistoryOptimizer::init</title>
<!-- Node1 -->
<g id="node1" class="node">
<title>Node1</title>
<g id="a_node1"><a xlink:title=" ">
<polygon fill="#bfbfbf" stroke="black" points="0,-161 0,-191 149,-191 149,-161 0,-161"/>
<text text-anchor="start" x="8" y="-179" font-family="Helvetica,sans-Serif" font-size="10.00">pfate::LifeHistoryOptimizer</text>
<text text-anchor="middle" x="74.5" y="-168" font-family="Helvetica,sans-Serif" font-size="10.00">::init</text>
</a>
</g>
</g>
<!-- Node2 -->
<g id="node2" class="node">
<title>Node2</title>
<g id="a_node2"><a xlink:href="classpfate_1_1env_1_1ClimateStream.html#af886bf0c88d29c9460067a124c000f3d" target="_top" xlink:title=" ">
<polygon fill="none" stroke="black" points="185,-323 185,-353 331,-353 331,-323 185,-323"/>
<text text-anchor="start" x="193" y="-341" font-family="Helvetica,sans-Serif" font-size="10.00">pfate::env::ClimateStream</text>
<text text-anchor="middle" x="258" y="-330" font-family="Helvetica,sans-Serif" font-size="10.00">::init</text>
</a>
</g>
</g>
<!-- Node1&#45;&gt;Node2 -->
<g id="edge1" class="edge">
<title>Node1&#45;&gt;Node2</title>
<path fill="none" stroke="midnightblue" d="M83.66,-191.08C99.54,-219.06 137.26,-279.25 185,-313 187.7,-314.91 190.56,-316.68 193.52,-318.33"/>
<polygon fill="midnightblue" stroke="midnightblue" points="192.15,-321.56 202.66,-322.91 195.29,-315.3 192.15,-321.56"/>
</g>
<!-- Node3 -->
<g id="node3" class="node">
<title>Node3</title>
<g id="a_node3"><a xlink:href="classplant_1_1Plant.html#a99d31208f7afa12bc10ee138bf190ef8" target="_top" xlink:title="This function initializes the plant (traits, par, and geometry) from params and traits objects.">
<polygon fill="none" stroke="black" points="211,-284.5 211,-303.5 305,-303.5 305,-284.5 211,-284.5"/>
<text text-anchor="middle" x="258" y="-291.5" font-family="Helvetica,sans-Serif" font-size="10.00">plant::Plant::init</text>
</a>
</g>
</g>
<!-- Node1&#45;&gt;Node3 -->
<g id="edge2" class="edge">
<title>Node1&#45;&gt;Node3</title>
<path fill="none" stroke="midnightblue" d="M88,-191.18C106.78,-213.01 144.44,-253.02 185,-275 190.1,-277.76 195.62,-280.14 201.26,-282.18"/>
<polygon fill="midnightblue" stroke="midnightblue" points="200.21,-285.52 210.81,-285.31 202.39,-278.87 200.21,-285.52"/>
</g>
<!-- Node4 -->
<g id="node4" class="node">
<title>Node4</title>
<g id="a_node4"><a xlink:href="classplant_1_1Plant.html#a7a9395b79102cb623073ac8540f0f5ea" target="_top" xlink:title="Probability of survival during dispersal.">
<polygon fill="none" stroke="black" points="194,-235 194,-265 322,-265 322,-235 194,-235"/>
<text text-anchor="start" x="202" y="-253" font-family="Helvetica,sans-Serif" font-size="10.00">plant::Plant::p_survival</text>
<text text-anchor="middle" x="258" y="-242" font-family="Helvetica,sans-Serif" font-size="10.00">_dispersal</text>
</a>
</g>
</g>
<!-- Node1&#45;&gt;Node4 -->
<g id="edge3" class="edge">
<title>Node1&#45;&gt;Node4</title>
<path fill="none" stroke="midnightblue" d="M106.27,-191.12C128.01,-201.53 157.97,-215.36 185,-226 189.78,-227.88 194.78,-229.75 199.81,-231.56"/>
<polygon fill="midnightblue" stroke="midnightblue" points="198.9,-234.95 209.49,-234.96 201.22,-228.34 198.9,-234.95"/>
</g>
<!-- Node5 -->
<g id="node5" class="node">
<title>Node5</title>
<g id="a_node5"><a xlink:href="classplant_1_1Plant.html#a03c45eaaabce7ff0287598818dc4847f" target="_top" xlink:title="Probability of survival during germination (i.e. until recruitment stage)">
<polygon fill="none" stroke="black" points="194,-186 194,-216 322,-216 322,-186 194,-186"/>
<text text-anchor="start" x="202" y="-204" font-family="Helvetica,sans-Serif" font-size="10.00">plant::Plant::p_survival</text>
<text text-anchor="middle" x="258" y="-193" font-family="Helvetica,sans-Serif" font-size="10.00">_germination</text>
</a>
</g>
</g>
<!-- Node1&#45;&gt;Node5 -->
<g id="edge4" class="edge">
<title>Node1&#45;&gt;Node5</title>
<path fill="none" stroke="midnightblue" d="M149.06,-186.13C160.54,-187.71 172.39,-189.35 183.86,-190.93"/>
<polygon fill="midnightblue" stroke="midnightblue" points="183.43,-194.4 193.82,-192.3 184.39,-187.47 183.43,-194.4"/>
</g>
<!-- Node22 -->
<g id="node22" class="node">
<title>Node22</title>
<g id="a_node22"><a xlink:href="classpfate_1_1env_1_1Climate.html#ad15a02a1fa35c5d34d8b46f4a58421fb" target="_top" xlink:title="Set acclimation timescale.">
<polygon fill="none" stroke="black" points="194,-137 194,-167 322,-167 322,-137 194,-137"/>
<text text-anchor="start" x="202" y="-155" font-family="Helvetica,sans-Serif" font-size="10.00">pfate::env::Climate</text>
<text text-anchor="middle" x="258" y="-144" font-family="Helvetica,sans-Serif" font-size="10.00">::set_acclim_timescale</text>
</a>
</g>
</g>
<!-- Node1&#45;&gt;Node22 -->
<g id="edge22" class="edge">
<title>Node1&#45;&gt;Node22</title>
<path fill="none" stroke="midnightblue" d="M149.06,-166.27C160.54,-164.76 172.39,-163.19 183.86,-161.67"/>
<polygon fill="midnightblue" stroke="midnightblue" points="184.36,-165.14 193.82,-160.35 183.45,-158.2 184.36,-165.14"/>
</g>
<!-- Node23 -->
<g id="node23" class="node">
<title>Node23</title>
<g id="a_node23"><a xlink:href="classpfate_1_1env_1_1Climate.html#a75a84463176cf6c2c86192959fdb686b" target="_top" xlink:title=" ">
<polygon fill="none" stroke="black" points="203,-88 203,-118 313,-118 313,-88 203,-88"/>
<text text-anchor="start" x="211" y="-106" font-family="Helvetica,sans-Serif" font-size="10.00">pfate::env::Climate</text>
<text text-anchor="middle" x="258" y="-95" font-family="Helvetica,sans-Serif" font-size="10.00">::set_elevation</text>
</a>
</g>
</g>
<!-- Node1&#45;&gt;Node23 -->
<g id="edge23" class="edge">
<title>Node1&#45;&gt;Node23</title>
<path fill="none" stroke="midnightblue" d="M107.25,-160.79C128.92,-150.66 158.41,-137.35 185,-127 189.79,-125.14 194.79,-123.28 199.83,-121.48"/>
<polygon fill="midnightblue" stroke="midnightblue" points="201.23,-124.7 209.51,-118.09 198.92,-118.09 201.23,-124.7"/>
</g>
<!-- Node25 -->
<g id="node25" class="node">
<title>Node25</title>
<g id="a_node25"><a xlink:href="classplant_1_1PlantArchitecture.html#a6765e3aee8ac12969e1e47aed2aea2da" target="_top" xlink:title="Set the crown LAI and properties that change with LAI.">
<polygon fill="none" stroke="black" points="192.5,-39 192.5,-69 323.5,-69 323.5,-39 192.5,-39"/>
<text text-anchor="start" x="200.5" y="-57" font-family="Helvetica,sans-Serif" font-size="10.00">plant::PlantArchitecture</text>
<text text-anchor="middle" x="258" y="-46" font-family="Helvetica,sans-Serif" font-size="10.00">::set_lai</text>
</a>
</g>
</g>
<!-- Node1&#45;&gt;Node25 -->
<g id="edge25" class="edge">
<title>Node1&#45;&gt;Node25</title>
<path fill="none" stroke="midnightblue" d="M88.54,-160.96C107.71,-139.7 145.5,-100.92 185,-78 188,-76.26 191.14,-74.63 194.36,-73.09"/>
<polygon fill="midnightblue" stroke="midnightblue" points="195.86,-76.25 203.61,-69.03 193.05,-69.84 195.86,-76.25"/>
</g>
<!-- Node26 -->
<g id="node26" class="node">
<title>Node26</title>
<g id="a_node26"><a xlink:href="classplant_1_1Plant.html#a1157bce8a29e6a26f2e5d4cc30909aea" target="_top" xlink:title="Set size (diameter and all associated variables) from x.">
<polygon fill="none" stroke="black" points="199,-0.5 199,-19.5 317,-19.5 317,-0.5 199,-0.5"/>
<text text-anchor="middle" x="258" y="-7.5" font-family="Helvetica,sans-Serif" font-size="10.00">plant::Plant::set_size</text>
</a>
</g>
</g>
<!-- Node1&#45;&gt;Node26 -->
<g id="edge26" class="edge">
<title>Node1&#45;&gt;Node26</title>
<path fill="none" stroke="midnightblue" d="M82.43,-160.86C96.96,-130.85 133.58,-63.75 185,-29 188.07,-26.92 191.36,-25.07 194.78,-23.43"/>
<polygon fill="midnightblue" stroke="midnightblue" points="196.2,-26.62 204.06,-19.52 193.49,-20.17 196.2,-26.62"/>
</g>
<!-- Node6 -->
<g id="node6" class="node">
<title>Node6</title>
<g id="a_node6"><a xlink:href="classplant_1_1Assimilator.html#ade28356f5c19a8033b3781308f21202a" target="_top" xlink:title="Calculate whole&#45;plant net assimilation.">
<polygon fill="none" stroke="black" points="373.5,-186 373.5,-216 476.5,-216 476.5,-186 373.5,-186"/>
<text text-anchor="start" x="381.5" y="-204" font-family="Helvetica,sans-Serif" font-size="10.00">plant::Assimilator</text>
<text text-anchor="middle" x="425" y="-193" font-family="Helvetica,sans-Serif" font-size="10.00">::net_production</text>
</a>
</g>
</g>
<!-- Node5&#45;&gt;Node6 -->
<g id="edge5" class="edge">
<title>Node5&#45;&gt;Node6</title>
<path fill="none" stroke="midnightblue" d="M322.32,-201C335.79,-201 349.98,-201 363.35,-201"/>
<polygon fill="midnightblue" stroke="midnightblue" points="363.39,-204.5 373.39,-201 363.39,-197.5 363.39,-204.5"/>
</g>
<!-- Node7 -->
<g id="node7" class="node">
<title>Node7</title>
<g id="a_node7"><a xlink:href="classplant_1_1Assimilator.html#ac0e69ab9225a2d1be337b10446cfa126" target="_top" xlink:title="Calculate whole&#45;plant gross assimilation, transpiration, gs, etc.">
<polygon fill="none" stroke="black" points="519,-333 519,-363 681,-363 681,-333 519,-333"/>
<text text-anchor="start" x="527" y="-351" font-family="Helvetica,sans-Serif" font-size="10.00">plant::Assimilator</text>
<text text-anchor="middle" x="600" y="-340" font-family="Helvetica,sans-Serif" font-size="10.00">::calc_plant_assimilation_rate</text>
</a>
</g>
</g>
<!-- Node6&#45;&gt;Node7 -->
<g id="edge6" class="edge">
<title>Node6&#45;&gt;Node7</title>
<path fill="none" stroke="midnightblue" d="M433.45,-216.34C446.89,-242.4 477.67,-295.27 519,-324 521.14,-325.48 523.36,-326.88 525.66,-328.19"/>
<polygon fill="midnightblue" stroke="midnightblue" points="524.33,-331.43 534.83,-332.83 527.49,-325.19 524.33,-331.43"/>
</g>
<!-- Node12 -->
<g id="node12" class="node">
<title>Node12</title>
<g id="a_node12"><a xlink:href="classplant_1_1Assimilator.html#ad33549c793850f11330fd48829367c55" target="_top" xlink:title="Calculate leaf and fine&#45;root respiration rates.">
<polygon fill="none" stroke="black" points="538,-284 538,-314 662,-314 662,-284 538,-284"/>
<text text-anchor="start" x="546" y="-302" font-family="Helvetica,sans-Serif" font-size="10.00">plant::Assimilator</text>
<text text-anchor="middle" x="600" y="-291" font-family="Helvetica,sans-Serif" font-size="10.00">::leaf_respiration_rate</text>
</a>
</g>
</g>
<!-- Node6&#45;&gt;Node12 -->
<g id="edge11" class="edge">
<title>Node6&#45;&gt;Node12</title>
<path fill="none" stroke="midnightblue" d="M441.15,-216.12C458.55,-232.73 488.65,-259.13 519,-275 522.51,-276.84 526.19,-278.56 529.95,-280.16"/>
<polygon fill="midnightblue" stroke="midnightblue" points="528.86,-283.49 539.44,-283.91 531.43,-276.98 528.86,-283.49"/>
</g>
<!-- Node13 -->
<g id="node13" class="node">
<title>Node13</title>
<g id="a_node13"><a xlink:href="classplant_1_1Assimilator.html#a0da26c8e10a188774954652ec0402e09" target="_top" xlink:title="Calculate leaf and fine&#45;root turnover rates.">
<polygon fill="none" stroke="black" points="543.5,-235 543.5,-265 656.5,-265 656.5,-235 543.5,-235"/>
<text text-anchor="start" x="551.5" y="-253" font-family="Helvetica,sans-Serif" font-size="10.00">plant::Assimilator</text>
<text text-anchor="middle" x="600" y="-242" font-family="Helvetica,sans-Serif" font-size="10.00">::leaf_turnover_rate</text>
</a>
</g>
</g>
<!-- Node6&#45;&gt;Node13 -->
<g id="edge12" class="edge">
<title>Node6&#45;&gt;Node13</title>
<path fill="none" stroke="midnightblue" d="M476.5,-215.3C495.19,-220.6 516.6,-226.66 536.24,-232.22"/>
<polygon fill="midnightblue" stroke="midnightblue" points="535.45,-235.64 546.02,-235 537.36,-228.9 535.45,-235.64"/>
</g>
<!-- Node15 -->
<g id="node15" class="node">
<title>Node15</title>
<g id="a_node15"><a xlink:href="classplant_1_1Assimilator.html#a07a83723c0f4cc6e98968dfb241c6ce7" target="_top" xlink:title="Leaf economics &#45; calculate optimal leaf lifespan.">
<polygon fill="none" stroke="black" points="537.5,-186 537.5,-216 662.5,-216 662.5,-186 537.5,-186"/>
<text text-anchor="start" x="545.5" y="-204" font-family="Helvetica,sans-Serif" font-size="10.00">plant::Assimilator</text>
<text text-anchor="middle" x="600" y="-193" font-family="Helvetica,sans-Serif" font-size="10.00">::les_update_lifespans</text>
</a>
</g>
</g>
<!-- Node6&#45;&gt;Node15 -->
<g id="edge14" class="edge">
<title>Node6&#45;&gt;Node15</title>
<path fill="none" stroke="midnightblue" d="M476.5,-201C492.28,-201 510,-201 526.95,-201"/>
<polygon fill="midnightblue" stroke="midnightblue" points="527.39,-204.5 537.39,-201 527.39,-197.5 527.39,-204.5"/>
</g>
<!-- Node16 -->
<g id="node16" class="node">
<title>Node16</title>
<g id="a_node16"><a xlink:href="classplant_1_1Assimilator.html#aeedad55e35be6fa1d908731a123e2c4f" target="_top" xlink:title="Calculate leaf and fine&#45;root respiration rates.">
<polygon fill="none" stroke="black" points="537.5,-137 537.5,-167 662.5,-167 662.5,-137 537.5,-137"/>
<text text-anchor="start" x="545.5" y="-155" font-family="Helvetica,sans-Serif" font-size="10.00">plant::Assimilator</text>
<text text-anchor="middle" x="600" y="-144" font-family="Helvetica,sans-Serif" font-size="10.00">::root_respiration_rate</text>
</a>
</g>
</g>
<!-- Node6&#45;&gt;Node16 -->
<g id="edge15" class="edge">
<title>Node6&#45;&gt;Node16</title>
<path fill="none" stroke="midnightblue" d="M476.5,-186.7C495.19,-181.4 516.6,-175.34 536.24,-169.78"/>
<polygon fill="midnightblue" stroke="midnightblue" points="537.36,-173.1 546.02,-167 535.45,-166.36 537.36,-173.1"/>
</g>
<!-- Node18 -->
<g id="node18" class="node">
<title>Node18</title>
<g id="a_node18"><a xlink:href="classplant_1_1Assimilator.html#a31ccc72fe7255233a1640d1f708eebc7" target="_top" xlink:title="Calculate leaf and fine&#45;root turnover rates.">
<polygon fill="none" stroke="black" points="543.5,-88 543.5,-118 656.5,-118 656.5,-88 543.5,-88"/>
<text text-anchor="start" x="551.5" y="-106" font-family="Helvetica,sans-Serif" font-size="10.00">plant::Assimilator</text>
<text text-anchor="middle" x="600" y="-95" font-family="Helvetica,sans-Serif" font-size="10.00">::root_turnover_rate</text>
</a>
</g>
</g>
<!-- Node6&#45;&gt;Node18 -->
<g id="edge17" class="edge">
<title>Node6&#45;&gt;Node18</title>
<path fill="none" stroke="midnightblue" d="M441.15,-185.88C458.55,-169.27 488.65,-142.87 519,-127 523.62,-124.58 528.52,-122.37 533.53,-120.36"/>
<polygon fill="midnightblue" stroke="midnightblue" points="535.12,-123.5 543.26,-116.72 532.67,-116.95 535.12,-123.5"/>
</g>
<!-- Node19 -->
<g id="node19" class="node">
<title>Node19</title>
<g id="a_node19"><a xlink:href="classplant_1_1Assimilator.html#ad1f356c7c009ad495c9e9a3994c92fd3" target="_top" xlink:title="Calculate leaf and fine&#45;root respiration rates.">
<polygon fill="none" stroke="black" points="525.5,-39 525.5,-69 674.5,-69 674.5,-39 525.5,-39"/>
<text text-anchor="start" x="533.5" y="-57" font-family="Helvetica,sans-Serif" font-size="10.00">plant::Assimilator</text>
<text text-anchor="middle" x="600" y="-46" font-family="Helvetica,sans-Serif" font-size="10.00">::sapwood_respiration_rate</text>
</a>
</g>
</g>
<!-- Node6&#45;&gt;Node19 -->
<g id="edge19" class="edge">
<title>Node6&#45;&gt;Node19</title>
<path fill="none" stroke="midnightblue" d="M437.89,-185.77C449.49,-170.86 467.6,-147.47 483,-127 499.25,-105.41 496.92,-93.58 519,-78 521.13,-76.5 523.35,-75.09 525.64,-73.77"/>
<polygon fill="midnightblue" stroke="midnightblue" points="527.47,-76.77 534.78,-69.1 524.28,-70.54 527.47,-76.77"/>
</g>
<!-- Node8 -->
<g id="node8" class="node">
<title>Node8</title>
<g id="a_node8"><a xlink:href="group__ppa__module.html#ga4c6834623dae9423d2981a0b28b0f155" target="_top" xlink:title="Realized crown projection area at height z.">
<polygon fill="none" stroke="black" points="717,-357 717,-387 848,-387 848,-357 717,-357"/>
<text text-anchor="start" x="725" y="-375" font-family="Helvetica,sans-Serif" font-size="10.00">plant::PlantArchitecture</text>
<text text-anchor="middle" x="782.5" y="-364" font-family="Helvetica,sans-Serif" font-size="10.00">::crown_area_above</text>
</a>
</g>
</g>
<!-- Node7&#45;&gt;Node8 -->
<g id="edge7" class="edge">
<title>Node7&#45;&gt;Node8</title>
<path fill="none" stroke="midnightblue" d="M681.22,-358.67C689.72,-359.8 698.34,-360.94 706.78,-362.06"/>
<polygon fill="midnightblue" stroke="midnightblue" points="706.58,-365.57 716.95,-363.42 707.5,-358.63 706.58,-365.57"/>
</g>
<!-- Node11 -->
<g id="node11" class="node">
<title>Node11</title>
<g id="a_node11"><a xlink:href="classplant_1_1Assimilator.html#a01115927f79cc407240f59af57c12d17" target="_top" xlink:title="Calculate leaf&#45;level assimilation rate using the Phydro model ///.">
<polygon fill="none" stroke="black" points="717,-308 717,-338 848,-338 848,-308 717,-308"/>
<text text-anchor="start" x="725" y="-326" font-family="Helvetica,sans-Serif" font-size="10.00">plant::Assimilator</text>
<text text-anchor="middle" x="782.5" y="-315" font-family="Helvetica,sans-Serif" font-size="10.00">::leaf_assimilation_rate</text>
</a>
</g>
</g>
<!-- Node7&#45;&gt;Node11 -->
<g id="edge10" class="edge">
<title>Node7&#45;&gt;Node11</title>
<path fill="none" stroke="midnightblue" d="M681.22,-336.89C689.72,-335.71 698.34,-334.52 706.78,-333.35"/>
<polygon fill="midnightblue" stroke="midnightblue" points="707.53,-336.78 716.95,-331.94 706.57,-329.85 707.53,-336.78"/>
</g>
<!-- Node9 -->
<g id="node9" class="node">
<title>Node9</title>
<g id="a_node9"><a xlink:href="classplant_1_1PlantArchitecture.html#a81452fb0a56656f176f653d3bf9650d9" target="_top" xlink:title="Vertical profiles of crown and stem">
<polygon fill="none" stroke="black" points="888.5,-381.5 888.5,-400.5 1031.5,-400.5 1031.5,-381.5 888.5,-381.5"/>
<text text-anchor="middle" x="960" y="-388.5" font-family="Helvetica,sans-Serif" font-size="10.00">plant::PlantArchitecture::q</text>
</a>
</g>
</g>
<!-- Node8&#45;&gt;Node9 -->
<g id="edge8" class="edge">
<title>Node8&#45;&gt;Node9</title>
<path fill="none" stroke="midnightblue" d="M848.35,-379.02C858.09,-380.08 868.24,-381.17 878.26,-382.26"/>
<polygon fill="midnightblue" stroke="midnightblue" points="877.9,-385.74 888.22,-383.34 878.65,-378.78 877.9,-385.74"/>
</g>
<!-- Node10 -->
<g id="node10" class="node">
<title>Node10</title>
<g id="a_node10"><a xlink:href="classplant_1_1PlantArchitecture.html#a4d571b1b0165d995f3d2ca0fe21a4b28" target="_top" xlink:title="The height at which crown radius is maximum.">
<polygon fill="none" stroke="black" points="884,-343.5 884,-362.5 1036,-362.5 1036,-343.5 884,-343.5"/>
<text text-anchor="middle" x="960" y="-350.5" font-family="Helvetica,sans-Serif" font-size="10.00">plant::PlantArchitecture::zm</text>
</a>
</g>
</g>
<!-- Node8&#45;&gt;Node10 -->
<g id="edge9" class="edge">
<title>Node8&#45;&gt;Node10</title>
<path fill="none" stroke="midnightblue" d="M848.35,-364.98C856.63,-364.08 865.21,-363.15 873.75,-362.23"/>
<polygon fill="midnightblue" stroke="midnightblue" points="874.18,-365.7 883.74,-361.15 873.42,-358.74 874.18,-365.7"/>
</g>
<!-- Node14 -->
<g id="node14" class="node">
<title>Node14</title>
<g id="a_node14"><a xlink:href="classplant_1_1PlantArchitecture.html#a36ebf17a1799f27ce12bd27f637f88a9" target="_top" xlink:title="Get biomass in various carbon pools.">
<polygon fill="none" stroke="black" points="717,-235 717,-265 848,-265 848,-235 717,-235"/>
<text text-anchor="start" x="725" y="-253" font-family="Helvetica,sans-Serif" font-size="10.00">plant::PlantArchitecture</text>
<text text-anchor="middle" x="782.5" y="-242" font-family="Helvetica,sans-Serif" font-size="10.00">::leaf_mass</text>
</a>
</g>
</g>
<!-- Node13&#45;&gt;Node14 -->
<g id="edge13" class="edge">
<title>Node13&#45;&gt;Node14</title>
<path fill="none" stroke="midnightblue" d="M656.63,-250C672.41,-250 689.86,-250 706.59,-250"/>
<polygon fill="midnightblue" stroke="midnightblue" points="706.89,-253.5 716.88,-250 706.88,-246.5 706.89,-253.5"/>
</g>
<!-- Node17 -->
<g id="node17" class="node">
<title>Node17</title>
<g id="a_node17"><a xlink:href="classplant_1_1PlantArchitecture.html#af767ab32b2c9aff347144ce7dff349be" target="_top" xlink:title="Get biomass in various carbon pools.">
<polygon fill="none" stroke="black" points="717,-112 717,-142 848,-142 848,-112 717,-112"/>
<text text-anchor="start" x="725" y="-130" font-family="Helvetica,sans-Serif" font-size="10.00">plant::PlantArchitecture</text>
<text text-anchor="middle" x="782.5" y="-119" font-family="Helvetica,sans-Serif" font-size="10.00">::root_mass</text>
</a>
</g>
</g>
<!-- Node16&#45;&gt;Node17 -->
<g id="edge16" class="edge">
<title>Node16&#45;&gt;Node17</title>
<path fill="none" stroke="midnightblue" d="M662.61,-143.47C676.8,-141.5 692.05,-139.39 706.73,-137.36"/>
<polygon fill="midnightblue" stroke="midnightblue" points="707.35,-140.8 716.78,-135.96 706.39,-133.87 707.35,-140.8"/>
</g>
<!-- Node18&#45;&gt;Node17 -->
<g id="edge18" class="edge">
<title>Node18&#45;&gt;Node17</title>
<path fill="none" stroke="midnightblue" d="M656.63,-110.4C672.41,-112.5 689.86,-114.82 706.59,-117.04"/>
<polygon fill="midnightblue" stroke="midnightblue" points="706.51,-120.56 716.88,-118.41 707.43,-113.62 706.51,-120.56"/>
</g>
<!-- Node20 -->
<g id="node20" class="node">
<title>Node20</title>
<g id="a_node20"><a xlink:href="classplant_1_1PlantArchitecture.html#a0f95752c3574b4dfadb93e92582e5fa5" target="_top" xlink:title="Get biomass in various carbon pools.">
<polygon fill="none" stroke="black" points="717,-39 717,-69 848,-69 848,-39 717,-39"/>
<text text-anchor="start" x="725" y="-57" font-family="Helvetica,sans-Serif" font-size="10.00">plant::PlantArchitecture</text>
<text text-anchor="middle" x="782.5" y="-46" font-family="Helvetica,sans-Serif" font-size="10.00">::sapwood_mass</text>
</a>
</g>
</g>
<!-- Node19&#45;&gt;Node20 -->
<g id="edge20" class="edge">
<title>Node19&#45;&gt;Node20</title>
<path fill="none" stroke="midnightblue" d="M674.68,-54C685.24,-54 696.12,-54 706.7,-54"/>
<polygon fill="midnightblue" stroke="midnightblue" points="706.74,-57.5 716.74,-54 706.74,-50.5 706.74,-57.5"/>
</g>
<!-- Node21 -->
<g id="node21" class="node">
<title>Node21</title>
<g id="a_node21"><a xlink:href="classplant_1_1PlantArchitecture.html#a1fea368ef9182afc3aedfb76bcc4b3ee" target="_top" xlink:title="Get biomass in various carbon pools.">
<polygon fill="none" stroke="black" points="894.5,-39 894.5,-69 1025.5,-69 1025.5,-39 894.5,-39"/>
<text text-anchor="start" x="902.5" y="-57" font-family="Helvetica,sans-Serif" font-size="10.00">plant::PlantArchitecture</text>
<text text-anchor="middle" x="960" y="-46" font-family="Helvetica,sans-Serif" font-size="10.00">::stem_mass</text>
</a>
</g>
</g>
<!-- Node20&#45;&gt;Node21 -->
<g id="edge21" class="edge">
<title>Node20&#45;&gt;Node21</title>
<path fill="none" stroke="midnightblue" d="M848.35,-54C859.98,-54 872.19,-54 884.08,-54"/>
<polygon fill="midnightblue" stroke="midnightblue" points="884.42,-57.5 894.42,-54 884.42,-50.5 884.42,-57.5"/>
</g>
<!-- Node24 -->
<g id="node24" class="node">
<title>Node24</title>
<g id="a_node24"><a xlink:href="classpfate_1_1env_1_1Clim.html#a5a793121fa13f16263c703418fa42715" target="_top" xlink:title=" ">
<polygon fill="none" stroke="black" points="367,-88 367,-118 483,-118 483,-88 367,-88"/>
<text text-anchor="start" x="375" y="-106" font-family="Helvetica,sans-Serif" font-size="10.00">pfate::env::Clim::set</text>
<text text-anchor="middle" x="425" y="-95" font-family="Helvetica,sans-Serif" font-size="10.00">_elevation</text>
</a>
</g>
</g>
<!-- Node23&#45;&gt;Node24 -->
<g id="edge24" class="edge">
<title>Node23&#45;&gt;Node24</title>
<path fill="none" stroke="midnightblue" d="M313.03,-103C326.87,-103 341.93,-103 356.36,-103"/>
<polygon fill="midnightblue" stroke="midnightblue" points="356.73,-106.5 366.73,-103 356.73,-99.5 356.73,-106.5"/>
</g>
</g>
</svg>
