<?xml version="1.0" encoding="UTF-8" standalone="no"?>
<!DOCTYPE svg PUBLIC "-//W3C//DTD SVG 1.1//EN"
 "http://www.w3.org/Graphics/SVG/1.1/DTD/svg11.dtd">
<!-- Generated by graphviz version 2.43.0 (0)
 -->
<!-- Title: pfate::Patch::save Pages: 1 -->
<svg width="546pt" height="66pt"
 viewBox="0.00 0.00 546.00 66.00" xmlns="http://www.w3.org/2000/svg" xmlns:xlink="http://www.w3.org/1999/xlink">
<g id="graph0" class="graph" transform="scale(1 1) rotate(0) translate(4 62)">
<title>pfate::Patch::save</title>
<!-- Node1 -->
<g id="node1" class="node">
<title>Node1</title>
<g id="a_node1"><a xlink:title=" ">
<polygon fill="#bfbfbf" stroke="black" points="434,-19.5 434,-38.5 538,-38.5 538,-19.5 434,-19.5"/>
<text text-anchor="middle" x="486" y="-26.5" font-family="Helvetica,sans-Serif" font-size="10.00">pfate::Patch::save</text>
</a>
</g>
</g>
<!-- Node2 -->
<g id="node2" class="node">
<title>Node2</title>
<g id="a_node2"><a xlink:href="namespacepfate.html#aa3b7425f62503d7549ea5237bccee611" target="_top" xlink:title=" ">
<polygon fill="none" stroke="black" points="301,-19.5 301,-38.5 398,-38.5 398,-19.5 301,-19.5"/>
<text text-anchor="middle" x="349.5" y="-26.5" font-family="Helvetica,sans-Serif" font-size="10.00">pfate::saveState</text>
</a>
</g>
</g>
<!-- Node1&#45;&gt;Node2 -->
<g id="edge1" class="edge">
<title>Node1&#45;&gt;Node2</title>
<path fill="none" stroke="midnightblue" d="M423.74,-29C415.12,-29 406.37,-29 398.05,-29"/>
<polygon fill="midnightblue" stroke="midnightblue" points="423.77,-32.5 433.77,-29 423.77,-25.5 423.77,-32.5"/>
</g>
<!-- Node3 -->
<g id="node3" class="node">
<title>Node3</title>
<g id="a_node3"><a xlink:href="classpfate_1_1Patch.html#ab76971ff4ca9bf75128d6bbe186d9456" target="_top" xlink:title=" ">
<polygon fill="none" stroke="black" points="142,-38.5 142,-57.5 249,-57.5 249,-38.5 142,-38.5"/>
<text text-anchor="middle" x="195.5" y="-45.5" font-family="Helvetica,sans-Serif" font-size="10.00">pfate::Patch::close</text>
</a>
</g>
</g>
<!-- Node2&#45;&gt;Node3 -->
<g id="edge2" class="edge">
<title>Node2&#45;&gt;Node3</title>
<path fill="none" stroke="midnightblue" d="M290.57,-36.24C276.91,-37.95 262.43,-39.76 249.03,-41.43"/>
<polygon fill="midnightblue" stroke="midnightblue" points="291.33,-39.67 300.82,-34.96 290.47,-32.73 291.33,-39.67"/>
</g>
<!-- Node5 -->
<g id="node5" class="node">
<title>Node5</title>
<g id="a_node5"><a xlink:href="classpfate_1_1Patch.html#a7f6751c9c0efe222201a24fc2d400788" target="_top" xlink:title="This function simulates patch to time t.">
<polygon fill="none" stroke="black" points="126,-0.5 126,-19.5 265,-19.5 265,-0.5 126,-0.5"/>
<text text-anchor="middle" x="195.5" y="-7.5" font-family="Helvetica,sans-Serif" font-size="10.00">pfate::Patch::simulate_to</text>
</a>
</g>
</g>
<!-- Node2&#45;&gt;Node5 -->
<g id="edge4" class="edge">
<title>Node2&#45;&gt;Node5</title>
<path fill="none" stroke="midnightblue" d="M290.79,-21.79C282.42,-20.74 273.73,-19.65 265.16,-18.58"/>
<polygon fill="midnightblue" stroke="midnightblue" points="290.47,-25.27 300.82,-23.04 291.33,-18.33 290.47,-25.27"/>
</g>
<!-- Node4 -->
<g id="node4" class="node">
<title>Node4</title>
<g id="a_node4"><a xlink:href="r__interface_8cpp.html#a7897b94cdc1a829775ac5241571cd456" target="_top" xlink:title=" ">
<polygon fill="none" stroke="black" points="0,-38.5 0,-57.5 90,-57.5 90,-38.5 0,-38.5"/>
<text text-anchor="middle" x="45" y="-45.5" font-family="Helvetica,sans-Serif" font-size="10.00">RCPP_MODULE</text>
</a>
</g>
</g>
<!-- Node3&#45;&gt;Node4 -->
<g id="edge3" class="edge">
<title>Node3&#45;&gt;Node4</title>
<path fill="none" stroke="midnightblue" d="M131.7,-48C117.77,-48 103.28,-48 90.26,-48"/>
<polygon fill="midnightblue" stroke="midnightblue" points="131.73,-51.5 141.73,-48 131.73,-44.5 131.73,-51.5"/>
</g>
</g>
</svg>
