<?xml version="1.0" encoding="UTF-8" standalone="no"?>
<!DOCTYPE svg PUBLIC "-//W3C//DTD SVG 1.1//EN"
 "http://www.w3.org/Graphics/SVG/1.1/DTD/svg11.dtd">
<!-- Generated by graphviz version 2.43.0 (0)
 -->
<!-- Title: io::Initializer::get_section Pages: 1 -->
<svg width="726pt" height="200pt"
 viewBox="0.00 0.00 726.00 200.00" xmlns="http://www.w3.org/2000/svg" xmlns:xlink="http://www.w3.org/1999/xlink">
<g id="graph0" class="graph" transform="scale(1 1) rotate(0) translate(4 196)">
<title>io::Initializer::get_section</title>
<!-- Node1 -->
<g id="node1" class="node">
<title>Node1</title>
<g id="a_node1"><a xlink:title=" ">
<polygon fill="#bfbfbf" stroke="black" points="619,-98.5 619,-128.5 718,-128.5 718,-98.5 619,-98.5"/>
<text text-anchor="start" x="627" y="-116.5" font-family="Helvetica,sans-Serif" font-size="10.00">io::Initializer::get</text>
<text text-anchor="middle" x="668.5" y="-105.5" font-family="Helvetica,sans-Serif" font-size="10.00">_section</text>
</a>
</g>
</g>
<!-- Node2 -->
<g id="node2" class="node">
<title>Node2</title>
<g id="a_node2"><a xlink:href="classio_1_1Initializer.html#a06fe79d6d19f76180836e03e3ad6b7fb" target="_top" xlink:title=" ">
<polygon fill="none" stroke="black" points="484,-98.5 484,-128.5 583,-128.5 583,-98.5 484,-98.5"/>
<text text-anchor="start" x="492" y="-116.5" font-family="Helvetica,sans-Serif" font-size="10.00">io::Initializer::get</text>
<text text-anchor="middle" x="533.5" y="-105.5" font-family="Helvetica,sans-Serif" font-size="10.00">_value</text>
</a>
</g>
</g>
<!-- Node1&#45;&gt;Node2 -->
<g id="edge1" class="edge">
<title>Node1&#45;&gt;Node2</title>
<path fill="none" stroke="midnightblue" d="M608.55,-113.5C600.1,-113.5 591.49,-113.5 583.26,-113.5"/>
<polygon fill="midnightblue" stroke="midnightblue" points="608.73,-117 618.73,-113.5 608.73,-110 608.73,-117"/>
</g>
<!-- Node3 -->
<g id="node3" class="node">
<title>Node3</title>
<g id="a_node3"><a xlink:href="classio_1_1Initializer.html#a098a8511a950a4449925c8315af36bdb" target="_top" xlink:title=" ">
<polygon fill="none" stroke="black" points="349,-104 349,-123 448,-123 448,-104 349,-104"/>
<text text-anchor="middle" x="398.5" y="-111" font-family="Helvetica,sans-Serif" font-size="10.00">io::Initializer::get</text>
</a>
</g>
</g>
<!-- Node2&#45;&gt;Node3 -->
<g id="edge2" class="edge">
<title>Node2&#45;&gt;Node3</title>
<path fill="none" stroke="midnightblue" d="M473.55,-113.5C465.1,-113.5 456.49,-113.5 448.26,-113.5"/>
<polygon fill="midnightblue" stroke="midnightblue" points="473.73,-117 483.73,-113.5 473.73,-110 473.73,-117"/>
</g>
<!-- Node10 -->
<g id="node10" class="node">
<title>Node10</title>
<g id="a_node10"><a xlink:href="classio_1_1Initializer.html#a92f49c1ad4e16a85f3f0f12201cb9707" target="_top" xlink:title=" ">
<polygon fill="none" stroke="black" points="349,-161.5 349,-191.5 448,-191.5 448,-161.5 349,-161.5"/>
<text text-anchor="start" x="357" y="-179.5" font-family="Helvetica,sans-Serif" font-size="10.00">io::Initializer::get</text>
<text text-anchor="middle" x="398.5" y="-168.5" font-family="Helvetica,sans-Serif" font-size="10.00">_vector</text>
</a>
</g>
</g>
<!-- Node2&#45;&gt;Node10 -->
<g id="edge12" class="edge">
<title>Node2&#45;&gt;Node10</title>
<path fill="none" stroke="midnightblue" d="M491.48,-132.93C472.2,-142.06 449.56,-152.79 431.56,-161.31"/>
<polygon fill="midnightblue" stroke="midnightblue" points="493.1,-136.03 500.64,-128.59 490.11,-129.71 493.1,-136.03"/>
</g>
<!-- Node11 -->
<g id="node11" class="node">
<title>Node11</title>
<g id="a_node11"><a xlink:href="classio_1_1Initializer.html#abbf31e66329bd03f5d968988c5aa1213" target="_top" xlink:title=" ">
<polygon fill="none" stroke="black" points="199.5,-49.5 199.5,-79.5 298.5,-79.5 298.5,-49.5 199.5,-49.5"/>
<text text-anchor="start" x="207.5" y="-67.5" font-family="Helvetica,sans-Serif" font-size="10.00">io::Initializer::get</text>
<text text-anchor="middle" x="249" y="-56.5" font-family="Helvetica,sans-Serif" font-size="10.00">_verbatim</text>
</a>
</g>
</g>
<!-- Node2&#45;&gt;Node11 -->
<g id="edge14" class="edge">
<title>Node2&#45;&gt;Node11</title>
<path fill="none" stroke="midnightblue" d="M473.87,-99.75C465.22,-97.89 456.39,-96.08 448,-94.5 397.26,-84.96 338.76,-76.4 298.58,-70.88"/>
<polygon fill="midnightblue" stroke="midnightblue" points="473.4,-103.23 483.92,-101.96 474.9,-96.4 473.4,-103.23"/>
</g>
<!-- Node4 -->
<g id="node4" class="node">
<title>Node4</title>
<g id="a_node4"><a xlink:href="classplant_1_1PlantTraits.html#a752ff5e88101f3002440c3cd8879cf31" target="_top" xlink:title=" ">
<polygon fill="none" stroke="black" points="199.5,-0.5 199.5,-30.5 298.5,-30.5 298.5,-0.5 199.5,-0.5"/>
<text text-anchor="start" x="207.5" y="-18.5" font-family="Helvetica,sans-Serif" font-size="10.00">plant::PlantTraits</text>
<text text-anchor="middle" x="249" y="-7.5" font-family="Helvetica,sans-Serif" font-size="10.00">::init</text>
</a>
</g>
</g>
<!-- Node3&#45;&gt;Node4 -->
<g id="edge3" class="edge">
<title>Node3&#45;&gt;Node4</title>
<path fill="none" stroke="midnightblue" d="M381.48,-96.29C365.44,-79.89 339.42,-55.4 313,-39.5 307.48,-36.18 301.43,-33.18 295.32,-30.52"/>
<polygon fill="midnightblue" stroke="midnightblue" points="379.06,-98.83 388.5,-103.62 384.11,-93.98 379.06,-98.83"/>
</g>
<!-- Node7 -->
<g id="node7" class="node">
<title>Node7</title>
<g id="a_node7"><a xlink:href="classpfate_1_1Patch.html#a8b436c6aac2f58c3dd3cba0c979f61d9" target="_top" xlink:title=" ">
<polygon fill="none" stroke="black" points="20.5,-148 20.5,-167 128.5,-167 128.5,-148 20.5,-148"/>
<text text-anchor="middle" x="74.5" y="-155" font-family="Helvetica,sans-Serif" font-size="10.00">pfate::Patch::Patch</text>
</a>
</g>
</g>
<!-- Node3&#45;&gt;Node7 -->
<g id="edge11" class="edge">
<title>Node3&#45;&gt;Node7</title>
<path fill="none" stroke="midnightblue" d="M358.91,-126.15C344.63,-130.38 328.21,-134.73 313,-137.5 250.31,-148.93 177.1,-153.85 128.71,-155.95"/>
<polygon fill="midnightblue" stroke="midnightblue" points="360.34,-129.38 368.88,-123.11 358.3,-122.68 360.34,-129.38"/>
</g>
<!-- Node8 -->
<g id="node8" class="node">
<title>Node8</title>
<g id="a_node8"><a xlink:href="classplant_1_1PlantParameters.html#a6f4ee512f917665608504a6a893d92f3" target="_top" xlink:title=" ">
<polygon fill="none" stroke="black" points="185,-98.5 185,-128.5 313,-128.5 313,-98.5 185,-98.5"/>
<text text-anchor="start" x="193" y="-116.5" font-family="Helvetica,sans-Serif" font-size="10.00">plant::PlantParameters</text>
<text text-anchor="middle" x="249" y="-105.5" font-family="Helvetica,sans-Serif" font-size="10.00">::init</text>
</a>
</g>
</g>
<!-- Node3&#45;&gt;Node8 -->
<g id="edge7" class="edge">
<title>Node3&#45;&gt;Node8</title>
<path fill="none" stroke="midnightblue" d="M338.7,-113.5C330.29,-113.5 321.61,-113.5 313.12,-113.5"/>
<polygon fill="midnightblue" stroke="midnightblue" points="338.79,-117 348.79,-113.5 338.79,-110 338.79,-117"/>
</g>
<!-- Node5 -->
<g id="node5" class="node">
<title>Node5</title>
<g id="a_node5"><a xlink:href="classplant_1_1PlantTraits.html#a9b4568e865eeba7ed29f0cfa06d81d43" target="_top" xlink:title=" ">
<polygon fill="none" stroke="black" points="25,-0.5 25,-30.5 124,-30.5 124,-0.5 25,-0.5"/>
<text text-anchor="start" x="33" y="-18.5" font-family="Helvetica,sans-Serif" font-size="10.00">plant::PlantTraits</text>
<text text-anchor="middle" x="74.5" y="-7.5" font-family="Helvetica,sans-Serif" font-size="10.00">::initFromFile</text>
</a>
</g>
</g>
<!-- Node4&#45;&gt;Node5 -->
<g id="edge4" class="edge">
<title>Node4&#45;&gt;Node5</title>
<path fill="none" stroke="midnightblue" d="M189.32,-15.5C168.14,-15.5 144.48,-15.5 124.24,-15.5"/>
<polygon fill="midnightblue" stroke="midnightblue" points="189.49,-19 199.49,-15.5 189.49,-12 189.49,-19"/>
</g>
<!-- Node6 -->
<g id="node6" class="node">
<title>Node6</title>
<g id="a_node6"><a xlink:href="classpfate_1_1LifeHistoryOptimizer.html#aa4cb2a8040fff4223c34ca2838fadfda" target="_top" xlink:title=" ">
<polygon fill="none" stroke="black" points="0,-49.5 0,-79.5 149,-79.5 149,-49.5 0,-49.5"/>
<text text-anchor="start" x="8" y="-67.5" font-family="Helvetica,sans-Serif" font-size="10.00">pfate::LifeHistoryOptimizer</text>
<text text-anchor="middle" x="74.5" y="-56.5" font-family="Helvetica,sans-Serif" font-size="10.00">::LifeHistoryOptimizer</text>
</a>
</g>
</g>
<!-- Node4&#45;&gt;Node6 -->
<g id="edge5" class="edge">
<title>Node4&#45;&gt;Node6</title>
<path fill="none" stroke="midnightblue" d="M189.66,-32.07C169.86,-37.7 147.85,-43.95 128.48,-49.45"/>
<polygon fill="midnightblue" stroke="midnightblue" points="190.83,-35.38 199.49,-29.28 188.91,-28.65 190.83,-35.38"/>
</g>
<!-- Node4&#45;&gt;Node7 -->
<g id="edge6" class="edge">
<title>Node4&#45;&gt;Node7</title>
<path fill="none" stroke="midnightblue" d="M190.82,-34.43C188.75,-35.99 186.8,-37.68 185,-39.5 152.39,-72.51 183.2,-106.14 149,-137.5 143.25,-142.77 136.25,-146.68 128.87,-149.57"/>
<polygon fill="midnightblue" stroke="midnightblue" points="192.73,-37.37 199.26,-29.02 188.95,-31.47 192.73,-37.37"/>
</g>
<!-- Node8&#45;&gt;Node6 -->
<g id="edge9" class="edge">
<title>Node8&#45;&gt;Node6</title>
<path fill="none" stroke="midnightblue" d="M185.01,-95.61C166.45,-90.34 146.35,-84.62 128.49,-79.55"/>
<polygon fill="midnightblue" stroke="midnightblue" points="184.26,-99.03 194.84,-98.4 186.17,-92.3 184.26,-99.03"/>
</g>
<!-- Node8&#45;&gt;Node7 -->
<g id="edge10" class="edge">
<title>Node8&#45;&gt;Node7</title>
<path fill="none" stroke="midnightblue" d="M179.19,-131.05C156.53,-136.83 132.19,-143.04 112.79,-147.99"/>
<polygon fill="midnightblue" stroke="midnightblue" points="180.29,-134.38 189.12,-128.52 178.56,-127.6 180.29,-134.38"/>
</g>
<!-- Node9 -->
<g id="node9" class="node">
<title>Node9</title>
<g id="a_node9"><a xlink:href="classplant_1_1PlantParameters.html#a80569bfa425831d8f3f89a134c958f0d" target="_top" xlink:title=" ">
<polygon fill="none" stroke="black" points="10.5,-98.5 10.5,-128.5 138.5,-128.5 138.5,-98.5 10.5,-98.5"/>
<text text-anchor="start" x="18.5" y="-116.5" font-family="Helvetica,sans-Serif" font-size="10.00">plant::PlantParameters</text>
<text text-anchor="middle" x="74.5" y="-105.5" font-family="Helvetica,sans-Serif" font-size="10.00">::initFromFile</text>
</a>
</g>
</g>
<!-- Node8&#45;&gt;Node9 -->
<g id="edge8" class="edge">
<title>Node8&#45;&gt;Node9</title>
<path fill="none" stroke="midnightblue" d="M174.42,-113.5C162.55,-113.5 150.35,-113.5 138.75,-113.5"/>
<polygon fill="midnightblue" stroke="midnightblue" points="174.75,-117 184.75,-113.5 174.75,-110 174.75,-117"/>
</g>
<!-- Node10&#45;&gt;Node7 -->
<g id="edge13" class="edge">
<title>Node10&#45;&gt;Node7</title>
<path fill="none" stroke="midnightblue" d="M338.69,-176.75C295.98,-176.53 236.84,-175.41 185,-171.5 166.56,-170.11 146.46,-167.78 128.58,-165.41"/>
<polygon fill="midnightblue" stroke="midnightblue" points="338.89,-180.25 348.9,-176.79 338.91,-173.25 338.89,-180.25"/>
</g>
<!-- Node11&#45;&gt;Node6 -->
<g id="edge15" class="edge">
<title>Node11&#45;&gt;Node6</title>
<path fill="none" stroke="midnightblue" d="M189.34,-64.5C176.4,-64.5 162.54,-64.5 149.1,-64.5"/>
<polygon fill="midnightblue" stroke="midnightblue" points="189.49,-68 199.49,-64.5 189.49,-61 189.49,-68"/>
</g>
<!-- Node11&#45;&gt;Node7 -->
<g id="edge16" class="edge">
<title>Node11&#45;&gt;Node7</title>
<path fill="none" stroke="midnightblue" d="M190.69,-84.56C188.72,-85.81 186.82,-87.12 185,-88.5 163.5,-104.87 171.28,-122.21 149,-137.5 142.68,-141.84 135.44,-145.24 128.04,-147.9"/>
<polygon fill="midnightblue" stroke="midnightblue" points="192.65,-87.48 199.67,-79.55 189.23,-81.37 192.65,-87.48"/>
</g>
</g>
</svg>
