<?xml version="1.0" encoding="UTF-8" standalone="no"?>
<!DOCTYPE svg PUBLIC "-//W3C//DTD SVG 1.1//EN"
 "http://www.w3.org/Graphics/SVG/1.1/DTD/svg11.dtd">
<!-- Generated by graphviz version 2.43.0 (0)
 -->
<!-- Title: pfate::PSPM_Plant::init_accumulators Pages: 1 -->
<svg width="1150pt" height="371pt"
 viewBox="0.00 0.00 1150.00 370.50" xmlns="http://www.w3.org/2000/svg" xmlns:xlink="http://www.w3.org/1999/xlink">
<g id="graph0" class="graph" transform="scale(1 1) rotate(0) translate(4 366.5)">
<title>pfate::PSPM_Plant::init_accumulators</title>
<!-- Node1 -->
<g id="node1" class="node">
<title>Node1</title>
<g id="a_node1"><a xlink:title=" ">
<polygon fill="#bfbfbf" stroke="black" points="0,-171.5 0,-201.5 111,-201.5 111,-171.5 0,-171.5"/>
<text text-anchor="start" x="8" y="-189.5" font-family="Helvetica,sans-Serif" font-size="10.00">pfate::PSPM_Plant::</text>
<text text-anchor="middle" x="55.5" y="-178.5" font-family="Helvetica,sans-Serif" font-size="10.00">init_accumulators</text>
</a>
</g>
</g>
<!-- Node2 -->
<g id="node2" class="node">
<title>Node2</title>
<g id="a_node2"><a xlink:href="group__libpspm__interface.html#ga98991525cfbe254180dda76a24df6246" target="_top" xlink:title=" ">
<polygon fill="none" stroke="black" points="147,-171.5 147,-201.5 286,-201.5 286,-171.5 147,-171.5"/>
<text text-anchor="start" x="155" y="-189.5" font-family="Helvetica,sans-Serif" font-size="10.00">pfate::PSPM_Plant::</text>
<text text-anchor="middle" x="216.5" y="-178.5" font-family="Helvetica,sans-Serif" font-size="10.00">establishmentProbability</text>
</a>
</g>
</g>
<!-- Node1&#45;&gt;Node2 -->
<g id="edge1" class="edge">
<title>Node1&#45;&gt;Node2</title>
<path fill="none" stroke="midnightblue" d="M111.22,-186.5C119.48,-186.5 128.14,-186.5 136.79,-186.5"/>
<polygon fill="midnightblue" stroke="midnightblue" points="136.92,-190 146.92,-186.5 136.92,-183 136.92,-190"/>
</g>
<!-- Node3 -->
<g id="node3" class="node">
<title>Node3</title>
<g id="a_node3"><a xlink:href="classplant_1_1Plant.html#a7a9395b79102cb623073ac8540f0f5ea" target="_top" xlink:title="Probability of survival during dispersal.">
<polygon fill="none" stroke="black" points="322,-196.5 322,-226.5 450,-226.5 450,-196.5 322,-196.5"/>
<text text-anchor="start" x="330" y="-214.5" font-family="Helvetica,sans-Serif" font-size="10.00">plant::Plant::p_survival</text>
<text text-anchor="middle" x="386" y="-203.5" font-family="Helvetica,sans-Serif" font-size="10.00">_dispersal</text>
</a>
</g>
</g>
<!-- Node2&#45;&gt;Node3 -->
<g id="edge2" class="edge">
<title>Node2&#45;&gt;Node3</title>
<path fill="none" stroke="midnightblue" d="M286.11,-196.74C294.62,-198.01 303.34,-199.31 311.91,-200.59"/>
<polygon fill="midnightblue" stroke="midnightblue" points="311.47,-204.06 321.88,-202.08 312.51,-197.14 311.47,-204.06"/>
</g>
<!-- Node4 -->
<g id="node4" class="node">
<title>Node4</title>
<g id="a_node4"><a xlink:href="classplant_1_1Plant.html#a03c45eaaabce7ff0287598818dc4847f" target="_top" xlink:title="Probability of survival during germination (i.e. until recruitment stage)">
<polygon fill="none" stroke="black" points="322,-147.5 322,-177.5 450,-177.5 450,-147.5 322,-147.5"/>
<text text-anchor="start" x="330" y="-165.5" font-family="Helvetica,sans-Serif" font-size="10.00">plant::Plant::p_survival</text>
<text text-anchor="middle" x="386" y="-154.5" font-family="Helvetica,sans-Serif" font-size="10.00">_germination</text>
</a>
</g>
</g>
<!-- Node2&#45;&gt;Node4 -->
<g id="edge3" class="edge">
<title>Node2&#45;&gt;Node4</title>
<path fill="none" stroke="midnightblue" d="M286.11,-176.67C294.62,-175.45 303.34,-174.2 311.91,-172.97"/>
<polygon fill="midnightblue" stroke="midnightblue" points="312.48,-176.43 321.88,-171.54 311.49,-169.5 312.48,-176.43"/>
</g>
<!-- Node5 -->
<g id="node5" class="node">
<title>Node5</title>
<g id="a_node5"><a xlink:href="classplant_1_1Assimilator.html#ade28356f5c19a8033b3781308f21202a" target="_top" xlink:title="Calculate whole&#45;plant net assimilation.">
<polygon fill="none" stroke="black" points="486,-147.5 486,-177.5 589,-177.5 589,-147.5 486,-147.5"/>
<text text-anchor="start" x="494" y="-165.5" font-family="Helvetica,sans-Serif" font-size="10.00">plant::Assimilator</text>
<text text-anchor="middle" x="537.5" y="-154.5" font-family="Helvetica,sans-Serif" font-size="10.00">::net_production</text>
</a>
</g>
</g>
<!-- Node4&#45;&gt;Node5 -->
<g id="edge4" class="edge">
<title>Node4&#45;&gt;Node5</title>
<path fill="none" stroke="midnightblue" d="M450.4,-162.5C458.78,-162.5 467.34,-162.5 475.67,-162.5"/>
<polygon fill="midnightblue" stroke="midnightblue" points="475.68,-166 485.68,-162.5 475.68,-159 475.68,-166"/>
</g>
<!-- Node6 -->
<g id="node6" class="node">
<title>Node6</title>
<g id="a_node6"><a xlink:href="classplant_1_1Assimilator.html#ac0e69ab9225a2d1be337b10446cfa126" target="_top" xlink:title="Calculate whole&#45;plant gross assimilation, transpiration, gs, etc.">
<polygon fill="none" stroke="black" points="625,-294.5 625,-324.5 787,-324.5 787,-294.5 625,-294.5"/>
<text text-anchor="start" x="633" y="-312.5" font-family="Helvetica,sans-Serif" font-size="10.00">plant::Assimilator</text>
<text text-anchor="middle" x="706" y="-301.5" font-family="Helvetica,sans-Serif" font-size="10.00">::calc_plant_assimilation_rate</text>
</a>
</g>
</g>
<!-- Node5&#45;&gt;Node6 -->
<g id="edge5" class="edge">
<title>Node5&#45;&gt;Node6</title>
<path fill="none" stroke="midnightblue" d="M545.14,-177.85C557.2,-203.92 585.19,-256.8 625,-285.5 627.06,-286.98 629.21,-288.38 631.43,-289.69"/>
<polygon fill="midnightblue" stroke="midnightblue" points="629.81,-292.79 640.3,-294.32 633.06,-286.59 629.81,-292.79"/>
</g>
<!-- Node11 -->
<g id="node11" class="node">
<title>Node11</title>
<g id="a_node11"><a xlink:href="classplant_1_1Assimilator.html#ad33549c793850f11330fd48829367c55" target="_top" xlink:title="Calculate leaf and fine&#45;root respiration rates.">
<polygon fill="none" stroke="black" points="644,-245.5 644,-275.5 768,-275.5 768,-245.5 644,-245.5"/>
<text text-anchor="start" x="652" y="-263.5" font-family="Helvetica,sans-Serif" font-size="10.00">plant::Assimilator</text>
<text text-anchor="middle" x="706" y="-252.5" font-family="Helvetica,sans-Serif" font-size="10.00">::leaf_respiration_rate</text>
</a>
</g>
</g>
<!-- Node5&#45;&gt;Node11 -->
<g id="edge10" class="edge">
<title>Node5&#45;&gt;Node11</title>
<path fill="none" stroke="midnightblue" d="M552.38,-177.68C568.38,-194.34 596.2,-220.78 625,-236.5 628.31,-238.31 631.78,-240 635.33,-241.57"/>
<polygon fill="midnightblue" stroke="midnightblue" points="634.32,-244.94 644.9,-245.48 636.97,-238.46 634.32,-244.94"/>
</g>
<!-- Node12 -->
<g id="node12" class="node">
<title>Node12</title>
<g id="a_node12"><a xlink:href="classplant_1_1Assimilator.html#a0da26c8e10a188774954652ec0402e09" target="_top" xlink:title="Calculate leaf and fine&#45;root turnover rates.">
<polygon fill="none" stroke="black" points="649.5,-196.5 649.5,-226.5 762.5,-226.5 762.5,-196.5 649.5,-196.5"/>
<text text-anchor="start" x="657.5" y="-214.5" font-family="Helvetica,sans-Serif" font-size="10.00">plant::Assimilator</text>
<text text-anchor="middle" x="706" y="-203.5" font-family="Helvetica,sans-Serif" font-size="10.00">::leaf_turnover_rate</text>
</a>
</g>
</g>
<!-- Node5&#45;&gt;Node12 -->
<g id="edge11" class="edge">
<title>Node5&#45;&gt;Node12</title>
<path fill="none" stroke="midnightblue" d="M589.36,-177.47C606.63,-182.55 626.1,-188.28 644.07,-193.57"/>
<polygon fill="midnightblue" stroke="midnightblue" points="643.3,-196.99 653.88,-196.45 645.27,-190.27 643.3,-196.99"/>
</g>
<!-- Node14 -->
<g id="node14" class="node">
<title>Node14</title>
<g id="a_node14"><a xlink:href="classplant_1_1Assimilator.html#a07a83723c0f4cc6e98968dfb241c6ce7" target="_top" xlink:title="Leaf economics &#45; calculate optimal leaf lifespan.">
<polygon fill="none" stroke="black" points="643.5,-147.5 643.5,-177.5 768.5,-177.5 768.5,-147.5 643.5,-147.5"/>
<text text-anchor="start" x="651.5" y="-165.5" font-family="Helvetica,sans-Serif" font-size="10.00">plant::Assimilator</text>
<text text-anchor="middle" x="706" y="-154.5" font-family="Helvetica,sans-Serif" font-size="10.00">::les_update_lifespans</text>
</a>
</g>
</g>
<!-- Node5&#45;&gt;Node14 -->
<g id="edge13" class="edge">
<title>Node5&#45;&gt;Node14</title>
<path fill="none" stroke="midnightblue" d="M589.36,-162.5C603.19,-162.5 618.44,-162.5 633.19,-162.5"/>
<polygon fill="midnightblue" stroke="midnightblue" points="633.3,-166 643.3,-162.5 633.3,-159 633.3,-166"/>
</g>
<!-- Node15 -->
<g id="node15" class="node">
<title>Node15</title>
<g id="a_node15"><a xlink:href="classplant_1_1Assimilator.html#aeedad55e35be6fa1d908731a123e2c4f" target="_top" xlink:title="Calculate leaf and fine&#45;root respiration rates.">
<polygon fill="none" stroke="black" points="643.5,-98.5 643.5,-128.5 768.5,-128.5 768.5,-98.5 643.5,-98.5"/>
<text text-anchor="start" x="651.5" y="-116.5" font-family="Helvetica,sans-Serif" font-size="10.00">plant::Assimilator</text>
<text text-anchor="middle" x="706" y="-105.5" font-family="Helvetica,sans-Serif" font-size="10.00">::root_respiration_rate</text>
</a>
</g>
</g>
<!-- Node5&#45;&gt;Node15 -->
<g id="edge14" class="edge">
<title>Node5&#45;&gt;Node15</title>
<path fill="none" stroke="midnightblue" d="M589.36,-147.53C606.63,-142.45 626.1,-136.72 644.07,-131.43"/>
<polygon fill="midnightblue" stroke="midnightblue" points="645.27,-134.73 653.88,-128.55 643.3,-128.01 645.27,-134.73"/>
</g>
<!-- Node17 -->
<g id="node17" class="node">
<title>Node17</title>
<g id="a_node17"><a xlink:href="classplant_1_1Assimilator.html#a31ccc72fe7255233a1640d1f708eebc7" target="_top" xlink:title="Calculate leaf and fine&#45;root turnover rates.">
<polygon fill="none" stroke="black" points="649.5,-49.5 649.5,-79.5 762.5,-79.5 762.5,-49.5 649.5,-49.5"/>
<text text-anchor="start" x="657.5" y="-67.5" font-family="Helvetica,sans-Serif" font-size="10.00">plant::Assimilator</text>
<text text-anchor="middle" x="706" y="-56.5" font-family="Helvetica,sans-Serif" font-size="10.00">::root_turnover_rate</text>
</a>
</g>
</g>
<!-- Node5&#45;&gt;Node17 -->
<g id="edge16" class="edge">
<title>Node5&#45;&gt;Node17</title>
<path fill="none" stroke="midnightblue" d="M552.74,-147.3C568.86,-130.92 596.58,-105.1 625,-89.5 629.7,-86.92 634.71,-84.56 639.84,-82.42"/>
<polygon fill="midnightblue" stroke="midnightblue" points="641.11,-85.68 649.16,-78.79 638.57,-79.16 641.11,-85.68"/>
</g>
<!-- Node18 -->
<g id="node18" class="node">
<title>Node18</title>
<g id="a_node18"><a xlink:href="classplant_1_1Assimilator.html#ad1f356c7c009ad495c9e9a3994c92fd3" target="_top" xlink:title="Calculate leaf and fine&#45;root respiration rates.">
<polygon fill="none" stroke="black" points="631.5,-0.5 631.5,-30.5 780.5,-30.5 780.5,-0.5 631.5,-0.5"/>
<text text-anchor="start" x="639.5" y="-18.5" font-family="Helvetica,sans-Serif" font-size="10.00">plant::Assimilator</text>
<text text-anchor="middle" x="706" y="-7.5" font-family="Helvetica,sans-Serif" font-size="10.00">::sapwood_respiration_rate</text>
</a>
</g>
</g>
<!-- Node5&#45;&gt;Node18 -->
<g id="edge18" class="edge">
<title>Node5&#45;&gt;Node18</title>
<path fill="none" stroke="midnightblue" d="M545.14,-147.15C557.2,-121.08 585.19,-68.2 625,-39.5 627.06,-38.02 629.21,-36.62 631.43,-35.31"/>
<polygon fill="midnightblue" stroke="midnightblue" points="633.06,-38.41 640.3,-30.68 629.81,-32.21 633.06,-38.41"/>
</g>
<!-- Node7 -->
<g id="node7" class="node">
<title>Node7</title>
<g id="a_node7"><a xlink:href="group__ppa__module.html#ga4c6834623dae9423d2981a0b28b0f155" target="_top" xlink:title="Realized crown projection area at height z.">
<polygon fill="none" stroke="black" points="823,-318.5 823,-348.5 954,-348.5 954,-318.5 823,-318.5"/>
<text text-anchor="start" x="831" y="-336.5" font-family="Helvetica,sans-Serif" font-size="10.00">plant::PlantArchitecture</text>
<text text-anchor="middle" x="888.5" y="-325.5" font-family="Helvetica,sans-Serif" font-size="10.00">::crown_area_above</text>
</a>
</g>
</g>
<!-- Node6&#45;&gt;Node7 -->
<g id="edge6" class="edge">
<title>Node6&#45;&gt;Node7</title>
<path fill="none" stroke="midnightblue" d="M787.22,-320.17C795.72,-321.3 804.34,-322.44 812.78,-323.56"/>
<polygon fill="midnightblue" stroke="midnightblue" points="812.58,-327.07 822.95,-324.92 813.5,-320.13 812.58,-327.07"/>
</g>
<!-- Node10 -->
<g id="node10" class="node">
<title>Node10</title>
<g id="a_node10"><a xlink:href="classplant_1_1Assimilator.html#a01115927f79cc407240f59af57c12d17" target="_top" xlink:title="Calculate leaf&#45;level assimilation rate using the Phydro model ///.">
<polygon fill="none" stroke="black" points="823,-269.5 823,-299.5 954,-299.5 954,-269.5 823,-269.5"/>
<text text-anchor="start" x="831" y="-287.5" font-family="Helvetica,sans-Serif" font-size="10.00">plant::Assimilator</text>
<text text-anchor="middle" x="888.5" y="-276.5" font-family="Helvetica,sans-Serif" font-size="10.00">::leaf_assimilation_rate</text>
</a>
</g>
</g>
<!-- Node6&#45;&gt;Node10 -->
<g id="edge9" class="edge">
<title>Node6&#45;&gt;Node10</title>
<path fill="none" stroke="midnightblue" d="M787.22,-298.39C795.72,-297.21 804.34,-296.02 812.78,-294.85"/>
<polygon fill="midnightblue" stroke="midnightblue" points="813.53,-298.28 822.95,-293.44 812.57,-291.35 813.53,-298.28"/>
</g>
<!-- Node8 -->
<g id="node8" class="node">
<title>Node8</title>
<g id="a_node8"><a xlink:href="classplant_1_1PlantArchitecture.html#a81452fb0a56656f176f653d3bf9650d9" target="_top" xlink:title="Vertical profiles of crown and stem">
<polygon fill="none" stroke="black" points="994.5,-343 994.5,-362 1137.5,-362 1137.5,-343 994.5,-343"/>
<text text-anchor="middle" x="1066" y="-350" font-family="Helvetica,sans-Serif" font-size="10.00">plant::PlantArchitecture::q</text>
</a>
</g>
</g>
<!-- Node7&#45;&gt;Node8 -->
<g id="edge7" class="edge">
<title>Node7&#45;&gt;Node8</title>
<path fill="none" stroke="midnightblue" d="M954.35,-340.52C964.09,-341.58 974.24,-342.67 984.26,-343.76"/>
<polygon fill="midnightblue" stroke="midnightblue" points="983.9,-347.24 994.22,-344.84 984.65,-340.28 983.9,-347.24"/>
</g>
<!-- Node9 -->
<g id="node9" class="node">
<title>Node9</title>
<g id="a_node9"><a xlink:href="classplant_1_1PlantArchitecture.html#a4d571b1b0165d995f3d2ca0fe21a4b28" target="_top" xlink:title="The height at which crown radius is maximum.">
<polygon fill="none" stroke="black" points="990,-305 990,-324 1142,-324 1142,-305 990,-305"/>
<text text-anchor="middle" x="1066" y="-312" font-family="Helvetica,sans-Serif" font-size="10.00">plant::PlantArchitecture::zm</text>
</a>
</g>
</g>
<!-- Node7&#45;&gt;Node9 -->
<g id="edge8" class="edge">
<title>Node7&#45;&gt;Node9</title>
<path fill="none" stroke="midnightblue" d="M954.35,-326.48C962.63,-325.58 971.21,-324.65 979.75,-323.73"/>
<polygon fill="midnightblue" stroke="midnightblue" points="980.18,-327.2 989.74,-322.65 979.42,-320.24 980.18,-327.2"/>
</g>
<!-- Node13 -->
<g id="node13" class="node">
<title>Node13</title>
<g id="a_node13"><a xlink:href="classplant_1_1PlantArchitecture.html#a36ebf17a1799f27ce12bd27f637f88a9" target="_top" xlink:title="Get biomass in various carbon pools.">
<polygon fill="none" stroke="black" points="823,-196.5 823,-226.5 954,-226.5 954,-196.5 823,-196.5"/>
<text text-anchor="start" x="831" y="-214.5" font-family="Helvetica,sans-Serif" font-size="10.00">plant::PlantArchitecture</text>
<text text-anchor="middle" x="888.5" y="-203.5" font-family="Helvetica,sans-Serif" font-size="10.00">::leaf_mass</text>
</a>
</g>
</g>
<!-- Node12&#45;&gt;Node13 -->
<g id="edge12" class="edge">
<title>Node12&#45;&gt;Node13</title>
<path fill="none" stroke="midnightblue" d="M762.63,-211.5C778.41,-211.5 795.86,-211.5 812.59,-211.5"/>
<polygon fill="midnightblue" stroke="midnightblue" points="812.89,-215 822.88,-211.5 812.88,-208 812.89,-215"/>
</g>
<!-- Node16 -->
<g id="node16" class="node">
<title>Node16</title>
<g id="a_node16"><a xlink:href="classplant_1_1PlantArchitecture.html#af767ab32b2c9aff347144ce7dff349be" target="_top" xlink:title="Get biomass in various carbon pools.">
<polygon fill="none" stroke="black" points="823,-73.5 823,-103.5 954,-103.5 954,-73.5 823,-73.5"/>
<text text-anchor="start" x="831" y="-91.5" font-family="Helvetica,sans-Serif" font-size="10.00">plant::PlantArchitecture</text>
<text text-anchor="middle" x="888.5" y="-80.5" font-family="Helvetica,sans-Serif" font-size="10.00">::root_mass</text>
</a>
</g>
</g>
<!-- Node15&#45;&gt;Node16 -->
<g id="edge15" class="edge">
<title>Node15&#45;&gt;Node16</title>
<path fill="none" stroke="midnightblue" d="M768.61,-104.97C782.8,-103 798.05,-100.89 812.73,-98.86"/>
<polygon fill="midnightblue" stroke="midnightblue" points="813.35,-102.3 822.78,-97.46 812.39,-95.37 813.35,-102.3"/>
</g>
<!-- Node17&#45;&gt;Node16 -->
<g id="edge17" class="edge">
<title>Node17&#45;&gt;Node16</title>
<path fill="none" stroke="midnightblue" d="M762.63,-71.9C778.41,-74 795.86,-76.32 812.59,-78.54"/>
<polygon fill="midnightblue" stroke="midnightblue" points="812.51,-82.06 822.88,-79.91 813.43,-75.12 812.51,-82.06"/>
</g>
<!-- Node19 -->
<g id="node19" class="node">
<title>Node19</title>
<g id="a_node19"><a xlink:href="classplant_1_1PlantArchitecture.html#a0f95752c3574b4dfadb93e92582e5fa5" target="_top" xlink:title="Get biomass in various carbon pools.">
<polygon fill="none" stroke="black" points="823,-0.5 823,-30.5 954,-30.5 954,-0.5 823,-0.5"/>
<text text-anchor="start" x="831" y="-18.5" font-family="Helvetica,sans-Serif" font-size="10.00">plant::PlantArchitecture</text>
<text text-anchor="middle" x="888.5" y="-7.5" font-family="Helvetica,sans-Serif" font-size="10.00">::sapwood_mass</text>
</a>
</g>
</g>
<!-- Node18&#45;&gt;Node19 -->
<g id="edge19" class="edge">
<title>Node18&#45;&gt;Node19</title>
<path fill="none" stroke="midnightblue" d="M780.68,-15.5C791.24,-15.5 802.12,-15.5 812.7,-15.5"/>
<polygon fill="midnightblue" stroke="midnightblue" points="812.74,-19 822.74,-15.5 812.74,-12 812.74,-19"/>
</g>
<!-- Node20 -->
<g id="node20" class="node">
<title>Node20</title>
<g id="a_node20"><a xlink:href="classplant_1_1PlantArchitecture.html#a1fea368ef9182afc3aedfb76bcc4b3ee" target="_top" xlink:title="Get biomass in various carbon pools.">
<polygon fill="none" stroke="black" points="1000.5,-0.5 1000.5,-30.5 1131.5,-30.5 1131.5,-0.5 1000.5,-0.5"/>
<text text-anchor="start" x="1008.5" y="-18.5" font-family="Helvetica,sans-Serif" font-size="10.00">plant::PlantArchitecture</text>
<text text-anchor="middle" x="1066" y="-7.5" font-family="Helvetica,sans-Serif" font-size="10.00">::stem_mass</text>
</a>
</g>
</g>
<!-- Node19&#45;&gt;Node20 -->
<g id="edge20" class="edge">
<title>Node19&#45;&gt;Node20</title>
<path fill="none" stroke="midnightblue" d="M954.35,-15.5C965.98,-15.5 978.19,-15.5 990.08,-15.5"/>
<polygon fill="midnightblue" stroke="midnightblue" points="990.42,-19 1000.42,-15.5 990.42,-12 990.42,-19"/>
</g>
</g>
</svg>
