<?xml version="1.0" encoding="UTF-8" standalone="no"?>
<!DOCTYPE svg PUBLIC "-//W3C//DTD SVG 1.1//EN"
 "http://www.w3.org/Graphics/SVG/1.1/DTD/svg11.dtd">
<!-- Generated by graphviz version 2.43.0 (0)
 -->
<!-- Title: pfate::LifeHistoryOptimizer::printState Pages: 1 -->
<svg width="685pt" height="214pt"
 viewBox="0.00 0.00 685.00 214.00" xmlns="http://www.w3.org/2000/svg" xmlns:xlink="http://www.w3.org/1999/xlink">
<g id="graph0" class="graph" transform="scale(1 1) rotate(0) translate(4 210)">
<title>pfate::LifeHistoryOptimizer::printState</title>
<!-- Node1 -->
<g id="node1" class="node">
<title>Node1</title>
<g id="a_node1"><a xlink:title=" ">
<polygon fill="#bfbfbf" stroke="black" points="0,-93.5 0,-123.5 149,-123.5 149,-93.5 0,-93.5"/>
<text text-anchor="start" x="8" y="-111.5" font-family="Helvetica,sans-Serif" font-size="10.00">pfate::LifeHistoryOptimizer</text>
<text text-anchor="middle" x="74.5" y="-100.5" font-family="Helvetica,sans-Serif" font-size="10.00">::printState</text>
</a>
</g>
</g>
<!-- Node2 -->
<g id="node2" class="node">
<title>Node2</title>
<g id="a_node2"><a xlink:href="classpfate_1_1LifeHistoryOptimizer.html#a05951c4085bd4f5a06fbbb66b8c3092d" target="_top" xlink:title=" ">
<polygon fill="none" stroke="black" points="185,-93.5 185,-123.5 334,-123.5 334,-93.5 185,-93.5"/>
<text text-anchor="start" x="193" y="-111.5" font-family="Helvetica,sans-Serif" font-size="10.00">pfate::LifeHistoryOptimizer</text>
<text text-anchor="middle" x="259.5" y="-100.5" font-family="Helvetica,sans-Serif" font-size="10.00">::get_state</text>
</a>
</g>
</g>
<!-- Node1&#45;&gt;Node2 -->
<g id="edge1" class="edge">
<title>Node1&#45;&gt;Node2</title>
<path fill="none" stroke="midnightblue" d="M149.14,-108.5C157.47,-108.5 166.01,-108.5 174.46,-108.5"/>
<polygon fill="midnightblue" stroke="midnightblue" points="174.71,-112 184.71,-108.5 174.71,-105 174.71,-112"/>
</g>
<!-- Node3 -->
<g id="node3" class="node">
<title>Node3</title>
<g id="a_node3"><a xlink:href="classplant_1_1PlantArchitecture.html#aaf65bbe9f64372d21b76509f0463f944" target="_top" xlink:title="Get biomass in various carbon pools.">
<polygon fill="none" stroke="black" points="374.5,-175.5 374.5,-205.5 505.5,-205.5 505.5,-175.5 374.5,-175.5"/>
<text text-anchor="start" x="382.5" y="-193.5" font-family="Helvetica,sans-Serif" font-size="10.00">plant::PlantArchitecture</text>
<text text-anchor="middle" x="440" y="-182.5" font-family="Helvetica,sans-Serif" font-size="10.00">::coarse_root_mass</text>
</a>
</g>
</g>
<!-- Node2&#45;&gt;Node3 -->
<g id="edge2" class="edge">
<title>Node2&#45;&gt;Node3</title>
<path fill="none" stroke="midnightblue" d="M291.52,-123.57C313.38,-134.1 343.37,-148.39 370,-160.5 377.86,-164.08 386.27,-167.8 394.41,-171.37"/>
<polygon fill="midnightblue" stroke="midnightblue" points="393.23,-174.68 403.8,-175.46 396.03,-168.26 393.23,-174.68"/>
</g>
<!-- Node4 -->
<g id="node4" class="node">
<title>Node4</title>
<g id="a_node4"><a xlink:href="classplant_1_1PlantArchitecture.html#a1fea368ef9182afc3aedfb76bcc4b3ee" target="_top" xlink:title="Get biomass in various carbon pools.">
<polygon fill="none" stroke="black" points="546,-153.5 546,-183.5 677,-183.5 677,-153.5 546,-153.5"/>
<text text-anchor="start" x="554" y="-171.5" font-family="Helvetica,sans-Serif" font-size="10.00">plant::PlantArchitecture</text>
<text text-anchor="middle" x="611.5" y="-160.5" font-family="Helvetica,sans-Serif" font-size="10.00">::stem_mass</text>
</a>
</g>
</g>
<!-- Node2&#45;&gt;Node4 -->
<g id="edge7" class="edge">
<title>Node2&#45;&gt;Node4</title>
<path fill="none" stroke="midnightblue" d="M334.12,-121.31C346.11,-123.38 358.4,-125.5 370,-127.5 425.63,-137.07 488.52,-147.79 536.03,-155.86"/>
<polygon fill="midnightblue" stroke="midnightblue" points="535.48,-159.32 545.93,-157.55 536.66,-152.42 535.48,-159.32"/>
</g>
<!-- Node5 -->
<g id="node5" class="node">
<title>Node5</title>
<g id="a_node5"><a xlink:href="classplant_1_1Plant.html#a0e254502cb2bb6edf6e0e86e0db268d7" target="_top" xlink:title="Get plant biomass.">
<polygon fill="none" stroke="black" points="370,-99 370,-118 510,-118 510,-99 370,-99"/>
<text text-anchor="middle" x="440" y="-106" font-family="Helvetica,sans-Serif" font-size="10.00">plant::Plant::get_biomass</text>
</a>
</g>
</g>
<!-- Node2&#45;&gt;Node5 -->
<g id="edge4" class="edge">
<title>Node2&#45;&gt;Node5</title>
<path fill="none" stroke="midnightblue" d="M334.13,-108.5C342.53,-108.5 351.12,-108.5 359.59,-108.5"/>
<polygon fill="midnightblue" stroke="midnightblue" points="359.84,-112 369.84,-108.5 359.84,-105 359.84,-112"/>
</g>
<!-- Node6 -->
<g id="node6" class="node">
<title>Node6</title>
<g id="a_node6"><a xlink:href="classplant_1_1PlantArchitecture.html#a36ebf17a1799f27ce12bd27f637f88a9" target="_top" xlink:title="Get biomass in various carbon pools.">
<polygon fill="none" stroke="black" points="374.5,-49.5 374.5,-79.5 505.5,-79.5 505.5,-49.5 374.5,-49.5"/>
<text text-anchor="start" x="382.5" y="-67.5" font-family="Helvetica,sans-Serif" font-size="10.00">plant::PlantArchitecture</text>
<text text-anchor="middle" x="440" y="-56.5" font-family="Helvetica,sans-Serif" font-size="10.00">::leaf_mass</text>
</a>
</g>
</g>
<!-- Node2&#45;&gt;Node6 -->
<g id="edge5" class="edge">
<title>Node2&#45;&gt;Node6</title>
<path fill="none" stroke="midnightblue" d="M321.43,-93.48C336.43,-89.78 352.61,-85.79 368.04,-81.99"/>
<polygon fill="midnightblue" stroke="midnightblue" points="369.17,-85.32 378.04,-79.53 367.49,-78.52 369.17,-85.32"/>
</g>
<!-- Node7 -->
<g id="node7" class="node">
<title>Node7</title>
<g id="a_node7"><a xlink:href="classplant_1_1PlantArchitecture.html#af767ab32b2c9aff347144ce7dff349be" target="_top" xlink:title="Get biomass in various carbon pools.">
<polygon fill="none" stroke="black" points="374.5,-0.5 374.5,-30.5 505.5,-30.5 505.5,-0.5 374.5,-0.5"/>
<text text-anchor="start" x="382.5" y="-18.5" font-family="Helvetica,sans-Serif" font-size="10.00">plant::PlantArchitecture</text>
<text text-anchor="middle" x="440" y="-7.5" font-family="Helvetica,sans-Serif" font-size="10.00">::root_mass</text>
</a>
</g>
</g>
<!-- Node2&#45;&gt;Node7 -->
<g id="edge6" class="edge">
<title>Node2&#45;&gt;Node7</title>
<path fill="none" stroke="midnightblue" d="M281.96,-93.3C303.5,-78.5 337.99,-56.03 370,-40.5 374.36,-38.39 378.94,-36.35 383.59,-34.41"/>
<polygon fill="midnightblue" stroke="midnightblue" points="385.17,-37.55 393.16,-30.59 382.58,-31.05 385.17,-37.55"/>
</g>
<!-- Node3&#45;&gt;Node4 -->
<g id="edge3" class="edge">
<title>Node3&#45;&gt;Node4</title>
<path fill="none" stroke="midnightblue" d="M505.56,-182.12C515.46,-180.84 525.74,-179.5 535.83,-178.19"/>
<polygon fill="midnightblue" stroke="midnightblue" points="536.37,-181.65 545.83,-176.89 535.47,-174.71 536.37,-181.65"/>
</g>
</g>
</svg>
