<?xml version="1.0" encoding="UTF-8" standalone="no"?>
<!DOCTYPE svg PUBLIC "-//W3C//DTD SVG 1.1//EN"
 "http://www.w3.org/Graphics/SVG/1.1/DTD/svg11.dtd">
<!-- Generated by graphviz version 2.43.0 (0)
 -->
<!-- Title: plant::PlantArchitecture::stem_mass Pages: 1 -->
<svg width="1481pt" height="296pt"
 viewBox="0.00 0.00 1481.00 296.32" xmlns="http://www.w3.org/2000/svg" xmlns:xlink="http://www.w3.org/1999/xlink">
<g id="graph0" class="graph" transform="scale(1 1) rotate(0) translate(4 292.32)">
<title>plant::PlantArchitecture::stem_mass</title>
<!-- Node1 -->
<g id="node1" class="node">
<title>Node1</title>
<g id="a_node1"><a xlink:title="Get biomass in various carbon pools.">
<polygon fill="#bfbfbf" stroke="black" points="1342,-120.5 1342,-150.5 1473,-150.5 1473,-120.5 1342,-120.5"/>
<text text-anchor="start" x="1350" y="-138.5" font-family="Helvetica,sans-Serif" font-size="10.00">plant::PlantArchitecture</text>
<text text-anchor="middle" x="1407.5" y="-127.5" font-family="Helvetica,sans-Serif" font-size="10.00">::stem_mass</text>
</a>
</g>
</g>
<!-- Node2 -->
<g id="node2" class="node">
<title>Node2</title>
<g id="a_node2"><a xlink:href="classplant_1_1PlantArchitecture.html#aaf65bbe9f64372d21b76509f0463f944" target="_top" xlink:title="Get biomass in various carbon pools.">
<polygon fill="none" stroke="black" points="1175,-186.5 1175,-216.5 1306,-216.5 1306,-186.5 1175,-186.5"/>
<text text-anchor="start" x="1183" y="-204.5" font-family="Helvetica,sans-Serif" font-size="10.00">plant::PlantArchitecture</text>
<text text-anchor="middle" x="1240.5" y="-193.5" font-family="Helvetica,sans-Serif" font-size="10.00">::coarse_root_mass</text>
</a>
</g>
</g>
<!-- Node1&#45;&gt;Node2 -->
<g id="edge1" class="edge">
<title>Node1&#45;&gt;Node2</title>
<path fill="none" stroke="midnightblue" d="M1359.21,-154.42C1333.81,-164.58 1302.93,-176.93 1279.18,-186.43"/>
<polygon fill="midnightblue" stroke="midnightblue" points="1360.66,-157.61 1368.65,-150.64 1358.06,-151.11 1360.66,-157.61"/>
</g>
<!-- Node3 -->
<g id="node3" class="node">
<title>Node3</title>
<g id="a_node3"><a xlink:href="classpfate_1_1LifeHistoryOptimizer.html#a05951c4085bd4f5a06fbbb66b8c3092d" target="_top" xlink:title=" ">
<polygon fill="none" stroke="black" points="987,-181.5 987,-211.5 1136,-211.5 1136,-181.5 987,-181.5"/>
<text text-anchor="start" x="995" y="-199.5" font-family="Helvetica,sans-Serif" font-size="10.00">pfate::LifeHistoryOptimizer</text>
<text text-anchor="middle" x="1061.5" y="-188.5" font-family="Helvetica,sans-Serif" font-size="10.00">::get_state</text>
</a>
</g>
</g>
<!-- Node1&#45;&gt;Node3 -->
<g id="edge7" class="edge">
<title>Node1&#45;&gt;Node3</title>
<path fill="none" stroke="midnightblue" d="M1331.6,-148.78C1273.64,-159.06 1193.81,-173.22 1136.16,-183.44"/>
<polygon fill="midnightblue" stroke="midnightblue" points="1332.56,-152.17 1341.8,-146.97 1331.34,-145.27 1332.56,-152.17"/>
</g>
<!-- Node7 -->
<g id="node7" class="node">
<title>Node7</title>
<g id="a_node7"><a xlink:href="classpfate_1_1CommunityProperties.html#a81a6aaa8387766442c2e9da98b2566f5" target="_top" xlink:title=" ">
<polygon fill="none" stroke="black" points="984,-230.5 984,-260.5 1139,-260.5 1139,-230.5 984,-230.5"/>
<text text-anchor="start" x="992" y="-248.5" font-family="Helvetica,sans-Serif" font-size="10.00">pfate::CommunityProperties</text>
<text text-anchor="middle" x="1061.5" y="-237.5" font-family="Helvetica,sans-Serif" font-size="10.00">::update</text>
</a>
</g>
</g>
<!-- Node1&#45;&gt;Node7 -->
<g id="edge31" class="edge">
<title>Node1&#45;&gt;Node7</title>
<path fill="none" stroke="midnightblue" d="M1388.86,-158.53C1370.71,-180.28 1340.31,-211.72 1306,-226.5 1253.43,-249.15 1188.59,-253.2 1139.04,-251.96"/>
<polygon fill="midnightblue" stroke="midnightblue" points="1391.61,-160.69 1395.19,-150.72 1386.17,-156.28 1391.61,-160.69"/>
</g>
<!-- Node8 -->
<g id="node8" class="node">
<title>Node8</title>
<g id="a_node8"><a xlink:href="classplant_1_1PlantArchitecture.html#ac0198b7834cf8d1576e2890d3e983ba0" target="_top" xlink:title="Get biomass in various carbon pools.">
<polygon fill="none" stroke="black" points="1175,-49.5 1175,-79.5 1306,-79.5 1306,-49.5 1175,-49.5"/>
<text text-anchor="start" x="1183" y="-67.5" font-family="Helvetica,sans-Serif" font-size="10.00">plant::PlantArchitecture</text>
<text text-anchor="middle" x="1240.5" y="-56.5" font-family="Helvetica,sans-Serif" font-size="10.00">::heartwood_mass</text>
</a>
</g>
</g>
<!-- Node1&#45;&gt;Node8 -->
<g id="edge8" class="edge">
<title>Node1&#45;&gt;Node8</title>
<path fill="none" stroke="midnightblue" d="M1366.78,-116.02C1348.44,-107.26 1326.27,-96.99 1306,-88.5 1298.73,-85.45 1290.92,-82.38 1283.33,-79.5"/>
<polygon fill="midnightblue" stroke="midnightblue" points="1365.47,-119.27 1376,-120.45 1368.5,-112.96 1365.47,-119.27"/>
</g>
<!-- Node9 -->
<g id="node9" class="node">
<title>Node9</title>
<g id="a_node9"><a xlink:href="classplant_1_1PlantArchitecture.html#a0f95752c3574b4dfadb93e92582e5fa5" target="_top" xlink:title="Get biomass in various carbon pools.">
<polygon fill="none" stroke="black" points="1175,-98.5 1175,-128.5 1306,-128.5 1306,-98.5 1175,-98.5"/>
<text text-anchor="start" x="1183" y="-116.5" font-family="Helvetica,sans-Serif" font-size="10.00">plant::PlantArchitecture</text>
<text text-anchor="middle" x="1240.5" y="-105.5" font-family="Helvetica,sans-Serif" font-size="10.00">::sapwood_mass</text>
</a>
</g>
</g>
<!-- Node1&#45;&gt;Node9 -->
<g id="edge9" class="edge">
<title>Node1&#45;&gt;Node9</title>
<path fill="none" stroke="midnightblue" d="M1331.76,-125.53C1323.18,-124.39 1314.48,-123.23 1306.05,-122.11"/>
<polygon fill="midnightblue" stroke="midnightblue" points="1331.39,-129.02 1341.76,-126.87 1332.31,-122.08 1331.39,-129.02"/>
</g>
<!-- Node23 -->
<g id="node23" class="node">
<title>Node23</title>
<g id="a_node23"><a xlink:href="classplant_1_1PlantArchitecture.html#a93ab8f81042a6f39a158aea24ed17ed2" target="_top" xlink:title="Get biomass in various carbon pools.">
<polygon fill="none" stroke="black" points="1175,-0.5 1175,-30.5 1306,-30.5 1306,-0.5 1175,-0.5"/>
<text text-anchor="start" x="1183" y="-18.5" font-family="Helvetica,sans-Serif" font-size="10.00">plant::PlantArchitecture</text>
<text text-anchor="middle" x="1240.5" y="-7.5" font-family="Helvetica,sans-Serif" font-size="10.00">::total_mass</text>
</a>
</g>
</g>
<!-- Node1&#45;&gt;Node23 -->
<g id="edge30" class="edge">
<title>Node1&#45;&gt;Node23</title>
<path fill="none" stroke="midnightblue" d="M1387.42,-112.53C1368.61,-91.13 1338.1,-59.6 1306,-39.5 1300.63,-36.14 1294.72,-33.14 1288.73,-30.5"/>
<polygon fill="midnightblue" stroke="midnightblue" points="1384.85,-114.91 1394.04,-120.19 1390.15,-110.33 1384.85,-114.91"/>
</g>
<!-- Node2&#45;&gt;Node3 -->
<g id="edge2" class="edge">
<title>Node2&#45;&gt;Node3</title>
<path fill="none" stroke="midnightblue" d="M1164.73,-199.39C1155.31,-199.12 1145.67,-198.85 1136.26,-198.58"/>
<polygon fill="midnightblue" stroke="midnightblue" points="1164.75,-202.89 1174.85,-199.67 1164.95,-195.89 1164.75,-202.89"/>
</g>
<!-- Node2&#45;&gt;Node7 -->
<g id="edge6" class="edge">
<title>Node2&#45;&gt;Node7</title>
<path fill="none" stroke="midnightblue" d="M1169.16,-218.99C1153.87,-222.79 1137.82,-226.78 1122.95,-230.47"/>
<polygon fill="midnightblue" stroke="midnightblue" points="1170.22,-222.33 1179.08,-216.52 1168.53,-215.54 1170.22,-222.33"/>
</g>
<!-- Node4 -->
<g id="node4" class="node">
<title>Node4</title>
<g id="a_node4"><a xlink:href="classpfate_1_1LifeHistoryOptimizer.html#a54629ecd5847e8354ce3d3293d964a69" target="_top" xlink:title=" ">
<polygon fill="none" stroke="black" points="660,-181.5 660,-211.5 809,-211.5 809,-181.5 660,-181.5"/>
<text text-anchor="start" x="668" y="-199.5" font-family="Helvetica,sans-Serif" font-size="10.00">pfate::LifeHistoryOptimizer</text>
<text text-anchor="middle" x="734.5" y="-188.5" font-family="Helvetica,sans-Serif" font-size="10.00">::printState</text>
</a>
</g>
</g>
<!-- Node3&#45;&gt;Node4 -->
<g id="edge3" class="edge">
<title>Node3&#45;&gt;Node4</title>
<path fill="none" stroke="midnightblue" d="M976.59,-196.5C924.81,-196.5 859.01,-196.5 809.24,-196.5"/>
<polygon fill="midnightblue" stroke="midnightblue" points="976.75,-200 986.75,-196.5 976.75,-193 976.75,-200"/>
</g>
<!-- Node6 -->
<g id="node6" class="node">
<title>Node6</title>
<g id="a_node6"><a xlink:href="r__interface_8cpp.html#a7897b94cdc1a829775ac5241571cd456" target="_top" xlink:title=" ">
<polygon fill="none" stroke="black" points="0,-209 0,-228 90,-228 90,-209 0,-209"/>
<text text-anchor="middle" x="45" y="-216" font-family="Helvetica,sans-Serif" font-size="10.00">RCPP_MODULE</text>
</a>
</g>
</g>
<!-- Node3&#45;&gt;Node6 -->
<g id="edge5" class="edge">
<title>Node3&#45;&gt;Node6</title>
<path fill="none" stroke="midnightblue" d="M1001.04,-214.42C914.71,-240.15 762.06,-284.5 735.5,-284.5 735.5,-284.5 735.5,-284.5 384.5,-284.5 269.3,-284.5 235.98,-299.79 126,-265.5 99.86,-257.35 73.16,-239.3 58.17,-228.09"/>
<polygon fill="midnightblue" stroke="midnightblue" points="1002.13,-217.74 1010.71,-211.53 1000.13,-211.03 1002.13,-217.74"/>
</g>
<!-- Node5 -->
<g id="node5" class="node">
<title>Node5</title>
<g id="a_node5"><a xlink:href="lho_8cpp.html#ae66f6b31b5ad750f1fe042a706a4e3d4" target="_top" xlink:title=" ">
<polygon fill="none" stroke="black" points="180,-149 180,-168 221,-168 221,-149 180,-149"/>
<text text-anchor="middle" x="200.5" y="-156" font-family="Helvetica,sans-Serif" font-size="10.00">main</text>
</a>
</g>
</g>
<!-- Node4&#45;&gt;Node5 -->
<g id="edge4" class="edge">
<title>Node4&#45;&gt;Node5</title>
<path fill="none" stroke="midnightblue" d="M649.64,-192.04C564.34,-187.29 428.38,-179.14 311,-169.5 279.58,-166.92 243.17,-163.1 221.26,-160.7"/>
<polygon fill="midnightblue" stroke="midnightblue" points="649.61,-195.54 659.79,-192.6 650,-188.55 649.61,-195.54"/>
</g>
<!-- Node10 -->
<g id="node10" class="node">
<title>Node10</title>
<g id="a_node10"><a xlink:href="classplant_1_1PlantArchitecture.html#afb649f77f93a938b777aef361638b08b" target="_top" xlink:title=" ">
<polygon fill="none" stroke="black" points="996,-67.5 996,-97.5 1127,-97.5 1127,-67.5 996,-67.5"/>
<text text-anchor="start" x="1004" y="-85.5" font-family="Helvetica,sans-Serif" font-size="10.00">plant::PlantArchitecture</text>
<text text-anchor="middle" x="1061.5" y="-74.5" font-family="Helvetica,sans-Serif" font-size="10.00">::grow_for_dt</text>
</a>
</g>
</g>
<!-- Node9&#45;&gt;Node10 -->
<g id="edge10" class="edge">
<title>Node9&#45;&gt;Node10</title>
<path fill="none" stroke="midnightblue" d="M1164.92,-100.44C1152.4,-98.25 1139.51,-95.99 1127.27,-93.84"/>
<polygon fill="midnightblue" stroke="midnightblue" points="1164.39,-103.9 1174.85,-102.18 1165.6,-97 1164.39,-103.9"/>
</g>
<!-- Node11 -->
<g id="node11" class="node">
<title>Node11</title>
<g id="a_node11"><a xlink:href="classplant_1_1PlantArchitecture.html#ab093147344ec185b6020803c5d71f793" target="_top" xlink:title="Get biomass in various carbon pools.">
<polygon fill="none" stroke="black" points="996,-18.5 996,-48.5 1127,-48.5 1127,-18.5 996,-18.5"/>
<text text-anchor="start" x="1004" y="-36.5" font-family="Helvetica,sans-Serif" font-size="10.00">plant::PlantArchitecture</text>
<text text-anchor="middle" x="1061.5" y="-25.5" font-family="Helvetica,sans-Serif" font-size="10.00">::sapwood_mass_real</text>
</a>
</g>
</g>
<!-- Node9&#45;&gt;Node11 -->
<g id="edge11" class="edge">
<title>Node9&#45;&gt;Node11</title>
<path fill="none" stroke="midnightblue" d="M1185.61,-94.25C1181.95,-92.45 1178.38,-90.53 1175,-88.5 1156.89,-77.64 1157.45,-67.76 1139,-57.5 1132.92,-54.12 1126.29,-51.14 1119.57,-48.54"/>
<polygon fill="midnightblue" stroke="midnightblue" points="1184.29,-97.49 1194.83,-98.49 1187.21,-91.13 1184.29,-97.49"/>
</g>
<!-- Node12 -->
<g id="node12" class="node">
<title>Node12</title>
<g id="a_node12"><a xlink:href="classplant_1_1Assimilator.html#ad1f356c7c009ad495c9e9a3994c92fd3" target="_top" xlink:title="Calculate leaf and fine&#45;root respiration rates.">
<polygon fill="none" stroke="black" points="987,-116.5 987,-146.5 1136,-146.5 1136,-116.5 987,-116.5"/>
<text text-anchor="start" x="995" y="-134.5" font-family="Helvetica,sans-Serif" font-size="10.00">plant::Assimilator</text>
<text text-anchor="middle" x="1061.5" y="-123.5" font-family="Helvetica,sans-Serif" font-size="10.00">::sapwood_respiration_rate</text>
</a>
</g>
</g>
<!-- Node9&#45;&gt;Node12 -->
<g id="edge12" class="edge">
<title>Node9&#45;&gt;Node12</title>
<path fill="none" stroke="midnightblue" d="M1164.73,-121.1C1155.31,-122.06 1145.67,-123.04 1136.26,-124"/>
<polygon fill="midnightblue" stroke="midnightblue" points="1165.25,-124.57 1174.85,-120.07 1164.54,-117.6 1165.25,-124.57"/>
</g>
<!-- Node13 -->
<g id="node13" class="node">
<title>Node13</title>
<g id="a_node13"><a xlink:href="classplant_1_1Assimilator.html#ade28356f5c19a8033b3781308f21202a" target="_top" xlink:title="Calculate whole&#45;plant net assimilation.">
<polygon fill="none" stroke="black" points="845,-108.5 845,-138.5 948,-138.5 948,-108.5 845,-108.5"/>
<text text-anchor="start" x="853" y="-126.5" font-family="Helvetica,sans-Serif" font-size="10.00">plant::Assimilator</text>
<text text-anchor="middle" x="896.5" y="-115.5" font-family="Helvetica,sans-Serif" font-size="10.00">::net_production</text>
</a>
</g>
</g>
<!-- Node12&#45;&gt;Node13 -->
<g id="edge13" class="edge">
<title>Node12&#45;&gt;Node13</title>
<path fill="none" stroke="midnightblue" d="M976.57,-127.38C966.91,-126.91 957.29,-126.43 948.26,-125.99"/>
<polygon fill="midnightblue" stroke="midnightblue" points="976.47,-130.88 986.63,-127.87 976.81,-123.89 976.47,-130.88"/>
</g>
<!-- Node14 -->
<g id="node14" class="node">
<title>Node14</title>
<g id="a_node14"><a xlink:href="group__libpspm__interface.html#ga6c9356733f84aca1d7bc6980bc97f157" target="_top" xlink:title=" ">
<polygon fill="none" stroke="black" points="502,-137.5 502,-167.5 618,-167.5 618,-137.5 502,-137.5"/>
<text text-anchor="start" x="510" y="-155.5" font-family="Helvetica,sans-Serif" font-size="10.00">plant::Plant::calc</text>
<text text-anchor="middle" x="560" y="-144.5" font-family="Helvetica,sans-Serif" font-size="10.00">_demographic_rates</text>
</a>
</g>
</g>
<!-- Node13&#45;&gt;Node14 -->
<g id="edge14" class="edge">
<title>Node13&#45;&gt;Node14</title>
<path fill="none" stroke="midnightblue" d="M834.64,-123.63C786.98,-124.32 719.07,-126.61 660,-133.5 646.35,-135.09 631.77,-137.49 618.1,-140.06"/>
<polygon fill="midnightblue" stroke="midnightblue" points="834.84,-127.13 844.8,-123.5 834.75,-120.13 834.84,-127.13"/>
</g>
<!-- Node18 -->
<g id="node18" class="node">
<title>Node18</title>
<g id="a_node18"><a xlink:href="classplant_1_1Plant.html#a48612779a5850cca9cc6f6caff1ccb8b" target="_top" xlink:title="LAI model.">
<polygon fill="none" stroke="black" points="671.5,-143 671.5,-162 797.5,-162 797.5,-143 671.5,-143"/>
<text text-anchor="middle" x="734.5" y="-150" font-family="Helvetica,sans-Serif" font-size="10.00">plant::Plant::lai_model</text>
</a>
</g>
</g>
<!-- Node13&#45;&gt;Node18 -->
<g id="edge22" class="edge">
<title>Node13&#45;&gt;Node18</title>
<path fill="none" stroke="midnightblue" d="M834.9,-134.48C819.46,-137.28 803,-140.27 788,-142.98"/>
<polygon fill="midnightblue" stroke="midnightblue" points="835.66,-137.9 844.88,-132.68 834.41,-131.02 835.66,-137.9"/>
</g>
<!-- Node19 -->
<g id="node19" class="node">
<title>Node19</title>
<g id="a_node19"><a xlink:href="classplant_1_1Plant.html#a03c45eaaabce7ff0287598818dc4847f" target="_top" xlink:title="Probability of survival during germination (i.e. until recruitment stage)">
<polygon fill="none" stroke="black" points="496,-50.5 496,-80.5 624,-80.5 624,-50.5 496,-50.5"/>
<text text-anchor="start" x="504" y="-68.5" font-family="Helvetica,sans-Serif" font-size="10.00">plant::Plant::p_survival</text>
<text text-anchor="middle" x="560" y="-57.5" font-family="Helvetica,sans-Serif" font-size="10.00">_germination</text>
</a>
</g>
</g>
<!-- Node13&#45;&gt;Node19 -->
<g id="edge24" class="edge">
<title>Node13&#45;&gt;Node19</title>
<path fill="none" stroke="midnightblue" d="M834.66,-112.95C774.99,-102.6 684.41,-86.9 624,-76.42"/>
<polygon fill="midnightblue" stroke="midnightblue" points="834.25,-116.43 844.7,-114.69 835.44,-109.53 834.25,-116.43"/>
</g>
<!-- Node14&#45;&gt;Node5 -->
<g id="edge20" class="edge">
<title>Node14&#45;&gt;Node5</title>
<path fill="none" stroke="midnightblue" d="M491.85,-153.63C408.8,-155.02 272.15,-157.31 221.34,-158.17"/>
<polygon fill="midnightblue" stroke="midnightblue" points="492.02,-157.12 501.96,-153.46 491.9,-150.13 492.02,-157.12"/>
</g>
<!-- Node15 -->
<g id="node15" class="node">
<title>Node15</title>
<g id="a_node15"><a xlink:href="classpfate_1_1LifeHistoryOptimizer.html#ad68ae2c0d92d28dbe0cc5d5ef03a695b" target="_top" xlink:title=" ">
<polygon fill="none" stroke="black" points="311,-225.5 311,-255.5 460,-255.5 460,-225.5 311,-225.5"/>
<text text-anchor="start" x="319" y="-243.5" font-family="Helvetica,sans-Serif" font-size="10.00">pfate::LifeHistoryOptimizer</text>
<text text-anchor="middle" x="385.5" y="-232.5" font-family="Helvetica,sans-Serif" font-size="10.00">::grow_for_dt</text>
</a>
</g>
</g>
<!-- Node14&#45;&gt;Node15 -->
<g id="edge15" class="edge">
<title>Node14&#45;&gt;Node15</title>
<path fill="none" stroke="midnightblue" d="M520.39,-172.2C488.83,-188.3 444.87,-210.73 416.05,-225.42"/>
<polygon fill="midnightblue" stroke="midnightblue" points="522.03,-175.29 529.35,-167.63 518.85,-169.05 522.03,-175.29"/>
</g>
<!-- Node17 -->
<g id="node17" class="node">
<title>Node17</title>
<g id="a_node17"><a xlink:href="group__libpspm__interface.html#gac98af9ecd8e8391fd5afbcd276603e51" target="_top" xlink:title=" ">
<polygon fill="none" stroke="black" points="330,-99.5 330,-129.5 441,-129.5 441,-99.5 330,-99.5"/>
<text text-anchor="start" x="338" y="-117.5" font-family="Helvetica,sans-Serif" font-size="10.00">pfate::PSPM_Plant::</text>
<text text-anchor="middle" x="385.5" y="-106.5" font-family="Helvetica,sans-Serif" font-size="10.00">preCompute</text>
</a>
</g>
</g>
<!-- Node14&#45;&gt;Node17 -->
<g id="edge21" class="edge">
<title>Node14&#45;&gt;Node17</title>
<path fill="none" stroke="midnightblue" d="M491.33,-137.59C474.66,-133.92 457.02,-130.03 441.06,-126.52"/>
<polygon fill="midnightblue" stroke="midnightblue" points="491.04,-141.11 501.56,-139.85 492.55,-134.28 491.04,-141.11"/>
</g>
<!-- Node15&#45;&gt;Node5 -->
<g id="edge18" class="edge">
<title>Node15&#45;&gt;Node5</title>
<path fill="none" stroke="midnightblue" d="M332.62,-221.42C325.2,-218.1 317.8,-214.43 311,-210.5 293.45,-200.35 292.9,-192.01 275,-182.5 257.81,-173.37 236.51,-166.88 221.28,-162.97"/>
<polygon fill="midnightblue" stroke="midnightblue" points="331.4,-224.71 341.97,-225.44 334.17,-218.28 331.4,-224.71"/>
</g>
<!-- Node15&#45;&gt;Node6 -->
<g id="edge19" class="edge">
<title>Node15&#45;&gt;Node6</title>
<path fill="none" stroke="midnightblue" d="M317.01,-223.32C303.2,-220.48 288.7,-217.98 275,-216.5 209.16,-209.37 192.22,-215.67 126,-216.5 114.33,-216.65 101.71,-216.91 90.01,-217.2"/>
<polygon fill="midnightblue" stroke="midnightblue" points="316.41,-226.77 326.92,-225.44 317.87,-219.93 316.41,-226.77"/>
</g>
<!-- Node16 -->
<g id="node16" class="node">
<title>Node16</title>
<g id="a_node16"><a xlink:href="classpfate_1_1LifeHistoryOptimizer.html#a34aebe9641428e3d0bcb1d59ec936e8f" target="_top" xlink:title=" ">
<polygon fill="none" stroke="black" points="126,-225.5 126,-255.5 275,-255.5 275,-225.5 126,-225.5"/>
<text text-anchor="start" x="134" y="-243.5" font-family="Helvetica,sans-Serif" font-size="10.00">pfate::LifeHistoryOptimizer</text>
<text text-anchor="middle" x="200.5" y="-232.5" font-family="Helvetica,sans-Serif" font-size="10.00">::calcFitness</text>
</a>
</g>
</g>
<!-- Node15&#45;&gt;Node16 -->
<g id="edge16" class="edge">
<title>Node15&#45;&gt;Node16</title>
<path fill="none" stroke="midnightblue" d="M300.61,-240.5C292.16,-240.5 283.62,-240.5 275.29,-240.5"/>
<polygon fill="midnightblue" stroke="midnightblue" points="300.86,-244 310.86,-240.5 300.86,-237 300.86,-244"/>
</g>
<!-- Node16&#45;&gt;Node6 -->
<g id="edge17" class="edge">
<title>Node16&#45;&gt;Node6</title>
<path fill="none" stroke="midnightblue" d="M115.93,-228.52C107.12,-227.26 98.43,-226.01 90.33,-224.85"/>
<polygon fill="midnightblue" stroke="midnightblue" points="115.5,-232 125.9,-229.95 116.49,-225.07 115.5,-232"/>
</g>
<!-- Node18&#45;&gt;Node14 -->
<g id="edge23" class="edge">
<title>Node18&#45;&gt;Node14</title>
<path fill="none" stroke="midnightblue" d="M660.91,-152.5C646.58,-152.5 631.74,-152.5 618.02,-152.5"/>
<polygon fill="midnightblue" stroke="midnightblue" points="661.22,-156 671.22,-152.5 661.22,-149 661.22,-156"/>
</g>
<!-- Node20 -->
<g id="node20" class="node">
<title>Node20</title>
<g id="a_node20"><a xlink:href="group__libpspm__interface.html#ga98991525cfbe254180dda76a24df6246" target="_top" xlink:title=" ">
<polygon fill="none" stroke="black" points="316,-1.5 316,-31.5 455,-31.5 455,-1.5 316,-1.5"/>
<text text-anchor="start" x="324" y="-19.5" font-family="Helvetica,sans-Serif" font-size="10.00">pfate::PSPM_Plant::</text>
<text text-anchor="middle" x="385.5" y="-8.5" font-family="Helvetica,sans-Serif" font-size="10.00">establishmentProbability</text>
</a>
</g>
</g>
<!-- Node19&#45;&gt;Node20 -->
<g id="edge25" class="edge">
<title>Node19&#45;&gt;Node20</title>
<path fill="none" stroke="midnightblue" d="M496.01,-47.61C477.45,-42.34 457.35,-36.62 439.49,-31.55"/>
<polygon fill="midnightblue" stroke="midnightblue" points="495.26,-51.03 505.84,-50.4 497.17,-44.3 495.26,-51.03"/>
</g>
<!-- Node22 -->
<g id="node22" class="node">
<title>Node22</title>
<g id="a_node22"><a xlink:href="classpfate_1_1LifeHistoryOptimizer.html#a498360fd80194590570542dcecd524c7" target="_top" xlink:title=" ">
<polygon fill="none" stroke="black" points="311,-50.5 311,-80.5 460,-80.5 460,-50.5 311,-50.5"/>
<text text-anchor="start" x="319" y="-68.5" font-family="Helvetica,sans-Serif" font-size="10.00">pfate::LifeHistoryOptimizer</text>
<text text-anchor="middle" x="385.5" y="-57.5" font-family="Helvetica,sans-Serif" font-size="10.00">::init</text>
</a>
</g>
</g>
<!-- Node19&#45;&gt;Node22 -->
<g id="edge27" class="edge">
<title>Node19&#45;&gt;Node22</title>
<path fill="none" stroke="midnightblue" d="M485.61,-65.5C477.22,-65.5 468.66,-65.5 460.27,-65.5"/>
<polygon fill="midnightblue" stroke="midnightblue" points="485.75,-69 495.75,-65.5 485.75,-62 485.75,-69"/>
</g>
<!-- Node21 -->
<g id="node21" class="node">
<title>Node21</title>
<g id="a_node21"><a xlink:href="classpfate_1_1PSPM__Plant.html#a2422f6eebeee0e4d590e155b1563fd3f" target="_top" xlink:title=" ">
<polygon fill="none" stroke="black" points="145,-1.5 145,-31.5 256,-31.5 256,-1.5 145,-1.5"/>
<text text-anchor="start" x="153" y="-19.5" font-family="Helvetica,sans-Serif" font-size="10.00">pfate::PSPM_Plant::</text>
<text text-anchor="middle" x="200.5" y="-8.5" font-family="Helvetica,sans-Serif" font-size="10.00">init_accumulators</text>
</a>
</g>
</g>
<!-- Node20&#45;&gt;Node21 -->
<g id="edge26" class="edge">
<title>Node20&#45;&gt;Node21</title>
<path fill="none" stroke="midnightblue" d="M305.58,-16.5C288.95,-16.5 271.76,-16.5 256.26,-16.5"/>
<polygon fill="midnightblue" stroke="midnightblue" points="305.84,-20 315.84,-16.5 305.84,-13 305.84,-20"/>
</g>
<!-- Node22&#45;&gt;Node5 -->
<g id="edge28" class="edge">
<title>Node22&#45;&gt;Node5</title>
<path fill="none" stroke="midnightblue" d="M323.46,-84.13C319.2,-85.83 315,-87.62 311,-89.5 273.98,-106.88 234.25,-134.42 214.38,-148.89"/>
<polygon fill="midnightblue" stroke="midnightblue" points="324.75,-87.38 332.86,-80.57 322.27,-80.83 324.75,-87.38"/>
</g>
<!-- Node22&#45;&gt;Node6 -->
<g id="edge29" class="edge">
<title>Node22&#45;&gt;Node6</title>
<path fill="none" stroke="midnightblue" d="M300.97,-78.42C248.17,-89.17 179.95,-107.96 126,-139.5 94.15,-158.12 65.72,-192.3 53.03,-208.92"/>
<polygon fill="midnightblue" stroke="midnightblue" points="301.85,-81.82 310.98,-76.44 300.5,-74.95 301.85,-81.82"/>
</g>
</g>
</svg>
