<?xml version="1.0" encoding="UTF-8" standalone="no"?>
<!DOCTYPE svg PUBLIC "-//W3C//DTD SVG 1.1//EN"
 "http://www.w3.org/Graphics/SVG/1.1/DTD/svg11.dtd">
<!-- Generated by graphviz version 2.43.0 (0)
 -->
<!-- Title: plant::PlantArchitecture::zm Pages: 1 -->
<svg width="1574pt" height="225pt"
 viewBox="0.00 0.00 1574.00 225.00" xmlns="http://www.w3.org/2000/svg" xmlns:xlink="http://www.w3.org/1999/xlink">
<g id="graph0" class="graph" transform="scale(1 1) rotate(0) translate(4 221)">
<title>plant::PlantArchitecture::zm</title>
<!-- Node1 -->
<g id="node1" class="node">
<title>Node1</title>
<g id="a_node1"><a xlink:title="The height at which crown radius is maximum.">
<polygon fill="#bfbfbf" stroke="black" points="1414,-33 1414,-52 1566,-52 1566,-33 1414,-33"/>
<text text-anchor="middle" x="1490" y="-40" font-family="Helvetica,sans-Serif" font-size="10.00">plant::PlantArchitecture::zm</text>
</a>
</g>
</g>
<!-- Node2 -->
<g id="node2" class="node">
<title>Node2</title>
<g id="a_node2"><a xlink:href="group__ppa__module.html#ga4c6834623dae9423d2981a0b28b0f155" target="_top" xlink:title="Realized crown projection area at height z.">
<polygon fill="none" stroke="black" points="1229,-52.5 1229,-82.5 1360,-82.5 1360,-52.5 1229,-52.5"/>
<text text-anchor="start" x="1237" y="-70.5" font-family="Helvetica,sans-Serif" font-size="10.00">plant::PlantArchitecture</text>
<text text-anchor="middle" x="1294.5" y="-59.5" font-family="Helvetica,sans-Serif" font-size="10.00">::crown_area_above</text>
</a>
</g>
</g>
<!-- Node1&#45;&gt;Node2 -->
<g id="edge1" class="edge">
<title>Node1&#45;&gt;Node2</title>
<path fill="none" stroke="midnightblue" d="M1404.98,-53.36C1389.95,-55.3 1374.51,-57.29 1360.14,-59.15"/>
<polygon fill="midnightblue" stroke="midnightblue" points="1405.82,-56.78 1415.29,-52.02 1404.93,-49.83 1405.82,-56.78"/>
</g>
<!-- Node18 -->
<g id="node18" class="node">
<title>Node18</title>
<g id="a_node18"><a xlink:href="group__ppa__module.html#gad4dfa03054809f72d957ed9709b0a5b7" target="_top" xlink:title="Potential crown projection area at height z.">
<polygon fill="none" stroke="black" points="1211,-3.5 1211,-33.5 1378,-33.5 1378,-3.5 1211,-3.5"/>
<text text-anchor="start" x="1219" y="-21.5" font-family="Helvetica,sans-Serif" font-size="10.00">plant::PlantArchitecture</text>
<text text-anchor="middle" x="1294.5" y="-10.5" font-family="Helvetica,sans-Serif" font-size="10.00">::crown_area_extent_projected</text>
</a>
</g>
</g>
<!-- Node1&#45;&gt;Node18 -->
<g id="edge23" class="edge">
<title>Node1&#45;&gt;Node18</title>
<path fill="none" stroke="midnightblue" d="M1403.96,-31.95C1395.42,-30.89 1386.76,-29.82 1378.25,-28.76"/>
<polygon fill="midnightblue" stroke="midnightblue" points="1403.56,-35.43 1413.91,-33.19 1404.42,-28.48 1403.56,-35.43"/>
</g>
<!-- Node3 -->
<g id="node3" class="node">
<title>Node3</title>
<g id="a_node3"><a xlink:href="classplant_1_1Assimilator.html#ac0e69ab9225a2d1be337b10446cfa126" target="_top" xlink:title="Calculate whole&#45;plant gross assimilation, transpiration, gs, etc.">
<polygon fill="none" stroke="black" points="1013,-96.5 1013,-126.5 1175,-126.5 1175,-96.5 1013,-96.5"/>
<text text-anchor="start" x="1021" y="-114.5" font-family="Helvetica,sans-Serif" font-size="10.00">plant::Assimilator</text>
<text text-anchor="middle" x="1094" y="-103.5" font-family="Helvetica,sans-Serif" font-size="10.00">::calc_plant_assimilation_rate</text>
</a>
</g>
</g>
<!-- Node2&#45;&gt;Node3 -->
<g id="edge2" class="edge">
<title>Node2&#45;&gt;Node3</title>
<path fill="none" stroke="midnightblue" d="M1218.96,-84.02C1200.5,-88.12 1180.82,-92.48 1162.7,-96.49"/>
<polygon fill="midnightblue" stroke="midnightblue" points="1219.77,-87.43 1228.78,-81.85 1218.26,-80.59 1219.77,-87.43"/>
</g>
<!-- Node16 -->
<g id="node16" class="node">
<title>Node16</title>
<g id="a_node16"><a xlink:href="classplant_1_1PlantArchitecture.html#ac57d3c7ed468b593d9696785bd37d71a" target="_top" xlink:title="Vertical profiles of crown and stem">
<polygon fill="none" stroke="black" points="1028.5,-8.5 1028.5,-38.5 1159.5,-38.5 1159.5,-8.5 1028.5,-8.5"/>
<text text-anchor="start" x="1036.5" y="-26.5" font-family="Helvetica,sans-Serif" font-size="10.00">plant::PlantArchitecture</text>
<text text-anchor="middle" x="1094" y="-15.5" font-family="Helvetica,sans-Serif" font-size="10.00">::diameter_at_height</text>
</a>
</g>
</g>
<!-- Node2&#45;&gt;Node16 -->
<g id="edge20" class="edge">
<title>Node2&#45;&gt;Node16</title>
<path fill="none" stroke="midnightblue" d="M1219.01,-50.99C1199.49,-46.66 1178.6,-42.03 1159.63,-37.83"/>
<polygon fill="midnightblue" stroke="midnightblue" points="1218.26,-54.41 1228.78,-53.15 1219.77,-47.57 1218.26,-54.41"/>
</g>
<!-- Node17 -->
<g id="node17" class="node">
<title>Node17</title>
<g id="a_node17"><a xlink:href="classpfate_1_1CommunityProperties.html#a81a6aaa8387766442c2e9da98b2566f5" target="_top" xlink:title=" ">
<polygon fill="none" stroke="black" points="822,-28.5 822,-58.5 977,-58.5 977,-28.5 822,-28.5"/>
<text text-anchor="start" x="830" y="-46.5" font-family="Helvetica,sans-Serif" font-size="10.00">pfate::CommunityProperties</text>
<text text-anchor="middle" x="899.5" y="-35.5" font-family="Helvetica,sans-Serif" font-size="10.00">::update</text>
</a>
</g>
</g>
<!-- Node2&#45;&gt;Node17 -->
<g id="edge22" class="edge">
<title>Node2&#45;&gt;Node17</title>
<path fill="none" stroke="midnightblue" d="M1218.22,-62.9C1149.04,-58.68 1046.96,-52.44 977.3,-48.19"/>
<polygon fill="midnightblue" stroke="midnightblue" points="1218.41,-66.42 1228.6,-63.54 1218.84,-59.43 1218.41,-66.42"/>
</g>
<!-- Node4 -->
<g id="node4" class="node">
<title>Node4</title>
<g id="a_node4"><a xlink:href="classplant_1_1Assimilator.html#ade28356f5c19a8033b3781308f21202a" target="_top" xlink:title="Calculate whole&#45;plant net assimilation.">
<polygon fill="none" stroke="black" points="848,-96.5 848,-126.5 951,-126.5 951,-96.5 848,-96.5"/>
<text text-anchor="start" x="856" y="-114.5" font-family="Helvetica,sans-Serif" font-size="10.00">plant::Assimilator</text>
<text text-anchor="middle" x="899.5" y="-103.5" font-family="Helvetica,sans-Serif" font-size="10.00">::net_production</text>
</a>
</g>
</g>
<!-- Node3&#45;&gt;Node4 -->
<g id="edge3" class="edge">
<title>Node3&#45;&gt;Node4</title>
<path fill="none" stroke="midnightblue" d="M1002.43,-111.5C984.82,-111.5 966.96,-111.5 951.21,-111.5"/>
<polygon fill="midnightblue" stroke="midnightblue" points="1002.76,-115 1012.76,-111.5 1002.76,-108 1002.76,-115"/>
</g>
<!-- Node5 -->
<g id="node5" class="node">
<title>Node5</title>
<g id="a_node5"><a xlink:href="group__libpspm__interface.html#ga6c9356733f84aca1d7bc6980bc97f157" target="_top" xlink:title=" ">
<polygon fill="none" stroke="black" points="502,-134.5 502,-164.5 618,-164.5 618,-134.5 502,-134.5"/>
<text text-anchor="start" x="510" y="-152.5" font-family="Helvetica,sans-Serif" font-size="10.00">plant::Plant::calc</text>
<text text-anchor="middle" x="560" y="-141.5" font-family="Helvetica,sans-Serif" font-size="10.00">_demographic_rates</text>
</a>
</g>
</g>
<!-- Node4&#45;&gt;Node5 -->
<g id="edge4" class="edge">
<title>Node4&#45;&gt;Node5</title>
<path fill="none" stroke="midnightblue" d="M837.33,-114.51C789.03,-117.34 720.01,-122.38 660,-130.5 646.39,-132.34 631.81,-134.84 618.15,-137.42"/>
<polygon fill="midnightblue" stroke="midnightblue" points="837.83,-117.99 847.61,-113.93 837.43,-111 837.83,-117.99"/>
</g>
<!-- Node11 -->
<g id="node11" class="node">
<title>Node11</title>
<g id="a_node11"><a xlink:href="classplant_1_1Plant.html#a48612779a5850cca9cc6f6caff1ccb8b" target="_top" xlink:title="LAI model.">
<polygon fill="none" stroke="black" points="660,-140 660,-159 786,-159 786,-140 660,-140"/>
<text text-anchor="middle" x="723" y="-147" font-family="Helvetica,sans-Serif" font-size="10.00">plant::Plant::lai_model</text>
</a>
</g>
</g>
<!-- Node4&#45;&gt;Node11 -->
<g id="edge12" class="edge">
<title>Node4&#45;&gt;Node11</title>
<path fill="none" stroke="midnightblue" d="M837.57,-124.77C814.62,-129.77 789,-135.35 767.9,-139.94"/>
<polygon fill="midnightblue" stroke="midnightblue" points="838.53,-128.14 847.56,-122.59 837.04,-121.3 838.53,-128.14"/>
</g>
<!-- Node12 -->
<g id="node12" class="node">
<title>Node12</title>
<g id="a_node12"><a xlink:href="classplant_1_1Plant.html#a03c45eaaabce7ff0287598818dc4847f" target="_top" xlink:title="Probability of survival during germination (i.e. until recruitment stage)">
<polygon fill="none" stroke="black" points="496,-49.5 496,-79.5 624,-79.5 624,-49.5 496,-49.5"/>
<text text-anchor="start" x="504" y="-67.5" font-family="Helvetica,sans-Serif" font-size="10.00">plant::Plant::p_survival</text>
<text text-anchor="middle" x="560" y="-56.5" font-family="Helvetica,sans-Serif" font-size="10.00">_germination</text>
</a>
</g>
</g>
<!-- Node4&#45;&gt;Node12 -->
<g id="edge14" class="edge">
<title>Node4&#45;&gt;Node12</title>
<path fill="none" stroke="midnightblue" d="M837.84,-103.05C777.54,-94.66 685.45,-81.83 624.26,-73.31"/>
<polygon fill="midnightblue" stroke="midnightblue" points="837.59,-106.55 847.97,-104.46 838.55,-99.62 837.59,-106.55"/>
</g>
<!-- Node6 -->
<g id="node6" class="node">
<title>Node6</title>
<g id="a_node6"><a xlink:href="classpfate_1_1LifeHistoryOptimizer.html#ad68ae2c0d92d28dbe0cc5d5ef03a695b" target="_top" xlink:title=" ">
<polygon fill="none" stroke="black" points="311,-186.5 311,-216.5 460,-216.5 460,-186.5 311,-186.5"/>
<text text-anchor="start" x="319" y="-204.5" font-family="Helvetica,sans-Serif" font-size="10.00">pfate::LifeHistoryOptimizer</text>
<text text-anchor="middle" x="385.5" y="-193.5" font-family="Helvetica,sans-Serif" font-size="10.00">::grow_for_dt</text>
</a>
</g>
</g>
<!-- Node5&#45;&gt;Node6 -->
<g id="edge5" class="edge">
<title>Node5&#45;&gt;Node6</title>
<path fill="none" stroke="midnightblue" d="M499.51,-167.43C478.9,-173.65 456.03,-180.54 436.28,-186.49"/>
<polygon fill="midnightblue" stroke="midnightblue" points="500.54,-170.78 509.11,-164.54 498.52,-164.08 500.54,-170.78"/>
</g>
<!-- Node9 -->
<g id="node9" class="node">
<title>Node9</title>
<g id="a_node9"><a xlink:href="lho_8cpp.html#ae66f6b31b5ad750f1fe042a706a4e3d4" target="_top" xlink:title=" ">
<polygon fill="none" stroke="black" points="180,-99 180,-118 221,-118 221,-99 180,-99"/>
<text text-anchor="middle" x="200.5" y="-106" font-family="Helvetica,sans-Serif" font-size="10.00">main</text>
</a>
</g>
</g>
<!-- Node5&#45;&gt;Node9 -->
<g id="edge10" class="edge">
<title>Node5&#45;&gt;Node9</title>
<path fill="none" stroke="midnightblue" d="M491.84,-134.01C481.23,-131.92 470.35,-129.99 460,-128.5 371.34,-115.72 264.32,-110.73 221.05,-109.13"/>
<polygon fill="midnightblue" stroke="midnightblue" points="491.41,-137.49 501.91,-136.05 492.8,-130.63 491.41,-137.49"/>
</g>
<!-- Node10 -->
<g id="node10" class="node">
<title>Node10</title>
<g id="a_node10"><a xlink:href="group__libpspm__interface.html#gac98af9ecd8e8391fd5afbcd276603e51" target="_top" xlink:title=" ">
<polygon fill="none" stroke="black" points="330,-137.5 330,-167.5 441,-167.5 441,-137.5 330,-137.5"/>
<text text-anchor="start" x="338" y="-155.5" font-family="Helvetica,sans-Serif" font-size="10.00">pfate::PSPM_Plant::</text>
<text text-anchor="middle" x="385.5" y="-144.5" font-family="Helvetica,sans-Serif" font-size="10.00">preCompute</text>
</a>
</g>
</g>
<!-- Node5&#45;&gt;Node10 -->
<g id="edge11" class="edge">
<title>Node5&#45;&gt;Node10</title>
<path fill="none" stroke="midnightblue" d="M491.33,-150.68C474.66,-150.97 457.02,-151.27 441.06,-151.55"/>
<polygon fill="midnightblue" stroke="midnightblue" points="491.62,-154.17 501.56,-150.5 491.5,-147.17 491.62,-154.17"/>
</g>
<!-- Node7 -->
<g id="node7" class="node">
<title>Node7</title>
<g id="a_node7"><a xlink:href="classpfate_1_1LifeHistoryOptimizer.html#a34aebe9641428e3d0bcb1d59ec936e8f" target="_top" xlink:title=" ">
<polygon fill="none" stroke="black" points="126,-186.5 126,-216.5 275,-216.5 275,-186.5 126,-186.5"/>
<text text-anchor="start" x="134" y="-204.5" font-family="Helvetica,sans-Serif" font-size="10.00">pfate::LifeHistoryOptimizer</text>
<text text-anchor="middle" x="200.5" y="-193.5" font-family="Helvetica,sans-Serif" font-size="10.00">::calcFitness</text>
</a>
</g>
</g>
<!-- Node6&#45;&gt;Node7 -->
<g id="edge6" class="edge">
<title>Node6&#45;&gt;Node7</title>
<path fill="none" stroke="midnightblue" d="M300.61,-201.5C292.16,-201.5 283.62,-201.5 275.29,-201.5"/>
<polygon fill="midnightblue" stroke="midnightblue" points="300.86,-205 310.86,-201.5 300.86,-198 300.86,-205"/>
</g>
<!-- Node8 -->
<g id="node8" class="node">
<title>Node8</title>
<g id="a_node8"><a xlink:href="r__interface_8cpp.html#a7897b94cdc1a829775ac5241571cd456" target="_top" xlink:title=" ">
<polygon fill="none" stroke="black" points="0,-148 0,-167 90,-167 90,-148 0,-148"/>
<text text-anchor="middle" x="45" y="-155" font-family="Helvetica,sans-Serif" font-size="10.00">RCPP_MODULE</text>
</a>
</g>
</g>
<!-- Node6&#45;&gt;Node8 -->
<g id="edge9" class="edge">
<title>Node6&#45;&gt;Node8</title>
<path fill="none" stroke="midnightblue" d="M312.6,-184.36C300.12,-181.78 287.22,-179.36 275,-177.5 211.09,-167.75 136.36,-162.33 90.1,-159.66"/>
<polygon fill="midnightblue" stroke="midnightblue" points="312,-187.81 322.51,-186.46 313.45,-180.96 312,-187.81"/>
</g>
<!-- Node6&#45;&gt;Node9 -->
<g id="edge8" class="edge">
<title>Node6&#45;&gt;Node9</title>
<path fill="none" stroke="midnightblue" d="M319.83,-182.24C316.79,-180.76 313.83,-179.18 311,-177.5 292.08,-166.26 293.16,-155.94 275,-143.5 257.98,-131.84 236.46,-122.09 221.12,-115.87"/>
<polygon fill="midnightblue" stroke="midnightblue" points="318.58,-185.52 329.14,-186.39 321.43,-179.12 318.58,-185.52"/>
</g>
<!-- Node7&#45;&gt;Node8 -->
<g id="edge7" class="edge">
<title>Node7&#45;&gt;Node8</title>
<path fill="none" stroke="midnightblue" d="M137.22,-183.65C117.44,-177.98 96.34,-171.93 79.42,-167.08"/>
<polygon fill="midnightblue" stroke="midnightblue" points="136.53,-187.09 147.1,-186.48 138.45,-180.36 136.53,-187.09"/>
</g>
<!-- Node11&#45;&gt;Node5 -->
<g id="edge13" class="edge">
<title>Node11&#45;&gt;Node5</title>
<path fill="none" stroke="midnightblue" d="M649.68,-149.5C639.09,-149.5 628.31,-149.5 618.08,-149.5"/>
<polygon fill="midnightblue" stroke="midnightblue" points="649.75,-153 659.75,-149.5 649.75,-146 649.75,-153"/>
</g>
<!-- Node13 -->
<g id="node13" class="node">
<title>Node13</title>
<g id="a_node13"><a xlink:href="group__libpspm__interface.html#ga98991525cfbe254180dda76a24df6246" target="_top" xlink:title=" ">
<polygon fill="none" stroke="black" points="316,-0.5 316,-30.5 455,-30.5 455,-0.5 316,-0.5"/>
<text text-anchor="start" x="324" y="-18.5" font-family="Helvetica,sans-Serif" font-size="10.00">pfate::PSPM_Plant::</text>
<text text-anchor="middle" x="385.5" y="-7.5" font-family="Helvetica,sans-Serif" font-size="10.00">establishmentProbability</text>
</a>
</g>
</g>
<!-- Node12&#45;&gt;Node13 -->
<g id="edge15" class="edge">
<title>Node12&#45;&gt;Node13</title>
<path fill="none" stroke="midnightblue" d="M496.01,-46.61C477.45,-41.34 457.35,-35.62 439.49,-30.55"/>
<polygon fill="midnightblue" stroke="midnightblue" points="495.26,-50.03 505.84,-49.4 497.17,-43.3 495.26,-50.03"/>
</g>
<!-- Node15 -->
<g id="node15" class="node">
<title>Node15</title>
<g id="a_node15"><a xlink:href="classpfate_1_1LifeHistoryOptimizer.html#a498360fd80194590570542dcecd524c7" target="_top" xlink:title=" ">
<polygon fill="none" stroke="black" points="311,-49.5 311,-79.5 460,-79.5 460,-49.5 311,-49.5"/>
<text text-anchor="start" x="319" y="-67.5" font-family="Helvetica,sans-Serif" font-size="10.00">pfate::LifeHistoryOptimizer</text>
<text text-anchor="middle" x="385.5" y="-56.5" font-family="Helvetica,sans-Serif" font-size="10.00">::init</text>
</a>
</g>
</g>
<!-- Node12&#45;&gt;Node15 -->
<g id="edge17" class="edge">
<title>Node12&#45;&gt;Node15</title>
<path fill="none" stroke="midnightblue" d="M485.61,-64.5C477.22,-64.5 468.66,-64.5 460.27,-64.5"/>
<polygon fill="midnightblue" stroke="midnightblue" points="485.75,-68 495.75,-64.5 485.75,-61 485.75,-68"/>
</g>
<!-- Node14 -->
<g id="node14" class="node">
<title>Node14</title>
<g id="a_node14"><a xlink:href="classpfate_1_1PSPM__Plant.html#a2422f6eebeee0e4d590e155b1563fd3f" target="_top" xlink:title=" ">
<polygon fill="none" stroke="black" points="145,-0.5 145,-30.5 256,-30.5 256,-0.5 145,-0.5"/>
<text text-anchor="start" x="153" y="-18.5" font-family="Helvetica,sans-Serif" font-size="10.00">pfate::PSPM_Plant::</text>
<text text-anchor="middle" x="200.5" y="-7.5" font-family="Helvetica,sans-Serif" font-size="10.00">init_accumulators</text>
</a>
</g>
</g>
<!-- Node13&#45;&gt;Node14 -->
<g id="edge16" class="edge">
<title>Node13&#45;&gt;Node14</title>
<path fill="none" stroke="midnightblue" d="M305.58,-15.5C288.95,-15.5 271.76,-15.5 256.26,-15.5"/>
<polygon fill="midnightblue" stroke="midnightblue" points="305.84,-19 315.84,-15.5 305.84,-12 305.84,-19"/>
</g>
<!-- Node15&#45;&gt;Node8 -->
<g id="edge19" class="edge">
<title>Node15&#45;&gt;Node8</title>
<path fill="none" stroke="midnightblue" d="M300.66,-60.08C248.49,-60.32 181.08,-66.18 126,-89.5 94.78,-102.72 66.69,-132.62 53.67,-147.99"/>
<polygon fill="midnightblue" stroke="midnightblue" points="300.87,-63.58 310.88,-60.1 300.89,-56.58 300.87,-63.58"/>
</g>
<!-- Node15&#45;&gt;Node9 -->
<g id="edge18" class="edge">
<title>Node15&#45;&gt;Node9</title>
<path fill="none" stroke="midnightblue" d="M311.98,-81.94C279.18,-89.82 242.98,-98.53 221.25,-103.75"/>
<polygon fill="midnightblue" stroke="midnightblue" points="313.13,-85.26 322.03,-79.52 311.49,-78.45 313.13,-85.26"/>
</g>
<!-- Node16&#45;&gt;Node17 -->
<g id="edge21" class="edge">
<title>Node16&#45;&gt;Node17</title>
<path fill="none" stroke="midnightblue" d="M1018.23,-31.27C1004.8,-32.66 990.79,-34.12 977.3,-35.52"/>
<polygon fill="midnightblue" stroke="midnightblue" points="1018.78,-34.73 1028.36,-30.22 1018.06,-27.77 1018.78,-34.73"/>
</g>
</g>
</svg>
