<?xml version="1.0" encoding="UTF-8" standalone="no"?>
<!DOCTYPE svg PUBLIC "-//W3C//DTD SVG 1.1//EN"
 "http://www.w3.org/Graphics/SVG/1.1/DTD/svg11.dtd">
<!-- Generated by graphviz version 2.43.0 (0)
 -->
<!-- Title: pfate::AdaptiveSpecies&lt; Model &gt; Pages: 1 -->
<svg width="765pt" height="242pt"
 viewBox="0.00 0.00 765.00 241.94" xmlns="http://www.w3.org/2000/svg" xmlns:xlink="http://www.w3.org/1999/xlink">
<g id="graph0" class="graph" transform="scale(1 1) rotate(0) translate(4 237.94)">
<title>pfate::AdaptiveSpecies&lt; Model &gt;</title>
<!-- Node1 -->
<g id="node1" class="node">
<title>Node1</title>
<g id="a_node1"><a xlink:title="This classes extends the Species class provided by the solver to implement the evolutionary algorithm...">
<polygon fill="#bfbfbf" stroke="black" points="628,-103.94 628,-133.94 757,-133.94 757,-103.94 628,-103.94"/>
<text text-anchor="start" x="636" y="-121.94" font-family="Helvetica,sans-Serif" font-size="10.00">pfate::AdaptiveSpecies</text>
<text text-anchor="middle" x="692.5" y="-110.94" font-family="Helvetica,sans-Serif" font-size="10.00">&lt; Model &gt;</text>
</a>
</g>
</g>
<!-- Node2 -->
<g id="node2" class="node">
<title>Node2</title>
<g id="a_node2"><a xlink:title=" ">
<polygon fill="none" stroke="#bfbfbf" points="368.5,-214.44 368.5,-233.44 475.5,-233.44 475.5,-214.44 368.5,-214.44"/>
<text text-anchor="middle" x="422" y="-221.44" font-family="Helvetica,sans-Serif" font-size="10.00">Species&lt; Model &gt;</text>
</a>
</g>
</g>
<!-- Node2&#45;&gt;Node1 -->
<g id="edge1" class="edge">
<title>Node2&#45;&gt;Node1</title>
<path fill="none" stroke="midnightblue" d="M486.07,-221.87C523.64,-218.56 571.37,-210.6 610,-191.94 638.74,-178.06 664.85,-150.96 679.42,-133.97"/>
<polygon fill="midnightblue" stroke="midnightblue" points="485.45,-218.41 475.76,-222.69 486,-225.39 485.45,-218.41"/>
</g>
<!-- Node3 -->
<g id="node3" class="node">
<title>Node3</title>
<g id="a_node3"><a xlink:href="classMovingAverager.html" target="_top" xlink:title=" ">
<polygon fill="none" stroke="black" points="374,-176.44 374,-195.44 470,-195.44 470,-176.44 374,-176.44"/>
<text text-anchor="middle" x="422" y="-183.44" font-family="Helvetica,sans-Serif" font-size="10.00">MovingAverager</text>
</a>
</g>
</g>
<!-- Node3&#45;&gt;Node1 -->
<g id="edge2" class="edge">
<title>Node3&#45;&gt;Node1</title>
<path fill="none" stroke="#9a32cd" stroke-dasharray="5,2" d="M480.43,-175.9C517.65,-168.91 567.03,-158.76 610,-146.94 623.42,-143.26 637.84,-138.55 650.77,-134.06"/>
<polygon fill="#9a32cd" stroke="#9a32cd" points="479.46,-172.52 470.27,-177.78 480.74,-179.4 479.46,-172.52"/>
<text text-anchor="middle" x="569" y="-179.94" font-family="Helvetica,sans-Serif" font-size="10.00"> r0_hist</text>
<text text-anchor="middle" x="569" y="-168.94" font-family="Helvetica,sans-Serif" font-size="10.00">seeds_hist</text>
</g>
<!-- Node4 -->
<g id="node4" class="node">
<title>Node4</title>
<g id="a_node4"><a xlink:title=" ">
<polygon fill="none" stroke="#bfbfbf" points="141,-176.44 141,-195.44 249,-195.44 249,-176.44 141,-176.44"/>
<text text-anchor="middle" x="195" y="-183.44" font-family="Helvetica,sans-Serif" font-size="10.00">std::list&lt; double &gt;</text>
</a>
</g>
</g>
<!-- Node4&#45;&gt;Node3 -->
<g id="edge3" class="edge">
<title>Node4&#45;&gt;Node3</title>
<path fill="none" stroke="#9a32cd" stroke-dasharray="5,2" d="M259.05,-185.94C295.4,-185.94 340.36,-185.94 373.67,-185.94"/>
<polygon fill="#9a32cd" stroke="#9a32cd" points="259.04,-182.44 249.04,-185.94 259.04,-189.44 259.04,-182.44"/>
<text text-anchor="middle" x="291.5" y="-221.94" font-family="Helvetica,sans-Serif" font-size="10.00"> areas</text>
<text text-anchor="middle" x="291.5" y="-210.94" font-family="Helvetica,sans-Serif" font-size="10.00">dts</text>
<text text-anchor="middle" x="291.5" y="-199.94" font-family="Helvetica,sans-Serif" font-size="10.00">f_hist</text>
<text text-anchor="middle" x="291.5" y="-188.94" font-family="Helvetica,sans-Serif" font-size="10.00">t_hist</text>
</g>
<!-- Node5 -->
<g id="node5" class="node">
<title>Node5</title>
<g id="a_node5"><a xlink:title=" ">
<polygon fill="none" stroke="#bfbfbf" points="334,-126.94 334,-156.94 510,-156.94 510,-126.94 334,-126.94"/>
<text text-anchor="start" x="342" y="-144.94" font-family="Helvetica,sans-Serif" font-size="10.00">std::vector&lt; pfate</text>
<text text-anchor="middle" x="422" y="-133.94" font-family="Helvetica,sans-Serif" font-size="10.00">::AdaptiveSpecies&lt; Model &gt; * &gt;</text>
</a>
</g>
</g>
<!-- Node5&#45;&gt;Node1 -->
<g id="edge4" class="edge">
<title>Node5&#45;&gt;Node1</title>
<path fill="none" stroke="#9a32cd" stroke-dasharray="5,2" d="M520.16,-133.62C555.97,-130.55 595.6,-127.16 627.72,-124.41"/>
<polygon fill="#9a32cd" stroke="#9a32cd" points="519.84,-130.14 510.17,-134.48 520.44,-137.11 519.84,-130.14"/>
<text text-anchor="middle" x="569" y="-134.94" font-family="Helvetica,sans-Serif" font-size="10.00"> probes</text>
</g>
<!-- Node6 -->
<g id="node6" class="node">
<title>Node6</title>
<g id="a_node6"><a xlink:title=" ">
<polygon fill="none" stroke="#bfbfbf" points="162.5,-69.44 162.5,-88.44 227.5,-88.44 227.5,-69.44 162.5,-69.44"/>
<text text-anchor="middle" x="195" y="-76.44" font-family="Helvetica,sans-Serif" font-size="10.00">std::string</text>
</a>
</g>
</g>
<!-- Node6&#45;&gt;Node1 -->
<g id="edge5" class="edge">
<title>Node6&#45;&gt;Node1</title>
<path fill="none" stroke="#9a32cd" stroke-dasharray="5,2" d="M237.75,-82.31C324.5,-89.32 524.71,-105.48 627.72,-113.8"/>
<polygon fill="#9a32cd" stroke="#9a32cd" points="238,-78.82 227.75,-81.51 237.44,-85.8 238,-78.82"/>
<text text-anchor="middle" x="422" y="-106.94" font-family="Helvetica,sans-Serif" font-size="10.00"> species_name</text>
</g>
<!-- Node8 -->
<g id="node8" class="node">
<title>Node8</title>
<g id="a_node8"><a xlink:title=" ">
<polygon fill="none" stroke="#bfbfbf" points="352,-41.44 352,-60.44 492,-60.44 492,-41.44 352,-41.44"/>
<text text-anchor="middle" x="422" y="-48.44" font-family="Helvetica,sans-Serif" font-size="10.00">std::vector&lt; std::string &gt;</text>
</a>
</g>
</g>
<!-- Node6&#45;&gt;Node8 -->
<g id="edge8" class="edge">
<title>Node6&#45;&gt;Node8</title>
<path fill="none" stroke="#9a32cd" stroke-dasharray="5,2" d="M238.09,-73.71C270.05,-69.73 314.7,-64.17 351.89,-59.54"/>
<polygon fill="#9a32cd" stroke="#9a32cd" points="237.25,-70.28 227.76,-74.99 238.12,-77.23 237.25,-70.28"/>
<text text-anchor="middle" x="291.5" y="-71.94" font-family="Helvetica,sans-Serif" font-size="10.00"> elements</text>
</g>
<!-- Node7 -->
<g id="node7" class="node">
<title>Node7</title>
<g id="a_node7"><a xlink:title=" ">
<polygon fill="none" stroke="#bfbfbf" points="0,-63.94 0,-93.94 104,-93.94 104,-63.94 0,-63.94"/>
<text text-anchor="start" x="8" y="-81.94" font-family="Helvetica,sans-Serif" font-size="10.00">std::basic_string&lt;</text>
<text text-anchor="middle" x="52" y="-70.94" font-family="Helvetica,sans-Serif" font-size="10.00"> Char &gt;</text>
</a>
</g>
</g>
<!-- Node7&#45;&gt;Node6 -->
<g id="edge6" class="edge">
<title>Node7&#45;&gt;Node6</title>
<path fill="none" stroke="midnightblue" d="M114.44,-78.94C130.92,-78.94 148.07,-78.94 162.21,-78.94"/>
<polygon fill="midnightblue" stroke="midnightblue" points="114.3,-75.44 104.3,-78.94 114.3,-82.44 114.3,-75.44"/>
</g>
<!-- Node8&#45;&gt;Node1 -->
<g id="edge7" class="edge">
<title>Node8&#45;&gt;Node1</title>
<path fill="none" stroke="#9a32cd" stroke-dasharray="5,2" d="M502.68,-52.69C536.45,-55.26 575.83,-60.71 610,-71.94 632.19,-79.23 655.02,-93.05 670.85,-103.82"/>
<polygon fill="#9a32cd" stroke="#9a32cd" points="502.61,-49.18 492.39,-51.98 502.12,-56.16 502.61,-49.18"/>
<text text-anchor="middle" x="569" y="-74.94" font-family="Helvetica,sans-Serif" font-size="10.00"> evolvable_traits</text>
</g>
<!-- Node9 -->
<g id="node9" class="node">
<title>Node9</title>
<g id="a_node9"><a xlink:title=" ">
<polygon fill="none" stroke="#bfbfbf" points="360,-3.44 360,-22.44 484,-22.44 484,-3.44 360,-3.44"/>
<text text-anchor="middle" x="422" y="-10.44" font-family="Helvetica,sans-Serif" font-size="10.00">std::vector&lt; double &gt;</text>
</a>
</g>
</g>
<!-- Node9&#45;&gt;Node1 -->
<g id="edge9" class="edge">
<title>Node9&#45;&gt;Node1</title>
<path fill="none" stroke="#9a32cd" stroke-dasharray="5,2" d="M482.16,-2.25C520.55,1.82 570.58,1.55 610,-17.94 647.16,-36.32 673.01,-80.46 684.6,-103.83"/>
<polygon fill="#9a32cd" stroke="#9a32cd" points="481.68,1.22 472.16,-3.43 482.5,-5.73 481.68,1.22"/>
<text text-anchor="middle" x="569" y="-42.94" font-family="Helvetica,sans-Serif" font-size="10.00"> fitness_gradient</text>
<text text-anchor="middle" x="569" y="-31.94" font-family="Helvetica,sans-Serif" font-size="10.00">trait_scalars</text>
<text text-anchor="middle" x="569" y="-20.94" font-family="Helvetica,sans-Serif" font-size="10.00">trait_variance</text>
</g>
</g>
</svg>
