<?xml version="1.0" encoding="UTF-8" standalone="no"?>
<!DOCTYPE svg PUBLIC "-//W3C//DTD SVG 1.1//EN"
 "http://www.w3.org/Graphics/SVG/1.1/DTD/svg11.dtd">
<!-- Generated by graphviz version 2.43.0 (0)
 -->
<!-- Title: pfate::CommunityProperties Pages: 1 -->
<svg width="528pt" height="500pt"
 viewBox="0.00 0.00 528.00 500.00" xmlns="http://www.w3.org/2000/svg" xmlns:xlink="http://www.w3.org/1999/xlink">
<g id="graph0" class="graph" transform="scale(1 1) rotate(0) translate(4 496)">
<title>pfate::CommunityProperties</title>
<!-- Node1 -->
<g id="node1" class="node">
<title>Node1</title>
<g id="a_node1"><a xlink:title="This class calculates and stores community&#45;level properties of interest.">
<polygon fill="#bfbfbf" stroke="black" points="169.5,-0.5 169.5,-19.5 324.5,-19.5 324.5,-0.5 169.5,-0.5"/>
<text text-anchor="middle" x="247" y="-7.5" font-family="Helvetica,sans-Serif" font-size="10.00">pfate::CommunityProperties</text>
</a>
</g>
</g>
<!-- Node2 -->
<g id="node2" class="node">
<title>Node2</title>
<g id="a_node2"><a xlink:title=" ">
<polygon fill="none" stroke="#bfbfbf" points="19.5,-285 19.5,-304 84.5,-304 84.5,-285 19.5,-285"/>
<text text-anchor="middle" x="52" y="-292" font-family="Helvetica,sans-Serif" font-size="10.00">std::string</text>
</a>
</g>
</g>
<!-- Node2&#45;&gt;Node1 -->
<g id="edge1" class="edge">
<title>Node2&#45;&gt;Node1</title>
<path fill="none" stroke="#9a32cd" stroke-dasharray="5,2" d="M35.11,-277.17C24.5,-265.68 11.76,-249.31 6,-232 -0.17,-213.44 -2.1,-205.8 6,-188 47.99,-95.67 91.27,-90.59 178,-38 190.65,-30.33 205.86,-24.1 218.77,-19.57"/>
<polygon fill="#9a32cd" stroke="#9a32cd" points="32.86,-279.88 42.34,-284.62 37.89,-275.01 32.86,-279.88"/>
<text text-anchor="middle" x="55" y="-224" font-family="Helvetica,sans-Serif" font-size="10.00"> cwmAvg_file</text>
<text text-anchor="middle" x="55" y="-213" font-family="Helvetica,sans-Serif" font-size="10.00">cwmperSpecies_file</text>
<text text-anchor="middle" x="55" y="-202" font-family="Helvetica,sans-Serif" font-size="10.00">emgProps_file</text>
<text text-anchor="middle" x="55" y="-191" font-family="Helvetica,sans-Serif" font-size="10.00">traits_file</text>
</g>
<!-- Node9 -->
<g id="node9" class="node">
<title>Node9</title>
<g id="a_node9"><a xlink:title=" ">
<polygon fill="none" stroke="#bfbfbf" points="113,-200.5 113,-219.5 253,-219.5 253,-200.5 113,-200.5"/>
<text text-anchor="middle" x="183" y="-207.5" font-family="Helvetica,sans-Serif" font-size="10.00">std::vector&lt; std::string &gt;</text>
</a>
</g>
</g>
<!-- Node2&#45;&gt;Node9 -->
<g id="edge9" class="edge">
<title>Node2&#45;&gt;Node9</title>
<path fill="none" stroke="#9a32cd" stroke-dasharray="5,2" d="M73.99,-279.65C101.21,-262.51 146.72,-233.85 169.35,-219.6"/>
<polygon fill="#9a32cd" stroke="#9a32cd" points="72.12,-276.69 65.53,-284.98 75.85,-282.61 72.12,-276.69"/>
<text text-anchor="middle" x="142.5" y="-253" font-family="Helvetica,sans-Serif" font-size="10.00"> elements</text>
</g>
<!-- Node3 -->
<g id="node3" class="node">
<title>Node3</title>
<g id="a_node3"><a xlink:title=" ">
<polygon fill="none" stroke="#bfbfbf" points="0,-347.5 0,-377.5 104,-377.5 104,-347.5 0,-347.5"/>
<text text-anchor="start" x="8" y="-365.5" font-family="Helvetica,sans-Serif" font-size="10.00">std::basic_string&lt;</text>
<text text-anchor="middle" x="52" y="-354.5" font-family="Helvetica,sans-Serif" font-size="10.00"> Char &gt;</text>
</a>
</g>
</g>
<!-- Node3&#45;&gt;Node2 -->
<g id="edge2" class="edge">
<title>Node3&#45;&gt;Node2</title>
<path fill="none" stroke="midnightblue" d="M52,-336.88C52,-325.47 52,-312.64 52,-304.33"/>
<polygon fill="midnightblue" stroke="midnightblue" points="48.5,-337.18 52,-347.18 55.5,-337.18 48.5,-337.18"/>
</g>
<!-- Node4 -->
<g id="node4" class="node">
<title>Node4</title>
<g id="a_node4"><a xlink:title=" ">
<polygon fill="none" stroke="#bfbfbf" points="271,-200.5 271,-219.5 353,-219.5 353,-200.5 271,-200.5"/>
<text text-anchor="middle" x="312" y="-207.5" font-family="Helvetica,sans-Serif" font-size="10.00">std::ofstream</text>
</a>
</g>
</g>
<!-- Node4&#45;&gt;Node1 -->
<g id="edge3" class="edge">
<title>Node4&#45;&gt;Node1</title>
<path fill="none" stroke="#9a32cd" stroke-dasharray="5,2" d="M308.23,-190C301.47,-157.85 285.87,-91.04 263,-38 260.24,-31.6 256.24,-24.85 252.93,-19.7"/>
<polygon fill="#9a32cd" stroke="#9a32cd" points="304.88,-191.09 310.31,-200.19 311.73,-189.69 304.88,-191.09"/>
<text text-anchor="middle" x="347" y="-162" font-family="Helvetica,sans-Serif" font-size="10.00"> cohort_props_out</text>
<text text-anchor="middle" x="347" y="-151" font-family="Helvetica,sans-Serif" font-size="10.00">fclim</text>
<text text-anchor="middle" x="347" y="-140" font-family="Helvetica,sans-Serif" font-size="10.00">fco</text>
<text text-anchor="middle" x="347" y="-129" font-family="Helvetica,sans-Serif" font-size="10.00">flai</text>
<text text-anchor="middle" x="347" y="-118" font-family="Helvetica,sans-Serif" font-size="10.00">foutd</text>
<text text-anchor="middle" x="347" y="-107" font-family="Helvetica,sans-Serif" font-size="10.00">fouty</text>
<text text-anchor="middle" x="347" y="-96" font-family="Helvetica,sans-Serif" font-size="10.00">fouty_spp</text>
<text text-anchor="middle" x="347" y="-85" font-family="Helvetica,sans-Serif" font-size="10.00">ftraits</text>
<text text-anchor="middle" x="347" y="-74" font-family="Helvetica,sans-Serif" font-size="10.00">fzst</text>
<text text-anchor="start" x="303" y="-63" font-family="Helvetica,sans-Serif" font-size="10.00">size_dists</text>
<text text-anchor="middle" x="347" y="-52" font-family="Helvetica,sans-Serif" font-size="10.00">_out</text>
<text text-anchor="middle" x="347" y="-41" font-family="Helvetica,sans-Serif" font-size="10.00">...</text>
</g>
<!-- Node5 -->
<g id="node5" class="node">
<title>Node5</title>
<g id="a_node5"><a xlink:title=" ">
<polygon fill="none" stroke="#bfbfbf" points="255.5,-279.5 255.5,-309.5 368.5,-309.5 368.5,-279.5 255.5,-279.5"/>
<text text-anchor="start" x="263.5" y="-297.5" font-family="Helvetica,sans-Serif" font-size="10.00">std::basic_ofstream</text>
<text text-anchor="middle" x="312" y="-286.5" font-family="Helvetica,sans-Serif" font-size="10.00">&lt; Char &gt;</text>
</a>
</g>
</g>
<!-- Node5&#45;&gt;Node4 -->
<g id="edge4" class="edge">
<title>Node5&#45;&gt;Node4</title>
<path fill="none" stroke="midnightblue" d="M312,-268.95C312,-252.28 312,-231.23 312,-219.64"/>
<polygon fill="midnightblue" stroke="midnightblue" points="308.5,-269.13 312,-279.13 315.5,-269.13 308.5,-269.13"/>
</g>
<!-- Node6 -->
<g id="node6" class="node">
<title>Node6</title>
<g id="a_node6"><a xlink:title=" ">
<polygon fill="none" stroke="#bfbfbf" points="257.5,-347.5 257.5,-377.5 366.5,-377.5 366.5,-347.5 257.5,-347.5"/>
<text text-anchor="start" x="265.5" y="-365.5" font-family="Helvetica,sans-Serif" font-size="10.00">std::basic_ostream</text>
<text text-anchor="middle" x="312" y="-354.5" font-family="Helvetica,sans-Serif" font-size="10.00">&lt; Char &gt;</text>
</a>
</g>
</g>
<!-- Node6&#45;&gt;Node5 -->
<g id="edge5" class="edge">
<title>Node6&#45;&gt;Node5</title>
<path fill="none" stroke="midnightblue" d="M312,-337.03C312,-327.86 312,-317.74 312,-309.79"/>
<polygon fill="midnightblue" stroke="midnightblue" points="308.5,-337.18 312,-347.18 315.5,-337.18 308.5,-337.18"/>
</g>
<!-- Node7 -->
<g id="node7" class="node">
<title>Node7</title>
<g id="a_node7"><a xlink:title=" ">
<polygon fill="none" stroke="#bfbfbf" points="248,-415.5 248,-434.5 376,-434.5 376,-415.5 248,-415.5"/>
<text text-anchor="middle" x="312" y="-422.5" font-family="Helvetica,sans-Serif" font-size="10.00">std::basic_ios&lt; Char &gt;</text>
</a>
</g>
</g>
<!-- Node7&#45;&gt;Node6 -->
<g id="edge6" class="edge">
<title>Node7&#45;&gt;Node6</title>
<path fill="none" stroke="midnightblue" d="M312,-405.22C312,-396.36 312,-385.96 312,-377.76"/>
<polygon fill="midnightblue" stroke="midnightblue" points="308.5,-405.33 312,-415.33 315.5,-405.33 308.5,-405.33"/>
</g>
<!-- Node8 -->
<g id="node8" class="node">
<title>Node8</title>
<g id="a_node8"><a xlink:title=" ">
<polygon fill="none" stroke="#bfbfbf" points="272,-472.5 272,-491.5 352,-491.5 352,-472.5 272,-472.5"/>
<text text-anchor="middle" x="312" y="-479.5" font-family="Helvetica,sans-Serif" font-size="10.00">std::ios_base</text>
</a>
</g>
</g>
<!-- Node8&#45;&gt;Node7 -->
<g id="edge7" class="edge">
<title>Node8&#45;&gt;Node7</title>
<path fill="none" stroke="midnightblue" d="M312,-462.12C312,-452.82 312,-442.06 312,-434.71"/>
<polygon fill="midnightblue" stroke="midnightblue" points="308.5,-462.41 312,-472.41 315.5,-462.41 308.5,-462.41"/>
</g>
<!-- Node9&#45;&gt;Node1 -->
<g id="edge8" class="edge">
<title>Node9&#45;&gt;Node1</title>
<path fill="none" stroke="#9a32cd" stroke-dasharray="5,2" d="M181.71,-190.32C180.31,-157.13 181.43,-86.79 211,-38 215.62,-30.38 223.26,-24.2 230.32,-19.68"/>
<polygon fill="#9a32cd" stroke="#9a32cd" points="178.22,-190.62 182.27,-200.42 185.21,-190.24 178.22,-190.62"/>
<text text-anchor="middle" x="237" y="-101.5" font-family="Helvetica,sans-Serif" font-size="10.00"> varnames</text>
</g>
<!-- Node10 -->
<g id="node10" class="node">
<title>Node10</title>
<g id="a_node10"><a xlink:title=" ">
<polygon fill="none" stroke="#bfbfbf" points="371,-200.5 371,-219.5 495,-219.5 495,-200.5 371,-200.5"/>
<text text-anchor="middle" x="433" y="-207.5" font-family="Helvetica,sans-Serif" font-size="10.00">std::vector&lt; double &gt;</text>
</a>
</g>
</g>
<!-- Node10&#45;&gt;Node1 -->
<g id="edge10" class="edge">
<title>Node10&#45;&gt;Node1</title>
<path fill="none" stroke="#9a32cd" stroke-dasharray="5,2" d="M434.94,-190.02C437.41,-154.64 437.13,-78.55 395,-38 384.46,-27.86 354.82,-21.42 324.8,-17.39"/>
<polygon fill="#9a32cd" stroke="#9a32cd" points="431.42,-190.08 434.05,-200.35 438.4,-190.68 431.42,-190.08"/>
<text text-anchor="middle" x="477.5" y="-134.5" font-family="Helvetica,sans-Serif" font-size="10.00"> basal_area_vec</text>
<text text-anchor="middle" x="477.5" y="-123.5" font-family="Helvetica,sans-Serif" font-size="10.00">biomass_vec</text>
<text text-anchor="middle" x="477.5" y="-112.5" font-family="Helvetica,sans-Serif" font-size="10.00">canopy_area_vec</text>
<text text-anchor="middle" x="477.5" y="-101.5" font-family="Helvetica,sans-Serif" font-size="10.00">height_vec</text>
<text text-anchor="middle" x="477.5" y="-90.5" font-family="Helvetica,sans-Serif" font-size="10.00">lai_vert</text>
<text text-anchor="middle" x="477.5" y="-79.5" font-family="Helvetica,sans-Serif" font-size="10.00">mortality_vec</text>
<text text-anchor="middle" x="477.5" y="-68.5" font-family="Helvetica,sans-Serif" font-size="10.00">n_ind_vec</text>
</g>
</g>
</svg>
