<?xml version="1.0" encoding="UTF-8" standalone="no"?>
<!DOCTYPE svg PUBLIC "-//W3C//DTD SVG 1.1//EN"
 "http://www.w3.org/Graphics/SVG/1.1/DTD/svg11.dtd">
<!-- Generated by graphviz version 2.43.0 (0)
 -->
<!-- Title: plant::PlantParameters::init Pages: 1 -->
<svg width="321pt" height="127pt"
 viewBox="0.00 0.00 321.00 126.50" xmlns="http://www.w3.org/2000/svg" xmlns:xlink="http://www.w3.org/1999/xlink">
<g id="graph0" class="graph" transform="scale(1 1) rotate(0) translate(4 122.5)">
<title>plant::PlantParameters::init</title>
<!-- Node1 -->
<g id="node1" class="node">
<title>Node1</title>
<g id="a_node1"><a xlink:title=" ">
<polygon fill="#bfbfbf" stroke="black" points="185,-39 185,-69 313,-69 313,-39 185,-39"/>
<text text-anchor="start" x="193" y="-57" font-family="Helvetica,sans-Serif" font-size="10.00">plant::PlantParameters</text>
<text text-anchor="middle" x="249" y="-46" font-family="Helvetica,sans-Serif" font-size="10.00">::init</text>
</a>
</g>
</g>
<!-- Node2 -->
<g id="node2" class="node">
<title>Node2</title>
<g id="a_node2"><a xlink:href="classplant_1_1PlantParameters.html#a80569bfa425831d8f3f89a134c958f0d" target="_top" xlink:title=" ">
<polygon fill="none" stroke="black" points="10.5,-88 10.5,-118 138.5,-118 138.5,-88 10.5,-88"/>
<text text-anchor="start" x="18.5" y="-106" font-family="Helvetica,sans-Serif" font-size="10.00">plant::PlantParameters</text>
<text text-anchor="middle" x="74.5" y="-95" font-family="Helvetica,sans-Serif" font-size="10.00">::initFromFile</text>
</a>
</g>
</g>
<!-- Node1&#45;&gt;Node2 -->
<g id="edge1" class="edge">
<title>Node1&#45;&gt;Node2</title>
<path fill="none" stroke="midnightblue" d="M185.01,-71.89C166.45,-77.16 146.35,-82.88 128.49,-87.95"/>
<polygon fill="midnightblue" stroke="midnightblue" points="186.17,-75.2 194.84,-69.1 184.26,-68.47 186.17,-75.2"/>
</g>
<!-- Node3 -->
<g id="node3" class="node">
<title>Node3</title>
<g id="a_node3"><a xlink:href="classpfate_1_1LifeHistoryOptimizer.html#aa4cb2a8040fff4223c34ca2838fadfda" target="_top" xlink:title=" ">
<polygon fill="none" stroke="black" points="0,-39 0,-69 149,-69 149,-39 0,-39"/>
<text text-anchor="start" x="8" y="-57" font-family="Helvetica,sans-Serif" font-size="10.00">pfate::LifeHistoryOptimizer</text>
<text text-anchor="middle" x="74.5" y="-46" font-family="Helvetica,sans-Serif" font-size="10.00">::LifeHistoryOptimizer</text>
</a>
</g>
</g>
<!-- Node1&#45;&gt;Node3 -->
<g id="edge2" class="edge">
<title>Node1&#45;&gt;Node3</title>
<path fill="none" stroke="midnightblue" d="M174.61,-54C166.22,-54 157.66,-54 149.27,-54"/>
<polygon fill="midnightblue" stroke="midnightblue" points="174.75,-57.5 184.75,-54 174.75,-50.5 174.75,-57.5"/>
</g>
<!-- Node4 -->
<g id="node4" class="node">
<title>Node4</title>
<g id="a_node4"><a xlink:href="classpfate_1_1Patch.html#a8b436c6aac2f58c3dd3cba0c979f61d9" target="_top" xlink:title=" ">
<polygon fill="none" stroke="black" points="20.5,-0.5 20.5,-19.5 128.5,-19.5 128.5,-0.5 20.5,-0.5"/>
<text text-anchor="middle" x="74.5" y="-7.5" font-family="Helvetica,sans-Serif" font-size="10.00">pfate::Patch::Patch</text>
</a>
</g>
</g>
<!-- Node1&#45;&gt;Node4 -->
<g id="edge3" class="edge">
<title>Node1&#45;&gt;Node4</title>
<path fill="none" stroke="midnightblue" d="M179.19,-36.45C156.53,-30.67 132.19,-24.46 112.79,-19.51"/>
<polygon fill="midnightblue" stroke="midnightblue" points="178.56,-39.9 189.12,-38.98 180.29,-33.12 178.56,-39.9"/>
</g>
</g>
</svg>
