<?xml version="1.0" encoding="UTF-8" standalone="no"?>
<!DOCTYPE svg PUBLIC "-//W3C//DTD SVG 1.1//EN"
 "http://www.w3.org/Graphics/SVG/1.1/DTD/svg11.dtd">
<!-- Generated by graphviz version 2.43.0 (0)
 -->
<!-- Title: plant::PlantTraits::initFromFile Pages: 1 -->
<svg width="658pt" height="78pt"
 viewBox="0.00 0.00 658.00 77.50" xmlns="http://www.w3.org/2000/svg" xmlns:xlink="http://www.w3.org/1999/xlink">
<g id="graph0" class="graph" transform="scale(1 1) rotate(0) translate(4 73.5)">
<title>plant::PlantTraits::initFromFile</title>
<!-- Node1 -->
<g id="node1" class="node">
<title>Node1</title>
<g id="a_node1"><a xlink:title=" ">
<polygon fill="#bfbfbf" stroke="black" points="0,-17 0,-47 99,-47 99,-17 0,-17"/>
<text text-anchor="start" x="8" y="-35" font-family="Helvetica,sans-Serif" font-size="10.00">plant::PlantTraits</text>
<text text-anchor="middle" x="49.5" y="-24" font-family="Helvetica,sans-Serif" font-size="10.00">::initFromFile</text>
</a>
</g>
</g>
<!-- Node2 -->
<g id="node2" class="node">
<title>Node2</title>
<g id="a_node2"><a xlink:href="classplant_1_1PlantTraits.html#a752ff5e88101f3002440c3cd8879cf31" target="_top" xlink:title=" ">
<polygon fill="none" stroke="black" points="140.5,-39 140.5,-69 239.5,-69 239.5,-39 140.5,-39"/>
<text text-anchor="start" x="148.5" y="-57" font-family="Helvetica,sans-Serif" font-size="10.00">plant::PlantTraits</text>
<text text-anchor="middle" x="190" y="-46" font-family="Helvetica,sans-Serif" font-size="10.00">::init</text>
</a>
</g>
</g>
<!-- Node1&#45;&gt;Node2 -->
<g id="edge1" class="edge">
<title>Node1&#45;&gt;Node2</title>
<path fill="none" stroke="midnightblue" d="M99.33,-39.76C109.26,-41.33 119.8,-43.01 130.04,-44.63"/>
<polygon fill="midnightblue" stroke="midnightblue" points="129.72,-48.13 140.14,-46.24 130.82,-41.21 129.72,-48.13"/>
</g>
<!-- Node6 -->
<g id="node6" class="node">
<title>Node6</title>
<g id="a_node6"><a xlink:href="classio_1_1Initializer.html#a7c3261fb7e141a0d06d9b0c41de9af66" target="_top" xlink:title=" ">
<polygon fill="none" stroke="black" points="135,-0.5 135,-19.5 245,-19.5 245,-0.5 135,-0.5"/>
<text text-anchor="middle" x="190" y="-7.5" font-family="Helvetica,sans-Serif" font-size="10.00">io::Initializer::parse</text>
</a>
</g>
</g>
<!-- Node1&#45;&gt;Node6 -->
<g id="edge5" class="edge">
<title>Node1&#45;&gt;Node6</title>
<path fill="none" stroke="midnightblue" d="M99.33,-24.24C107.61,-22.93 116.33,-21.54 124.93,-20.18"/>
<polygon fill="midnightblue" stroke="midnightblue" points="125.63,-23.61 134.95,-18.59 124.53,-16.7 125.63,-23.61"/>
</g>
<!-- Node3 -->
<g id="node3" class="node">
<title>Node3</title>
<g id="a_node3"><a xlink:href="classio_1_1Initializer.html#a098a8511a950a4449925c8315af36bdb" target="_top" xlink:title=" ">
<polygon fill="none" stroke="black" points="281,-44.5 281,-63.5 380,-63.5 380,-44.5 281,-44.5"/>
<text text-anchor="middle" x="330.5" y="-51.5" font-family="Helvetica,sans-Serif" font-size="10.00">io::Initializer::get</text>
</a>
</g>
</g>
<!-- Node2&#45;&gt;Node3 -->
<g id="edge2" class="edge">
<title>Node2&#45;&gt;Node3</title>
<path fill="none" stroke="midnightblue" d="M239.83,-54C249.76,-54 260.3,-54 270.54,-54"/>
<polygon fill="midnightblue" stroke="midnightblue" points="270.64,-57.5 280.64,-54 270.64,-50.5 270.64,-57.5"/>
</g>
<!-- Node4 -->
<g id="node4" class="node">
<title>Node4</title>
<g id="a_node4"><a xlink:href="classio_1_1Initializer.html#a06fe79d6d19f76180836e03e3ad6b7fb" target="_top" xlink:title=" ">
<polygon fill="none" stroke="black" points="416,-39 416,-69 515,-69 515,-39 416,-39"/>
<text text-anchor="start" x="424" y="-57" font-family="Helvetica,sans-Serif" font-size="10.00">io::Initializer::get</text>
<text text-anchor="middle" x="465.5" y="-46" font-family="Helvetica,sans-Serif" font-size="10.00">_value</text>
</a>
</g>
</g>
<!-- Node3&#45;&gt;Node4 -->
<g id="edge3" class="edge">
<title>Node3&#45;&gt;Node4</title>
<path fill="none" stroke="midnightblue" d="M380.27,-54C388.49,-54 397.1,-54 405.55,-54"/>
<polygon fill="midnightblue" stroke="midnightblue" points="405.74,-57.5 415.74,-54 405.74,-50.5 405.74,-57.5"/>
</g>
<!-- Node5 -->
<g id="node5" class="node">
<title>Node5</title>
<g id="a_node5"><a xlink:href="classio_1_1Initializer.html#a310526fc5b0c2c257bee66d6f48fa4ae" target="_top" xlink:title=" ">
<polygon fill="none" stroke="black" points="551,-39 551,-69 650,-69 650,-39 551,-39"/>
<text text-anchor="start" x="559" y="-57" font-family="Helvetica,sans-Serif" font-size="10.00">io::Initializer::get</text>
<text text-anchor="middle" x="600.5" y="-46" font-family="Helvetica,sans-Serif" font-size="10.00">_section</text>
</a>
</g>
</g>
<!-- Node4&#45;&gt;Node5 -->
<g id="edge4" class="edge">
<title>Node4&#45;&gt;Node5</title>
<path fill="none" stroke="midnightblue" d="M515.27,-54C523.49,-54 532.1,-54 540.55,-54"/>
<polygon fill="midnightblue" stroke="midnightblue" points="540.74,-57.5 550.74,-54 540.74,-50.5 540.74,-57.5"/>
</g>
</g>
</svg>
