<?xml version="1.0" encoding="UTF-8" standalone="no"?>
<!DOCTYPE svg PUBLIC "-//W3C//DTD SVG 1.1//EN"
 "http://www.w3.org/Graphics/SVG/1.1/DTD/svg11.dtd">
<!-- Generated by graphviz version 2.43.0 (0)
 -->
<!-- Title: pfate::LifeHistoryOptimizer::get_header Pages: 1 -->
<svg width="419pt" height="78pt"
 viewBox="0.00 0.00 419.00 77.50" xmlns="http://www.w3.org/2000/svg" xmlns:xlink="http://www.w3.org/1999/xlink">
<g id="graph0" class="graph" transform="scale(1 1) rotate(0) translate(4 73.5)">
<title>pfate::LifeHistoryOptimizer::get_header</title>
<!-- Node1 -->
<g id="node1" class="node">
<title>Node1</title>
<g id="a_node1"><a xlink:title=" ">
<polygon fill="#bfbfbf" stroke="black" points="262,-17 262,-47 411,-47 411,-17 262,-17"/>
<text text-anchor="start" x="270" y="-35" font-family="Helvetica,sans-Serif" font-size="10.00">pfate::LifeHistoryOptimizer</text>
<text text-anchor="middle" x="336.5" y="-24" font-family="Helvetica,sans-Serif" font-size="10.00">::get_header</text>
</a>
</g>
</g>
<!-- Node2 -->
<g id="node2" class="node">
<title>Node2</title>
<g id="a_node2"><a xlink:href="classpfate_1_1LifeHistoryOptimizer.html#ae6c0e907a52729f16a689be231fdf8b4" target="_top" xlink:title=" ">
<polygon fill="none" stroke="black" points="77,-39 77,-69 226,-69 226,-39 77,-39"/>
<text text-anchor="start" x="85" y="-57" font-family="Helvetica,sans-Serif" font-size="10.00">pfate::LifeHistoryOptimizer</text>
<text text-anchor="middle" x="151.5" y="-46" font-family="Helvetica,sans-Serif" font-size="10.00">::printHeader</text>
</a>
</g>
</g>
<!-- Node1&#45;&gt;Node2 -->
<g id="edge1" class="edge">
<title>Node1&#45;&gt;Node2</title>
<path fill="none" stroke="midnightblue" d="M251.89,-42.05C243.35,-43.08 234.72,-44.12 226.29,-45.13"/>
<polygon fill="midnightblue" stroke="midnightblue" points="252.35,-45.52 261.86,-40.85 251.51,-38.57 252.35,-45.52"/>
</g>
<!-- Node4 -->
<g id="node4" class="node">
<title>Node4</title>
<g id="a_node4"><a xlink:href="r__interface_8cpp.html#a7897b94cdc1a829775ac5241571cd456" target="_top" xlink:title=" ">
<polygon fill="none" stroke="black" points="106.5,-0.5 106.5,-19.5 196.5,-19.5 196.5,-0.5 106.5,-0.5"/>
<text text-anchor="middle" x="151.5" y="-7.5" font-family="Helvetica,sans-Serif" font-size="10.00">RCPP_MODULE</text>
</a>
</g>
</g>
<!-- Node1&#45;&gt;Node4 -->
<g id="edge3" class="edge">
<title>Node1&#45;&gt;Node4</title>
<path fill="none" stroke="midnightblue" d="M251.92,-21.95C232.79,-19.65 213.2,-17.3 196.52,-15.29"/>
<polygon fill="midnightblue" stroke="midnightblue" points="251.51,-25.43 261.86,-23.15 252.35,-18.48 251.51,-25.43"/>
</g>
<!-- Node3 -->
<g id="node3" class="node">
<title>Node3</title>
<g id="a_node3"><a xlink:href="lho_8cpp.html#ae66f6b31b5ad750f1fe042a706a4e3d4" target="_top" xlink:title=" ">
<polygon fill="none" stroke="black" points="0,-44.5 0,-63.5 41,-63.5 41,-44.5 0,-44.5"/>
<text text-anchor="middle" x="20.5" y="-51.5" font-family="Helvetica,sans-Serif" font-size="10.00">main</text>
</a>
</g>
</g>
<!-- Node2&#45;&gt;Node3 -->
<g id="edge2" class="edge">
<title>Node2&#45;&gt;Node3</title>
<path fill="none" stroke="midnightblue" d="M66.86,-54C57.34,-54 48.44,-54 41.08,-54"/>
<polygon fill="midnightblue" stroke="midnightblue" points="66.96,-57.5 76.96,-54 66.96,-50.5 66.96,-57.5"/>
</g>
</g>
</svg>
