<?xml version="1.0" encoding="UTF-8" standalone="no"?>
<!DOCTYPE svg PUBLIC "-//W3C//DTD SVG 1.1//EN"
 "http://www.w3.org/Graphics/SVG/1.1/DTD/svg11.dtd">
<!-- Generated by graphviz version 2.43.0 (0)
 -->
<!-- Title: pfate::LifeHistoryOptimizer::calcFitness Pages: 1 -->
<svg width="1432pt" height="632pt"
 viewBox="0.00 0.00 1432.00 632.00" xmlns="http://www.w3.org/2000/svg" xmlns:xlink="http://www.w3.org/1999/xlink">
<g id="graph0" class="graph" transform="scale(1 1) rotate(0) translate(4 628)">
<title>pfate::LifeHistoryOptimizer::calcFitness</title>
<!-- Node1 -->
<g id="node1" class="node">
<title>Node1</title>
<g id="a_node1"><a xlink:title=" ">
<polygon fill="#bfbfbf" stroke="black" points="0,-132.5 0,-162.5 149,-162.5 149,-132.5 0,-132.5"/>
<text text-anchor="start" x="8" y="-150.5" font-family="Helvetica,sans-Serif" font-size="10.00">pfate::LifeHistoryOptimizer</text>
<text text-anchor="middle" x="74.5" y="-139.5" font-family="Helvetica,sans-Serif" font-size="10.00">::calcFitness</text>
</a>
</g>
</g>
<!-- Node2 -->
<g id="node2" class="node">
<title>Node2</title>
<g id="a_node2"><a xlink:href="classpfate_1_1LifeHistoryOptimizer.html#ad68ae2c0d92d28dbe0cc5d5ef03a695b" target="_top" xlink:title=" ">
<polygon fill="none" stroke="black" points="185,-132.5 185,-162.5 334,-162.5 334,-132.5 185,-132.5"/>
<text text-anchor="start" x="193" y="-150.5" font-family="Helvetica,sans-Serif" font-size="10.00">pfate::LifeHistoryOptimizer</text>
<text text-anchor="middle" x="259.5" y="-139.5" font-family="Helvetica,sans-Serif" font-size="10.00">::grow_for_dt</text>
</a>
</g>
</g>
<!-- Node1&#45;&gt;Node2 -->
<g id="edge1" class="edge">
<title>Node1&#45;&gt;Node2</title>
<path fill="none" stroke="midnightblue" d="M149.14,-147.5C157.47,-147.5 166.01,-147.5 174.46,-147.5"/>
<polygon fill="midnightblue" stroke="midnightblue" points="174.71,-151 184.71,-147.5 174.71,-144 174.71,-151"/>
</g>
<!-- Node3 -->
<g id="node3" class="node">
<title>Node3</title>
<g id="a_node3"><a xlink:href="group__libpspm__interface.html#ga6c9356733f84aca1d7bc6980bc97f157" target="_top" xlink:title=" ">
<polygon fill="none" stroke="black" points="386.5,-346.5 386.5,-376.5 502.5,-376.5 502.5,-346.5 386.5,-346.5"/>
<text text-anchor="start" x="394.5" y="-364.5" font-family="Helvetica,sans-Serif" font-size="10.00">plant::Plant::calc</text>
<text text-anchor="middle" x="444.5" y="-353.5" font-family="Helvetica,sans-Serif" font-size="10.00">_demographic_rates</text>
</a>
</g>
</g>
<!-- Node2&#45;&gt;Node3 -->
<g id="edge2" class="edge">
<title>Node2&#45;&gt;Node3</title>
<path fill="none" stroke="midnightblue" d="M273.37,-162.55C304.93,-199.46 386.36,-294.68 423.95,-338.64"/>
<polygon fill="midnightblue" stroke="midnightblue" points="421.49,-341.14 430.65,-346.47 426.81,-336.59 421.49,-341.14"/>
</g>
<!-- Node4 -->
<g id="node4" class="node">
<title>Node4</title>
<g id="a_node4"><a xlink:href="group__libpspm__interface.html#ga35a2b0d4d10c6dd2125bae36fb2f20a9" target="_top" xlink:title=" ">
<polygon fill="none" stroke="black" points="555,-466 555,-485 704,-485 704,-466 555,-466"/>
<text text-anchor="middle" x="629.5" y="-473" font-family="Helvetica,sans-Serif" font-size="10.00">plant::Plant::fecundity_rate</text>
</a>
</g>
</g>
<!-- Node2&#45;&gt;Node4 -->
<g id="edge31" class="edge">
<title>Node2&#45;&gt;Node4</title>
<path fill="none" stroke="midnightblue" d="M263.13,-162.53C271.2,-204.25 299.49,-322.59 370,-386.5 418.33,-430.31 489.28,-452.74 544.63,-464.11"/>
<polygon fill="midnightblue" stroke="midnightblue" points="544.28,-467.61 554.77,-466.1 545.64,-460.74 544.28,-467.61"/>
</g>
<!-- Node29 -->
<g id="node29" class="node">
<title>Node29</title>
<g id="a_node29"><a xlink:href="classplant_1_1PlantArchitecture.html#a4ee1ef386497f18eb1f7d2ef2db3cff3" target="_top" xlink:title=" ">
<polygon fill="none" stroke="black" points="740,-148.5 740,-178.5 871,-178.5 871,-148.5 740,-148.5"/>
<text text-anchor="start" x="748" y="-166.5" font-family="Helvetica,sans-Serif" font-size="10.00">plant::PlantArchitecture</text>
<text text-anchor="middle" x="805.5" y="-155.5" font-family="Helvetica,sans-Serif" font-size="10.00">::get_size</text>
</a>
</g>
</g>
<!-- Node2&#45;&gt;Node29 -->
<g id="edge33" class="edge">
<title>Node2&#45;&gt;Node29</title>
<path fill="none" stroke="midnightblue" d="M334.15,-149.67C437.8,-152.71 625.68,-158.24 729.87,-161.3"/>
<polygon fill="midnightblue" stroke="midnightblue" points="729.89,-164.81 739.99,-161.6 730.1,-157.81 729.89,-164.81"/>
</g>
<!-- Node30 -->
<g id="node30" class="node">
<title>Node30</title>
<g id="a_node30"><a xlink:href="classpfate_1_1LifeHistoryOptimizer.html#a641e49a2bc1086fe64d1e0fe2fa47311" target="_top" xlink:title=" ">
<polygon fill="none" stroke="black" points="370,-88.5 370,-118.5 519,-118.5 519,-88.5 370,-88.5"/>
<text text-anchor="start" x="378" y="-106.5" font-family="Helvetica,sans-Serif" font-size="10.00">pfate::LifeHistoryOptimizer</text>
<text text-anchor="middle" x="444.5" y="-95.5" font-family="Helvetica,sans-Serif" font-size="10.00">::get_rates</text>
</a>
</g>
</g>
<!-- Node2&#45;&gt;Node30 -->
<g id="edge32" class="edge">
<title>Node2&#45;&gt;Node30</title>
<path fill="none" stroke="midnightblue" d="M322.97,-132.48C338.49,-128.75 355.25,-124.72 371.2,-120.88"/>
<polygon fill="midnightblue" stroke="midnightblue" points="372.1,-124.27 381,-118.53 370.46,-117.46 372.1,-124.27"/>
</g>
<!-- Node31 -->
<g id="node31" class="node">
<title>Node31</title>
<g id="a_node31"><a xlink:href="rk4_8h.html#a3d0ee2e6387dc2895fd9a41509912863" target="_top" xlink:title=" ">
<polygon fill="none" stroke="black" points="426.5,-50 426.5,-69 462.5,-69 462.5,-50 426.5,-50"/>
<text text-anchor="middle" x="444.5" y="-57" font-family="Helvetica,sans-Serif" font-size="10.00">RK4</text>
</a>
</g>
</g>
<!-- Node2&#45;&gt;Node31 -->
<g id="edge34" class="edge">
<title>Node2&#45;&gt;Node31</title>
<path fill="none" stroke="midnightblue" d="M280.9,-132.3C302.17,-117.07 336.97,-93.88 370,-79.5 384.78,-73.06 402.16,-68.22 416.3,-64.91"/>
<polygon fill="midnightblue" stroke="midnightblue" points="417.38,-68.26 426.39,-62.68 415.87,-61.43 417.38,-68.26"/>
</g>
<!-- Node32 -->
<g id="node32" class="node">
<title>Node32</title>
<g id="a_node32"><a xlink:href="classpfate_1_1LifeHistoryOptimizer.html#a72fdc4d5a3ac119efcb676a1f4436156" target="_top" xlink:title=" ">
<polygon fill="none" stroke="black" points="370,-176.5 370,-206.5 519,-206.5 519,-176.5 370,-176.5"/>
<text text-anchor="start" x="378" y="-194.5" font-family="Helvetica,sans-Serif" font-size="10.00">pfate::LifeHistoryOptimizer</text>
<text text-anchor="middle" x="444.5" y="-183.5" font-family="Helvetica,sans-Serif" font-size="10.00">::set_state</text>
</a>
</g>
</g>
<!-- Node2&#45;&gt;Node32 -->
<g id="edge35" class="edge">
<title>Node2&#45;&gt;Node32</title>
<path fill="none" stroke="midnightblue" d="M322.97,-162.52C338.49,-166.25 355.25,-170.28 371.2,-174.12"/>
<polygon fill="midnightblue" stroke="midnightblue" points="370.46,-177.54 381,-176.47 372.1,-170.73 370.46,-177.54"/>
</g>
<!-- Node34 -->
<g id="node34" class="node">
<title>Node34</title>
<g id="a_node34"><a xlink:href="classpfate_1_1LifeHistoryOptimizer.html#ad2f441a77b37f12f0cc15cd89977412e" target="_top" xlink:title=" ">
<polygon fill="none" stroke="black" points="370,-0.5 370,-30.5 519,-30.5 519,-0.5 370,-0.5"/>
<text text-anchor="start" x="378" y="-18.5" font-family="Helvetica,sans-Serif" font-size="10.00">pfate::LifeHistoryOptimizer</text>
<text text-anchor="middle" x="444.5" y="-7.5" font-family="Helvetica,sans-Serif" font-size="10.00">::update_climate</text>
</a>
</g>
</g>
<!-- Node2&#45;&gt;Node34 -->
<g id="edge38" class="edge">
<title>Node2&#45;&gt;Node34</title>
<path fill="none" stroke="midnightblue" d="M272.33,-132.19C290.83,-109.22 328.78,-65.82 370,-40.5 373.39,-38.42 376.98,-36.48 380.67,-34.69"/>
<polygon fill="midnightblue" stroke="midnightblue" points="382.31,-37.79 390.02,-30.52 379.46,-31.4 382.31,-37.79"/>
</g>
<!-- Node3&#45;&gt;Node4 -->
<g id="edge3" class="edge">
<title>Node3&#45;&gt;Node4</title>
<path fill="none" stroke="midnightblue" d="M462.32,-376.64C487.79,-399.33 535.26,-440.67 555,-451.5 562.87,-455.82 571.64,-459.51 580.3,-462.62"/>
<polygon fill="midnightblue" stroke="midnightblue" points="579.39,-466.01 589.99,-465.88 581.63,-459.38 579.39,-466.01"/>
</g>
<!-- Node5 -->
<g id="node5" class="node">
<title>Node5</title>
<g id="a_node5"><a xlink:href="classplant_1_1Plant.html#a48612779a5850cca9cc6f6caff1ccb8b" target="_top" xlink:title="LAI model.">
<polygon fill="none" stroke="black" points="566.5,-390 566.5,-409 692.5,-409 692.5,-390 566.5,-390"/>
<text text-anchor="middle" x="629.5" y="-397" font-family="Helvetica,sans-Serif" font-size="10.00">plant::Plant::lai_model</text>
</a>
</g>
</g>
<!-- Node3&#45;&gt;Node5 -->
<g id="edge4" class="edge">
<title>Node3&#45;&gt;Node5</title>
<path fill="none" stroke="midnightblue" d="M502.65,-373.37C524.93,-377.99 550.39,-383.28 572.56,-387.88"/>
<polygon fill="midnightblue" stroke="midnightblue" points="571.98,-391.34 582.48,-389.94 573.4,-384.48 571.98,-391.34"/>
</g>
<!-- Node7 -->
<g id="node7" class="node">
<title>Node7</title>
<g id="a_node7"><a xlink:href="classplant_1_1Assimilator.html#ade28356f5c19a8033b3781308f21202a" target="_top" xlink:title="Calculate whole&#45;plant net assimilation.">
<polygon fill="none" stroke="black" points="754,-422.5 754,-452.5 857,-452.5 857,-422.5 754,-422.5"/>
<text text-anchor="start" x="762" y="-440.5" font-family="Helvetica,sans-Serif" font-size="10.00">plant::Assimilator</text>
<text text-anchor="middle" x="805.5" y="-429.5" font-family="Helvetica,sans-Serif" font-size="10.00">::net_production</text>
</a>
</g>
</g>
<!-- Node3&#45;&gt;Node7 -->
<g id="edge25" class="edge">
<title>Node3&#45;&gt;Node7</title>
<path fill="none" stroke="midnightblue" d="M467.85,-376.6C489.22,-390.17 522.85,-409.33 555,-418.5 617.53,-436.34 692.24,-439.82 743.5,-439.62"/>
<polygon fill="midnightblue" stroke="midnightblue" points="743.78,-443.12 753.75,-439.53 743.72,-436.12 743.78,-443.12"/>
</g>
<!-- Node24 -->
<g id="node24" class="node">
<title>Node24</title>
<g id="a_node24"><a xlink:href="group__libpspm__interface.html#ga8b3531e4d6f3471834a94a828b54f8cd" target="_top" xlink:title=" ">
<polygon fill="none" stroke="black" points="555.5,-352 555.5,-371 703.5,-371 703.5,-352 555.5,-352"/>
<text text-anchor="middle" x="629.5" y="-359" font-family="Helvetica,sans-Serif" font-size="10.00">plant::Plant::mortality_rate</text>
</a>
</g>
</g>
<!-- Node3&#45;&gt;Node24 -->
<g id="edge24" class="edge">
<title>Node3&#45;&gt;Node24</title>
<path fill="none" stroke="midnightblue" d="M502.65,-361.5C516.07,-361.5 530.64,-361.5 544.95,-361.5"/>
<polygon fill="midnightblue" stroke="midnightblue" points="545.3,-365 555.3,-361.5 545.3,-358 545.3,-365"/>
</g>
<!-- Node25 -->
<g id="node25" class="node">
<title>Node25</title>
<g id="a_node25"><a xlink:href="classplant_1_1Plant.html#af19cb4918c06a6660da62386a2d2ea36" target="_top" xlink:title="Partition total biomass dm_dt_tot into various carbon pools.">
<polygon fill="none" stroke="black" points="570,-302.5 570,-332.5 689,-332.5 689,-302.5 570,-302.5"/>
<text text-anchor="start" x="578" y="-320.5" font-family="Helvetica,sans-Serif" font-size="10.00">plant::Plant::partition</text>
<text text-anchor="middle" x="629.5" y="-309.5" font-family="Helvetica,sans-Serif" font-size="10.00">_biomass</text>
</a>
</g>
</g>
<!-- Node3&#45;&gt;Node25 -->
<g id="edge26" class="edge">
<title>Node3&#45;&gt;Node25</title>
<path fill="none" stroke="midnightblue" d="M502.65,-347.76C520.87,-343.38 541.21,-338.49 560.14,-333.94"/>
<polygon fill="midnightblue" stroke="midnightblue" points="560.99,-337.33 569.89,-331.59 559.35,-330.53 560.99,-337.33"/>
</g>
<!-- Node27 -->
<g id="node27" class="node">
<title>Node27</title>
<g id="a_node27"><a xlink:href="group__libpspm__interface.html#gae3454b0d55be59a37e19915d47431da6" target="_top" xlink:title=" ">
<polygon fill="none" stroke="black" points="580.5,-214.5 580.5,-244.5 678.5,-244.5 678.5,-214.5 580.5,-214.5"/>
<text text-anchor="start" x="588.5" y="-232.5" font-family="Helvetica,sans-Serif" font-size="10.00">plant::Plant::size</text>
<text text-anchor="middle" x="629.5" y="-221.5" font-family="Helvetica,sans-Serif" font-size="10.00">_growth_rate</text>
</a>
</g>
</g>
<!-- Node3&#45;&gt;Node27 -->
<g id="edge28" class="edge">
<title>Node3&#45;&gt;Node27</title>
<path fill="none" stroke="midnightblue" d="M466.49,-346.36C499.09,-322.85 561.96,-277.49 599.07,-250.73"/>
<polygon fill="midnightblue" stroke="midnightblue" points="601.41,-253.36 607.47,-244.67 597.31,-247.68 601.41,-253.36"/>
</g>
<!-- Node6 -->
<g id="node6" class="node">
<title>Node6</title>
<g id="a_node6"><a xlink:href="classplant_1_1PlantArchitecture.html#a7e5250a6704a5e8d80e4200259c1acf9" target="_top" xlink:title="Rate of change of leaf mass due to change in LAI.">
<polygon fill="none" stroke="black" points="740,-373.5 740,-403.5 871,-403.5 871,-373.5 740,-373.5"/>
<text text-anchor="start" x="748" y="-391.5" font-family="Helvetica,sans-Serif" font-size="10.00">plant::PlantArchitecture</text>
<text text-anchor="middle" x="805.5" y="-380.5" font-family="Helvetica,sans-Serif" font-size="10.00">::dmass_dt_lai</text>
</a>
</g>
</g>
<!-- Node5&#45;&gt;Node6 -->
<g id="edge5" class="edge">
<title>Node5&#45;&gt;Node6</title>
<path fill="none" stroke="midnightblue" d="M692.83,-395.56C704.79,-394.8 717.43,-394 729.73,-393.23"/>
<polygon fill="midnightblue" stroke="midnightblue" points="730.21,-396.7 739.97,-392.58 729.77,-389.72 730.21,-396.7"/>
</g>
<!-- Node5&#45;&gt;Node7 -->
<g id="edge6" class="edge">
<title>Node5&#45;&gt;Node7</title>
<path fill="none" stroke="midnightblue" d="M674.41,-409.09C695.46,-413.69 721,-419.27 743.87,-424.26"/>
<polygon fill="midnightblue" stroke="midnightblue" points="743.3,-427.72 753.82,-426.43 744.8,-420.88 743.3,-427.72"/>
</g>
<!-- Node23 -->
<g id="node23" class="node">
<title>Node23</title>
<g id="a_node23"><a xlink:href="classplant_1_1PlantArchitecture.html#a6765e3aee8ac12969e1e47aed2aea2da" target="_top" xlink:title="Set the crown LAI and properties that change with LAI.">
<polygon fill="none" stroke="black" points="740,-260.5 740,-290.5 871,-290.5 871,-260.5 740,-260.5"/>
<text text-anchor="start" x="748" y="-278.5" font-family="Helvetica,sans-Serif" font-size="10.00">plant::PlantArchitecture</text>
<text text-anchor="middle" x="805.5" y="-267.5" font-family="Helvetica,sans-Serif" font-size="10.00">::set_lai</text>
</a>
</g>
</g>
<!-- Node5&#45;&gt;Node23 -->
<g id="edge23" class="edge">
<title>Node5&#45;&gt;Node23</title>
<path fill="none" stroke="midnightblue" d="M688.74,-389.85C694.25,-387.39 699.47,-384.32 704,-380.5 733.81,-355.37 711.71,-327.33 740,-300.5 741.66,-298.92 743.44,-297.44 745.3,-296.05"/>
<polygon fill="midnightblue" stroke="midnightblue" points="747.39,-298.86 753.91,-290.52 743.61,-292.98 747.39,-298.86"/>
</g>
<!-- Node8 -->
<g id="node8" class="node">
<title>Node8</title>
<g id="a_node8"><a xlink:href="classplant_1_1Assimilator.html#ac0e69ab9225a2d1be337b10446cfa126" target="_top" xlink:title="Calculate whole&#45;plant gross assimilation, transpiration, gs, etc.">
<polygon fill="none" stroke="black" points="907,-569.5 907,-599.5 1069,-599.5 1069,-569.5 907,-569.5"/>
<text text-anchor="start" x="915" y="-587.5" font-family="Helvetica,sans-Serif" font-size="10.00">plant::Assimilator</text>
<text text-anchor="middle" x="988" y="-576.5" font-family="Helvetica,sans-Serif" font-size="10.00">::calc_plant_assimilation_rate</text>
</a>
</g>
</g>
<!-- Node7&#45;&gt;Node8 -->
<g id="edge7" class="edge">
<title>Node7&#45;&gt;Node8</title>
<path fill="none" stroke="midnightblue" d="M814.88,-452.83C829.89,-478.87 863.88,-531.72 907,-560.5 909.43,-562.12 911.97,-563.64 914.6,-565.05"/>
<polygon fill="midnightblue" stroke="midnightblue" points="913.26,-568.29 923.78,-569.49 916.3,-561.99 913.26,-568.29"/>
</g>
<!-- Node13 -->
<g id="node13" class="node">
<title>Node13</title>
<g id="a_node13"><a xlink:href="classplant_1_1Assimilator.html#ad33549c793850f11330fd48829367c55" target="_top" xlink:title="Calculate leaf and fine&#45;root respiration rates.">
<polygon fill="none" stroke="black" points="926,-520.5 926,-550.5 1050,-550.5 1050,-520.5 926,-520.5"/>
<text text-anchor="start" x="934" y="-538.5" font-family="Helvetica,sans-Serif" font-size="10.00">plant::Assimilator</text>
<text text-anchor="middle" x="988" y="-527.5" font-family="Helvetica,sans-Serif" font-size="10.00">::leaf_respiration_rate</text>
</a>
</g>
</g>
<!-- Node7&#45;&gt;Node13 -->
<g id="edge12" class="edge">
<title>Node7&#45;&gt;Node13</title>
<path fill="none" stroke="midnightblue" d="M823.1,-452.55C842.12,-469.09 874.82,-495.43 907,-511.5 910.79,-513.39 914.77,-515.17 918.83,-516.83"/>
<polygon fill="midnightblue" stroke="midnightblue" points="917.82,-520.19 928.41,-520.48 920.32,-513.65 917.82,-520.19"/>
</g>
<!-- Node14 -->
<g id="node14" class="node">
<title>Node14</title>
<g id="a_node14"><a xlink:href="classplant_1_1Assimilator.html#a0da26c8e10a188774954652ec0402e09" target="_top" xlink:title="Calculate leaf and fine&#45;root turnover rates.">
<polygon fill="none" stroke="black" points="931.5,-471.5 931.5,-501.5 1044.5,-501.5 1044.5,-471.5 931.5,-471.5"/>
<text text-anchor="start" x="939.5" y="-489.5" font-family="Helvetica,sans-Serif" font-size="10.00">plant::Assimilator</text>
<text text-anchor="middle" x="988" y="-478.5" font-family="Helvetica,sans-Serif" font-size="10.00">::leaf_turnover_rate</text>
</a>
</g>
</g>
<!-- Node7&#45;&gt;Node14 -->
<g id="edge13" class="edge">
<title>Node7&#45;&gt;Node14</title>
<path fill="none" stroke="midnightblue" d="M857.26,-451.28C877.24,-456.7 900.44,-463 921.65,-468.76"/>
<polygon fill="midnightblue" stroke="midnightblue" points="920.99,-472.21 931.56,-471.45 922.83,-465.45 920.99,-472.21"/>
</g>
<!-- Node16 -->
<g id="node16" class="node">
<title>Node16</title>
<g id="a_node16"><a xlink:href="classplant_1_1Assimilator.html#a07a83723c0f4cc6e98968dfb241c6ce7" target="_top" xlink:title="Leaf economics &#45; calculate optimal leaf lifespan.">
<polygon fill="none" stroke="black" points="925.5,-422.5 925.5,-452.5 1050.5,-452.5 1050.5,-422.5 925.5,-422.5"/>
<text text-anchor="start" x="933.5" y="-440.5" font-family="Helvetica,sans-Serif" font-size="10.00">plant::Assimilator</text>
<text text-anchor="middle" x="988" y="-429.5" font-family="Helvetica,sans-Serif" font-size="10.00">::les_update_lifespans</text>
</a>
</g>
</g>
<!-- Node7&#45;&gt;Node16 -->
<g id="edge15" class="edge">
<title>Node7&#45;&gt;Node16</title>
<path fill="none" stroke="midnightblue" d="M857.26,-437.5C875.28,-437.5 895.93,-437.5 915.37,-437.5"/>
<polygon fill="midnightblue" stroke="midnightblue" points="915.4,-441 925.4,-437.5 915.4,-434 915.4,-441"/>
</g>
<!-- Node17 -->
<g id="node17" class="node">
<title>Node17</title>
<g id="a_node17"><a xlink:href="classplant_1_1Assimilator.html#aeedad55e35be6fa1d908731a123e2c4f" target="_top" xlink:title="Calculate leaf and fine&#45;root respiration rates.">
<polygon fill="none" stroke="black" points="925.5,-324.5 925.5,-354.5 1050.5,-354.5 1050.5,-324.5 925.5,-324.5"/>
<text text-anchor="start" x="933.5" y="-342.5" font-family="Helvetica,sans-Serif" font-size="10.00">plant::Assimilator</text>
<text text-anchor="middle" x="988" y="-331.5" font-family="Helvetica,sans-Serif" font-size="10.00">::root_respiration_rate</text>
</a>
</g>
</g>
<!-- Node7&#45;&gt;Node17 -->
<g id="edge16" class="edge">
<title>Node7&#45;&gt;Node17</title>
<path fill="none" stroke="midnightblue" d="M856.31,-422.4C861.51,-419.83 866.52,-416.88 871,-413.5 892.57,-397.22 885.01,-380.2 907,-364.5 909.87,-362.45 912.91,-360.57 916.07,-358.83"/>
<polygon fill="midnightblue" stroke="midnightblue" points="917.8,-361.88 925.23,-354.34 914.71,-355.6 917.8,-361.88"/>
</g>
<!-- Node19 -->
<g id="node19" class="node">
<title>Node19</title>
<g id="a_node19"><a xlink:href="classplant_1_1Assimilator.html#a31ccc72fe7255233a1640d1f708eebc7" target="_top" xlink:title="Calculate leaf and fine&#45;root turnover rates.">
<polygon fill="none" stroke="black" points="931.5,-373.5 931.5,-403.5 1044.5,-403.5 1044.5,-373.5 931.5,-373.5"/>
<text text-anchor="start" x="939.5" y="-391.5" font-family="Helvetica,sans-Serif" font-size="10.00">plant::Assimilator</text>
<text text-anchor="middle" x="988" y="-380.5" font-family="Helvetica,sans-Serif" font-size="10.00">::root_turnover_rate</text>
</a>
</g>
</g>
<!-- Node7&#45;&gt;Node19 -->
<g id="edge18" class="edge">
<title>Node7&#45;&gt;Node19</title>
<path fill="none" stroke="midnightblue" d="M857.26,-423.72C877.24,-418.3 900.44,-412 921.65,-406.24"/>
<polygon fill="midnightblue" stroke="midnightblue" points="922.83,-409.55 931.56,-403.55 920.99,-402.79 922.83,-409.55"/>
</g>
<!-- Node20 -->
<g id="node20" class="node">
<title>Node20</title>
<g id="a_node20"><a xlink:href="classplant_1_1Assimilator.html#ad1f356c7c009ad495c9e9a3994c92fd3" target="_top" xlink:title="Calculate leaf and fine&#45;root respiration rates.">
<polygon fill="none" stroke="black" points="913.5,-275.5 913.5,-305.5 1062.5,-305.5 1062.5,-275.5 913.5,-275.5"/>
<text text-anchor="start" x="921.5" y="-293.5" font-family="Helvetica,sans-Serif" font-size="10.00">plant::Assimilator</text>
<text text-anchor="middle" x="988" y="-282.5" font-family="Helvetica,sans-Serif" font-size="10.00">::sapwood_respiration_rate</text>
</a>
</g>
</g>
<!-- Node7&#45;&gt;Node20 -->
<g id="edge20" class="edge">
<title>Node7&#45;&gt;Node20</title>
<path fill="none" stroke="midnightblue" d="M857.03,-423.76C862.16,-420.95 866.95,-417.56 871,-413.5 903.74,-380.62 873.39,-347.49 907,-315.5 908.67,-313.91 910.44,-312.42 912.29,-311.03"/>
<polygon fill="midnightblue" stroke="midnightblue" points="914.35,-313.86 920.86,-305.5 910.56,-307.98 914.35,-313.86"/>
</g>
<!-- Node9 -->
<g id="node9" class="node">
<title>Node9</title>
<g id="a_node9"><a xlink:href="group__ppa__module.html#ga4c6834623dae9423d2981a0b28b0f155" target="_top" xlink:title="Realized crown projection area at height z.">
<polygon fill="none" stroke="black" points="1105,-544.5 1105,-574.5 1236,-574.5 1236,-544.5 1105,-544.5"/>
<text text-anchor="start" x="1113" y="-562.5" font-family="Helvetica,sans-Serif" font-size="10.00">plant::PlantArchitecture</text>
<text text-anchor="middle" x="1170.5" y="-551.5" font-family="Helvetica,sans-Serif" font-size="10.00">::crown_area_above</text>
</a>
</g>
</g>
<!-- Node8&#45;&gt;Node9 -->
<g id="edge8" class="edge">
<title>Node8&#45;&gt;Node9</title>
<path fill="none" stroke="midnightblue" d="M1069.22,-573.39C1077.72,-572.21 1086.34,-571.02 1094.78,-569.85"/>
<polygon fill="midnightblue" stroke="midnightblue" points="1095.53,-573.28 1104.95,-568.44 1094.57,-566.35 1095.53,-573.28"/>
</g>
<!-- Node12 -->
<g id="node12" class="node">
<title>Node12</title>
<g id="a_node12"><a xlink:href="classplant_1_1Assimilator.html#a01115927f79cc407240f59af57c12d17" target="_top" xlink:title="Calculate leaf&#45;level assimilation rate using the Phydro model ///.">
<polygon fill="none" stroke="black" points="1105,-593.5 1105,-623.5 1236,-623.5 1236,-593.5 1105,-593.5"/>
<text text-anchor="start" x="1113" y="-611.5" font-family="Helvetica,sans-Serif" font-size="10.00">plant::Assimilator</text>
<text text-anchor="middle" x="1170.5" y="-600.5" font-family="Helvetica,sans-Serif" font-size="10.00">::leaf_assimilation_rate</text>
</a>
</g>
</g>
<!-- Node8&#45;&gt;Node12 -->
<g id="edge11" class="edge">
<title>Node8&#45;&gt;Node12</title>
<path fill="none" stroke="midnightblue" d="M1069.22,-595.17C1077.72,-596.3 1086.34,-597.44 1094.78,-598.56"/>
<polygon fill="midnightblue" stroke="midnightblue" points="1094.58,-602.07 1104.95,-599.92 1095.5,-595.13 1094.58,-602.07"/>
</g>
<!-- Node10 -->
<g id="node10" class="node">
<title>Node10</title>
<g id="a_node10"><a xlink:href="classplant_1_1PlantArchitecture.html#a81452fb0a56656f176f653d3bf9650d9" target="_top" xlink:title="Vertical profiles of crown and stem">
<polygon fill="none" stroke="black" points="1276.5,-531 1276.5,-550 1419.5,-550 1419.5,-531 1276.5,-531"/>
<text text-anchor="middle" x="1348" y="-538" font-family="Helvetica,sans-Serif" font-size="10.00">plant::PlantArchitecture::q</text>
</a>
</g>
</g>
<!-- Node9&#45;&gt;Node10 -->
<g id="edge9" class="edge">
<title>Node9&#45;&gt;Node10</title>
<path fill="none" stroke="midnightblue" d="M1236.35,-552.48C1246.09,-551.42 1256.24,-550.33 1266.26,-549.24"/>
<polygon fill="midnightblue" stroke="midnightblue" points="1266.65,-552.72 1276.22,-548.16 1265.9,-545.76 1266.65,-552.72"/>
</g>
<!-- Node11 -->
<g id="node11" class="node">
<title>Node11</title>
<g id="a_node11"><a xlink:href="classplant_1_1PlantArchitecture.html#a4d571b1b0165d995f3d2ca0fe21a4b28" target="_top" xlink:title="The height at which crown radius is maximum.">
<polygon fill="none" stroke="black" points="1272,-569 1272,-588 1424,-588 1424,-569 1272,-569"/>
<text text-anchor="middle" x="1348" y="-576" font-family="Helvetica,sans-Serif" font-size="10.00">plant::PlantArchitecture::zm</text>
</a>
</g>
</g>
<!-- Node9&#45;&gt;Node11 -->
<g id="edge10" class="edge">
<title>Node9&#45;&gt;Node11</title>
<path fill="none" stroke="midnightblue" d="M1236.35,-566.52C1244.63,-567.42 1253.21,-568.35 1261.75,-569.27"/>
<polygon fill="midnightblue" stroke="midnightblue" points="1261.42,-572.76 1271.74,-570.35 1262.18,-565.8 1261.42,-572.76"/>
</g>
<!-- Node15 -->
<g id="node15" class="node">
<title>Node15</title>
<g id="a_node15"><a xlink:href="classplant_1_1PlantArchitecture.html#a36ebf17a1799f27ce12bd27f637f88a9" target="_top" xlink:title="Get biomass in various carbon pools.">
<polygon fill="none" stroke="black" points="1105,-471.5 1105,-501.5 1236,-501.5 1236,-471.5 1105,-471.5"/>
<text text-anchor="start" x="1113" y="-489.5" font-family="Helvetica,sans-Serif" font-size="10.00">plant::PlantArchitecture</text>
<text text-anchor="middle" x="1170.5" y="-478.5" font-family="Helvetica,sans-Serif" font-size="10.00">::leaf_mass</text>
</a>
</g>
</g>
<!-- Node14&#45;&gt;Node15 -->
<g id="edge14" class="edge">
<title>Node14&#45;&gt;Node15</title>
<path fill="none" stroke="midnightblue" d="M1044.63,-486.5C1060.41,-486.5 1077.86,-486.5 1094.59,-486.5"/>
<polygon fill="midnightblue" stroke="midnightblue" points="1094.89,-490 1104.88,-486.5 1094.88,-483 1094.89,-490"/>
</g>
<!-- Node18 -->
<g id="node18" class="node">
<title>Node18</title>
<g id="a_node18"><a xlink:href="classplant_1_1PlantArchitecture.html#af767ab32b2c9aff347144ce7dff349be" target="_top" xlink:title="Get biomass in various carbon pools.">
<polygon fill="none" stroke="black" points="1105,-348.5 1105,-378.5 1236,-378.5 1236,-348.5 1105,-348.5"/>
<text text-anchor="start" x="1113" y="-366.5" font-family="Helvetica,sans-Serif" font-size="10.00">plant::PlantArchitecture</text>
<text text-anchor="middle" x="1170.5" y="-355.5" font-family="Helvetica,sans-Serif" font-size="10.00">::root_mass</text>
</a>
</g>
</g>
<!-- Node17&#45;&gt;Node18 -->
<g id="edge17" class="edge">
<title>Node17&#45;&gt;Node18</title>
<path fill="none" stroke="midnightblue" d="M1050.61,-347.69C1064.8,-349.58 1080.05,-351.61 1094.73,-353.56"/>
<polygon fill="midnightblue" stroke="midnightblue" points="1094.4,-357.05 1104.78,-354.89 1095.33,-350.11 1094.4,-357.05"/>
</g>
<!-- Node19&#45;&gt;Node18 -->
<g id="edge19" class="edge">
<title>Node19&#45;&gt;Node18</title>
<path fill="none" stroke="midnightblue" d="M1044.63,-380.8C1060.41,-378.61 1077.86,-376.19 1094.59,-373.88"/>
<polygon fill="midnightblue" stroke="midnightblue" points="1095.46,-377.29 1104.88,-372.45 1094.5,-370.35 1095.46,-377.29"/>
</g>
<!-- Node21 -->
<g id="node21" class="node">
<title>Node21</title>
<g id="a_node21"><a xlink:href="classplant_1_1PlantArchitecture.html#a0f95752c3574b4dfadb93e92582e5fa5" target="_top" xlink:title="Get biomass in various carbon pools.">
<polygon fill="none" stroke="black" points="1105,-275.5 1105,-305.5 1236,-305.5 1236,-275.5 1105,-275.5"/>
<text text-anchor="start" x="1113" y="-293.5" font-family="Helvetica,sans-Serif" font-size="10.00">plant::PlantArchitecture</text>
<text text-anchor="middle" x="1170.5" y="-282.5" font-family="Helvetica,sans-Serif" font-size="10.00">::sapwood_mass</text>
</a>
</g>
</g>
<!-- Node20&#45;&gt;Node21 -->
<g id="edge21" class="edge">
<title>Node20&#45;&gt;Node21</title>
<path fill="none" stroke="midnightblue" d="M1062.68,-290.5C1073.24,-290.5 1084.12,-290.5 1094.7,-290.5"/>
<polygon fill="midnightblue" stroke="midnightblue" points="1094.74,-294 1104.74,-290.5 1094.74,-287 1094.74,-294"/>
</g>
<!-- Node22 -->
<g id="node22" class="node">
<title>Node22</title>
<g id="a_node22"><a xlink:href="classplant_1_1PlantArchitecture.html#a1fea368ef9182afc3aedfb76bcc4b3ee" target="_top" xlink:title="Get biomass in various carbon pools.">
<polygon fill="none" stroke="black" points="1282.5,-275.5 1282.5,-305.5 1413.5,-305.5 1413.5,-275.5 1282.5,-275.5"/>
<text text-anchor="start" x="1290.5" y="-293.5" font-family="Helvetica,sans-Serif" font-size="10.00">plant::PlantArchitecture</text>
<text text-anchor="middle" x="1348" y="-282.5" font-family="Helvetica,sans-Serif" font-size="10.00">::stem_mass</text>
</a>
</g>
</g>
<!-- Node21&#45;&gt;Node22 -->
<g id="edge22" class="edge">
<title>Node21&#45;&gt;Node22</title>
<path fill="none" stroke="midnightblue" d="M1236.35,-290.5C1247.98,-290.5 1260.19,-290.5 1272.08,-290.5"/>
<polygon fill="midnightblue" stroke="midnightblue" points="1272.42,-294 1282.42,-290.5 1272.42,-287 1272.42,-294"/>
</g>
<!-- Node26 -->
<g id="node26" class="node">
<title>Node26</title>
<g id="a_node26"><a xlink:href="classplant_1_1PlantArchitecture.html#a459c5123d878d20d25f86e64996d2c64" target="_top" xlink:title="Derivatives required for biomass partitioning">
<polygon fill="none" stroke="black" points="740,-309.5 740,-339.5 871,-339.5 871,-309.5 740,-309.5"/>
<text text-anchor="start" x="748" y="-327.5" font-family="Helvetica,sans-Serif" font-size="10.00">plant::PlantArchitecture</text>
<text text-anchor="middle" x="805.5" y="-316.5" font-family="Helvetica,sans-Serif" font-size="10.00">::dreproduction_dmass</text>
</a>
</g>
</g>
<!-- Node25&#45;&gt;Node26 -->
<g id="edge27" class="edge">
<title>Node25&#45;&gt;Node26</title>
<path fill="none" stroke="midnightblue" d="M689.41,-319.87C702.37,-320.39 716.27,-320.95 729.76,-321.49"/>
<polygon fill="midnightblue" stroke="midnightblue" points="729.85,-325 739.98,-321.9 730.13,-318.01 729.85,-325"/>
</g>
<!-- Node28 -->
<g id="node28" class="node">
<title>Node28</title>
<g id="a_node28"><a xlink:href="classplant_1_1PlantArchitecture.html#acdc3841d5f648fabc0202e04e2bfb8a3" target="_top" xlink:title="Derivatives required for biomass partitioning">
<polygon fill="none" stroke="black" points="740,-211.5 740,-241.5 871,-241.5 871,-211.5 740,-211.5"/>
<text text-anchor="start" x="748" y="-229.5" font-family="Helvetica,sans-Serif" font-size="10.00">plant::PlantArchitecture</text>
<text text-anchor="middle" x="805.5" y="-218.5" font-family="Helvetica,sans-Serif" font-size="10.00">::dsize_dmass</text>
</a>
</g>
</g>
<!-- Node27&#45;&gt;Node28 -->
<g id="edge29" class="edge">
<title>Node27&#45;&gt;Node28</title>
<path fill="none" stroke="midnightblue" d="M678.51,-228.67C694.32,-228.4 712.29,-228.09 729.61,-227.79"/>
<polygon fill="midnightblue" stroke="midnightblue" points="729.77,-231.29 739.71,-227.62 729.65,-224.29 729.77,-231.29"/>
</g>
<!-- Node27&#45;&gt;Node29 -->
<g id="edge30" class="edge">
<title>Node27&#45;&gt;Node29</title>
<path fill="none" stroke="midnightblue" d="M676.13,-214.45C685.39,-211.26 695.04,-207.85 704,-204.5 722.32,-197.65 742.3,-189.62 759.59,-182.49"/>
<polygon fill="midnightblue" stroke="midnightblue" points="760.99,-185.7 768.89,-178.63 758.31,-179.23 760.99,-185.7"/>
</g>
<!-- Node32&#45;&gt;Node23 -->
<g id="edge36" class="edge">
<title>Node32&#45;&gt;Node23</title>
<path fill="none" stroke="midnightblue" d="M465.62,-206.73C486.68,-221.76 521.3,-243.96 555,-254.5 611.86,-272.28 679.35,-277.04 729.79,-277.63"/>
<polygon fill="midnightblue" stroke="midnightblue" points="729.95,-281.13 739.97,-277.69 729.99,-274.13 729.95,-281.13"/>
</g>
<!-- Node33 -->
<g id="node33" class="node">
<title>Node33</title>
<g id="a_node33"><a xlink:href="classplant_1_1Plant.html#a1157bce8a29e6a26f2e5d4cc30909aea" target="_top" xlink:title="Set size (diameter and all associated variables) from x.">
<polygon fill="none" stroke="black" points="570.5,-176 570.5,-195 688.5,-195 688.5,-176 570.5,-176"/>
<text text-anchor="middle" x="629.5" y="-183" font-family="Helvetica,sans-Serif" font-size="10.00">plant::Plant::set_size</text>
</a>
</g>
</g>
<!-- Node32&#45;&gt;Node33 -->
<g id="edge37" class="edge">
<title>Node32&#45;&gt;Node33</title>
<path fill="none" stroke="midnightblue" d="M519.14,-189.09C532.75,-188.64 546.92,-188.17 560.36,-187.73"/>
<polygon fill="midnightblue" stroke="midnightblue" points="560.59,-191.23 570.47,-187.4 560.36,-184.23 560.59,-191.23"/>
</g>
<!-- Node35 -->
<g id="node35" class="node">
<title>Node35</title>
<g id="a_node35"><a xlink:href="classpfate_1_1env_1_1ClimateStream.html#a259d5b50ebd9d8e801ee6cd079f6fb75" target="_top" xlink:title=" ">
<polygon fill="none" stroke="black" points="556.5,-0.5 556.5,-30.5 702.5,-30.5 702.5,-0.5 556.5,-0.5"/>
<text text-anchor="start" x="564.5" y="-18.5" font-family="Helvetica,sans-Serif" font-size="10.00">pfate::env::ClimateStream</text>
<text text-anchor="middle" x="629.5" y="-7.5" font-family="Helvetica,sans-Serif" font-size="10.00">::updateClimate</text>
</a>
</g>
</g>
<!-- Node34&#45;&gt;Node35 -->
<g id="edge39" class="edge">
<title>Node34&#45;&gt;Node35</title>
<path fill="none" stroke="midnightblue" d="M519.14,-15.5C528.09,-15.5 537.28,-15.5 546.34,-15.5"/>
<polygon fill="midnightblue" stroke="midnightblue" points="546.5,-19 556.5,-15.5 546.5,-12 546.5,-19"/>
</g>
<!-- Node36 -->
<g id="node36" class="node">
<title>Node36</title>
<g id="a_node36"><a xlink:href="classpfate_1_1env_1_1Climate.html#a9584e9aa19e54c0df7492e9d1efe9b33" target="_top" xlink:title="Update acclim forcing as exp&#45;weighted average of current and new value.">
<polygon fill="none" stroke="black" points="748.5,-0.5 748.5,-30.5 862.5,-30.5 862.5,-0.5 748.5,-0.5"/>
<text text-anchor="start" x="756.5" y="-18.5" font-family="Helvetica,sans-Serif" font-size="10.00">pfate::env::Climate</text>
<text text-anchor="middle" x="805.5" y="-7.5" font-family="Helvetica,sans-Serif" font-size="10.00">::set_forcing_acclim</text>
</a>
</g>
</g>
<!-- Node35&#45;&gt;Node36 -->
<g id="edge40" class="edge">
<title>Node35&#45;&gt;Node36</title>
<path fill="none" stroke="midnightblue" d="M702.53,-15.5C714.39,-15.5 726.63,-15.5 738.34,-15.5"/>
<polygon fill="midnightblue" stroke="midnightblue" points="738.46,-19 748.46,-15.5 738.46,-12 738.46,-19"/>
</g>
</g>
</svg>
