<?xml version="1.0" encoding="UTF-8" standalone="no"?>
<!DOCTYPE svg PUBLIC "-//W3C//DTD SVG 1.1//EN"
 "http://www.w3.org/Graphics/SVG/1.1/DTD/svg11.dtd">
<!-- Generated by graphviz version 2.43.0 (0)
 -->
<!-- Title: pfate::LifeHistoryOptimizer::set_state Pages: 1 -->
<svg width="653pt" height="116pt"
 viewBox="0.00 0.00 653.00 115.50" xmlns="http://www.w3.org/2000/svg" xmlns:xlink="http://www.w3.org/1999/xlink">
<g id="graph0" class="graph" transform="scale(1 1) rotate(0) translate(4 111.5)">
<title>pfate::LifeHistoryOptimizer::set_state</title>
<!-- Node1 -->
<g id="node1" class="node">
<title>Node1</title>
<g id="a_node1"><a xlink:title=" ">
<polygon fill="#bfbfbf" stroke="black" points="496,-33 496,-63 645,-63 645,-33 496,-33"/>
<text text-anchor="start" x="504" y="-51" font-family="Helvetica,sans-Serif" font-size="10.00">pfate::LifeHistoryOptimizer</text>
<text text-anchor="middle" x="570.5" y="-40" font-family="Helvetica,sans-Serif" font-size="10.00">::set_state</text>
</a>
</g>
</g>
<!-- Node2 -->
<g id="node2" class="node">
<title>Node2</title>
<g id="a_node2"><a xlink:href="classpfate_1_1LifeHistoryOptimizer.html#ad68ae2c0d92d28dbe0cc5d5ef03a695b" target="_top" xlink:title=" ">
<polygon fill="none" stroke="black" points="311,-33 311,-63 460,-63 460,-33 311,-33"/>
<text text-anchor="start" x="319" y="-51" font-family="Helvetica,sans-Serif" font-size="10.00">pfate::LifeHistoryOptimizer</text>
<text text-anchor="middle" x="385.5" y="-40" font-family="Helvetica,sans-Serif" font-size="10.00">::grow_for_dt</text>
</a>
</g>
</g>
<!-- Node1&#45;&gt;Node2 -->
<g id="edge1" class="edge">
<title>Node1&#45;&gt;Node2</title>
<path fill="none" stroke="midnightblue" d="M485.61,-48C477.16,-48 468.62,-48 460.29,-48"/>
<polygon fill="midnightblue" stroke="midnightblue" points="485.86,-51.5 495.86,-48 485.86,-44.5 485.86,-51.5"/>
</g>
<!-- Node3 -->
<g id="node3" class="node">
<title>Node3</title>
<g id="a_node3"><a xlink:href="classpfate_1_1LifeHistoryOptimizer.html#a34aebe9641428e3d0bcb1d59ec936e8f" target="_top" xlink:title=" ">
<polygon fill="none" stroke="black" points="126,-77 126,-107 275,-107 275,-77 126,-77"/>
<text text-anchor="start" x="134" y="-95" font-family="Helvetica,sans-Serif" font-size="10.00">pfate::LifeHistoryOptimizer</text>
<text text-anchor="middle" x="200.5" y="-84" font-family="Helvetica,sans-Serif" font-size="10.00">::calcFitness</text>
</a>
</g>
</g>
<!-- Node2&#45;&gt;Node3 -->
<g id="edge2" class="edge">
<title>Node2&#45;&gt;Node3</title>
<path fill="none" stroke="midnightblue" d="M312.23,-65.38C296.28,-69.21 279.52,-73.24 264,-76.97"/>
<polygon fill="midnightblue" stroke="midnightblue" points="313.13,-68.76 322.03,-63.02 311.49,-61.95 313.13,-68.76"/>
</g>
<!-- Node4 -->
<g id="node4" class="node">
<title>Node4</title>
<g id="a_node4"><a xlink:href="r__interface_8cpp.html#a7897b94cdc1a829775ac5241571cd456" target="_top" xlink:title=" ">
<polygon fill="none" stroke="black" points="0,-60.5 0,-79.5 90,-79.5 90,-60.5 0,-60.5"/>
<text text-anchor="middle" x="45" y="-67.5" font-family="Helvetica,sans-Serif" font-size="10.00">RCPP_MODULE</text>
</a>
</g>
</g>
<!-- Node2&#45;&gt;Node4 -->
<g id="edge5" class="edge">
<title>Node2&#45;&gt;Node4</title>
<path fill="none" stroke="midnightblue" d="M300.57,-53.45C233.93,-57.79 143.4,-63.67 90.19,-67.13"/>
<polygon fill="midnightblue" stroke="midnightblue" points="300.88,-56.94 310.63,-52.8 300.43,-49.96 300.88,-56.94"/>
</g>
<!-- Node5 -->
<g id="node5" class="node">
<title>Node5</title>
<g id="a_node5"><a xlink:href="lho_8cpp.html#ae66f6b31b5ad750f1fe042a706a4e3d4" target="_top" xlink:title=" ">
<polygon fill="none" stroke="black" points="180,-0.5 180,-19.5 221,-19.5 221,-0.5 180,-0.5"/>
<text text-anchor="middle" x="200.5" y="-7.5" font-family="Helvetica,sans-Serif" font-size="10.00">main</text>
</a>
</g>
</g>
<!-- Node2&#45;&gt;Node5 -->
<g id="edge4" class="edge">
<title>Node2&#45;&gt;Node5</title>
<path fill="none" stroke="midnightblue" d="M302.04,-30.88C271.95,-24.63 240.55,-18.11 221.01,-14.05"/>
<polygon fill="midnightblue" stroke="midnightblue" points="301.67,-34.38 312.17,-32.98 303.09,-27.52 301.67,-34.38"/>
</g>
<!-- Node3&#45;&gt;Node4 -->
<g id="edge3" class="edge">
<title>Node3&#45;&gt;Node4</title>
<path fill="none" stroke="midnightblue" d="M115.93,-80.02C107.12,-78.76 98.43,-77.51 90.33,-76.35"/>
<polygon fill="midnightblue" stroke="midnightblue" points="115.5,-83.5 125.9,-81.45 116.49,-76.57 115.5,-83.5"/>
</g>
</g>
</svg>
