<?xml version="1.0" encoding="UTF-8" standalone="no"?>
<!DOCTYPE svg PUBLIC "-//W3C//DTD SVG 1.1//EN"
 "http://www.w3.org/Graphics/SVG/1.1/DTD/svg11.dtd">
<!-- Generated by graphviz version 2.43.0 (0)
 -->
<!-- Title: pfate::Patch Pages: 1 -->
<svg width="1328pt" height="749pt"
 viewBox="0.00 0.00 1328.00 749.24" xmlns="http://www.w3.org/2000/svg" xmlns:xlink="http://www.w3.org/1999/xlink">
<g id="graph0" class="graph" transform="scale(1 1) rotate(0) translate(4 745.24)">
<title>pfate::Patch</title>
<!-- Node1 -->
<g id="node1" class="node">
<title>Node1</title>
<g id="a_node1"><a xlink:title=" ">
<polygon fill="#bfbfbf" stroke="black" points="1245,-172.74 1245,-191.74 1320,-191.74 1320,-172.74 1245,-172.74"/>
<text text-anchor="middle" x="1282.5" y="-179.74" font-family="Helvetica,sans-Serif" font-size="10.00">pfate::Patch</text>
</a>
</g>
</g>
<!-- Node2 -->
<g id="node2" class="node">
<title>Node2</title>
<g id="a_node2"><a xlink:href="classpfate_1_1env_1_1ClimateStream.html" target="_top" xlink:title=" ">
<polygon fill="none" stroke="black" points="855,-98.74 855,-117.74 1001,-117.74 1001,-98.74 855,-98.74"/>
<text text-anchor="middle" x="928" y="-105.74" font-family="Helvetica,sans-Serif" font-size="10.00">pfate::env::ClimateStream</text>
</a>
</g>
</g>
<!-- Node2&#45;&gt;Node1 -->
<g id="edge1" class="edge">
<title>Node2&#45;&gt;Node1</title>
<path fill="none" stroke="#9a32cd" stroke-dasharray="5,2" d="M984.26,-119.84C1057.01,-135.12 1182.9,-161.54 1244.87,-174.55"/>
<polygon fill="#9a32cd" stroke="#9a32cd" points="984.87,-116.4 974.36,-117.77 983.43,-123.25 984.87,-116.4"/>
<text text-anchor="middle" x="1096.5" y="-161.24" font-family="Helvetica,sans-Serif" font-size="10.00"> climate_stream</text>
</g>
<!-- Node3 -->
<g id="node3" class="node">
<title>Node3</title>
<g id="a_node3"><a xlink:title=" ">
<polygon fill="none" stroke="#bfbfbf" points="457.5,-110.74 457.5,-129.74 522.5,-129.74 522.5,-110.74 457.5,-110.74"/>
<text text-anchor="middle" x="490" y="-117.74" font-family="Helvetica,sans-Serif" font-size="10.00">std::string</text>
</a>
</g>
</g>
<!-- Node3&#45;&gt;Node2 -->
<g id="edge2" class="edge">
<title>Node3&#45;&gt;Node2</title>
<path fill="none" stroke="#9a32cd" stroke-dasharray="5,2" d="M526.71,-107.52C540.1,-103.37 555.58,-99.3 570,-97.24 667.91,-83.28 782.4,-90.99 854.8,-98.78"/>
<polygon fill="#9a32cd" stroke="#9a32cd" points="525.37,-104.28 516.92,-110.68 527.52,-110.94 525.37,-104.28"/>
<text text-anchor="middle" x="615.5" y="-122.24" font-family="Helvetica,sans-Serif" font-size="10.00"> a_metFile</text>
<text text-anchor="middle" x="615.5" y="-111.24" font-family="Helvetica,sans-Serif" font-size="10.00">co2File</text>
<text text-anchor="middle" x="615.5" y="-100.24" font-family="Helvetica,sans-Serif" font-size="10.00">i_metFile</text>
</g>
<!-- Node11 -->
<g id="node11" class="node">
<title>Node11</title>
<g id="a_node11"><a xlink:href="classpfate_1_1CommunityProperties.html" target="_top" xlink:title="This class calculates and stores community&#45;level properties of interest.">
<polygon fill="none" stroke="black" points="1019,-328.74 1019,-347.74 1174,-347.74 1174,-328.74 1019,-328.74"/>
<text text-anchor="middle" x="1096.5" y="-335.74" font-family="Helvetica,sans-Serif" font-size="10.00">pfate::CommunityProperties</text>
</a>
</g>
</g>
<!-- Node3&#45;&gt;Node11 -->
<g id="edge11" class="edge">
<title>Node3&#45;&gt;Node11</title>
<path fill="none" stroke="#9a32cd" stroke-dasharray="5,2" d="M496.27,-139.6C505.83,-171.21 528.93,-234.01 570,-270.24 635.06,-327.64 889.54,-337.37 1018.98,-338.52"/>
<polygon fill="#9a32cd" stroke="#9a32cd" points="499.58,-138.45 493.45,-129.81 492.86,-140.39 499.58,-138.45"/>
<text text-anchor="middle" x="758" y="-367.24" font-family="Helvetica,sans-Serif" font-size="10.00"> cwmAvg_file</text>
<text text-anchor="middle" x="758" y="-356.24" font-family="Helvetica,sans-Serif" font-size="10.00">cwmperSpecies_file</text>
<text text-anchor="middle" x="758" y="-345.24" font-family="Helvetica,sans-Serif" font-size="10.00">emgProps_file</text>
<text text-anchor="middle" x="758" y="-334.24" font-family="Helvetica,sans-Serif" font-size="10.00">traits_file</text>
</g>
<!-- Node17 -->
<g id="node17" class="node">
<title>Node17</title>
<g id="a_node17"><a xlink:title=" ">
<polygon fill="none" stroke="#bfbfbf" points="688,-282.74 688,-301.74 828,-301.74 828,-282.74 688,-282.74"/>
<text text-anchor="middle" x="758" y="-289.74" font-family="Helvetica,sans-Serif" font-size="10.00">std::vector&lt; std::string &gt;</text>
</a>
</g>
</g>
<!-- Node3&#45;&gt;Node17 -->
<g id="edge18" class="edge">
<title>Node3&#45;&gt;Node17</title>
<path fill="none" stroke="#9a32cd" stroke-dasharray="5,2" d="M508.1,-137.37C539.38,-167.82 609.09,-231.61 679,-268.24 690.42,-274.23 703.58,-278.99 715.79,-282.64"/>
<polygon fill="#9a32cd" stroke="#9a32cd" points="510.24,-134.57 500.66,-130.05 505.33,-139.56 510.24,-134.57"/>
<text text-anchor="middle" x="615.5" y="-258.24" font-family="Helvetica,sans-Serif" font-size="10.00"> elements</text>
</g>
<!-- Node19 -->
<g id="node19" class="node">
<title>Node19</title>
<g id="a_node19"><a xlink:href="classplant_1_1PlantTraits.html" target="_top" xlink:title=" ">
<polygon fill="none" stroke="black" points="1047,-60.74 1047,-79.74 1146,-79.74 1146,-60.74 1047,-60.74"/>
<text text-anchor="middle" x="1096.5" y="-67.74" font-family="Helvetica,sans-Serif" font-size="10.00">plant::PlantTraits</text>
</a>
</g>
</g>
<!-- Node3&#45;&gt;Node19 -->
<g id="edge22" class="edge">
<title>Node3&#45;&gt;Node19</title>
<path fill="none" stroke="#9a32cd" stroke-dasharray="5,2" d="M504.14,-102.83C518.49,-84.96 543.04,-57.55 570,-41.24 613.42,-14.98 628.83,-14.89 679,-7.24 748.42,3.33 767.28,1.13 837,-7.24 842.52,-7.91 986.27,-43.29 1056.97,-60.73"/>
<polygon fill="#9a32cd" stroke="#9a32cd" points="501.36,-100.71 497.96,-110.74 506.87,-105.02 501.36,-100.71"/>
<text text-anchor="middle" x="758" y="-10.24" font-family="Helvetica,sans-Serif" font-size="10.00"> species_name</text>
</g>
<!-- Node20 -->
<g id="node20" class="node">
<title>Node20</title>
<g id="a_node20"><a xlink:title=" ">
<polygon fill="none" stroke="#bfbfbf" points="700,-27.74 700,-68.74 816,-68.74 816,-27.74 700,-27.74"/>
<text text-anchor="start" x="708" y="-56.74" font-family="Helvetica,sans-Serif" font-size="10.00">std::unordered_map</text>
<text text-anchor="start" x="708" y="-45.74" font-family="Helvetica,sans-Serif" font-size="10.00">&lt; std::string, double</text>
<text text-anchor="middle" x="758" y="-34.74" font-family="Helvetica,sans-Serif" font-size="10.00"> PlantTraits::* &gt;</text>
</a>
</g>
</g>
<!-- Node3&#45;&gt;Node20 -->
<g id="edge24" class="edge">
<title>Node3&#45;&gt;Node20</title>
<path fill="none" stroke="#9a32cd" stroke-dasharray="5,2" d="M508.11,-103.57C523.1,-90.11 546.16,-72.01 570,-63.24 611.57,-47.95 661.75,-44.67 699.66,-44.96"/>
<polygon fill="#9a32cd" stroke="#9a32cd" points="505.61,-101.12 500.66,-110.49 510.38,-106.25 505.61,-101.12"/>
<text text-anchor="middle" x="615.5" y="-66.24" font-family="Helvetica,sans-Serif" font-size="10.00"> keys</text>
</g>
<!-- Node21 -->
<g id="node21" class="node">
<title>Node21</title>
<g id="a_node21"><a xlink:href="classpfate_1_1PlantFateConfig.html" target="_top" xlink:title=" ">
<polygon fill="none" stroke="black" points="1034,-220.74 1034,-239.74 1159,-239.74 1159,-220.74 1034,-220.74"/>
<text text-anchor="middle" x="1096.5" y="-227.74" font-family="Helvetica,sans-Serif" font-size="10.00">pfate::PlantFateConfig</text>
</a>
</g>
</g>
<!-- Node3&#45;&gt;Node21 -->
<g id="edge26" class="edge">
<title>Node3&#45;&gt;Node21</title>
<path fill="none" stroke="#9a32cd" stroke-dasharray="5,2" d="M533.03,-125.91C544.96,-127.42 557.98,-128.99 570,-130.24 688.42,-142.61 720.02,-130.03 837,-152.24 924.5,-168.86 1024.51,-203.78 1070.26,-220.68"/>
<polygon fill="#9a32cd" stroke="#9a32cd" points="533.23,-122.41 522.87,-124.6 532.34,-129.35 533.23,-122.41"/>
<text text-anchor="middle" x="758" y="-265.24" font-family="Helvetica,sans-Serif" font-size="10.00"> config_outfile</text>
<text text-anchor="middle" x="758" y="-254.24" font-family="Helvetica,sans-Serif" font-size="10.00">continueFrom_configFile</text>
<text text-anchor="middle" x="758" y="-243.24" font-family="Helvetica,sans-Serif" font-size="10.00">continueFrom_stateFile</text>
<text text-anchor="middle" x="758" y="-232.24" font-family="Helvetica,sans-Serif" font-size="10.00">expt_dir</text>
<text text-anchor="middle" x="758" y="-221.24" font-family="Helvetica,sans-Serif" font-size="10.00">out_dir</text>
<text text-anchor="middle" x="758" y="-210.24" font-family="Helvetica,sans-Serif" font-size="10.00">paramsFile</text>
<text text-anchor="middle" x="758" y="-199.24" font-family="Helvetica,sans-Serif" font-size="10.00">parent_dir</text>
<text text-anchor="middle" x="758" y="-188.24" font-family="Helvetica,sans-Serif" font-size="10.00">solver_method</text>
<text text-anchor="middle" x="758" y="-177.24" font-family="Helvetica,sans-Serif" font-size="10.00">state_outfile</text>
<text text-anchor="middle" x="758" y="-166.24" font-family="Helvetica,sans-Serif" font-size="10.00">time_unit</text>
<text text-anchor="middle" x="758" y="-155.24" font-family="Helvetica,sans-Serif" font-size="10.00">...</text>
</g>
<!-- Node4 -->
<g id="node4" class="node">
<title>Node4</title>
<g id="a_node4"><a xlink:title=" ">
<polygon fill="none" stroke="#bfbfbf" points="284.5,-105.24 284.5,-135.24 388.5,-135.24 388.5,-105.24 284.5,-105.24"/>
<text text-anchor="start" x="292.5" y="-123.24" font-family="Helvetica,sans-Serif" font-size="10.00">std::basic_string&lt;</text>
<text text-anchor="middle" x="336.5" y="-112.24" font-family="Helvetica,sans-Serif" font-size="10.00"> Char &gt;</text>
</a>
</g>
</g>
<!-- Node4&#45;&gt;Node3 -->
<g id="edge3" class="edge">
<title>Node4&#45;&gt;Node3</title>
<path fill="none" stroke="midnightblue" d="M398.79,-120.24C418.82,-120.24 440.25,-120.24 457.19,-120.24"/>
<polygon fill="midnightblue" stroke="midnightblue" points="398.79,-116.74 388.79,-120.24 398.79,-123.74 398.79,-116.74"/>
</g>
<!-- Node5 -->
<g id="node5" class="node">
<title>Node5</title>
<g id="a_node5"><a xlink:href="classpfate_1_1PSPM__Environment.html" target="_top" xlink:title="This class provides a common interface to different components of the environment.">
<polygon fill="none" stroke="black" points="1025,-671.74 1025,-690.74 1168,-690.74 1168,-671.74 1025,-671.74"/>
<text text-anchor="middle" x="1096.5" y="-678.74" font-family="Helvetica,sans-Serif" font-size="10.00">pfate::PSPM_Environment</text>
</a>
</g>
</g>
<!-- Node5&#45;&gt;Node1 -->
<g id="edge4" class="edge">
<title>Node5&#45;&gt;Node1</title>
<path fill="none" stroke="#9a32cd" stroke-dasharray="5,2" d="M1104.48,-662.31C1134.94,-579.72 1255.66,-252.31 1277.95,-191.87"/>
<polygon fill="#9a32cd" stroke="#9a32cd" points="1101.19,-661.13 1101.01,-671.72 1107.75,-663.55 1101.19,-661.13"/>
<text text-anchor="middle" x="1209.5" y="-419.24" font-family="Helvetica,sans-Serif" font-size="10.00"> E</text>
</g>
<!-- Node6 -->
<g id="node6" class="node">
<title>Node6</title>
<g id="a_node6"><a xlink:href="classpfate_1_1env_1_1LightEnvironment.html" target="_top" xlink:title=" ">
<polygon fill="none" stroke="black" points="679,-671.74 679,-690.74 837,-690.74 837,-671.74 679,-671.74"/>
<text text-anchor="middle" x="758" y="-678.74" font-family="Helvetica,sans-Serif" font-size="10.00">pfate::env::LightEnvironment</text>
</a>
</g>
</g>
<!-- Node6&#45;&gt;Node5 -->
<g id="edge5" class="edge">
<title>Node6&#45;&gt;Node5</title>
<path fill="none" stroke="midnightblue" d="M847.2,-681.24C902.58,-681.24 973.05,-681.24 1024.75,-681.24"/>
<polygon fill="midnightblue" stroke="midnightblue" points="847.05,-677.74 837.05,-681.24 847.05,-684.74 847.05,-677.74"/>
</g>
<!-- Node7 -->
<g id="node7" class="node">
<title>Node7</title>
<g id="a_node7"><a xlink:title=" ">
<polygon fill="none" stroke="#bfbfbf" points="438.5,-671.74 438.5,-690.74 541.5,-690.74 541.5,-671.74 438.5,-671.74"/>
<text text-anchor="middle" x="490" y="-678.74" font-family="Helvetica,sans-Serif" font-size="10.00">EnvironmentBase</text>
</a>
</g>
</g>
<!-- Node7&#45;&gt;Node6 -->
<g id="edge6" class="edge">
<title>Node7&#45;&gt;Node6</title>
<path fill="none" stroke="midnightblue" d="M551.97,-681.24C589.62,-681.24 638.31,-681.24 678.79,-681.24"/>
<polygon fill="midnightblue" stroke="midnightblue" points="551.66,-677.74 541.66,-681.24 551.66,-684.74 551.66,-677.74"/>
</g>
<!-- Node8 -->
<g id="node8" class="node">
<title>Node8</title>
<g id="a_node8"><a xlink:title=" ">
<polygon fill="none" stroke="#bfbfbf" points="428,-566.74 428,-585.74 552,-585.74 552,-566.74 428,-566.74"/>
<text text-anchor="middle" x="490" y="-573.74" font-family="Helvetica,sans-Serif" font-size="10.00">std::vector&lt; double &gt;</text>
</a>
</g>
</g>
<!-- Node8&#45;&gt;Node6 -->
<g id="edge7" class="edge">
<title>Node8&#45;&gt;Node6</title>
<path fill="none" stroke="#9a32cd" stroke-dasharray="5,2" d="M531.1,-589.15C566.36,-601.23 618.54,-620.88 661,-644.24 669.65,-649 670.17,-652.85 679,-657.24 690.92,-663.18 704.61,-667.99 717.15,-671.71"/>
<polygon fill="#9a32cd" stroke="#9a32cd" points="531.77,-585.69 521.18,-585.8 529.53,-592.32 531.77,-585.69"/>
<text text-anchor="middle" x="615.5" y="-669.24" font-family="Helvetica,sans-Serif" font-size="10.00"> canopy_openness</text>
<text text-anchor="middle" x="615.5" y="-658.24" font-family="Helvetica,sans-Serif" font-size="10.00">fapar_tot</text>
<text text-anchor="middle" x="615.5" y="-647.24" font-family="Helvetica,sans-Serif" font-size="10.00">z_star</text>
</g>
<!-- Node8&#45;&gt;Node11 -->
<g id="edge19" class="edge">
<title>Node8&#45;&gt;Node11</title>
<path fill="none" stroke="#9a32cd" stroke-dasharray="5,2" d="M562.46,-578.53C685.68,-581.12 931.62,-579.89 1001,-532.24 1067.4,-486.64 1088.92,-380.8 1094.11,-348.07"/>
<polygon fill="#9a32cd" stroke="#9a32cd" points="562.44,-575.03 552.36,-578.31 562.28,-582.03 562.44,-575.03"/>
<text text-anchor="middle" x="758" y="-647.24" font-family="Helvetica,sans-Serif" font-size="10.00"> basal_area_vec</text>
<text text-anchor="middle" x="758" y="-636.24" font-family="Helvetica,sans-Serif" font-size="10.00">biomass_vec</text>
<text text-anchor="middle" x="758" y="-625.24" font-family="Helvetica,sans-Serif" font-size="10.00">canopy_area_vec</text>
<text text-anchor="middle" x="758" y="-614.24" font-family="Helvetica,sans-Serif" font-size="10.00">height_vec</text>
<text text-anchor="middle" x="758" y="-603.24" font-family="Helvetica,sans-Serif" font-size="10.00">lai_vert</text>
<text text-anchor="middle" x="758" y="-592.24" font-family="Helvetica,sans-Serif" font-size="10.00">mortality_vec</text>
<text text-anchor="middle" x="758" y="-581.24" font-family="Helvetica,sans-Serif" font-size="10.00">n_ind_vec</text>
</g>
<!-- Node8&#45;&gt;Node21 -->
<g id="edge28" class="edge">
<title>Node8&#45;&gt;Node21</title>
<path fill="none" stroke="#9a32cd" stroke-dasharray="5,2" d="M555.57,-564.99C591.8,-558.83 637.86,-551.25 679,-545.24 714.69,-540.03 975.88,-530.12 1001,-504.24 1029.77,-474.61 1002.78,-357.23 1019,-319.24 1033.48,-285.33 1065.73,-254.88 1083.38,-239.95"/>
<polygon fill="#9a32cd" stroke="#9a32cd" points="554.89,-561.56 545.62,-566.69 556.07,-568.46 554.89,-561.56"/>
<text text-anchor="middle" x="758" y="-559.24" font-family="Helvetica,sans-Serif" font-size="10.00"> trait_scalars</text>
<text text-anchor="middle" x="758" y="-548.24" font-family="Helvetica,sans-Serif" font-size="10.00">trait_variances</text>
</g>
<!-- Node9 -->
<g id="node9" class="node">
<title>Node9</title>
<g id="a_node9"><a xlink:href="classpfate_1_1env_1_1Climate.html" target="_top" xlink:title=" ">
<polygon fill="none" stroke="black" points="703,-709.74 703,-728.74 813,-728.74 813,-709.74 703,-709.74"/>
<text text-anchor="middle" x="758" y="-716.74" font-family="Helvetica,sans-Serif" font-size="10.00">pfate::env::Climate</text>
</a>
</g>
</g>
<!-- Node9&#45;&gt;Node5 -->
<g id="edge8" class="edge">
<title>Node9&#45;&gt;Node5</title>
<path fill="none" stroke="midnightblue" d="M823.49,-713.7C872.3,-709.3 940.95,-702.66 1001,-695.24 1011.78,-693.91 1023.23,-692.34 1034.3,-690.75"/>
<polygon fill="midnightblue" stroke="midnightblue" points="823.03,-710.23 813.39,-714.61 823.66,-717.2 823.03,-710.23"/>
</g>
<!-- Node10 -->
<g id="node10" class="node">
<title>Node10</title>
<g id="a_node10"><a xlink:href="classpfate_1_1env_1_1Clim.html" target="_top" xlink:title=" ">
<polygon fill="none" stroke="black" points="442.5,-709.74 442.5,-728.74 537.5,-728.74 537.5,-709.74 442.5,-709.74"/>
<text text-anchor="middle" x="490" y="-716.74" font-family="Helvetica,sans-Serif" font-size="10.00">pfate::env::Clim</text>
</a>
</g>
</g>
<!-- Node10&#45;&gt;Node9 -->
<g id="edge9" class="edge">
<title>Node10&#45;&gt;Node9</title>
<path fill="none" stroke="#9a32cd" stroke-dasharray="5,2" d="M547.69,-719.24C593.47,-719.24 657.46,-719.24 702.61,-719.24"/>
<polygon fill="#9a32cd" stroke="#9a32cd" points="547.64,-715.74 537.64,-719.24 547.64,-722.74 547.64,-715.74"/>
<text text-anchor="middle" x="615.5" y="-733.24" font-family="Helvetica,sans-Serif" font-size="10.00"> clim_acclim</text>
<text text-anchor="middle" x="615.5" y="-722.24" font-family="Helvetica,sans-Serif" font-size="10.00">clim_inst</text>
</g>
<!-- Node11&#45;&gt;Node1 -->
<g id="edge10" class="edge">
<title>Node11&#45;&gt;Node1</title>
<path fill="none" stroke="#9a32cd" stroke-dasharray="5,2" d="M1116.53,-322.11C1154.59,-289.84 1239.1,-218.19 1269.94,-192.04"/>
<polygon fill="#9a32cd" stroke="#9a32cd" points="1114.1,-319.58 1108.73,-328.72 1118.62,-324.92 1114.1,-319.58"/>
<text text-anchor="middle" x="1209.5" y="-258.24" font-family="Helvetica,sans-Serif" font-size="10.00"> props</text>
</g>
<!-- Node12 -->
<g id="node12" class="node">
<title>Node12</title>
<g id="a_node12"><a xlink:title=" ">
<polygon fill="none" stroke="#bfbfbf" points="717,-400.74 717,-419.74 799,-419.74 799,-400.74 717,-400.74"/>
<text text-anchor="middle" x="758" y="-407.74" font-family="Helvetica,sans-Serif" font-size="10.00">std::ofstream</text>
</a>
</g>
</g>
<!-- Node12&#45;&gt;Node11 -->
<g id="edge12" class="edge">
<title>Node12&#45;&gt;Node11</title>
<path fill="none" stroke="#9a32cd" stroke-dasharray="5,2" d="M809.34,-399.47C874.87,-385.45 988.37,-361.17 1050.92,-347.78"/>
<polygon fill="#9a32cd" stroke="#9a32cd" points="808.3,-396.12 799.26,-401.63 809.77,-402.96 808.3,-396.12"/>
<text text-anchor="middle" x="928" y="-512.24" font-family="Helvetica,sans-Serif" font-size="10.00"> cohort_props_out</text>
<text text-anchor="middle" x="928" y="-501.24" font-family="Helvetica,sans-Serif" font-size="10.00">fclim</text>
<text text-anchor="middle" x="928" y="-490.24" font-family="Helvetica,sans-Serif" font-size="10.00">fco</text>
<text text-anchor="middle" x="928" y="-479.24" font-family="Helvetica,sans-Serif" font-size="10.00">flai</text>
<text text-anchor="middle" x="928" y="-468.24" font-family="Helvetica,sans-Serif" font-size="10.00">foutd</text>
<text text-anchor="middle" x="928" y="-457.24" font-family="Helvetica,sans-Serif" font-size="10.00">fouty</text>
<text text-anchor="middle" x="928" y="-446.24" font-family="Helvetica,sans-Serif" font-size="10.00">fouty_spp</text>
<text text-anchor="middle" x="928" y="-435.24" font-family="Helvetica,sans-Serif" font-size="10.00">ftraits</text>
<text text-anchor="middle" x="928" y="-424.24" font-family="Helvetica,sans-Serif" font-size="10.00">fzst</text>
<text text-anchor="start" x="884" y="-413.24" font-family="Helvetica,sans-Serif" font-size="10.00">size_dists</text>
<text text-anchor="middle" x="928" y="-402.24" font-family="Helvetica,sans-Serif" font-size="10.00">_out</text>
<text text-anchor="middle" x="928" y="-391.24" font-family="Helvetica,sans-Serif" font-size="10.00">...</text>
</g>
<!-- Node13 -->
<g id="node13" class="node">
<title>Node13</title>
<g id="a_node13"><a xlink:title=" ">
<polygon fill="none" stroke="#bfbfbf" points="433.5,-395.24 433.5,-425.24 546.5,-425.24 546.5,-395.24 433.5,-395.24"/>
<text text-anchor="start" x="441.5" y="-413.24" font-family="Helvetica,sans-Serif" font-size="10.00">std::basic_ofstream</text>
<text text-anchor="middle" x="490" y="-402.24" font-family="Helvetica,sans-Serif" font-size="10.00">&lt; Char &gt;</text>
</a>
</g>
</g>
<!-- Node13&#45;&gt;Node12 -->
<g id="edge13" class="edge">
<title>Node13&#45;&gt;Node12</title>
<path fill="none" stroke="midnightblue" d="M556.87,-410.24C607.06,-410.24 674.53,-410.24 716.89,-410.24"/>
<polygon fill="midnightblue" stroke="midnightblue" points="556.76,-406.74 546.76,-410.24 556.76,-413.74 556.76,-406.74"/>
</g>
<!-- Node14 -->
<g id="node14" class="node">
<title>Node14</title>
<g id="a_node14"><a xlink:title=" ">
<polygon fill="none" stroke="#bfbfbf" points="282,-395.24 282,-425.24 391,-425.24 391,-395.24 282,-395.24"/>
<text text-anchor="start" x="290" y="-413.24" font-family="Helvetica,sans-Serif" font-size="10.00">std::basic_ostream</text>
<text text-anchor="middle" x="336.5" y="-402.24" font-family="Helvetica,sans-Serif" font-size="10.00">&lt; Char &gt;</text>
</a>
</g>
</g>
<!-- Node14&#45;&gt;Node13 -->
<g id="edge14" class="edge">
<title>Node14&#45;&gt;Node13</title>
<path fill="none" stroke="midnightblue" d="M401.38,-410.24C411.98,-410.24 422.91,-410.24 433.29,-410.24"/>
<polygon fill="midnightblue" stroke="midnightblue" points="401.34,-406.74 391.34,-410.24 401.34,-413.74 401.34,-406.74"/>
</g>
<!-- Node15 -->
<g id="node15" class="node">
<title>Node15</title>
<g id="a_node15"><a xlink:title=" ">
<polygon fill="none" stroke="#bfbfbf" points="117,-400.74 117,-419.74 245,-419.74 245,-400.74 117,-400.74"/>
<text text-anchor="middle" x="181" y="-407.74" font-family="Helvetica,sans-Serif" font-size="10.00">std::basic_ios&lt; Char &gt;</text>
</a>
</g>
</g>
<!-- Node15&#45;&gt;Node14 -->
<g id="edge15" class="edge">
<title>Node15&#45;&gt;Node14</title>
<path fill="none" stroke="midnightblue" d="M255.57,-410.24C264.35,-410.24 273.19,-410.24 281.62,-410.24"/>
<polygon fill="midnightblue" stroke="midnightblue" points="255.32,-406.74 245.32,-410.24 255.32,-413.74 255.32,-406.74"/>
</g>
<!-- Node16 -->
<g id="node16" class="node">
<title>Node16</title>
<g id="a_node16"><a xlink:title=" ">
<polygon fill="none" stroke="#bfbfbf" points="0,-400.74 0,-419.74 80,-419.74 80,-400.74 0,-400.74"/>
<text text-anchor="middle" x="40" y="-407.74" font-family="Helvetica,sans-Serif" font-size="10.00">std::ios_base</text>
</a>
</g>
</g>
<!-- Node16&#45;&gt;Node15 -->
<g id="edge16" class="edge">
<title>Node16&#45;&gt;Node15</title>
<path fill="none" stroke="midnightblue" d="M90.28,-410.24C98.85,-410.24 107.87,-410.24 116.75,-410.24"/>
<polygon fill="midnightblue" stroke="midnightblue" points="90.09,-406.74 80.09,-410.24 90.09,-413.74 90.09,-406.74"/>
</g>
<!-- Node17&#45;&gt;Node11 -->
<g id="edge17" class="edge">
<title>Node17&#45;&gt;Node11</title>
<path fill="none" stroke="#9a32cd" stroke-dasharray="5,2" d="M838.46,-295.69C885.9,-298.6 947.2,-303.86 1001,-313.24 1022.57,-317 1046.39,-323.32 1064.73,-328.67"/>
<polygon fill="#9a32cd" stroke="#9a32cd" points="838.44,-292.18 828.25,-295.09 838.03,-299.17 838.44,-292.18"/>
<text text-anchor="middle" x="928" y="-316.24" font-family="Helvetica,sans-Serif" font-size="10.00"> varnames</text>
</g>
<!-- Node17&#45;&gt;Node21 -->
<g id="edge27" class="edge">
<title>Node17&#45;&gt;Node21</title>
<path fill="none" stroke="#9a32cd" stroke-dasharray="5,2" d="M820.81,-280.86C884.87,-269.05 983.86,-250.81 1043.88,-239.76"/>
<polygon fill="#9a32cd" stroke="#9a32cd" points="820.04,-277.44 810.84,-282.69 821.31,-284.32 820.04,-277.44"/>
<text text-anchor="middle" x="928" y="-276.24" font-family="Helvetica,sans-Serif" font-size="10.00"> evolvable_traits</text>
</g>
<!-- Node18 -->
<g id="node18" class="node">
<title>Node18</title>
<g id="a_node18"><a xlink:href="classplant_1_1PlantParameters.html" target="_top" xlink:title=" ">
<polygon fill="none" stroke="black" points="1032.5,-22.74 1032.5,-41.74 1160.5,-41.74 1160.5,-22.74 1032.5,-22.74"/>
<text text-anchor="middle" x="1096.5" y="-29.74" font-family="Helvetica,sans-Serif" font-size="10.00">plant::PlantParameters</text>
</a>
</g>
</g>
<!-- Node18&#45;&gt;Node1 -->
<g id="edge20" class="edge">
<title>Node18&#45;&gt;Node1</title>
<path fill="none" stroke="#9a32cd" stroke-dasharray="5,2" d="M1161.36,-45.24C1165.74,-46.99 1170.01,-48.99 1174,-51.24 1226.76,-81.06 1264.22,-147.72 1276.84,-172.62"/>
<polygon fill="#9a32cd" stroke="#9a32cd" points="1162.19,-41.82 1151.6,-41.75 1159.84,-48.41 1162.19,-41.82"/>
<text text-anchor="middle" x="1209.5" y="-98.24" font-family="Helvetica,sans-Serif" font-size="10.00"> par0</text>
</g>
<!-- Node19&#45;&gt;Node1 -->
<g id="edge21" class="edge">
<title>Node19&#45;&gt;Node1</title>
<path fill="none" stroke="#9a32cd" stroke-dasharray="5,2" d="M1126.03,-84.39C1152.73,-97.97 1193.43,-119.57 1227,-141.24 1242.32,-151.13 1258.93,-163.96 1269.73,-172.61"/>
<polygon fill="#9a32cd" stroke="#9a32cd" points="1127.37,-81.14 1116.87,-79.76 1124.22,-87.39 1127.37,-81.14"/>
<text text-anchor="middle" x="1209.5" y="-144.24" font-family="Helvetica,sans-Serif" font-size="10.00"> traits0</text>
</g>
<!-- Node20&#45;&gt;Node19 -->
<g id="edge23" class="edge">
<title>Node20&#45;&gt;Node19</title>
<path fill="none" stroke="#9a32cd" stroke-dasharray="5,2" d="M826.26,-52.64C891.49,-56.91 988.86,-63.27 1046.89,-67.07"/>
<polygon fill="#9a32cd" stroke="#9a32cd" points="826.29,-49.14 816.08,-51.98 825.83,-56.12 826.29,-49.14"/>
<text text-anchor="middle" x="928" y="-66.24" font-family="Helvetica,sans-Serif" font-size="10.00"> members</text>
</g>
<!-- Node21&#45;&gt;Node1 -->
<g id="edge25" class="edge">
<title>Node21&#45;&gt;Node1</title>
<path fill="none" stroke="#9a32cd" stroke-dasharray="5,2" d="M1144.08,-218.09C1175.29,-209.95 1215.83,-199.37 1244.77,-191.83"/>
<polygon fill="#9a32cd" stroke="#9a32cd" points="1143.09,-214.73 1134.29,-220.65 1144.85,-221.51 1143.09,-214.73"/>
<text text-anchor="middle" x="1209.5" y="-207.24" font-family="Helvetica,sans-Serif" font-size="10.00"> config</text>
</g>
</g>
</svg>
