<?xml version="1.0" encoding="UTF-8" standalone="no"?>
<!DOCTYPE svg PUBLIC "-//W3C//DTD SVG 1.1//EN"
 "http://www.w3.org/Graphics/SVG/1.1/DTD/svg11.dtd">
<!-- Generated by graphviz version 2.43.0 (0)
 -->
<!-- Title: pfate::PSPM_Plant Pages: 1 -->
<svg width="1124pt" height="280pt"
 viewBox="0.00 0.00 1124.00 279.50" xmlns="http://www.w3.org/2000/svg" xmlns:xlink="http://www.w3.org/1999/xlink">
<g id="graph0" class="graph" transform="scale(1 1) rotate(0) translate(4 275.5)">
<title>pfate::PSPM_Plant</title>
<!-- Node1 -->
<g id="node1" class="node">
<title>Node1</title>
<g id="a_node1"><a xlink:title="This class entends the Plant class to interface with the PSPM Solver.">
<polygon fill="#bfbfbf" stroke="black" points="1011,-50 1011,-69 1116,-69 1116,-50 1011,-50"/>
<text text-anchor="middle" x="1063.5" y="-57" font-family="Helvetica,sans-Serif" font-size="10.00">pfate::PSPM_Plant</text>
</a>
</g>
</g>
<!-- Node2 -->
<g id="node2" class="node">
<title>Node2</title>
<g id="a_node2"><a xlink:href="classplant_1_1Plant.html" target="_top" xlink:title="The class for an individual plant.">
<polygon fill="none" stroke="black" points="873,-151 873,-170 945,-170 945,-151 873,-151"/>
<text text-anchor="middle" x="909" y="-158" font-family="Helvetica,sans-Serif" font-size="10.00">plant::Plant</text>
</a>
</g>
</g>
<!-- Node2&#45;&gt;Node1 -->
<g id="edge1" class="edge">
<title>Node2&#45;&gt;Node1</title>
<path fill="none" stroke="midnightblue" d="M933.01,-145.26C964.9,-124.14 1021.57,-86.61 1048.08,-69.05"/>
<polygon fill="midnightblue" stroke="midnightblue" points="930.75,-142.56 924.35,-151 934.62,-148.39 930.75,-142.56"/>
</g>
<!-- Node3 -->
<g id="node3" class="node">
<title>Node3</title>
<g id="a_node3"><a xlink:href="structplant_1_1PlantAssimilationResult.html" target="_top" xlink:title="Set of all variables calculated by the assimilator.">
<polygon fill="none" stroke="black" points="291,-225.5 291,-255.5 424,-255.5 424,-225.5 291,-225.5"/>
<text text-anchor="start" x="299" y="-243.5" font-family="Helvetica,sans-Serif" font-size="10.00">plant::PlantAssimilation</text>
<text text-anchor="middle" x="357.5" y="-232.5" font-family="Helvetica,sans-Serif" font-size="10.00">Result</text>
</a>
</g>
</g>
<!-- Node3&#45;&gt;Node2 -->
<g id="edge2" class="edge">
<title>Node3&#45;&gt;Node2</title>
<path fill="none" stroke="#9a32cd" stroke-dasharray="5,2" d="M434.54,-252.54C530.1,-264.24 697.19,-273.18 826,-218.5 854.25,-206.51 882.41,-183.59 897.26,-170.44"/>
<polygon fill="#9a32cd" stroke="#9a32cd" points="434.75,-249.04 424.39,-251.25 433.87,-255.98 434.75,-249.04"/>
<text text-anchor="middle" x="665.5" y="-263.5" font-family="Helvetica,sans-Serif" font-size="10.00"> res</text>
</g>
<!-- Node6 -->
<g id="node6" class="node">
<title>Node6</title>
<g id="a_node6"><a xlink:href="classplant_1_1Assimilator.html" target="_top" xlink:title="Object for computing gross and net production, respiration, and turnover.">
<polygon fill="none" stroke="black" points="614,-208 614,-227 717,-227 717,-208 614,-208"/>
<text text-anchor="middle" x="665.5" y="-215" font-family="Helvetica,sans-Serif" font-size="10.00">plant::Assimilator</text>
</a>
</g>
</g>
<!-- Node3&#45;&gt;Node6 -->
<g id="edge6" class="edge">
<title>Node3&#45;&gt;Node6</title>
<path fill="none" stroke="#9a32cd" stroke-dasharray="5,2" d="M434.35,-234.8C490.24,-230.6 564.72,-225 613.61,-221.32"/>
<polygon fill="#9a32cd" stroke="#9a32cd" points="433.85,-231.33 424.14,-235.57 434.38,-238.31 433.85,-231.33"/>
<text text-anchor="middle" x="512" y="-236.5" font-family="Helvetica,sans-Serif" font-size="10.00"> plant_assim</text>
</g>
<!-- Node4 -->
<g id="node4" class="node">
<title>Node4</title>
<g id="a_node4"><a xlink:href="classplant_1_1PlantParameters.html" target="_top" xlink:title=" ">
<polygon fill="none" stroke="black" points="601.5,-170 601.5,-189 729.5,-189 729.5,-170 601.5,-170"/>
<text text-anchor="middle" x="665.5" y="-177" font-family="Helvetica,sans-Serif" font-size="10.00">plant::PlantParameters</text>
</a>
</g>
</g>
<!-- Node4&#45;&gt;Node2 -->
<g id="edge3" class="edge">
<title>Node4&#45;&gt;Node2</title>
<path fill="none" stroke="#9a32cd" stroke-dasharray="5,2" d="M739.75,-173.74C783.9,-170.26 838.12,-166 872.87,-163.26"/>
<polygon fill="#9a32cd" stroke="#9a32cd" points="739.33,-170.26 729.64,-174.53 739.88,-177.24 739.33,-170.26"/>
<text text-anchor="middle" x="787.5" y="-175.5" font-family="Helvetica,sans-Serif" font-size="10.00"> par</text>
</g>
<!-- Node5 -->
<g id="node5" class="node">
<title>Node5</title>
<g id="a_node5"><a xlink:href="classplant_1_1PlantArchitecture.html" target="_top" xlink:title="Everything about the plant&#39;s architecture, i.e. relationships among various physical dimensions.">
<polygon fill="none" stroke="black" points="600,-132 600,-151 731,-151 731,-132 600,-132"/>
<text text-anchor="middle" x="665.5" y="-139" font-family="Helvetica,sans-Serif" font-size="10.00">plant::PlantArchitecture</text>
</a>
</g>
</g>
<!-- Node5&#45;&gt;Node2 -->
<g id="edge4" class="edge">
<title>Node5&#45;&gt;Node2</title>
<path fill="none" stroke="#9a32cd" stroke-dasharray="5,2" d="M741.4,-145.47C768.12,-147.08 798.42,-149.12 826,-151.5 841.41,-152.83 858.41,-154.64 872.92,-156.29"/>
<polygon fill="#9a32cd" stroke="#9a32cd" points="741.54,-141.97 731.35,-144.88 741.13,-148.96 741.54,-141.97"/>
<text text-anchor="middle" x="787.5" y="-154.5" font-family="Helvetica,sans-Serif" font-size="10.00"> geometry</text>
</g>
<!-- Node6&#45;&gt;Node2 -->
<g id="edge5" class="edge">
<title>Node6&#45;&gt;Node2</title>
<path fill="none" stroke="#9a32cd" stroke-dasharray="5,2" d="M727.06,-208.05C757.03,-202.88 793.64,-195.83 826,-187.5 845.01,-182.6 866.04,-175.65 882.04,-170.02"/>
<polygon fill="#9a32cd" stroke="#9a32cd" points="726.43,-204.61 717.16,-209.73 727.61,-211.51 726.43,-204.61"/>
<text text-anchor="middle" x="787.5" y="-206.5" font-family="Helvetica,sans-Serif" font-size="10.00"> assimilator</text>
</g>
<!-- Node7 -->
<g id="node7" class="node">
<title>Node7</title>
<g id="a_node7"><a xlink:href="classplant_1_1PlantTraits.html" target="_top" xlink:title=" ">
<polygon fill="none" stroke="black" points="616,-94 616,-113 715,-113 715,-94 616,-94"/>
<text text-anchor="middle" x="665.5" y="-101" font-family="Helvetica,sans-Serif" font-size="10.00">plant::PlantTraits</text>
</a>
</g>
</g>
<!-- Node7&#45;&gt;Node2 -->
<g id="edge7" class="edge">
<title>Node7&#45;&gt;Node2</title>
<path fill="none" stroke="#9a32cd" stroke-dasharray="5,2" d="M725.16,-110.81C755.54,-115.25 793.07,-121.77 826,-130.5 846.51,-135.94 869.11,-144.4 885.38,-150.95"/>
<polygon fill="#9a32cd" stroke="#9a32cd" points="725.55,-107.33 715.15,-109.38 724.56,-114.26 725.55,-107.33"/>
<text text-anchor="middle" x="787.5" y="-133.5" font-family="Helvetica,sans-Serif" font-size="10.00"> traits</text>
</g>
<!-- Node8 -->
<g id="node8" class="node">
<title>Node8</title>
<g id="a_node8"><a xlink:title=" ">
<polygon fill="none" stroke="#bfbfbf" points="141,-94 141,-113 206,-113 206,-94 141,-94"/>
<text text-anchor="middle" x="173.5" y="-101" font-family="Helvetica,sans-Serif" font-size="10.00">std::string</text>
</a>
</g>
</g>
<!-- Node8&#45;&gt;Node7 -->
<g id="edge8" class="edge">
<title>Node8&#45;&gt;Node7</title>
<path fill="none" stroke="#9a32cd" stroke-dasharray="5,2" d="M212.19,-116.1C234.75,-122.92 264.18,-130.53 291,-133.5 408.03,-146.44 546.28,-126.09 617.25,-113.05"/>
<polygon fill="#9a32cd" stroke="#9a32cd" points="212.92,-112.67 202.33,-113.05 210.85,-119.35 212.92,-112.67"/>
<text text-anchor="middle" x="357.5" y="-140.5" font-family="Helvetica,sans-Serif" font-size="10.00"> species_name</text>
</g>
<!-- Node10 -->
<g id="node10" class="node">
<title>Node10</title>
<g id="a_node10"><a xlink:title=" ">
<polygon fill="none" stroke="#bfbfbf" points="299.5,-83 299.5,-124 415.5,-124 415.5,-83 299.5,-83"/>
<text text-anchor="start" x="307.5" y="-112" font-family="Helvetica,sans-Serif" font-size="10.00">std::unordered_map</text>
<text text-anchor="start" x="307.5" y="-101" font-family="Helvetica,sans-Serif" font-size="10.00">&lt; std::string, double</text>
<text text-anchor="middle" x="357.5" y="-90" font-family="Helvetica,sans-Serif" font-size="10.00"> PlantTraits::* &gt;</text>
</a>
</g>
</g>
<!-- Node8&#45;&gt;Node10 -->
<g id="edge11" class="edge">
<title>Node8&#45;&gt;Node10</title>
<path fill="none" stroke="#9a32cd" stroke-dasharray="5,2" d="M216.32,-103.5C240.97,-103.5 272.52,-103.5 299.44,-103.5"/>
<polygon fill="#9a32cd" stroke="#9a32cd" points="216.2,-100 206.2,-103.5 216.2,-107 216.2,-100"/>
<text text-anchor="middle" x="248.5" y="-106.5" font-family="Helvetica,sans-Serif" font-size="10.00"> keys</text>
</g>
<!-- Node12 -->
<g id="node12" class="node">
<title>Node12</title>
<g id="a_node12"><a xlink:title=" ">
<polygon fill="none" stroke="#bfbfbf" points="442,-46 442,-65 582,-65 582,-46 442,-46"/>
<text text-anchor="middle" x="512" y="-53" font-family="Helvetica,sans-Serif" font-size="10.00">std::vector&lt; std::string &gt;</text>
</a>
</g>
</g>
<!-- Node8&#45;&gt;Node12 -->
<g id="edge14" class="edge">
<title>Node8&#45;&gt;Node12</title>
<path fill="none" stroke="#9a32cd" stroke-dasharray="5,2" d="M214.41,-91.13C217.65,-90.21 220.87,-89.32 224,-88.5 253.51,-80.74 260.83,-78.09 291,-73.5 341.2,-65.86 398.37,-61.31 441.85,-58.69"/>
<polygon fill="#9a32cd" stroke="#9a32cd" points="213.39,-87.78 204.77,-93.94 215.35,-94.5 213.39,-87.78"/>
<text text-anchor="middle" x="248.5" y="-91.5" font-family="Helvetica,sans-Serif" font-size="10.00"> elements</text>
</g>
<!-- Node9 -->
<g id="node9" class="node">
<title>Node9</title>
<g id="a_node9"><a xlink:title=" ">
<polygon fill="none" stroke="#bfbfbf" points="0,-88.5 0,-118.5 104,-118.5 104,-88.5 0,-88.5"/>
<text text-anchor="start" x="8" y="-106.5" font-family="Helvetica,sans-Serif" font-size="10.00">std::basic_string&lt;</text>
<text text-anchor="middle" x="52" y="-95.5" font-family="Helvetica,sans-Serif" font-size="10.00"> Char &gt;</text>
</a>
</g>
</g>
<!-- Node9&#45;&gt;Node8 -->
<g id="edge9" class="edge">
<title>Node9&#45;&gt;Node8</title>
<path fill="none" stroke="midnightblue" d="M114.1,-103.5C123.41,-103.5 132.68,-103.5 141,-103.5"/>
<polygon fill="midnightblue" stroke="midnightblue" points="114.03,-100 104.03,-103.5 114.03,-107 114.03,-100"/>
</g>
<!-- Node10&#45;&gt;Node7 -->
<g id="edge10" class="edge">
<title>Node10&#45;&gt;Node7</title>
<path fill="none" stroke="#9a32cd" stroke-dasharray="5,2" d="M425.77,-103.5C483.15,-103.5 564.3,-103.5 615.65,-103.5"/>
<polygon fill="#9a32cd" stroke="#9a32cd" points="425.7,-100 415.7,-103.5 425.7,-107 425.7,-100"/>
<text text-anchor="middle" x="512" y="-106.5" font-family="Helvetica,sans-Serif" font-size="10.00"> members</text>
</g>
<!-- Node11 -->
<g id="node11" class="node">
<title>Node11</title>
<g id="a_node11"><a xlink:title=" ">
<polygon fill="none" stroke="#bfbfbf" points="844,-0.5 844,-30.5 974,-30.5 974,-0.5 844,-0.5"/>
<text text-anchor="start" x="852" y="-18.5" font-family="Helvetica,sans-Serif" font-size="10.00">IndividualBase&lt; STATE</text>
<text text-anchor="middle" x="909" y="-7.5" font-family="Helvetica,sans-Serif" font-size="10.00">_DIM &gt;</text>
</a>
</g>
</g>
<!-- Node11&#45;&gt;Node1 -->
<g id="edge12" class="edge">
<title>Node11&#45;&gt;Node1</title>
<path fill="none" stroke="midnightblue" d="M971.87,-33.35C991.52,-39.02 1012.49,-45.07 1029.3,-49.92"/>
<polygon fill="midnightblue" stroke="midnightblue" points="972.63,-29.93 962.06,-30.52 970.69,-36.65 972.63,-29.93"/>
</g>
<!-- Node12&#45;&gt;Node1 -->
<g id="edge13" class="edge">
<title>Node12&#45;&gt;Node1</title>
<path fill="none" stroke="#9a32cd" stroke-dasharray="5,2" d="M592.12,-56.08C706.4,-56.91 914.48,-58.42 1010.9,-59.12"/>
<polygon fill="#9a32cd" stroke="#9a32cd" points="592.06,-52.58 582.04,-56 592.01,-59.58 592.06,-52.58"/>
<text text-anchor="middle" x="787.5" y="-71.5" font-family="Helvetica,sans-Serif" font-size="10.00"> statevarnames</text>
<text text-anchor="middle" x="787.5" y="-60.5" font-family="Helvetica,sans-Serif" font-size="10.00">varnames</text>
</g>
</g>
</svg>
