<?xml version="1.0" encoding="UTF-8" standalone="no"?>
<!DOCTYPE svg PUBLIC "-//W3C//DTD SVG 1.1//EN"
 "http://www.w3.org/Graphics/SVG/1.1/DTD/svg11.dtd">
<!-- Generated by graphviz version 2.43.0 (0)
 -->
<!-- Title: io::Initializer::parse Pages: 1 -->
<svg width="303pt" height="252pt"
 viewBox="0.00 0.00 303.00 252.00" xmlns="http://www.w3.org/2000/svg" xmlns:xlink="http://www.w3.org/1999/xlink">
<g id="graph0" class="graph" transform="scale(1 1) rotate(0) translate(4 248)">
<title>io::Initializer::parse</title>
<!-- Node1 -->
<g id="node1" class="node">
<title>Node1</title>
<g id="a_node1"><a xlink:title=" ">
<polygon fill="#bfbfbf" stroke="black" points="185,-106.5 185,-125.5 295,-125.5 295,-106.5 185,-106.5"/>
<text text-anchor="middle" x="240" y="-113.5" font-family="Helvetica,sans-Serif" font-size="10.00">io::Initializer::parse</text>
</a>
</g>
</g>
<!-- Node2 -->
<g id="node2" class="node">
<title>Node2</title>
<g id="a_node2"><a xlink:href="classplant_1_1Plant.html#a658f8901f53d5090eb50a1e3bdcd6fa8" target="_top" xlink:title="This function initializes the plant (traits, par, and geometry) from an ini file.">
<polygon fill="none" stroke="black" points="7,-224.5 7,-243.5 142,-243.5 142,-224.5 7,-224.5"/>
<text text-anchor="middle" x="74.5" y="-231.5" font-family="Helvetica,sans-Serif" font-size="10.00">plant::Plant::initFromFile</text>
</a>
</g>
</g>
<!-- Node1&#45;&gt;Node2 -->
<g id="edge1" class="edge">
<title>Node1&#45;&gt;Node2</title>
<path fill="none" stroke="midnightblue" d="M227.44,-134.17C212.2,-156.6 183.28,-194.31 149,-215 142.57,-218.88 135.36,-221.98 128.03,-224.44"/>
<polygon fill="midnightblue" stroke="midnightblue" points="230.52,-135.86 233.11,-125.58 224.67,-132 230.52,-135.86"/>
</g>
<!-- Node3 -->
<g id="node3" class="node">
<title>Node3</title>
<g id="a_node3"><a xlink:href="classplant_1_1PlantTraits.html#a9b4568e865eeba7ed29f0cfa06d81d43" target="_top" xlink:title=" ">
<polygon fill="none" stroke="black" points="25,-175 25,-205 124,-205 124,-175 25,-175"/>
<text text-anchor="start" x="33" y="-193" font-family="Helvetica,sans-Serif" font-size="10.00">plant::PlantTraits</text>
<text text-anchor="middle" x="74.5" y="-182" font-family="Helvetica,sans-Serif" font-size="10.00">::initFromFile</text>
</a>
</g>
</g>
<!-- Node1&#45;&gt;Node3 -->
<g id="edge2" class="edge">
<title>Node1&#45;&gt;Node3</title>
<path fill="none" stroke="midnightblue" d="M215.27,-130.83C197.49,-141.53 172.3,-155.84 149,-166 141.13,-169.44 132.59,-172.65 124.23,-175.55"/>
<polygon fill="midnightblue" stroke="midnightblue" points="217.13,-133.79 223.85,-125.6 213.49,-127.82 217.13,-133.79"/>
</g>
<!-- Node4 -->
<g id="node4" class="node">
<title>Node4</title>
<g id="a_node4"><a xlink:href="classplant_1_1PlantParameters.html#a80569bfa425831d8f3f89a134c958f0d" target="_top" xlink:title=" ">
<polygon fill="none" stroke="black" points="10.5,-126 10.5,-156 138.5,-156 138.5,-126 10.5,-126"/>
<text text-anchor="start" x="18.5" y="-144" font-family="Helvetica,sans-Serif" font-size="10.00">plant::PlantParameters</text>
<text text-anchor="middle" x="74.5" y="-133" font-family="Helvetica,sans-Serif" font-size="10.00">::initFromFile</text>
</a>
</g>
</g>
<!-- Node1&#45;&gt;Node4 -->
<g id="edge3" class="edge">
<title>Node1&#45;&gt;Node4</title>
<path fill="none" stroke="midnightblue" d="M174.4,-125.88C162.67,-127.67 150.45,-129.54 138.76,-131.33"/>
<polygon fill="midnightblue" stroke="midnightblue" points="175.2,-129.3 184.56,-124.32 174.14,-122.38 175.2,-129.3"/>
</g>
<!-- Node5 -->
<g id="node5" class="node">
<title>Node5</title>
<g id="a_node5"><a xlink:href="classpfate_1_1LifeHistoryOptimizer.html#aa4cb2a8040fff4223c34ca2838fadfda" target="_top" xlink:title=" ">
<polygon fill="none" stroke="black" points="0,-77 0,-107 149,-107 149,-77 0,-77"/>
<text text-anchor="start" x="8" y="-95" font-family="Helvetica,sans-Serif" font-size="10.00">pfate::LifeHistoryOptimizer</text>
<text text-anchor="middle" x="74.5" y="-84" font-family="Helvetica,sans-Serif" font-size="10.00">::LifeHistoryOptimizer</text>
</a>
</g>
</g>
<!-- Node1&#45;&gt;Node5 -->
<g id="edge4" class="edge">
<title>Node1&#45;&gt;Node5</title>
<path fill="none" stroke="midnightblue" d="M174.56,-106.54C166.23,-105.32 157.66,-104.06 149.2,-102.82"/>
<polygon fill="midnightblue" stroke="midnightblue" points="174.15,-110.02 184.56,-108.01 175.17,-103.09 174.15,-110.02"/>
</g>
<!-- Node6 -->
<g id="node6" class="node">
<title>Node6</title>
<g id="a_node6"><a xlink:href="classio_1_1Initializer.html#a6f9891f277b6e7737bce524a8387638c" target="_top" xlink:title=" ">
<polygon fill="none" stroke="black" points="19.5,-38.5 19.5,-57.5 129.5,-57.5 129.5,-38.5 19.5,-38.5"/>
<text text-anchor="middle" x="74.5" y="-45.5" font-family="Helvetica,sans-Serif" font-size="10.00">io::Initializer::parse</text>
</a>
</g>
</g>
<!-- Node1&#45;&gt;Node6 -->
<g id="edge5" class="edge">
<title>Node1&#45;&gt;Node6</title>
<path fill="none" stroke="midnightblue" d="M214.53,-101.01C196.82,-90.66 172.05,-77.15 149,-68 138.8,-63.95 127.49,-60.43 116.85,-57.51"/>
<polygon fill="midnightblue" stroke="midnightblue" points="213.2,-104.29 223.58,-106.39 216.77,-98.28 213.2,-104.29"/>
</g>
<!-- Node7 -->
<g id="node7" class="node">
<title>Node7</title>
<g id="a_node7"><a xlink:href="classpfate_1_1Patch.html#a8b436c6aac2f58c3dd3cba0c979f61d9" target="_top" xlink:title=" ">
<polygon fill="none" stroke="black" points="20.5,-0.5 20.5,-19.5 128.5,-19.5 128.5,-0.5 20.5,-0.5"/>
<text text-anchor="middle" x="74.5" y="-7.5" font-family="Helvetica,sans-Serif" font-size="10.00">pfate::Patch::Patch</text>
</a>
</g>
</g>
<!-- Node1&#45;&gt;Node7 -->
<g id="edge6" class="edge">
<title>Node1&#45;&gt;Node7</title>
<path fill="none" stroke="midnightblue" d="M225.48,-98.29C209.4,-78.45 180.71,-46.77 149,-29 142.1,-25.13 134.4,-22.04 126.65,-19.56"/>
<polygon fill="midnightblue" stroke="midnightblue" points="222.82,-100.56 231.76,-106.23 228.31,-96.22 222.82,-100.56"/>
</g>
</g>
</svg>
