<?xml version="1.0" encoding="UTF-8" standalone="no"?>
<!DOCTYPE svg PUBLIC "-//W3C//DTD SVG 1.1//EN"
 "http://www.w3.org/Graphics/SVG/1.1/DTD/svg11.dtd">
<!-- Generated by graphviz version 2.43.0 (0)
 -->
<!-- Title: MovingAverager::get Pages: 1 -->
<svg width="424pt" height="83pt"
 viewBox="0.00 0.00 424.00 83.00" xmlns="http://www.w3.org/2000/svg" xmlns:xlink="http://www.w3.org/1999/xlink">
<g id="graph0" class="graph" transform="scale(1 1) rotate(0) translate(4 79)">
<title>MovingAverager::get</title>
<!-- Node1 -->
<g id="node1" class="node">
<title>Node1</title>
<g id="a_node1"><a xlink:title=" ">
<polygon fill="#bfbfbf" stroke="black" points="298,-28 298,-47 416,-47 416,-28 298,-28"/>
<text text-anchor="middle" x="357" y="-35" font-family="Helvetica,sans-Serif" font-size="10.00">MovingAverager::get</text>
</a>
</g>
</g>
<!-- Node2 -->
<g id="node2" class="node">
<title>Node2</title>
<g id="a_node2"><a xlink:href="classMovingAverager.html#ad597933657a823696ab02aad3442c38a" target="_top" xlink:title=" ">
<polygon fill="none" stroke="black" points="137,-50 137,-69 262,-69 262,-50 137,-50"/>
<text text-anchor="middle" x="199.5" y="-57" font-family="Helvetica,sans-Serif" font-size="10.00">MovingAverager::print</text>
</a>
</g>
</g>
<!-- Node1&#45;&gt;Node2 -->
<g id="edge1" class="edge">
<title>Node1&#45;&gt;Node2</title>
<path fill="none" stroke="midnightblue" d="M287.72,-47.16C279.17,-48.37 270.47,-49.6 262.03,-50.79"/>
<polygon fill="midnightblue" stroke="midnightblue" points="288.24,-50.62 297.66,-45.75 287.26,-43.69 288.24,-50.62"/>
</g>
<!-- Node4 -->
<g id="node4" class="node">
<title>Node4</title>
<g id="a_node4"><a xlink:href="classMovingAverager.html#a578724e83460084fc603df56f601ba46" target="_top" xlink:title=" ">
<polygon fill="none" stroke="black" points="137,-0.5 137,-30.5 262,-30.5 262,-0.5 137,-0.5"/>
<text text-anchor="start" x="145" y="-18.5" font-family="Helvetica,sans-Serif" font-size="10.00">MovingAverager::print</text>
<text text-anchor="middle" x="199.5" y="-7.5" font-family="Helvetica,sans-Serif" font-size="10.00">_summary</text>
</a>
</g>
</g>
<!-- Node1&#45;&gt;Node4 -->
<g id="edge3" class="edge">
<title>Node1&#45;&gt;Node4</title>
<path fill="none" stroke="midnightblue" d="M287.72,-27.84C279.17,-26.63 270.47,-25.4 262.03,-24.21"/>
<polygon fill="midnightblue" stroke="midnightblue" points="287.26,-31.31 297.66,-29.25 288.24,-24.38 287.26,-31.31"/>
</g>
<!-- Node3 -->
<g id="node3" class="node">
<title>Node3</title>
<g id="a_node3"><a xlink:href="group__trait__evolution.html#ga493d1e9d19f70f7e122897c6aac0abf1" target="_top" xlink:title="Calculate growth rates of all species and update seed input.">
<polygon fill="none" stroke="black" points="0,-44.5 0,-74.5 101,-74.5 101,-44.5 0,-44.5"/>
<text text-anchor="start" x="8" y="-62.5" font-family="Helvetica,sans-Serif" font-size="10.00">pfate::Patch::calc</text>
<text text-anchor="middle" x="50.5" y="-51.5" font-family="Helvetica,sans-Serif" font-size="10.00">_seedrain_r0</text>
</a>
</g>
</g>
<!-- Node2&#45;&gt;Node3 -->
<g id="edge2" class="edge">
<title>Node2&#45;&gt;Node3</title>
<path fill="none" stroke="midnightblue" d="M126.31,-59.5C117.85,-59.5 109.36,-59.5 101.3,-59.5"/>
<polygon fill="midnightblue" stroke="midnightblue" points="126.58,-63 136.58,-59.5 126.58,-56 126.58,-63"/>
</g>
</g>
</svg>
