<?xml version="1.0" encoding="UTF-8" standalone="no"?>
<!DOCTYPE svg PUBLIC "-//W3C//DTD SVG 1.1//EN"
 "http://www.w3.org/Graphics/SVG/1.1/DTD/svg11.dtd">
<!-- Generated by graphviz version 2.43.0 (0)
 -->
<!-- Title: plant::Plant::set_size Pages: 1 -->
<svg width="807pt" height="138pt"
 viewBox="0.00 0.00 807.00 138.46" xmlns="http://www.w3.org/2000/svg" xmlns:xlink="http://www.w3.org/1999/xlink">
<g id="graph0" class="graph" transform="scale(1 1) rotate(0) translate(4 134.46)">
<title>plant::Plant::set_size</title>
<!-- Node1 -->
<g id="node1" class="node">
<title>Node1</title>
<g id="a_node1"><a xlink:title="Set size (diameter and all associated variables) from x.">
<polygon fill="#bfbfbf" stroke="black" points="681,-74 681,-93 799,-93 799,-74 681,-74"/>
<text text-anchor="middle" x="740" y="-81" font-family="Helvetica,sans-Serif" font-size="10.00">plant::Plant::set_size</text>
</a>
</g>
</g>
<!-- Node2 -->
<g id="node2" class="node">
<title>Node2</title>
<g id="a_node2"><a xlink:href="classpfate_1_1LifeHistoryOptimizer.html#a498360fd80194590570542dcecd524c7" target="_top" xlink:title=" ">
<polygon fill="none" stroke="black" points="311,-93.5 311,-123.5 460,-123.5 460,-93.5 311,-93.5"/>
<text text-anchor="start" x="319" y="-111.5" font-family="Helvetica,sans-Serif" font-size="10.00">pfate::LifeHistoryOptimizer</text>
<text text-anchor="middle" x="385.5" y="-100.5" font-family="Helvetica,sans-Serif" font-size="10.00">::init</text>
</a>
</g>
</g>
<!-- Node1&#45;&gt;Node2 -->
<g id="edge1" class="edge">
<title>Node1&#45;&gt;Node2</title>
<path fill="none" stroke="midnightblue" d="M670.58,-88.35C610.1,-92.64 522.1,-98.88 460.11,-103.28"/>
<polygon fill="midnightblue" stroke="midnightblue" points="671.06,-91.83 680.79,-87.63 670.57,-84.84 671.06,-91.83"/>
</g>
<!-- Node5 -->
<g id="node5" class="node">
<title>Node5</title>
<g id="a_node5"><a xlink:href="classpfate_1_1LifeHistoryOptimizer.html#a72fdc4d5a3ac119efcb676a1f4436156" target="_top" xlink:title=" ">
<polygon fill="none" stroke="black" points="496,-46.5 496,-76.5 645,-76.5 645,-46.5 496,-46.5"/>
<text text-anchor="start" x="504" y="-64.5" font-family="Helvetica,sans-Serif" font-size="10.00">pfate::LifeHistoryOptimizer</text>
<text text-anchor="middle" x="570.5" y="-53.5" font-family="Helvetica,sans-Serif" font-size="10.00">::set_state</text>
</a>
</g>
</g>
<!-- Node1&#45;&gt;Node5 -->
<g id="edge4" class="edge">
<title>Node1&#45;&gt;Node5</title>
<path fill="none" stroke="midnightblue" d="M670.73,-74.53C662.3,-73.43 653.66,-72.29 645.15,-71.17"/>
<polygon fill="midnightblue" stroke="midnightblue" points="670.52,-78.04 680.89,-75.87 671.43,-71.09 670.52,-78.04"/>
</g>
<!-- Node3 -->
<g id="node3" class="node">
<title>Node3</title>
<g id="a_node3"><a xlink:href="lho_8cpp.html#ae66f6b31b5ad750f1fe042a706a4e3d4" target="_top" xlink:title=" ">
<polygon fill="none" stroke="black" points="180,-88 180,-107 221,-107 221,-88 180,-88"/>
<text text-anchor="middle" x="200.5" y="-95" font-family="Helvetica,sans-Serif" font-size="10.00">main</text>
</a>
</g>
</g>
<!-- Node2&#45;&gt;Node3 -->
<g id="edge2" class="edge">
<title>Node2&#45;&gt;Node3</title>
<path fill="none" stroke="midnightblue" d="M300.85,-103.47C271.17,-101.69 240.38,-99.84 221.1,-98.68"/>
<polygon fill="midnightblue" stroke="midnightblue" points="300.67,-106.97 310.86,-104.07 301.09,-99.98 300.67,-106.97"/>
</g>
<!-- Node4 -->
<g id="node4" class="node">
<title>Node4</title>
<g id="a_node4"><a xlink:href="r__interface_8cpp.html#a7897b94cdc1a829775ac5241571cd456" target="_top" xlink:title=" ">
<polygon fill="none" stroke="black" points="0,-50 0,-69 90,-69 90,-50 0,-50"/>
<text text-anchor="middle" x="45" y="-57" font-family="Helvetica,sans-Serif" font-size="10.00">RCPP_MODULE</text>
</a>
</g>
</g>
<!-- Node2&#45;&gt;Node4 -->
<g id="edge3" class="edge">
<title>Node2&#45;&gt;Node4</title>
<path fill="none" stroke="midnightblue" d="M301.53,-124.95C249.84,-131.85 182.63,-134.61 126,-116.5 96.76,-107.15 69.09,-82.77 55.24,-69.12"/>
<polygon fill="midnightblue" stroke="midnightblue" points="302.25,-128.39 311.66,-123.53 301.27,-121.46 302.25,-128.39"/>
</g>
<!-- Node6 -->
<g id="node6" class="node">
<title>Node6</title>
<g id="a_node6"><a xlink:href="classpfate_1_1LifeHistoryOptimizer.html#ad68ae2c0d92d28dbe0cc5d5ef03a695b" target="_top" xlink:title=" ">
<polygon fill="none" stroke="black" points="311,-44.5 311,-74.5 460,-74.5 460,-44.5 311,-44.5"/>
<text text-anchor="start" x="319" y="-62.5" font-family="Helvetica,sans-Serif" font-size="10.00">pfate::LifeHistoryOptimizer</text>
<text text-anchor="middle" x="385.5" y="-51.5" font-family="Helvetica,sans-Serif" font-size="10.00">::grow_for_dt</text>
</a>
</g>
</g>
<!-- Node5&#45;&gt;Node6 -->
<g id="edge5" class="edge">
<title>Node5&#45;&gt;Node6</title>
<path fill="none" stroke="midnightblue" d="M485.61,-60.58C477.16,-60.49 468.62,-60.4 460.29,-60.31"/>
<polygon fill="midnightblue" stroke="midnightblue" points="485.82,-64.09 495.86,-60.7 485.9,-57.09 485.82,-64.09"/>
</g>
<!-- Node6&#45;&gt;Node3 -->
<g id="edge8" class="edge">
<title>Node6&#45;&gt;Node3</title>
<path fill="none" stroke="midnightblue" d="M302.04,-76.62C271.95,-82.87 240.55,-89.39 221.01,-93.45"/>
<polygon fill="midnightblue" stroke="midnightblue" points="303.09,-79.98 312.17,-74.52 301.67,-73.12 303.09,-79.98"/>
</g>
<!-- Node6&#45;&gt;Node4 -->
<g id="edge9" class="edge">
<title>Node6&#45;&gt;Node4</title>
<path fill="none" stroke="midnightblue" d="M300.57,-59.5C233.93,-59.5 143.4,-59.5 90.19,-59.5"/>
<polygon fill="midnightblue" stroke="midnightblue" points="300.63,-63 310.63,-59.5 300.63,-56 300.63,-63"/>
</g>
<!-- Node7 -->
<g id="node7" class="node">
<title>Node7</title>
<g id="a_node7"><a xlink:href="classpfate_1_1LifeHistoryOptimizer.html#a34aebe9641428e3d0bcb1d59ec936e8f" target="_top" xlink:title=" ">
<polygon fill="none" stroke="black" points="126,-0.5 126,-30.5 275,-30.5 275,-0.5 126,-0.5"/>
<text text-anchor="start" x="134" y="-18.5" font-family="Helvetica,sans-Serif" font-size="10.00">pfate::LifeHistoryOptimizer</text>
<text text-anchor="middle" x="200.5" y="-7.5" font-family="Helvetica,sans-Serif" font-size="10.00">::calcFitness</text>
</a>
</g>
</g>
<!-- Node6&#45;&gt;Node7 -->
<g id="edge6" class="edge">
<title>Node6&#45;&gt;Node7</title>
<path fill="none" stroke="midnightblue" d="M312.23,-42.12C296.28,-38.29 279.52,-34.26 264,-30.53"/>
<polygon fill="midnightblue" stroke="midnightblue" points="311.49,-45.55 322.03,-44.48 313.13,-38.74 311.49,-45.55"/>
</g>
<!-- Node7&#45;&gt;Node4 -->
<g id="edge7" class="edge">
<title>Node7&#45;&gt;Node4</title>
<path fill="none" stroke="midnightblue" d="M137.22,-33.35C117.44,-39.02 96.34,-45.07 79.42,-49.92"/>
<polygon fill="midnightblue" stroke="midnightblue" points="138.45,-36.64 147.1,-30.52 136.53,-29.91 138.45,-36.64"/>
</g>
</g>
</svg>
