<?xml version="1.0" encoding="UTF-8" standalone="no"?>
<!DOCTYPE svg PUBLIC "-//W3C//DTD SVG 1.1//EN"
 "http://www.w3.org/Graphics/SVG/1.1/DTD/svg11.dtd">
<!-- Generated by graphviz version 2.43.0 (0)
 -->
<!-- Title: inst/include/climate_stream.h Pages: 1 -->
<svg width="489pt" height="151pt"
 viewBox="0.00 0.00 488.50 151.00" xmlns="http://www.w3.org/2000/svg" xmlns:xlink="http://www.w3.org/1999/xlink">
<g id="graph0" class="graph" transform="scale(1 1) rotate(0) translate(4 147)">
<title>inst/include/climate_stream.h</title>
<!-- Node1 -->
<g id="node1" class="node">
<title>Node1</title>
<g id="a_node1"><a xlink:title=" ">
<polygon fill="#bfbfbf" stroke="black" points="212.5,-112.5 212.5,-142.5 325.5,-142.5 325.5,-112.5 212.5,-112.5"/>
<text text-anchor="start" x="220.5" y="-130.5" font-family="Helvetica,sans-Serif" font-size="10.00">inst/include/climate</text>
<text text-anchor="middle" x="269" y="-119.5" font-family="Helvetica,sans-Serif" font-size="10.00">_stream.h</text>
</a>
</g>
</g>
<!-- Node2 -->
<g id="node2" class="node">
<title>Node2</title>
<g id="a_node2"><a xlink:title=" ">
<polygon fill="none" stroke="#bfbfbf" points="0,-0.5 0,-19.5 44,-19.5 44,-0.5 0,-0.5"/>
<text text-anchor="middle" x="22" y="-7.5" font-family="Helvetica,sans-Serif" font-size="10.00">string</text>
</a>
</g>
</g>
<!-- Node1&#45;&gt;Node2 -->
<g id="edge1" class="edge">
<title>Node1&#45;&gt;Node2</title>
<path fill="none" stroke="midnightblue" d="M234.1,-112.43C210.23,-102.62 177.98,-89.02 150,-76 113.73,-59.12 72.63,-37.86 47.01,-24.34"/>
<polygon fill="midnightblue" stroke="midnightblue" points="48.47,-21.15 37.99,-19.57 45.19,-27.34 48.47,-21.15"/>
</g>
<!-- Node3 -->
<g id="node3" class="node">
<title>Node3</title>
<g id="a_node3"><a xlink:title=" ">
<polygon fill="none" stroke="#bfbfbf" points="62.5,-0.5 62.5,-19.5 117.5,-19.5 117.5,-0.5 62.5,-0.5"/>
<text text-anchor="middle" x="90" y="-7.5" font-family="Helvetica,sans-Serif" font-size="10.00">fstream</text>
</a>
</g>
</g>
<!-- Node1&#45;&gt;Node3 -->
<g id="edge2" class="edge">
<title>Node1&#45;&gt;Node3</title>
<path fill="none" stroke="midnightblue" d="M243.52,-112.5C225.98,-102.67 202.28,-89.02 182,-76 156.4,-59.57 127.94,-39.11 109.55,-25.58"/>
<polygon fill="midnightblue" stroke="midnightblue" points="111.51,-22.68 101.39,-19.55 107.35,-28.31 111.51,-22.68"/>
</g>
<!-- Node4 -->
<g id="node4" class="node">
<title>Node4</title>
<g id="a_node4"><a xlink:title=" ">
<polygon fill="none" stroke="#bfbfbf" points="136,-0.5 136,-19.5 192,-19.5 192,-0.5 136,-0.5"/>
<text text-anchor="middle" x="164" y="-7.5" font-family="Helvetica,sans-Serif" font-size="10.00">sstream</text>
</a>
</g>
</g>
<!-- Node1&#45;&gt;Node4 -->
<g id="edge3" class="edge">
<title>Node1&#45;&gt;Node4</title>
<path fill="none" stroke="midnightblue" d="M244.58,-112.36C230.35,-103.27 212.76,-90.48 200,-76 187.63,-61.96 177.72,-42.97 171.46,-29.14"/>
<polygon fill="midnightblue" stroke="midnightblue" points="174.57,-27.53 167.39,-19.74 168.15,-30.31 174.57,-27.53"/>
</g>
<!-- Node5 -->
<g id="node5" class="node">
<title>Node5</title>
<g id="a_node5"><a xlink:title=" ">
<polygon fill="none" stroke="#bfbfbf" points="288,-0.5 288,-19.5 348,-19.5 348,-0.5 288,-0.5"/>
<text text-anchor="middle" x="318" y="-7.5" font-family="Helvetica,sans-Serif" font-size="10.00">iostream</text>
</a>
</g>
</g>
<!-- Node1&#45;&gt;Node5 -->
<g id="edge4" class="edge">
<title>Node1&#45;&gt;Node5</title>
<path fill="none" stroke="midnightblue" d="M275.01,-112.34C283.92,-91.34 300.63,-51.96 310.38,-28.96"/>
<polygon fill="midnightblue" stroke="midnightblue" points="313.64,-30.24 314.32,-19.67 307.19,-27.51 313.64,-30.24"/>
</g>
<!-- Node6 -->
<g id="node6" class="node">
<title>Node6</title>
<g id="a_node6"><a xlink:title=" ">
<polygon fill="none" stroke="#bfbfbf" points="366.5,-0.5 366.5,-19.5 413.5,-19.5 413.5,-0.5 366.5,-0.5"/>
<text text-anchor="middle" x="390" y="-7.5" font-family="Helvetica,sans-Serif" font-size="10.00">cmath</text>
</a>
</g>
</g>
<!-- Node1&#45;&gt;Node6 -->
<g id="edge5" class="edge">
<title>Node1&#45;&gt;Node6</title>
<path fill="none" stroke="midnightblue" d="M283.84,-112.34C306.53,-90.68 349.72,-49.45 373.41,-26.83"/>
<polygon fill="midnightblue" stroke="midnightblue" points="376.1,-29.11 380.92,-19.67 371.27,-24.04 376.1,-29.11"/>
</g>
<!-- Node7 -->
<g id="node7" class="node">
<title>Node7</title>
<g id="a_node7"><a xlink:title=" ">
<polygon fill="none" stroke="#bfbfbf" points="431.5,-0.5 431.5,-19.5 478.5,-19.5 478.5,-0.5 431.5,-0.5"/>
<text text-anchor="middle" x="455" y="-7.5" font-family="Helvetica,sans-Serif" font-size="10.00">vector</text>
</a>
</g>
</g>
<!-- Node1&#45;&gt;Node7 -->
<g id="edge6" class="edge">
<title>Node1&#45;&gt;Node7</title>
<path fill="none" stroke="midnightblue" d="M291.81,-112.34C327.6,-90.11 396.58,-47.28 432.3,-25.09"/>
<polygon fill="midnightblue" stroke="midnightblue" points="434.39,-27.92 441.04,-19.67 430.7,-21.97 434.39,-27.92"/>
</g>
<!-- Node8 -->
<g id="node8" class="node">
<title>Node8</title>
<g id="a_node8"><a xlink:href="climate_8h.html" target="_top" xlink:title=" ">
<polygon fill="none" stroke="black" points="209,-56.5 209,-75.5 271,-75.5 271,-56.5 209,-56.5"/>
<text text-anchor="middle" x="240" y="-63.5" font-family="Helvetica,sans-Serif" font-size="10.00">climate.h</text>
</a>
</g>
</g>
<!-- Node1&#45;&gt;Node8 -->
<g id="edge7" class="edge">
<title>Node1&#45;&gt;Node8</title>
<path fill="none" stroke="midnightblue" d="M262.13,-112.4C258.09,-104.11 252.94,-93.55 248.63,-84.71"/>
<polygon fill="midnightblue" stroke="midnightblue" points="251.75,-83.11 244.22,-75.66 245.45,-86.18 251.75,-83.11"/>
</g>
<!-- Node10 -->
<g id="node10" class="node">
<title>Node10</title>
<g id="a_node10"><a xlink:title=" ">
<polygon fill="none" stroke="#bfbfbf" points="403.5,-56.5 403.5,-75.5 480.5,-75.5 480.5,-56.5 403.5,-56.5"/>
<text text-anchor="middle" x="442" y="-63.5" font-family="Helvetica,sans-Serif" font-size="10.00">csvstream.h</text>
</a>
</g>
</g>
<!-- Node1&#45;&gt;Node10 -->
<g id="edge15" class="edge">
<title>Node1&#45;&gt;Node10</title>
<path fill="none" stroke="midnightblue" d="M310,-112.4C339.63,-102.21 379.23,-88.59 407.3,-78.93"/>
<polygon fill="midnightblue" stroke="midnightblue" points="408.76,-82.13 417.08,-75.57 406.48,-75.51 408.76,-82.13"/>
</g>
<!-- Node8&#45;&gt;Node2 -->
<g id="edge8" class="edge">
<title>Node8&#45;&gt;Node2</title>
<path fill="none" stroke="midnightblue" d="M208.79,-57.96C173.53,-49.9 114.22,-36.03 54.32,-20.26"/>
<polygon fill="midnightblue" stroke="midnightblue" points="54.88,-16.79 44.32,-17.61 53.09,-23.56 54.88,-16.79"/>
</g>
<!-- Node8&#45;&gt;Node3 -->
<g id="edge9" class="edge">
<title>Node8&#45;&gt;Node3</title>
<path fill="none" stroke="midnightblue" d="M216.23,-56.44C191.11,-47.4 151.29,-33.06 123.1,-22.92"/>
<polygon fill="midnightblue" stroke="midnightblue" points="124.25,-19.61 113.66,-19.52 121.88,-26.2 124.25,-19.61"/>
</g>
<!-- Node8&#45;&gt;Node4 -->
<g id="edge10" class="edge">
<title>Node8&#45;&gt;Node4</title>
<path fill="none" stroke="midnightblue" d="M227.79,-56.32C216.22,-48.11 198.62,-35.6 184.84,-25.81"/>
<polygon fill="midnightblue" stroke="midnightblue" points="186.61,-22.77 176.43,-19.83 182.56,-28.48 186.61,-22.77"/>
</g>
<!-- Node8&#45;&gt;Node5 -->
<g id="edge11" class="edge">
<title>Node8&#45;&gt;Node5</title>
<path fill="none" stroke="midnightblue" d="M252.53,-56.32C264.59,-47.98 283.03,-35.21 297.27,-25.35"/>
<polygon fill="midnightblue" stroke="midnightblue" points="299.27,-28.22 305.5,-19.65 295.28,-22.47 299.27,-28.22"/>
</g>
<!-- Node8&#45;&gt;Node6 -->
<g id="edge12" class="edge">
<title>Node8&#45;&gt;Node6</title>
<path fill="none" stroke="midnightblue" d="M263.77,-56.44C288.89,-47.4 328.71,-33.06 356.9,-22.92"/>
<polygon fill="midnightblue" stroke="midnightblue" points="358.12,-26.2 366.34,-19.52 355.75,-19.61 358.12,-26.2"/>
</g>
<!-- Node8&#45;&gt;Node7 -->
<g id="edge13" class="edge">
<title>Node8&#45;&gt;Node7</title>
<path fill="none" stroke="midnightblue" d="M271.16,-57.67C305.72,-49.47 363.36,-35.57 421.54,-20.33"/>
<polygon fill="midnightblue" stroke="midnightblue" points="422.48,-23.7 431.26,-17.77 420.7,-16.93 422.48,-23.7"/>
</g>
<!-- Node9 -->
<g id="node9" class="node">
<title>Node9</title>
<g id="a_node9"><a xlink:title=" ">
<polygon fill="none" stroke="#bfbfbf" points="210.5,-0.5 210.5,-19.5 269.5,-19.5 269.5,-0.5 210.5,-0.5"/>
<text text-anchor="middle" x="240" y="-7.5" font-family="Helvetica,sans-Serif" font-size="10.00">phydro.h</text>
</a>
</g>
</g>
<!-- Node8&#45;&gt;Node9 -->
<g id="edge14" class="edge">
<title>Node8&#45;&gt;Node9</title>
<path fill="none" stroke="midnightblue" d="M240,-56.08C240,-49.01 240,-38.86 240,-29.99"/>
<polygon fill="midnightblue" stroke="midnightblue" points="243.5,-29.75 240,-19.75 236.5,-29.75 243.5,-29.75"/>
</g>
</g>
</svg>
