<?xml version="1.0" encoding="UTF-8" standalone="no"?>
<!DOCTYPE svg PUBLIC "-//W3C//DTD SVG 1.1//EN"
 "http://www.w3.org/Graphics/SVG/1.1/DTD/svg11.dtd">
<!-- Generated by graphviz version 2.43.0 (0)
 -->
<!-- Title: inst/include/climate.h Pages: 1 -->
<svg width="1027pt" height="285pt"
 viewBox="0.00 0.00 1026.50 285.00" xmlns="http://www.w3.org/2000/svg" xmlns:xlink="http://www.w3.org/1999/xlink">
<g id="graph0" class="graph" transform="scale(1 1) rotate(0) translate(4 281)">
<title>inst/include/climate.h</title>
<!-- Node1 -->
<g id="node1" class="node">
<title>Node1</title>
<g id="a_node1"><a xlink:title=" ">
<polygon fill="#bfbfbf" stroke="black" points="165,-257.5 165,-276.5 287,-276.5 287,-257.5 165,-257.5"/>
<text text-anchor="middle" x="226" y="-264.5" font-family="Helvetica,sans-Serif" font-size="10.00">inst/include/climate.h</text>
</a>
</g>
</g>
<!-- Node2 -->
<g id="node2" class="node">
<title>Node2</title>
<g id="a_node2"><a xlink:href="climate_8cpp.html" target="_top" xlink:title=" ">
<polygon fill="none" stroke="black" points="21.5,-196 21.5,-215 112.5,-215 112.5,-196 21.5,-196"/>
<text text-anchor="middle" x="67" y="-203" font-family="Helvetica,sans-Serif" font-size="10.00">src/climate.cpp</text>
</a>
</g>
</g>
<!-- Node1&#45;&gt;Node2 -->
<g id="edge1" class="edge">
<title>Node1&#45;&gt;Node2</title>
<path fill="none" stroke="midnightblue" d="M193.75,-253.93C162.85,-242.37 116.99,-225.21 89.74,-215.01"/>
<polygon fill="midnightblue" stroke="midnightblue" points="192.63,-257.25 203.22,-257.48 195.08,-250.69 192.63,-257.25"/>
</g>
<!-- Node3 -->
<g id="node3" class="node">
<title>Node3</title>
<g id="a_node3"><a xlink:href="r__interface_8cpp.html" target="_top" xlink:title=" ">
<polygon fill="none" stroke="black" points="274.5,-0.5 274.5,-19.5 381.5,-19.5 381.5,-0.5 274.5,-0.5"/>
<text text-anchor="middle" x="328" y="-7.5" font-family="Helvetica,sans-Serif" font-size="10.00">src/r_interface.cpp</text>
</a>
</g>
</g>
<!-- Node1&#45;&gt;Node3 -->
<g id="edge2" class="edge">
<title>Node1&#45;&gt;Node3</title>
<path fill="none" stroke="midnightblue" d="M255.12,-252.5C268.09,-245.02 282.36,-234.48 291,-221 334.14,-153.67 330.82,-50.46 328.73,-19.85"/>
<polygon fill="midnightblue" stroke="midnightblue" points="253.16,-249.59 246.01,-257.41 256.47,-255.75 253.16,-249.59"/>
</g>
<!-- Node4 -->
<g id="node4" class="node">
<title>Node4</title>
<g id="a_node4"><a xlink:href="climate__stream_8h.html" target="_top" xlink:title=" ">
<polygon fill="none" stroke="black" points="169.5,-190.5 169.5,-220.5 282.5,-220.5 282.5,-190.5 169.5,-190.5"/>
<text text-anchor="start" x="177.5" y="-208.5" font-family="Helvetica,sans-Serif" font-size="10.00">inst/include/climate</text>
<text text-anchor="middle" x="226" y="-197.5" font-family="Helvetica,sans-Serif" font-size="10.00">_stream.h</text>
</a>
</g>
</g>
<!-- Node1&#45;&gt;Node4 -->
<g id="edge3" class="edge">
<title>Node1&#45;&gt;Node4</title>
<path fill="none" stroke="midnightblue" d="M226,-247.23C226,-238.59 226,-228.5 226,-220.52"/>
<polygon fill="midnightblue" stroke="midnightblue" points="222.5,-247.48 226,-257.48 229.5,-247.48 222.5,-247.48"/>
</g>
<!-- Node6 -->
<g id="node6" class="node">
<title>Node6</title>
<g id="a_node6"><a xlink:href="life__history_8h.html" target="_top" xlink:title=" ">
<polygon fill="none" stroke="black" points="0,-129 0,-148 138,-148 138,-129 0,-129"/>
<text text-anchor="middle" x="69" y="-136" font-family="Helvetica,sans-Serif" font-size="10.00">inst/include/life_history.h</text>
</a>
</g>
</g>
<!-- Node1&#45;&gt;Node6 -->
<g id="edge14" class="edge">
<title>Node1&#45;&gt;Node6</title>
<path fill="none" stroke="midnightblue" d="M203.46,-251.7C190.46,-243.19 173.97,-231.94 160,-221 128.28,-196.15 93.52,-163.3 77.7,-148"/>
<polygon fill="midnightblue" stroke="midnightblue" points="201.93,-254.88 212.23,-257.37 205.74,-249 201.93,-254.88"/>
</g>
<!-- Node13 -->
<g id="node13" class="node">
<title>Node13</title>
<g id="a_node13"><a xlink:href="pspm__interface_8h.html" target="_top" xlink:title=" ">
<polygon fill="none" stroke="black" points="524.5,-196 524.5,-215 685.5,-215 685.5,-196 524.5,-196"/>
<text text-anchor="middle" x="605" y="-203" font-family="Helvetica,sans-Serif" font-size="10.00">inst/include/pspm_interface.h</text>
</a>
</g>
</g>
<!-- Node1&#45;&gt;Node13 -->
<g id="edge15" class="edge">
<title>Node1&#45;&gt;Node13</title>
<path fill="none" stroke="midnightblue" d="M290.33,-255.9C363.6,-244.4 482.04,-225.8 550.8,-215.01"/>
<polygon fill="midnightblue" stroke="midnightblue" points="289.64,-252.47 280.3,-257.48 290.72,-259.38 289.64,-252.47"/>
</g>
<!-- Node5 -->
<g id="node5" class="node">
<title>Node5</title>
<g id="a_node5"><a xlink:href="climate__stream_8cpp.html" target="_top" xlink:title=" ">
<polygon fill="none" stroke="black" points="156.5,-129 156.5,-148 287.5,-148 287.5,-129 156.5,-129"/>
<text text-anchor="middle" x="222" y="-136" font-family="Helvetica,sans-Serif" font-size="10.00">src/climate_stream.cpp</text>
</a>
</g>
</g>
<!-- Node4&#45;&gt;Node5 -->
<g id="edge4" class="edge">
<title>Node4&#45;&gt;Node5</title>
<path fill="none" stroke="midnightblue" d="M224.51,-180.25C223.82,-169.02 223.04,-156.38 222.54,-148.19"/>
<polygon fill="midnightblue" stroke="midnightblue" points="221.02,-180.63 225.13,-190.4 228.01,-180.2 221.02,-180.63"/>
</g>
<!-- Node4&#45;&gt;Node6 -->
<g id="edge5" class="edge">
<title>Node4&#45;&gt;Node6</title>
<path fill="none" stroke="midnightblue" d="M182.42,-186.46C152.09,-173.9 113.02,-157.72 89.55,-148.01"/>
<polygon fill="midnightblue" stroke="midnightblue" points="181.36,-189.8 191.93,-190.4 184.03,-183.34 181.36,-189.8"/>
</g>
<!-- Node9 -->
<g id="node9" class="node">
<title>Node9</title>
<g id="a_node9"><a xlink:href="plantfate__patch_8h.html" target="_top" xlink:title=" ">
<polygon fill="none" stroke="black" points="527,-56.5 527,-86.5 647,-86.5 647,-56.5 527,-56.5"/>
<text text-anchor="start" x="535" y="-74.5" font-family="Helvetica,sans-Serif" font-size="10.00">inst/include/plantfate</text>
<text text-anchor="middle" x="587" y="-63.5" font-family="Helvetica,sans-Serif" font-size="10.00">_patch.h</text>
</a>
</g>
</g>
<!-- Node4&#45;&gt;Node9 -->
<g id="edge9" class="edge">
<title>Node4&#45;&gt;Node9</title>
<path fill="none" stroke="midnightblue" d="M264.05,-185.92C301.03,-168.3 359.04,-141.8 411,-123 450.46,-108.72 496.02,-95.74 530.9,-86.52"/>
<polygon fill="midnightblue" stroke="midnightblue" points="262.17,-182.94 254.66,-190.42 265.19,-189.25 262.17,-182.94"/>
</g>
<!-- Node6&#45;&gt;Node3 -->
<g id="edge7" class="edge">
<title>Node6&#45;&gt;Node3</title>
<path fill="none" stroke="midnightblue" d="M54.5,-121.06C40.59,-103.24 23.89,-74.83 40,-56 69.57,-21.45 199.61,-13.23 274.44,-11.4"/>
<polygon fill="midnightblue" stroke="midnightblue" points="51.89,-123.39 60.95,-128.87 57.28,-118.93 51.89,-123.39"/>
</g>
<!-- Node7 -->
<g id="node7" class="node">
<title>Node7</title>
<g id="a_node7"><a xlink:href="life__history_8cpp.html" target="_top" xlink:title=" ">
<polygon fill="none" stroke="black" points="49.5,-62 49.5,-81 156.5,-81 156.5,-62 49.5,-62"/>
<text text-anchor="middle" x="103" y="-69" font-family="Helvetica,sans-Serif" font-size="10.00">src/life_history.cpp</text>
</a>
</g>
</g>
<!-- Node6&#45;&gt;Node7 -->
<g id="edge6" class="edge">
<title>Node6&#45;&gt;Node7</title>
<path fill="none" stroke="midnightblue" d="M78.33,-119.66C84.89,-107.13 93.37,-90.91 98.49,-81.13"/>
<polygon fill="midnightblue" stroke="midnightblue" points="75.12,-118.25 73.59,-128.73 81.32,-121.5 75.12,-118.25"/>
</g>
<!-- Node8 -->
<g id="node8" class="node">
<title>Node8</title>
<g id="a_node8"><a xlink:href="lho_8cpp.html" target="_top" xlink:title=" ">
<polygon fill="none" stroke="black" points="174.5,-62 174.5,-81 253.5,-81 253.5,-62 174.5,-62"/>
<text text-anchor="middle" x="214" y="-69" font-family="Helvetica,sans-Serif" font-size="10.00">tests/lho.cpp</text>
</a>
</g>
</g>
<!-- Node6&#45;&gt;Node8 -->
<g id="edge8" class="edge">
<title>Node6&#45;&gt;Node8</title>
<path fill="none" stroke="midnightblue" d="M97.75,-124.61C126.47,-111.74 169.82,-92.31 194.67,-81.17"/>
<polygon fill="midnightblue" stroke="midnightblue" points="95.95,-121.58 88.25,-128.87 98.81,-127.97 95.95,-121.58"/>
</g>
<!-- Node9&#45;&gt;Node3 -->
<g id="edge12" class="edge">
<title>Node9&#45;&gt;Node3</title>
<path fill="none" stroke="midnightblue" d="M517.05,-54.43C468.18,-43.2 404.85,-28.65 365.32,-19.57"/>
<polygon fill="midnightblue" stroke="midnightblue" points="516.4,-57.87 526.93,-56.7 517.97,-51.05 516.4,-57.87"/>
</g>
<!-- Node10 -->
<g id="node10" class="node">
<title>Node10</title>
<g id="a_node10"><a xlink:href="community__properties_8cpp.html" target="_top" xlink:title=" ">
<polygon fill="none" stroke="black" points="701,-0.5 701,-19.5 865,-19.5 865,-0.5 701,-0.5"/>
<text text-anchor="middle" x="783" y="-7.5" font-family="Helvetica,sans-Serif" font-size="10.00">src/community_properties.cpp</text>
</a>
</g>
</g>
<!-- Node9&#45;&gt;Node10 -->
<g id="edge10" class="edge">
<title>Node9&#45;&gt;Node10</title>
<path fill="none" stroke="midnightblue" d="M643.46,-53.36C679.92,-42.29 725.79,-28.37 754.77,-19.57"/>
<polygon fill="midnightblue" stroke="midnightblue" points="642,-50.15 633.45,-56.4 644.03,-56.84 642,-50.15"/>
</g>
<!-- Node11 -->
<g id="node11" class="node">
<title>Node11</title>
<g id="a_node11"><a xlink:href="plantfate__patch_8cpp.html" target="_top" xlink:title=" ">
<polygon fill="none" stroke="black" points="548.5,-0.5 548.5,-19.5 679.5,-19.5 679.5,-0.5 548.5,-0.5"/>
<text text-anchor="middle" x="614" y="-7.5" font-family="Helvetica,sans-Serif" font-size="10.00">src/plantfate_patch.cpp</text>
</a>
</g>
</g>
<!-- Node9&#45;&gt;Node11 -->
<g id="edge11" class="edge">
<title>Node9&#45;&gt;Node11</title>
<path fill="none" stroke="midnightblue" d="M597.57,-47.2C601.97,-37.52 606.79,-26.88 610.07,-19.66"/>
<polygon fill="midnightblue" stroke="midnightblue" points="594.34,-45.85 593.4,-56.4 600.72,-48.74 594.34,-45.85"/>
</g>
<!-- Node12 -->
<g id="node12" class="node">
<title>Node12</title>
<g id="a_node12"><a xlink:href="state__restore_8cpp.html" target="_top" xlink:title=" ">
<polygon fill="none" stroke="black" points="411.5,-0.5 411.5,-19.5 530.5,-19.5 530.5,-0.5 411.5,-0.5"/>
<text text-anchor="middle" x="471" y="-7.5" font-family="Helvetica,sans-Serif" font-size="10.00">src/state_restore.cpp</text>
</a>
</g>
</g>
<!-- Node9&#45;&gt;Node12 -->
<g id="edge13" class="edge">
<title>Node9&#45;&gt;Node12</title>
<path fill="none" stroke="midnightblue" d="M550.53,-51.8C529.57,-41.04 504.23,-28.05 487.88,-19.66"/>
<polygon fill="midnightblue" stroke="midnightblue" points="549.01,-54.95 559.51,-56.4 552.21,-48.72 549.01,-54.95"/>
</g>
<!-- Node13&#45;&gt;Node3 -->
<g id="edge18" class="edge">
<title>Node13&#45;&gt;Node3</title>
<path fill="none" stroke="midnightblue" d="M513.97,-195.89C479.04,-188.93 440.51,-176.42 411,-154 363,-117.53 337.9,-44.67 330.43,-19.66"/>
<polygon fill="midnightblue" stroke="midnightblue" points="513.73,-199.4 524.2,-197.79 515.01,-192.52 513.73,-199.4"/>
</g>
<!-- Node13&#45;&gt;Node9 -->
<g id="edge22" class="edge">
<title>Node13&#45;&gt;Node9</title>
<path fill="none" stroke="midnightblue" d="M636.66,-191.61C652.43,-183.38 670.01,-171.01 679,-154 685.44,-141.82 686.02,-134.86 679,-123 668.98,-106.07 651.04,-94.43 633.64,-86.64"/>
<polygon fill="midnightblue" stroke="midnightblue" points="635.12,-188.47 627.66,-195.99 638.18,-194.76 635.12,-188.47"/>
</g>
<!-- Node14 -->
<g id="node14" class="node">
<title>Node14</title>
<g id="a_node14"><a xlink:href="light__environment_8cpp.html" target="_top" xlink:title=" ">
<polygon fill="none" stroke="black" points="875.5,-129 875.5,-148 1018.5,-148 1018.5,-129 875.5,-129"/>
<text text-anchor="middle" x="947" y="-136" font-family="Helvetica,sans-Serif" font-size="10.00">src/light_environment.cpp</text>
</a>
</g>
</g>
<!-- Node13&#45;&gt;Node14 -->
<g id="edge16" class="edge">
<title>Node13&#45;&gt;Node14</title>
<path fill="none" stroke="midnightblue" d="M660.05,-194.04C727.32,-181.25 839.83,-159.87 902.11,-148.03"/>
<polygon fill="midnightblue" stroke="midnightblue" points="659.23,-190.63 650.06,-195.94 660.54,-197.51 659.23,-190.63"/>
</g>
<!-- Node15 -->
<g id="node15" class="node">
<title>Node15</title>
<g id="a_node15"><a xlink:href="pspm__interface_8cpp.html" target="_top" xlink:title=" ">
<polygon fill="none" stroke="black" points="540,-129 540,-148 670,-148 670,-129 540,-129"/>
<text text-anchor="middle" x="605" y="-136" font-family="Helvetica,sans-Serif" font-size="10.00">src/pspm_interface.cpp</text>
</a>
</g>
</g>
<!-- Node13&#45;&gt;Node15 -->
<g id="edge17" class="edge">
<title>Node13&#45;&gt;Node15</title>
<path fill="none" stroke="midnightblue" d="M605,-185.54C605,-173.17 605,-157.62 605,-148.13"/>
<polygon fill="midnightblue" stroke="midnightblue" points="601.5,-185.73 605,-195.73 608.5,-185.73 601.5,-185.73"/>
</g>
<!-- Node16 -->
<g id="node16" class="node">
<title>Node16</title>
<g id="a_node16"><a xlink:href="community__properties_8h.html" target="_top" xlink:title=" ">
<polygon fill="none" stroke="black" points="726.5,-123.5 726.5,-153.5 857.5,-153.5 857.5,-123.5 726.5,-123.5"/>
<text text-anchor="start" x="734.5" y="-141.5" font-family="Helvetica,sans-Serif" font-size="10.00">inst/include/community</text>
<text text-anchor="middle" x="792" y="-130.5" font-family="Helvetica,sans-Serif" font-size="10.00">_properties.h</text>
</a>
</g>
</g>
<!-- Node13&#45;&gt;Node16 -->
<g id="edge19" class="edge">
<title>Node13&#45;&gt;Node16</title>
<path fill="none" stroke="midnightblue" d="M639.55,-192.49C671.25,-181.47 718.23,-165.14 751.64,-153.53"/>
<polygon fill="midnightblue" stroke="midnightblue" points="638.13,-189.28 629.83,-195.87 640.43,-195.89 638.13,-189.28"/>
</g>
<!-- Node17 -->
<g id="node17" class="node">
<title>Node17</title>
<g id="a_node17"><a xlink:href="state__restore_8h.html" target="_top" xlink:title=" ">
<polygon fill="none" stroke="black" points="420.5,-123.5 420.5,-153.5 521.5,-153.5 521.5,-123.5 420.5,-123.5"/>
<text text-anchor="start" x="428.5" y="-141.5" font-family="Helvetica,sans-Serif" font-size="10.00">inst/include/state</text>
<text text-anchor="middle" x="471" y="-130.5" font-family="Helvetica,sans-Serif" font-size="10.00">_restore.h</text>
</a>
</g>
</g>
<!-- Node13&#45;&gt;Node17 -->
<g id="edge23" class="edge">
<title>Node13&#45;&gt;Node17</title>
<path fill="none" stroke="midnightblue" d="M578.15,-191.47C555.49,-180.49 523.14,-164.79 499.92,-153.53"/>
<polygon fill="midnightblue" stroke="midnightblue" points="576.68,-194.65 587.21,-195.87 579.74,-188.35 576.68,-194.65"/>
</g>
<!-- Node16&#45;&gt;Node9 -->
<g id="edge21" class="edge">
<title>Node16&#45;&gt;Node9</title>
<path fill="none" stroke="midnightblue" d="M738.21,-120.44C704.98,-109.91 662.85,-96.55 631.5,-86.61"/>
<polygon fill="midnightblue" stroke="midnightblue" points="737.18,-123.79 747.77,-123.48 739.3,-117.12 737.18,-123.79"/>
</g>
<!-- Node16&#45;&gt;Node10 -->
<g id="edge20" class="edge">
<title>Node16&#45;&gt;Node10</title>
<path fill="none" stroke="midnightblue" d="M790.27,-113.14C788.24,-84.62 784.98,-38.86 783.63,-19.79"/>
<polygon fill="midnightblue" stroke="midnightblue" points="786.8,-113.75 791,-123.48 793.78,-113.26 786.8,-113.75"/>
</g>
<!-- Node17&#45;&gt;Node9 -->
<g id="edge25" class="edge">
<title>Node17&#45;&gt;Node9</title>
<path fill="none" stroke="midnightblue" d="M505.27,-118.3C523.42,-108.12 545.32,-95.85 561.88,-86.58"/>
<polygon fill="midnightblue" stroke="midnightblue" points="503.18,-115.45 496.17,-123.4 506.6,-121.56 503.18,-115.45"/>
</g>
<!-- Node17&#45;&gt;Node12 -->
<g id="edge24" class="edge">
<title>Node17&#45;&gt;Node12</title>
<path fill="none" stroke="midnightblue" d="M471,-113.14C471,-84.62 471,-38.86 471,-19.79"/>
<polygon fill="midnightblue" stroke="midnightblue" points="467.5,-113.48 471,-123.48 474.5,-113.48 467.5,-113.48"/>
</g>
</g>
</svg>
