<?xml version="1.0" encoding="UTF-8" standalone="no"?>
<!DOCTYPE svg PUBLIC "-//W3C//DTD SVG 1.1//EN"
 "http://www.w3.org/Graphics/SVG/1.1/DTD/svg11.dtd">
<!-- Generated by graphviz version 2.43.0 (0)
 -->
<!-- Title: inst/include/climate_stream.h Pages: 1 -->
<svg width="806pt" height="162pt"
 viewBox="0.00 0.00 806.00 162.00" xmlns="http://www.w3.org/2000/svg" xmlns:xlink="http://www.w3.org/1999/xlink">
<g id="graph0" class="graph" transform="scale(1 1) rotate(0) translate(4 158)">
<title>inst/include/climate_stream.h</title>
<!-- Node1 -->
<g id="node1" class="node">
<title>Node1</title>
<g id="a_node1"><a xlink:title=" ">
<polygon fill="#bfbfbf" stroke="black" points="163,-123.5 163,-153.5 276,-153.5 276,-123.5 163,-123.5"/>
<text text-anchor="start" x="171" y="-141.5" font-family="Helvetica,sans-Serif" font-size="10.00">inst/include/climate</text>
<text text-anchor="middle" x="219.5" y="-130.5" font-family="Helvetica,sans-Serif" font-size="10.00">_stream.h</text>
</a>
</g>
</g>
<!-- Node2 -->
<g id="node2" class="node">
<title>Node2</title>
<g id="a_node2"><a xlink:href="climate__stream_8cpp.html" target="_top" xlink:title=" ">
<polygon fill="none" stroke="black" points="1,-62 1,-81 132,-81 132,-62 1,-62"/>
<text text-anchor="middle" x="66.5" y="-69" font-family="Helvetica,sans-Serif" font-size="10.00">src/climate_stream.cpp</text>
</a>
</g>
</g>
<!-- Node1&#45;&gt;Node2 -->
<g id="edge1" class="edge">
<title>Node1&#45;&gt;Node2</title>
<path fill="none" stroke="midnightblue" d="M177.03,-119.46C147.47,-106.9 109.4,-90.72 86.52,-81.01"/>
<polygon fill="midnightblue" stroke="midnightblue" points="175.73,-122.71 186.3,-123.4 178.47,-116.26 175.73,-122.71"/>
</g>
<!-- Node3 -->
<g id="node3" class="node">
<title>Node3</title>
<g id="a_node3"><a xlink:href="life__history_8h.html" target="_top" xlink:title=" ">
<polygon fill="none" stroke="black" points="150.5,-62 150.5,-81 288.5,-81 288.5,-62 150.5,-62"/>
<text text-anchor="middle" x="219.5" y="-69" font-family="Helvetica,sans-Serif" font-size="10.00">inst/include/life_history.h</text>
</a>
</g>
</g>
<!-- Node1&#45;&gt;Node3 -->
<g id="edge2" class="edge">
<title>Node1&#45;&gt;Node3</title>
<path fill="none" stroke="midnightblue" d="M219.5,-113.25C219.5,-102.02 219.5,-89.38 219.5,-81.19"/>
<polygon fill="midnightblue" stroke="midnightblue" points="216,-113.4 219.5,-123.4 223,-113.4 216,-113.4"/>
</g>
<!-- Node7 -->
<g id="node7" class="node">
<title>Node7</title>
<g id="a_node7"><a xlink:href="plantfate__patch_8h.html" target="_top" xlink:title=" ">
<polygon fill="none" stroke="black" points="369.5,-56.5 369.5,-86.5 489.5,-86.5 489.5,-56.5 369.5,-56.5"/>
<text text-anchor="start" x="377.5" y="-74.5" font-family="Helvetica,sans-Serif" font-size="10.00">inst/include/plantfate</text>
<text text-anchor="middle" x="429.5" y="-63.5" font-family="Helvetica,sans-Serif" font-size="10.00">_patch.h</text>
</a>
</g>
</g>
<!-- Node1&#45;&gt;Node7 -->
<g id="edge6" class="edge">
<title>Node1&#45;&gt;Node7</title>
<path fill="none" stroke="midnightblue" d="M274.6,-120.44C308.64,-109.91 351.8,-96.55 383.91,-86.61"/>
<polygon fill="midnightblue" stroke="midnightblue" points="273.33,-117.18 264.81,-123.48 275.4,-123.86 273.33,-117.18"/>
</g>
<!-- Node4 -->
<g id="node4" class="node">
<title>Node4</title>
<g id="a_node4"><a xlink:href="life__history_8cpp.html" target="_top" xlink:title=" ">
<polygon fill="none" stroke="black" points="0,-0.5 0,-19.5 107,-19.5 107,-0.5 0,-0.5"/>
<text text-anchor="middle" x="53.5" y="-7.5" font-family="Helvetica,sans-Serif" font-size="10.00">src/life_history.cpp</text>
</a>
</g>
</g>
<!-- Node3&#45;&gt;Node4 -->
<g id="edge3" class="edge">
<title>Node3&#45;&gt;Node4</title>
<path fill="none" stroke="midnightblue" d="M186.25,-58.58C153.98,-47.02 105.82,-29.75 77.24,-19.51"/>
<polygon fill="midnightblue" stroke="midnightblue" points="185.12,-61.9 195.72,-61.98 187.48,-55.31 185.12,-61.9"/>
</g>
<!-- Node5 -->
<g id="node5" class="node">
<title>Node5</title>
<g id="a_node5"><a xlink:href="r__interface_8cpp.html" target="_top" xlink:title=" ">
<polygon fill="none" stroke="black" points="222,-0.5 222,-19.5 329,-19.5 329,-0.5 222,-0.5"/>
<text text-anchor="middle" x="275.5" y="-7.5" font-family="Helvetica,sans-Serif" font-size="10.00">src/r_interface.cpp</text>
</a>
</g>
</g>
<!-- Node3&#45;&gt;Node5 -->
<g id="edge4" class="edge">
<title>Node3&#45;&gt;Node5</title>
<path fill="none" stroke="midnightblue" d="M234.56,-54.5C245.16,-43.24 258.93,-28.6 267.49,-19.51"/>
<polygon fill="midnightblue" stroke="midnightblue" points="231.83,-52.29 227.52,-61.98 236.93,-57.09 231.83,-52.29"/>
</g>
<!-- Node6 -->
<g id="node6" class="node">
<title>Node6</title>
<g id="a_node6"><a xlink:href="lho_8cpp.html" target="_top" xlink:title=" ">
<polygon fill="none" stroke="black" points="125,-0.5 125,-19.5 204,-19.5 204,-0.5 125,-0.5"/>
<text text-anchor="middle" x="164.5" y="-7.5" font-family="Helvetica,sans-Serif" font-size="10.00">tests/lho.cpp</text>
</a>
</g>
</g>
<!-- Node3&#45;&gt;Node6 -->
<g id="edge5" class="edge">
<title>Node3&#45;&gt;Node6</title>
<path fill="none" stroke="midnightblue" d="M204.71,-54.5C194.3,-43.24 180.77,-28.6 172.37,-19.51"/>
<polygon fill="midnightblue" stroke="midnightblue" points="202.26,-57.01 211.62,-61.98 207.4,-52.26 202.26,-57.01"/>
</g>
<!-- Node7&#45;&gt;Node5 -->
<g id="edge9" class="edge">
<title>Node7&#45;&gt;Node5</title>
<path fill="none" stroke="midnightblue" d="M383.32,-52.66C355.08,-41.75 320.21,-28.27 297.91,-19.66"/>
<polygon fill="midnightblue" stroke="midnightblue" points="382.41,-56.06 393,-56.4 384.94,-49.53 382.41,-56.06"/>
</g>
<!-- Node8 -->
<g id="node8" class="node">
<title>Node8</title>
<g id="a_node8"><a xlink:href="community__properties_8cpp.html" target="_top" xlink:title=" ">
<polygon fill="none" stroke="black" points="347.5,-0.5 347.5,-19.5 511.5,-19.5 511.5,-0.5 347.5,-0.5"/>
<text text-anchor="middle" x="429.5" y="-7.5" font-family="Helvetica,sans-Serif" font-size="10.00">src/community_properties.cpp</text>
</a>
</g>
</g>
<!-- Node7&#45;&gt;Node8 -->
<g id="edge7" class="edge">
<title>Node7&#45;&gt;Node8</title>
<path fill="none" stroke="midnightblue" d="M429.5,-46.29C429.5,-36.86 429.5,-26.65 429.5,-19.66"/>
<polygon fill="midnightblue" stroke="midnightblue" points="426,-46.4 429.5,-56.4 433,-46.4 426,-46.4"/>
</g>
<!-- Node9 -->
<g id="node9" class="node">
<title>Node9</title>
<g id="a_node9"><a xlink:href="plantfate__patch_8cpp.html" target="_top" xlink:title=" ">
<polygon fill="none" stroke="black" points="530,-0.5 530,-19.5 661,-19.5 661,-0.5 530,-0.5"/>
<text text-anchor="middle" x="595.5" y="-7.5" font-family="Helvetica,sans-Serif" font-size="10.00">src/plantfate_patch.cpp</text>
</a>
</g>
</g>
<!-- Node7&#45;&gt;Node9 -->
<g id="edge8" class="edge">
<title>Node7&#45;&gt;Node9</title>
<path fill="none" stroke="midnightblue" d="M478.48,-52.94C509.07,-41.98 547.1,-28.35 571.35,-19.66"/>
<polygon fill="midnightblue" stroke="midnightblue" points="477.07,-49.73 468.84,-56.4 479.43,-56.32 477.07,-49.73"/>
</g>
<!-- Node10 -->
<g id="node10" class="node">
<title>Node10</title>
<g id="a_node10"><a xlink:href="state__restore_8cpp.html" target="_top" xlink:title=" ">
<polygon fill="none" stroke="black" points="679,-0.5 679,-19.5 798,-19.5 798,-0.5 679,-0.5"/>
<text text-anchor="middle" x="738.5" y="-7.5" font-family="Helvetica,sans-Serif" font-size="10.00">src/state_restore.cpp</text>
</a>
</g>
</g>
<!-- Node7&#45;&gt;Node10 -->
<g id="edge10" class="edge">
<title>Node7&#45;&gt;Node10</title>
<path fill="none" stroke="midnightblue" d="M499.93,-56.94C559.7,-45.43 643.59,-29.27 694.32,-19.51"/>
<polygon fill="midnightblue" stroke="midnightblue" points="498.97,-53.56 489.81,-58.89 500.29,-60.43 498.97,-53.56"/>
</g>
</g>
</svg>
