<?xml version="1.0" encoding="UTF-8" standalone="no"?>
<!DOCTYPE svg PUBLIC "-//W3C//DTD SVG 1.1//EN"
 "http://www.w3.org/Graphics/SVG/1.1/DTD/svg11.dtd">
<!-- Generated by graphviz version 2.43.0 (0)
 -->
<!-- Title: src/climate_stream.cpp Pages: 1 -->
<svg width="489pt" height="196pt"
 viewBox="0.00 0.00 488.50 196.00" xmlns="http://www.w3.org/2000/svg" xmlns:xlink="http://www.w3.org/1999/xlink">
<g id="graph0" class="graph" transform="scale(1 1) rotate(0) translate(4 192)">
<title>src/climate_stream.cpp</title>
<!-- Node1 -->
<g id="node1" class="node">
<title>Node1</title>
<g id="a_node1"><a xlink:title=" ">
<polygon fill="#bfbfbf" stroke="black" points="203.5,-168.5 203.5,-187.5 334.5,-187.5 334.5,-168.5 203.5,-168.5"/>
<text text-anchor="middle" x="269" y="-175.5" font-family="Helvetica,sans-Serif" font-size="10.00">src/climate_stream.cpp</text>
</a>
</g>
</g>
<!-- Node2 -->
<g id="node2" class="node">
<title>Node2</title>
<g id="a_node2"><a xlink:href="climate__stream_8h.html" target="_top" xlink:title=" ">
<polygon fill="none" stroke="black" points="218,-112.5 218,-131.5 320,-131.5 320,-112.5 218,-112.5"/>
<text text-anchor="middle" x="269" y="-119.5" font-family="Helvetica,sans-Serif" font-size="10.00">climate_stream.h</text>
</a>
</g>
</g>
<!-- Node1&#45;&gt;Node2 -->
<g id="edge1" class="edge">
<title>Node1&#45;&gt;Node2</title>
<path fill="none" stroke="midnightblue" d="M269,-168.08C269,-161.01 269,-150.86 269,-141.99"/>
<polygon fill="midnightblue" stroke="midnightblue" points="272.5,-141.75 269,-131.75 265.5,-141.75 272.5,-141.75"/>
</g>
<!-- Node3 -->
<g id="node3" class="node">
<title>Node3</title>
<g id="a_node3"><a xlink:title=" ">
<polygon fill="none" stroke="#bfbfbf" points="0,-0.5 0,-19.5 44,-19.5 44,-0.5 0,-0.5"/>
<text text-anchor="middle" x="22" y="-7.5" font-family="Helvetica,sans-Serif" font-size="10.00">string</text>
</a>
</g>
</g>
<!-- Node2&#45;&gt;Node3 -->
<g id="edge2" class="edge">
<title>Node2&#45;&gt;Node3</title>
<path fill="none" stroke="midnightblue" d="M244.07,-112.46C219.77,-103.93 181.93,-90.09 150,-76 113.2,-59.76 71.93,-38.16 46.45,-24.42"/>
<polygon fill="midnightblue" stroke="midnightblue" points="47.96,-21.25 37.5,-19.56 44.62,-27.41 47.96,-21.25"/>
</g>
<!-- Node4 -->
<g id="node4" class="node">
<title>Node4</title>
<g id="a_node4"><a xlink:title=" ">
<polygon fill="none" stroke="#bfbfbf" points="62.5,-0.5 62.5,-19.5 117.5,-19.5 117.5,-0.5 62.5,-0.5"/>
<text text-anchor="middle" x="90" y="-7.5" font-family="Helvetica,sans-Serif" font-size="10.00">fstream</text>
</a>
</g>
</g>
<!-- Node2&#45;&gt;Node4 -->
<g id="edge3" class="edge">
<title>Node2&#45;&gt;Node4</title>
<path fill="none" stroke="midnightblue" d="M250.61,-112.4C232.72,-103.83 204.96,-89.96 182,-76 155.86,-60.11 127.32,-39.37 109.07,-25.64"/>
<polygon fill="midnightblue" stroke="midnightblue" points="111.08,-22.77 100.99,-19.52 106.85,-28.35 111.08,-22.77"/>
</g>
<!-- Node5 -->
<g id="node5" class="node">
<title>Node5</title>
<g id="a_node5"><a xlink:title=" ">
<polygon fill="none" stroke="#bfbfbf" points="136,-0.5 136,-19.5 192,-19.5 192,-0.5 136,-0.5"/>
<text text-anchor="middle" x="164" y="-7.5" font-family="Helvetica,sans-Serif" font-size="10.00">sstream</text>
</a>
</g>
</g>
<!-- Node2&#45;&gt;Node5 -->
<g id="edge4" class="edge">
<title>Node2&#45;&gt;Node5</title>
<path fill="none" stroke="midnightblue" d="M251.12,-112.48C236.07,-104.63 214.71,-91.81 200,-76 187.26,-62.3 177.4,-43.26 171.25,-29.33"/>
<polygon fill="midnightblue" stroke="midnightblue" points="174.36,-27.72 167.28,-19.84 167.91,-30.42 174.36,-27.72"/>
</g>
<!-- Node6 -->
<g id="node6" class="node">
<title>Node6</title>
<g id="a_node6"><a xlink:title=" ">
<polygon fill="none" stroke="#bfbfbf" points="288,-0.5 288,-19.5 348,-19.5 348,-0.5 288,-0.5"/>
<text text-anchor="middle" x="318" y="-7.5" font-family="Helvetica,sans-Serif" font-size="10.00">iostream</text>
</a>
</g>
</g>
<!-- Node2&#45;&gt;Node6 -->
<g id="edge5" class="edge">
<title>Node2&#45;&gt;Node6</title>
<path fill="none" stroke="midnightblue" d="M272.84,-112.37C280.82,-94.46 299.33,-52.92 310,-28.95"/>
<polygon fill="midnightblue" stroke="midnightblue" points="313.3,-30.15 314.17,-19.59 306.91,-27.3 313.3,-30.15"/>
</g>
<!-- Node7 -->
<g id="node7" class="node">
<title>Node7</title>
<g id="a_node7"><a xlink:title=" ">
<polygon fill="none" stroke="#bfbfbf" points="366.5,-0.5 366.5,-19.5 413.5,-19.5 413.5,-0.5 366.5,-0.5"/>
<text text-anchor="middle" x="390" y="-7.5" font-family="Helvetica,sans-Serif" font-size="10.00">cmath</text>
</a>
</g>
</g>
<!-- Node2&#45;&gt;Node7 -->
<g id="edge6" class="edge">
<title>Node2&#45;&gt;Node7</title>
<path fill="none" stroke="midnightblue" d="M278.49,-112.37C298.9,-93.81 347.2,-49.91 373.02,-26.44"/>
<polygon fill="midnightblue" stroke="midnightblue" points="375.5,-28.91 380.55,-19.59 370.8,-23.73 375.5,-28.91"/>
</g>
<!-- Node8 -->
<g id="node8" class="node">
<title>Node8</title>
<g id="a_node8"><a xlink:title=" ">
<polygon fill="none" stroke="#bfbfbf" points="431.5,-0.5 431.5,-19.5 478.5,-19.5 478.5,-0.5 431.5,-0.5"/>
<text text-anchor="middle" x="455" y="-7.5" font-family="Helvetica,sans-Serif" font-size="10.00">vector</text>
</a>
</g>
</g>
<!-- Node2&#45;&gt;Node8 -->
<g id="edge7" class="edge">
<title>Node2&#45;&gt;Node8</title>
<path fill="none" stroke="midnightblue" d="M283.6,-112.37C315.65,-93.41 392.44,-48 431.42,-24.94"/>
<polygon fill="midnightblue" stroke="midnightblue" points="433.65,-27.69 440.47,-19.59 430.08,-21.67 433.65,-27.69"/>
</g>
<!-- Node9 -->
<g id="node9" class="node">
<title>Node9</title>
<g id="a_node9"><a xlink:href="climate_8h.html" target="_top" xlink:title=" ">
<polygon fill="none" stroke="black" points="209,-56.5 209,-75.5 271,-75.5 271,-56.5 209,-56.5"/>
<text text-anchor="middle" x="240" y="-63.5" font-family="Helvetica,sans-Serif" font-size="10.00">climate.h</text>
</a>
</g>
</g>
<!-- Node2&#45;&gt;Node9 -->
<g id="edge8" class="edge">
<title>Node2&#45;&gt;Node9</title>
<path fill="none" stroke="midnightblue" d="M264.21,-112.08C260.24,-104.69 254.47,-93.95 249.57,-84.81"/>
<polygon fill="midnightblue" stroke="midnightblue" points="252.51,-82.91 244.7,-75.75 246.35,-86.22 252.51,-82.91"/>
</g>
<!-- Node11 -->
<g id="node11" class="node">
<title>Node11</title>
<g id="a_node11"><a xlink:title=" ">
<polygon fill="none" stroke="#bfbfbf" points="403.5,-56.5 403.5,-75.5 480.5,-75.5 480.5,-56.5 403.5,-56.5"/>
<text text-anchor="middle" x="442" y="-63.5" font-family="Helvetica,sans-Serif" font-size="10.00">csvstream.h</text>
</a>
</g>
</g>
<!-- Node2&#45;&gt;Node11 -->
<g id="edge16" class="edge">
<title>Node2&#45;&gt;Node11</title>
<path fill="none" stroke="midnightblue" d="M296.41,-112.44C325.77,-103.28 372.52,-88.69 405.1,-78.52"/>
<polygon fill="midnightblue" stroke="midnightblue" points="406.21,-81.84 414.72,-75.52 404.13,-75.16 406.21,-81.84"/>
</g>
<!-- Node9&#45;&gt;Node3 -->
<g id="edge9" class="edge">
<title>Node9&#45;&gt;Node3</title>
<path fill="none" stroke="midnightblue" d="M208.79,-57.96C173.53,-49.9 114.22,-36.03 54.32,-20.26"/>
<polygon fill="midnightblue" stroke="midnightblue" points="54.88,-16.79 44.32,-17.61 53.09,-23.56 54.88,-16.79"/>
</g>
<!-- Node9&#45;&gt;Node4 -->
<g id="edge10" class="edge">
<title>Node9&#45;&gt;Node4</title>
<path fill="none" stroke="midnightblue" d="M216.23,-56.44C191.11,-47.4 151.29,-33.06 123.1,-22.92"/>
<polygon fill="midnightblue" stroke="midnightblue" points="124.25,-19.61 113.66,-19.52 121.88,-26.2 124.25,-19.61"/>
</g>
<!-- Node9&#45;&gt;Node5 -->
<g id="edge11" class="edge">
<title>Node9&#45;&gt;Node5</title>
<path fill="none" stroke="midnightblue" d="M227.79,-56.32C216.22,-48.11 198.62,-35.6 184.84,-25.81"/>
<polygon fill="midnightblue" stroke="midnightblue" points="186.61,-22.77 176.43,-19.83 182.56,-28.48 186.61,-22.77"/>
</g>
<!-- Node9&#45;&gt;Node6 -->
<g id="edge12" class="edge">
<title>Node9&#45;&gt;Node6</title>
<path fill="none" stroke="midnightblue" d="M252.53,-56.32C264.59,-47.98 283.03,-35.21 297.27,-25.35"/>
<polygon fill="midnightblue" stroke="midnightblue" points="299.27,-28.22 305.5,-19.65 295.28,-22.47 299.27,-28.22"/>
</g>
<!-- Node9&#45;&gt;Node7 -->
<g id="edge13" class="edge">
<title>Node9&#45;&gt;Node7</title>
<path fill="none" stroke="midnightblue" d="M263.77,-56.44C288.89,-47.4 328.71,-33.06 356.9,-22.92"/>
<polygon fill="midnightblue" stroke="midnightblue" points="358.12,-26.2 366.34,-19.52 355.75,-19.61 358.12,-26.2"/>
</g>
<!-- Node9&#45;&gt;Node8 -->
<g id="edge14" class="edge">
<title>Node9&#45;&gt;Node8</title>
<path fill="none" stroke="midnightblue" d="M271.16,-57.67C305.72,-49.47 363.36,-35.57 421.54,-20.33"/>
<polygon fill="midnightblue" stroke="midnightblue" points="422.48,-23.7 431.26,-17.77 420.7,-16.93 422.48,-23.7"/>
</g>
<!-- Node10 -->
<g id="node10" class="node">
<title>Node10</title>
<g id="a_node10"><a xlink:title=" ">
<polygon fill="none" stroke="#bfbfbf" points="210.5,-0.5 210.5,-19.5 269.5,-19.5 269.5,-0.5 210.5,-0.5"/>
<text text-anchor="middle" x="240" y="-7.5" font-family="Helvetica,sans-Serif" font-size="10.00">phydro.h</text>
</a>
</g>
</g>
<!-- Node9&#45;&gt;Node10 -->
<g id="edge15" class="edge">
<title>Node9&#45;&gt;Node10</title>
<path fill="none" stroke="midnightblue" d="M240,-56.08C240,-49.01 240,-38.86 240,-29.99"/>
<polygon fill="midnightblue" stroke="midnightblue" points="243.5,-29.75 240,-19.75 236.5,-29.75 243.5,-29.75"/>
</g>
</g>
</svg>
