<?xml version="1.0" encoding="UTF-8" standalone="no"?>
<!DOCTYPE svg PUBLIC "-//W3C//DTD SVG 1.1//EN"
 "http://www.w3.org/Graphics/SVG/1.1/DTD/svg11.dtd">
<!-- Generated by graphviz version 2.43.0 (0)
 -->
<!-- Title: src/climate.cpp Pages: 1 -->
<svg width="531pt" height="140pt"
 viewBox="0.00 0.00 530.50 140.00" xmlns="http://www.w3.org/2000/svg" xmlns:xlink="http://www.w3.org/1999/xlink">
<g id="graph0" class="graph" transform="scale(1 1) rotate(0) translate(4 136)">
<title>src/climate.cpp</title>
<!-- Node1 -->
<g id="node1" class="node">
<title>Node1</title>
<g id="a_node1"><a xlink:title=" ">
<polygon fill="#bfbfbf" stroke="black" points="68.5,-112.5 68.5,-131.5 159.5,-131.5 159.5,-112.5 68.5,-112.5"/>
<text text-anchor="middle" x="114" y="-119.5" font-family="Helvetica,sans-Serif" font-size="10.00">src/climate.cpp</text>
</a>
</g>
</g>
<!-- Node2 -->
<g id="node2" class="node">
<title>Node2</title>
<g id="a_node2"><a xlink:title=" ">
<polygon fill="none" stroke="#bfbfbf" points="0,-56.5 0,-75.5 56,-75.5 56,-56.5 0,-56.5"/>
<text text-anchor="middle" x="28" y="-63.5" font-family="Helvetica,sans-Serif" font-size="10.00">iomanip</text>
</a>
</g>
</g>
<!-- Node1&#45;&gt;Node2 -->
<g id="edge1" class="edge">
<title>Node1&#45;&gt;Node2</title>
<path fill="none" stroke="midnightblue" d="M100.18,-112.32C86.77,-103.9 66.18,-90.97 50.41,-81.07"/>
<polygon fill="midnightblue" stroke="midnightblue" points="52.11,-78.01 41.78,-75.65 48.39,-83.94 52.11,-78.01"/>
</g>
<!-- Node3 -->
<g id="node3" class="node">
<title>Node3</title>
<g id="a_node3"><a xlink:title=" ">
<polygon fill="none" stroke="#bfbfbf" points="44.5,-0.5 44.5,-19.5 91.5,-19.5 91.5,-0.5 44.5,-0.5"/>
<text text-anchor="middle" x="68" y="-7.5" font-family="Helvetica,sans-Serif" font-size="10.00">cmath</text>
</a>
</g>
</g>
<!-- Node1&#45;&gt;Node3 -->
<g id="edge2" class="edge">
<title>Node1&#45;&gt;Node3</title>
<path fill="none" stroke="midnightblue" d="M110.39,-112.37C102.9,-94.46 85.53,-52.92 75.51,-28.95"/>
<polygon fill="midnightblue" stroke="midnightblue" points="78.68,-27.47 71.59,-19.59 72.22,-30.17 78.68,-27.47"/>
</g>
<!-- Node4 -->
<g id="node4" class="node">
<title>Node4</title>
<g id="a_node4"><a xlink:title=" ">
<polygon fill="none" stroke="#bfbfbf" points="112.5,-56.5 112.5,-75.5 177.5,-75.5 177.5,-56.5 112.5,-56.5"/>
<text text-anchor="middle" x="145" y="-63.5" font-family="Helvetica,sans-Serif" font-size="10.00">stdexcept</text>
</a>
</g>
</g>
<!-- Node1&#45;&gt;Node4 -->
<g id="edge3" class="edge">
<title>Node1&#45;&gt;Node4</title>
<path fill="none" stroke="midnightblue" d="M119.12,-112.08C123.41,-104.61 129.66,-93.72 134.94,-84.52"/>
<polygon fill="midnightblue" stroke="midnightblue" points="138.03,-86.17 139.98,-75.75 131.96,-82.68 138.03,-86.17"/>
</g>
<!-- Node5 -->
<g id="node5" class="node">
<title>Node5</title>
<g id="a_node5"><a xlink:href="climate_8h.html" target="_top" xlink:title=" ">
<polygon fill="none" stroke="black" points="227,-56.5 227,-75.5 289,-75.5 289,-56.5 227,-56.5"/>
<text text-anchor="middle" x="258" y="-63.5" font-family="Helvetica,sans-Serif" font-size="10.00">climate.h</text>
</a>
</g>
</g>
<!-- Node1&#45;&gt;Node5 -->
<g id="edge4" class="edge">
<title>Node1&#45;&gt;Node5</title>
<path fill="none" stroke="midnightblue" d="M136.82,-112.44C160.83,-103.44 198.83,-89.19 225.87,-79.05"/>
<polygon fill="midnightblue" stroke="midnightblue" points="227.16,-82.3 235.29,-75.52 224.7,-75.75 227.16,-82.3"/>
</g>
<!-- Node5&#45;&gt;Node3 -->
<g id="edge9" class="edge">
<title>Node5&#45;&gt;Node3</title>
<path fill="none" stroke="midnightblue" d="M227.89,-56.44C193.51,-46.67 137.41,-30.73 101.63,-20.56"/>
<polygon fill="midnightblue" stroke="midnightblue" points="102.24,-17.09 91.66,-17.73 100.32,-23.83 102.24,-17.09"/>
</g>
<!-- Node6 -->
<g id="node6" class="node">
<title>Node6</title>
<g id="a_node6"><a xlink:title=" ">
<polygon fill="none" stroke="#bfbfbf" points="110,-0.5 110,-19.5 154,-19.5 154,-0.5 110,-0.5"/>
<text text-anchor="middle" x="132" y="-7.5" font-family="Helvetica,sans-Serif" font-size="10.00">string</text>
</a>
</g>
</g>
<!-- Node5&#45;&gt;Node6 -->
<g id="edge5" class="edge">
<title>Node5&#45;&gt;Node6</title>
<path fill="none" stroke="midnightblue" d="M238.03,-56.44C217.39,-47.6 184.94,-33.69 161.37,-23.59"/>
<polygon fill="midnightblue" stroke="midnightblue" points="162.44,-20.24 151.87,-19.52 159.68,-26.67 162.44,-20.24"/>
</g>
<!-- Node7 -->
<g id="node7" class="node">
<title>Node7</title>
<g id="a_node7"><a xlink:title=" ">
<polygon fill="none" stroke="#bfbfbf" points="172.5,-0.5 172.5,-19.5 227.5,-19.5 227.5,-0.5 172.5,-0.5"/>
<text text-anchor="middle" x="200" y="-7.5" font-family="Helvetica,sans-Serif" font-size="10.00">fstream</text>
</a>
</g>
</g>
<!-- Node5&#45;&gt;Node7 -->
<g id="edge6" class="edge">
<title>Node5&#45;&gt;Node7</title>
<path fill="none" stroke="midnightblue" d="M248.68,-56.32C240.11,-48.34 227.19,-36.31 216.81,-26.65"/>
<polygon fill="midnightblue" stroke="midnightblue" points="219.19,-24.09 209.49,-19.83 214.42,-29.21 219.19,-24.09"/>
</g>
<!-- Node8 -->
<g id="node8" class="node">
<title>Node8</title>
<g id="a_node8"><a xlink:title=" ">
<polygon fill="none" stroke="#bfbfbf" points="246,-0.5 246,-19.5 302,-19.5 302,-0.5 246,-0.5"/>
<text text-anchor="middle" x="274" y="-7.5" font-family="Helvetica,sans-Serif" font-size="10.00">sstream</text>
</a>
</g>
</g>
<!-- Node5&#45;&gt;Node8 -->
<g id="edge7" class="edge">
<title>Node5&#45;&gt;Node8</title>
<path fill="none" stroke="midnightblue" d="M260.64,-56.08C262.79,-48.85 265.88,-38.41 268.55,-29.4"/>
<polygon fill="midnightblue" stroke="midnightblue" points="271.92,-30.33 271.41,-19.75 265.21,-28.34 271.92,-30.33"/>
</g>
<!-- Node9 -->
<g id="node9" class="node">
<title>Node9</title>
<g id="a_node9"><a xlink:title=" ">
<polygon fill="none" stroke="#bfbfbf" points="320,-0.5 320,-19.5 380,-19.5 380,-0.5 320,-0.5"/>
<text text-anchor="middle" x="350" y="-7.5" font-family="Helvetica,sans-Serif" font-size="10.00">iostream</text>
</a>
</g>
</g>
<!-- Node5&#45;&gt;Node9 -->
<g id="edge8" class="edge">
<title>Node5&#45;&gt;Node9</title>
<path fill="none" stroke="midnightblue" d="M272.78,-56.32C287.27,-47.82 309.57,-34.73 326.49,-24.8"/>
<polygon fill="midnightblue" stroke="midnightblue" points="328.4,-27.74 335.26,-19.65 324.86,-21.7 328.4,-27.74"/>
</g>
<!-- Node10 -->
<g id="node10" class="node">
<title>Node10</title>
<g id="a_node10"><a xlink:title=" ">
<polygon fill="none" stroke="#bfbfbf" points="398.5,-0.5 398.5,-19.5 445.5,-19.5 445.5,-0.5 398.5,-0.5"/>
<text text-anchor="middle" x="422" y="-7.5" font-family="Helvetica,sans-Serif" font-size="10.00">vector</text>
</a>
</g>
</g>
<!-- Node5&#45;&gt;Node10 -->
<g id="edge10" class="edge">
<title>Node5&#45;&gt;Node10</title>
<path fill="none" stroke="midnightblue" d="M283.99,-56.44C312.23,-47.15 357.44,-32.26 388.37,-22.07"/>
<polygon fill="midnightblue" stroke="midnightblue" points="389.86,-25.27 398.27,-18.82 387.67,-18.62 389.86,-25.27"/>
</g>
<!-- Node11 -->
<g id="node11" class="node">
<title>Node11</title>
<g id="a_node11"><a xlink:title=" ">
<polygon fill="none" stroke="#bfbfbf" points="463.5,-0.5 463.5,-19.5 522.5,-19.5 522.5,-0.5 463.5,-0.5"/>
<text text-anchor="middle" x="493" y="-7.5" font-family="Helvetica,sans-Serif" font-size="10.00">phydro.h</text>
</a>
</g>
</g>
<!-- Node5&#45;&gt;Node11 -->
<g id="edge11" class="edge">
<title>Node5&#45;&gt;Node11</title>
<path fill="none" stroke="midnightblue" d="M289.07,-57.98C326.01,-49.62 389.78,-35.14 453.35,-20.37"/>
<polygon fill="midnightblue" stroke="midnightblue" points="454.19,-23.77 463.13,-18.1 452.6,-16.95 454.19,-23.77"/>
</g>
</g>
</svg>
