<?xml version="1.0" encoding="UTF-8" standalone="no"?>
<!DOCTYPE svg PUBLIC "-//W3C//DTD SVG 1.1//EN"
 "http://www.w3.org/Graphics/SVG/1.1/DTD/svg11.dtd">
<!-- Generated by graphviz version 2.43.0 (0)
 -->
<!-- Title: src/community_properties.cpp Pages: 1 -->
<svg width="1690pt" height="532pt"
 viewBox="0.00 0.00 1690.00 532.00" xmlns="http://www.w3.org/2000/svg" xmlns:xlink="http://www.w3.org/1999/xlink">
<g id="graph0" class="graph" transform="scale(1 1) rotate(0) translate(4 528)">
<title>src/community_properties.cpp</title>
<!-- Node1 -->
<g id="node1" class="node">
<title>Node1</title>
<g id="a_node1"><a xlink:title=" ">
<polygon fill="#bfbfbf" stroke="black" points="474,-504.5 474,-523.5 638,-523.5 638,-504.5 474,-504.5"/>
<text text-anchor="middle" x="556" y="-511.5" font-family="Helvetica,sans-Serif" font-size="10.00">src/community_properties.cpp</text>
</a>
</g>
</g>
<!-- Node2 -->
<g id="node2" class="node">
<title>Node2</title>
<g id="a_node2"><a xlink:href="community__properties_8h.html" target="_top" xlink:title=" ">
<polygon fill="none" stroke="black" points="488,-392.5 488,-411.5 624,-411.5 624,-392.5 488,-392.5"/>
<text text-anchor="middle" x="556" y="-399.5" font-family="Helvetica,sans-Serif" font-size="10.00">community_properties.h</text>
</a>
</g>
</g>
<!-- Node1&#45;&gt;Node2 -->
<g id="edge1" class="edge">
<title>Node1&#45;&gt;Node2</title>
<path fill="none" stroke="midnightblue" d="M556,-504.37C556,-486.62 556,-445.67 556,-421.6"/>
<polygon fill="midnightblue" stroke="midnightblue" points="559.5,-421.59 556,-411.59 552.5,-421.59 559.5,-421.59"/>
</g>
<!-- Node6 -->
<g id="node6" class="node">
<title>Node6</title>
<g id="a_node6"><a xlink:href="light__environment_8h.html" target="_top" xlink:title=" ">
<polygon fill="none" stroke="black" points="204.5,-280.5 204.5,-299.5 319.5,-299.5 319.5,-280.5 204.5,-280.5"/>
<text text-anchor="middle" x="262" y="-287.5" font-family="Helvetica,sans-Serif" font-size="10.00">light_environment.h</text>
</a>
</g>
</g>
<!-- Node1&#45;&gt;Node6 -->
<g id="edge63" class="edge">
<title>Node1&#45;&gt;Node6</title>
<path fill="none" stroke="midnightblue" d="M544.47,-504.3C499.83,-470.59 337.98,-348.37 281.56,-305.77"/>
<polygon fill="midnightblue" stroke="midnightblue" points="283.54,-302.88 273.45,-299.64 279.32,-308.46 283.54,-302.88"/>
</g>
<!-- Node35 -->
<g id="node35" class="node">
<title>Node35</title>
<g id="a_node35"><a xlink:href="plantfate__patch_8h.html" target="_top" xlink:title=" ">
<polygon fill="none" stroke="black" points="771,-448.5 771,-467.5 873,-467.5 873,-448.5 771,-448.5"/>
<text text-anchor="middle" x="822" y="-455.5" font-family="Helvetica,sans-Serif" font-size="10.00">plantfate_patch.h</text>
</a>
</g>
</g>
<!-- Node1&#45;&gt;Node35 -->
<g id="edge64" class="edge">
<title>Node1&#45;&gt;Node35</title>
<path fill="none" stroke="midnightblue" d="M598.15,-504.44C644.75,-494.98 719.84,-479.74 770.05,-469.55"/>
<polygon fill="midnightblue" stroke="midnightblue" points="770.94,-472.94 780.05,-467.52 769.55,-466.08 770.94,-472.94"/>
</g>
<!-- Node3 -->
<g id="node3" class="node">
<title>Node3</title>
<g id="a_node3"><a xlink:href="pspm__interface_8h.html" target="_top" xlink:title=" ">
<polygon fill="none" stroke="black" points="768.5,-336.5 768.5,-355.5 869.5,-355.5 869.5,-336.5 768.5,-336.5"/>
<text text-anchor="middle" x="819" y="-343.5" font-family="Helvetica,sans-Serif" font-size="10.00">pspm_interface.h</text>
</a>
</g>
</g>
<!-- Node2&#45;&gt;Node3 -->
<g id="edge2" class="edge">
<title>Node2&#45;&gt;Node3</title>
<path fill="none" stroke="midnightblue" d="M597.67,-392.44C643.75,-382.98 718,-367.74 767.63,-357.55"/>
<polygon fill="midnightblue" stroke="midnightblue" points="768.43,-360.96 777.52,-355.52 767.02,-354.1 768.43,-360.96"/>
</g>
<!-- Node32 -->
<g id="node32" class="node">
<title>Node32</title>
<g id="a_node32"><a xlink:href="adaptive__species_8h.html" target="_top" xlink:title=" ">
<polygon fill="none" stroke="black" points="501,-280.5 501,-299.5 611,-299.5 611,-280.5 501,-280.5"/>
<text text-anchor="middle" x="556" y="-287.5" font-family="Helvetica,sans-Serif" font-size="10.00">adaptive_species.h</text>
</a>
</g>
</g>
<!-- Node2&#45;&gt;Node32 -->
<g id="edge53" class="edge">
<title>Node2&#45;&gt;Node32</title>
<path fill="none" stroke="midnightblue" d="M556,-392.37C556,-374.62 556,-333.67 556,-309.6"/>
<polygon fill="midnightblue" stroke="midnightblue" points="559.5,-309.59 556,-299.59 552.5,-309.59 559.5,-309.59"/>
</g>
<!-- Node34 -->
<g id="node34" class="node">
<title>Node34</title>
<g id="a_node34"><a xlink:href="sequence_8h.html" target="_top" xlink:title=" ">
<polygon fill="none" stroke="black" points="362,-56.5 362,-75.5 458,-75.5 458,-56.5 362,-56.5"/>
<text text-anchor="middle" x="410" y="-63.5" font-family="Helvetica,sans-Serif" font-size="10.00">utils/sequence.h</text>
</a>
</g>
</g>
<!-- Node2&#45;&gt;Node34 -->
<g id="edge60" class="edge">
<title>Node2&#45;&gt;Node34</title>
<path fill="none" stroke="midnightblue" d="M493.63,-392.49C418.92,-380.34 291.75,-353.32 195,-300 162.48,-282.08 148.08,-277.93 133,-244 129.39,-235.88 128.52,-231.68 133,-224 160.79,-176.3 313.85,-107.45 379.78,-79.5"/>
<polygon fill="midnightblue" stroke="midnightblue" points="381.36,-82.63 389.21,-75.53 378.64,-76.18 381.36,-82.63"/>
</g>
<!-- Node4 -->
<g id="node4" class="node">
<title>Node4</title>
<g id="a_node4"><a xlink:title=" ">
<polygon fill="none" stroke="#bfbfbf" points="874,-280.5 874,-299.5 976,-299.5 976,-280.5 874,-280.5"/>
<text text-anchor="middle" x="925" y="-287.5" font-family="Helvetica,sans-Serif" font-size="10.00">individual_base.h</text>
</a>
</g>
</g>
<!-- Node3&#45;&gt;Node4 -->
<g id="edge3" class="edge">
<title>Node3&#45;&gt;Node4</title>
<path fill="none" stroke="midnightblue" d="M836.03,-336.32C853.03,-327.66 879.38,-314.24 898.99,-304.25"/>
<polygon fill="midnightblue" stroke="midnightblue" points="900.69,-307.31 908.01,-299.65 897.51,-301.08 900.69,-307.31"/>
</g>
<!-- Node5 -->
<g id="node5" class="node">
<title>Node5</title>
<g id="a_node5"><a xlink:title=" ">
<polygon fill="none" stroke="#bfbfbf" points="604,-224.5 604,-243.5 660,-243.5 660,-224.5 604,-224.5"/>
<text text-anchor="middle" x="632" y="-231.5" font-family="Helvetica,sans-Serif" font-size="10.00">solver.h</text>
</a>
</g>
</g>
<!-- Node3&#45;&gt;Node5 -->
<g id="edge4" class="edge">
<title>Node3&#45;&gt;Node5</title>
<path fill="none" stroke="midnightblue" d="M810.69,-336.43C797.26,-322.96 769.53,-296.68 742,-280 719.04,-266.09 691.02,-254.7 669,-246.86"/>
<polygon fill="midnightblue" stroke="midnightblue" points="669.94,-243.48 659.34,-243.51 667.64,-250.09 669.94,-243.48"/>
</g>
<!-- Node3&#45;&gt;Node6 -->
<g id="edge5" class="edge">
<title>Node3&#45;&gt;Node6</title>
<path fill="none" stroke="midnightblue" d="M768.09,-340.06C667.44,-330.31 442.95,-308.54 329.86,-297.58"/>
<polygon fill="midnightblue" stroke="midnightblue" points="329.9,-294.07 319.61,-296.58 329.22,-301.03 329.9,-294.07"/>
</g>
<!-- Node10 -->
<g id="node10" class="node">
<title>Node10</title>
<g id="a_node10"><a xlink:href="climate_8h.html" target="_top" xlink:title=" ">
<polygon fill="none" stroke="black" points="1268,-56.5 1268,-75.5 1330,-75.5 1330,-56.5 1268,-56.5"/>
<text text-anchor="middle" x="1299" y="-63.5" font-family="Helvetica,sans-Serif" font-size="10.00">climate.h</text>
</a>
</g>
</g>
<!-- Node3&#45;&gt;Node10 -->
<g id="edge10" class="edge">
<title>Node3&#45;&gt;Node10</title>
<path fill="none" stroke="midnightblue" d="M869.4,-336.44C903.24,-329.48 948.19,-317.85 985,-300 1111.24,-238.78 1238.31,-124.54 1282.58,-82.8"/>
<polygon fill="midnightblue" stroke="midnightblue" points="1285.25,-85.09 1290.09,-75.66 1280.43,-80.01 1285.25,-85.09"/>
</g>
<!-- Node16 -->
<g id="node16" class="node">
<title>Node16</title>
<g id="a_node16"><a xlink:href="plant_8h.html" target="_top" xlink:title=" ">
<polygon fill="none" stroke="black" points="806,-280.5 806,-299.5 856,-299.5 856,-280.5 806,-280.5"/>
<text text-anchor="middle" x="831" y="-287.5" font-family="Helvetica,sans-Serif" font-size="10.00">plant.h</text>
</a>
</g>
</g>
<!-- Node3&#45;&gt;Node16 -->
<g id="edge18" class="edge">
<title>Node3&#45;&gt;Node16</title>
<path fill="none" stroke="midnightblue" d="M820.98,-336.08C822.57,-328.93 824.86,-318.64 826.85,-309.69"/>
<polygon fill="midnightblue" stroke="midnightblue" points="830.3,-310.27 829.06,-299.75 823.47,-308.75 830.3,-310.27"/>
</g>
<!-- Node6&#45;&gt;Node5 -->
<g id="edge9" class="edge">
<title>Node6&#45;&gt;Node5</title>
<path fill="none" stroke="midnightblue" d="M319.81,-280.56C396.05,-269.44 528.15,-250.16 593.34,-240.64"/>
<polygon fill="midnightblue" stroke="midnightblue" points="594.19,-244.06 603.58,-239.15 593.18,-237.13 594.19,-244.06"/>
</g>
<!-- Node7 -->
<g id="node7" class="node">
<title>Node7</title>
<g id="a_node7"><a xlink:title=" ">
<polygon fill="none" stroke="#bfbfbf" points="1121,-0.5 1121,-19.5 1181,-19.5 1181,-0.5 1121,-0.5"/>
<text text-anchor="middle" x="1151" y="-7.5" font-family="Helvetica,sans-Serif" font-size="10.00">iostream</text>
</a>
</g>
</g>
<!-- Node6&#45;&gt;Node7 -->
<g id="edge6" class="edge">
<title>Node6&#45;&gt;Node7</title>
<path fill="none" stroke="midnightblue" d="M269.62,-280.03C301,-243.79 425.07,-107.73 561,-56 672.77,-13.47 974.74,-36.6 1110.59,-19.85"/>
<polygon fill="midnightblue" stroke="midnightblue" points="1111.42,-23.27 1120.86,-18.46 1110.48,-16.34 1111.42,-23.27"/>
</g>
<!-- Node8 -->
<g id="node8" class="node">
<title>Node8</title>
<g id="a_node8"><a xlink:title=" ">
<polygon fill="none" stroke="#bfbfbf" points="386.5,-0.5 386.5,-19.5 433.5,-19.5 433.5,-0.5 386.5,-0.5"/>
<text text-anchor="middle" x="410" y="-7.5" font-family="Helvetica,sans-Serif" font-size="10.00">vector</text>
</a>
</g>
</g>
<!-- Node6&#45;&gt;Node8 -->
<g id="edge7" class="edge">
<title>Node6&#45;&gt;Node8</title>
<path fill="none" stroke="midnightblue" d="M204.42,-283.83C178.12,-278.26 149.28,-266.92 133,-244 101.31,-199.39 -87.33,-307.44 153,-56 186.93,-20.51 322.83,-29.53 371,-20 372.69,-19.67 374.41,-19.31 376.15,-18.95"/>
<polygon fill="midnightblue" stroke="midnightblue" points="377.11,-22.32 386.13,-16.76 375.61,-15.48 377.11,-22.32"/>
</g>
<!-- Node9 -->
<g id="node9" class="node">
<title>Node9</title>
<g id="a_node9"><a xlink:title=" ">
<polygon fill="none" stroke="#bfbfbf" points="142,-224.5 142,-243.5 258,-243.5 258,-224.5 142,-224.5"/>
<text text-anchor="middle" x="200" y="-231.5" font-family="Helvetica,sans-Serif" font-size="10.00">environment_base.h</text>
</a>
</g>
</g>
<!-- Node6&#45;&gt;Node9 -->
<g id="edge8" class="edge">
<title>Node6&#45;&gt;Node9</title>
<path fill="none" stroke="midnightblue" d="M252.04,-280.32C242.87,-272.34 229.06,-260.31 217.97,-250.65"/>
<polygon fill="midnightblue" stroke="midnightblue" points="219.98,-247.76 210.14,-243.83 215.38,-253.04 219.98,-247.76"/>
</g>
<!-- Node10&#45;&gt;Node7 -->
<g id="edge14" class="edge">
<title>Node10&#45;&gt;Node7</title>
<path fill="none" stroke="midnightblue" d="M1275.55,-56.44C1250.87,-47.44 1211.81,-33.19 1184.02,-23.05"/>
<polygon fill="midnightblue" stroke="midnightblue" points="1184.94,-19.66 1174.34,-19.52 1182.54,-26.23 1184.94,-19.66"/>
</g>
<!-- Node10&#45;&gt;Node8 -->
<g id="edge16" class="edge">
<title>Node10&#45;&gt;Node8</title>
<path fill="none" stroke="midnightblue" d="M1267.88,-63.11C1131.3,-54.81 585.46,-21.66 443.75,-13.05"/>
<polygon fill="midnightblue" stroke="midnightblue" points="443.71,-9.54 433.51,-12.43 443.28,-16.53 443.71,-9.54"/>
</g>
<!-- Node11 -->
<g id="node11" class="node">
<title>Node11</title>
<g id="a_node11"><a xlink:title=" ">
<polygon fill="none" stroke="#bfbfbf" points="1277,-0.5 1277,-19.5 1321,-19.5 1321,-0.5 1277,-0.5"/>
<text text-anchor="middle" x="1299" y="-7.5" font-family="Helvetica,sans-Serif" font-size="10.00">string</text>
</a>
</g>
</g>
<!-- Node10&#45;&gt;Node11 -->
<g id="edge11" class="edge">
<title>Node10&#45;&gt;Node11</title>
<path fill="none" stroke="midnightblue" d="M1299,-56.08C1299,-49.01 1299,-38.86 1299,-29.99"/>
<polygon fill="midnightblue" stroke="midnightblue" points="1302.5,-29.75 1299,-19.75 1295.5,-29.75 1302.5,-29.75"/>
</g>
<!-- Node12 -->
<g id="node12" class="node">
<title>Node12</title>
<g id="a_node12"><a xlink:title=" ">
<polygon fill="none" stroke="#bfbfbf" points="1495.5,-0.5 1495.5,-19.5 1550.5,-19.5 1550.5,-0.5 1495.5,-0.5"/>
<text text-anchor="middle" x="1523" y="-7.5" font-family="Helvetica,sans-Serif" font-size="10.00">fstream</text>
</a>
</g>
</g>
<!-- Node10&#45;&gt;Node12 -->
<g id="edge12" class="edge">
<title>Node10&#45;&gt;Node12</title>
<path fill="none" stroke="midnightblue" d="M1330.15,-57.49C1370.77,-47.7 1441.77,-30.58 1485.36,-20.07"/>
<polygon fill="midnightblue" stroke="midnightblue" points="1486.39,-23.43 1495.29,-17.68 1484.75,-16.62 1486.39,-23.43"/>
</g>
<!-- Node13 -->
<g id="node13" class="node">
<title>Node13</title>
<g id="a_node13"><a xlink:title=" ">
<polygon fill="none" stroke="#bfbfbf" points="1339,-0.5 1339,-19.5 1395,-19.5 1395,-0.5 1339,-0.5"/>
<text text-anchor="middle" x="1367" y="-7.5" font-family="Helvetica,sans-Serif" font-size="10.00">sstream</text>
</a>
</g>
</g>
<!-- Node10&#45;&gt;Node13 -->
<g id="edge13" class="edge">
<title>Node10&#45;&gt;Node13</title>
<path fill="none" stroke="midnightblue" d="M1309.93,-56.32C1320.17,-48.18 1335.72,-35.84 1348,-26.09"/>
<polygon fill="midnightblue" stroke="midnightblue" points="1350.22,-28.79 1355.88,-19.83 1345.87,-23.31 1350.22,-28.79"/>
</g>
<!-- Node14 -->
<g id="node14" class="node">
<title>Node14</title>
<g id="a_node14"><a xlink:title=" ">
<polygon fill="none" stroke="#bfbfbf" points="597.5,-0.5 597.5,-19.5 644.5,-19.5 644.5,-0.5 597.5,-0.5"/>
<text text-anchor="middle" x="621" y="-7.5" font-family="Helvetica,sans-Serif" font-size="10.00">cmath</text>
</a>
</g>
</g>
<!-- Node10&#45;&gt;Node14 -->
<g id="edge15" class="edge">
<title>Node10&#45;&gt;Node14</title>
<path fill="none" stroke="midnightblue" d="M1267.66,-62.5C1155.02,-53.53 771.25,-22.97 654.79,-13.69"/>
<polygon fill="midnightblue" stroke="midnightblue" points="654.92,-10.19 644.68,-12.89 654.37,-17.17 654.92,-10.19"/>
</g>
<!-- Node15 -->
<g id="node15" class="node">
<title>Node15</title>
<g id="a_node15"><a xlink:title=" ">
<polygon fill="none" stroke="#bfbfbf" points="1199.5,-0.5 1199.5,-19.5 1258.5,-19.5 1258.5,-0.5 1199.5,-0.5"/>
<text text-anchor="middle" x="1229" y="-7.5" font-family="Helvetica,sans-Serif" font-size="10.00">phydro.h</text>
</a>
</g>
</g>
<!-- Node10&#45;&gt;Node15 -->
<g id="edge17" class="edge">
<title>Node10&#45;&gt;Node15</title>
<path fill="none" stroke="midnightblue" d="M1287.75,-56.32C1277.2,-48.18 1261.2,-35.84 1248.56,-26.09"/>
<polygon fill="midnightblue" stroke="midnightblue" points="1250.51,-23.17 1240.45,-19.83 1246.23,-28.71 1250.51,-23.17"/>
</g>
<!-- Node16&#45;&gt;Node12 -->
<g id="edge19" class="edge">
<title>Node16&#45;&gt;Node12</title>
<path fill="none" stroke="midnightblue" d="M856.21,-282.17C859.17,-281.42 862.15,-280.68 865,-280 940.56,-262.06 960.68,-262.94 1036,-244 1282.23,-182.08 1434.3,-282.51 1582,-76 1595.65,-56.91 1571.53,-37.27 1550.14,-24.64"/>
<polygon fill="midnightblue" stroke="midnightblue" points="1551.69,-21.5 1541.26,-19.68 1548.28,-27.61 1551.69,-21.5"/>
</g>
<!-- Node17 -->
<g id="node17" class="node">
<title>Node17</title>
<g id="a_node17"><a xlink:href="traits__params_8h.html" target="_top" xlink:title=" ">
<polygon fill="none" stroke="black" points="672.5,-112.5 672.5,-131.5 765.5,-131.5 765.5,-112.5 672.5,-112.5"/>
<text text-anchor="middle" x="719" y="-119.5" font-family="Helvetica,sans-Serif" font-size="10.00">traits_params.h</text>
</a>
</g>
</g>
<!-- Node16&#45;&gt;Node17 -->
<g id="edge20" class="edge">
<title>Node16&#45;&gt;Node17</title>
<path fill="none" stroke="midnightblue" d="M819.63,-280.3C809.15,-271.87 793.65,-258.29 783,-244 760.43,-213.72 762.9,-201.25 745,-168 740.02,-158.75 734.19,-148.6 729.32,-140.29"/>
<polygon fill="midnightblue" stroke="midnightblue" points="732.24,-138.37 724.14,-131.54 726.22,-141.93 732.24,-138.37"/>
</g>
<!-- Node18 -->
<g id="node18" class="node">
<title>Node18</title>
<g id="a_node18"><a xlink:href="initializer__v2_8h.html" target="_top" xlink:title=" ">
<polygon fill="none" stroke="black" points="1022.5,-56.5 1022.5,-75.5 1135.5,-75.5 1135.5,-56.5 1022.5,-56.5"/>
<text text-anchor="middle" x="1079" y="-63.5" font-family="Helvetica,sans-Serif" font-size="10.00">utils/initializer_v2.h</text>
</a>
</g>
</g>
<!-- Node16&#45;&gt;Node18 -->
<g id="edge50" class="edge">
<title>Node16&#45;&gt;Node18</title>
<path fill="none" stroke="midnightblue" d="M856.24,-282.28C859.19,-281.5 862.16,-280.73 865,-280 928.89,-263.56 954.04,-280.49 1009,-244 1058.91,-210.86 1068.24,-189.8 1084,-132 1088.19,-116.64 1086.27,-98.55 1083.68,-85.35"/>
<polygon fill="midnightblue" stroke="midnightblue" points="1087.1,-84.57 1081.48,-75.59 1080.27,-86.11 1087.1,-84.57"/>
</g>
<!-- Node24 -->
<g id="node24" class="node">
<title>Node24</title>
<g id="a_node24"><a xlink:href="plant__architecture_8h.html" target="_top" xlink:title=" ">
<polygon fill="none" stroke="black" points="622,-168.5 622,-187.5 736,-187.5 736,-168.5 622,-168.5"/>
<text text-anchor="middle" x="679" y="-175.5" font-family="Helvetica,sans-Serif" font-size="10.00">plant_architecture.h</text>
</a>
</g>
</g>
<!-- Node16&#45;&gt;Node24 -->
<g id="edge34" class="edge">
<title>Node16&#45;&gt;Node24</title>
<path fill="none" stroke="midnightblue" d="M812.9,-280.48C795.99,-272.17 770.36,-258.67 750,-244 729.37,-229.14 708.18,-208.99 694.39,-195.08"/>
<polygon fill="midnightblue" stroke="midnightblue" points="696.67,-192.41 687.18,-187.7 691.66,-197.3 696.67,-192.41"/>
</g>
<!-- Node25 -->
<g id="node25" class="node">
<title>Node25</title>
<g id="a_node25"><a xlink:href="assimilation_8h.html" target="_top" xlink:title=" ">
<polygon fill="none" stroke="black" points="792,-224.5 792,-243.5 878,-243.5 878,-224.5 792,-224.5"/>
<text text-anchor="middle" x="835" y="-231.5" font-family="Helvetica,sans-Serif" font-size="10.00">assimilation.h</text>
</a>
</g>
</g>
<!-- Node16&#45;&gt;Node25 -->
<g id="edge37" class="edge">
<title>Node16&#45;&gt;Node25</title>
<path fill="none" stroke="midnightblue" d="M831.66,-280.08C832.18,-273.01 832.94,-262.86 833.59,-253.99"/>
<polygon fill="midnightblue" stroke="midnightblue" points="837.1,-253.98 834.35,-243.75 830.12,-253.47 837.1,-253.98"/>
</g>
<!-- Node27 -->
<g id="node27" class="node">
<title>Node27</title>
<g id="a_node27"><a xlink:href="rk4_8h.html" target="_top" xlink:title=" ">
<polygon fill="none" stroke="black" points="934.5,-224.5 934.5,-243.5 999.5,-243.5 999.5,-224.5 934.5,-224.5"/>
<text text-anchor="middle" x="967" y="-231.5" font-family="Helvetica,sans-Serif" font-size="10.00">utils/rk4.h</text>
</a>
</g>
</g>
<!-- Node16&#45;&gt;Node27 -->
<g id="edge42" class="edge">
<title>Node16&#45;&gt;Node27</title>
<path fill="none" stroke="midnightblue" d="M852.55,-280.44C875.03,-271.52 910.49,-257.44 935.98,-247.32"/>
<polygon fill="midnightblue" stroke="midnightblue" points="937.55,-250.46 945.55,-243.52 934.97,-243.95 937.55,-250.46"/>
</g>
<!-- Node28 -->
<g id="node28" class="node">
<title>Node28</title>
<g id="a_node28"><a xlink:href="moving__average_8h.html" target="_top" xlink:title=" ">
<polygon fill="none" stroke="black" points="174.5,-56.5 174.5,-75.5 305.5,-75.5 305.5,-56.5 174.5,-56.5"/>
<text text-anchor="middle" x="240" y="-63.5" font-family="Helvetica,sans-Serif" font-size="10.00">utils/moving_average.h</text>
</a>
</g>
</g>
<!-- Node16&#45;&gt;Node28 -->
<g id="edge43" class="edge">
<title>Node16&#45;&gt;Node28</title>
<path fill="none" stroke="midnightblue" d="M810.37,-280.48C779.66,-267.87 720.07,-243.59 669,-224 522.6,-167.86 346.46,-104.79 273.83,-78.98"/>
<polygon fill="midnightblue" stroke="midnightblue" points="274.88,-75.64 264.29,-75.59 272.54,-82.24 274.88,-75.64"/>
</g>
<!-- Node31 -->
<g id="node31" class="node">
<title>Node31</title>
<g id="a_node31"><a xlink:href="plant_8tpp.html" target="_top" xlink:title=" ">
<polygon fill="none" stroke="black" points="982,-168.5 982,-187.5 1042,-187.5 1042,-168.5 982,-168.5"/>
<text text-anchor="middle" x="1012" y="-175.5" font-family="Helvetica,sans-Serif" font-size="10.00">plant.tpp</text>
</a>
</g>
</g>
<!-- Node16&#45;&gt;Node31 -->
<g id="edge51" class="edge">
<title>Node16&#45;&gt;Node31</title>
<path fill="none" stroke="midnightblue" d="M842.7,-280.33C860.34,-267.41 895,-242.63 926,-224 945.2,-212.46 967.64,-200.78 984.79,-192.2"/>
<polygon fill="midnightblue" stroke="midnightblue" points="986.8,-195.12 994.21,-187.54 983.69,-188.84 986.8,-195.12"/>
</g>
<!-- Node17&#45;&gt;Node11 -->
<g id="edge32" class="edge">
<title>Node17&#45;&gt;Node11</title>
<path fill="none" stroke="midnightblue" d="M765.81,-120.52C845.1,-118.73 1010.33,-110.72 1145,-76 1192.21,-63.83 1243.78,-39.64 1273.66,-24.44"/>
<polygon fill="midnightblue" stroke="midnightblue" points="1275.64,-27.36 1282.92,-19.67 1272.43,-21.14 1275.64,-27.36"/>
</g>
<!-- Node17&#45;&gt;Node14 -->
<g id="edge31" class="edge">
<title>Node17&#45;&gt;Node14</title>
<path fill="none" stroke="midnightblue" d="M717.46,-112.09C714.76,-98.64 708.05,-72.93 694,-56 682.61,-42.28 665.9,-31.55 651.34,-24.01"/>
<polygon fill="midnightblue" stroke="midnightblue" points="652.68,-20.77 642.16,-19.52 649.61,-27.06 652.68,-20.77"/>
</g>
<!-- Node17&#45;&gt;Node18 -->
<g id="edge21" class="edge">
<title>Node17&#45;&gt;Node18</title>
<path fill="none" stroke="midnightblue" d="M765.69,-114C828.44,-104.58 940.33,-87.8 1012.04,-77.04"/>
<polygon fill="midnightblue" stroke="midnightblue" points="1012.94,-80.45 1022.31,-75.5 1011.9,-73.53 1012.94,-80.45"/>
</g>
<!-- Node22 -->
<g id="node22" class="node">
<title>Node22</title>
<g id="a_node22"><a xlink:title=" ">
<polygon fill="none" stroke="#bfbfbf" points="590.5,-56.5 590.5,-75.5 651.5,-75.5 651.5,-56.5 590.5,-56.5"/>
<text text-anchor="middle" x="621" y="-63.5" font-family="Helvetica,sans-Serif" font-size="10.00">io_utils.h</text>
</a>
</g>
</g>
<!-- Node17&#45;&gt;Node22 -->
<g id="edge30" class="edge">
<title>Node17&#45;&gt;Node22</title>
<path fill="none" stroke="midnightblue" d="M703.25,-112.32C687.68,-103.74 663.62,-90.49 645.54,-80.52"/>
<polygon fill="midnightblue" stroke="midnightblue" points="647.15,-77.42 636.71,-75.65 643.78,-83.55 647.15,-77.42"/>
</g>
<!-- Node23 -->
<g id="node23" class="node">
<title>Node23</title>
<g id="a_node23"><a xlink:title=" ">
<polygon fill="none" stroke="#bfbfbf" points="310,-0.5 310,-19.5 362,-19.5 362,-0.5 310,-0.5"/>
<text text-anchor="middle" x="336" y="-7.5" font-family="Helvetica,sans-Serif" font-size="10.00">cassert</text>
</a>
</g>
</g>
<!-- Node17&#45;&gt;Node23 -->
<g id="edge33" class="edge">
<title>Node17&#45;&gt;Node23</title>
<path fill="none" stroke="midnightblue" d="M714.1,-112.48C705.32,-98.09 685.41,-69.23 660,-56 547.54,2.57 501.94,-41.61 377,-20 375.52,-19.74 374.01,-19.47 372.49,-19.18"/>
<polygon fill="midnightblue" stroke="midnightblue" points="372.89,-15.7 362.4,-17.16 371.51,-22.56 372.89,-15.7"/>
</g>
<!-- Node18&#45;&gt;Node7 -->
<g id="edge22" class="edge">
<title>Node18&#45;&gt;Node7</title>
<path fill="none" stroke="midnightblue" d="M1090.57,-56.32C1101.42,-48.18 1117.88,-35.84 1130.88,-26.09"/>
<polygon fill="midnightblue" stroke="midnightblue" points="1133.32,-28.63 1139.22,-19.83 1129.12,-23.03 1133.32,-28.63"/>
</g>
<!-- Node18&#45;&gt;Node8 -->
<g id="edge26" class="edge">
<title>Node18&#45;&gt;Node8</title>
<path fill="none" stroke="midnightblue" d="M1022.33,-60.03C1006.97,-58.7 990.35,-57.28 975,-56 773.55,-39.26 531.58,-20.41 443.85,-13.61"/>
<polygon fill="midnightblue" stroke="midnightblue" points="443.93,-10.11 433.69,-12.83 443.39,-17.09 443.93,-10.11"/>
</g>
<!-- Node18&#45;&gt;Node11 -->
<g id="edge24" class="edge">
<title>Node18&#45;&gt;Node11</title>
<path fill="none" stroke="midnightblue" d="M1117.15,-56.49C1153.32,-48.3 1209.43,-35.26 1266.73,-20.24"/>
<polygon fill="midnightblue" stroke="midnightblue" points="1267.91,-23.55 1276.69,-17.62 1266.12,-16.79 1267.91,-23.55"/>
</g>
<!-- Node18&#45;&gt;Node12 -->
<g id="edge25" class="edge">
<title>Node18&#45;&gt;Node12</title>
<path fill="none" stroke="midnightblue" d="M1135.68,-58.11C1227.68,-46.92 1407.04,-25.1 1485.14,-15.6"/>
<polygon fill="midnightblue" stroke="midnightblue" points="1485.97,-19.03 1495.47,-14.35 1485.12,-12.08 1485.97,-19.03"/>
</g>
<!-- Node18&#45;&gt;Node13 -->
<g id="edge27" class="edge">
<title>Node18&#45;&gt;Node13</title>
<path fill="none" stroke="midnightblue" d="M1132.07,-56.46C1180.81,-48.39 1255.26,-35.52 1328.85,-20.14"/>
<polygon fill="midnightblue" stroke="midnightblue" points="1329.69,-23.54 1338.76,-18.06 1328.25,-16.69 1329.69,-23.54"/>
</g>
<!-- Node19 -->
<g id="node19" class="node">
<title>Node19</title>
<g id="a_node19"><a xlink:title=" ">
<polygon fill="none" stroke="#bfbfbf" points="975,-0.5 975,-19.5 1019,-19.5 1019,-0.5 975,-0.5"/>
<text text-anchor="middle" x="997" y="-7.5" font-family="Helvetica,sans-Serif" font-size="10.00">regex</text>
</a>
</g>
</g>
<!-- Node18&#45;&gt;Node19 -->
<g id="edge23" class="edge">
<title>Node18&#45;&gt;Node19</title>
<path fill="none" stroke="midnightblue" d="M1065.83,-56.32C1053.15,-47.98 1033.77,-35.21 1018.79,-25.35"/>
<polygon fill="midnightblue" stroke="midnightblue" points="1020.42,-22.23 1010.14,-19.65 1016.57,-28.08 1020.42,-22.23"/>
</g>
<!-- Node20 -->
<g id="node20" class="node">
<title>Node20</title>
<g id="a_node20"><a xlink:title=" ">
<polygon fill="none" stroke="#bfbfbf" points="1037.5,-0.5 1037.5,-19.5 1102.5,-19.5 1102.5,-0.5 1037.5,-0.5"/>
<text text-anchor="middle" x="1070" y="-7.5" font-family="Helvetica,sans-Serif" font-size="10.00">stdexcept</text>
</a>
</g>
</g>
<!-- Node18&#45;&gt;Node20 -->
<g id="edge28" class="edge">
<title>Node18&#45;&gt;Node20</title>
<path fill="none" stroke="midnightblue" d="M1077.51,-56.08C1076.32,-48.93 1074.61,-38.64 1073.12,-29.69"/>
<polygon fill="midnightblue" stroke="midnightblue" points="1076.55,-29.04 1071.46,-19.75 1069.65,-30.19 1076.55,-29.04"/>
</g>
<!-- Node21 -->
<g id="node21" class="node">
<title>Node21</title>
<g id="a_node21"><a xlink:title=" ">
<polygon fill="none" stroke="#bfbfbf" points="863.5,-0.5 863.5,-19.5 956.5,-19.5 956.5,-0.5 863.5,-0.5"/>
<text text-anchor="middle" x="910" y="-7.5" font-family="Helvetica,sans-Serif" font-size="10.00">unordered_map</text>
</a>
</g>
</g>
<!-- Node18&#45;&gt;Node21 -->
<g id="edge29" class="edge">
<title>Node18&#45;&gt;Node21</title>
<path fill="none" stroke="midnightblue" d="M1052.22,-56.44C1023.67,-47.32 978.27,-32.81 946.46,-22.65"/>
<polygon fill="midnightblue" stroke="midnightblue" points="947.24,-19.23 936.65,-19.52 945.11,-25.89 947.24,-19.23"/>
</g>
<!-- Node24&#45;&gt;Node14 -->
<g id="edge35" class="edge">
<title>Node24&#45;&gt;Node14</title>
<path fill="none" stroke="midnightblue" d="M665.58,-168.42C643.02,-153.08 598.26,-118.57 581,-76 573.68,-57.93 587.98,-39.16 601.47,-26.47"/>
<polygon fill="midnightblue" stroke="midnightblue" points="603.94,-28.96 609.16,-19.74 599.33,-23.7 603.94,-28.96"/>
</g>
<!-- Node24&#45;&gt;Node17 -->
<g id="edge36" class="edge">
<title>Node24&#45;&gt;Node17</title>
<path fill="none" stroke="midnightblue" d="M685.61,-168.08C691.26,-160.46 699.54,-149.26 706.45,-139.94"/>
<polygon fill="midnightblue" stroke="midnightblue" points="709.38,-141.87 712.52,-131.75 703.75,-137.7 709.38,-141.87"/>
</g>
<!-- Node25&#45;&gt;Node15 -->
<g id="edge38" class="edge">
<title>Node25&#45;&gt;Node15</title>
<path fill="none" stroke="midnightblue" d="M878.15,-224.95C899.09,-218.64 922.39,-207.5 935,-188 972.63,-129.8 805.66,-107.53 852,-56 900.58,-1.97 1099.52,-30.15 1189.15,-19.68"/>
<polygon fill="midnightblue" stroke="midnightblue" points="1189.85,-23.12 1199.26,-18.25 1188.87,-16.19 1189.85,-23.12"/>
</g>
<!-- Node25&#45;&gt;Node17 -->
<g id="edge39" class="edge">
<title>Node25&#45;&gt;Node17</title>
<path fill="none" stroke="midnightblue" d="M828.13,-224.09C817.9,-211.08 797.74,-186.44 778,-168 766.15,-156.93 751.68,-145.86 740.04,-137.48"/>
<polygon fill="midnightblue" stroke="midnightblue" points="741.96,-134.55 731.78,-131.63 737.92,-140.26 741.96,-134.55"/>
</g>
<!-- Node25&#45;&gt;Node24 -->
<g id="edge40" class="edge">
<title>Node25&#45;&gt;Node24</title>
<path fill="none" stroke="midnightblue" d="M810.28,-224.44C784.15,-215.4 742.74,-201.06 713.42,-190.92"/>
<polygon fill="midnightblue" stroke="midnightblue" points="714.2,-187.48 703.6,-187.52 711.91,-194.1 714.2,-187.48"/>
</g>
<!-- Node26 -->
<g id="node26" class="node">
<title>Node26</title>
<g id="a_node26"><a xlink:href="assimilation_8tpp.html" target="_top" xlink:title=" ">
<polygon fill="none" stroke="black" points="830.5,-168.5 830.5,-187.5 925.5,-187.5 925.5,-168.5 830.5,-168.5"/>
<text text-anchor="middle" x="878" y="-175.5" font-family="Helvetica,sans-Serif" font-size="10.00">assimilation.tpp</text>
</a>
</g>
</g>
<!-- Node25&#45;&gt;Node26 -->
<g id="edge41" class="edge">
<title>Node25&#45;&gt;Node26</title>
<path fill="none" stroke="midnightblue" d="M842.1,-224.08C848.24,-216.38 857.27,-205.03 864.74,-195.65"/>
<polygon fill="midnightblue" stroke="midnightblue" points="867.54,-197.75 871.03,-187.75 862.06,-193.39 867.54,-197.75"/>
</g>
<!-- Node28&#45;&gt;Node7 -->
<g id="edge44" class="edge">
<title>Node28&#45;&gt;Node7</title>
<path fill="none" stroke="midnightblue" d="M305.7,-59.41C321.21,-58.19 337.68,-56.97 353,-56 686.74,-34.8 775.72,-65.54 1110.88,-19.89"/>
<polygon fill="midnightblue" stroke="midnightblue" points="1111.44,-23.35 1120.87,-18.52 1110.48,-16.41 1111.44,-23.35"/>
</g>
<!-- Node28&#45;&gt;Node8 -->
<g id="edge48" class="edge">
<title>Node28&#45;&gt;Node8</title>
<path fill="none" stroke="midnightblue" d="M266.94,-56.44C296.67,-47 344.57,-31.78 376.66,-21.59"/>
<polygon fill="midnightblue" stroke="midnightblue" points="378,-24.84 386.47,-18.47 375.88,-18.16 378,-24.84"/>
</g>
<!-- Node28&#45;&gt;Node14 -->
<g id="edge46" class="edge">
<title>Node28&#45;&gt;Node14</title>
<path fill="none" stroke="midnightblue" d="M300.37,-56.44C381.47,-44.95 522.83,-24.91 587.26,-15.78"/>
<polygon fill="midnightblue" stroke="midnightblue" points="587.87,-19.23 597.28,-14.36 586.89,-12.3 587.87,-19.23"/>
</g>
<!-- Node28&#45;&gt;Node23 -->
<g id="edge47" class="edge">
<title>Node28&#45;&gt;Node23</title>
<path fill="none" stroke="midnightblue" d="M255.42,-56.32C270.54,-47.82 293.82,-34.73 311.47,-24.8"/>
<polygon fill="midnightblue" stroke="midnightblue" points="313.61,-27.61 320.61,-19.65 310.18,-21.51 313.61,-27.61"/>
</g>
<!-- Node29 -->
<g id="node29" class="node">
<title>Node29</title>
<g id="a_node29"><a xlink:title=" ">
<polygon fill="none" stroke="#bfbfbf" points="165,-0.5 165,-19.5 197,-19.5 197,-0.5 165,-0.5"/>
<text text-anchor="middle" x="181" y="-7.5" font-family="Helvetica,sans-Serif" font-size="10.00">list</text>
</a>
</g>
</g>
<!-- Node28&#45;&gt;Node29 -->
<g id="edge45" class="edge">
<title>Node28&#45;&gt;Node29</title>
<path fill="none" stroke="midnightblue" d="M230.52,-56.32C221.8,-48.34 208.66,-36.31 198.1,-26.65"/>
<polygon fill="midnightblue" stroke="midnightblue" points="200.39,-24 190.65,-19.83 195.67,-29.17 200.39,-24"/>
</g>
<!-- Node30 -->
<g id="node30" class="node">
<title>Node30</title>
<g id="a_node30"><a xlink:title=" ">
<polygon fill="none" stroke="#bfbfbf" points="215,-0.5 215,-19.5 279,-19.5 279,-0.5 215,-0.5"/>
<text text-anchor="middle" x="247" y="-7.5" font-family="Helvetica,sans-Serif" font-size="10.00">algorithm</text>
</a>
</g>
</g>
<!-- Node28&#45;&gt;Node30 -->
<g id="edge49" class="edge">
<title>Node28&#45;&gt;Node30</title>
<path fill="none" stroke="midnightblue" d="M241.16,-56.08C242.08,-48.93 243.42,-38.64 244.58,-29.69"/>
<polygon fill="midnightblue" stroke="midnightblue" points="248.05,-30.12 245.87,-19.75 241.11,-29.22 248.05,-30.12"/>
</g>
<!-- Node31&#45;&gt;Node14 -->
<g id="edge52" class="edge">
<title>Node31&#45;&gt;Node14</title>
<path fill="none" stroke="midnightblue" d="M991.8,-168.42C927.45,-141.1 727,-56 650.8,-23.65"/>
<polygon fill="midnightblue" stroke="midnightblue" points="651.88,-20.31 641.31,-19.62 649.15,-26.75 651.88,-20.31"/>
</g>
<!-- Node32&#45;&gt;Node5 -->
<g id="edge54" class="edge">
<title>Node32&#45;&gt;Node5</title>
<path fill="none" stroke="midnightblue" d="M568.21,-280.32C579.78,-272.11 597.38,-259.6 611.16,-249.81"/>
<polygon fill="midnightblue" stroke="midnightblue" points="613.44,-252.48 619.57,-243.83 609.39,-246.77 613.44,-252.48"/>
</g>
<!-- Node32&#45;&gt;Node8 -->
<g id="edge55" class="edge">
<title>Node32&#45;&gt;Node8</title>
<path fill="none" stroke="midnightblue" d="M500.87,-284.42C458.52,-279.14 399.58,-267.88 353,-244 253.28,-192.88 210.77,-178.28 165,-76 115.62,34.36 138.06,-67.2 371,-20 372.69,-19.66 374.41,-19.3 376.15,-18.93"/>
<polygon fill="midnightblue" stroke="midnightblue" points="377.11,-22.3 386.12,-16.72 375.6,-15.47 377.11,-22.3"/>
</g>
<!-- Node32&#45;&gt;Node11 -->
<g id="edge56" class="edge">
<title>Node32&#45;&gt;Node11</title>
<path fill="none" stroke="midnightblue" d="M553.49,-280.12C544.26,-245.38 516.01,-117.54 581,-56 634.61,-5.24 1155.2,-30.83 1266.55,-19.46"/>
<polygon fill="midnightblue" stroke="midnightblue" points="1267.33,-22.89 1276.79,-18.11 1266.42,-15.95 1267.33,-22.89"/>
</g>
<!-- Node32&#45;&gt;Node22 -->
<g id="edge57" class="edge">
<title>Node32&#45;&gt;Node22</title>
<path fill="none" stroke="midnightblue" d="M558.55,-280.3C568.13,-247.56 602.15,-131.38 615.53,-85.67"/>
<polygon fill="midnightblue" stroke="midnightblue" points="618.95,-86.46 618.4,-75.88 612.23,-84.5 618.95,-86.46"/>
</g>
<!-- Node32&#45;&gt;Node28 -->
<g id="edge58" class="edge">
<title>Node32&#45;&gt;Node28</title>
<path fill="none" stroke="midnightblue" d="M500.69,-283.96C464.3,-278.53 416.94,-267.28 381,-244 316.48,-202.2 268.21,-120.88 249.05,-84.89"/>
<polygon fill="midnightblue" stroke="midnightblue" points="251.96,-82.89 244.24,-75.63 245.74,-86.12 251.96,-82.89"/>
</g>
<!-- Node33 -->
<g id="node33" class="node">
<title>Node33</title>
<g id="a_node33"><a xlink:href="adaptive__species_8tpp.html" target="_top" xlink:title=" ">
<polygon fill="none" stroke="black" points="390,-224.5 390,-243.5 510,-243.5 510,-224.5 390,-224.5"/>
<text text-anchor="middle" x="450" y="-231.5" font-family="Helvetica,sans-Serif" font-size="10.00">adaptive_species.tpp</text>
</a>
</g>
</g>
<!-- Node32&#45;&gt;Node33 -->
<g id="edge59" class="edge">
<title>Node32&#45;&gt;Node33</title>
<path fill="none" stroke="midnightblue" d="M538.97,-280.32C521.97,-271.66 495.62,-258.24 476.01,-248.25"/>
<polygon fill="midnightblue" stroke="midnightblue" points="477.49,-245.08 466.99,-243.65 474.31,-251.31 477.49,-245.08"/>
</g>
<!-- Node34&#45;&gt;Node8 -->
<g id="edge61" class="edge">
<title>Node34&#45;&gt;Node8</title>
<path fill="none" stroke="midnightblue" d="M410,-56.08C410,-49.01 410,-38.86 410,-29.99"/>
<polygon fill="midnightblue" stroke="midnightblue" points="413.5,-29.75 410,-19.75 406.5,-29.75 413.5,-29.75"/>
</g>
<!-- Node34&#45;&gt;Node14 -->
<g id="edge62" class="edge">
<title>Node34&#45;&gt;Node14</title>
<path fill="none" stroke="midnightblue" d="M443.43,-56.44C482.8,-46.37 547.79,-29.74 587.28,-19.63"/>
<polygon fill="midnightblue" stroke="midnightblue" points="588.4,-22.96 597.22,-17.09 586.66,-16.18 588.4,-22.96"/>
</g>
<!-- Node35&#45;&gt;Node2 -->
<g id="edge74" class="edge">
<title>Node35&#45;&gt;Node2</title>
<path fill="none" stroke="midnightblue" d="M779.85,-448.44C733.25,-438.98 658.16,-423.74 607.95,-413.55"/>
<polygon fill="midnightblue" stroke="midnightblue" points="608.45,-410.08 597.95,-411.52 607.06,-416.94 608.45,-410.08"/>
</g>
<!-- Node35&#45;&gt;Node3 -->
<g id="edge73" class="edge">
<title>Node35&#45;&gt;Node3</title>
<path fill="none" stroke="midnightblue" d="M811.56,-448.24C802.58,-439.97 790.25,-426.66 785,-412 778.8,-394.69 790.41,-376.23 801.71,-363.42"/>
<polygon fill="midnightblue" stroke="midnightblue" points="804.52,-365.54 808.9,-355.89 799.46,-360.71 804.52,-365.54"/>
</g>
<!-- Node35&#45;&gt;Node5 -->
<g id="edge71" class="edge">
<title>Node35&#45;&gt;Node5</title>
<path fill="none" stroke="midnightblue" d="M813.25,-448.21C804.42,-439.26 790.5,-424.91 779,-412 727.75,-354.48 670.28,-283.17 645.06,-251.49"/>
<polygon fill="midnightblue" stroke="midnightblue" points="647.79,-249.3 638.83,-243.65 642.31,-253.66 647.79,-249.3"/>
</g>
<!-- Node35&#45;&gt;Node7 -->
<g id="edge66" class="edge">
<title>Node35&#45;&gt;Node7</title>
<path fill="none" stroke="midnightblue" d="M873.25,-457.46C964.69,-457.24 1150.98,-451.76 1200,-412 1223.69,-392.79 1222,-377.5 1222,-347 1222,-347 1222,-347 1222,-177 1222,-118.45 1184.2,-56.97 1163.76,-28"/>
<polygon fill="midnightblue" stroke="midnightblue" points="1166.51,-25.83 1157.81,-19.79 1160.84,-29.94 1166.51,-25.83"/>
</g>
<!-- Node35&#45;&gt;Node8 -->
<g id="edge65" class="edge">
<title>Node35&#45;&gt;Node8</title>
<path fill="none" stroke="midnightblue" d="M770.8,-455.05C619.02,-449.09 178.24,-430.38 116,-412 59.32,-395.26 0,-406.1 0,-347 0,-347 0,-347 0,-121 0,-28.68 305.08,-32.53 371,-20 372.69,-19.68 374.42,-19.34 376.16,-18.98"/>
<polygon fill="midnightblue" stroke="midnightblue" points="377.1,-22.35 386.14,-16.82 375.62,-15.51 377.1,-22.35"/>
</g>
<!-- Node35&#45;&gt;Node12 -->
<g id="edge67" class="edge">
<title>Node35&#45;&gt;Node12</title>
<path fill="none" stroke="midnightblue" d="M873.22,-455.87C1058.36,-451.12 1682,-429.03 1682,-347 1682,-347 1682,-347 1682,-121 1682,-62.21 1607.57,-32.37 1560.56,-19.39"/>
<polygon fill="midnightblue" stroke="midnightblue" points="1561.26,-15.96 1550.7,-16.8 1559.48,-22.73 1561.26,-15.96"/>
</g>
<!-- Node35&#45;&gt;Node14 -->
<g id="edge68" class="edge">
<title>Node35&#45;&gt;Node14</title>
<path fill="none" stroke="midnightblue" d="M770.86,-455.23C596.79,-448.54 38,-421.26 38,-347 38,-347 38,-347 38,-289 38,-209.41 106.43,-215.88 170,-168 189.04,-153.66 330.67,-64.35 353,-56 433.62,-25.86 535.44,-15.82 587.3,-12.55"/>
<polygon fill="midnightblue" stroke="midnightblue" points="587.5,-16.04 597.28,-11.96 587.09,-9.05 587.5,-16.04"/>
</g>
<!-- Node35&#45;&gt;Node32 -->
<g id="edge75" class="edge">
<title>Node35&#45;&gt;Node32</title>
<path fill="none" stroke="midnightblue" d="M796.24,-448.4C773.79,-440.42 740.73,-427.45 714,-412 658.7,-380.03 600.87,-331.13 573.01,-306.43"/>
<polygon fill="midnightblue" stroke="midnightblue" points="575.14,-303.64 565.36,-299.58 570.47,-308.86 575.14,-303.64"/>
</g>
<!-- Node36 -->
<g id="node36" class="node">
<title>Node36</title>
<g id="a_node36"><a xlink:title=" ">
<polygon fill="none" stroke="#bfbfbf" points="794,-392.5 794,-411.5 850,-411.5 850,-392.5 794,-392.5"/>
<text text-anchor="middle" x="822" y="-399.5" font-family="Helvetica,sans-Serif" font-size="10.00">numeric</text>
</a>
</g>
</g>
<!-- Node35&#45;&gt;Node36 -->
<g id="edge69" class="edge">
<title>Node35&#45;&gt;Node36</title>
<path fill="none" stroke="midnightblue" d="M822,-448.08C822,-441.01 822,-430.86 822,-421.99"/>
<polygon fill="midnightblue" stroke="midnightblue" points="825.5,-421.75 822,-411.75 818.5,-421.75 825.5,-421.75"/>
</g>
<!-- Node37 -->
<g id="node37" class="node">
<title>Node37</title>
<g id="a_node37"><a xlink:title=" ">
<polygon fill="none" stroke="#bfbfbf" points="868.5,-392.5 868.5,-411.5 933.5,-411.5 933.5,-392.5 868.5,-392.5"/>
<text text-anchor="middle" x="901" y="-399.5" font-family="Helvetica,sans-Serif" font-size="10.00">functional</text>
</a>
</g>
</g>
<!-- Node35&#45;&gt;Node37 -->
<g id="edge70" class="edge">
<title>Node35&#45;&gt;Node37</title>
<path fill="none" stroke="midnightblue" d="M834.69,-448.32C846.9,-439.98 865.58,-427.21 880,-417.35"/>
<polygon fill="midnightblue" stroke="midnightblue" points="882.06,-420.19 888.34,-411.65 878.11,-414.41 882.06,-420.19"/>
</g>
<!-- Node38 -->
<g id="node38" class="node">
<title>Node38</title>
<g id="a_node38"><a xlink:title=" ">
<polygon fill="none" stroke="#bfbfbf" points="952,-392.5 952,-411.5 1042,-411.5 1042,-392.5 952,-392.5"/>
<text text-anchor="middle" x="997" y="-399.5" font-family="Helvetica,sans-Serif" font-size="10.00">time_stepper.h</text>
</a>
</g>
</g>
<!-- Node35&#45;&gt;Node38 -->
<g id="edge72" class="edge">
<title>Node35&#45;&gt;Node38</title>
<path fill="none" stroke="midnightblue" d="M849.73,-448.44C879.43,-439.28 926.72,-424.69 959.67,-414.52"/>
<polygon fill="midnightblue" stroke="midnightblue" points="960.88,-417.81 969.4,-411.52 958.81,-411.12 960.88,-417.81"/>
</g>
<!-- Node39 -->
<g id="node39" class="node">
<title>Node39</title>
<g id="a_node39"><a xlink:href="state__restore_8h.html" target="_top" xlink:title=" ">
<polygon fill="none" stroke="black" points="1101,-392.5 1101,-411.5 1191,-411.5 1191,-392.5 1101,-392.5"/>
<text text-anchor="middle" x="1146" y="-399.5" font-family="Helvetica,sans-Serif" font-size="10.00">state_restore.h</text>
</a>
</g>
</g>
<!-- Node35&#45;&gt;Node39 -->
<g id="edge76" class="edge">
<title>Node35&#45;&gt;Node39</title>
<path fill="none" stroke="midnightblue" d="M873.34,-448.44C932.63,-438.56 1029.8,-422.37 1090.71,-412.21"/>
<polygon fill="midnightblue" stroke="midnightblue" points="1091.62,-415.61 1100.91,-410.52 1090.47,-408.71 1091.62,-415.61"/>
</g>
<!-- Node40 -->
<g id="node40" class="node">
<title>Node40</title>
<g id="a_node40"><a xlink:href="climate__stream_8h.html" target="_top" xlink:title=" ">
<polygon fill="none" stroke="black" points="1307,-112.5 1307,-131.5 1409,-131.5 1409,-112.5 1307,-112.5"/>
<text text-anchor="middle" x="1358" y="-119.5" font-family="Helvetica,sans-Serif" font-size="10.00">climate_stream.h</text>
</a>
</g>
</g>
<!-- Node35&#45;&gt;Node40 -->
<g id="edge82" class="edge">
<title>Node35&#45;&gt;Node40</title>
<path fill="none" stroke="midnightblue" d="M873.17,-453.75C1030.77,-443.22 1500.87,-407.68 1544,-356 1612.59,-273.81 1448.94,-172.34 1383.54,-136.39"/>
<polygon fill="midnightblue" stroke="midnightblue" points="1385.11,-133.26 1374.65,-131.57 1381.77,-139.41 1385.11,-133.26"/>
</g>
<!-- Node42 -->
<g id="node42" class="node">
<title>Node42</title>
<g id="a_node42"><a xlink:href="plantfate__config_8h.html" target="_top" xlink:title=" ">
<polygon fill="none" stroke="black" points="860.5,-56.5 860.5,-75.5 965.5,-75.5 965.5,-56.5 860.5,-56.5"/>
<text text-anchor="middle" x="913" y="-63.5" font-family="Helvetica,sans-Serif" font-size="10.00">plantfate_config.h</text>
</a>
</g>
</g>
<!-- Node35&#45;&gt;Node42 -->
<g id="edge91" class="edge">
<title>Node35&#45;&gt;Node42</title>
<path fill="none" stroke="midnightblue" d="M873.04,-453.09C932.39,-447.52 1025.5,-435.3 1051,-412 1073.22,-391.7 1070,-377.1 1070,-347 1070,-347 1070,-347 1070,-177 1070,-122.74 1006.32,-92.98 960.07,-78.52"/>
<polygon fill="midnightblue" stroke="midnightblue" points="960.79,-75.08 950.21,-75.58 958.79,-81.79 960.79,-75.08"/>
</g>
<!-- Node39&#45;&gt;Node3 -->
<g id="edge81" class="edge">
<title>Node39&#45;&gt;Node3</title>
<path fill="none" stroke="midnightblue" d="M1100.88,-393.55C1043.33,-384.05 943.63,-367.58 879.53,-357"/>
<polygon fill="midnightblue" stroke="midnightblue" points="880,-353.53 869.56,-355.35 878.86,-360.43 880,-353.53"/>
</g>
<!-- Node39&#45;&gt;Node11 -->
<g id="edge78" class="edge">
<title>Node39&#45;&gt;Node11</title>
<path fill="none" stroke="midnightblue" d="M1191.18,-397.63C1292.69,-388.83 1530,-360.78 1530,-291 1530,-291 1530,-291 1530,-233 1530,-153.88 1564.39,-114.39 1511,-56 1457.76,2.23 1413.2,-36.25 1331.21,-19.93"/>
<polygon fill="midnightblue" stroke="midnightblue" points="1331.81,-16.48 1321.29,-17.72 1330.29,-23.31 1331.81,-16.48"/>
</g>
<!-- Node39&#45;&gt;Node12 -->
<g id="edge77" class="edge">
<title>Node39&#45;&gt;Node12</title>
<path fill="none" stroke="midnightblue" d="M1191.07,-398.32C1270.39,-393.05 1431.3,-379.74 1482,-356 1515.33,-340.39 1524.32,-331.71 1543,-300 1599.37,-204.3 1651.44,-152.81 1597,-56 1588.78,-41.38 1573.67,-30.95 1559.24,-23.85"/>
<polygon fill="midnightblue" stroke="midnightblue" points="1560.48,-20.57 1549.93,-19.64 1557.6,-26.95 1560.48,-20.57"/>
</g>
<!-- Node39&#45;&gt;Node18 -->
<g id="edge79" class="edge">
<title>Node39&#45;&gt;Node18</title>
<path fill="none" stroke="midnightblue" d="M1151.28,-392.23C1161.73,-374.04 1184,-330.6 1184,-291 1184,-291 1184,-291 1184,-233 1184,-169.1 1127.74,-109.81 1097.59,-82.61"/>
<polygon fill="midnightblue" stroke="midnightblue" points="1099.67,-79.78 1089.84,-75.82 1095.05,-85.04 1099.67,-79.78"/>
</g>
<!-- Node39&#45;&gt;Node32 -->
<g id="edge80" class="edge">
<title>Node39&#45;&gt;Node32</title>
<path fill="none" stroke="midnightblue" d="M1100.92,-396.24C1006.24,-386.17 792.69,-363.04 760,-356 697.53,-342.54 626.95,-317.84 587.34,-303.07"/>
<polygon fill="midnightblue" stroke="midnightblue" points="588.55,-299.79 577.96,-299.54 586.09,-306.34 588.55,-299.79"/>
</g>
<!-- Node40&#45;&gt;Node7 -->
<g id="edge86" class="edge">
<title>Node40&#45;&gt;Node7</title>
<path fill="none" stroke="midnightblue" d="M1337.19,-112.37C1316.92,-103.77 1285.4,-89.89 1259,-76 1228.29,-59.85 1194.2,-38.77 1172.69,-25.07"/>
<polygon fill="midnightblue" stroke="midnightblue" points="1174.33,-21.96 1164.02,-19.51 1170.55,-27.85 1174.33,-21.96"/>
</g>
<!-- Node40&#45;&gt;Node8 -->
<g id="edge88" class="edge">
<title>Node40&#45;&gt;Node8</title>
<path fill="none" stroke="midnightblue" d="M1306.91,-117.43C1215.49,-110.82 1017.98,-95.57 852,-76 699.29,-58 518.03,-28.9 444.02,-16.68"/>
<polygon fill="midnightblue" stroke="midnightblue" points="444.33,-13.19 433.89,-15.01 443.19,-20.09 444.33,-13.19"/>
</g>
<!-- Node40&#45;&gt;Node10 -->
<g id="edge89" class="edge">
<title>Node40&#45;&gt;Node10</title>
<path fill="none" stroke="midnightblue" d="M1348.52,-112.32C1339.8,-104.34 1326.66,-92.31 1316.1,-82.65"/>
<polygon fill="midnightblue" stroke="midnightblue" points="1318.39,-80 1308.65,-75.83 1313.67,-85.17 1318.39,-80"/>
</g>
<!-- Node40&#45;&gt;Node11 -->
<g id="edge83" class="edge">
<title>Node40&#45;&gt;Node11</title>
<path fill="none" stroke="midnightblue" d="M1356.68,-112.11C1354.48,-99.13 1349.25,-74.52 1339,-56 1333.08,-45.3 1324.21,-34.98 1316.33,-26.93"/>
<polygon fill="midnightblue" stroke="midnightblue" points="1318.53,-24.18 1308.93,-19.7 1313.64,-29.19 1318.53,-24.18"/>
</g>
<!-- Node40&#45;&gt;Node12 -->
<g id="edge84" class="edge">
<title>Node40&#45;&gt;Node12</title>
<path fill="none" stroke="midnightblue" d="M1363.81,-112.31C1373.3,-98.68 1393.35,-72.17 1416,-56 1437.19,-40.87 1464.25,-29.55 1485.85,-22.04"/>
<polygon fill="midnightblue" stroke="midnightblue" points="1486.98,-25.36 1495.35,-18.87 1484.76,-18.72 1486.98,-25.36"/>
</g>
<!-- Node40&#45;&gt;Node13 -->
<g id="edge85" class="edge">
<title>Node40&#45;&gt;Node13</title>
<path fill="none" stroke="midnightblue" d="M1409.37,-112.64C1448.84,-105.05 1498.64,-92.52 1511,-76 1540.59,-36.45 1457.29,-20.38 1405.28,-14.32"/>
<polygon fill="midnightblue" stroke="midnightblue" points="1405.34,-10.81 1395.02,-13.21 1404.59,-17.77 1405.34,-10.81"/>
</g>
<!-- Node40&#45;&gt;Node14 -->
<g id="edge87" class="edge">
<title>Node40&#45;&gt;Node14</title>
<path fill="none" stroke="midnightblue" d="M1306.99,-119.76C1238.79,-116.89 1114.78,-107.39 1014,-76 995.4,-70.21 993.61,-61.76 975,-56 861.43,-20.85 719.21,-13.11 655.11,-11.44"/>
<polygon fill="midnightblue" stroke="midnightblue" points="654.86,-7.93 644.79,-11.21 654.71,-14.93 654.86,-7.93"/>
</g>
<!-- Node41 -->
<g id="node41" class="node">
<title>Node41</title>
<g id="a_node41"><a xlink:title=" ">
<polygon fill="none" stroke="#bfbfbf" points="1424.5,-56.5 1424.5,-75.5 1501.5,-75.5 1501.5,-56.5 1424.5,-56.5"/>
<text text-anchor="middle" x="1463" y="-63.5" font-family="Helvetica,sans-Serif" font-size="10.00">csvstream.h</text>
</a>
</g>
</g>
<!-- Node40&#45;&gt;Node41 -->
<g id="edge90" class="edge">
<title>Node40&#45;&gt;Node41</title>
<path fill="none" stroke="midnightblue" d="M1374.87,-112.32C1391.71,-103.66 1417.81,-90.24 1437.24,-80.25"/>
<polygon fill="midnightblue" stroke="midnightblue" points="1438.88,-83.34 1446.17,-75.65 1435.68,-77.12 1438.88,-83.34"/>
</g>
<!-- Node42&#45;&gt;Node8 -->
<g id="edge92" class="edge">
<title>Node42&#45;&gt;Node8</title>
<path fill="none" stroke="midnightblue" d="M860.12,-59.32C756.49,-48.2 529.32,-23.81 443.62,-14.61"/>
<polygon fill="midnightblue" stroke="midnightblue" points="443.97,-11.13 433.65,-13.54 443.22,-18.09 443.97,-11.13"/>
</g>
<!-- Node42&#45;&gt;Node11 -->
<g id="edge93" class="edge">
<title>Node42&#45;&gt;Node11</title>
<path fill="none" stroke="midnightblue" d="M965.76,-59.34C1045.98,-50.57 1195.92,-33.48 1266.53,-19.96"/>
<polygon fill="midnightblue" stroke="midnightblue" points="1267.64,-23.31 1276.75,-17.91 1266.26,-16.45 1267.64,-23.31"/>
</g>
</g>
</svg>
