<?xml version="1.0" encoding="UTF-8" standalone="no"?>
<!DOCTYPE svg PUBLIC "-//W3C//DTD SVG 1.1//EN"
 "http://www.w3.org/Graphics/SVG/1.1/DTD/svg11.dtd">
<!-- Generated by graphviz version 2.43.0 (0)
 -->
<!-- Title: inst/include/community_properties.h Pages: 1 -->
<svg width="1296pt" height="431pt"
 viewBox="0.00 0.00 1296.27 431.00" xmlns="http://www.w3.org/2000/svg" xmlns:xlink="http://www.w3.org/1999/xlink">
<g id="graph0" class="graph" transform="scale(1 1) rotate(0) translate(4 427)">
<title>inst/include/community_properties.h</title>
<!-- Node1 -->
<g id="node1" class="node">
<title>Node1</title>
<g id="a_node1"><a xlink:title=" ">
<polygon fill="#bfbfbf" stroke="black" points="606.5,-392.5 606.5,-422.5 737.5,-422.5 737.5,-392.5 606.5,-392.5"/>
<text text-anchor="start" x="614.5" y="-410.5" font-family="Helvetica,sans-Serif" font-size="10.00">inst/include/community</text>
<text text-anchor="middle" x="672" y="-399.5" font-family="Helvetica,sans-Serif" font-size="10.00">_properties.h</text>
</a>
</g>
</g>
<!-- Node2 -->
<g id="node2" class="node">
<title>Node2</title>
<g id="a_node2"><a xlink:href="pspm__interface_8h.html" target="_top" xlink:title=" ">
<polygon fill="none" stroke="black" points="621.5,-336.5 621.5,-355.5 722.5,-355.5 722.5,-336.5 621.5,-336.5"/>
<text text-anchor="middle" x="672" y="-343.5" font-family="Helvetica,sans-Serif" font-size="10.00">pspm_interface.h</text>
</a>
</g>
</g>
<!-- Node1&#45;&gt;Node2 -->
<g id="edge1" class="edge">
<title>Node1&#45;&gt;Node2</title>
<path fill="none" stroke="midnightblue" d="M672,-392.4C672,-384.47 672,-374.46 672,-365.86"/>
<polygon fill="midnightblue" stroke="midnightblue" points="675.5,-365.66 672,-355.66 668.5,-365.66 675.5,-365.66"/>
</g>
<!-- Node31 -->
<g id="node31" class="node">
<title>Node31</title>
<g id="a_node31"><a xlink:href="adaptive__species_8h.html" target="_top" xlink:title=" ">
<polygon fill="none" stroke="black" points="971,-112.5 971,-131.5 1081,-131.5 1081,-112.5 971,-112.5"/>
<text text-anchor="middle" x="1026" y="-119.5" font-family="Helvetica,sans-Serif" font-size="10.00">adaptive_species.h</text>
</a>
</g>
</g>
<!-- Node1&#45;&gt;Node31 -->
<g id="edge52" class="edge">
<title>Node1&#45;&gt;Node31</title>
<path fill="none" stroke="midnightblue" d="M737.89,-401.09C851.21,-389.95 1071,-359.51 1071,-291 1071,-291 1071,-291 1071,-233 1071,-197.93 1051.16,-160.94 1037.83,-140.04"/>
<polygon fill="midnightblue" stroke="midnightblue" points="1040.7,-138.03 1032.26,-131.63 1034.87,-141.9 1040.7,-138.03"/>
</g>
<!-- Node33 -->
<g id="node33" class="node">
<title>Node33</title>
<g id="a_node33"><a xlink:href="sequence_8h.html" target="_top" xlink:title=" ">
<polygon fill="none" stroke="black" points="49,-56.5 49,-75.5 145,-75.5 145,-56.5 49,-56.5"/>
<text text-anchor="middle" x="97" y="-63.5" font-family="Helvetica,sans-Serif" font-size="10.00">utils/sequence.h</text>
</a>
</g>
</g>
<!-- Node1&#45;&gt;Node33 -->
<g id="edge59" class="edge">
<title>Node1&#45;&gt;Node33</title>
<path fill="none" stroke="midnightblue" d="M606.32,-406.98C455.45,-406.31 97,-393.9 97,-291 97,-291 97,-291 97,-177 97,-144.95 97,-107.64 97,-85.75"/>
<polygon fill="midnightblue" stroke="midnightblue" points="100.5,-85.56 97,-75.56 93.5,-85.56 100.5,-85.56"/>
</g>
<!-- Node3 -->
<g id="node3" class="node">
<title>Node3</title>
<g id="a_node3"><a xlink:title=" ">
<polygon fill="none" stroke="#bfbfbf" points="621,-280.5 621,-299.5 723,-299.5 723,-280.5 621,-280.5"/>
<text text-anchor="middle" x="672" y="-287.5" font-family="Helvetica,sans-Serif" font-size="10.00">individual_base.h</text>
</a>
</g>
</g>
<!-- Node2&#45;&gt;Node3 -->
<g id="edge2" class="edge">
<title>Node2&#45;&gt;Node3</title>
<path fill="none" stroke="midnightblue" d="M672,-336.08C672,-329.01 672,-318.86 672,-309.99"/>
<polygon fill="midnightblue" stroke="midnightblue" points="675.5,-309.75 672,-299.75 668.5,-309.75 675.5,-309.75"/>
</g>
<!-- Node4 -->
<g id="node4" class="node">
<title>Node4</title>
<g id="a_node4"><a xlink:title=" ">
<polygon fill="none" stroke="#bfbfbf" points="1081,-56.5 1081,-75.5 1137,-75.5 1137,-56.5 1081,-56.5"/>
<text text-anchor="middle" x="1109" y="-63.5" font-family="Helvetica,sans-Serif" font-size="10.00">solver.h</text>
</a>
</g>
</g>
<!-- Node2&#45;&gt;Node4 -->
<g id="edge3" class="edge">
<title>Node2&#45;&gt;Node4</title>
<path fill="none" stroke="midnightblue" d="M710.18,-336.43C792.35,-315.99 986.84,-256.49 1090,-132 1100.89,-118.86 1105.54,-99.71 1107.52,-85.61"/>
<polygon fill="midnightblue" stroke="midnightblue" points="1111.01,-85.9 1108.61,-75.58 1104.05,-85.14 1111.01,-85.9"/>
</g>
<!-- Node5 -->
<g id="node5" class="node">
<title>Node5</title>
<g id="a_node5"><a xlink:href="light__environment_8h.html" target="_top" xlink:title=" ">
<polygon fill="none" stroke="black" points="693.5,-112.5 693.5,-131.5 808.5,-131.5 808.5,-112.5 693.5,-112.5"/>
<text text-anchor="middle" x="751" y="-119.5" font-family="Helvetica,sans-Serif" font-size="10.00">light_environment.h</text>
</a>
</g>
</g>
<!-- Node2&#45;&gt;Node5 -->
<g id="edge4" class="edge">
<title>Node2&#45;&gt;Node5</title>
<path fill="none" stroke="midnightblue" d="M690.51,-336.37C704.41,-328.84 722.6,-316.52 732,-300 761.1,-248.83 757.42,-175.82 753.62,-141.8"/>
<polygon fill="midnightblue" stroke="midnightblue" points="757.09,-141.33 752.38,-131.84 750.15,-142.2 757.09,-141.33"/>
</g>
<!-- Node9 -->
<g id="node9" class="node">
<title>Node9</title>
<g id="a_node9"><a xlink:href="climate_8h.html" target="_top" xlink:title=" ">
<polygon fill="none" stroke="black" points="503,-56.5 503,-75.5 565,-75.5 565,-56.5 503,-56.5"/>
<text text-anchor="middle" x="534" y="-63.5" font-family="Helvetica,sans-Serif" font-size="10.00">climate.h</text>
</a>
</g>
</g>
<!-- Node2&#45;&gt;Node9 -->
<g id="edge9" class="edge">
<title>Node2&#45;&gt;Node9</title>
<path fill="none" stroke="midnightblue" d="M655.54,-336.39C642.07,-328.56 623.43,-315.84 612,-300 562.15,-230.93 542.61,-127.84 536.43,-85.83"/>
<polygon fill="midnightblue" stroke="midnightblue" points="539.89,-85.32 535.05,-75.89 532.95,-86.28 539.89,-85.32"/>
</g>
<!-- Node15 -->
<g id="node15" class="node">
<title>Node15</title>
<g id="a_node15"><a xlink:href="plant_8h.html" target="_top" xlink:title=" ">
<polygon fill="none" stroke="black" points="378,-280.5 378,-299.5 428,-299.5 428,-280.5 378,-280.5"/>
<text text-anchor="middle" x="403" y="-287.5" font-family="Helvetica,sans-Serif" font-size="10.00">plant.h</text>
</a>
</g>
</g>
<!-- Node2&#45;&gt;Node15 -->
<g id="edge17" class="edge">
<title>Node2&#45;&gt;Node15</title>
<path fill="none" stroke="midnightblue" d="M629.38,-336.44C576.4,-325.81 487.01,-307.86 437.9,-298.01"/>
<polygon fill="midnightblue" stroke="midnightblue" points="438.56,-294.57 428.06,-296.03 437.18,-301.43 438.56,-294.57"/>
</g>
<!-- Node5&#45;&gt;Node4 -->
<g id="edge8" class="edge">
<title>Node5&#45;&gt;Node4</title>
<path fill="none" stroke="midnightblue" d="M808.69,-114.66C871.02,-107.42 973.44,-94.39 1070.77,-76.08"/>
<polygon fill="midnightblue" stroke="midnightblue" points="1071.61,-79.48 1080.78,-74.17 1070.3,-72.6 1071.61,-79.48"/>
</g>
<!-- Node6 -->
<g id="node6" class="node">
<title>Node6</title>
<g id="a_node6"><a xlink:title=" ">
<polygon fill="none" stroke="#bfbfbf" points="555,-0.5 555,-19.5 615,-19.5 615,-0.5 555,-0.5"/>
<text text-anchor="middle" x="585" y="-7.5" font-family="Helvetica,sans-Serif" font-size="10.00">iostream</text>
</a>
</g>
</g>
<!-- Node5&#45;&gt;Node6 -->
<g id="edge5" class="edge">
<title>Node5&#45;&gt;Node6</title>
<path fill="none" stroke="midnightblue" d="M753.17,-112.29C756.02,-98.63 759.22,-72.09 746,-56 742.05,-51.19 671.2,-32.65 624.82,-20.92"/>
<polygon fill="midnightblue" stroke="midnightblue" points="625.59,-17.5 615.04,-18.45 623.88,-24.29 625.59,-17.5"/>
</g>
<!-- Node7 -->
<g id="node7" class="node">
<title>Node7</title>
<g id="a_node7"><a xlink:title=" ">
<polygon fill="none" stroke="#bfbfbf" points="489.5,-0.5 489.5,-19.5 536.5,-19.5 536.5,-0.5 489.5,-0.5"/>
<text text-anchor="middle" x="513" y="-7.5" font-family="Helvetica,sans-Serif" font-size="10.00">vector</text>
</a>
</g>
</g>
<!-- Node5&#45;&gt;Node7 -->
<g id="edge6" class="edge">
<title>Node5&#45;&gt;Node7</title>
<path fill="none" stroke="midnightblue" d="M693.35,-119.23C625.52,-115.8 518.95,-105.7 494,-76 482.59,-62.41 491.24,-42.25 500.26,-27.99"/>
<polygon fill="midnightblue" stroke="midnightblue" points="503.25,-29.82 506.03,-19.6 497.48,-25.85 503.25,-29.82"/>
</g>
<!-- Node8 -->
<g id="node8" class="node">
<title>Node8</title>
<g id="a_node8"><a xlink:title=" ">
<polygon fill="none" stroke="#bfbfbf" points="621,-56.5 621,-75.5 737,-75.5 737,-56.5 621,-56.5"/>
<text text-anchor="middle" x="679" y="-63.5" font-family="Helvetica,sans-Serif" font-size="10.00">environment_base.h</text>
</a>
</g>
</g>
<!-- Node5&#45;&gt;Node8 -->
<g id="edge7" class="edge">
<title>Node5&#45;&gt;Node8</title>
<path fill="none" stroke="midnightblue" d="M739.43,-112.32C728.58,-104.18 712.12,-91.84 699.12,-82.09"/>
<polygon fill="midnightblue" stroke="midnightblue" points="700.88,-79.03 690.78,-75.83 696.68,-84.63 700.88,-79.03"/>
</g>
<!-- Node9&#45;&gt;Node6 -->
<g id="edge13" class="edge">
<title>Node9&#45;&gt;Node6</title>
<path fill="none" stroke="midnightblue" d="M542.42,-56.08C549.85,-48.22 560.85,-36.57 569.81,-27.08"/>
<polygon fill="midnightblue" stroke="midnightblue" points="572.41,-29.42 576.74,-19.75 567.32,-24.62 572.41,-29.42"/>
</g>
<!-- Node9&#45;&gt;Node7 -->
<g id="edge15" class="edge">
<title>Node9&#45;&gt;Node7</title>
<path fill="none" stroke="midnightblue" d="M530.53,-56.08C527.69,-48.77 523.57,-38.18 520.04,-29.1"/>
<polygon fill="midnightblue" stroke="midnightblue" points="523.29,-27.8 516.4,-19.75 516.77,-30.34 523.29,-27.8"/>
</g>
<!-- Node10 -->
<g id="node10" class="node">
<title>Node10</title>
<g id="a_node10"><a xlink:title=" ">
<polygon fill="none" stroke="#bfbfbf" points="1037,-0.5 1037,-19.5 1081,-19.5 1081,-0.5 1037,-0.5"/>
<text text-anchor="middle" x="1059" y="-7.5" font-family="Helvetica,sans-Serif" font-size="10.00">string</text>
</a>
</g>
</g>
<!-- Node9&#45;&gt;Node10 -->
<g id="edge10" class="edge">
<title>Node9&#45;&gt;Node10</title>
<path fill="none" stroke="midnightblue" d="M565.1,-61.21C579.38,-59.52 596.54,-57.56 612,-56 793.4,-37.69 843.81,-53.46 1026.82,-19.87"/>
<polygon fill="midnightblue" stroke="midnightblue" points="1027.58,-23.29 1036.77,-18.02 1026.3,-16.41 1027.58,-23.29"/>
</g>
<!-- Node11 -->
<g id="node11" class="node">
<title>Node11</title>
<g id="a_node11"><a xlink:title=" ">
<polygon fill="none" stroke="#bfbfbf" points="707.5,-0.5 707.5,-19.5 762.5,-19.5 762.5,-0.5 707.5,-0.5"/>
<text text-anchor="middle" x="735" y="-7.5" font-family="Helvetica,sans-Serif" font-size="10.00">fstream</text>
</a>
</g>
</g>
<!-- Node9&#45;&gt;Node11 -->
<g id="edge11" class="edge">
<title>Node9&#45;&gt;Node11</title>
<path fill="none" stroke="midnightblue" d="M565.41,-56.56C601.18,-46.95 659.61,-31.25 697.68,-21.03"/>
<polygon fill="midnightblue" stroke="midnightblue" points="698.62,-24.4 707.37,-18.42 696.8,-17.64 698.62,-24.4"/>
</g>
<!-- Node12 -->
<g id="node12" class="node">
<title>Node12</title>
<g id="a_node12"><a xlink:title=" ">
<polygon fill="none" stroke="#bfbfbf" points="633,-0.5 633,-19.5 689,-19.5 689,-0.5 633,-0.5"/>
<text text-anchor="middle" x="661" y="-7.5" font-family="Helvetica,sans-Serif" font-size="10.00">sstream</text>
</a>
</g>
</g>
<!-- Node9&#45;&gt;Node12 -->
<g id="edge12" class="edge">
<title>Node9&#45;&gt;Node12</title>
<path fill="none" stroke="midnightblue" d="M554.12,-56.44C575.02,-47.56 607.93,-33.56 631.72,-23.45"/>
<polygon fill="midnightblue" stroke="midnightblue" points="633.14,-26.65 640.97,-19.52 630.4,-20.21 633.14,-26.65"/>
</g>
<!-- Node13 -->
<g id="node13" class="node">
<title>Node13</title>
<g id="a_node13"><a xlink:title=" ">
<polygon fill="none" stroke="#bfbfbf" points="144.5,-0.5 144.5,-19.5 191.5,-19.5 191.5,-0.5 144.5,-0.5"/>
<text text-anchor="middle" x="168" y="-7.5" font-family="Helvetica,sans-Serif" font-size="10.00">cmath</text>
</a>
</g>
</g>
<!-- Node9&#45;&gt;Node13 -->
<g id="edge14" class="edge">
<title>Node9&#45;&gt;Node13</title>
<path fill="none" stroke="midnightblue" d="M502.55,-62.15C444.88,-56.62 318.21,-43.08 201.85,-19.92"/>
<polygon fill="midnightblue" stroke="midnightblue" points="202.2,-16.42 191.7,-17.87 200.81,-23.28 202.2,-16.42"/>
</g>
<!-- Node14 -->
<g id="node14" class="node">
<title>Node14</title>
<g id="a_node14"><a xlink:title=" ">
<polygon fill="none" stroke="#bfbfbf" points="412.5,-0.5 412.5,-19.5 471.5,-19.5 471.5,-0.5 412.5,-0.5"/>
<text text-anchor="middle" x="442" y="-7.5" font-family="Helvetica,sans-Serif" font-size="10.00">phydro.h</text>
</a>
</g>
</g>
<!-- Node9&#45;&gt;Node14 -->
<g id="edge16" class="edge">
<title>Node9&#45;&gt;Node14</title>
<path fill="none" stroke="midnightblue" d="M519.22,-56.32C504.73,-47.82 482.43,-34.73 465.51,-24.8"/>
<polygon fill="midnightblue" stroke="midnightblue" points="467.14,-21.7 456.74,-19.65 463.6,-27.74 467.14,-21.7"/>
</g>
<!-- Node15&#45;&gt;Node11 -->
<g id="edge18" class="edge">
<title>Node15&#45;&gt;Node11</title>
<path fill="none" stroke="midnightblue" d="M421.14,-280.38C436.79,-272.38 459.42,-259.4 476,-244 551.56,-173.82 529.76,-118.22 612,-56 625.83,-45.54 666.83,-31.57 697.72,-21.99"/>
<polygon fill="midnightblue" stroke="midnightblue" points="698.81,-25.32 707.35,-19.04 696.76,-18.62 698.81,-25.32"/>
</g>
<!-- Node16 -->
<g id="node16" class="node">
<title>Node16</title>
<g id="a_node16"><a xlink:href="traits__params_8h.html" target="_top" xlink:title=" ">
<polygon fill="none" stroke="black" points="432.5,-112.5 432.5,-131.5 525.5,-131.5 525.5,-112.5 432.5,-112.5"/>
<text text-anchor="middle" x="479" y="-119.5" font-family="Helvetica,sans-Serif" font-size="10.00">traits_params.h</text>
</a>
</g>
</g>
<!-- Node15&#45;&gt;Node16 -->
<g id="edge19" class="edge">
<title>Node15&#45;&gt;Node16</title>
<path fill="none" stroke="midnightblue" d="M416.07,-280.37C427.63,-272.18 444.26,-258.93 455,-244 470.71,-222.16 472.59,-214.36 478,-188 481.16,-172.61 481.18,-154.73 480.54,-141.63"/>
<polygon fill="midnightblue" stroke="midnightblue" points="484.02,-141.27 479.87,-131.52 477.04,-141.73 484.02,-141.27"/>
</g>
<!-- Node17 -->
<g id="node17" class="node">
<title>Node17</title>
<g id="a_node17"><a xlink:href="initializer__v2_8h.html" target="_top" xlink:title=" ">
<polygon fill="none" stroke="black" points="831.5,-56.5 831.5,-75.5 944.5,-75.5 944.5,-56.5 831.5,-56.5"/>
<text text-anchor="middle" x="888" y="-63.5" font-family="Helvetica,sans-Serif" font-size="10.00">utils/initializer_v2.h</text>
</a>
</g>
</g>
<!-- Node15&#45;&gt;Node17 -->
<g id="edge49" class="edge">
<title>Node15&#45;&gt;Node17</title>
<path fill="none" stroke="midnightblue" d="M428.09,-283.57C495.46,-268.17 684.14,-219.57 817,-132 838.46,-117.85 859.76,-97.24 873.35,-83.04"/>
<polygon fill="midnightblue" stroke="midnightblue" points="876.12,-85.21 880.4,-75.52 871.01,-80.42 876.12,-85.21"/>
</g>
<!-- Node23 -->
<g id="node23" class="node">
<title>Node23</title>
<g id="a_node23"><a xlink:href="plant__architecture_8h.html" target="_top" xlink:title=" ">
<polygon fill="none" stroke="black" points="185,-168.5 185,-187.5 299,-187.5 299,-168.5 185,-168.5"/>
<text text-anchor="middle" x="242" y="-175.5" font-family="Helvetica,sans-Serif" font-size="10.00">plant_architecture.h</text>
</a>
</g>
</g>
<!-- Node15&#45;&gt;Node23 -->
<g id="edge33" class="edge">
<title>Node15&#45;&gt;Node23</title>
<path fill="none" stroke="midnightblue" d="M377.89,-287.09C347.83,-283.51 297.69,-273.26 267,-244 254.17,-231.77 247.84,-212.22 244.76,-197.76"/>
<polygon fill="midnightblue" stroke="midnightblue" points="248.21,-197.12 243,-187.89 241.32,-198.35 248.21,-197.12"/>
</g>
<!-- Node24 -->
<g id="node24" class="node">
<title>Node24</title>
<g id="a_node24"><a xlink:href="assimilation_8h.html" target="_top" xlink:title=" ">
<polygon fill="none" stroke="black" points="360,-224.5 360,-243.5 446,-243.5 446,-224.5 360,-224.5"/>
<text text-anchor="middle" x="403" y="-231.5" font-family="Helvetica,sans-Serif" font-size="10.00">assimilation.h</text>
</a>
</g>
</g>
<!-- Node15&#45;&gt;Node24 -->
<g id="edge36" class="edge">
<title>Node15&#45;&gt;Node24</title>
<path fill="none" stroke="midnightblue" d="M403,-280.08C403,-273.01 403,-262.86 403,-253.99"/>
<polygon fill="midnightblue" stroke="midnightblue" points="406.5,-253.75 403,-243.75 399.5,-253.75 406.5,-253.75"/>
</g>
<!-- Node26 -->
<g id="node26" class="node">
<title>Node26</title>
<g id="a_node26"><a xlink:href="rk4_8h.html" target="_top" xlink:title=" ">
<polygon fill="none" stroke="black" points="276.5,-224.5 276.5,-243.5 341.5,-243.5 341.5,-224.5 276.5,-224.5"/>
<text text-anchor="middle" x="309" y="-231.5" font-family="Helvetica,sans-Serif" font-size="10.00">utils/rk4.h</text>
</a>
</g>
</g>
<!-- Node15&#45;&gt;Node26 -->
<g id="edge41" class="edge">
<title>Node15&#45;&gt;Node26</title>
<path fill="none" stroke="midnightblue" d="M387.9,-280.32C373.1,-271.82 350.31,-258.73 333.02,-248.8"/>
<polygon fill="midnightblue" stroke="midnightblue" points="334.48,-245.6 324.07,-243.65 330.99,-251.67 334.48,-245.6"/>
</g>
<!-- Node27 -->
<g id="node27" class="node">
<title>Node27</title>
<g id="a_node27"><a xlink:href="moving__average_8h.html" target="_top" xlink:title=" ">
<polygon fill="none" stroke="black" points="277.5,-56.5 277.5,-75.5 408.5,-75.5 408.5,-56.5 277.5,-56.5"/>
<text text-anchor="middle" x="343" y="-63.5" font-family="Helvetica,sans-Serif" font-size="10.00">utils/moving_average.h</text>
</a>
</g>
</g>
<!-- Node15&#45;&gt;Node27 -->
<g id="edge42" class="edge">
<title>Node15&#45;&gt;Node27</title>
<path fill="none" stroke="midnightblue" d="M377.68,-287.41C326.82,-282.63 213.89,-263.58 176,-188 147.63,-131.42 238.07,-95.28 296.77,-78.34"/>
<polygon fill="midnightblue" stroke="midnightblue" points="297.91,-81.65 306.6,-75.59 296.03,-74.91 297.91,-81.65"/>
</g>
<!-- Node30 -->
<g id="node30" class="node">
<title>Node30</title>
<g id="a_node30"><a xlink:href="plant_8tpp.html" target="_top" xlink:title=" ">
<polygon fill="none" stroke="black" points="0,-168.5 0,-187.5 60,-187.5 60,-168.5 0,-168.5"/>
<text text-anchor="middle" x="30" y="-175.5" font-family="Helvetica,sans-Serif" font-size="10.00">plant.tpp</text>
</a>
</g>
</g>
<!-- Node15&#45;&gt;Node30 -->
<g id="edge50" class="edge">
<title>Node15&#45;&gt;Node30</title>
<path fill="none" stroke="midnightblue" d="M377.83,-288.8C327.25,-287.59 210.44,-280.69 121,-244 92.29,-232.22 63.95,-209.81 46.72,-194.64"/>
<polygon fill="midnightblue" stroke="midnightblue" points="48.97,-191.95 39.2,-187.85 44.27,-197.15 48.97,-191.95"/>
</g>
<!-- Node16&#45;&gt;Node10 -->
<g id="edge31" class="edge">
<title>Node16&#45;&gt;Node10</title>
<path fill="none" stroke="midnightblue" d="M525.58,-119.29C629.12,-115.05 875.39,-102.43 954,-76 971.47,-70.13 1012.81,-42.84 1038.1,-25.54"/>
<polygon fill="midnightblue" stroke="midnightblue" points="1040.36,-28.23 1046.62,-19.67 1036.39,-22.46 1040.36,-28.23"/>
</g>
<!-- Node16&#45;&gt;Node13 -->
<g id="edge30" class="edge">
<title>Node16&#45;&gt;Node13</title>
<path fill="none" stroke="midnightblue" d="M432.24,-118.56C384.06,-114.54 307.77,-103.95 248,-76 222.56,-64.1 198.25,-42.37 183.24,-27.32"/>
<polygon fill="midnightblue" stroke="midnightblue" points="185.38,-24.51 175.91,-19.76 180.35,-29.38 185.38,-24.51"/>
</g>
<!-- Node16&#45;&gt;Node17 -->
<g id="edge20" class="edge">
<title>Node16&#45;&gt;Node17</title>
<path fill="none" stroke="midnightblue" d="M525.52,-114.86C597.98,-105.29 738.09,-86.79 821.29,-75.81"/>
<polygon fill="midnightblue" stroke="midnightblue" points="821.94,-79.25 831.4,-74.47 821.02,-72.31 821.94,-79.25"/>
</g>
<!-- Node21 -->
<g id="node21" class="node">
<title>Node21</title>
<g id="a_node21"><a xlink:title=" ">
<polygon fill="none" stroke="#bfbfbf" points="1001.5,-56.5 1001.5,-75.5 1062.5,-75.5 1062.5,-56.5 1001.5,-56.5"/>
<text text-anchor="middle" x="1032" y="-63.5" font-family="Helvetica,sans-Serif" font-size="10.00">io_utils.h</text>
</a>
</g>
</g>
<!-- Node16&#45;&gt;Node21 -->
<g id="edge29" class="edge">
<title>Node16&#45;&gt;Node21</title>
<path fill="none" stroke="midnightblue" d="M525.77,-118.57C615.54,-113.52 818.08,-100.3 987,-76 988.29,-75.81 989.59,-75.62 990.91,-75.41"/>
<polygon fill="midnightblue" stroke="midnightblue" points="991.84,-78.8 1001.09,-73.64 990.64,-71.9 991.84,-78.8"/>
</g>
<!-- Node22 -->
<g id="node22" class="node">
<title>Node22</title>
<g id="a_node22"><a xlink:title=" ">
<polygon fill="none" stroke="#bfbfbf" points="210,-0.5 210,-19.5 262,-19.5 262,-0.5 210,-0.5"/>
<text text-anchor="middle" x="236" y="-7.5" font-family="Helvetica,sans-Serif" font-size="10.00">cassert</text>
</a>
</g>
</g>
<!-- Node16&#45;&gt;Node22 -->
<g id="edge32" class="edge">
<title>Node16&#45;&gt;Node22</title>
<path fill="none" stroke="midnightblue" d="M432.07,-115.8C377.92,-108.99 293.12,-95.56 268,-76 253.29,-64.54 244.89,-44.56 240.42,-29.77"/>
<polygon fill="midnightblue" stroke="midnightblue" points="243.69,-28.46 237.73,-19.7 236.93,-30.26 243.69,-28.46"/>
</g>
<!-- Node17&#45;&gt;Node6 -->
<g id="edge21" class="edge">
<title>Node17&#45;&gt;Node6</title>
<path fill="none" stroke="midnightblue" d="M832.46,-56.49C781.11,-48.41 702.46,-35.48 625.11,-20.13"/>
<polygon fill="midnightblue" stroke="midnightblue" points="625.69,-16.68 615.2,-18.15 624.32,-23.54 625.69,-16.68"/>
</g>
<!-- Node17&#45;&gt;Node7 -->
<g id="edge25" class="edge">
<title>Node17&#45;&gt;Node7</title>
<path fill="none" stroke="midnightblue" d="M831.33,-59.92C765.24,-53.46 652.59,-40.82 546.61,-19.86"/>
<polygon fill="midnightblue" stroke="midnightblue" points="547.19,-16.41 536.7,-17.88 545.82,-23.27 547.19,-16.41"/>
</g>
<!-- Node17&#45;&gt;Node10 -->
<g id="edge23" class="edge">
<title>Node17&#45;&gt;Node10</title>
<path fill="none" stroke="midnightblue" d="M915.1,-56.44C945.52,-46.84 994.84,-31.26 1027.1,-21.07"/>
<polygon fill="midnightblue" stroke="midnightblue" points="1028.44,-24.32 1036.93,-17.97 1026.34,-17.64 1028.44,-24.32"/>
</g>
<!-- Node17&#45;&gt;Node11 -->
<g id="edge24" class="edge">
<title>Node17&#45;&gt;Node11</title>
<path fill="none" stroke="midnightblue" d="M863.76,-56.44C838.13,-47.4 797.51,-33.06 768.76,-22.92"/>
<polygon fill="midnightblue" stroke="midnightblue" points="769.72,-19.54 759.13,-19.52 767.39,-26.15 769.72,-19.54"/>
</g>
<!-- Node17&#45;&gt;Node12 -->
<g id="edge26" class="edge">
<title>Node17&#45;&gt;Node12</title>
<path fill="none" stroke="midnightblue" d="M851.56,-56.44C815.32,-47.91 757.86,-34.34 699.1,-20.25"/>
<polygon fill="midnightblue" stroke="midnightblue" points="699.82,-16.83 689.28,-17.9 698.18,-23.63 699.82,-16.83"/>
</g>
<!-- Node18 -->
<g id="node18" class="node">
<title>Node18</title>
<g id="a_node18"><a xlink:title=" ">
<polygon fill="none" stroke="#bfbfbf" points="975,-0.5 975,-19.5 1019,-19.5 1019,-0.5 975,-0.5"/>
<text text-anchor="middle" x="997" y="-7.5" font-family="Helvetica,sans-Serif" font-size="10.00">regex</text>
</a>
</g>
</g>
<!-- Node17&#45;&gt;Node18 -->
<g id="edge22" class="edge">
<title>Node17&#45;&gt;Node18</title>
<path fill="none" stroke="midnightblue" d="M905.51,-56.32C923.07,-47.62 950.33,-34.12 970.53,-24.11"/>
<polygon fill="midnightblue" stroke="midnightblue" points="972.12,-27.23 979.53,-19.65 969.02,-20.96 972.12,-27.23"/>
</g>
<!-- Node19 -->
<g id="node19" class="node">
<title>Node19</title>
<g id="a_node19"><a xlink:title=" ">
<polygon fill="none" stroke="#bfbfbf" points="780.5,-0.5 780.5,-19.5 845.5,-19.5 845.5,-0.5 780.5,-0.5"/>
<text text-anchor="middle" x="813" y="-7.5" font-family="Helvetica,sans-Serif" font-size="10.00">stdexcept</text>
</a>
</g>
</g>
<!-- Node17&#45;&gt;Node19 -->
<g id="edge27" class="edge">
<title>Node17&#45;&gt;Node19</title>
<path fill="none" stroke="midnightblue" d="M875.95,-56.32C864.54,-48.11 847.17,-35.6 833.57,-25.81"/>
<polygon fill="midnightblue" stroke="midnightblue" points="835.43,-22.84 825.27,-19.83 831.34,-28.52 835.43,-22.84"/>
</g>
<!-- Node20 -->
<g id="node20" class="node">
<title>Node20</title>
<g id="a_node20"><a xlink:title=" ">
<polygon fill="none" stroke="#bfbfbf" points="863.5,-0.5 863.5,-19.5 956.5,-19.5 956.5,-0.5 863.5,-0.5"/>
<text text-anchor="middle" x="910" y="-7.5" font-family="Helvetica,sans-Serif" font-size="10.00">unordered_map</text>
</a>
</g>
</g>
<!-- Node17&#45;&gt;Node20 -->
<g id="edge28" class="edge">
<title>Node17&#45;&gt;Node20</title>
<path fill="none" stroke="midnightblue" d="M891.63,-56.08C894.61,-48.77 898.93,-38.18 902.62,-29.1"/>
<polygon fill="midnightblue" stroke="midnightblue" points="905.9,-30.33 906.43,-19.75 899.42,-27.69 905.9,-30.33"/>
</g>
<!-- Node23&#45;&gt;Node13 -->
<g id="edge34" class="edge">
<title>Node23&#45;&gt;Node13</title>
<path fill="none" stroke="midnightblue" d="M238.02,-168.08C226.32,-141.83 191.87,-64.55 176.08,-29.12"/>
<polygon fill="midnightblue" stroke="midnightblue" points="179.09,-27.28 171.82,-19.57 172.69,-30.13 179.09,-27.28"/>
</g>
<!-- Node23&#45;&gt;Node16 -->
<g id="edge35" class="edge">
<title>Node23&#45;&gt;Node16</title>
<path fill="none" stroke="midnightblue" d="M279.55,-168.44C320.81,-159.04 387.14,-143.93 431.87,-133.74"/>
<polygon fill="midnightblue" stroke="midnightblue" points="432.65,-137.15 441.62,-131.52 431.09,-130.33 432.65,-137.15"/>
</g>
<!-- Node24&#45;&gt;Node14 -->
<g id="edge37" class="edge">
<title>Node24&#45;&gt;Node14</title>
<path fill="none" stroke="midnightblue" d="M384.92,-224.39C371.44,-216.87 354.03,-204.57 346,-188 342.12,-180 343.13,-176.41 346,-168 362.67,-119.11 391.69,-121.02 417,-76 425.33,-61.18 432.05,-43.03 436.42,-29.68"/>
<polygon fill="midnightblue" stroke="midnightblue" points="439.88,-30.36 439.52,-19.77 433.19,-28.27 439.88,-30.36"/>
</g>
<!-- Node24&#45;&gt;Node16 -->
<g id="edge38" class="edge">
<title>Node24&#45;&gt;Node16</title>
<path fill="none" stroke="midnightblue" d="M418.2,-224.36C430.84,-216.44 448.43,-203.58 459,-188 468.43,-174.11 473.55,-155.6 476.25,-141.88"/>
<polygon fill="midnightblue" stroke="midnightblue" points="479.75,-142.14 477.98,-131.7 472.85,-140.97 479.75,-142.14"/>
</g>
<!-- Node24&#45;&gt;Node23 -->
<g id="edge39" class="edge">
<title>Node24&#45;&gt;Node23</title>
<path fill="none" stroke="midnightblue" d="M377.49,-224.44C350.4,-215.36 307.41,-200.94 277.13,-190.78"/>
<polygon fill="midnightblue" stroke="midnightblue" points="277.99,-187.38 267.39,-187.52 275.76,-194.01 277.99,-187.38"/>
</g>
<!-- Node25 -->
<g id="node25" class="node">
<title>Node25</title>
<g id="a_node25"><a xlink:href="assimilation_8tpp.html" target="_top" xlink:title=" ">
<polygon fill="none" stroke="black" points="355.5,-168.5 355.5,-187.5 450.5,-187.5 450.5,-168.5 355.5,-168.5"/>
<text text-anchor="middle" x="403" y="-175.5" font-family="Helvetica,sans-Serif" font-size="10.00">assimilation.tpp</text>
</a>
</g>
</g>
<!-- Node24&#45;&gt;Node25 -->
<g id="edge40" class="edge">
<title>Node24&#45;&gt;Node25</title>
<path fill="none" stroke="midnightblue" d="M403,-224.08C403,-217.01 403,-206.86 403,-197.99"/>
<polygon fill="midnightblue" stroke="midnightblue" points="406.5,-197.75 403,-187.75 399.5,-197.75 406.5,-197.75"/>
</g>
<!-- Node27&#45;&gt;Node6 -->
<g id="edge43" class="edge">
<title>Node27&#45;&gt;Node6</title>
<path fill="none" stroke="midnightblue" d="M381.35,-56.48C421.99,-47.45 488.03,-32.76 545,-20 545.1,-19.98 545.2,-19.96 545.3,-19.93"/>
<polygon fill="midnightblue" stroke="midnightblue" points="545.87,-23.39 554.86,-17.79 544.34,-16.56 545.87,-23.39"/>
</g>
<!-- Node27&#45;&gt;Node7 -->
<g id="edge47" class="edge">
<title>Node27&#45;&gt;Node7</title>
<path fill="none" stroke="midnightblue" d="M369.94,-56.44C399.67,-47 447.57,-31.78 479.66,-21.59"/>
<polygon fill="midnightblue" stroke="midnightblue" points="481,-24.84 489.47,-18.47 478.88,-18.16 481,-24.84"/>
</g>
<!-- Node27&#45;&gt;Node13 -->
<g id="edge45" class="edge">
<title>Node27&#45;&gt;Node13</title>
<path fill="none" stroke="midnightblue" d="M315.27,-56.44C284.35,-46.9 234.36,-31.48 201.34,-21.29"/>
<polygon fill="midnightblue" stroke="midnightblue" points="202.26,-17.91 191.67,-18.3 200.19,-24.6 202.26,-17.91"/>
</g>
<!-- Node27&#45;&gt;Node22 -->
<g id="edge46" class="edge">
<title>Node27&#45;&gt;Node22</title>
<path fill="none" stroke="midnightblue" d="M325.81,-56.32C308.65,-47.66 282.05,-34.24 262.25,-24.25"/>
<polygon fill="midnightblue" stroke="midnightblue" points="263.65,-21.04 253.15,-19.65 260.5,-27.28 263.65,-21.04"/>
</g>
<!-- Node28 -->
<g id="node28" class="node">
<title>Node28</title>
<g id="a_node28"><a xlink:title=" ">
<polygon fill="none" stroke="#bfbfbf" points="362,-0.5 362,-19.5 394,-19.5 394,-0.5 362,-0.5"/>
<text text-anchor="middle" x="378" y="-7.5" font-family="Helvetica,sans-Serif" font-size="10.00">list</text>
</a>
</g>
</g>
<!-- Node27&#45;&gt;Node28 -->
<g id="edge44" class="edge">
<title>Node27&#45;&gt;Node28</title>
<path fill="none" stroke="midnightblue" d="M348.78,-56.08C353.67,-48.53 360.83,-37.49 366.83,-28.23"/>
<polygon fill="midnightblue" stroke="midnightblue" points="369.83,-30.05 372.33,-19.75 363.95,-26.24 369.83,-30.05"/>
</g>
<!-- Node29 -->
<g id="node29" class="node">
<title>Node29</title>
<g id="a_node29"><a xlink:title=" ">
<polygon fill="none" stroke="#bfbfbf" points="280,-0.5 280,-19.5 344,-19.5 344,-0.5 280,-0.5"/>
<text text-anchor="middle" x="312" y="-7.5" font-family="Helvetica,sans-Serif" font-size="10.00">algorithm</text>
</a>
</g>
</g>
<!-- Node27&#45;&gt;Node29 -->
<g id="edge48" class="edge">
<title>Node27&#45;&gt;Node29</title>
<path fill="none" stroke="midnightblue" d="M337.88,-56.08C333.59,-48.61 327.34,-37.72 322.06,-28.52"/>
<polygon fill="midnightblue" stroke="midnightblue" points="325.04,-26.68 317.02,-19.75 318.97,-30.17 325.04,-26.68"/>
</g>
<!-- Node30&#45;&gt;Node13 -->
<g id="edge51" class="edge">
<title>Node30&#45;&gt;Node13</title>
<path fill="none" stroke="midnightblue" d="M27.82,-168.26C22.97,-146.66 13.72,-90.03 40,-56 62.35,-27.07 104.64,-16.67 134.49,-12.98"/>
<polygon fill="midnightblue" stroke="midnightblue" points="134.89,-16.45 144.47,-11.93 134.16,-9.49 134.89,-16.45"/>
</g>
<!-- Node31&#45;&gt;Node4 -->
<g id="edge53" class="edge">
<title>Node31&#45;&gt;Node4</title>
<path fill="none" stroke="midnightblue" d="M1039.34,-112.32C1052.16,-103.98 1071.78,-91.21 1086.94,-81.35"/>
<polygon fill="midnightblue" stroke="midnightblue" points="1089.22,-84.04 1095.7,-75.65 1085.41,-78.17 1089.22,-84.04"/>
</g>
<!-- Node31&#45;&gt;Node7 -->
<g id="edge54" class="edge">
<title>Node31&#45;&gt;Node7</title>
<path fill="none" stroke="midnightblue" d="M984.86,-112.43C943.58,-103.72 878.23,-89.59 822,-76 788.05,-67.79 780.1,-63.54 746,-56 660.91,-37.18 635.84,-39.69 546.73,-19.99"/>
<polygon fill="midnightblue" stroke="midnightblue" points="547.25,-16.52 536.73,-17.74 545.72,-23.35 547.25,-16.52"/>
</g>
<!-- Node31&#45;&gt;Node10 -->
<g id="edge55" class="edge">
<title>Node31&#45;&gt;Node10</title>
<path fill="none" stroke="midnightblue" d="M1081.21,-119.4C1149.14,-116.13 1258.62,-106.19 1284,-76 1289.72,-69.2 1289.64,-62.87 1284,-56 1259.98,-26.7 1147.41,-16.09 1091.16,-12.58"/>
<polygon fill="midnightblue" stroke="midnightblue" points="1091.21,-9.08 1081.02,-11.99 1090.8,-16.07 1091.21,-9.08"/>
</g>
<!-- Node31&#45;&gt;Node21 -->
<g id="edge56" class="edge">
<title>Node31&#45;&gt;Node21</title>
<path fill="none" stroke="midnightblue" d="M1026.99,-112.08C1027.79,-104.93 1028.93,-94.64 1029.92,-85.69"/>
<polygon fill="midnightblue" stroke="midnightblue" points="1033.4,-86.08 1031.03,-75.75 1026.44,-85.3 1033.4,-86.08"/>
</g>
<!-- Node31&#45;&gt;Node27 -->
<g id="edge57" class="edge">
<title>Node31&#45;&gt;Node27</title>
<path fill="none" stroke="midnightblue" d="M970.97,-116.65C849.33,-107.03 557.4,-83.95 418.67,-72.98"/>
<polygon fill="midnightblue" stroke="midnightblue" points="418.8,-69.48 408.55,-72.18 418.24,-76.46 418.8,-69.48"/>
</g>
<!-- Node32 -->
<g id="node32" class="node">
<title>Node32</title>
<g id="a_node32"><a xlink:href="adaptive__species_8tpp.html" target="_top" xlink:title=" ">
<polygon fill="none" stroke="black" points="1155,-56.5 1155,-75.5 1275,-75.5 1275,-56.5 1155,-56.5"/>
<text text-anchor="middle" x="1215" y="-63.5" font-family="Helvetica,sans-Serif" font-size="10.00">adaptive_species.tpp</text>
</a>
</g>
</g>
<!-- Node31&#45;&gt;Node32 -->
<g id="edge58" class="edge">
<title>Node31&#45;&gt;Node32</title>
<path fill="none" stroke="midnightblue" d="M1055.95,-112.44C1088.16,-103.24 1139.53,-88.56 1175.14,-78.39"/>
<polygon fill="midnightblue" stroke="midnightblue" points="1176.54,-81.63 1185.19,-75.52 1174.62,-74.9 1176.54,-81.63"/>
</g>
<!-- Node33&#45;&gt;Node7 -->
<g id="edge60" class="edge">
<title>Node33&#45;&gt;Node7</title>
<path fill="none" stroke="midnightblue" d="M145.12,-61.66C216.2,-56.23 353.51,-43.79 479.49,-19.81"/>
<polygon fill="midnightblue" stroke="midnightblue" points="480.15,-23.25 489.31,-17.92 478.82,-16.38 480.15,-23.25"/>
</g>
<!-- Node33&#45;&gt;Node13 -->
<g id="edge61" class="edge">
<title>Node33&#45;&gt;Node13</title>
<path fill="none" stroke="midnightblue" d="M108.41,-56.32C119.11,-48.18 135.34,-35.84 148.16,-26.09"/>
<polygon fill="midnightblue" stroke="midnightblue" points="150.54,-28.67 156.39,-19.83 146.31,-23.1 150.54,-28.67"/>
</g>
</g>
</svg>
