<?xml version="1.0" encoding="UTF-8" standalone="no"?>
<!DOCTYPE svg PUBLIC "-//W3C//DTD SVG 1.1//EN"
 "http://www.w3.org/Graphics/SVG/1.1/DTD/svg11.dtd">
<!-- Generated by graphviz version 2.43.0 (0)
 -->
<!-- Title: inst Pages: 1 -->
<svg width="166pt" height="132pt"
 viewBox="0.00 0.00 166.00 132.00" xmlns="http://www.w3.org/2000/svg" xmlns:xlink="http://www.w3.org/1999/xlink">
<g id="graph0" class="graph" transform="scale(1 1) rotate(0) translate(4 128)">
<title>inst</title>
<g id="clust1" class="cluster">
<title>clusterdir_920884c6b3b2f0be94e27d51660adee5</title>
<g id="a_clust1"><a xlink:href="dir_920884c6b3b2f0be94e27d51660adee5.html" target="_top">
<polygon fill="#eeeeff" stroke="black" points="8,-8 8,-60 150,-60 150,-8 8,-8"/>
</a>
</g>
</g>
<!-- dir_920884c6b3b2f0be94e27d51660adee5 -->
<g id="node1" class="node">
<title>dir_920884c6b3b2f0be94e27d51660adee5</title>
<text text-anchor="middle" x="115" y="-31.5" font-family="Helvetica,sans-Serif" font-size="10.00">inst</text>
</g>
<!-- dir_2b5d1a398a9eec011391d543f21db223 -->
<g id="node2" class="node">
<title>dir_2b5d1a398a9eec011391d543f21db223</title>
<g id="a_node2"><a xlink:href="dir_2b5d1a398a9eec011391d543f21db223.html" target="_top" xlink:title="include">
<polygon fill="white" stroke="red" points="70,-52 16,-52 16,-16 70,-16 70,-52"/>
<text text-anchor="middle" x="43" y="-31.5" font-family="Helvetica,sans-Serif" font-size="10.00">include</text>
</a>
</g>
</g>
<!-- dir_68267d1309a1af8e8297ef4c3efbcdba -->
<g id="node3" class="node">
<title>dir_68267d1309a1af8e8297ef4c3efbcdba</title>
<g id="a_node3"><a xlink:href="dir_68267d1309a1af8e8297ef4c3efbcdba.html" target="_top" xlink:title="src">
<polygon fill="none" stroke="black" points="106,-124 52,-124 52,-88 106,-88 106,-124"/>
<text text-anchor="middle" x="79" y="-103.5" font-family="Helvetica,sans-Serif" font-size="10.00">src</text>
</a>
</g>
</g>
<!-- dir_2b5d1a398a9eec011391d543f21db223&#45;&gt;dir_68267d1309a1af8e8297ef4c3efbcdba -->
<g id="edge3" class="edge">
<title>dir_2b5d1a398a9eec011391d543f21db223&#45;&gt;dir_68267d1309a1af8e8297ef4c3efbcdba</title>
<path fill="none" stroke="black" d="M45.9,-52.1C49.19,-60.13 53.98,-69.87 58.97,-78.8"/>
<polygon fill="black" stroke="black" points="56.11,-80.84 64.19,-87.7 62.15,-77.3 56.11,-80.84"/>
<g id="a_edge3&#45;headlabel"><a xlink:href="dir_000001_000003.html" target="_top" xlink:title="3">
<text text-anchor="middle" x="51.84" y="-76.68" font-family="Helvetica,sans-Serif" font-size="10.00">3</text>
</a>
</g>
</g>
<!-- dir_68267d1309a1af8e8297ef4c3efbcdba&#45;&gt;dir_920884c6b3b2f0be94e27d51660adee5 -->
<g id="edge2" class="edge">
<title>dir_68267d1309a1af8e8297ef4c3efbcdba&#45;&gt;dir_920884c6b3b2f0be94e27d51660adee5</title>
<path fill="none" stroke="black" d="M87.9,-87.7C92,-79.73 96.95,-70.1 101.49,-61.26"/>
<polygon fill="black" stroke="black" points="104.74,-62.6 106.2,-52.1 98.52,-59.4 104.74,-62.6"/>
<g id="a_edge2&#45;headlabel"><a xlink:href="dir_000003_000000.html" target="_top" xlink:title="27">
<text text-anchor="middle" x="105.62" y="-64.59" font-family="Helvetica,sans-Serif" font-size="10.00">27</text>
</a>
</g>
</g>
<!-- dir_68267d1309a1af8e8297ef4c3efbcdba&#45;&gt;dir_2b5d1a398a9eec011391d543f21db223 -->
<g id="edge1" class="edge">
<title>dir_68267d1309a1af8e8297ef4c3efbcdba&#45;&gt;dir_2b5d1a398a9eec011391d543f21db223</title>
<path fill="none" stroke="black" d="M76.02,-87.7C72.71,-79.64 67.9,-69.89 62.91,-60.98"/>
<polygon fill="black" stroke="black" points="65.78,-58.95 57.69,-52.1 59.74,-62.5 65.78,-58.95"/>
<g id="a_edge1&#45;headlabel"><a xlink:href="dir_000003_000001.html" target="_top" xlink:title="27">
<text text-anchor="middle" x="70.04" y="-58.11" font-family="Helvetica,sans-Serif" font-size="10.00">27</text>
</a>
</g>
</g>
</g>
</svg>
