<?xml version="1.0" encoding="UTF-8" standalone="no"?>
<!DOCTYPE svg PUBLIC "-//W3C//DTD SVG 1.1//EN"
 "http://www.w3.org/Graphics/SVG/1.1/DTD/svg11.dtd">
<!-- Generated by graphviz version 2.43.0 (0)
 -->
<!-- Title: inst/include Pages: 1 -->
<svg width="164pt" height="183pt"
 viewBox="0.00 0.00 164.00 183.00" xmlns="http://www.w3.org/2000/svg" xmlns:xlink="http://www.w3.org/1999/xlink">
<g id="graph0" class="graph" transform="scale(1 1) rotate(0) translate(4 179)">
<title>inst/include</title>
<g id="clust1" class="cluster">
<title>clusterdir_920884c6b3b2f0be94e27d51660adee5</title>
<g id="a_clust1"><a xlink:href="dir_920884c6b3b2f0be94e27d51660adee5.html" target="_top" xlink:title="inst">
<polygon fill="#ddddee" stroke="black" points="8,-8 8,-167 94,-167 94,-8 8,-8"/>
<text text-anchor="middle" x="51" y="-155" font-family="Helvetica,sans-Serif" font-size="10.00">inst</text>
</a>
</g>
</g>
<g id="clust2" class="cluster">
<title>clusterdir_2b5d1a398a9eec011391d543f21db223</title>
<g id="a_clust2"><a xlink:href="dir_2b5d1a398a9eec011391d543f21db223.html" target="_top">
<polygon fill="#eeeeff" stroke="black" points="16,-16 16,-140 86,-140 86,-16 16,-16"/>
</a>
</g>
</g>
<!-- dir_2b5d1a398a9eec011391d543f21db223 -->
<g id="node1" class="node">
<title>dir_2b5d1a398a9eec011391d543f21db223</title>
<text text-anchor="middle" x="51" y="-111.5" font-family="Helvetica,sans-Serif" font-size="10.00">include</text>
</g>
<!-- dir_32fe68e33174dbc8205ec50ef287c65b -->
<g id="node2" class="node">
<title>dir_32fe68e33174dbc8205ec50ef287c65b</title>
<g id="a_node2"><a xlink:href="dir_32fe68e33174dbc8205ec50ef287c65b.html" target="_top" xlink:title="utils">
<polygon fill="white" stroke="black" points="78,-60 24,-60 24,-24 78,-24 78,-60"/>
<text text-anchor="middle" x="51" y="-39.5" font-family="Helvetica,sans-Serif" font-size="10.00">utils</text>
</a>
</g>
</g>
<!-- dir_2b5d1a398a9eec011391d543f21db223&#45;&gt;dir_32fe68e33174dbc8205ec50ef287c65b -->
<g id="edge3" class="edge">
<title>dir_2b5d1a398a9eec011391d543f21db223&#45;&gt;dir_32fe68e33174dbc8205ec50ef287c65b</title>
<path fill="none" stroke="black" d="M51,-95.7C51,-87.98 51,-78.71 51,-70.11"/>
<polygon fill="black" stroke="black" points="54.5,-70.1 51,-60.1 47.5,-70.1 54.5,-70.1"/>
<g id="a_edge3&#45;headlabel"><a xlink:href="dir_000001_000002.html" target="_top" xlink:title="7">
<text text-anchor="middle" x="57.34" y="-71.2" font-family="Helvetica,sans-Serif" font-size="10.00">7</text>
</a>
</g>
</g>
<!-- dir_68267d1309a1af8e8297ef4c3efbcdba -->
<g id="node3" class="node">
<title>dir_68267d1309a1af8e8297ef4c3efbcdba</title>
<g id="a_node3"><a xlink:href="dir_68267d1309a1af8e8297ef4c3efbcdba.html" target="_top" xlink:title="src">
<polygon fill="none" stroke="black" points="156,-132 102,-132 102,-96 156,-96 156,-132"/>
<text text-anchor="middle" x="129" y="-111.5" font-family="Helvetica,sans-Serif" font-size="10.00">src</text>
</a>
</g>
</g>
<!-- dir_2b5d1a398a9eec011391d543f21db223&#45;&gt;dir_68267d1309a1af8e8297ef4c3efbcdba -->
<g id="edge4" class="edge">
<title>dir_2b5d1a398a9eec011391d543f21db223&#45;&gt;dir_68267d1309a1af8e8297ef4c3efbcdba</title>
<path fill="none" stroke="black" d="M78.12,-114C82.71,-114 87.31,-114 91.91,-114"/>
<polygon fill="black" stroke="black" points="91.97,-117.5 101.97,-114 91.97,-110.5 91.97,-117.5"/>
<g id="a_edge4&#45;headlabel"><a xlink:href="dir_000001_000003.html" target="_top" xlink:title="3">
<text text-anchor="middle" x="88.37" y="-117.84" font-family="Helvetica,sans-Serif" font-size="10.00">3</text>
</a>
</g>
</g>
<!-- dir_68267d1309a1af8e8297ef4c3efbcdba&#45;&gt;dir_2b5d1a398a9eec011391d543f21db223 -->
<g id="edge1" class="edge">
<title>dir_68267d1309a1af8e8297ef4c3efbcdba&#45;&gt;dir_2b5d1a398a9eec011391d543f21db223</title>
<path fill="none" stroke="black" d="M101.97,-114C97.37,-114 92.78,-114 88.18,-114"/>
<polygon fill="black" stroke="black" points="88.12,-110.5 78.12,-114 88.12,-117.5 88.12,-110.5"/>
<g id="a_edge1&#45;headlabel"><a xlink:href="dir_000003_000001.html" target="_top" xlink:title="27">
<text text-anchor="middle" x="91.71" y="-105.16" font-family="Helvetica,sans-Serif" font-size="10.00">27</text>
</a>
</g>
</g>
<!-- dir_68267d1309a1af8e8297ef4c3efbcdba&#45;&gt;dir_32fe68e33174dbc8205ec50ef287c65b -->
<g id="edge2" class="edge">
<title>dir_68267d1309a1af8e8297ef4c3efbcdba&#45;&gt;dir_32fe68e33174dbc8205ec50ef287c65b</title>
<path fill="none" stroke="black" d="M109.72,-95.7C100.08,-87.05 88.27,-76.45 77.77,-67.03"/>
<polygon fill="black" stroke="black" points="79.84,-64.18 70.06,-60.1 75.16,-69.39 79.84,-64.18"/>
<g id="a_edge2&#45;headlabel"><a xlink:href="dir_000003_000002.html" target="_top" xlink:title="2">
<text text-anchor="middle" x="84.41" y="-61.97" font-family="Helvetica,sans-Serif" font-size="10.00">2</text>
</a>
</g>
</g>
</g>
</svg>
