<?xml version="1.0" encoding="UTF-8" standalone="no"?>
<!DOCTYPE svg PUBLIC "-//W3C//DTD SVG 1.1//EN"
 "http://www.w3.org/Graphics/SVG/1.1/DTD/svg11.dtd">
<!-- Generated by graphviz version 2.43.0 (0)
 -->
<!-- Title: plant::Plant::fecundity_rate Pages: 1 -->
<svg width="805pt" height="169pt"
 viewBox="0.00 0.00 805.00 169.00" xmlns="http://www.w3.org/2000/svg" xmlns:xlink="http://www.w3.org/1999/xlink">
<g id="graph0" class="graph" transform="scale(1 1) rotate(0) translate(4 165)">
<title>plant::Plant::fecundity_rate</title>
<!-- Node1 -->
<g id="node1" class="node">
<title>Node1</title>
<g id="a_node1"><a xlink:title=" ">
<polygon fill="#bfbfbf" stroke="black" points="648,-72 648,-91 797,-91 797,-72 648,-72"/>
<text text-anchor="middle" x="722.5" y="-79" font-family="Helvetica,sans-Serif" font-size="10.00">plant::Plant::fecundity_rate</text>
</a>
</g>
</g>
<!-- Node2 -->
<g id="node2" class="node">
<title>Node2</title>
<g id="a_node2"><a xlink:href="group__libpspm__interface.html#ga6c9356733f84aca1d7bc6980bc97f157" target="_top" xlink:title=" ">
<polygon fill="none" stroke="black" points="496,-44.5 496,-74.5 612,-74.5 612,-44.5 496,-44.5"/>
<text text-anchor="start" x="504" y="-62.5" font-family="Helvetica,sans-Serif" font-size="10.00">plant::Plant::calc</text>
<text text-anchor="middle" x="554" y="-51.5" font-family="Helvetica,sans-Serif" font-size="10.00">_demographic_rates</text>
</a>
</g>
</g>
<!-- Node1&#45;&gt;Node2 -->
<g id="edge1" class="edge">
<title>Node1&#45;&gt;Node2</title>
<path fill="none" stroke="midnightblue" d="M639.44,-70.66C630.2,-69.44 620.95,-68.21 612.12,-67.05"/>
<polygon fill="midnightblue" stroke="midnightblue" points="639.07,-74.14 649.44,-71.98 639.98,-67.2 639.07,-74.14"/>
</g>
<!-- Node3 -->
<g id="node3" class="node">
<title>Node3</title>
<g id="a_node3"><a xlink:href="classpfate_1_1LifeHistoryOptimizer.html#ad68ae2c0d92d28dbe0cc5d5ef03a695b" target="_top" xlink:title=" ">
<polygon fill="none" stroke="black" points="311,-88.5 311,-118.5 460,-118.5 460,-88.5 311,-88.5"/>
<text text-anchor="start" x="319" y="-106.5" font-family="Helvetica,sans-Serif" font-size="10.00">pfate::LifeHistoryOptimizer</text>
<text text-anchor="middle" x="385.5" y="-95.5" font-family="Helvetica,sans-Serif" font-size="10.00">::grow_for_dt</text>
</a>
</g>
</g>
<!-- Node1&#45;&gt;Node3 -->
<g id="edge9" class="edge">
<title>Node1&#45;&gt;Node3</title>
<path fill="none" stroke="midnightblue" d="M637.98,-86.99C583.35,-90.57 512.65,-95.22 460.13,-98.66"/>
<polygon fill="midnightblue" stroke="midnightblue" points="638.23,-90.48 647.98,-86.33 637.77,-83.49 638.23,-90.48"/>
</g>
<!-- Node2&#45;&gt;Node3 -->
<g id="edge2" class="edge">
<title>Node2&#45;&gt;Node3</title>
<path fill="none" stroke="midnightblue" d="M486.42,-77.09C472.16,-80.86 457.22,-84.81 443.36,-88.47"/>
<polygon fill="midnightblue" stroke="midnightblue" points="487.39,-80.46 496.17,-74.52 485.6,-73.69 487.39,-80.46"/>
</g>
<!-- Node6 -->
<g id="node6" class="node">
<title>Node6</title>
<g id="a_node6"><a xlink:href="lho_8cpp.html#ae66f6b31b5ad750f1fe042a706a4e3d4" target="_top" xlink:title=" ">
<polygon fill="none" stroke="black" points="180,-53 180,-72 221,-72 221,-53 180,-53"/>
<text text-anchor="middle" x="200.5" y="-60" font-family="Helvetica,sans-Serif" font-size="10.00">main</text>
</a>
</g>
</g>
<!-- Node2&#45;&gt;Node6 -->
<g id="edge7" class="edge">
<title>Node2&#45;&gt;Node6</title>
<path fill="none" stroke="midnightblue" d="M485.56,-60.08C403.89,-60.77 271.09,-61.91 221.24,-62.33"/>
<polygon fill="midnightblue" stroke="midnightblue" points="485.77,-63.57 495.74,-59.99 485.71,-56.57 485.77,-63.57"/>
</g>
<!-- Node7 -->
<g id="node7" class="node">
<title>Node7</title>
<g id="a_node7"><a xlink:href="group__libpspm__interface.html#gac98af9ecd8e8391fd5afbcd276603e51" target="_top" xlink:title=" ">
<polygon fill="none" stroke="black" points="330,-0.5 330,-30.5 441,-30.5 441,-0.5 330,-0.5"/>
<text text-anchor="start" x="338" y="-18.5" font-family="Helvetica,sans-Serif" font-size="10.00">pfate::PSPM_Plant::</text>
<text text-anchor="middle" x="385.5" y="-7.5" font-family="Helvetica,sans-Serif" font-size="10.00">preCompute</text>
</a>
</g>
</g>
<!-- Node2&#45;&gt;Node7 -->
<g id="edge8" class="edge">
<title>Node2&#45;&gt;Node7</title>
<path fill="none" stroke="midnightblue" d="M486.42,-41.9C471.38,-37.93 455.59,-33.76 441.11,-29.93"/>
<polygon fill="midnightblue" stroke="midnightblue" points="485.6,-45.31 496.17,-44.48 487.39,-38.54 485.6,-45.31"/>
</g>
<!-- Node4 -->
<g id="node4" class="node">
<title>Node4</title>
<g id="a_node4"><a xlink:href="classpfate_1_1LifeHistoryOptimizer.html#a34aebe9641428e3d0bcb1d59ec936e8f" target="_top" xlink:title=" ">
<polygon fill="none" stroke="black" points="126,-130.5 126,-160.5 275,-160.5 275,-130.5 126,-130.5"/>
<text text-anchor="start" x="134" y="-148.5" font-family="Helvetica,sans-Serif" font-size="10.00">pfate::LifeHistoryOptimizer</text>
<text text-anchor="middle" x="200.5" y="-137.5" font-family="Helvetica,sans-Serif" font-size="10.00">::calcFitness</text>
</a>
</g>
</g>
<!-- Node3&#45;&gt;Node4 -->
<g id="edge3" class="edge">
<title>Node3&#45;&gt;Node4</title>
<path fill="none" stroke="midnightblue" d="M308.91,-120.85C294.96,-124.05 280.51,-127.37 266.9,-130.49"/>
<polygon fill="midnightblue" stroke="midnightblue" points="309.99,-124.19 318.95,-118.54 308.42,-117.37 309.99,-124.19"/>
</g>
<!-- Node5 -->
<g id="node5" class="node">
<title>Node5</title>
<g id="a_node5"><a xlink:href="r__interface_8cpp.html#a7897b94cdc1a829775ac5241571cd456" target="_top" xlink:title=" ">
<polygon fill="none" stroke="black" points="0,-114 0,-133 90,-133 90,-114 0,-114"/>
<text text-anchor="middle" x="45" y="-121" font-family="Helvetica,sans-Serif" font-size="10.00">RCPP_MODULE</text>
</a>
</g>
</g>
<!-- Node3&#45;&gt;Node5 -->
<g id="edge6" class="edge">
<title>Node3&#45;&gt;Node5</title>
<path fill="none" stroke="midnightblue" d="M300.57,-108.46C233.93,-112.4 143.4,-117.74 90.19,-120.89"/>
<polygon fill="midnightblue" stroke="midnightblue" points="300.86,-111.95 310.63,-107.86 300.44,-104.96 300.86,-111.95"/>
</g>
<!-- Node3&#45;&gt;Node6 -->
<g id="edge5" class="edge">
<title>Node3&#45;&gt;Node6</title>
<path fill="none" stroke="midnightblue" d="M307.23,-86.19C275.62,-79.11 241.68,-71.5 221.02,-66.87"/>
<polygon fill="midnightblue" stroke="midnightblue" points="306.87,-89.69 317.4,-88.47 308.4,-82.86 306.87,-89.69"/>
</g>
<!-- Node4&#45;&gt;Node5 -->
<g id="edge4" class="edge">
<title>Node4&#45;&gt;Node5</title>
<path fill="none" stroke="midnightblue" d="M115.93,-133.52C107.12,-132.26 98.43,-131.01 90.33,-129.85"/>
<polygon fill="midnightblue" stroke="midnightblue" points="115.5,-137 125.9,-134.95 116.49,-130.07 115.5,-137"/>
</g>
</g>
</svg>
