<?xml version="1.0" encoding="UTF-8" standalone="no"?>
<!DOCTYPE svg PUBLIC "-//W3C//DTD SVG 1.1//EN"
 "http://www.w3.org/Graphics/SVG/1.1/DTD/svg11.dtd">
<!-- Generated by graphviz version 2.43.0 (0)
 -->
<!-- Title: pfate::env::LightEnvironment::computeEnv Pages: 1 -->
<svg width="378pt" height="88pt"
 viewBox="0.00 0.00 378.00 88.00" xmlns="http://www.w3.org/2000/svg" xmlns:xlink="http://www.w3.org/1999/xlink">
<g id="graph0" class="graph" transform="scale(1 1) rotate(0) translate(4 84)">
<title>pfate::env::LightEnvironment::computeEnv</title>
<!-- Node1 -->
<g id="node1" class="node">
<title>Node1</title>
<g id="a_node1"><a xlink:title="Solver interface for updating the environment from the given state.">
<polygon fill="#bfbfbf" stroke="black" points="0,-24.5 0,-54.5 158,-54.5 158,-24.5 0,-24.5"/>
<text text-anchor="start" x="8" y="-42.5" font-family="Helvetica,sans-Serif" font-size="10.00">pfate::env::LightEnvironment</text>
<text text-anchor="middle" x="79" y="-31.5" font-family="Helvetica,sans-Serif" font-size="10.00">::computeEnv</text>
</a>
</g>
</g>
<!-- Node2 -->
<g id="node2" class="node">
<title>Node2</title>
<g id="a_node2"><a xlink:href="group__ppa__module.html#gadb3ead4a0395e7913688d8917982a178" target="_top" xlink:title=" ">
<polygon fill="none" stroke="black" points="203,-49.5 203,-79.5 361,-79.5 361,-49.5 203,-49.5"/>
<text text-anchor="start" x="211" y="-67.5" font-family="Helvetica,sans-Serif" font-size="10.00">pfate::env::LightEnvironment</text>
<text text-anchor="middle" x="282" y="-56.5" font-family="Helvetica,sans-Serif" font-size="10.00">::fapar_layer</text>
</a>
</g>
</g>
<!-- Node1&#45;&gt;Node2 -->
<g id="edge1" class="edge">
<title>Node1&#45;&gt;Node2</title>
<path fill="none" stroke="midnightblue" d="M158.29,-49.24C169.63,-50.65 181.36,-52.11 192.88,-53.54"/>
<polygon fill="midnightblue" stroke="midnightblue" points="192.57,-57.03 202.93,-54.79 193.43,-50.08 192.57,-57.03"/>
</g>
<!-- Node3 -->
<g id="node3" class="node">
<title>Node3</title>
<g id="a_node3"><a xlink:href="group__ppa__module.html#gaabd97e8fa9e04d956f2ab4f8ac626c0b" target="_top" xlink:title="Calculate the total crown area above height z, contributed by all individuals of the resident species...">
<polygon fill="none" stroke="black" points="194,-0.5 194,-30.5 370,-30.5 370,-0.5 194,-0.5"/>
<text text-anchor="start" x="202" y="-18.5" font-family="Helvetica,sans-Serif" font-size="10.00">pfate::env::LightEnvironment</text>
<text text-anchor="middle" x="282" y="-7.5" font-family="Helvetica,sans-Serif" font-size="10.00">::projected_crown_area_above_z</text>
</a>
</g>
</g>
<!-- Node1&#45;&gt;Node3 -->
<g id="edge2" class="edge">
<title>Node1&#45;&gt;Node3</title>
<path fill="none" stroke="midnightblue" d="M158.29,-30.15C166.69,-29.15 175.3,-28.12 183.88,-27.1"/>
<polygon fill="midnightblue" stroke="midnightblue" points="184.42,-30.56 193.93,-25.9 183.59,-23.61 184.42,-30.56"/>
</g>
</g>
</svg>
