<?xml version="1.0" encoding="UTF-8" standalone="no"?>
<!DOCTYPE svg PUBLIC "-//W3C//DTD SVG 1.1//EN"
 "http://www.w3.org/Graphics/SVG/1.1/DTD/svg11.dtd">
<!-- Generated by graphviz version 2.43.0 (0)
 -->
<!-- Title: plant::PlantArchitecture::crown_area_extent_projected Pages: 1 -->
<svg width="363pt" height="66pt"
 viewBox="0.00 0.00 363.00 66.00" xmlns="http://www.w3.org/2000/svg" xmlns:xlink="http://www.w3.org/1999/xlink">
<g id="graph0" class="graph" transform="scale(1 1) rotate(0) translate(4 62)">
<title>plant::PlantArchitecture::crown_area_extent_projected</title>
<!-- Node1 -->
<g id="node1" class="node">
<title>Node1</title>
<g id="a_node1"><a xlink:title="Potential crown projection area at height z.">
<polygon fill="#bfbfbf" stroke="black" points="0,-14 0,-44 167,-44 167,-14 0,-14"/>
<text text-anchor="start" x="8" y="-32" font-family="Helvetica,sans-Serif" font-size="10.00">plant::PlantArchitecture</text>
<text text-anchor="middle" x="83.5" y="-21" font-family="Helvetica,sans-Serif" font-size="10.00">::crown_area_extent_projected</text>
</a>
</g>
</g>
<!-- Node2 -->
<g id="node2" class="node">
<title>Node2</title>
<g id="a_node2"><a xlink:href="classplant_1_1PlantArchitecture.html#a81452fb0a56656f176f653d3bf9650d9" target="_top" xlink:title="Vertical profiles of crown and stem">
<polygon fill="none" stroke="black" points="207.5,-38.5 207.5,-57.5 350.5,-57.5 350.5,-38.5 207.5,-38.5"/>
<text text-anchor="middle" x="279" y="-45.5" font-family="Helvetica,sans-Serif" font-size="10.00">plant::PlantArchitecture::q</text>
</a>
</g>
</g>
<!-- Node1&#45;&gt;Node2 -->
<g id="edge1" class="edge">
<title>Node1&#45;&gt;Node2</title>
<path fill="none" stroke="midnightblue" d="M167.12,-37.11C177.03,-38.09 187.15,-39.08 197.03,-40.05"/>
<polygon fill="midnightblue" stroke="midnightblue" points="196.94,-43.56 207.24,-41.05 197.63,-36.59 196.94,-43.56"/>
</g>
<!-- Node3 -->
<g id="node3" class="node">
<title>Node3</title>
<g id="a_node3"><a xlink:href="classplant_1_1PlantArchitecture.html#a4d571b1b0165d995f3d2ca0fe21a4b28" target="_top" xlink:title="The height at which crown radius is maximum.">
<polygon fill="none" stroke="black" points="203,-0.5 203,-19.5 355,-19.5 355,-0.5 203,-0.5"/>
<text text-anchor="middle" x="279" y="-7.5" font-family="Helvetica,sans-Serif" font-size="10.00">plant::PlantArchitecture::zm</text>
</a>
</g>
</g>
<!-- Node1&#45;&gt;Node3 -->
<g id="edge2" class="edge">
<title>Node1&#45;&gt;Node3</title>
<path fill="none" stroke="midnightblue" d="M167.12,-20.89C175.52,-20.06 184.06,-19.22 192.49,-18.4"/>
<polygon fill="midnightblue" stroke="midnightblue" points="193.09,-21.85 202.7,-17.39 192.4,-14.89 193.09,-21.85"/>
</g>
</g>
</svg>
