<?xml version="1.0" encoding="UTF-8" standalone="no"?>
<!DOCTYPE svg PUBLIC "-//W3C//DTD SVG 1.1//EN"
 "http://www.w3.org/Graphics/SVG/1.1/DTD/svg11.dtd">
<!-- Generated by graphviz version 2.43.0 (0)
 -->
<!-- Title: pfate::PSPM_Plant::preCompute Pages: 1 -->
<svg width="1176pt" height="399pt"
 viewBox="0.00 0.00 1176.00 398.50" xmlns="http://www.w3.org/2000/svg" xmlns:xlink="http://www.w3.org/1999/xlink">
<g id="graph0" class="graph" transform="scale(1 1) rotate(0) translate(4 394.5)">
<title>pfate::PSPM_Plant::preCompute</title>
<!-- Node1 -->
<g id="node1" class="node">
<title>Node1</title>
<g id="a_node1"><a xlink:title=" ">
<polygon fill="#bfbfbf" stroke="black" points="0,-161.5 0,-191.5 111,-191.5 111,-161.5 0,-161.5"/>
<text text-anchor="start" x="8" y="-179.5" font-family="Helvetica,sans-Serif" font-size="10.00">pfate::PSPM_Plant::</text>
<text text-anchor="middle" x="55.5" y="-168.5" font-family="Helvetica,sans-Serif" font-size="10.00">preCompute</text>
</a>
</g>
</g>
<!-- Node2 -->
<g id="node2" class="node">
<title>Node2</title>
<g id="a_node2"><a xlink:href="group__libpspm__interface.html#ga6c9356733f84aca1d7bc6980bc97f157" target="_top" xlink:title=" ">
<polygon fill="none" stroke="black" points="147,-161.5 147,-191.5 263,-191.5 263,-161.5 147,-161.5"/>
<text text-anchor="start" x="155" y="-179.5" font-family="Helvetica,sans-Serif" font-size="10.00">plant::Plant::calc</text>
<text text-anchor="middle" x="205" y="-168.5" font-family="Helvetica,sans-Serif" font-size="10.00">_demographic_rates</text>
</a>
</g>
</g>
<!-- Node1&#45;&gt;Node2 -->
<g id="edge1" class="edge">
<title>Node1&#45;&gt;Node2</title>
<path fill="none" stroke="midnightblue" d="M111,-176.5C119.38,-176.5 128.11,-176.5 136.73,-176.5"/>
<polygon fill="midnightblue" stroke="midnightblue" points="136.75,-180 146.75,-176.5 136.75,-173 136.75,-180"/>
</g>
<!-- Node3 -->
<g id="node3" class="node">
<title>Node3</title>
<g id="a_node3"><a xlink:href="group__libpspm__interface.html#ga35a2b0d4d10c6dd2125bae36fb2f20a9" target="_top" xlink:title=" ">
<polygon fill="none" stroke="black" points="299,-262 299,-281 448,-281 448,-262 299,-262"/>
<text text-anchor="middle" x="373.5" y="-269" font-family="Helvetica,sans-Serif" font-size="10.00">plant::Plant::fecundity_rate</text>
</a>
</g>
</g>
<!-- Node2&#45;&gt;Node3 -->
<g id="edge2" class="edge">
<title>Node2&#45;&gt;Node3</title>
<path fill="none" stroke="midnightblue" d="M220.34,-191.65C237.47,-208.88 267.75,-236.66 299,-252.5 303.58,-254.82 308.48,-256.88 313.48,-258.7"/>
<polygon fill="midnightblue" stroke="midnightblue" points="312.59,-262.09 323.18,-261.9 314.78,-255.44 312.59,-262.09"/>
</g>
<!-- Node4 -->
<g id="node4" class="node">
<title>Node4</title>
<g id="a_node4"><a xlink:href="classplant_1_1Plant.html#a48612779a5850cca9cc6f6caff1ccb8b" target="_top" xlink:title="LAI model.">
<polygon fill="none" stroke="black" points="310.5,-224 310.5,-243 436.5,-243 436.5,-224 310.5,-224"/>
<text text-anchor="middle" x="373.5" y="-231" font-family="Helvetica,sans-Serif" font-size="10.00">plant::Plant::lai_model</text>
</a>
</g>
</g>
<!-- Node2&#45;&gt;Node4 -->
<g id="edge3" class="edge">
<title>Node2&#45;&gt;Node4</title>
<path fill="none" stroke="midnightblue" d="M247.59,-191.51C263.62,-197.23 282.13,-203.76 299,-209.5 309.99,-213.24 321.95,-217.2 332.96,-220.79"/>
<polygon fill="midnightblue" stroke="midnightblue" points="332.17,-224.22 342.76,-223.98 334.33,-217.56 332.17,-224.22"/>
</g>
<!-- Node6 -->
<g id="node6" class="node">
<title>Node6</title>
<g id="a_node6"><a xlink:href="classplant_1_1Assimilator.html#ade28356f5c19a8033b3781308f21202a" target="_top" xlink:title="Calculate whole&#45;plant net assimilation.">
<polygon fill="none" stroke="black" points="498,-175.5 498,-205.5 601,-205.5 601,-175.5 498,-175.5"/>
<text text-anchor="start" x="506" y="-193.5" font-family="Helvetica,sans-Serif" font-size="10.00">plant::Assimilator</text>
<text text-anchor="middle" x="549.5" y="-182.5" font-family="Helvetica,sans-Serif" font-size="10.00">::net_production</text>
</a>
</g>
</g>
<!-- Node2&#45;&gt;Node6 -->
<g id="edge24" class="edge">
<title>Node2&#45;&gt;Node6</title>
<path fill="none" stroke="midnightblue" d="M263.33,-178.84C325.47,-181.38 424.25,-185.42 487.71,-188.02"/>
<polygon fill="midnightblue" stroke="midnightblue" points="487.84,-191.52 497.97,-188.43 488.12,-184.53 487.84,-191.52"/>
</g>
<!-- Node23 -->
<g id="node23" class="node">
<title>Node23</title>
<g id="a_node23"><a xlink:href="group__libpspm__interface.html#ga8b3531e4d6f3471834a94a828b54f8cd" target="_top" xlink:title=" ">
<polygon fill="none" stroke="black" points="299.5,-148 299.5,-167 447.5,-167 447.5,-148 299.5,-148"/>
<text text-anchor="middle" x="373.5" y="-155" font-family="Helvetica,sans-Serif" font-size="10.00">plant::Plant::mortality_rate</text>
</a>
</g>
</g>
<!-- Node2&#45;&gt;Node23 -->
<g id="edge23" class="edge">
<title>Node2&#45;&gt;Node23</title>
<path fill="none" stroke="midnightblue" d="M263.3,-169.96C271.62,-169.01 280.32,-168.02 289.02,-167.03"/>
<polygon fill="midnightblue" stroke="midnightblue" points="289.68,-170.47 299.22,-165.86 288.88,-163.52 289.68,-170.47"/>
</g>
<!-- Node24 -->
<g id="node24" class="node">
<title>Node24</title>
<g id="a_node24"><a xlink:href="classplant_1_1Plant.html#af19cb4918c06a6660da62386a2d2ea36" target="_top" xlink:title="Partition total biomass dm_dt_tot into various carbon pools.">
<polygon fill="none" stroke="black" points="314,-98.5 314,-128.5 433,-128.5 433,-98.5 314,-98.5"/>
<text text-anchor="start" x="322" y="-116.5" font-family="Helvetica,sans-Serif" font-size="10.00">plant::Plant::partition</text>
<text text-anchor="middle" x="373.5" y="-105.5" font-family="Helvetica,sans-Serif" font-size="10.00">_biomass</text>
</a>
</g>
</g>
<!-- Node2&#45;&gt;Node24 -->
<g id="edge25" class="edge">
<title>Node2&#45;&gt;Node24</title>
<path fill="none" stroke="midnightblue" d="M241.57,-161.38C258.82,-154.2 279.89,-145.65 299,-138.5 304.88,-136.3 311.06,-134.07 317.23,-131.9"/>
<polygon fill="midnightblue" stroke="midnightblue" points="318.57,-135.14 326.87,-128.55 316.27,-128.53 318.57,-135.14"/>
</g>
<!-- Node26 -->
<g id="node26" class="node">
<title>Node26</title>
<g id="a_node26"><a xlink:href="group__libpspm__interface.html#gae3454b0d55be59a37e19915d47431da6" target="_top" xlink:title=" ">
<polygon fill="none" stroke="black" points="324.5,-49.5 324.5,-79.5 422.5,-79.5 422.5,-49.5 324.5,-49.5"/>
<text text-anchor="start" x="332.5" y="-67.5" font-family="Helvetica,sans-Serif" font-size="10.00">plant::Plant::size</text>
<text text-anchor="middle" x="373.5" y="-56.5" font-family="Helvetica,sans-Serif" font-size="10.00">_growth_rate</text>
</a>
</g>
</g>
<!-- Node2&#45;&gt;Node26 -->
<g id="edge27" class="edge">
<title>Node2&#45;&gt;Node26</title>
<path fill="none" stroke="midnightblue" d="M218.28,-161.28C234.74,-141.82 265.76,-108.28 299,-88.5 304.03,-85.51 309.47,-82.84 315.04,-80.47"/>
<polygon fill="midnightblue" stroke="midnightblue" points="316.46,-83.68 324.49,-76.77 313.91,-77.16 316.46,-83.68"/>
</g>
<!-- Node5 -->
<g id="node5" class="node">
<title>Node5</title>
<g id="a_node5"><a xlink:href="classplant_1_1PlantArchitecture.html#a7e5250a6704a5e8d80e4200259c1acf9" target="_top" xlink:title="Rate of change of leaf mass due to change in LAI.">
<polygon fill="none" stroke="black" points="484,-273.5 484,-303.5 615,-303.5 615,-273.5 484,-273.5"/>
<text text-anchor="start" x="492" y="-291.5" font-family="Helvetica,sans-Serif" font-size="10.00">plant::PlantArchitecture</text>
<text text-anchor="middle" x="549.5" y="-280.5" font-family="Helvetica,sans-Serif" font-size="10.00">::dmass_dt_lai</text>
</a>
</g>
</g>
<!-- Node4&#45;&gt;Node5 -->
<g id="edge4" class="edge">
<title>Node4&#45;&gt;Node5</title>
<path fill="none" stroke="midnightblue" d="M413.97,-243C425.04,-245.85 437.04,-249.13 448,-252.5 457.9,-255.54 478.29,-262.79 498.14,-269.99"/>
<polygon fill="midnightblue" stroke="midnightblue" points="497.2,-273.37 507.8,-273.5 499.59,-266.79 497.2,-273.37"/>
</g>
<!-- Node4&#45;&gt;Node6 -->
<g id="edge5" class="edge">
<title>Node4&#45;&gt;Node6</title>
<path fill="none" stroke="midnightblue" d="M413.12,-223.96C435.12,-218.52 463.19,-211.58 488.06,-205.44"/>
<polygon fill="midnightblue" stroke="midnightblue" points="488.9,-208.83 497.77,-203.04 487.22,-202.04 488.9,-208.83"/>
</g>
<!-- Node22 -->
<g id="node22" class="node">
<title>Node22</title>
<g id="a_node22"><a xlink:href="classplant_1_1PlantArchitecture.html#a6765e3aee8ac12969e1e47aed2aea2da" target="_top" xlink:title="Set the crown LAI and properties that change with LAI.">
<polygon fill="none" stroke="black" points="484,-224.5 484,-254.5 615,-254.5 615,-224.5 484,-224.5"/>
<text text-anchor="start" x="492" y="-242.5" font-family="Helvetica,sans-Serif" font-size="10.00">plant::PlantArchitecture</text>
<text text-anchor="middle" x="549.5" y="-231.5" font-family="Helvetica,sans-Serif" font-size="10.00">::set_lai</text>
</a>
</g>
</g>
<!-- Node4&#45;&gt;Node22 -->
<g id="edge22" class="edge">
<title>Node4&#45;&gt;Node22</title>
<path fill="none" stroke="midnightblue" d="M436.83,-235.65C448.79,-236.06 461.43,-236.5 473.73,-236.92"/>
<polygon fill="midnightblue" stroke="midnightblue" points="473.85,-240.43 483.97,-237.27 474.1,-233.43 473.85,-240.43"/>
</g>
<!-- Node7 -->
<g id="node7" class="node">
<title>Node7</title>
<g id="a_node7"><a xlink:href="classplant_1_1Assimilator.html#ac0e69ab9225a2d1be337b10446cfa126" target="_top" xlink:title="Calculate whole&#45;plant gross assimilation, transpiration, gs, etc.">
<polygon fill="none" stroke="black" points="651,-322.5 651,-352.5 813,-352.5 813,-322.5 651,-322.5"/>
<text text-anchor="start" x="659" y="-340.5" font-family="Helvetica,sans-Serif" font-size="10.00">plant::Assimilator</text>
<text text-anchor="middle" x="732" y="-329.5" font-family="Helvetica,sans-Serif" font-size="10.00">::calc_plant_assimilation_rate</text>
</a>
</g>
</g>
<!-- Node6&#45;&gt;Node7 -->
<g id="edge6" class="edge">
<title>Node6&#45;&gt;Node7</title>
<path fill="none" stroke="midnightblue" d="M601.05,-205.05C606.17,-207.94 610.96,-211.39 615,-215.5 647.52,-248.6 617.21,-281.7 651,-313.5 652.27,-314.7 653.6,-315.83 654.97,-316.91"/>
<polygon fill="midnightblue" stroke="midnightblue" points="653.08,-319.86 663.34,-322.5 656.97,-314.03 653.08,-319.86"/>
</g>
<!-- Node12 -->
<g id="node12" class="node">
<title>Node12</title>
<g id="a_node12"><a xlink:href="classplant_1_1Assimilator.html#ad33549c793850f11330fd48829367c55" target="_top" xlink:title="Calculate leaf and fine&#45;root respiration rates.">
<polygon fill="none" stroke="black" points="670,-273.5 670,-303.5 794,-303.5 794,-273.5 670,-273.5"/>
<text text-anchor="start" x="678" y="-291.5" font-family="Helvetica,sans-Serif" font-size="10.00">plant::Assimilator</text>
<text text-anchor="middle" x="732" y="-280.5" font-family="Helvetica,sans-Serif" font-size="10.00">::leaf_respiration_rate</text>
</a>
</g>
</g>
<!-- Node6&#45;&gt;Node12 -->
<g id="edge11" class="edge">
<title>Node6&#45;&gt;Node12</title>
<path fill="none" stroke="midnightblue" d="M598.65,-205.59C604.44,-208.42 610.04,-211.7 615,-215.5 636.46,-231.93 628.92,-248.92 651,-264.5 654.02,-266.63 657.23,-268.58 660.57,-270.35"/>
<polygon fill="midnightblue" stroke="midnightblue" points="659.11,-273.53 669.65,-274.66 662.12,-267.21 659.11,-273.53"/>
</g>
<!-- Node13 -->
<g id="node13" class="node">
<title>Node13</title>
<g id="a_node13"><a xlink:href="classplant_1_1Assimilator.html#a0da26c8e10a188774954652ec0402e09" target="_top" xlink:title="Calculate leaf and fine&#45;root turnover rates.">
<polygon fill="none" stroke="black" points="675.5,-224.5 675.5,-254.5 788.5,-254.5 788.5,-224.5 675.5,-224.5"/>
<text text-anchor="start" x="683.5" y="-242.5" font-family="Helvetica,sans-Serif" font-size="10.00">plant::Assimilator</text>
<text text-anchor="middle" x="732" y="-231.5" font-family="Helvetica,sans-Serif" font-size="10.00">::leaf_turnover_rate</text>
</a>
</g>
</g>
<!-- Node6&#45;&gt;Node13 -->
<g id="edge12" class="edge">
<title>Node6&#45;&gt;Node13</title>
<path fill="none" stroke="midnightblue" d="M601.26,-204.28C621.24,-209.7 644.44,-216 665.65,-221.76"/>
<polygon fill="midnightblue" stroke="midnightblue" points="664.99,-225.21 675.56,-224.45 666.83,-218.45 664.99,-225.21"/>
</g>
<!-- Node15 -->
<g id="node15" class="node">
<title>Node15</title>
<g id="a_node15"><a xlink:href="classplant_1_1Assimilator.html#a07a83723c0f4cc6e98968dfb241c6ce7" target="_top" xlink:title="Leaf economics &#45; calculate optimal leaf lifespan.">
<polygon fill="none" stroke="black" points="669.5,-175.5 669.5,-205.5 794.5,-205.5 794.5,-175.5 669.5,-175.5"/>
<text text-anchor="start" x="677.5" y="-193.5" font-family="Helvetica,sans-Serif" font-size="10.00">plant::Assimilator</text>
<text text-anchor="middle" x="732" y="-182.5" font-family="Helvetica,sans-Serif" font-size="10.00">::les_update_lifespans</text>
</a>
</g>
</g>
<!-- Node6&#45;&gt;Node15 -->
<g id="edge14" class="edge">
<title>Node6&#45;&gt;Node15</title>
<path fill="none" stroke="midnightblue" d="M601.26,-190.5C619.28,-190.5 639.93,-190.5 659.37,-190.5"/>
<polygon fill="midnightblue" stroke="midnightblue" points="659.4,-194 669.4,-190.5 659.4,-187 659.4,-194"/>
</g>
<!-- Node16 -->
<g id="node16" class="node">
<title>Node16</title>
<g id="a_node16"><a xlink:href="classplant_1_1Assimilator.html#aeedad55e35be6fa1d908731a123e2c4f" target="_top" xlink:title="Calculate leaf and fine&#45;root respiration rates.">
<polygon fill="none" stroke="black" points="669.5,-126.5 669.5,-156.5 794.5,-156.5 794.5,-126.5 669.5,-126.5"/>
<text text-anchor="start" x="677.5" y="-144.5" font-family="Helvetica,sans-Serif" font-size="10.00">plant::Assimilator</text>
<text text-anchor="middle" x="732" y="-133.5" font-family="Helvetica,sans-Serif" font-size="10.00">::root_respiration_rate</text>
</a>
</g>
</g>
<!-- Node6&#45;&gt;Node16 -->
<g id="edge15" class="edge">
<title>Node6&#45;&gt;Node16</title>
<path fill="none" stroke="midnightblue" d="M601.26,-176.72C621.24,-171.3 644.44,-165 665.65,-159.24"/>
<polygon fill="midnightblue" stroke="midnightblue" points="666.83,-162.55 675.56,-156.55 664.99,-155.79 666.83,-162.55"/>
</g>
<!-- Node18 -->
<g id="node18" class="node">
<title>Node18</title>
<g id="a_node18"><a xlink:href="classplant_1_1Assimilator.html#a31ccc72fe7255233a1640d1f708eebc7" target="_top" xlink:title="Calculate leaf and fine&#45;root turnover rates.">
<polygon fill="none" stroke="black" points="675.5,-77.5 675.5,-107.5 788.5,-107.5 788.5,-77.5 675.5,-77.5"/>
<text text-anchor="start" x="683.5" y="-95.5" font-family="Helvetica,sans-Serif" font-size="10.00">plant::Assimilator</text>
<text text-anchor="middle" x="732" y="-84.5" font-family="Helvetica,sans-Serif" font-size="10.00">::root_turnover_rate</text>
</a>
</g>
</g>
<!-- Node6&#45;&gt;Node18 -->
<g id="edge17" class="edge">
<title>Node6&#45;&gt;Node18</title>
<path fill="none" stroke="midnightblue" d="M567.52,-175.44C586.65,-159.18 619.2,-133.47 651,-117.5 655.79,-115.09 660.87,-112.86 666.04,-110.8"/>
<polygon fill="midnightblue" stroke="midnightblue" points="667.28,-114.07 675.42,-107.28 664.83,-107.52 667.28,-114.07"/>
</g>
<!-- Node19 -->
<g id="node19" class="node">
<title>Node19</title>
<g id="a_node19"><a xlink:href="classplant_1_1Assimilator.html#ad1f356c7c009ad495c9e9a3994c92fd3" target="_top" xlink:title="Calculate leaf and fine&#45;root respiration rates.">
<polygon fill="none" stroke="black" points="657.5,-28.5 657.5,-58.5 806.5,-58.5 806.5,-28.5 657.5,-28.5"/>
<text text-anchor="start" x="665.5" y="-46.5" font-family="Helvetica,sans-Serif" font-size="10.00">plant::Assimilator</text>
<text text-anchor="middle" x="732" y="-35.5" font-family="Helvetica,sans-Serif" font-size="10.00">::sapwood_respiration_rate</text>
</a>
</g>
</g>
<!-- Node6&#45;&gt;Node19 -->
<g id="edge19" class="edge">
<title>Node6&#45;&gt;Node19</title>
<path fill="none" stroke="midnightblue" d="M573.75,-175.45C587.03,-166.01 603.32,-152.92 615,-138.5 637.27,-111.01 623.86,-90.2 651,-67.5 652.54,-66.21 654.15,-64.99 655.82,-63.83"/>
<polygon fill="midnightblue" stroke="midnightblue" points="657.79,-66.73 664.57,-58.58 654.19,-60.73 657.79,-66.73"/>
</g>
<!-- Node8 -->
<g id="node8" class="node">
<title>Node8</title>
<g id="a_node8"><a xlink:href="group__ppa__module.html#ga4c6834623dae9423d2981a0b28b0f155" target="_top" xlink:title="Realized crown projection area at height z.">
<polygon fill="none" stroke="black" points="849,-346.5 849,-376.5 980,-376.5 980,-346.5 849,-346.5"/>
<text text-anchor="start" x="857" y="-364.5" font-family="Helvetica,sans-Serif" font-size="10.00">plant::PlantArchitecture</text>
<text text-anchor="middle" x="914.5" y="-353.5" font-family="Helvetica,sans-Serif" font-size="10.00">::crown_area_above</text>
</a>
</g>
</g>
<!-- Node7&#45;&gt;Node8 -->
<g id="edge7" class="edge">
<title>Node7&#45;&gt;Node8</title>
<path fill="none" stroke="midnightblue" d="M813.22,-348.17C821.72,-349.3 830.34,-350.44 838.78,-351.56"/>
<polygon fill="midnightblue" stroke="midnightblue" points="838.58,-355.07 848.95,-352.92 839.5,-348.13 838.58,-355.07"/>
</g>
<!-- Node11 -->
<g id="node11" class="node">
<title>Node11</title>
<g id="a_node11"><a xlink:href="classplant_1_1Assimilator.html#a01115927f79cc407240f59af57c12d17" target="_top" xlink:title="Calculate leaf&#45;level assimilation rate using the Phydro model ///.">
<polygon fill="none" stroke="black" points="849,-297.5 849,-327.5 980,-327.5 980,-297.5 849,-297.5"/>
<text text-anchor="start" x="857" y="-315.5" font-family="Helvetica,sans-Serif" font-size="10.00">plant::Assimilator</text>
<text text-anchor="middle" x="914.5" y="-304.5" font-family="Helvetica,sans-Serif" font-size="10.00">::leaf_assimilation_rate</text>
</a>
</g>
</g>
<!-- Node7&#45;&gt;Node11 -->
<g id="edge10" class="edge">
<title>Node7&#45;&gt;Node11</title>
<path fill="none" stroke="midnightblue" d="M813.22,-326.39C821.72,-325.21 830.34,-324.02 838.78,-322.85"/>
<polygon fill="midnightblue" stroke="midnightblue" points="839.53,-326.28 848.95,-321.44 838.57,-319.35 839.53,-326.28"/>
</g>
<!-- Node9 -->
<g id="node9" class="node">
<title>Node9</title>
<g id="a_node9"><a xlink:href="classplant_1_1PlantArchitecture.html#a81452fb0a56656f176f653d3bf9650d9" target="_top" xlink:title="Vertical profiles of crown and stem">
<polygon fill="none" stroke="black" points="1020.5,-371 1020.5,-390 1163.5,-390 1163.5,-371 1020.5,-371"/>
<text text-anchor="middle" x="1092" y="-378" font-family="Helvetica,sans-Serif" font-size="10.00">plant::PlantArchitecture::q</text>
</a>
</g>
</g>
<!-- Node8&#45;&gt;Node9 -->
<g id="edge8" class="edge">
<title>Node8&#45;&gt;Node9</title>
<path fill="none" stroke="midnightblue" d="M980.35,-368.52C990.09,-369.58 1000.24,-370.67 1010.26,-371.76"/>
<polygon fill="midnightblue" stroke="midnightblue" points="1009.9,-375.24 1020.22,-372.84 1010.65,-368.28 1009.9,-375.24"/>
</g>
<!-- Node10 -->
<g id="node10" class="node">
<title>Node10</title>
<g id="a_node10"><a xlink:href="classplant_1_1PlantArchitecture.html#a4d571b1b0165d995f3d2ca0fe21a4b28" target="_top" xlink:title="The height at which crown radius is maximum.">
<polygon fill="none" stroke="black" points="1016,-333 1016,-352 1168,-352 1168,-333 1016,-333"/>
<text text-anchor="middle" x="1092" y="-340" font-family="Helvetica,sans-Serif" font-size="10.00">plant::PlantArchitecture::zm</text>
</a>
</g>
</g>
<!-- Node8&#45;&gt;Node10 -->
<g id="edge9" class="edge">
<title>Node8&#45;&gt;Node10</title>
<path fill="none" stroke="midnightblue" d="M980.35,-354.48C988.63,-353.58 997.21,-352.65 1005.75,-351.73"/>
<polygon fill="midnightblue" stroke="midnightblue" points="1006.18,-355.2 1015.74,-350.65 1005.42,-348.24 1006.18,-355.2"/>
</g>
<!-- Node14 -->
<g id="node14" class="node">
<title>Node14</title>
<g id="a_node14"><a xlink:href="classplant_1_1PlantArchitecture.html#a36ebf17a1799f27ce12bd27f637f88a9" target="_top" xlink:title="Get biomass in various carbon pools.">
<polygon fill="none" stroke="black" points="849,-224.5 849,-254.5 980,-254.5 980,-224.5 849,-224.5"/>
<text text-anchor="start" x="857" y="-242.5" font-family="Helvetica,sans-Serif" font-size="10.00">plant::PlantArchitecture</text>
<text text-anchor="middle" x="914.5" y="-231.5" font-family="Helvetica,sans-Serif" font-size="10.00">::leaf_mass</text>
</a>
</g>
</g>
<!-- Node13&#45;&gt;Node14 -->
<g id="edge13" class="edge">
<title>Node13&#45;&gt;Node14</title>
<path fill="none" stroke="midnightblue" d="M788.63,-239.5C804.41,-239.5 821.86,-239.5 838.59,-239.5"/>
<polygon fill="midnightblue" stroke="midnightblue" points="838.89,-243 848.88,-239.5 838.88,-236 838.89,-243"/>
</g>
<!-- Node17 -->
<g id="node17" class="node">
<title>Node17</title>
<g id="a_node17"><a xlink:href="classplant_1_1PlantArchitecture.html#af767ab32b2c9aff347144ce7dff349be" target="_top" xlink:title="Get biomass in various carbon pools.">
<polygon fill="none" stroke="black" points="849,-101.5 849,-131.5 980,-131.5 980,-101.5 849,-101.5"/>
<text text-anchor="start" x="857" y="-119.5" font-family="Helvetica,sans-Serif" font-size="10.00">plant::PlantArchitecture</text>
<text text-anchor="middle" x="914.5" y="-108.5" font-family="Helvetica,sans-Serif" font-size="10.00">::root_mass</text>
</a>
</g>
</g>
<!-- Node16&#45;&gt;Node17 -->
<g id="edge16" class="edge">
<title>Node16&#45;&gt;Node17</title>
<path fill="none" stroke="midnightblue" d="M794.61,-132.97C808.8,-131 824.05,-128.89 838.73,-126.86"/>
<polygon fill="midnightblue" stroke="midnightblue" points="839.35,-130.3 848.78,-125.46 838.39,-123.37 839.35,-130.3"/>
</g>
<!-- Node18&#45;&gt;Node17 -->
<g id="edge18" class="edge">
<title>Node18&#45;&gt;Node17</title>
<path fill="none" stroke="midnightblue" d="M788.63,-99.9C804.41,-102 821.86,-104.32 838.59,-106.54"/>
<polygon fill="midnightblue" stroke="midnightblue" points="838.51,-110.06 848.88,-107.91 839.43,-103.12 838.51,-110.06"/>
</g>
<!-- Node20 -->
<g id="node20" class="node">
<title>Node20</title>
<g id="a_node20"><a xlink:href="classplant_1_1PlantArchitecture.html#a0f95752c3574b4dfadb93e92582e5fa5" target="_top" xlink:title="Get biomass in various carbon pools.">
<polygon fill="none" stroke="black" points="849,-28.5 849,-58.5 980,-58.5 980,-28.5 849,-28.5"/>
<text text-anchor="start" x="857" y="-46.5" font-family="Helvetica,sans-Serif" font-size="10.00">plant::PlantArchitecture</text>
<text text-anchor="middle" x="914.5" y="-35.5" font-family="Helvetica,sans-Serif" font-size="10.00">::sapwood_mass</text>
</a>
</g>
</g>
<!-- Node19&#45;&gt;Node20 -->
<g id="edge20" class="edge">
<title>Node19&#45;&gt;Node20</title>
<path fill="none" stroke="midnightblue" d="M806.68,-43.5C817.24,-43.5 828.12,-43.5 838.7,-43.5"/>
<polygon fill="midnightblue" stroke="midnightblue" points="838.74,-47 848.74,-43.5 838.74,-40 838.74,-47"/>
</g>
<!-- Node21 -->
<g id="node21" class="node">
<title>Node21</title>
<g id="a_node21"><a xlink:href="classplant_1_1PlantArchitecture.html#a1fea368ef9182afc3aedfb76bcc4b3ee" target="_top" xlink:title="Get biomass in various carbon pools.">
<polygon fill="none" stroke="black" points="1026.5,-28.5 1026.5,-58.5 1157.5,-58.5 1157.5,-28.5 1026.5,-28.5"/>
<text text-anchor="start" x="1034.5" y="-46.5" font-family="Helvetica,sans-Serif" font-size="10.00">plant::PlantArchitecture</text>
<text text-anchor="middle" x="1092" y="-35.5" font-family="Helvetica,sans-Serif" font-size="10.00">::stem_mass</text>
</a>
</g>
</g>
<!-- Node20&#45;&gt;Node21 -->
<g id="edge21" class="edge">
<title>Node20&#45;&gt;Node21</title>
<path fill="none" stroke="midnightblue" d="M980.35,-43.5C991.98,-43.5 1004.19,-43.5 1016.08,-43.5"/>
<polygon fill="midnightblue" stroke="midnightblue" points="1016.42,-47 1026.42,-43.5 1016.42,-40 1016.42,-47"/>
</g>
<!-- Node25 -->
<g id="node25" class="node">
<title>Node25</title>
<g id="a_node25"><a xlink:href="classplant_1_1PlantArchitecture.html#a459c5123d878d20d25f86e64996d2c64" target="_top" xlink:title="Derivatives required for biomass partitioning">
<polygon fill="none" stroke="black" points="484,-98.5 484,-128.5 615,-128.5 615,-98.5 484,-98.5"/>
<text text-anchor="start" x="492" y="-116.5" font-family="Helvetica,sans-Serif" font-size="10.00">plant::PlantArchitecture</text>
<text text-anchor="middle" x="549.5" y="-105.5" font-family="Helvetica,sans-Serif" font-size="10.00">::dreproduction_dmass</text>
</a>
</g>
</g>
<!-- Node24&#45;&gt;Node25 -->
<g id="edge26" class="edge">
<title>Node24&#45;&gt;Node25</title>
<path fill="none" stroke="midnightblue" d="M433.41,-113.5C446.37,-113.5 460.27,-113.5 473.76,-113.5"/>
<polygon fill="midnightblue" stroke="midnightblue" points="473.98,-117 483.98,-113.5 473.98,-110 473.98,-117"/>
</g>
<!-- Node27 -->
<g id="node27" class="node">
<title>Node27</title>
<g id="a_node27"><a xlink:href="classplant_1_1PlantArchitecture.html#acdc3841d5f648fabc0202e04e2bfb8a3" target="_top" xlink:title="Derivatives required for biomass partitioning">
<polygon fill="none" stroke="black" points="484,-49.5 484,-79.5 615,-79.5 615,-49.5 484,-49.5"/>
<text text-anchor="start" x="492" y="-67.5" font-family="Helvetica,sans-Serif" font-size="10.00">plant::PlantArchitecture</text>
<text text-anchor="middle" x="549.5" y="-56.5" font-family="Helvetica,sans-Serif" font-size="10.00">::dsize_dmass</text>
</a>
</g>
</g>
<!-- Node26&#45;&gt;Node27 -->
<g id="edge28" class="edge">
<title>Node26&#45;&gt;Node27</title>
<path fill="none" stroke="midnightblue" d="M422.51,-64.5C438.32,-64.5 456.29,-64.5 473.61,-64.5"/>
<polygon fill="midnightblue" stroke="midnightblue" points="473.71,-68 483.71,-64.5 473.71,-61 473.71,-68"/>
</g>
<!-- Node28 -->
<g id="node28" class="node">
<title>Node28</title>
<g id="a_node28"><a xlink:href="classplant_1_1PlantArchitecture.html#a4ee1ef386497f18eb1f7d2ef2db3cff3" target="_top" xlink:title=" ">
<polygon fill="none" stroke="black" points="484,-0.5 484,-30.5 615,-30.5 615,-0.5 484,-0.5"/>
<text text-anchor="start" x="492" y="-18.5" font-family="Helvetica,sans-Serif" font-size="10.00">plant::PlantArchitecture</text>
<text text-anchor="middle" x="549.5" y="-7.5" font-family="Helvetica,sans-Serif" font-size="10.00">::get_size</text>
</a>
</g>
</g>
<!-- Node26&#45;&gt;Node28 -->
<g id="edge29" class="edge">
<title>Node26&#45;&gt;Node28</title>
<path fill="none" stroke="midnightblue" d="M422.51,-50.98C441.96,-45.5 464.69,-39.1 485.45,-33.26"/>
<polygon fill="midnightblue" stroke="midnightblue" points="486.46,-36.61 495.14,-30.53 484.57,-29.87 486.46,-36.61"/>
</g>
</g>
</svg>
