<?xml version="1.0" encoding="UTF-8" standalone="no"?>
<!DOCTYPE svg PUBLIC "-//W3C//DTD SVG 1.1//EN"
 "http://www.w3.org/Graphics/SVG/1.1/DTD/svg11.dtd">
<!-- Generated by graphviz version 2.43.0 (0)
 -->
<!-- Title: plant::PlantArchitecture::crown_area_above Pages: 1 -->
<svg width="327pt" height="66pt"
 viewBox="0.00 0.00 327.00 66.00" xmlns="http://www.w3.org/2000/svg" xmlns:xlink="http://www.w3.org/1999/xlink">
<g id="graph0" class="graph" transform="scale(1 1) rotate(0) translate(4 62)">
<title>plant::PlantArchitecture::crown_area_above</title>
<!-- Node1 -->
<g id="node1" class="node">
<title>Node1</title>
<g id="a_node1"><a xlink:title="Realized crown projection area at height z.">
<polygon fill="#bfbfbf" stroke="black" points="0,-14 0,-44 131,-44 131,-14 0,-14"/>
<text text-anchor="start" x="8" y="-32" font-family="Helvetica,sans-Serif" font-size="10.00">plant::PlantArchitecture</text>
<text text-anchor="middle" x="65.5" y="-21" font-family="Helvetica,sans-Serif" font-size="10.00">::crown_area_above</text>
</a>
</g>
</g>
<!-- Node2 -->
<g id="node2" class="node">
<title>Node2</title>
<g id="a_node2"><a xlink:href="classplant_1_1PlantArchitecture.html#a81452fb0a56656f176f653d3bf9650d9" target="_top" xlink:title="Vertical profiles of crown and stem">
<polygon fill="none" stroke="black" points="171.5,-38.5 171.5,-57.5 314.5,-57.5 314.5,-38.5 171.5,-38.5"/>
<text text-anchor="middle" x="243" y="-45.5" font-family="Helvetica,sans-Serif" font-size="10.00">plant::PlantArchitecture::q</text>
</a>
</g>
</g>
<!-- Node1&#45;&gt;Node2 -->
<g id="edge1" class="edge">
<title>Node1&#45;&gt;Node2</title>
<path fill="none" stroke="midnightblue" d="M131.35,-36.02C141.09,-37.08 151.24,-38.17 161.26,-39.26"/>
<polygon fill="midnightblue" stroke="midnightblue" points="160.9,-42.74 171.22,-40.34 161.65,-35.78 160.9,-42.74"/>
</g>
<!-- Node3 -->
<g id="node3" class="node">
<title>Node3</title>
<g id="a_node3"><a xlink:href="classplant_1_1PlantArchitecture.html#a4d571b1b0165d995f3d2ca0fe21a4b28" target="_top" xlink:title="The height at which crown radius is maximum.">
<polygon fill="none" stroke="black" points="167,-0.5 167,-19.5 319,-19.5 319,-0.5 167,-0.5"/>
<text text-anchor="middle" x="243" y="-7.5" font-family="Helvetica,sans-Serif" font-size="10.00">plant::PlantArchitecture::zm</text>
</a>
</g>
</g>
<!-- Node1&#45;&gt;Node3 -->
<g id="edge2" class="edge">
<title>Node1&#45;&gt;Node3</title>
<path fill="none" stroke="midnightblue" d="M131.35,-21.98C139.63,-21.08 148.21,-20.15 156.75,-19.23"/>
<polygon fill="midnightblue" stroke="midnightblue" points="157.18,-22.7 166.74,-18.15 156.42,-15.74 157.18,-22.7"/>
</g>
</g>
</svg>
