<?xml version="1.0" encoding="UTF-8" standalone="no"?>
<!DOCTYPE svg PUBLIC "-//W3C//DTD SVG 1.1//EN"
 "http://www.w3.org/Graphics/SVG/1.1/DTD/svg11.dtd">
<!-- Generated by graphviz version 2.43.0 (0)
 -->
<!-- Title: plant::Plant::calc_demographic_rates Pages: 1 -->
<svg width="1029pt" height="399pt"
 viewBox="0.00 0.00 1029.00 398.50" xmlns="http://www.w3.org/2000/svg" xmlns:xlink="http://www.w3.org/1999/xlink">
<g id="graph0" class="graph" transform="scale(1 1) rotate(0) translate(4 394.5)">
<title>plant::Plant::calc_demographic_rates</title>
<!-- Node1 -->
<g id="node1" class="node">
<title>Node1</title>
<g id="a_node1"><a xlink:title=" ">
<polygon fill="#bfbfbf" stroke="black" points="0,-161.5 0,-191.5 116,-191.5 116,-161.5 0,-161.5"/>
<text text-anchor="start" x="8" y="-179.5" font-family="Helvetica,sans-Serif" font-size="10.00">plant::Plant::calc</text>
<text text-anchor="middle" x="58" y="-168.5" font-family="Helvetica,sans-Serif" font-size="10.00">_demographic_rates</text>
</a>
</g>
</g>
<!-- Node2 -->
<g id="node2" class="node">
<title>Node2</title>
<g id="a_node2"><a xlink:href="group__libpspm__interface.html#ga35a2b0d4d10c6dd2125bae36fb2f20a9" target="_top" xlink:title=" ">
<polygon fill="none" stroke="black" points="152,-262 152,-281 301,-281 301,-262 152,-262"/>
<text text-anchor="middle" x="226.5" y="-269" font-family="Helvetica,sans-Serif" font-size="10.00">plant::Plant::fecundity_rate</text>
</a>
</g>
</g>
<!-- Node1&#45;&gt;Node2 -->
<g id="edge1" class="edge">
<title>Node1&#45;&gt;Node2</title>
<path fill="none" stroke="midnightblue" d="M73.34,-191.65C90.47,-208.88 120.75,-236.66 152,-252.5 156.58,-254.82 161.48,-256.88 166.48,-258.7"/>
<polygon fill="midnightblue" stroke="midnightblue" points="165.59,-262.09 176.18,-261.9 167.78,-255.44 165.59,-262.09"/>
</g>
<!-- Node3 -->
<g id="node3" class="node">
<title>Node3</title>
<g id="a_node3"><a xlink:href="classplant_1_1Plant.html#a48612779a5850cca9cc6f6caff1ccb8b" target="_top" xlink:title="LAI model.">
<polygon fill="none" stroke="black" points="163.5,-224 163.5,-243 289.5,-243 289.5,-224 163.5,-224"/>
<text text-anchor="middle" x="226.5" y="-231" font-family="Helvetica,sans-Serif" font-size="10.00">plant::Plant::lai_model</text>
</a>
</g>
</g>
<!-- Node1&#45;&gt;Node3 -->
<g id="edge2" class="edge">
<title>Node1&#45;&gt;Node3</title>
<path fill="none" stroke="midnightblue" d="M100.59,-191.51C116.62,-197.23 135.13,-203.76 152,-209.5 162.99,-213.24 174.95,-217.2 185.96,-220.79"/>
<polygon fill="midnightblue" stroke="midnightblue" points="185.17,-224.22 195.76,-223.98 187.33,-217.56 185.17,-224.22"/>
</g>
<!-- Node5 -->
<g id="node5" class="node">
<title>Node5</title>
<g id="a_node5"><a xlink:href="classplant_1_1Assimilator.html#ade28356f5c19a8033b3781308f21202a" target="_top" xlink:title="Calculate whole&#45;plant net assimilation.">
<polygon fill="none" stroke="black" points="351,-175.5 351,-205.5 454,-205.5 454,-175.5 351,-175.5"/>
<text text-anchor="start" x="359" y="-193.5" font-family="Helvetica,sans-Serif" font-size="10.00">plant::Assimilator</text>
<text text-anchor="middle" x="402.5" y="-182.5" font-family="Helvetica,sans-Serif" font-size="10.00">::net_production</text>
</a>
</g>
</g>
<!-- Node1&#45;&gt;Node5 -->
<g id="edge23" class="edge">
<title>Node1&#45;&gt;Node5</title>
<path fill="none" stroke="midnightblue" d="M116.33,-178.84C178.47,-181.38 277.25,-185.42 340.71,-188.02"/>
<polygon fill="midnightblue" stroke="midnightblue" points="340.84,-191.52 350.97,-188.43 341.12,-184.53 340.84,-191.52"/>
</g>
<!-- Node22 -->
<g id="node22" class="node">
<title>Node22</title>
<g id="a_node22"><a xlink:href="group__libpspm__interface.html#ga8b3531e4d6f3471834a94a828b54f8cd" target="_top" xlink:title=" ">
<polygon fill="none" stroke="black" points="152.5,-148 152.5,-167 300.5,-167 300.5,-148 152.5,-148"/>
<text text-anchor="middle" x="226.5" y="-155" font-family="Helvetica,sans-Serif" font-size="10.00">plant::Plant::mortality_rate</text>
</a>
</g>
</g>
<!-- Node1&#45;&gt;Node22 -->
<g id="edge22" class="edge">
<title>Node1&#45;&gt;Node22</title>
<path fill="none" stroke="midnightblue" d="M116.3,-169.96C124.62,-169.01 133.32,-168.02 142.02,-167.03"/>
<polygon fill="midnightblue" stroke="midnightblue" points="142.68,-170.47 152.22,-165.86 141.88,-163.52 142.68,-170.47"/>
</g>
<!-- Node23 -->
<g id="node23" class="node">
<title>Node23</title>
<g id="a_node23"><a xlink:href="classplant_1_1Plant.html#af19cb4918c06a6660da62386a2d2ea36" target="_top" xlink:title="Partition total biomass dm_dt_tot into various carbon pools.">
<polygon fill="none" stroke="black" points="167,-98.5 167,-128.5 286,-128.5 286,-98.5 167,-98.5"/>
<text text-anchor="start" x="175" y="-116.5" font-family="Helvetica,sans-Serif" font-size="10.00">plant::Plant::partition</text>
<text text-anchor="middle" x="226.5" y="-105.5" font-family="Helvetica,sans-Serif" font-size="10.00">_biomass</text>
</a>
</g>
</g>
<!-- Node1&#45;&gt;Node23 -->
<g id="edge24" class="edge">
<title>Node1&#45;&gt;Node23</title>
<path fill="none" stroke="midnightblue" d="M94.57,-161.38C111.82,-154.2 132.89,-145.65 152,-138.5 157.88,-136.3 164.06,-134.07 170.23,-131.9"/>
<polygon fill="midnightblue" stroke="midnightblue" points="171.57,-135.14 179.87,-128.55 169.27,-128.53 171.57,-135.14"/>
</g>
<!-- Node25 -->
<g id="node25" class="node">
<title>Node25</title>
<g id="a_node25"><a xlink:href="group__libpspm__interface.html#gae3454b0d55be59a37e19915d47431da6" target="_top" xlink:title=" ">
<polygon fill="none" stroke="black" points="177.5,-49.5 177.5,-79.5 275.5,-79.5 275.5,-49.5 177.5,-49.5"/>
<text text-anchor="start" x="185.5" y="-67.5" font-family="Helvetica,sans-Serif" font-size="10.00">plant::Plant::size</text>
<text text-anchor="middle" x="226.5" y="-56.5" font-family="Helvetica,sans-Serif" font-size="10.00">_growth_rate</text>
</a>
</g>
</g>
<!-- Node1&#45;&gt;Node25 -->
<g id="edge26" class="edge">
<title>Node1&#45;&gt;Node25</title>
<path fill="none" stroke="midnightblue" d="M71.28,-161.28C87.74,-141.82 118.76,-108.28 152,-88.5 157.03,-85.51 162.47,-82.84 168.04,-80.47"/>
<polygon fill="midnightblue" stroke="midnightblue" points="169.46,-83.68 177.49,-76.77 166.91,-77.16 169.46,-83.68"/>
</g>
<!-- Node4 -->
<g id="node4" class="node">
<title>Node4</title>
<g id="a_node4"><a xlink:href="classplant_1_1PlantArchitecture.html#a7e5250a6704a5e8d80e4200259c1acf9" target="_top" xlink:title="Rate of change of leaf mass due to change in LAI.">
<polygon fill="none" stroke="black" points="337,-273.5 337,-303.5 468,-303.5 468,-273.5 337,-273.5"/>
<text text-anchor="start" x="345" y="-291.5" font-family="Helvetica,sans-Serif" font-size="10.00">plant::PlantArchitecture</text>
<text text-anchor="middle" x="402.5" y="-280.5" font-family="Helvetica,sans-Serif" font-size="10.00">::dmass_dt_lai</text>
</a>
</g>
</g>
<!-- Node3&#45;&gt;Node4 -->
<g id="edge3" class="edge">
<title>Node3&#45;&gt;Node4</title>
<path fill="none" stroke="midnightblue" d="M266.97,-243C278.04,-245.85 290.04,-249.13 301,-252.5 310.9,-255.54 331.29,-262.79 351.14,-269.99"/>
<polygon fill="midnightblue" stroke="midnightblue" points="350.2,-273.37 360.8,-273.5 352.59,-266.79 350.2,-273.37"/>
</g>
<!-- Node3&#45;&gt;Node5 -->
<g id="edge4" class="edge">
<title>Node3&#45;&gt;Node5</title>
<path fill="none" stroke="midnightblue" d="M266.12,-223.96C288.12,-218.52 316.19,-211.58 341.06,-205.44"/>
<polygon fill="midnightblue" stroke="midnightblue" points="341.9,-208.83 350.77,-203.04 340.22,-202.04 341.9,-208.83"/>
</g>
<!-- Node21 -->
<g id="node21" class="node">
<title>Node21</title>
<g id="a_node21"><a xlink:href="classplant_1_1PlantArchitecture.html#a6765e3aee8ac12969e1e47aed2aea2da" target="_top" xlink:title="Set the crown LAI and properties that change with LAI.">
<polygon fill="none" stroke="black" points="337,-224.5 337,-254.5 468,-254.5 468,-224.5 337,-224.5"/>
<text text-anchor="start" x="345" y="-242.5" font-family="Helvetica,sans-Serif" font-size="10.00">plant::PlantArchitecture</text>
<text text-anchor="middle" x="402.5" y="-231.5" font-family="Helvetica,sans-Serif" font-size="10.00">::set_lai</text>
</a>
</g>
</g>
<!-- Node3&#45;&gt;Node21 -->
<g id="edge21" class="edge">
<title>Node3&#45;&gt;Node21</title>
<path fill="none" stroke="midnightblue" d="M289.83,-235.65C301.79,-236.06 314.43,-236.5 326.73,-236.92"/>
<polygon fill="midnightblue" stroke="midnightblue" points="326.85,-240.43 336.97,-237.27 327.1,-233.43 326.85,-240.43"/>
</g>
<!-- Node6 -->
<g id="node6" class="node">
<title>Node6</title>
<g id="a_node6"><a xlink:href="classplant_1_1Assimilator.html#ac0e69ab9225a2d1be337b10446cfa126" target="_top" xlink:title="Calculate whole&#45;plant gross assimilation, transpiration, gs, etc.">
<polygon fill="none" stroke="black" points="504,-322.5 504,-352.5 666,-352.5 666,-322.5 504,-322.5"/>
<text text-anchor="start" x="512" y="-340.5" font-family="Helvetica,sans-Serif" font-size="10.00">plant::Assimilator</text>
<text text-anchor="middle" x="585" y="-329.5" font-family="Helvetica,sans-Serif" font-size="10.00">::calc_plant_assimilation_rate</text>
</a>
</g>
</g>
<!-- Node5&#45;&gt;Node6 -->
<g id="edge5" class="edge">
<title>Node5&#45;&gt;Node6</title>
<path fill="none" stroke="midnightblue" d="M454.05,-205.05C459.17,-207.94 463.96,-211.39 468,-215.5 500.52,-248.6 470.21,-281.7 504,-313.5 505.27,-314.7 506.6,-315.83 507.97,-316.91"/>
<polygon fill="midnightblue" stroke="midnightblue" points="506.08,-319.86 516.34,-322.5 509.97,-314.03 506.08,-319.86"/>
</g>
<!-- Node11 -->
<g id="node11" class="node">
<title>Node11</title>
<g id="a_node11"><a xlink:href="classplant_1_1Assimilator.html#ad33549c793850f11330fd48829367c55" target="_top" xlink:title="Calculate leaf and fine&#45;root respiration rates.">
<polygon fill="none" stroke="black" points="523,-273.5 523,-303.5 647,-303.5 647,-273.5 523,-273.5"/>
<text text-anchor="start" x="531" y="-291.5" font-family="Helvetica,sans-Serif" font-size="10.00">plant::Assimilator</text>
<text text-anchor="middle" x="585" y="-280.5" font-family="Helvetica,sans-Serif" font-size="10.00">::leaf_respiration_rate</text>
</a>
</g>
</g>
<!-- Node5&#45;&gt;Node11 -->
<g id="edge10" class="edge">
<title>Node5&#45;&gt;Node11</title>
<path fill="none" stroke="midnightblue" d="M451.65,-205.59C457.44,-208.42 463.04,-211.7 468,-215.5 489.46,-231.93 481.92,-248.92 504,-264.5 507.02,-266.63 510.23,-268.58 513.57,-270.35"/>
<polygon fill="midnightblue" stroke="midnightblue" points="512.11,-273.53 522.65,-274.66 515.12,-267.21 512.11,-273.53"/>
</g>
<!-- Node12 -->
<g id="node12" class="node">
<title>Node12</title>
<g id="a_node12"><a xlink:href="classplant_1_1Assimilator.html#a0da26c8e10a188774954652ec0402e09" target="_top" xlink:title="Calculate leaf and fine&#45;root turnover rates.">
<polygon fill="none" stroke="black" points="528.5,-224.5 528.5,-254.5 641.5,-254.5 641.5,-224.5 528.5,-224.5"/>
<text text-anchor="start" x="536.5" y="-242.5" font-family="Helvetica,sans-Serif" font-size="10.00">plant::Assimilator</text>
<text text-anchor="middle" x="585" y="-231.5" font-family="Helvetica,sans-Serif" font-size="10.00">::leaf_turnover_rate</text>
</a>
</g>
</g>
<!-- Node5&#45;&gt;Node12 -->
<g id="edge11" class="edge">
<title>Node5&#45;&gt;Node12</title>
<path fill="none" stroke="midnightblue" d="M454.26,-204.28C474.24,-209.7 497.44,-216 518.65,-221.76"/>
<polygon fill="midnightblue" stroke="midnightblue" points="517.99,-225.21 528.56,-224.45 519.83,-218.45 517.99,-225.21"/>
</g>
<!-- Node14 -->
<g id="node14" class="node">
<title>Node14</title>
<g id="a_node14"><a xlink:href="classplant_1_1Assimilator.html#a07a83723c0f4cc6e98968dfb241c6ce7" target="_top" xlink:title="Leaf economics &#45; calculate optimal leaf lifespan.">
<polygon fill="none" stroke="black" points="522.5,-175.5 522.5,-205.5 647.5,-205.5 647.5,-175.5 522.5,-175.5"/>
<text text-anchor="start" x="530.5" y="-193.5" font-family="Helvetica,sans-Serif" font-size="10.00">plant::Assimilator</text>
<text text-anchor="middle" x="585" y="-182.5" font-family="Helvetica,sans-Serif" font-size="10.00">::les_update_lifespans</text>
</a>
</g>
</g>
<!-- Node5&#45;&gt;Node14 -->
<g id="edge13" class="edge">
<title>Node5&#45;&gt;Node14</title>
<path fill="none" stroke="midnightblue" d="M454.26,-190.5C472.28,-190.5 492.93,-190.5 512.37,-190.5"/>
<polygon fill="midnightblue" stroke="midnightblue" points="512.4,-194 522.4,-190.5 512.4,-187 512.4,-194"/>
</g>
<!-- Node15 -->
<g id="node15" class="node">
<title>Node15</title>
<g id="a_node15"><a xlink:href="classplant_1_1Assimilator.html#aeedad55e35be6fa1d908731a123e2c4f" target="_top" xlink:title="Calculate leaf and fine&#45;root respiration rates.">
<polygon fill="none" stroke="black" points="522.5,-126.5 522.5,-156.5 647.5,-156.5 647.5,-126.5 522.5,-126.5"/>
<text text-anchor="start" x="530.5" y="-144.5" font-family="Helvetica,sans-Serif" font-size="10.00">plant::Assimilator</text>
<text text-anchor="middle" x="585" y="-133.5" font-family="Helvetica,sans-Serif" font-size="10.00">::root_respiration_rate</text>
</a>
</g>
</g>
<!-- Node5&#45;&gt;Node15 -->
<g id="edge14" class="edge">
<title>Node5&#45;&gt;Node15</title>
<path fill="none" stroke="midnightblue" d="M454.26,-176.72C474.24,-171.3 497.44,-165 518.65,-159.24"/>
<polygon fill="midnightblue" stroke="midnightblue" points="519.83,-162.55 528.56,-156.55 517.99,-155.79 519.83,-162.55"/>
</g>
<!-- Node17 -->
<g id="node17" class="node">
<title>Node17</title>
<g id="a_node17"><a xlink:href="classplant_1_1Assimilator.html#a31ccc72fe7255233a1640d1f708eebc7" target="_top" xlink:title="Calculate leaf and fine&#45;root turnover rates.">
<polygon fill="none" stroke="black" points="528.5,-77.5 528.5,-107.5 641.5,-107.5 641.5,-77.5 528.5,-77.5"/>
<text text-anchor="start" x="536.5" y="-95.5" font-family="Helvetica,sans-Serif" font-size="10.00">plant::Assimilator</text>
<text text-anchor="middle" x="585" y="-84.5" font-family="Helvetica,sans-Serif" font-size="10.00">::root_turnover_rate</text>
</a>
</g>
</g>
<!-- Node5&#45;&gt;Node17 -->
<g id="edge16" class="edge">
<title>Node5&#45;&gt;Node17</title>
<path fill="none" stroke="midnightblue" d="M420.52,-175.44C439.65,-159.18 472.2,-133.47 504,-117.5 508.79,-115.09 513.87,-112.86 519.04,-110.8"/>
<polygon fill="midnightblue" stroke="midnightblue" points="520.28,-114.07 528.42,-107.28 517.83,-107.52 520.28,-114.07"/>
</g>
<!-- Node18 -->
<g id="node18" class="node">
<title>Node18</title>
<g id="a_node18"><a xlink:href="classplant_1_1Assimilator.html#ad1f356c7c009ad495c9e9a3994c92fd3" target="_top" xlink:title="Calculate leaf and fine&#45;root respiration rates.">
<polygon fill="none" stroke="black" points="510.5,-28.5 510.5,-58.5 659.5,-58.5 659.5,-28.5 510.5,-28.5"/>
<text text-anchor="start" x="518.5" y="-46.5" font-family="Helvetica,sans-Serif" font-size="10.00">plant::Assimilator</text>
<text text-anchor="middle" x="585" y="-35.5" font-family="Helvetica,sans-Serif" font-size="10.00">::sapwood_respiration_rate</text>
</a>
</g>
</g>
<!-- Node5&#45;&gt;Node18 -->
<g id="edge18" class="edge">
<title>Node5&#45;&gt;Node18</title>
<path fill="none" stroke="midnightblue" d="M426.75,-175.45C440.03,-166.01 456.32,-152.92 468,-138.5 490.27,-111.01 476.86,-90.2 504,-67.5 505.54,-66.21 507.15,-64.99 508.82,-63.83"/>
<polygon fill="midnightblue" stroke="midnightblue" points="510.79,-66.73 517.57,-58.58 507.19,-60.73 510.79,-66.73"/>
</g>
<!-- Node7 -->
<g id="node7" class="node">
<title>Node7</title>
<g id="a_node7"><a xlink:href="group__ppa__module.html#ga4c6834623dae9423d2981a0b28b0f155" target="_top" xlink:title="Realized crown projection area at height z.">
<polygon fill="none" stroke="black" points="702,-346.5 702,-376.5 833,-376.5 833,-346.5 702,-346.5"/>
<text text-anchor="start" x="710" y="-364.5" font-family="Helvetica,sans-Serif" font-size="10.00">plant::PlantArchitecture</text>
<text text-anchor="middle" x="767.5" y="-353.5" font-family="Helvetica,sans-Serif" font-size="10.00">::crown_area_above</text>
</a>
</g>
</g>
<!-- Node6&#45;&gt;Node7 -->
<g id="edge6" class="edge">
<title>Node6&#45;&gt;Node7</title>
<path fill="none" stroke="midnightblue" d="M666.22,-348.17C674.72,-349.3 683.34,-350.44 691.78,-351.56"/>
<polygon fill="midnightblue" stroke="midnightblue" points="691.58,-355.07 701.95,-352.92 692.5,-348.13 691.58,-355.07"/>
</g>
<!-- Node10 -->
<g id="node10" class="node">
<title>Node10</title>
<g id="a_node10"><a xlink:href="classplant_1_1Assimilator.html#a01115927f79cc407240f59af57c12d17" target="_top" xlink:title="Calculate leaf&#45;level assimilation rate using the Phydro model ///.">
<polygon fill="none" stroke="black" points="702,-297.5 702,-327.5 833,-327.5 833,-297.5 702,-297.5"/>
<text text-anchor="start" x="710" y="-315.5" font-family="Helvetica,sans-Serif" font-size="10.00">plant::Assimilator</text>
<text text-anchor="middle" x="767.5" y="-304.5" font-family="Helvetica,sans-Serif" font-size="10.00">::leaf_assimilation_rate</text>
</a>
</g>
</g>
<!-- Node6&#45;&gt;Node10 -->
<g id="edge9" class="edge">
<title>Node6&#45;&gt;Node10</title>
<path fill="none" stroke="midnightblue" d="M666.22,-326.39C674.72,-325.21 683.34,-324.02 691.78,-322.85"/>
<polygon fill="midnightblue" stroke="midnightblue" points="692.53,-326.28 701.95,-321.44 691.57,-319.35 692.53,-326.28"/>
</g>
<!-- Node8 -->
<g id="node8" class="node">
<title>Node8</title>
<g id="a_node8"><a xlink:href="classplant_1_1PlantArchitecture.html#a81452fb0a56656f176f653d3bf9650d9" target="_top" xlink:title="Vertical profiles of crown and stem">
<polygon fill="none" stroke="black" points="873.5,-371 873.5,-390 1016.5,-390 1016.5,-371 873.5,-371"/>
<text text-anchor="middle" x="945" y="-378" font-family="Helvetica,sans-Serif" font-size="10.00">plant::PlantArchitecture::q</text>
</a>
</g>
</g>
<!-- Node7&#45;&gt;Node8 -->
<g id="edge7" class="edge">
<title>Node7&#45;&gt;Node8</title>
<path fill="none" stroke="midnightblue" d="M833.35,-368.52C843.09,-369.58 853.24,-370.67 863.26,-371.76"/>
<polygon fill="midnightblue" stroke="midnightblue" points="862.9,-375.24 873.22,-372.84 863.65,-368.28 862.9,-375.24"/>
</g>
<!-- Node9 -->
<g id="node9" class="node">
<title>Node9</title>
<g id="a_node9"><a xlink:href="classplant_1_1PlantArchitecture.html#a4d571b1b0165d995f3d2ca0fe21a4b28" target="_top" xlink:title="The height at which crown radius is maximum.">
<polygon fill="none" stroke="black" points="869,-333 869,-352 1021,-352 1021,-333 869,-333"/>
<text text-anchor="middle" x="945" y="-340" font-family="Helvetica,sans-Serif" font-size="10.00">plant::PlantArchitecture::zm</text>
</a>
</g>
</g>
<!-- Node7&#45;&gt;Node9 -->
<g id="edge8" class="edge">
<title>Node7&#45;&gt;Node9</title>
<path fill="none" stroke="midnightblue" d="M833.35,-354.48C841.63,-353.58 850.21,-352.65 858.75,-351.73"/>
<polygon fill="midnightblue" stroke="midnightblue" points="859.18,-355.2 868.74,-350.65 858.42,-348.24 859.18,-355.2"/>
</g>
<!-- Node13 -->
<g id="node13" class="node">
<title>Node13</title>
<g id="a_node13"><a xlink:href="classplant_1_1PlantArchitecture.html#a36ebf17a1799f27ce12bd27f637f88a9" target="_top" xlink:title="Get biomass in various carbon pools.">
<polygon fill="none" stroke="black" points="702,-224.5 702,-254.5 833,-254.5 833,-224.5 702,-224.5"/>
<text text-anchor="start" x="710" y="-242.5" font-family="Helvetica,sans-Serif" font-size="10.00">plant::PlantArchitecture</text>
<text text-anchor="middle" x="767.5" y="-231.5" font-family="Helvetica,sans-Serif" font-size="10.00">::leaf_mass</text>
</a>
</g>
</g>
<!-- Node12&#45;&gt;Node13 -->
<g id="edge12" class="edge">
<title>Node12&#45;&gt;Node13</title>
<path fill="none" stroke="midnightblue" d="M641.63,-239.5C657.41,-239.5 674.86,-239.5 691.59,-239.5"/>
<polygon fill="midnightblue" stroke="midnightblue" points="691.89,-243 701.88,-239.5 691.88,-236 691.89,-243"/>
</g>
<!-- Node16 -->
<g id="node16" class="node">
<title>Node16</title>
<g id="a_node16"><a xlink:href="classplant_1_1PlantArchitecture.html#af767ab32b2c9aff347144ce7dff349be" target="_top" xlink:title="Get biomass in various carbon pools.">
<polygon fill="none" stroke="black" points="702,-101.5 702,-131.5 833,-131.5 833,-101.5 702,-101.5"/>
<text text-anchor="start" x="710" y="-119.5" font-family="Helvetica,sans-Serif" font-size="10.00">plant::PlantArchitecture</text>
<text text-anchor="middle" x="767.5" y="-108.5" font-family="Helvetica,sans-Serif" font-size="10.00">::root_mass</text>
</a>
</g>
</g>
<!-- Node15&#45;&gt;Node16 -->
<g id="edge15" class="edge">
<title>Node15&#45;&gt;Node16</title>
<path fill="none" stroke="midnightblue" d="M647.61,-132.97C661.8,-131 677.05,-128.89 691.73,-126.86"/>
<polygon fill="midnightblue" stroke="midnightblue" points="692.35,-130.3 701.78,-125.46 691.39,-123.37 692.35,-130.3"/>
</g>
<!-- Node17&#45;&gt;Node16 -->
<g id="edge17" class="edge">
<title>Node17&#45;&gt;Node16</title>
<path fill="none" stroke="midnightblue" d="M641.63,-99.9C657.41,-102 674.86,-104.32 691.59,-106.54"/>
<polygon fill="midnightblue" stroke="midnightblue" points="691.51,-110.06 701.88,-107.91 692.43,-103.12 691.51,-110.06"/>
</g>
<!-- Node19 -->
<g id="node19" class="node">
<title>Node19</title>
<g id="a_node19"><a xlink:href="classplant_1_1PlantArchitecture.html#a0f95752c3574b4dfadb93e92582e5fa5" target="_top" xlink:title="Get biomass in various carbon pools.">
<polygon fill="none" stroke="black" points="702,-28.5 702,-58.5 833,-58.5 833,-28.5 702,-28.5"/>
<text text-anchor="start" x="710" y="-46.5" font-family="Helvetica,sans-Serif" font-size="10.00">plant::PlantArchitecture</text>
<text text-anchor="middle" x="767.5" y="-35.5" font-family="Helvetica,sans-Serif" font-size="10.00">::sapwood_mass</text>
</a>
</g>
</g>
<!-- Node18&#45;&gt;Node19 -->
<g id="edge19" class="edge">
<title>Node18&#45;&gt;Node19</title>
<path fill="none" stroke="midnightblue" d="M659.68,-43.5C670.24,-43.5 681.12,-43.5 691.7,-43.5"/>
<polygon fill="midnightblue" stroke="midnightblue" points="691.74,-47 701.74,-43.5 691.74,-40 691.74,-47"/>
</g>
<!-- Node20 -->
<g id="node20" class="node">
<title>Node20</title>
<g id="a_node20"><a xlink:href="classplant_1_1PlantArchitecture.html#a1fea368ef9182afc3aedfb76bcc4b3ee" target="_top" xlink:title="Get biomass in various carbon pools.">
<polygon fill="none" stroke="black" points="879.5,-28.5 879.5,-58.5 1010.5,-58.5 1010.5,-28.5 879.5,-28.5"/>
<text text-anchor="start" x="887.5" y="-46.5" font-family="Helvetica,sans-Serif" font-size="10.00">plant::PlantArchitecture</text>
<text text-anchor="middle" x="945" y="-35.5" font-family="Helvetica,sans-Serif" font-size="10.00">::stem_mass</text>
</a>
</g>
</g>
<!-- Node19&#45;&gt;Node20 -->
<g id="edge20" class="edge">
<title>Node19&#45;&gt;Node20</title>
<path fill="none" stroke="midnightblue" d="M833.35,-43.5C844.98,-43.5 857.19,-43.5 869.08,-43.5"/>
<polygon fill="midnightblue" stroke="midnightblue" points="869.42,-47 879.42,-43.5 869.42,-40 869.42,-47"/>
</g>
<!-- Node24 -->
<g id="node24" class="node">
<title>Node24</title>
<g id="a_node24"><a xlink:href="classplant_1_1PlantArchitecture.html#a459c5123d878d20d25f86e64996d2c64" target="_top" xlink:title="Derivatives required for biomass partitioning">
<polygon fill="none" stroke="black" points="337,-98.5 337,-128.5 468,-128.5 468,-98.5 337,-98.5"/>
<text text-anchor="start" x="345" y="-116.5" font-family="Helvetica,sans-Serif" font-size="10.00">plant::PlantArchitecture</text>
<text text-anchor="middle" x="402.5" y="-105.5" font-family="Helvetica,sans-Serif" font-size="10.00">::dreproduction_dmass</text>
</a>
</g>
</g>
<!-- Node23&#45;&gt;Node24 -->
<g id="edge25" class="edge">
<title>Node23&#45;&gt;Node24</title>
<path fill="none" stroke="midnightblue" d="M286.41,-113.5C299.37,-113.5 313.27,-113.5 326.76,-113.5"/>
<polygon fill="midnightblue" stroke="midnightblue" points="326.98,-117 336.98,-113.5 326.98,-110 326.98,-117"/>
</g>
<!-- Node26 -->
<g id="node26" class="node">
<title>Node26</title>
<g id="a_node26"><a xlink:href="classplant_1_1PlantArchitecture.html#acdc3841d5f648fabc0202e04e2bfb8a3" target="_top" xlink:title="Derivatives required for biomass partitioning">
<polygon fill="none" stroke="black" points="337,-49.5 337,-79.5 468,-79.5 468,-49.5 337,-49.5"/>
<text text-anchor="start" x="345" y="-67.5" font-family="Helvetica,sans-Serif" font-size="10.00">plant::PlantArchitecture</text>
<text text-anchor="middle" x="402.5" y="-56.5" font-family="Helvetica,sans-Serif" font-size="10.00">::dsize_dmass</text>
</a>
</g>
</g>
<!-- Node25&#45;&gt;Node26 -->
<g id="edge27" class="edge">
<title>Node25&#45;&gt;Node26</title>
<path fill="none" stroke="midnightblue" d="M275.51,-64.5C291.32,-64.5 309.29,-64.5 326.61,-64.5"/>
<polygon fill="midnightblue" stroke="midnightblue" points="326.71,-68 336.71,-64.5 326.71,-61 326.71,-68"/>
</g>
<!-- Node27 -->
<g id="node27" class="node">
<title>Node27</title>
<g id="a_node27"><a xlink:href="classplant_1_1PlantArchitecture.html#a4ee1ef386497f18eb1f7d2ef2db3cff3" target="_top" xlink:title=" ">
<polygon fill="none" stroke="black" points="337,-0.5 337,-30.5 468,-30.5 468,-0.5 337,-0.5"/>
<text text-anchor="start" x="345" y="-18.5" font-family="Helvetica,sans-Serif" font-size="10.00">plant::PlantArchitecture</text>
<text text-anchor="middle" x="402.5" y="-7.5" font-family="Helvetica,sans-Serif" font-size="10.00">::get_size</text>
</a>
</g>
</g>
<!-- Node25&#45;&gt;Node27 -->
<g id="edge28" class="edge">
<title>Node25&#45;&gt;Node27</title>
<path fill="none" stroke="midnightblue" d="M275.51,-50.98C294.96,-45.5 317.69,-39.1 338.45,-33.26"/>
<polygon fill="midnightblue" stroke="midnightblue" points="339.46,-36.61 348.14,-30.53 337.57,-29.87 339.46,-36.61"/>
</g>
</g>
</svg>
