<?xml version="1.0" encoding="UTF-8" standalone="no"?>
<!DOCTYPE svg PUBLIC "-//W3C//DTD SVG 1.1//EN"
 "http://www.w3.org/Graphics/SVG/1.1/DTD/svg11.dtd">
<!-- Generated by graphviz version 2.43.0 (0)
 -->
<!-- Title: plant::Plant::size_growth_rate Pages: 1 -->
<svg width="273pt" height="88pt"
 viewBox="0.00 0.00 273.00 88.00" xmlns="http://www.w3.org/2000/svg" xmlns:xlink="http://www.w3.org/1999/xlink">
<g id="graph0" class="graph" transform="scale(1 1) rotate(0) translate(4 84)">
<title>plant::Plant::size_growth_rate</title>
<!-- Node1 -->
<g id="node1" class="node">
<title>Node1</title>
<g id="a_node1"><a xlink:title=" ">
<polygon fill="#bfbfbf" stroke="black" points="0,-24.5 0,-54.5 98,-54.5 98,-24.5 0,-24.5"/>
<text text-anchor="start" x="8" y="-42.5" font-family="Helvetica,sans-Serif" font-size="10.00">plant::Plant::size</text>
<text text-anchor="middle" x="49" y="-31.5" font-family="Helvetica,sans-Serif" font-size="10.00">_growth_rate</text>
</a>
</g>
</g>
<!-- Node2 -->
<g id="node2" class="node">
<title>Node2</title>
<g id="a_node2"><a xlink:href="classplant_1_1PlantArchitecture.html#acdc3841d5f648fabc0202e04e2bfb8a3" target="_top" xlink:title="Derivatives required for biomass partitioning">
<polygon fill="none" stroke="black" points="134,-49.5 134,-79.5 265,-79.5 265,-49.5 134,-49.5"/>
<text text-anchor="start" x="142" y="-67.5" font-family="Helvetica,sans-Serif" font-size="10.00">plant::PlantArchitecture</text>
<text text-anchor="middle" x="199.5" y="-56.5" font-family="Helvetica,sans-Serif" font-size="10.00">::dsize_dmass</text>
</a>
</g>
</g>
<!-- Node1&#45;&gt;Node2 -->
<g id="edge1" class="edge">
<title>Node1&#45;&gt;Node2</title>
<path fill="none" stroke="midnightblue" d="M98.21,-47.62C106.37,-48.99 115.01,-50.44 123.65,-51.9"/>
<polygon fill="midnightblue" stroke="midnightblue" points="123.34,-55.4 133.78,-53.6 124.5,-48.49 123.34,-55.4"/>
</g>
<!-- Node3 -->
<g id="node3" class="node">
<title>Node3</title>
<g id="a_node3"><a xlink:href="classplant_1_1PlantArchitecture.html#a4ee1ef386497f18eb1f7d2ef2db3cff3" target="_top" xlink:title=" ">
<polygon fill="none" stroke="black" points="134,-0.5 134,-30.5 265,-30.5 265,-0.5 134,-0.5"/>
<text text-anchor="start" x="142" y="-18.5" font-family="Helvetica,sans-Serif" font-size="10.00">plant::PlantArchitecture</text>
<text text-anchor="middle" x="199.5" y="-7.5" font-family="Helvetica,sans-Serif" font-size="10.00">::get_size</text>
</a>
</g>
</g>
<!-- Node1&#45;&gt;Node3 -->
<g id="edge2" class="edge">
<title>Node1&#45;&gt;Node3</title>
<path fill="none" stroke="midnightblue" d="M98.21,-31.71C106.37,-30.39 115.01,-28.99 123.65,-27.6"/>
<polygon fill="midnightblue" stroke="midnightblue" points="124.47,-31.01 133.78,-25.96 123.35,-24.1 124.47,-31.01"/>
</g>
</g>
</svg>
