<?xml version="1.0" encoding="UTF-8" standalone="no"?>
<!DOCTYPE svg PUBLIC "-//W3C//DTD SVG 1.1//EN"
 "http://www.w3.org/Graphics/SVG/1.1/DTD/svg11.dtd">
<!-- Generated by graphviz version 2.43.0 (0)
 -->
<!-- Title: pfate::Patch::calc_seedrain_r0 Pages: 1 -->
<svg width="424pt" height="116pt"
 viewBox="0.00 0.00 424.00 115.50" xmlns="http://www.w3.org/2000/svg" xmlns:xlink="http://www.w3.org/1999/xlink">
<g id="graph0" class="graph" transform="scale(1 1) rotate(0) translate(4 111.5)">
<title>pfate::Patch::calc_seedrain_r0</title>
<!-- Node1 -->
<g id="node1" class="node">
<title>Node1</title>
<g id="a_node1"><a xlink:title="Calculate growth rates of all species and update seed input.">
<polygon fill="#bfbfbf" stroke="black" points="0,-33 0,-63 101,-63 101,-33 0,-33"/>
<text text-anchor="start" x="8" y="-51" font-family="Helvetica,sans-Serif" font-size="10.00">pfate::Patch::calc</text>
<text text-anchor="middle" x="50.5" y="-40" font-family="Helvetica,sans-Serif" font-size="10.00">_seedrain_r0</text>
</a>
</g>
</g>
<!-- Node2 -->
<g id="node2" class="node">
<title>Node2</title>
<g id="a_node2"><a xlink:href="classMovingAverager.html#a10228b285298b40e5fd3056dc943302e" target="_top" xlink:title=" ">
<polygon fill="none" stroke="black" points="140.5,-77 140.5,-107 258.5,-107 258.5,-77 140.5,-77"/>
<text text-anchor="start" x="148.5" y="-95" font-family="Helvetica,sans-Serif" font-size="10.00">MovingAverager::get</text>
<text text-anchor="middle" x="199.5" y="-84" font-family="Helvetica,sans-Serif" font-size="10.00">_last_t</text>
</a>
</g>
</g>
<!-- Node1&#45;&gt;Node2 -->
<g id="edge1" class="edge">
<title>Node1&#45;&gt;Node2</title>
<path fill="none" stroke="midnightblue" d="M101.27,-62.9C113.23,-66.48 126.13,-70.34 138.5,-74.04"/>
<polygon fill="midnightblue" stroke="midnightblue" points="137.7,-77.45 148.28,-76.97 139.71,-70.75 137.7,-77.45"/>
</g>
<!-- Node3 -->
<g id="node3" class="node">
<title>Node3</title>
<g id="a_node3"><a xlink:href="classMovingAverager.html#ad597933657a823696ab02aad3442c38a" target="_top" xlink:title=" ">
<polygon fill="none" stroke="black" points="137,-38.5 137,-57.5 262,-57.5 262,-38.5 137,-38.5"/>
<text text-anchor="middle" x="199.5" y="-45.5" font-family="Helvetica,sans-Serif" font-size="10.00">MovingAverager::print</text>
</a>
</g>
</g>
<!-- Node1&#45;&gt;Node3 -->
<g id="edge2" class="edge">
<title>Node1&#45;&gt;Node3</title>
<path fill="none" stroke="midnightblue" d="M101.27,-48C109.47,-48 118.11,-48 126.72,-48"/>
<polygon fill="midnightblue" stroke="midnightblue" points="126.79,-51.5 136.79,-48 126.79,-44.5 126.79,-51.5"/>
</g>
<!-- Node5 -->
<g id="node5" class="node">
<title>Node5</title>
<g id="a_node5"><a xlink:href="classMovingAverager.html#a01b3f4dcb3098d698c92f1131adf0101" target="_top" xlink:title=" ">
<polygon fill="none" stroke="black" points="137,-0.5 137,-19.5 262,-19.5 262,-0.5 137,-0.5"/>
<text text-anchor="middle" x="199.5" y="-7.5" font-family="Helvetica,sans-Serif" font-size="10.00">MovingAverager::push</text>
</a>
</g>
</g>
<!-- Node1&#45;&gt;Node5 -->
<g id="edge4" class="edge">
<title>Node1&#45;&gt;Node5</title>
<path fill="none" stroke="midnightblue" d="M101.27,-35.13C117.55,-30.93 135.56,-26.27 151.62,-22.12"/>
<polygon fill="midnightblue" stroke="midnightblue" points="152.53,-25.5 161.33,-19.61 150.78,-18.72 152.53,-25.5"/>
</g>
<!-- Node4 -->
<g id="node4" class="node">
<title>Node4</title>
<g id="a_node4"><a xlink:href="classMovingAverager.html#af58bda5dfddd7f6721b87323c49cb318" target="_top" xlink:title=" ">
<polygon fill="none" stroke="black" points="298,-38.5 298,-57.5 416,-57.5 416,-38.5 298,-38.5"/>
<text text-anchor="middle" x="357" y="-45.5" font-family="Helvetica,sans-Serif" font-size="10.00">MovingAverager::get</text>
</a>
</g>
</g>
<!-- Node3&#45;&gt;Node4 -->
<g id="edge3" class="edge">
<title>Node3&#45;&gt;Node4</title>
<path fill="none" stroke="midnightblue" d="M262.4,-48C270.71,-48 279.28,-48 287.69,-48"/>
<polygon fill="midnightblue" stroke="midnightblue" points="287.85,-51.5 297.85,-48 287.85,-44.5 287.85,-51.5"/>
</g>
</g>
</svg>
