<?xml version="1.0" encoding="UTF-8" standalone="no"?>
<!DOCTYPE svg PUBLIC "-//W3C//DTD SVG 1.1//EN"
 "http://www.w3.org/Graphics/SVG/1.1/DTD/svg11.dtd">
<!-- Generated by graphviz version 2.43.0 (0)
 -->
<!-- Title: pfate::PSPM_Plant::establishmentProbability Pages: 1 -->
<svg width="1003pt" height="371pt"
 viewBox="0.00 0.00 1003.00 370.50" xmlns="http://www.w3.org/2000/svg" xmlns:xlink="http://www.w3.org/1999/xlink">
<g id="graph0" class="graph" transform="scale(1 1) rotate(0) translate(4 366.5)">
<title>pfate::PSPM_Plant::establishmentProbability</title>
<!-- Node1 -->
<g id="node1" class="node">
<title>Node1</title>
<g id="a_node1"><a xlink:title=" ">
<polygon fill="#bfbfbf" stroke="black" points="0,-171.5 0,-201.5 139,-201.5 139,-171.5 0,-171.5"/>
<text text-anchor="start" x="8" y="-189.5" font-family="Helvetica,sans-Serif" font-size="10.00">pfate::PSPM_Plant::</text>
<text text-anchor="middle" x="69.5" y="-178.5" font-family="Helvetica,sans-Serif" font-size="10.00">establishmentProbability</text>
</a>
</g>
</g>
<!-- Node2 -->
<g id="node2" class="node">
<title>Node2</title>
<g id="a_node2"><a xlink:href="classplant_1_1Plant.html#a7a9395b79102cb623073ac8540f0f5ea" target="_top" xlink:title="Probability of survival during dispersal.">
<polygon fill="none" stroke="black" points="175,-196.5 175,-226.5 303,-226.5 303,-196.5 175,-196.5"/>
<text text-anchor="start" x="183" y="-214.5" font-family="Helvetica,sans-Serif" font-size="10.00">plant::Plant::p_survival</text>
<text text-anchor="middle" x="239" y="-203.5" font-family="Helvetica,sans-Serif" font-size="10.00">_dispersal</text>
</a>
</g>
</g>
<!-- Node1&#45;&gt;Node2 -->
<g id="edge1" class="edge">
<title>Node1&#45;&gt;Node2</title>
<path fill="none" stroke="midnightblue" d="M139.11,-196.74C147.62,-198.01 156.34,-199.31 164.91,-200.59"/>
<polygon fill="midnightblue" stroke="midnightblue" points="164.47,-204.06 174.88,-202.08 165.51,-197.14 164.47,-204.06"/>
</g>
<!-- Node3 -->
<g id="node3" class="node">
<title>Node3</title>
<g id="a_node3"><a xlink:href="classplant_1_1Plant.html#a03c45eaaabce7ff0287598818dc4847f" target="_top" xlink:title="Probability of survival during germination (i.e. until recruitment stage)">
<polygon fill="none" stroke="black" points="175,-147.5 175,-177.5 303,-177.5 303,-147.5 175,-147.5"/>
<text text-anchor="start" x="183" y="-165.5" font-family="Helvetica,sans-Serif" font-size="10.00">plant::Plant::p_survival</text>
<text text-anchor="middle" x="239" y="-154.5" font-family="Helvetica,sans-Serif" font-size="10.00">_germination</text>
</a>
</g>
</g>
<!-- Node1&#45;&gt;Node3 -->
<g id="edge2" class="edge">
<title>Node1&#45;&gt;Node3</title>
<path fill="none" stroke="midnightblue" d="M139.11,-176.67C147.62,-175.45 156.34,-174.2 164.91,-172.97"/>
<polygon fill="midnightblue" stroke="midnightblue" points="165.48,-176.43 174.88,-171.54 164.49,-169.5 165.48,-176.43"/>
</g>
<!-- Node4 -->
<g id="node4" class="node">
<title>Node4</title>
<g id="a_node4"><a xlink:href="classplant_1_1Assimilator.html#ade28356f5c19a8033b3781308f21202a" target="_top" xlink:title="Calculate whole&#45;plant net assimilation.">
<polygon fill="none" stroke="black" points="339,-147.5 339,-177.5 442,-177.5 442,-147.5 339,-147.5"/>
<text text-anchor="start" x="347" y="-165.5" font-family="Helvetica,sans-Serif" font-size="10.00">plant::Assimilator</text>
<text text-anchor="middle" x="390.5" y="-154.5" font-family="Helvetica,sans-Serif" font-size="10.00">::net_production</text>
</a>
</g>
</g>
<!-- Node3&#45;&gt;Node4 -->
<g id="edge3" class="edge">
<title>Node3&#45;&gt;Node4</title>
<path fill="none" stroke="midnightblue" d="M303.4,-162.5C311.78,-162.5 320.34,-162.5 328.67,-162.5"/>
<polygon fill="midnightblue" stroke="midnightblue" points="328.68,-166 338.68,-162.5 328.68,-159 328.68,-166"/>
</g>
<!-- Node5 -->
<g id="node5" class="node">
<title>Node5</title>
<g id="a_node5"><a xlink:href="classplant_1_1Assimilator.html#ac0e69ab9225a2d1be337b10446cfa126" target="_top" xlink:title="Calculate whole&#45;plant gross assimilation, transpiration, gs, etc.">
<polygon fill="none" stroke="black" points="478,-294.5 478,-324.5 640,-324.5 640,-294.5 478,-294.5"/>
<text text-anchor="start" x="486" y="-312.5" font-family="Helvetica,sans-Serif" font-size="10.00">plant::Assimilator</text>
<text text-anchor="middle" x="559" y="-301.5" font-family="Helvetica,sans-Serif" font-size="10.00">::calc_plant_assimilation_rate</text>
</a>
</g>
</g>
<!-- Node4&#45;&gt;Node5 -->
<g id="edge4" class="edge">
<title>Node4&#45;&gt;Node5</title>
<path fill="none" stroke="midnightblue" d="M398.14,-177.85C410.2,-203.92 438.19,-256.8 478,-285.5 480.06,-286.98 482.21,-288.38 484.43,-289.69"/>
<polygon fill="midnightblue" stroke="midnightblue" points="482.81,-292.79 493.3,-294.32 486.06,-286.59 482.81,-292.79"/>
</g>
<!-- Node10 -->
<g id="node10" class="node">
<title>Node10</title>
<g id="a_node10"><a xlink:href="classplant_1_1Assimilator.html#ad33549c793850f11330fd48829367c55" target="_top" xlink:title="Calculate leaf and fine&#45;root respiration rates.">
<polygon fill="none" stroke="black" points="497,-245.5 497,-275.5 621,-275.5 621,-245.5 497,-245.5"/>
<text text-anchor="start" x="505" y="-263.5" font-family="Helvetica,sans-Serif" font-size="10.00">plant::Assimilator</text>
<text text-anchor="middle" x="559" y="-252.5" font-family="Helvetica,sans-Serif" font-size="10.00">::leaf_respiration_rate</text>
</a>
</g>
</g>
<!-- Node4&#45;&gt;Node10 -->
<g id="edge9" class="edge">
<title>Node4&#45;&gt;Node10</title>
<path fill="none" stroke="midnightblue" d="M405.38,-177.68C421.38,-194.34 449.2,-220.78 478,-236.5 481.31,-238.31 484.78,-240 488.33,-241.57"/>
<polygon fill="midnightblue" stroke="midnightblue" points="487.32,-244.94 497.9,-245.48 489.97,-238.46 487.32,-244.94"/>
</g>
<!-- Node11 -->
<g id="node11" class="node">
<title>Node11</title>
<g id="a_node11"><a xlink:href="classplant_1_1Assimilator.html#a0da26c8e10a188774954652ec0402e09" target="_top" xlink:title="Calculate leaf and fine&#45;root turnover rates.">
<polygon fill="none" stroke="black" points="502.5,-196.5 502.5,-226.5 615.5,-226.5 615.5,-196.5 502.5,-196.5"/>
<text text-anchor="start" x="510.5" y="-214.5" font-family="Helvetica,sans-Serif" font-size="10.00">plant::Assimilator</text>
<text text-anchor="middle" x="559" y="-203.5" font-family="Helvetica,sans-Serif" font-size="10.00">::leaf_turnover_rate</text>
</a>
</g>
</g>
<!-- Node4&#45;&gt;Node11 -->
<g id="edge10" class="edge">
<title>Node4&#45;&gt;Node11</title>
<path fill="none" stroke="midnightblue" d="M442.36,-177.47C459.63,-182.55 479.1,-188.28 497.07,-193.57"/>
<polygon fill="midnightblue" stroke="midnightblue" points="496.3,-196.99 506.88,-196.45 498.27,-190.27 496.3,-196.99"/>
</g>
<!-- Node13 -->
<g id="node13" class="node">
<title>Node13</title>
<g id="a_node13"><a xlink:href="classplant_1_1Assimilator.html#a07a83723c0f4cc6e98968dfb241c6ce7" target="_top" xlink:title="Leaf economics &#45; calculate optimal leaf lifespan.">
<polygon fill="none" stroke="black" points="496.5,-147.5 496.5,-177.5 621.5,-177.5 621.5,-147.5 496.5,-147.5"/>
<text text-anchor="start" x="504.5" y="-165.5" font-family="Helvetica,sans-Serif" font-size="10.00">plant::Assimilator</text>
<text text-anchor="middle" x="559" y="-154.5" font-family="Helvetica,sans-Serif" font-size="10.00">::les_update_lifespans</text>
</a>
</g>
</g>
<!-- Node4&#45;&gt;Node13 -->
<g id="edge12" class="edge">
<title>Node4&#45;&gt;Node13</title>
<path fill="none" stroke="midnightblue" d="M442.36,-162.5C456.19,-162.5 471.44,-162.5 486.19,-162.5"/>
<polygon fill="midnightblue" stroke="midnightblue" points="486.3,-166 496.3,-162.5 486.3,-159 486.3,-166"/>
</g>
<!-- Node14 -->
<g id="node14" class="node">
<title>Node14</title>
<g id="a_node14"><a xlink:href="classplant_1_1Assimilator.html#aeedad55e35be6fa1d908731a123e2c4f" target="_top" xlink:title="Calculate leaf and fine&#45;root respiration rates.">
<polygon fill="none" stroke="black" points="496.5,-98.5 496.5,-128.5 621.5,-128.5 621.5,-98.5 496.5,-98.5"/>
<text text-anchor="start" x="504.5" y="-116.5" font-family="Helvetica,sans-Serif" font-size="10.00">plant::Assimilator</text>
<text text-anchor="middle" x="559" y="-105.5" font-family="Helvetica,sans-Serif" font-size="10.00">::root_respiration_rate</text>
</a>
</g>
</g>
<!-- Node4&#45;&gt;Node14 -->
<g id="edge13" class="edge">
<title>Node4&#45;&gt;Node14</title>
<path fill="none" stroke="midnightblue" d="M442.36,-147.53C459.63,-142.45 479.1,-136.72 497.07,-131.43"/>
<polygon fill="midnightblue" stroke="midnightblue" points="498.27,-134.73 506.88,-128.55 496.3,-128.01 498.27,-134.73"/>
</g>
<!-- Node16 -->
<g id="node16" class="node">
<title>Node16</title>
<g id="a_node16"><a xlink:href="classplant_1_1Assimilator.html#a31ccc72fe7255233a1640d1f708eebc7" target="_top" xlink:title="Calculate leaf and fine&#45;root turnover rates.">
<polygon fill="none" stroke="black" points="502.5,-49.5 502.5,-79.5 615.5,-79.5 615.5,-49.5 502.5,-49.5"/>
<text text-anchor="start" x="510.5" y="-67.5" font-family="Helvetica,sans-Serif" font-size="10.00">plant::Assimilator</text>
<text text-anchor="middle" x="559" y="-56.5" font-family="Helvetica,sans-Serif" font-size="10.00">::root_turnover_rate</text>
</a>
</g>
</g>
<!-- Node4&#45;&gt;Node16 -->
<g id="edge15" class="edge">
<title>Node4&#45;&gt;Node16</title>
<path fill="none" stroke="midnightblue" d="M405.74,-147.3C421.86,-130.92 449.58,-105.1 478,-89.5 482.7,-86.92 487.71,-84.56 492.84,-82.42"/>
<polygon fill="midnightblue" stroke="midnightblue" points="494.11,-85.68 502.16,-78.79 491.57,-79.16 494.11,-85.68"/>
</g>
<!-- Node17 -->
<g id="node17" class="node">
<title>Node17</title>
<g id="a_node17"><a xlink:href="classplant_1_1Assimilator.html#ad1f356c7c009ad495c9e9a3994c92fd3" target="_top" xlink:title="Calculate leaf and fine&#45;root respiration rates.">
<polygon fill="none" stroke="black" points="484.5,-0.5 484.5,-30.5 633.5,-30.5 633.5,-0.5 484.5,-0.5"/>
<text text-anchor="start" x="492.5" y="-18.5" font-family="Helvetica,sans-Serif" font-size="10.00">plant::Assimilator</text>
<text text-anchor="middle" x="559" y="-7.5" font-family="Helvetica,sans-Serif" font-size="10.00">::sapwood_respiration_rate</text>
</a>
</g>
</g>
<!-- Node4&#45;&gt;Node17 -->
<g id="edge17" class="edge">
<title>Node4&#45;&gt;Node17</title>
<path fill="none" stroke="midnightblue" d="M398.14,-147.15C410.2,-121.08 438.19,-68.2 478,-39.5 480.06,-38.02 482.21,-36.62 484.43,-35.31"/>
<polygon fill="midnightblue" stroke="midnightblue" points="486.06,-38.41 493.3,-30.68 482.81,-32.21 486.06,-38.41"/>
</g>
<!-- Node6 -->
<g id="node6" class="node">
<title>Node6</title>
<g id="a_node6"><a xlink:href="group__ppa__module.html#ga4c6834623dae9423d2981a0b28b0f155" target="_top" xlink:title="Realized crown projection area at height z.">
<polygon fill="none" stroke="black" points="676,-318.5 676,-348.5 807,-348.5 807,-318.5 676,-318.5"/>
<text text-anchor="start" x="684" y="-336.5" font-family="Helvetica,sans-Serif" font-size="10.00">plant::PlantArchitecture</text>
<text text-anchor="middle" x="741.5" y="-325.5" font-family="Helvetica,sans-Serif" font-size="10.00">::crown_area_above</text>
</a>
</g>
</g>
<!-- Node5&#45;&gt;Node6 -->
<g id="edge5" class="edge">
<title>Node5&#45;&gt;Node6</title>
<path fill="none" stroke="midnightblue" d="M640.22,-320.17C648.72,-321.3 657.34,-322.44 665.78,-323.56"/>
<polygon fill="midnightblue" stroke="midnightblue" points="665.58,-327.07 675.95,-324.92 666.5,-320.13 665.58,-327.07"/>
</g>
<!-- Node9 -->
<g id="node9" class="node">
<title>Node9</title>
<g id="a_node9"><a xlink:href="classplant_1_1Assimilator.html#a01115927f79cc407240f59af57c12d17" target="_top" xlink:title="Calculate leaf&#45;level assimilation rate using the Phydro model ///.">
<polygon fill="none" stroke="black" points="676,-269.5 676,-299.5 807,-299.5 807,-269.5 676,-269.5"/>
<text text-anchor="start" x="684" y="-287.5" font-family="Helvetica,sans-Serif" font-size="10.00">plant::Assimilator</text>
<text text-anchor="middle" x="741.5" y="-276.5" font-family="Helvetica,sans-Serif" font-size="10.00">::leaf_assimilation_rate</text>
</a>
</g>
</g>
<!-- Node5&#45;&gt;Node9 -->
<g id="edge8" class="edge">
<title>Node5&#45;&gt;Node9</title>
<path fill="none" stroke="midnightblue" d="M640.22,-298.39C648.72,-297.21 657.34,-296.02 665.78,-294.85"/>
<polygon fill="midnightblue" stroke="midnightblue" points="666.53,-298.28 675.95,-293.44 665.57,-291.35 666.53,-298.28"/>
</g>
<!-- Node7 -->
<g id="node7" class="node">
<title>Node7</title>
<g id="a_node7"><a xlink:href="classplant_1_1PlantArchitecture.html#a81452fb0a56656f176f653d3bf9650d9" target="_top" xlink:title="Vertical profiles of crown and stem">
<polygon fill="none" stroke="black" points="847.5,-343 847.5,-362 990.5,-362 990.5,-343 847.5,-343"/>
<text text-anchor="middle" x="919" y="-350" font-family="Helvetica,sans-Serif" font-size="10.00">plant::PlantArchitecture::q</text>
</a>
</g>
</g>
<!-- Node6&#45;&gt;Node7 -->
<g id="edge6" class="edge">
<title>Node6&#45;&gt;Node7</title>
<path fill="none" stroke="midnightblue" d="M807.35,-340.52C817.09,-341.58 827.24,-342.67 837.26,-343.76"/>
<polygon fill="midnightblue" stroke="midnightblue" points="836.9,-347.24 847.22,-344.84 837.65,-340.28 836.9,-347.24"/>
</g>
<!-- Node8 -->
<g id="node8" class="node">
<title>Node8</title>
<g id="a_node8"><a xlink:href="classplant_1_1PlantArchitecture.html#a4d571b1b0165d995f3d2ca0fe21a4b28" target="_top" xlink:title="The height at which crown radius is maximum.">
<polygon fill="none" stroke="black" points="843,-305 843,-324 995,-324 995,-305 843,-305"/>
<text text-anchor="middle" x="919" y="-312" font-family="Helvetica,sans-Serif" font-size="10.00">plant::PlantArchitecture::zm</text>
</a>
</g>
</g>
<!-- Node6&#45;&gt;Node8 -->
<g id="edge7" class="edge">
<title>Node6&#45;&gt;Node8</title>
<path fill="none" stroke="midnightblue" d="M807.35,-326.48C815.63,-325.58 824.21,-324.65 832.75,-323.73"/>
<polygon fill="midnightblue" stroke="midnightblue" points="833.18,-327.2 842.74,-322.65 832.42,-320.24 833.18,-327.2"/>
</g>
<!-- Node12 -->
<g id="node12" class="node">
<title>Node12</title>
<g id="a_node12"><a xlink:href="classplant_1_1PlantArchitecture.html#a36ebf17a1799f27ce12bd27f637f88a9" target="_top" xlink:title="Get biomass in various carbon pools.">
<polygon fill="none" stroke="black" points="676,-196.5 676,-226.5 807,-226.5 807,-196.5 676,-196.5"/>
<text text-anchor="start" x="684" y="-214.5" font-family="Helvetica,sans-Serif" font-size="10.00">plant::PlantArchitecture</text>
<text text-anchor="middle" x="741.5" y="-203.5" font-family="Helvetica,sans-Serif" font-size="10.00">::leaf_mass</text>
</a>
</g>
</g>
<!-- Node11&#45;&gt;Node12 -->
<g id="edge11" class="edge">
<title>Node11&#45;&gt;Node12</title>
<path fill="none" stroke="midnightblue" d="M615.63,-211.5C631.41,-211.5 648.86,-211.5 665.59,-211.5"/>
<polygon fill="midnightblue" stroke="midnightblue" points="665.89,-215 675.88,-211.5 665.88,-208 665.89,-215"/>
</g>
<!-- Node15 -->
<g id="node15" class="node">
<title>Node15</title>
<g id="a_node15"><a xlink:href="classplant_1_1PlantArchitecture.html#af767ab32b2c9aff347144ce7dff349be" target="_top" xlink:title="Get biomass in various carbon pools.">
<polygon fill="none" stroke="black" points="676,-73.5 676,-103.5 807,-103.5 807,-73.5 676,-73.5"/>
<text text-anchor="start" x="684" y="-91.5" font-family="Helvetica,sans-Serif" font-size="10.00">plant::PlantArchitecture</text>
<text text-anchor="middle" x="741.5" y="-80.5" font-family="Helvetica,sans-Serif" font-size="10.00">::root_mass</text>
</a>
</g>
</g>
<!-- Node14&#45;&gt;Node15 -->
<g id="edge14" class="edge">
<title>Node14&#45;&gt;Node15</title>
<path fill="none" stroke="midnightblue" d="M621.61,-104.97C635.8,-103 651.05,-100.89 665.73,-98.86"/>
<polygon fill="midnightblue" stroke="midnightblue" points="666.35,-102.3 675.78,-97.46 665.39,-95.37 666.35,-102.3"/>
</g>
<!-- Node16&#45;&gt;Node15 -->
<g id="edge16" class="edge">
<title>Node16&#45;&gt;Node15</title>
<path fill="none" stroke="midnightblue" d="M615.63,-71.9C631.41,-74 648.86,-76.32 665.59,-78.54"/>
<polygon fill="midnightblue" stroke="midnightblue" points="665.51,-82.06 675.88,-79.91 666.43,-75.12 665.51,-82.06"/>
</g>
<!-- Node18 -->
<g id="node18" class="node">
<title>Node18</title>
<g id="a_node18"><a xlink:href="classplant_1_1PlantArchitecture.html#a0f95752c3574b4dfadb93e92582e5fa5" target="_top" xlink:title="Get biomass in various carbon pools.">
<polygon fill="none" stroke="black" points="676,-0.5 676,-30.5 807,-30.5 807,-0.5 676,-0.5"/>
<text text-anchor="start" x="684" y="-18.5" font-family="Helvetica,sans-Serif" font-size="10.00">plant::PlantArchitecture</text>
<text text-anchor="middle" x="741.5" y="-7.5" font-family="Helvetica,sans-Serif" font-size="10.00">::sapwood_mass</text>
</a>
</g>
</g>
<!-- Node17&#45;&gt;Node18 -->
<g id="edge18" class="edge">
<title>Node17&#45;&gt;Node18</title>
<path fill="none" stroke="midnightblue" d="M633.68,-15.5C644.24,-15.5 655.12,-15.5 665.7,-15.5"/>
<polygon fill="midnightblue" stroke="midnightblue" points="665.74,-19 675.74,-15.5 665.74,-12 665.74,-19"/>
</g>
<!-- Node19 -->
<g id="node19" class="node">
<title>Node19</title>
<g id="a_node19"><a xlink:href="classplant_1_1PlantArchitecture.html#a1fea368ef9182afc3aedfb76bcc4b3ee" target="_top" xlink:title="Get biomass in various carbon pools.">
<polygon fill="none" stroke="black" points="853.5,-0.5 853.5,-30.5 984.5,-30.5 984.5,-0.5 853.5,-0.5"/>
<text text-anchor="start" x="861.5" y="-18.5" font-family="Helvetica,sans-Serif" font-size="10.00">plant::PlantArchitecture</text>
<text text-anchor="middle" x="919" y="-7.5" font-family="Helvetica,sans-Serif" font-size="10.00">::stem_mass</text>
</a>
</g>
</g>
<!-- Node18&#45;&gt;Node19 -->
<g id="edge19" class="edge">
<title>Node18&#45;&gt;Node19</title>
<path fill="none" stroke="midnightblue" d="M807.35,-15.5C818.98,-15.5 831.19,-15.5 843.08,-15.5"/>
<polygon fill="midnightblue" stroke="midnightblue" points="843.42,-19 853.42,-15.5 843.42,-12 843.42,-19"/>
</g>
</g>
</svg>
