<?xml version="1.0" encoding="UTF-8" standalone="no"?>
<!DOCTYPE svg PUBLIC "-//W3C//DTD SVG 1.1//EN"
 "http://www.w3.org/Graphics/SVG/1.1/DTD/svg11.dtd">
<!-- Generated by graphviz version 2.43.0 (0)
 -->
<!-- Title: Graphical Class Hierarchy Pages: 1 -->
<svg width="487pt" height="104pt"
 viewBox="0.00 0.00 487.00 104.00" xmlns="http://www.w3.org/2000/svg" xmlns:xlink="http://www.w3.org/1999/xlink">
<g id="graph0" class="graph" transform="scale(1 1) rotate(0) translate(4 100)">
<title>Graphical Class Hierarchy</title>
<!-- Node0 -->
<g id="node1" class="node">
<title>Node0</title>
<g id="a_node1"><a xlink:href="classpfate_1_1env_1_1Climate.html" target="_top" xlink:title=" ">
<polygon fill="none" stroke="black" points="163,-76.5 163,-95.5 273,-95.5 273,-76.5 163,-76.5"/>
<text text-anchor="middle" x="218" y="-83.5" font-family="Helvetica,sans-Serif" font-size="10.00">pfate::env::Climate</text>
</a>
</g>
</g>
<!-- Node1 -->
<g id="node2" class="node">
<title>Node1</title>
<g id="a_node2"><a xlink:href="classpfate_1_1ErgodicEnvironment.html" target="_top" xlink:title=" ">
<polygon fill="none" stroke="black" points="333,-76.5 333,-95.5 479,-95.5 479,-76.5 333,-76.5"/>
<text text-anchor="middle" x="406" y="-83.5" font-family="Helvetica,sans-Serif" font-size="10.00">pfate::ErgodicEnvironment</text>
</a>
</g>
</g>
<!-- Node0&#45;&gt;Node1 -->
<g id="edge1" class="edge">
<title>Node0&#45;&gt;Node1</title>
<path fill="none" stroke="midnightblue" d="M283.33,-86C299.29,-86 316.5,-86 332.81,-86"/>
<polygon fill="midnightblue" stroke="midnightblue" points="283.05,-82.5 273.05,-86 283.05,-89.5 283.05,-82.5"/>
</g>
<!-- Node2 -->
<g id="node3" class="node">
<title>Node2</title>
<g id="a_node3"><a xlink:href="classpfate_1_1PSPM__Environment.html" target="_top" xlink:title="This class provides a common interface to different components of the environment.">
<polygon fill="none" stroke="black" points="334.5,-38.5 334.5,-57.5 477.5,-57.5 477.5,-38.5 334.5,-38.5"/>
<text text-anchor="middle" x="406" y="-45.5" font-family="Helvetica,sans-Serif" font-size="10.00">pfate::PSPM_Environment</text>
</a>
</g>
</g>
<!-- Node0&#45;&gt;Node2 -->
<g id="edge2" class="edge">
<title>Node0&#45;&gt;Node2</title>
<path fill="none" stroke="midnightblue" d="M275.83,-74.39C302.28,-68.99 333.36,-62.64 358.4,-57.52"/>
<polygon fill="midnightblue" stroke="midnightblue" points="275.03,-70.98 265.94,-76.41 276.43,-77.84 275.03,-70.98"/>
</g>
<!-- Node8 -->
<g id="node4" class="node">
<title>Node8</title>
<g id="a_node4"><a xlink:title=" ">
<polygon fill="none" stroke="#bfbfbf" points="0,-19.5 0,-38.5 103,-38.5 103,-19.5 0,-19.5"/>
<text text-anchor="middle" x="51.5" y="-26.5" font-family="Helvetica,sans-Serif" font-size="10.00">EnvironmentBase</text>
</a>
</g>
</g>
<!-- Node9 -->
<g id="node5" class="node">
<title>Node9</title>
<g id="a_node5"><a xlink:href="classPyEnvironmentBase.html" target="_top" xlink:title=" ">
<polygon fill="none" stroke="black" points="160.5,-0.5 160.5,-19.5 275.5,-19.5 275.5,-0.5 160.5,-0.5"/>
<text text-anchor="middle" x="218" y="-7.5" font-family="Helvetica,sans-Serif" font-size="10.00">PyEnvironmentBase</text>
</a>
</g>
</g>
<!-- Node8&#45;&gt;Node9 -->
<g id="edge3" class="edge">
<title>Node8&#45;&gt;Node9</title>
<path fill="none" stroke="midnightblue" d="M113.18,-21.99C128.64,-20.21 145.2,-18.29 160.45,-16.53"/>
<polygon fill="midnightblue" stroke="midnightblue" points="112.73,-18.52 103.2,-23.14 113.53,-25.47 112.73,-18.52"/>
</g>
<!-- Node10 -->
<g id="node6" class="node">
<title>Node10</title>
<g id="a_node6"><a xlink:href="classpfate_1_1env_1_1LightEnvironment.html" target="_top" xlink:title=" ">
<polygon fill="none" stroke="black" points="139,-38.5 139,-57.5 297,-57.5 297,-38.5 139,-38.5"/>
<text text-anchor="middle" x="218" y="-45.5" font-family="Helvetica,sans-Serif" font-size="10.00">pfate::env::LightEnvironment</text>
</a>
</g>
</g>
<!-- Node8&#45;&gt;Node10 -->
<g id="edge4" class="edge">
<title>Node8&#45;&gt;Node10</title>
<path fill="none" stroke="midnightblue" d="M113.23,-36.01C121.61,-36.98 130.31,-37.99 138.94,-38.98"/>
<polygon fill="midnightblue" stroke="midnightblue" points="113.53,-32.53 103.2,-34.86 112.73,-39.48 113.53,-32.53"/>
</g>
<!-- Node10&#45;&gt;Node1 -->
<g id="edge5" class="edge">
<title>Node10&#45;&gt;Node1</title>
<path fill="none" stroke="midnightblue" d="M275.83,-59.61C302.28,-65.01 333.36,-71.36 358.4,-76.48"/>
<polygon fill="midnightblue" stroke="midnightblue" points="276.43,-56.16 265.94,-57.59 275.03,-63.02 276.43,-56.16"/>
</g>
<!-- Node10&#45;&gt;Node2 -->
<g id="edge6" class="edge">
<title>Node10&#45;&gt;Node2</title>
<path fill="none" stroke="midnightblue" d="M307.25,-48C316.3,-48 325.41,-48 334.24,-48"/>
<polygon fill="midnightblue" stroke="midnightblue" points="307.07,-44.5 297.07,-48 307.07,-51.5 307.07,-44.5"/>
</g>
</g>
</svg>
