<?xml version="1.0" encoding="UTF-8" standalone="no"?>
<!DOCTYPE svg PUBLIC "-//W3C//DTD SVG 1.1//EN"
 "http://www.w3.org/Graphics/SVG/1.1/DTD/svg11.dtd">
<!-- Generated by graphviz version 2.43.0 (0)
 -->
<!-- Title: Graphical Class Hierarchy Pages: 1 -->
<svg width="238pt" height="66pt"
 viewBox="0.00 0.00 238.00 66.00" xmlns="http://www.w3.org/2000/svg" xmlns:xlink="http://www.w3.org/1999/xlink">
<g id="graph0" class="graph" transform="scale(1 1) rotate(0) translate(4 62)">
<title>Graphical Class Hierarchy</title>
<!-- Node11 -->
<g id="node1" class="node">
<title>Node11</title>
<g id="a_node1"><a xlink:title=" ">
<polygon fill="none" stroke="#bfbfbf" points="0,-38.5 0,-57.5 89,-57.5 89,-38.5 0,-38.5"/>
<text text-anchor="middle" x="44.5" y="-45.5" font-family="Helvetica,sans-Serif" font-size="10.00">IndividualBase</text>
</a>
</g>
</g>
<!-- Node0 -->
<g id="node2" class="node">
<title>Node0</title>
<g id="a_node2"><a xlink:href="classpfate_1_1PSPM__Plant.html" target="_top" xlink:title="This class entends the Plant class to interface with the PSPM Solver.">
<polygon fill="none" stroke="black" points="125,-19.5 125,-38.5 230,-38.5 230,-19.5 125,-19.5"/>
<text text-anchor="middle" x="177.5" y="-26.5" font-family="Helvetica,sans-Serif" font-size="10.00">pfate::PSPM_Plant</text>
</a>
</g>
</g>
<!-- Node11&#45;&gt;Node0 -->
<g id="edge1" class="edge">
<title>Node11&#45;&gt;Node0</title>
<path fill="none" stroke="midnightblue" d="M99.27,-40.2C107.74,-38.97 116.48,-37.71 124.89,-36.49"/>
<polygon fill="midnightblue" stroke="midnightblue" points="98.52,-36.77 89.12,-41.67 99.52,-43.7 98.52,-36.77"/>
</g>
<!-- Node17 -->
<g id="node3" class="node">
<title>Node17</title>
<g id="a_node3"><a xlink:href="classplant_1_1Plant.html" target="_top" xlink:title="The class for an individual plant.">
<polygon fill="none" stroke="black" points="8.5,-0.5 8.5,-19.5 80.5,-19.5 80.5,-0.5 8.5,-0.5"/>
<text text-anchor="middle" x="44.5" y="-7.5" font-family="Helvetica,sans-Serif" font-size="10.00">plant::Plant</text>
</a>
</g>
</g>
<!-- Node17&#45;&gt;Node0 -->
<g id="edge2" class="edge">
<title>Node17&#45;&gt;Node0</title>
<path fill="none" stroke="midnightblue" d="M90.75,-16.56C101.64,-18.14 113.37,-19.84 124.54,-21.46"/>
<polygon fill="midnightblue" stroke="midnightblue" points="91,-13.06 80.61,-15.09 90,-19.99 91,-13.06"/>
</g>
</g>
</svg>
