<?xml version="1.0" encoding="UTF-8" standalone="no"?>
<!DOCTYPE svg PUBLIC "-//W3C//DTD SVG 1.1//EN"
 "http://www.w3.org/Graphics/SVG/1.1/DTD/svg11.dtd">
<!-- Generated by graphviz version 2.43.0 (0)
 -->
<!-- Title: inst/include/utils/initializer_v2.h Pages: 1 -->
<svg width="600pt" height="95pt"
 viewBox="0.00 0.00 599.50 95.00" xmlns="http://www.w3.org/2000/svg" xmlns:xlink="http://www.w3.org/1999/xlink">
<g id="graph0" class="graph" transform="scale(1 1) rotate(0) translate(4 91)">
<title>inst/include/utils/initializer_v2.h</title>
<!-- Node1 -->
<g id="node1" class="node">
<title>Node1</title>
<g id="a_node1"><a xlink:title=" ">
<polygon fill="#bfbfbf" stroke="black" points="215.5,-56.5 215.5,-86.5 312.5,-86.5 312.5,-56.5 215.5,-56.5"/>
<text text-anchor="start" x="223.5" y="-74.5" font-family="Helvetica,sans-Serif" font-size="10.00">inst/include/utils</text>
<text text-anchor="middle" x="264" y="-63.5" font-family="Helvetica,sans-Serif" font-size="10.00">/initializer_v2.h</text>
</a>
</g>
</g>
<!-- Node2 -->
<g id="node2" class="node">
<title>Node2</title>
<g id="a_node2"><a xlink:title=" ">
<polygon fill="none" stroke="#bfbfbf" points="0,-0.5 0,-19.5 60,-19.5 60,-0.5 0,-0.5"/>
<text text-anchor="middle" x="30" y="-7.5" font-family="Helvetica,sans-Serif" font-size="10.00">iostream</text>
</a>
</g>
</g>
<!-- Node1&#45;&gt;Node2 -->
<g id="edge1" class="edge">
<title>Node1&#45;&gt;Node2</title>
<path fill="none" stroke="midnightblue" d="M215.23,-58.1C172.14,-47.14 110.06,-31.36 69.87,-21.14"/>
<polygon fill="midnightblue" stroke="midnightblue" points="70.71,-17.74 60.15,-18.67 68.98,-24.52 70.71,-17.74"/>
</g>
<!-- Node3 -->
<g id="node3" class="node">
<title>Node3</title>
<g id="a_node3"><a xlink:title=" ">
<polygon fill="none" stroke="#bfbfbf" points="78,-0.5 78,-19.5 122,-19.5 122,-0.5 78,-0.5"/>
<text text-anchor="middle" x="100" y="-7.5" font-family="Helvetica,sans-Serif" font-size="10.00">regex</text>
</a>
</g>
</g>
<!-- Node1&#45;&gt;Node3 -->
<g id="edge2" class="edge">
<title>Node1&#45;&gt;Node3</title>
<path fill="none" stroke="midnightblue" d="M225.13,-56.4C196.75,-46.1 158.71,-32.3 132.06,-22.63"/>
<polygon fill="midnightblue" stroke="midnightblue" points="133.04,-19.26 122.44,-19.14 130.65,-25.84 133.04,-19.26"/>
</g>
<!-- Node4 -->
<g id="node4" class="node">
<title>Node4</title>
<g id="a_node4"><a xlink:title=" ">
<polygon fill="none" stroke="#bfbfbf" points="140,-0.5 140,-19.5 184,-19.5 184,-0.5 140,-0.5"/>
<text text-anchor="middle" x="162" y="-7.5" font-family="Helvetica,sans-Serif" font-size="10.00">string</text>
</a>
</g>
</g>
<!-- Node1&#45;&gt;Node4 -->
<g id="edge3" class="edge">
<title>Node1&#45;&gt;Node4</title>
<path fill="none" stroke="midnightblue" d="M239.83,-56.4C223.48,-46.86 201.99,-34.32 185.73,-24.84"/>
<polygon fill="midnightblue" stroke="midnightblue" points="187.24,-21.67 176.84,-19.66 183.72,-27.72 187.24,-21.67"/>
</g>
<!-- Node5 -->
<g id="node5" class="node">
<title>Node5</title>
<g id="a_node5"><a xlink:title=" ">
<polygon fill="none" stroke="#bfbfbf" points="202.5,-0.5 202.5,-19.5 257.5,-19.5 257.5,-0.5 202.5,-0.5"/>
<text text-anchor="middle" x="230" y="-7.5" font-family="Helvetica,sans-Serif" font-size="10.00">fstream</text>
</a>
</g>
</g>
<!-- Node1&#45;&gt;Node5 -->
<g id="edge4" class="edge">
<title>Node1&#45;&gt;Node5</title>
<path fill="none" stroke="midnightblue" d="M255.94,-56.4C251.15,-48.02 245.04,-37.33 239.96,-28.42"/>
<polygon fill="midnightblue" stroke="midnightblue" points="242.95,-26.6 234.95,-19.66 236.87,-30.08 242.95,-26.6"/>
</g>
<!-- Node6 -->
<g id="node6" class="node">
<title>Node6</title>
<g id="a_node6"><a xlink:title=" ">
<polygon fill="none" stroke="#bfbfbf" points="275.5,-0.5 275.5,-19.5 322.5,-19.5 322.5,-0.5 275.5,-0.5"/>
<text text-anchor="middle" x="299" y="-7.5" font-family="Helvetica,sans-Serif" font-size="10.00">vector</text>
</a>
</g>
</g>
<!-- Node1&#45;&gt;Node6 -->
<g id="edge5" class="edge">
<title>Node1&#45;&gt;Node6</title>
<path fill="none" stroke="midnightblue" d="M272.29,-56.4C277.22,-48.02 283.51,-37.33 288.75,-28.42"/>
<polygon fill="midnightblue" stroke="midnightblue" points="291.85,-30.05 293.91,-19.66 285.82,-26.5 291.85,-30.05"/>
</g>
<!-- Node7 -->
<g id="node7" class="node">
<title>Node7</title>
<g id="a_node7"><a xlink:title=" ">
<polygon fill="none" stroke="#bfbfbf" points="341,-0.5 341,-19.5 397,-19.5 397,-0.5 341,-0.5"/>
<text text-anchor="middle" x="369" y="-7.5" font-family="Helvetica,sans-Serif" font-size="10.00">sstream</text>
</a>
</g>
</g>
<!-- Node1&#45;&gt;Node7 -->
<g id="edge6" class="edge">
<title>Node1&#45;&gt;Node7</title>
<path fill="none" stroke="midnightblue" d="M288.88,-56.4C305.71,-46.86 327.84,-34.32 344.57,-24.84"/>
<polygon fill="midnightblue" stroke="midnightblue" points="346.75,-27.63 353.72,-19.66 343.3,-21.54 346.75,-27.63"/>
</g>
<!-- Node8 -->
<g id="node8" class="node">
<title>Node8</title>
<g id="a_node8"><a xlink:title=" ">
<polygon fill="none" stroke="#bfbfbf" points="415.5,-0.5 415.5,-19.5 480.5,-19.5 480.5,-0.5 415.5,-0.5"/>
<text text-anchor="middle" x="448" y="-7.5" font-family="Helvetica,sans-Serif" font-size="10.00">stdexcept</text>
</a>
</g>
</g>
<!-- Node1&#45;&gt;Node8 -->
<g id="edge7" class="edge">
<title>Node1&#45;&gt;Node8</title>
<path fill="none" stroke="midnightblue" d="M307.61,-56.4C339.4,-46.12 381.97,-32.35 411.87,-22.68"/>
<polygon fill="midnightblue" stroke="midnightblue" points="413.06,-25.98 421.49,-19.57 410.9,-19.32 413.06,-25.98"/>
</g>
<!-- Node9 -->
<g id="node9" class="node">
<title>Node9</title>
<g id="a_node9"><a xlink:title=" ">
<polygon fill="none" stroke="#bfbfbf" points="498.5,-0.5 498.5,-19.5 591.5,-19.5 591.5,-0.5 498.5,-0.5"/>
<text text-anchor="middle" x="545" y="-7.5" font-family="Helvetica,sans-Serif" font-size="10.00">unordered_map</text>
</a>
</g>
</g>
<!-- Node1&#45;&gt;Node9 -->
<g id="edge8" class="edge">
<title>Node1&#45;&gt;Node9</title>
<path fill="none" stroke="midnightblue" d="M312.63,-60.2C363.58,-49.41 443.24,-32.55 494.78,-21.63"/>
<polygon fill="midnightblue" stroke="midnightblue" points="495.64,-25.03 504.7,-19.53 494.19,-18.18 495.64,-25.03"/>
</g>
</g>
</svg>
