<?xml version="1.0" encoding="UTF-8" standalone="no"?>
<!DOCTYPE svg PUBLIC "-//W3C//DTD SVG 1.1//EN"
 "http://www.w3.org/Graphics/SVG/1.1/DTD/svg11.dtd">
<!-- Generated by graphviz version 2.43.0 (0)
 -->
<!-- Title: inst/include/utils/initializer_v2.h Pages: 1 -->
<svg width="1096pt" height="531pt"
 viewBox="0.00 0.00 1095.50 531.00" xmlns="http://www.w3.org/2000/svg" xmlns:xlink="http://www.w3.org/1999/xlink">
<g id="graph0" class="graph" transform="scale(1 1) rotate(0) translate(4 527)">
<title>inst/include/utils/initializer_v2.h</title>
<!-- Node1 -->
<g id="node1" class="node">
<title>Node1</title>
<g id="a_node1"><a xlink:title=" ">
<polygon fill="#bfbfbf" stroke="black" points="373,-492.5 373,-522.5 470,-522.5 470,-492.5 373,-492.5"/>
<text text-anchor="start" x="381" y="-510.5" font-family="Helvetica,sans-Serif" font-size="10.00">inst/include/utils</text>
<text text-anchor="middle" x="421.5" y="-499.5" font-family="Helvetica,sans-Serif" font-size="10.00">/initializer_v2.h</text>
</a>
</g>
</g>
<!-- Node2 -->
<g id="node2" class="node">
<title>Node2</title>
<g id="a_node2"><a xlink:href="plant_8h.html" target="_top" xlink:title=" ">
<polygon fill="none" stroke="black" points="404.5,-246.5 404.5,-265.5 514.5,-265.5 514.5,-246.5 404.5,-246.5"/>
<text text-anchor="middle" x="459.5" y="-253.5" font-family="Helvetica,sans-Serif" font-size="10.00">inst/include/plant.h</text>
</a>
</g>
</g>
<!-- Node1&#45;&gt;Node2 -->
<g id="edge1" class="edge">
<title>Node1&#45;&gt;Node2</title>
<path fill="none" stroke="midnightblue" d="M425.18,-482.36C433.37,-428.56 452.83,-300.81 458.14,-265.93"/>
<polygon fill="midnightblue" stroke="midnightblue" points="421.7,-481.96 423.65,-492.37 428.62,-483.01 421.7,-481.96"/>
</g>
<!-- Node16 -->
<g id="node16" class="node">
<title>Node16</title>
<g id="a_node16"><a xlink:href="state__restore_8h.html" target="_top" xlink:title=" ">
<polygon fill="none" stroke="black" points="9,-123.5 9,-153.5 110,-153.5 110,-123.5 9,-123.5"/>
<text text-anchor="start" x="17" y="-141.5" font-family="Helvetica,sans-Serif" font-size="10.00">inst/include/state</text>
<text text-anchor="middle" x="59.5" y="-130.5" font-family="Helvetica,sans-Serif" font-size="10.00">_restore.h</text>
</a>
</g>
</g>
<!-- Node1&#45;&gt;Node16 -->
<g id="edge22" class="edge">
<title>Node1&#45;&gt;Node16</title>
<path fill="none" stroke="midnightblue" d="M362.81,-503.58C282.31,-496.06 147.5,-469.32 147.5,-374.5 147.5,-374.5 147.5,-374.5 147.5,-255 147.5,-210.88 106.38,-173.11 80.35,-153.62"/>
<polygon fill="midnightblue" stroke="midnightblue" points="362.57,-507.07 372.83,-504.45 363.17,-500.1 362.57,-507.07"/>
</g>
<!-- Node17 -->
<g id="node17" class="node">
<title>Node17</title>
<g id="a_node17"><a xlink:href="traits__params_8h.html" target="_top" xlink:title=" ">
<polygon fill="none" stroke="black" points="694,-425.5 694,-455.5 795,-455.5 795,-425.5 694,-425.5"/>
<text text-anchor="start" x="702" y="-443.5" font-family="Helvetica,sans-Serif" font-size="10.00">inst/include/traits</text>
<text text-anchor="middle" x="744.5" y="-432.5" font-family="Helvetica,sans-Serif" font-size="10.00">_params.h</text>
</a>
</g>
</g>
<!-- Node1&#45;&gt;Node17 -->
<g id="edge23" class="edge">
<title>Node1&#45;&gt;Node17</title>
<path fill="none" stroke="midnightblue" d="M480.08,-494.71C541.14,-482.42 635.84,-463.37 693.8,-451.7"/>
<polygon fill="midnightblue" stroke="midnightblue" points="479.32,-491.29 470.21,-496.7 480.7,-498.16 479.32,-491.29"/>
</g>
<!-- Node3 -->
<g id="node3" class="node">
<title>Node3</title>
<g id="a_node3"><a xlink:href="plant_8cpp.html" target="_top" xlink:title=" ">
<polygon fill="none" stroke="black" points="488,-190.5 488,-209.5 567,-209.5 567,-190.5 488,-190.5"/>
<text text-anchor="middle" x="527.5" y="-197.5" font-family="Helvetica,sans-Serif" font-size="10.00">src/plant.cpp</text>
</a>
</g>
</g>
<!-- Node2&#45;&gt;Node3 -->
<g id="edge2" class="edge">
<title>Node2&#45;&gt;Node3</title>
<path fill="none" stroke="midnightblue" d="M478.26,-240.1C490.5,-230.38 506.06,-218.03 516.38,-209.83"/>
<polygon fill="midnightblue" stroke="midnightblue" points="476.08,-237.36 470.43,-246.32 480.43,-242.85 476.08,-237.36"/>
</g>
<!-- Node4 -->
<g id="node4" class="node">
<title>Node4</title>
<g id="a_node4"><a xlink:href="life__history_8h.html" target="_top" xlink:title=" ">
<polygon fill="none" stroke="black" points="647.5,-190.5 647.5,-209.5 785.5,-209.5 785.5,-190.5 647.5,-190.5"/>
<text text-anchor="middle" x="716.5" y="-197.5" font-family="Helvetica,sans-Serif" font-size="10.00">inst/include/life_history.h</text>
</a>
</g>
</g>
<!-- Node2&#45;&gt;Node4 -->
<g id="edge3" class="edge">
<title>Node2&#45;&gt;Node4</title>
<path fill="none" stroke="midnightblue" d="M510.21,-244.35C558.78,-234.14 631.12,-218.94 675.97,-209.52"/>
<polygon fill="midnightblue" stroke="midnightblue" points="509.29,-240.96 500.22,-246.44 510.73,-247.81 509.29,-240.96"/>
</g>
<!-- Node8 -->
<g id="node8" class="node">
<title>Node8</title>
<g id="a_node8"><a xlink:href="pspm__interface_8h.html" target="_top" xlink:title=" ">
<polygon fill="none" stroke="black" points="309,-190.5 309,-209.5 470,-209.5 470,-190.5 309,-190.5"/>
<text text-anchor="middle" x="389.5" y="-197.5" font-family="Helvetica,sans-Serif" font-size="10.00">inst/include/pspm_interface.h</text>
</a>
</g>
</g>
<!-- Node2&#45;&gt;Node8 -->
<g id="edge7" class="edge">
<title>Node2&#45;&gt;Node8</title>
<path fill="none" stroke="midnightblue" d="M440.19,-240.1C427.59,-230.38 411.57,-218.03 400.95,-209.83"/>
<polygon fill="midnightblue" stroke="midnightblue" points="438.2,-242.99 448.25,-246.32 442.47,-237.44 438.2,-242.99"/>
</g>
<!-- Node5 -->
<g id="node5" class="node">
<title>Node5</title>
<g id="a_node5"><a xlink:href="life__history_8cpp.html" target="_top" xlink:title=" ">
<polygon fill="none" stroke="black" points="663,-129 663,-148 770,-148 770,-129 663,-129"/>
<text text-anchor="middle" x="716.5" y="-136" font-family="Helvetica,sans-Serif" font-size="10.00">src/life_history.cpp</text>
</a>
</g>
</g>
<!-- Node4&#45;&gt;Node5 -->
<g id="edge4" class="edge">
<title>Node4&#45;&gt;Node5</title>
<path fill="none" stroke="midnightblue" d="M716.5,-180.32C716.5,-169.5 716.5,-156.4 716.5,-148.01"/>
<polygon fill="midnightblue" stroke="midnightblue" points="713,-180.48 716.5,-190.48 720,-180.48 713,-180.48"/>
</g>
<!-- Node6 -->
<g id="node6" class="node">
<title>Node6</title>
<g id="a_node6"><a xlink:href="r__interface_8cpp.html" target="_top" xlink:title=" ">
<polygon fill="none" stroke="black" points="607,-0.5 607,-19.5 714,-19.5 714,-0.5 607,-0.5"/>
<text text-anchor="middle" x="660.5" y="-7.5" font-family="Helvetica,sans-Serif" font-size="10.00">src/r_interface.cpp</text>
</a>
</g>
</g>
<!-- Node4&#45;&gt;Node6 -->
<g id="edge5" class="edge">
<title>Node4&#45;&gt;Node6</title>
<path fill="none" stroke="midnightblue" d="M745.6,-185.65C758.13,-178.25 771.5,-167.73 778.5,-154 784.76,-141.73 783.94,-135.66 778.5,-123 757.32,-73.69 702.58,-35.88 675.76,-19.66"/>
<polygon fill="midnightblue" stroke="midnightblue" points="743.83,-182.63 736.72,-190.49 747.18,-188.78 743.83,-182.63"/>
</g>
<!-- Node7 -->
<g id="node7" class="node">
<title>Node7</title>
<g id="a_node7"><a xlink:href="lho_8cpp.html" target="_top" xlink:title=" ">
<polygon fill="none" stroke="black" points="827,-129 827,-148 906,-148 906,-129 827,-129"/>
<text text-anchor="middle" x="866.5" y="-136" font-family="Helvetica,sans-Serif" font-size="10.00">tests/lho.cpp</text>
</a>
</g>
</g>
<!-- Node4&#45;&gt;Node7 -->
<g id="edge6" class="edge">
<title>Node4&#45;&gt;Node7</title>
<path fill="none" stroke="midnightblue" d="M747.3,-186.78C776.45,-175.22 819.45,-158.16 845.05,-148.01"/>
<polygon fill="midnightblue" stroke="midnightblue" points="746,-183.53 737.99,-190.48 748.58,-190.04 746,-183.53"/>
</g>
<!-- Node8&#45;&gt;Node6 -->
<g id="edge10" class="edge">
<title>Node8&#45;&gt;Node6</title>
<path fill="none" stroke="midnightblue" d="M409.03,-184.16C429.6,-168.63 463.03,-143.68 492.5,-123 549.32,-83.13 618.74,-37.94 647.29,-19.5"/>
<polygon fill="midnightblue" stroke="midnightblue" points="406.66,-181.56 400.8,-190.39 410.89,-187.14 406.66,-181.56"/>
</g>
<!-- Node9 -->
<g id="node9" class="node">
<title>Node9</title>
<g id="a_node9"><a xlink:href="light__environment_8cpp.html" target="_top" xlink:title=" ">
<polygon fill="none" stroke="black" points="502,-129 502,-148 645,-148 645,-129 502,-129"/>
<text text-anchor="middle" x="573.5" y="-136" font-family="Helvetica,sans-Serif" font-size="10.00">src/light_environment.cpp</text>
</a>
</g>
</g>
<!-- Node8&#45;&gt;Node9 -->
<g id="edge8" class="edge">
<title>Node8&#45;&gt;Node9</title>
<path fill="none" stroke="midnightblue" d="M425.43,-187.38C461.2,-175.82 515.24,-158.34 547.19,-148.01"/>
<polygon fill="midnightblue" stroke="midnightblue" points="424.3,-184.07 415.86,-190.48 426.45,-190.73 424.3,-184.07"/>
</g>
<!-- Node10 -->
<g id="node10" class="node">
<title>Node10</title>
<g id="a_node10"><a xlink:href="pspm__interface_8cpp.html" target="_top" xlink:title=" ">
<polygon fill="none" stroke="black" points="277.5,-129 277.5,-148 407.5,-148 407.5,-129 277.5,-129"/>
<text text-anchor="middle" x="342.5" y="-136" font-family="Helvetica,sans-Serif" font-size="10.00">src/pspm_interface.cpp</text>
</a>
</g>
</g>
<!-- Node8&#45;&gt;Node10 -->
<g id="edge9" class="edge">
<title>Node8&#45;&gt;Node10</title>
<path fill="none" stroke="midnightblue" d="M376.34,-182.34C367.52,-171.17 356.27,-156.93 349.22,-148.01"/>
<polygon fill="midnightblue" stroke="midnightblue" points="373.82,-184.8 382.77,-190.48 379.31,-180.46 373.82,-184.8"/>
</g>
<!-- Node11 -->
<g id="node11" class="node">
<title>Node11</title>
<g id="a_node11"><a xlink:href="community__properties_8h.html" target="_top" xlink:title=" ">
<polygon fill="none" stroke="black" points="128,-123.5 128,-153.5 259,-153.5 259,-123.5 128,-123.5"/>
<text text-anchor="start" x="136" y="-141.5" font-family="Helvetica,sans-Serif" font-size="10.00">inst/include/community</text>
<text text-anchor="middle" x="193.5" y="-130.5" font-family="Helvetica,sans-Serif" font-size="10.00">_properties.h</text>
</a>
</g>
</g>
<!-- Node8&#45;&gt;Node11 -->
<g id="edge11" class="edge">
<title>Node8&#45;&gt;Node11</title>
<path fill="none" stroke="midnightblue" d="M351.56,-187.48C319.61,-177.78 273.78,-163.87 239.69,-153.52"/>
<polygon fill="midnightblue" stroke="midnightblue" points="350.83,-190.92 361.42,-190.48 352.87,-184.22 350.83,-190.92"/>
</g>
<!-- Node13 -->
<g id="node13" class="node">
<title>Node13</title>
<g id="a_node13"><a xlink:href="plantfate__patch_8h.html" target="_top" xlink:title=" ">
<polygon fill="none" stroke="black" points="221.5,-56.5 221.5,-86.5 341.5,-86.5 341.5,-56.5 221.5,-56.5"/>
<text text-anchor="start" x="229.5" y="-74.5" font-family="Helvetica,sans-Serif" font-size="10.00">inst/include/plantfate</text>
<text text-anchor="middle" x="281.5" y="-63.5" font-family="Helvetica,sans-Serif" font-size="10.00">_patch.h</text>
</a>
</g>
</g>
<!-- Node8&#45;&gt;Node13 -->
<g id="edge18" class="edge">
<title>Node8&#45;&gt;Node13</title>
<path fill="none" stroke="midnightblue" d="M403.74,-182.3C415.76,-166.06 429.16,-141.25 416.5,-123 399.53,-98.53 369.16,-85.9 341.53,-79.39"/>
<polygon fill="midnightblue" stroke="midnightblue" points="400.84,-180.33 397.38,-190.34 406.33,-184.67 400.84,-180.33"/>
</g>
<!-- Node8&#45;&gt;Node16 -->
<g id="edge19" class="edge">
<title>Node8&#45;&gt;Node16</title>
<path fill="none" stroke="midnightblue" d="M320.08,-188.97C265.17,-180.67 186.67,-168.01 118.5,-154 115.81,-153.45 113.06,-152.86 110.29,-152.24"/>
<polygon fill="midnightblue" stroke="midnightblue" points="319.64,-192.44 330.05,-190.47 320.68,-185.52 319.64,-192.44"/>
</g>
<!-- Node12 -->
<g id="node12" class="node">
<title>Node12</title>
<g id="a_node12"><a xlink:href="community__properties_8cpp.html" target="_top" xlink:title=" ">
<polygon fill="none" stroke="black" points="137.5,-0.5 137.5,-19.5 301.5,-19.5 301.5,-0.5 137.5,-0.5"/>
<text text-anchor="middle" x="219.5" y="-7.5" font-family="Helvetica,sans-Serif" font-size="10.00">src/community_properties.cpp</text>
</a>
</g>
</g>
<!-- Node11&#45;&gt;Node12 -->
<g id="edge12" class="edge">
<title>Node11&#45;&gt;Node12</title>
<path fill="none" stroke="midnightblue" d="M198.43,-113.51C204.29,-85.02 213.76,-38.94 217.69,-19.79"/>
<polygon fill="midnightblue" stroke="midnightblue" points="194.97,-112.98 196.38,-123.48 201.82,-114.39 194.97,-112.98"/>
</g>
<!-- Node11&#45;&gt;Node13 -->
<g id="edge13" class="edge">
<title>Node11&#45;&gt;Node13</title>
<path fill="none" stroke="midnightblue" d="M220.64,-117.45C234.18,-107.45 250.23,-95.6 262.44,-86.58"/>
<polygon fill="midnightblue" stroke="midnightblue" points="218.56,-114.64 212.59,-123.4 222.72,-120.27 218.56,-114.64"/>
</g>
<!-- Node13&#45;&gt;Node6 -->
<g id="edge16" class="edge">
<title>Node13&#45;&gt;Node6</title>
<path fill="none" stroke="midnightblue" d="M351.69,-59.48C425.48,-47.9 539.97,-29.92 606.86,-19.42"/>
<polygon fill="midnightblue" stroke="midnightblue" points="350.89,-56.06 341.55,-61.07 351.98,-62.98 350.89,-56.06"/>
</g>
<!-- Node13&#45;&gt;Node12 -->
<g id="edge14" class="edge">
<title>Node13&#45;&gt;Node12</title>
<path fill="none" stroke="midnightblue" d="M259.41,-49.3C248.77,-39.09 236.6,-27.41 228.52,-19.66"/>
<polygon fill="midnightblue" stroke="midnightblue" points="257.17,-52 266.81,-56.4 262.02,-46.95 257.17,-52"/>
</g>
<!-- Node14 -->
<g id="node14" class="node">
<title>Node14</title>
<g id="a_node14"><a xlink:href="plantfate__patch_8cpp.html" target="_top" xlink:title=" ">
<polygon fill="none" stroke="black" points="320,-0.5 320,-19.5 451,-19.5 451,-0.5 320,-0.5"/>
<text text-anchor="middle" x="385.5" y="-7.5" font-family="Helvetica,sans-Serif" font-size="10.00">src/plantfate_patch.cpp</text>
</a>
</g>
</g>
<!-- Node13&#45;&gt;Node14 -->
<g id="edge15" class="edge">
<title>Node13&#45;&gt;Node14</title>
<path fill="none" stroke="midnightblue" d="M314.95,-51.36C333.6,-40.69 355.9,-27.93 370.37,-19.66"/>
<polygon fill="midnightblue" stroke="midnightblue" points="313.09,-48.4 306.15,-56.4 316.56,-54.47 313.09,-48.4"/>
</g>
<!-- Node15 -->
<g id="node15" class="node">
<title>Node15</title>
<g id="a_node15"><a xlink:href="state__restore_8cpp.html" target="_top" xlink:title=" ">
<polygon fill="none" stroke="black" points="0,-0.5 0,-19.5 119,-19.5 119,-0.5 0,-0.5"/>
<text text-anchor="middle" x="59.5" y="-7.5" font-family="Helvetica,sans-Serif" font-size="10.00">src/state_restore.cpp</text>
</a>
</g>
</g>
<!-- Node13&#45;&gt;Node15 -->
<g id="edge17" class="edge">
<title>Node13&#45;&gt;Node15</title>
<path fill="none" stroke="midnightblue" d="M219.38,-53.85C177.7,-42.68 124.53,-28.43 91.24,-19.51"/>
<polygon fill="midnightblue" stroke="midnightblue" points="218.61,-57.27 229.17,-56.47 220.42,-50.51 218.61,-57.27"/>
</g>
<!-- Node16&#45;&gt;Node13 -->
<g id="edge21" class="edge">
<title>Node16&#45;&gt;Node13</title>
<path fill="none" stroke="midnightblue" d="M117.29,-120.58C153.35,-110.02 199.22,-96.59 233.31,-86.61"/>
<polygon fill="midnightblue" stroke="midnightblue" points="116.01,-117.31 107.4,-123.48 117.98,-124.02 116.01,-117.31"/>
</g>
<!-- Node16&#45;&gt;Node15 -->
<g id="edge20" class="edge">
<title>Node16&#45;&gt;Node15</title>
<path fill="none" stroke="midnightblue" d="M59.5,-113.14C59.5,-84.62 59.5,-38.86 59.5,-19.79"/>
<polygon fill="midnightblue" stroke="midnightblue" points="56,-113.48 59.5,-123.48 63,-113.48 56,-113.48"/>
</g>
<!-- Node17&#45;&gt;Node2 -->
<g id="edge32" class="edge">
<title>Node17&#45;&gt;Node2</title>
<path fill="none" stroke="midnightblue" d="M683.94,-425.64C626.76,-409.66 542.14,-378.07 489.5,-322 473.85,-305.33 465.2,-279.04 461.57,-265.58"/>
<polygon fill="midnightblue" stroke="midnightblue" points="683.36,-429.11 693.93,-428.36 685.19,-422.36 683.36,-429.11"/>
</g>
<!-- Node17&#45;&gt;Node4 -->
<g id="edge31" class="edge">
<title>Node17&#45;&gt;Node4</title>
<path fill="none" stroke="midnightblue" d="M787.98,-421.05C837.66,-397.11 908.65,-352.39 880.5,-302 851.96,-250.91 785.8,-222.47 746.8,-209.59"/>
<polygon fill="midnightblue" stroke="midnightblue" points="786.25,-418 778.68,-425.42 789.22,-424.34 786.25,-418"/>
</g>
<!-- Node17&#45;&gt;Node6 -->
<g id="edge25" class="edge">
<title>Node17&#45;&gt;Node6</title>
<path fill="none" stroke="midnightblue" d="M805.17,-426.63C861.76,-410.64 937.5,-377.25 937.5,-313 937.5,-313 937.5,-313 937.5,-137.5 937.5,-40.36 794.79,-17.49 714.24,-12.33"/>
<polygon fill="midnightblue" stroke="midnightblue" points="803.95,-423.33 795.21,-429.32 805.78,-430.09 803.95,-423.33"/>
</g>
<!-- Node18 -->
<g id="node18" class="node">
<title>Node18</title>
<g id="a_node18"><a xlink:href="plant__architecture_8cpp.html" target="_top" xlink:title=" ">
<polygon fill="none" stroke="black" points="728,-302.5 728,-321.5 871,-321.5 871,-302.5 728,-302.5"/>
<text text-anchor="middle" x="799.5" y="-309.5" font-family="Helvetica,sans-Serif" font-size="10.00">src/plant_architecture.cpp</text>
</a>
</g>
</g>
<!-- Node17&#45;&gt;Node18 -->
<g id="edge24" class="edge">
<title>Node17&#45;&gt;Node18</title>
<path fill="none" stroke="midnightblue" d="M754.6,-416.26C766.96,-387.83 787.28,-341.11 795.68,-321.79"/>
<polygon fill="midnightblue" stroke="midnightblue" points="751.37,-414.91 750.6,-425.48 757.79,-417.7 751.37,-414.91"/>
</g>
<!-- Node19 -->
<g id="node19" class="node">
<title>Node19</title>
<g id="a_node19"><a xlink:href="traits__params_8cpp.html" target="_top" xlink:title=" ">
<polygon fill="none" stroke="black" points="965.5,-364 965.5,-383 1087.5,-383 1087.5,-364 965.5,-364"/>
<text text-anchor="middle" x="1026.5" y="-371" font-family="Helvetica,sans-Serif" font-size="10.00">src/traits_params.cpp</text>
</a>
</g>
</g>
<!-- Node17&#45;&gt;Node19 -->
<g id="edge26" class="edge">
<title>Node17&#45;&gt;Node19</title>
<path fill="none" stroke="midnightblue" d="M805.03,-425.55C860.95,-412.66 942.25,-393.92 989.22,-383.09"/>
<polygon fill="midnightblue" stroke="midnightblue" points="804.2,-422.15 795.24,-427.8 805.77,-428.97 804.2,-422.15"/>
</g>
<!-- Node20 -->
<g id="node20" class="node">
<title>Node20</title>
<g id="a_node20"><a xlink:href="assimilation_8h.html" target="_top" xlink:title=" ">
<polygon fill="none" stroke="black" points="526,-302.5 526,-321.5 671,-321.5 671,-302.5 526,-302.5"/>
<text text-anchor="middle" x="598.5" y="-309.5" font-family="Helvetica,sans-Serif" font-size="10.00">inst/include/assimilation.h</text>
</a>
</g>
</g>
<!-- Node17&#45;&gt;Node20 -->
<g id="edge27" class="edge">
<title>Node17&#45;&gt;Node20</title>
<path fill="none" stroke="midnightblue" d="M691.15,-421.57C673.21,-413.65 654.08,-402.92 639.5,-389 618.9,-369.33 606.29,-336.99 601.16,-321.63"/>
<polygon fill="midnightblue" stroke="midnightblue" points="689.81,-424.81 700.39,-425.46 692.53,-418.35 689.81,-424.81"/>
</g>
<!-- Node22 -->
<g id="node22" class="node">
<title>Node22</title>
<g id="a_node22"><a xlink:href="plant__architecture_8h.html" target="_top" xlink:title=" ">
<polygon fill="none" stroke="black" points="649,-358.5 649,-388.5 750,-388.5 750,-358.5 649,-358.5"/>
<text text-anchor="start" x="657" y="-376.5" font-family="Helvetica,sans-Serif" font-size="10.00">inst/include/plant</text>
<text text-anchor="middle" x="699.5" y="-365.5" font-family="Helvetica,sans-Serif" font-size="10.00">_architecture.h</text>
</a>
</g>
</g>
<!-- Node17&#45;&gt;Node22 -->
<g id="edge33" class="edge">
<title>Node17&#45;&gt;Node22</title>
<path fill="none" stroke="midnightblue" d="M729.03,-417.16C722.47,-407.68 715.02,-396.92 709.25,-388.58"/>
<polygon fill="midnightblue" stroke="midnightblue" points="726.17,-419.17 734.74,-425.4 731.92,-415.18 726.17,-419.17"/>
</g>
<!-- Node20&#45;&gt;Node2 -->
<g id="edge30" class="edge">
<title>Node20&#45;&gt;Node2</title>
<path fill="none" stroke="midnightblue" d="M567.02,-298.77C540.91,-288.63 504.46,-274.47 481.42,-265.52"/>
<polygon fill="midnightblue" stroke="midnightblue" points="565.89,-302.08 576.48,-302.44 568.42,-295.56 565.89,-302.08"/>
</g>
<!-- Node20&#45;&gt;Node4 -->
<g id="edge29" class="edge">
<title>Node20&#45;&gt;Node4</title>
<path fill="none" stroke="midnightblue" d="M618.97,-296.02C630.1,-287.58 643.92,-276.63 655.5,-266 676.02,-247.16 697.84,-222.68 708.99,-209.8"/>
<polygon fill="midnightblue" stroke="midnightblue" points="616.63,-293.4 610.71,-302.19 620.82,-299 616.63,-293.4"/>
</g>
<!-- Node21 -->
<g id="node21" class="node">
<title>Node21</title>
<g id="a_node21"><a xlink:href="assimilation_8cpp.html" target="_top" xlink:title=" ">
<polygon fill="none" stroke="black" points="532.5,-246.5 532.5,-265.5 646.5,-265.5 646.5,-246.5 532.5,-246.5"/>
<text text-anchor="middle" x="589.5" y="-253.5" font-family="Helvetica,sans-Serif" font-size="10.00">src/assimilation.cpp</text>
</a>
</g>
</g>
<!-- Node20&#45;&gt;Node21 -->
<g id="edge28" class="edge">
<title>Node20&#45;&gt;Node21</title>
<path fill="none" stroke="midnightblue" d="M595.35,-292.1C593.86,-283.14 592.14,-272.86 590.96,-265.75"/>
<polygon fill="midnightblue" stroke="midnightblue" points="591.92,-292.79 597.01,-302.08 598.82,-291.64 591.92,-292.79"/>
</g>
<!-- Node22&#45;&gt;Node2 -->
<g id="edge37" class="edge">
<title>Node22&#45;&gt;Node2</title>
<path fill="none" stroke="midnightblue" d="M638.69,-364.78C601.25,-357.92 553.51,-345.21 516.5,-322 492.85,-307.17 473.48,-279.58 464.65,-265.6"/>
<polygon fill="midnightblue" stroke="midnightblue" points="638.51,-368.31 648.96,-366.57 639.7,-361.41 638.51,-368.31"/>
</g>
<!-- Node22&#45;&gt;Node4 -->
<g id="edge36" class="edge">
<title>Node22&#45;&gt;Node4</title>
<path fill="none" stroke="midnightblue" d="M701.92,-348.04C705.79,-309.07 713.16,-234.71 715.65,-209.56"/>
<polygon fill="midnightblue" stroke="midnightblue" points="698.39,-348.17 700.89,-358.47 705.36,-348.86 698.39,-348.17"/>
</g>
<!-- Node22&#45;&gt;Node18 -->
<g id="edge34" class="edge">
<title>Node22&#45;&gt;Node18</title>
<path fill="none" stroke="midnightblue" d="M732.16,-353.07C749.98,-342.46 771.17,-329.86 784.95,-321.66"/>
<polygon fill="midnightblue" stroke="midnightblue" points="730,-350.28 723.2,-358.4 733.58,-356.29 730,-350.28"/>
</g>
<!-- Node22&#45;&gt;Node20 -->
<g id="edge35" class="edge">
<title>Node22&#45;&gt;Node20</title>
<path fill="none" stroke="midnightblue" d="M666.52,-353.07C648.51,-342.46 627.12,-329.86 613.2,-321.66"/>
<polygon fill="midnightblue" stroke="midnightblue" points="665.17,-356.34 675.56,-358.4 668.72,-350.31 665.17,-356.34"/>
</g>
</g>
</svg>
