<?xml version="1.0" encoding="UTF-8" standalone="no"?>
<!DOCTYPE svg PUBLIC "-//W3C//DTD SVG 1.1//EN"
 "http://www.w3.org/Graphics/SVG/1.1/DTD/svg11.dtd">
<!-- Generated by graphviz version 2.43.0 (0)
 -->
<!-- Title: tests/lho.cpp Pages: 1 -->
<svg width="1361pt" height="420pt"
 viewBox="0.00 0.00 1360.89 420.00" xmlns="http://www.w3.org/2000/svg" xmlns:xlink="http://www.w3.org/1999/xlink">
<g id="graph0" class="graph" transform="scale(1 1) rotate(0) translate(4 416)">
<title>tests/lho.cpp</title>
<!-- Node1 -->
<g id="node1" class="node">
<title>Node1</title>
<g id="a_node1"><a xlink:title=" ">
<polygon fill="#bfbfbf" stroke="black" points="545.39,-392.5 545.39,-411.5 624.39,-411.5 624.39,-392.5 545.39,-392.5"/>
<text text-anchor="middle" x="584.89" y="-399.5" font-family="Helvetica,sans-Serif" font-size="10.00">tests/lho.cpp</text>
</a>
</g>
</g>
<!-- Node2 -->
<g id="node2" class="node">
<title>Node2</title>
<g id="a_node2"><a xlink:title=" ">
<polygon fill="none" stroke="#bfbfbf" points="455.89,-336.5 455.89,-355.5 511.89,-355.5 511.89,-336.5 455.89,-336.5"/>
<text text-anchor="middle" x="483.89" y="-343.5" font-family="Helvetica,sans-Serif" font-size="10.00">iomanip</text>
</a>
</g>
</g>
<!-- Node1&#45;&gt;Node2 -->
<g id="edge1" class="edge">
<title>Node1&#45;&gt;Node2</title>
<path fill="none" stroke="midnightblue" d="M568.66,-392.32C552.54,-383.7 527.59,-370.36 508.93,-360.39"/>
<polygon fill="midnightblue" stroke="midnightblue" points="510.55,-357.28 500.08,-355.65 507.25,-363.46 510.55,-357.28"/>
</g>
<!-- Node3 -->
<g id="node3" class="node">
<title>Node3</title>
<g id="a_node3"><a xlink:title=" ">
<polygon fill="none" stroke="#bfbfbf" points="541.39,-0.5 541.39,-19.5 596.39,-19.5 596.39,-0.5 541.39,-0.5"/>
<text text-anchor="middle" x="568.89" y="-7.5" font-family="Helvetica,sans-Serif" font-size="10.00">fstream</text>
</a>
</g>
</g>
<!-- Node1&#45;&gt;Node3 -->
<g id="edge2" class="edge">
<title>Node1&#45;&gt;Node3</title>
<path fill="none" stroke="midnightblue" d="M578.63,-392.37C566.27,-374.44 539.89,-331.44 539.89,-291 539.89,-291 539.89,-291 539.89,-121 539.89,-87.72 552.46,-50.58 561.05,-29.09"/>
<polygon fill="midnightblue" stroke="midnightblue" points="564.37,-30.21 564.98,-19.64 557.91,-27.53 564.37,-30.21"/>
</g>
<!-- Node4 -->
<g id="node4" class="node">
<title>Node4</title>
<g id="a_node4"><a xlink:title=" ">
<polygon fill="none" stroke="#bfbfbf" points="688.89,-336.5 688.89,-355.5 742.89,-355.5 742.89,-336.5 688.89,-336.5"/>
<text text-anchor="middle" x="715.89" y="-343.5" font-family="Helvetica,sans-Serif" font-size="10.00">random</text>
</a>
</g>
</g>
<!-- Node1&#45;&gt;Node4 -->
<g id="edge3" class="edge">
<title>Node1&#45;&gt;Node4</title>
<path fill="none" stroke="midnightblue" d="M605.65,-392.44C627.21,-383.56 661.15,-369.56 685.68,-359.45"/>
<polygon fill="midnightblue" stroke="midnightblue" points="687.32,-362.56 695.23,-355.52 684.65,-356.09 687.32,-362.56"/>
</g>
<!-- Node5 -->
<g id="node5" class="node">
<title>Node5</title>
<g id="a_node5"><a xlink:href="life__history_8h.html" target="_top" xlink:title=" ">
<polygon fill="none" stroke="black" points="591.39,-336.5 591.39,-355.5 670.39,-355.5 670.39,-336.5 591.39,-336.5"/>
<text text-anchor="middle" x="630.89" y="-343.5" font-family="Helvetica,sans-Serif" font-size="10.00">life_history.h</text>
</a>
</g>
</g>
<!-- Node1&#45;&gt;Node5 -->
<g id="edge4" class="edge">
<title>Node1&#45;&gt;Node5</title>
<path fill="none" stroke="midnightblue" d="M592.49,-392.08C599.12,-384.3 608.91,-372.8 616.95,-363.37"/>
<polygon fill="midnightblue" stroke="midnightblue" points="619.62,-365.63 623.44,-355.75 614.29,-361.09 619.62,-365.63"/>
</g>
<!-- Node6 -->
<g id="node6" class="node">
<title>Node6</title>
<g id="a_node6"><a xlink:title=" ">
<polygon fill="none" stroke="#bfbfbf" points="1087.39,-0.5 1087.39,-19.5 1134.39,-19.5 1134.39,-0.5 1087.39,-0.5"/>
<text text-anchor="middle" x="1110.89" y="-7.5" font-family="Helvetica,sans-Serif" font-size="10.00">vector</text>
</a>
</g>
</g>
<!-- Node5&#45;&gt;Node6 -->
<g id="edge5" class="edge">
<title>Node5&#45;&gt;Node6</title>
<path fill="none" stroke="midnightblue" d="M647.46,-336.31C705.82,-305.33 906.02,-195.7 1049.89,-76 1067.82,-61.08 1085.78,-41.2 1097.52,-27.37"/>
<polygon fill="midnightblue" stroke="midnightblue" points="1100.25,-29.56 1103.97,-19.64 1094.88,-25.07 1100.25,-29.56"/>
</g>
<!-- Node7 -->
<g id="node7" class="node">
<title>Node7</title>
<g id="a_node7"><a xlink:title=" ">
<polygon fill="none" stroke="#bfbfbf" points="1005.39,-280.5 1005.39,-299.5 1062.39,-299.5 1062.39,-280.5 1005.39,-280.5"/>
<text text-anchor="middle" x="1033.89" y="-287.5" font-family="Helvetica,sans-Serif" font-size="10.00">ostream</text>
</a>
</g>
</g>
<!-- Node5&#45;&gt;Node7 -->
<g id="edge6" class="edge">
<title>Node5&#45;&gt;Node7</title>
<path fill="none" stroke="midnightblue" d="M670.43,-337.5C673.63,-336.97 676.81,-336.46 679.89,-336 817.51,-315.42 853.54,-322.28 990.89,-300 992.35,-299.76 993.83,-299.51 995.33,-299.25"/>
<polygon fill="midnightblue" stroke="midnightblue" points="996.1,-302.66 1005.28,-297.37 994.8,-295.79 996.1,-302.66"/>
</g>
<!-- Node8 -->
<g id="node8" class="node">
<title>Node8</title>
<g id="a_node8"><a xlink:href="traits__params_8h.html" target="_top" xlink:title=" ">
<polygon fill="none" stroke="black" points="320.39,-112.5 320.39,-131.5 413.39,-131.5 413.39,-112.5 320.39,-112.5"/>
<text text-anchor="middle" x="366.89" y="-119.5" font-family="Helvetica,sans-Serif" font-size="10.00">traits_params.h</text>
</a>
</g>
</g>
<!-- Node5&#45;&gt;Node8 -->
<g id="edge7" class="edge">
<title>Node5&#45;&gt;Node8</title>
<path fill="none" stroke="midnightblue" d="M620.54,-336.3C580.62,-302.73 436.31,-181.38 385.09,-138.3"/>
<polygon fill="midnightblue" stroke="midnightblue" points="387.07,-135.4 377.17,-131.64 382.57,-140.76 387.07,-135.4"/>
</g>
<!-- Node19 -->
<g id="node19" class="node">
<title>Node19</title>
<g id="a_node19"><a xlink:href="plant__architecture_8h.html" target="_top" xlink:title=" ">
<polygon fill="none" stroke="black" points="93.89,-168.5 93.89,-187.5 207.89,-187.5 207.89,-168.5 93.89,-168.5"/>
<text text-anchor="middle" x="150.89" y="-175.5" font-family="Helvetica,sans-Serif" font-size="10.00">plant_architecture.h</text>
</a>
</g>
</g>
<!-- Node5&#45;&gt;Node19 -->
<g id="edge21" class="edge">
<title>Node5&#45;&gt;Node19</title>
<path fill="none" stroke="midnightblue" d="M591.38,-340.99C503.16,-331.91 295.49,-309.81 264.89,-300 215.27,-284.1 192.18,-286.4 161.89,-244 152.43,-230.76 150.09,-212.17 149.87,-198.27"/>
<polygon fill="midnightblue" stroke="midnightblue" points="153.38,-197.97 150.08,-187.9 146.38,-197.83 153.38,-197.97"/>
</g>
<!-- Node20 -->
<g id="node20" class="node">
<title>Node20</title>
<g id="a_node20"><a xlink:href="assimilation_8h.html" target="_top" xlink:title=" ">
<polygon fill="none" stroke="black" points="189.89,-224.5 189.89,-243.5 275.89,-243.5 275.89,-224.5 189.89,-224.5"/>
<text text-anchor="middle" x="232.89" y="-231.5" font-family="Helvetica,sans-Serif" font-size="10.00">assimilation.h</text>
</a>
</g>
</g>
<!-- Node5&#45;&gt;Node20 -->
<g id="edge24" class="edge">
<title>Node5&#45;&gt;Node20</title>
<path fill="none" stroke="midnightblue" d="M591.34,-341.26C507.82,-333.14 318.96,-313.54 292.89,-300 271.67,-288.98 254.07,-267.33 243.53,-252.04"/>
<polygon fill="midnightblue" stroke="midnightblue" points="246.34,-249.94 237.92,-243.51 240.49,-253.78 246.34,-249.94"/>
</g>
<!-- Node23 -->
<g id="node23" class="node">
<title>Node23</title>
<g id="a_node23"><a xlink:href="plant_8h.html" target="_top" xlink:title=" ">
<polygon fill="none" stroke="black" points="301.89,-280.5 301.89,-299.5 351.89,-299.5 351.89,-280.5 301.89,-280.5"/>
<text text-anchor="middle" x="326.89" y="-287.5" font-family="Helvetica,sans-Serif" font-size="10.00">plant.h</text>
</a>
</g>
</g>
<!-- Node5&#45;&gt;Node23 -->
<g id="edge29" class="edge">
<title>Node5&#45;&gt;Node23</title>
<path fill="none" stroke="midnightblue" d="M591.23,-338.26C540.72,-329.62 450.75,-314.09 373.89,-300 370.16,-299.32 366.26,-298.59 362.37,-297.86"/>
<polygon fill="midnightblue" stroke="midnightblue" points="362.72,-294.36 352.24,-295.93 361.41,-301.24 362.72,-294.36"/>
</g>
<!-- Node29 -->
<g id="node29" class="node">
<title>Node29</title>
<g id="a_node29"><a xlink:href="climate_8h.html" target="_top" xlink:title=" ">
<polygon fill="none" stroke="black" points="643.89,-56.5 643.89,-75.5 705.89,-75.5 705.89,-56.5 643.89,-56.5"/>
<text text-anchor="middle" x="674.89" y="-63.5" font-family="Helvetica,sans-Serif" font-size="10.00">climate.h</text>
</a>
</g>
</g>
<!-- Node5&#45;&gt;Node29 -->
<g id="edge45" class="edge">
<title>Node5&#45;&gt;Node29</title>
<path fill="none" stroke="midnightblue" d="M632.46,-336.48C635.71,-318.04 642.89,-273.04 642.89,-235 642.89,-235 642.89,-235 642.89,-177 642.89,-143.33 656.89,-106.08 666.36,-84.72"/>
<polygon fill="midnightblue" stroke="midnightblue" points="669.56,-86.14 670.57,-75.59 663.21,-83.21 669.56,-86.14"/>
</g>
<!-- Node30 -->
<g id="node30" class="node">
<title>Node30</title>
<g id="a_node30"><a xlink:href="climate__stream_8h.html" target="_top" xlink:title=" ">
<polygon fill="none" stroke="black" points="682.89,-112.5 682.89,-131.5 784.89,-131.5 784.89,-112.5 682.89,-112.5"/>
<text text-anchor="middle" x="733.89" y="-119.5" font-family="Helvetica,sans-Serif" font-size="10.00">climate_stream.h</text>
</a>
</g>
</g>
<!-- Node5&#45;&gt;Node30 -->
<g id="edge53" class="edge">
<title>Node5&#45;&gt;Node30</title>
<path fill="none" stroke="midnightblue" d="M636.37,-336.2C641.86,-327.25 650.39,-312.89 656.89,-300 685.5,-243.28 713.96,-173.5 726.81,-141.11"/>
<polygon fill="midnightblue" stroke="midnightblue" points="730.13,-142.22 730.54,-131.63 723.62,-139.65 730.13,-142.22"/>
</g>
<!-- Node32 -->
<g id="node32" class="node">
<title>Node32</title>
<g id="a_node32"><a xlink:href="light__environment_8h.html" target="_top" xlink:title=" ">
<polygon fill="none" stroke="black" points="1141.39,-56.5 1141.39,-75.5 1256.39,-75.5 1256.39,-56.5 1141.39,-56.5"/>
<text text-anchor="middle" x="1198.89" y="-63.5" font-family="Helvetica,sans-Serif" font-size="10.00">light_environment.h</text>
</a>
</g>
</g>
<!-- Node5&#45;&gt;Node32 -->
<g id="edge62" class="edge">
<title>Node5&#45;&gt;Node32</title>
<path fill="none" stroke="midnightblue" d="M670.41,-337.36C673.61,-336.85 676.8,-336.39 679.89,-336 735.14,-328.96 1136.55,-334.99 1179.89,-300 1203.31,-281.09 1198.89,-265.1 1198.89,-235 1198.89,-235 1198.89,-235 1198.89,-177 1198.89,-144.95 1198.89,-107.64 1198.89,-85.75"/>
<polygon fill="midnightblue" stroke="midnightblue" points="1202.39,-85.56 1198.89,-75.56 1195.39,-85.56 1202.39,-85.56"/>
</g>
<!-- Node35 -->
<g id="node35" class="node">
<title>Node35</title>
<g id="a_node35"><a xlink:title=" ">
<polygon fill="none" stroke="#bfbfbf" points="1080.89,-280.5 1080.89,-299.5 1170.89,-299.5 1170.89,-280.5 1080.89,-280.5"/>
<text text-anchor="middle" x="1125.89" y="-287.5" font-family="Helvetica,sans-Serif" font-size="10.00">time_stepper.h</text>
</a>
</g>
</g>
<!-- Node5&#45;&gt;Node35 -->
<g id="edge67" class="edge">
<title>Node5&#45;&gt;Node35</title>
<path fill="none" stroke="midnightblue" d="M670.42,-337.42C673.62,-336.91 676.81,-336.42 679.89,-336 850,-312.61 896.65,-322.03 1070.83,-300.04"/>
<polygon fill="midnightblue" stroke="midnightblue" points="1071.37,-303.5 1080.85,-298.76 1070.48,-296.56 1071.37,-303.5"/>
</g>
<!-- Node9 -->
<g id="node9" class="node">
<title>Node9</title>
<g id="a_node9"><a xlink:href="initializer__v2_8h.html" target="_top" xlink:title=" ">
<polygon fill="none" stroke="black" points="857.39,-56.5 857.39,-75.5 970.39,-75.5 970.39,-56.5 857.39,-56.5"/>
<text text-anchor="middle" x="913.89" y="-63.5" font-family="Helvetica,sans-Serif" font-size="10.00">utils/initializer_v2.h</text>
</a>
</g>
</g>
<!-- Node8&#45;&gt;Node9 -->
<g id="edge8" class="edge">
<title>Node8&#45;&gt;Node9</title>
<path fill="none" stroke="midnightblue" d="M413.39,-117.31C497.56,-110.48 681.02,-94.94 846.98,-76.06"/>
<polygon fill="midnightblue" stroke="midnightblue" points="847.85,-79.48 857.38,-74.87 847.05,-72.53 847.85,-79.48"/>
</g>
<!-- Node12 -->
<g id="node12" class="node">
<title>Node12</title>
<g id="a_node12"><a xlink:title=" ">
<polygon fill="none" stroke="#bfbfbf" points="614.89,-0.5 614.89,-19.5 658.89,-19.5 658.89,-0.5 614.89,-0.5"/>
<text text-anchor="middle" x="636.89" y="-7.5" font-family="Helvetica,sans-Serif" font-size="10.00">string</text>
</a>
</g>
</g>
<!-- Node8&#45;&gt;Node12 -->
<g id="edge19" class="edge">
<title>Node8&#45;&gt;Node12</title>
<path fill="none" stroke="midnightblue" d="M388.08,-112.37C435.69,-92.97 551.3,-45.87 606.53,-23.37"/>
<polygon fill="midnightblue" stroke="midnightblue" points="607.86,-26.61 615.8,-19.59 605.22,-20.12 607.86,-26.61"/>
</g>
<!-- Node16 -->
<g id="node16" class="node">
<title>Node16</title>
<g id="a_node16"><a xlink:title=" ">
<polygon fill="none" stroke="#bfbfbf" points="336.39,-56.5 336.39,-75.5 397.39,-75.5 397.39,-56.5 336.39,-56.5"/>
<text text-anchor="middle" x="366.89" y="-63.5" font-family="Helvetica,sans-Serif" font-size="10.00">io_utils.h</text>
</a>
</g>
</g>
<!-- Node8&#45;&gt;Node16 -->
<g id="edge17" class="edge">
<title>Node8&#45;&gt;Node16</title>
<path fill="none" stroke="midnightblue" d="M366.89,-112.08C366.89,-105.01 366.89,-94.86 366.89,-85.99"/>
<polygon fill="midnightblue" stroke="midnightblue" points="370.39,-85.75 366.89,-75.75 363.39,-85.75 370.39,-85.75"/>
</g>
<!-- Node17 -->
<g id="node17" class="node">
<title>Node17</title>
<g id="a_node17"><a xlink:title=" ">
<polygon fill="none" stroke="#bfbfbf" points="265.39,-0.5 265.39,-19.5 312.39,-19.5 312.39,-0.5 265.39,-0.5"/>
<text text-anchor="middle" x="288.89" y="-7.5" font-family="Helvetica,sans-Serif" font-size="10.00">cmath</text>
</a>
</g>
</g>
<!-- Node8&#45;&gt;Node17 -->
<g id="edge18" class="edge">
<title>Node8&#45;&gt;Node17</title>
<path fill="none" stroke="midnightblue" d="M358.38,-112.47C349.88,-103.73 336.71,-89.54 326.89,-76 315.88,-60.83 305.28,-42.25 298.08,-28.85"/>
<polygon fill="midnightblue" stroke="midnightblue" points="301.05,-26.97 293.29,-19.75 294.85,-30.23 301.05,-26.97"/>
</g>
<!-- Node18 -->
<g id="node18" class="node">
<title>Node18</title>
<g id="a_node18"><a xlink:title=" ">
<polygon fill="none" stroke="#bfbfbf" points="22.89,-0.5 22.89,-19.5 74.89,-19.5 74.89,-0.5 22.89,-0.5"/>
<text text-anchor="middle" x="48.89" y="-7.5" font-family="Helvetica,sans-Serif" font-size="10.00">cassert</text>
</a>
</g>
</g>
<!-- Node8&#45;&gt;Node18 -->
<g id="edge20" class="edge">
<title>Node8&#45;&gt;Node18</title>
<path fill="none" stroke="midnightblue" d="M320.17,-120.38C244.34,-118.37 99.25,-110.06 62.89,-76 50.4,-64.3 47.68,-44.36 47.61,-29.64"/>
<polygon fill="midnightblue" stroke="midnightblue" points="51.1,-29.74 47.94,-19.63 44.11,-29.51 51.1,-29.74"/>
</g>
<!-- Node9&#45;&gt;Node3 -->
<g id="edge12" class="edge">
<title>Node9&#45;&gt;Node3</title>
<path fill="none" stroke="midnightblue" d="M857.27,-57.02C781.7,-46.33 652.83,-27.94 606.77,-19.91"/>
<polygon fill="midnightblue" stroke="midnightblue" points="607.18,-16.43 596.71,-18.06 605.91,-23.31 607.18,-16.43"/>
</g>
<!-- Node9&#45;&gt;Node6 -->
<g id="edge13" class="edge">
<title>Node9&#45;&gt;Node6</title>
<path fill="none" stroke="midnightblue" d="M945.11,-56.44C981.2,-46.55 1040.4,-30.32 1077.42,-20.17"/>
<polygon fill="midnightblue" stroke="midnightblue" points="1078.52,-23.5 1087.24,-17.48 1076.67,-16.75 1078.52,-23.5"/>
</g>
<!-- Node10 -->
<g id="node10" class="node">
<title>Node10</title>
<g id="a_node10"><a xlink:title=" ">
<polygon fill="none" stroke="#bfbfbf" points="1008.89,-0.5 1008.89,-19.5 1068.89,-19.5 1068.89,-0.5 1008.89,-0.5"/>
<text text-anchor="middle" x="1038.89" y="-7.5" font-family="Helvetica,sans-Serif" font-size="10.00">iostream</text>
</a>
</g>
</g>
<!-- Node9&#45;&gt;Node10 -->
<g id="edge9" class="edge">
<title>Node9&#45;&gt;Node10</title>
<path fill="none" stroke="midnightblue" d="M933.7,-56.44C954.18,-47.6 986.37,-33.69 1009.76,-23.59"/>
<polygon fill="midnightblue" stroke="midnightblue" points="1011.38,-26.7 1019.18,-19.52 1008.61,-20.27 1011.38,-26.7"/>
</g>
<!-- Node11 -->
<g id="node11" class="node">
<title>Node11</title>
<g id="a_node11"><a xlink:title=" ">
<polygon fill="none" stroke="#bfbfbf" points="788.89,-0.5 788.89,-19.5 832.89,-19.5 832.89,-0.5 788.89,-0.5"/>
<text text-anchor="middle" x="810.89" y="-7.5" font-family="Helvetica,sans-Serif" font-size="10.00">regex</text>
</a>
</g>
</g>
<!-- Node9&#45;&gt;Node11 -->
<g id="edge10" class="edge">
<title>Node9&#45;&gt;Node11</title>
<path fill="none" stroke="midnightblue" d="M897.34,-56.32C880.9,-47.7 855.46,-34.36 836.42,-24.39"/>
<polygon fill="midnightblue" stroke="midnightblue" points="837.88,-21.2 827.4,-19.65 834.63,-27.4 837.88,-21.2"/>
</g>
<!-- Node9&#45;&gt;Node12 -->
<g id="edge11" class="edge">
<title>Node9&#45;&gt;Node12</title>
<path fill="none" stroke="midnightblue" d="M858.36,-56.5C810.53,-48.8 739.49,-36.48 669.1,-20.1"/>
<polygon fill="midnightblue" stroke="midnightblue" points="669.71,-16.65 659.17,-17.76 668.1,-23.46 669.71,-16.65"/>
</g>
<!-- Node13 -->
<g id="node13" class="node">
<title>Node13</title>
<g id="a_node13"><a xlink:title=" ">
<polygon fill="none" stroke="#bfbfbf" points="934.89,-0.5 934.89,-19.5 990.89,-19.5 990.89,-0.5 934.89,-0.5"/>
<text text-anchor="middle" x="962.89" y="-7.5" font-family="Helvetica,sans-Serif" font-size="10.00">sstream</text>
</a>
</g>
</g>
<!-- Node9&#45;&gt;Node13 -->
<g id="edge14" class="edge">
<title>Node9&#45;&gt;Node13</title>
<path fill="none" stroke="midnightblue" d="M921.98,-56.08C929.05,-48.3 939.48,-36.8 948.04,-27.37"/>
<polygon fill="midnightblue" stroke="midnightblue" points="950.82,-29.51 954.95,-19.75 945.64,-24.8 950.82,-29.51"/>
</g>
<!-- Node14 -->
<g id="node14" class="node">
<title>Node14</title>
<g id="a_node14"><a xlink:title=" ">
<polygon fill="none" stroke="#bfbfbf" points="851.39,-0.5 851.39,-19.5 916.39,-19.5 916.39,-0.5 851.39,-0.5"/>
<text text-anchor="middle" x="883.89" y="-7.5" font-family="Helvetica,sans-Serif" font-size="10.00">stdexcept</text>
</a>
</g>
</g>
<!-- Node9&#45;&gt;Node14 -->
<g id="edge15" class="edge">
<title>Node9&#45;&gt;Node14</title>
<path fill="none" stroke="midnightblue" d="M908.94,-56.08C904.79,-48.61 898.74,-37.72 893.62,-28.52"/>
<polygon fill="midnightblue" stroke="midnightblue" points="896.67,-26.79 888.75,-19.75 890.55,-30.19 896.67,-26.79"/>
</g>
<!-- Node15 -->
<g id="node15" class="node">
<title>Node15</title>
<g id="a_node15"><a xlink:title=" ">
<polygon fill="none" stroke="#bfbfbf" points="677.39,-0.5 677.39,-19.5 770.39,-19.5 770.39,-0.5 677.39,-0.5"/>
<text text-anchor="middle" x="723.89" y="-7.5" font-family="Helvetica,sans-Serif" font-size="10.00">unordered_map</text>
</a>
</g>
</g>
<!-- Node9&#45;&gt;Node15 -->
<g id="edge16" class="edge">
<title>Node9&#45;&gt;Node15</title>
<path fill="none" stroke="midnightblue" d="M883.78,-56.44C851.26,-47.2 799.31,-32.44 763.5,-22.26"/>
<polygon fill="midnightblue" stroke="midnightblue" points="764.43,-18.88 753.86,-19.52 762.52,-25.62 764.43,-18.88"/>
</g>
<!-- Node19&#45;&gt;Node8 -->
<g id="edge23" class="edge">
<title>Node19&#45;&gt;Node8</title>
<path fill="none" stroke="midnightblue" d="M185.12,-168.44C222.4,-159.12 282.16,-144.18 322.9,-134"/>
<polygon fill="midnightblue" stroke="midnightblue" points="323.97,-137.34 332.82,-131.52 322.27,-130.55 323.97,-137.34"/>
</g>
<!-- Node19&#45;&gt;Node17 -->
<g id="edge22" class="edge">
<title>Node19&#45;&gt;Node17</title>
<path fill="none" stroke="midnightblue" d="M183.88,-168.44C204.23,-161.62 229.49,-150.14 245.89,-132 272.46,-102.61 282.86,-55.72 286.74,-29.78"/>
<polygon fill="midnightblue" stroke="midnightblue" points="290.22,-30.15 288.06,-19.77 283.28,-29.23 290.22,-30.15"/>
</g>
<!-- Node20&#45;&gt;Node8 -->
<g id="edge26" class="edge">
<title>Node20&#45;&gt;Node8</title>
<path fill="none" stroke="midnightblue" d="M262.81,-224.49C283.55,-217.41 310.77,-205.6 329.89,-188 343.9,-175.11 354,-155.66 360.07,-141.4"/>
<polygon fill="midnightblue" stroke="midnightblue" points="363.49,-142.28 363.93,-131.69 356.98,-139.69 363.49,-142.28"/>
</g>
<!-- Node20&#45;&gt;Node19 -->
<g id="edge27" class="edge">
<title>Node20&#45;&gt;Node19</title>
<path fill="none" stroke="midnightblue" d="M219.72,-224.32C207.04,-215.98 187.66,-203.21 172.68,-193.35"/>
<polygon fill="midnightblue" stroke="midnightblue" points="174.31,-190.23 164.03,-187.65 170.46,-196.08 174.31,-190.23"/>
</g>
<!-- Node21 -->
<g id="node21" class="node">
<title>Node21</title>
<g id="a_node21"><a xlink:title=" ">
<polygon fill="none" stroke="#bfbfbf" points="450.39,-0.5 450.39,-19.5 509.39,-19.5 509.39,-0.5 450.39,-0.5"/>
<text text-anchor="middle" x="479.89" y="-7.5" font-family="Helvetica,sans-Serif" font-size="10.00">phydro.h</text>
</a>
</g>
</g>
<!-- Node20&#45;&gt;Node21 -->
<g id="edge25" class="edge">
<title>Node20&#45;&gt;Node21</title>
<path fill="none" stroke="midnightblue" d="M265.15,-224.48C307.52,-211.61 381.27,-183.12 421.89,-132 447.52,-99.75 465.42,-54.32 474.03,-29.31"/>
<polygon fill="midnightblue" stroke="midnightblue" points="477.41,-30.24 477.25,-19.65 470.77,-28.04 477.41,-30.24"/>
</g>
<!-- Node22 -->
<g id="node22" class="node">
<title>Node22</title>
<g id="a_node22"><a xlink:href="assimilation_8tpp.html" target="_top" xlink:title=" ">
<polygon fill="none" stroke="black" points="226.39,-168.5 226.39,-187.5 321.39,-187.5 321.39,-168.5 226.39,-168.5"/>
<text text-anchor="middle" x="273.89" y="-175.5" font-family="Helvetica,sans-Serif" font-size="10.00">assimilation.tpp</text>
</a>
</g>
</g>
<!-- Node20&#45;&gt;Node22 -->
<g id="edge28" class="edge">
<title>Node20&#45;&gt;Node22</title>
<path fill="none" stroke="midnightblue" d="M239.66,-224.08C245.45,-216.46 253.95,-205.26 261.03,-195.94"/>
<polygon fill="midnightblue" stroke="midnightblue" points="263.99,-197.83 267.25,-187.75 258.41,-193.6 263.99,-197.83"/>
</g>
<!-- Node23&#45;&gt;Node3 -->
<g id="edge30" class="edge">
<title>Node23&#45;&gt;Node3</title>
<path fill="none" stroke="midnightblue" d="M351.96,-285.16C400.35,-276.17 501.89,-248.98 501.89,-179 501.89,-179 501.89,-179 501.89,-121 501.89,-90.2 509.58,-82.12 525.89,-56 532.66,-45.16 542.34,-34.74 550.81,-26.66"/>
<polygon fill="midnightblue" stroke="midnightblue" points="553.41,-29.02 558.42,-19.69 548.68,-23.86 553.41,-29.02"/>
</g>
<!-- Node23&#45;&gt;Node8 -->
<g id="edge31" class="edge">
<title>Node23&#45;&gt;Node8</title>
<path fill="none" stroke="midnightblue" d="M338.43,-280.49C348.37,-272.38 362.01,-259.18 367.89,-244 381.12,-209.84 375.86,-166.07 371.16,-141.64"/>
<polygon fill="midnightblue" stroke="midnightblue" points="374.54,-140.66 369.05,-131.6 367.69,-142.1 374.54,-140.66"/>
</g>
<!-- Node23&#45;&gt;Node9 -->
<g id="edge42" class="edge">
<title>Node23&#45;&gt;Node9</title>
<path fill="none" stroke="midnightblue" d="M351.98,-284.27C388.49,-277.11 458.2,-262.38 515.89,-244 642.81,-203.57 673.36,-188.7 793.89,-132 828.34,-115.8 866.81,-94.33 890.69,-80.59"/>
<polygon fill="midnightblue" stroke="midnightblue" points="892.49,-83.59 899.39,-75.55 888.98,-77.53 892.49,-83.59"/>
</g>
<!-- Node23&#45;&gt;Node19 -->
<g id="edge32" class="edge">
<title>Node23&#45;&gt;Node19</title>
<path fill="none" stroke="midnightblue" d="M301.69,-287.4C269.96,-284.14 215.43,-274.21 180.89,-244 167.02,-231.87 159.16,-212 154.99,-197.41"/>
<polygon fill="midnightblue" stroke="midnightblue" points="158.33,-196.35 152.49,-187.51 151.55,-198.06 158.33,-196.35"/>
</g>
<!-- Node23&#45;&gt;Node20 -->
<g id="edge33" class="edge">
<title>Node23&#45;&gt;Node20</title>
<path fill="none" stroke="midnightblue" d="M311.79,-280.32C296.99,-271.82 274.2,-258.73 256.91,-248.8"/>
<polygon fill="midnightblue" stroke="midnightblue" points="258.37,-245.6 247.96,-243.65 254.88,-251.67 258.37,-245.6"/>
</g>
<!-- Node24 -->
<g id="node24" class="node">
<title>Node24</title>
<g id="a_node24"><a xlink:href="rk4_8h.html" target="_top" xlink:title=" ">
<polygon fill="none" stroke="black" points="294.39,-224.5 294.39,-243.5 359.39,-243.5 359.39,-224.5 294.39,-224.5"/>
<text text-anchor="middle" x="326.89" y="-231.5" font-family="Helvetica,sans-Serif" font-size="10.00">utils/rk4.h</text>
</a>
</g>
</g>
<!-- Node23&#45;&gt;Node24 -->
<g id="edge34" class="edge">
<title>Node23&#45;&gt;Node24</title>
<path fill="none" stroke="midnightblue" d="M326.89,-280.08C326.89,-273.01 326.89,-262.86 326.89,-253.99"/>
<polygon fill="midnightblue" stroke="midnightblue" points="330.39,-253.75 326.89,-243.75 323.39,-253.75 330.39,-253.75"/>
</g>
<!-- Node25 -->
<g id="node25" class="node">
<title>Node25</title>
<g id="a_node25"><a xlink:href="moving__average_8h.html" target="_top" xlink:title=" ">
<polygon fill="none" stroke="black" points="72.39,-56.5 72.39,-75.5 203.39,-75.5 203.39,-56.5 72.39,-56.5"/>
<text text-anchor="middle" x="137.89" y="-63.5" font-family="Helvetica,sans-Serif" font-size="10.00">utils/moving_average.h</text>
</a>
</g>
</g>
<!-- Node23&#45;&gt;Node25 -->
<g id="edge35" class="edge">
<title>Node23&#45;&gt;Node25</title>
<path fill="none" stroke="midnightblue" d="M301.73,-285.27C231.93,-274.33 38.9,-239.79 6.89,-188 -22.8,-139.95 56.35,-98.94 104.3,-79.33"/>
<polygon fill="midnightblue" stroke="midnightblue" points="105.71,-82.53 113.71,-75.59 103.13,-76.03 105.71,-82.53"/>
</g>
<!-- Node28 -->
<g id="node28" class="node">
<title>Node28</title>
<g id="a_node28"><a xlink:href="plant_8tpp.html" target="_top" xlink:title=" ">
<polygon fill="none" stroke="black" points="15.89,-168.5 15.89,-187.5 75.89,-187.5 75.89,-168.5 15.89,-168.5"/>
<text text-anchor="middle" x="45.89" y="-175.5" font-family="Helvetica,sans-Serif" font-size="10.00">plant.tpp</text>
</a>
</g>
</g>
<!-- Node23&#45;&gt;Node28 -->
<g id="edge43" class="edge">
<title>Node23&#45;&gt;Node28</title>
<path fill="none" stroke="midnightblue" d="M301.67,-284.13C268.75,-277.33 209.7,-263.57 161.89,-244 127.34,-229.86 90.15,-207.64 67.44,-193.2"/>
<polygon fill="midnightblue" stroke="midnightblue" points="69.23,-190.19 58.93,-187.71 65.44,-196.07 69.23,-190.19"/>
</g>
<!-- Node25&#45;&gt;Node6 -->
<g id="edge40" class="edge">
<title>Node25&#45;&gt;Node6</title>
<path fill="none" stroke="midnightblue" d="M203.51,-61.87C402.79,-52.36 992.11,-24.24 1077.1,-18.89"/>
<polygon fill="midnightblue" stroke="midnightblue" points="1077.53,-22.37 1087.23,-18.12 1076.99,-15.39 1077.53,-22.37"/>
</g>
<!-- Node25&#45;&gt;Node10 -->
<g id="edge36" class="edge">
<title>Node25&#45;&gt;Node10</title>
<path fill="none" stroke="midnightblue" d="M203.42,-61.89C388.77,-53.06 908.71,-28.01 998.69,-19.62"/>
<polygon fill="midnightblue" stroke="midnightblue" points="999.2,-23.08 1008.75,-18.5 998.43,-16.12 999.2,-23.08"/>
</g>
<!-- Node25&#45;&gt;Node17 -->
<g id="edge38" class="edge">
<title>Node25&#45;&gt;Node17</title>
<path fill="none" stroke="midnightblue" d="M161.82,-56.44C187.11,-47.4 227.19,-33.06 255.57,-22.92"/>
<polygon fill="midnightblue" stroke="midnightblue" points="256.84,-26.18 265.08,-19.52 254.48,-19.59 256.84,-26.18"/>
</g>
<!-- Node25&#45;&gt;Node18 -->
<g id="edge39" class="edge">
<title>Node25&#45;&gt;Node18</title>
<path fill="none" stroke="midnightblue" d="M123.59,-56.32C109.71,-47.9 88.4,-34.97 72.09,-25.07"/>
<polygon fill="midnightblue" stroke="midnightblue" points="73.52,-21.85 63.15,-19.65 69.89,-27.83 73.52,-21.85"/>
</g>
<!-- Node26 -->
<g id="node26" class="node">
<title>Node26</title>
<g id="a_node26"><a xlink:title=" ">
<polygon fill="none" stroke="#bfbfbf" points="178.89,-0.5 178.89,-19.5 210.89,-19.5 210.89,-0.5 178.89,-0.5"/>
<text text-anchor="middle" x="194.89" y="-7.5" font-family="Helvetica,sans-Serif" font-size="10.00">list</text>
</a>
</g>
</g>
<!-- Node25&#45;&gt;Node26 -->
<g id="edge37" class="edge">
<title>Node25&#45;&gt;Node26</title>
<path fill="none" stroke="midnightblue" d="M147.05,-56.32C155.39,-48.42 167.92,-36.55 178.07,-26.94"/>
<polygon fill="midnightblue" stroke="midnightblue" points="180.71,-29.25 185.57,-19.83 175.9,-24.17 180.71,-29.25"/>
</g>
<!-- Node27 -->
<g id="node27" class="node">
<title>Node27</title>
<g id="a_node27"><a xlink:title=" ">
<polygon fill="none" stroke="#bfbfbf" points="96.89,-0.5 96.89,-19.5 160.89,-19.5 160.89,-0.5 96.89,-0.5"/>
<text text-anchor="middle" x="128.89" y="-7.5" font-family="Helvetica,sans-Serif" font-size="10.00">algorithm</text>
</a>
</g>
</g>
<!-- Node25&#45;&gt;Node27 -->
<g id="edge41" class="edge">
<title>Node25&#45;&gt;Node27</title>
<path fill="none" stroke="midnightblue" d="M136.4,-56.08C135.21,-48.93 133.5,-38.64 132.01,-29.69"/>
<polygon fill="midnightblue" stroke="midnightblue" points="135.45,-29.04 130.35,-19.75 128.54,-30.19 135.45,-29.04"/>
</g>
<!-- Node28&#45;&gt;Node17 -->
<g id="edge44" class="edge">
<title>Node28&#45;&gt;Node17</title>
<path fill="none" stroke="midnightblue" d="M61.97,-168.31C92.23,-151.73 159.32,-113.84 211.89,-76 233.46,-60.48 256.53,-40.5 271.74,-26.81"/>
<polygon fill="midnightblue" stroke="midnightblue" points="274.27,-29.24 279.32,-19.92 269.56,-24.06 274.27,-29.24"/>
</g>
<!-- Node29&#45;&gt;Node3 -->
<g id="edge47" class="edge">
<title>Node29&#45;&gt;Node3</title>
<path fill="none" stroke="midnightblue" d="M657.86,-56.32C640.86,-47.66 614.51,-34.24 594.9,-24.25"/>
<polygon fill="midnightblue" stroke="midnightblue" points="596.38,-21.08 585.88,-19.65 593.2,-27.31 596.38,-21.08"/>
</g>
<!-- Node29&#45;&gt;Node6 -->
<g id="edge51" class="edge">
<title>Node29&#45;&gt;Node6</title>
<path fill="none" stroke="midnightblue" d="M706.01,-61.38C720.29,-59.72 737.45,-57.75 752.89,-56 894.05,-40.04 933.38,-46.88 1077.12,-19.85"/>
<polygon fill="midnightblue" stroke="midnightblue" points="1078.03,-23.24 1087.2,-17.94 1076.72,-16.37 1078.03,-23.24"/>
</g>
<!-- Node29&#45;&gt;Node10 -->
<g id="edge49" class="edge">
<title>Node29&#45;&gt;Node10</title>
<path fill="none" stroke="midnightblue" d="M705.91,-61.06C772.35,-52.58 927.5,-32.46 998.47,-20.09"/>
<polygon fill="midnightblue" stroke="midnightblue" points="999.49,-23.46 1008.71,-18.24 998.25,-16.57 999.49,-23.46"/>
</g>
<!-- Node29&#45;&gt;Node12 -->
<g id="edge46" class="edge">
<title>Node29&#45;&gt;Node12</title>
<path fill="none" stroke="midnightblue" d="M668.62,-56.08C663.25,-48.46 655.37,-37.26 648.81,-27.94"/>
<polygon fill="midnightblue" stroke="midnightblue" points="651.67,-25.91 643.05,-19.75 645.94,-29.94 651.67,-25.91"/>
</g>
<!-- Node29&#45;&gt;Node13 -->
<g id="edge48" class="edge">
<title>Node29&#45;&gt;Node13</title>
<path fill="none" stroke="midnightblue" d="M706.18,-59.93C753.62,-52.12 846.53,-36.32 924.89,-20 924.99,-19.98 925.09,-19.96 925.19,-19.94"/>
<polygon fill="midnightblue" stroke="midnightblue" points="925.69,-23.41 934.71,-17.86 924.19,-16.57 925.69,-23.41"/>
</g>
<!-- Node29&#45;&gt;Node17 -->
<g id="edge50" class="edge">
<title>Node29&#45;&gt;Node17</title>
<path fill="none" stroke="midnightblue" d="M643.63,-60.63C572.12,-50.62 397.11,-26.14 322.97,-15.77"/>
<polygon fill="midnightblue" stroke="midnightblue" points="323.17,-12.26 312.78,-14.34 322.2,-19.19 323.17,-12.26"/>
</g>
<!-- Node29&#45;&gt;Node21 -->
<g id="edge52" class="edge">
<title>Node29&#45;&gt;Node21</title>
<path fill="none" stroke="midnightblue" d="M643.99,-56.44C610.32,-47.12 556.35,-32.17 519.57,-21.99"/>
<polygon fill="midnightblue" stroke="midnightblue" points="520.26,-18.55 509.68,-19.25 518.39,-25.29 520.26,-18.55"/>
</g>
<!-- Node30&#45;&gt;Node3 -->
<g id="edge55" class="edge">
<title>Node30&#45;&gt;Node3</title>
<path fill="none" stroke="midnightblue" d="M709.03,-112.49C688.21,-104.73 658.23,-92.04 634.89,-76 614.7,-62.12 595.16,-41.73 582.65,-27.51"/>
<polygon fill="midnightblue" stroke="midnightblue" points="585,-24.86 575.83,-19.55 579.68,-29.42 585,-24.86"/>
</g>
<!-- Node30&#45;&gt;Node6 -->
<g id="edge59" class="edge">
<title>Node30&#45;&gt;Node6</title>
<path fill="none" stroke="midnightblue" d="M784.91,-119.89C843.43,-117.07 941.27,-107.53 1018.89,-76 1047.85,-64.24 1076.51,-41.82 1093.96,-26.64"/>
<polygon fill="midnightblue" stroke="midnightblue" points="1096.44,-29.12 1101.58,-19.85 1091.78,-23.9 1096.44,-29.12"/>
</g>
<!-- Node30&#45;&gt;Node10 -->
<g id="edge57" class="edge">
<title>Node30&#45;&gt;Node10</title>
<path fill="none" stroke="midnightblue" d="M784.97,-117.04C851.11,-111.11 961.93,-98.17 995.89,-76 1013.01,-64.82 1024.91,-44.19 1031.78,-29.16"/>
<polygon fill="midnightblue" stroke="midnightblue" points="1035.05,-30.41 1035.73,-19.84 1028.6,-27.68 1035.05,-30.41"/>
</g>
<!-- Node30&#45;&gt;Node12 -->
<g id="edge54" class="edge">
<title>Node30&#45;&gt;Node12</title>
<path fill="none" stroke="midnightblue" d="M733.36,-112.06C732.14,-98.58 728.11,-72.83 714.89,-56 703.05,-40.93 684.67,-29.98 668.73,-22.65"/>
<polygon fill="midnightblue" stroke="midnightblue" points="669.76,-19.29 659.19,-18.56 667,-25.72 669.76,-19.29"/>
</g>
<!-- Node30&#45;&gt;Node13 -->
<g id="edge56" class="edge">
<title>Node30&#45;&gt;Node13</title>
<path fill="none" stroke="midnightblue" d="M784.95,-119.05C849.38,-115.4 954.7,-105.03 978.89,-76 990.01,-62.65 982.69,-42.73 974.67,-28.46"/>
<polygon fill="midnightblue" stroke="midnightblue" points="977.45,-26.31 969.22,-19.63 971.5,-29.98 977.45,-26.31"/>
</g>
<!-- Node30&#45;&gt;Node17 -->
<g id="edge58" class="edge">
<title>Node30&#45;&gt;Node17</title>
<path fill="none" stroke="midnightblue" d="M699.34,-112.46C616.02,-91.86 404.8,-39.65 322.47,-19.3"/>
<polygon fill="midnightblue" stroke="midnightblue" points="323.19,-15.87 312.64,-16.87 321.51,-22.67 323.19,-15.87"/>
</g>
<!-- Node30&#45;&gt;Node29 -->
<g id="edge60" class="edge">
<title>Node30&#45;&gt;Node29</title>
<path fill="none" stroke="midnightblue" d="M724.41,-112.32C715.69,-104.34 702.55,-92.31 691.99,-82.65"/>
<polygon fill="midnightblue" stroke="midnightblue" points="694.28,-80 684.54,-75.83 689.56,-85.17 694.28,-80"/>
</g>
<!-- Node31 -->
<g id="node31" class="node">
<title>Node31</title>
<g id="a_node31"><a xlink:title=" ">
<polygon fill="none" stroke="#bfbfbf" points="762.39,-56.5 762.39,-75.5 839.39,-75.5 839.39,-56.5 762.39,-56.5"/>
<text text-anchor="middle" x="800.89" y="-63.5" font-family="Helvetica,sans-Serif" font-size="10.00">csvstream.h</text>
</a>
</g>
</g>
<!-- Node30&#45;&gt;Node31 -->
<g id="edge61" class="edge">
<title>Node30&#45;&gt;Node31</title>
<path fill="none" stroke="midnightblue" d="M744.66,-112.32C754.66,-104.26 769.78,-92.08 781.82,-82.37"/>
<polygon fill="midnightblue" stroke="midnightblue" points="784.34,-84.83 789.93,-75.83 779.95,-79.38 784.34,-84.83"/>
</g>
<!-- Node32&#45;&gt;Node6 -->
<g id="edge64" class="edge">
<title>Node32&#45;&gt;Node6</title>
<path fill="none" stroke="midnightblue" d="M1184.75,-56.32C1171.02,-47.9 1149.95,-34.97 1133.83,-25.07"/>
<polygon fill="midnightblue" stroke="midnightblue" points="1135.35,-21.9 1124.99,-19.65 1131.69,-27.87 1135.35,-21.9"/>
</g>
<!-- Node32&#45;&gt;Node10 -->
<g id="edge63" class="edge">
<title>Node32&#45;&gt;Node10</title>
<path fill="none" stroke="midnightblue" d="M1173.54,-56.44C1146.62,-47.36 1103.89,-32.94 1073.8,-22.78"/>
<polygon fill="midnightblue" stroke="midnightblue" points="1074.72,-19.4 1064.12,-19.52 1072.48,-26.03 1074.72,-19.4"/>
</g>
<!-- Node33 -->
<g id="node33" class="node">
<title>Node33</title>
<g id="a_node33"><a xlink:title=" ">
<polygon fill="none" stroke="#bfbfbf" points="1236.89,-0.5 1236.89,-19.5 1352.89,-19.5 1352.89,-0.5 1236.89,-0.5"/>
<text text-anchor="middle" x="1294.89" y="-7.5" font-family="Helvetica,sans-Serif" font-size="10.00">environment_base.h</text>
</a>
</g>
</g>
<!-- Node32&#45;&gt;Node33 -->
<g id="edge65" class="edge">
<title>Node32&#45;&gt;Node33</title>
<path fill="none" stroke="midnightblue" d="M1214.31,-56.32C1229.43,-47.82 1252.71,-34.73 1270.36,-24.8"/>
<polygon fill="midnightblue" stroke="midnightblue" points="1272.5,-27.61 1279.5,-19.65 1269.07,-21.51 1272.5,-27.61"/>
</g>
<!-- Node34 -->
<g id="node34" class="node">
<title>Node34</title>
<g id="a_node34"><a xlink:title=" ">
<polygon fill="none" stroke="#bfbfbf" points="1162.89,-0.5 1162.89,-19.5 1218.89,-19.5 1218.89,-0.5 1162.89,-0.5"/>
<text text-anchor="middle" x="1190.89" y="-7.5" font-family="Helvetica,sans-Serif" font-size="10.00">solver.h</text>
</a>
</g>
</g>
<!-- Node32&#45;&gt;Node34 -->
<g id="edge66" class="edge">
<title>Node32&#45;&gt;Node34</title>
<path fill="none" stroke="midnightblue" d="M1197.57,-56.08C1196.51,-48.93 1194.98,-38.64 1193.66,-29.69"/>
<polygon fill="midnightblue" stroke="midnightblue" points="1197.11,-29.13 1192.19,-19.75 1190.19,-30.16 1197.11,-29.13"/>
</g>
</g>
</svg>
