<?xml version="1.0" encoding="UTF-8" standalone="no"?>
<!DOCTYPE svg PUBLIC "-//W3C//DTD SVG 1.1//EN"
 "http://www.w3.org/Graphics/SVG/1.1/DTD/svg11.dtd">
<!-- Generated by graphviz version 2.43.0 (0)
 -->
<!-- Title: src/life_history.cpp Pages: 1 -->
<svg width="1226pt" height="420pt"
 viewBox="0.00 0.00 1225.94 420.00" xmlns="http://www.w3.org/2000/svg" xmlns:xlink="http://www.w3.org/1999/xlink">
<g id="graph0" class="graph" transform="scale(1 1) rotate(0) translate(4 416)">
<title>src/life_history.cpp</title>
<!-- Node1 -->
<g id="node1" class="node">
<title>Node1</title>
<g id="a_node1"><a xlink:title=" ">
<polygon fill="#bfbfbf" stroke="black" points="240.44,-392.5 240.44,-411.5 347.44,-411.5 347.44,-392.5 240.44,-392.5"/>
<text text-anchor="middle" x="293.94" y="-399.5" font-family="Helvetica,sans-Serif" font-size="10.00">src/life_history.cpp</text>
</a>
</g>
</g>
<!-- Node2 -->
<g id="node2" class="node">
<title>Node2</title>
<g id="a_node2"><a xlink:href="life__history_8h.html" target="_top" xlink:title=" ">
<polygon fill="none" stroke="black" points="562.44,-336.5 562.44,-355.5 641.44,-355.5 641.44,-336.5 562.44,-336.5"/>
<text text-anchor="middle" x="601.94" y="-343.5" font-family="Helvetica,sans-Serif" font-size="10.00">life_history.h</text>
</a>
</g>
</g>
<!-- Node1&#45;&gt;Node2 -->
<g id="edge1" class="edge">
<title>Node1&#45;&gt;Node2</title>
<path fill="none" stroke="midnightblue" d="M342.74,-392.44C400.03,-382.4 494.52,-365.83 552.2,-355.72"/>
<polygon fill="midnightblue" stroke="midnightblue" points="552.93,-359.15 562.18,-353.97 551.72,-352.25 552.93,-359.15"/>
</g>
<!-- Node14 -->
<g id="node14" class="node">
<title>Node14</title>
<g id="a_node14"><a xlink:title=" ">
<polygon fill="none" stroke="#bfbfbf" points="17.44,-56.5 17.44,-75.5 78.44,-75.5 78.44,-56.5 17.44,-56.5"/>
<text text-anchor="middle" x="47.94" y="-63.5" font-family="Helvetica,sans-Serif" font-size="10.00">io_utils.h</text>
</a>
</g>
</g>
<!-- Node1&#45;&gt;Node14 -->
<g id="edge65" class="edge">
<title>Node1&#45;&gt;Node14</title>
<path fill="none" stroke="midnightblue" d="M240.23,-401.62C162.26,-399.39 26.94,-382.37 26.94,-291 26.94,-291 26.94,-291 26.94,-177 26.94,-144.38 35.96,-107.28 42.17,-85.57"/>
<polygon fill="midnightblue" stroke="midnightblue" points="45.61,-86.32 45.11,-75.73 38.9,-84.32 45.61,-86.32"/>
</g>
<!-- Node3 -->
<g id="node3" class="node">
<title>Node3</title>
<g id="a_node3"><a xlink:title=" ">
<polygon fill="none" stroke="#bfbfbf" points="941.44,-0.5 941.44,-19.5 988.44,-19.5 988.44,-0.5 941.44,-0.5"/>
<text text-anchor="middle" x="964.94" y="-7.5" font-family="Helvetica,sans-Serif" font-size="10.00">vector</text>
</a>
</g>
</g>
<!-- Node2&#45;&gt;Node3 -->
<g id="edge2" class="edge">
<title>Node2&#45;&gt;Node3</title>
<path fill="none" stroke="midnightblue" d="M641.45,-343.17C746.71,-337.22 1025.94,-313.99 1025.94,-235 1025.94,-235 1025.94,-235 1025.94,-121 1025.94,-83.57 998.6,-46.96 980.53,-26.84"/>
<polygon fill="midnightblue" stroke="midnightblue" points="983.06,-24.43 973.68,-19.51 977.94,-29.21 983.06,-24.43"/>
</g>
<!-- Node4 -->
<g id="node4" class="node">
<title>Node4</title>
<g id="a_node4"><a xlink:title=" ">
<polygon fill="none" stroke="#bfbfbf" points="630.44,-280.5 630.44,-299.5 687.44,-299.5 687.44,-280.5 630.44,-280.5"/>
<text text-anchor="middle" x="658.94" y="-287.5" font-family="Helvetica,sans-Serif" font-size="10.00">ostream</text>
</a>
</g>
</g>
<!-- Node2&#45;&gt;Node4 -->
<g id="edge3" class="edge">
<title>Node2&#45;&gt;Node4</title>
<path fill="none" stroke="midnightblue" d="M611.1,-336.32C619.44,-328.42 631.97,-316.55 642.12,-306.94"/>
<polygon fill="midnightblue" stroke="midnightblue" points="644.76,-309.25 649.61,-299.83 639.95,-304.17 644.76,-309.25"/>
</g>
<!-- Node5 -->
<g id="node5" class="node">
<title>Node5</title>
<g id="a_node5"><a xlink:href="traits__params_8h.html" target="_top" xlink:title=" ">
<polygon fill="none" stroke="black" points="82.44,-112.5 82.44,-131.5 175.44,-131.5 175.44,-112.5 82.44,-112.5"/>
<text text-anchor="middle" x="128.94" y="-119.5" font-family="Helvetica,sans-Serif" font-size="10.00">traits_params.h</text>
</a>
</g>
</g>
<!-- Node2&#45;&gt;Node5 -->
<g id="edge4" class="edge">
<title>Node2&#45;&gt;Node5</title>
<path fill="none" stroke="midnightblue" d="M571.63,-336.43C545.39,-328.51 506.75,-315.61 474.94,-300 433.66,-279.74 424.1,-272.41 387.94,-244 349.37,-213.71 350.91,-191.64 307.94,-168 269.96,-147.1 222.14,-135.72 185.48,-129.64"/>
<polygon fill="midnightblue" stroke="midnightblue" points="185.87,-126.16 175.45,-128.06 184.78,-133.08 185.87,-126.16"/>
</g>
<!-- Node17 -->
<g id="node17" class="node">
<title>Node17</title>
<g id="a_node17"><a xlink:href="plant__architecture_8h.html" target="_top" xlink:title=" ">
<polygon fill="none" stroke="black" points="54.94,-168.5 54.94,-187.5 168.94,-187.5 168.94,-168.5 54.94,-168.5"/>
<text text-anchor="middle" x="111.94" y="-175.5" font-family="Helvetica,sans-Serif" font-size="10.00">plant_architecture.h</text>
</a>
</g>
</g>
<!-- Node2&#45;&gt;Node17 -->
<g id="edge18" class="edge">
<title>Node2&#45;&gt;Node17</title>
<path fill="none" stroke="midnightblue" d="M562.3,-344.4C483.05,-341.41 302.2,-325.44 179.94,-244 159.03,-230.07 138.7,-209.42 125.8,-195.15"/>
<polygon fill="midnightblue" stroke="midnightblue" points="128.36,-192.76 119.12,-187.58 123.11,-197.39 128.36,-192.76"/>
</g>
<!-- Node18 -->
<g id="node18" class="node">
<title>Node18</title>
<g id="a_node18"><a xlink:href="assimilation_8h.html" target="_top" xlink:title=" ">
<polygon fill="none" stroke="black" points="234.94,-224.5 234.94,-243.5 320.94,-243.5 320.94,-224.5 234.94,-224.5"/>
<text text-anchor="middle" x="277.94" y="-231.5" font-family="Helvetica,sans-Serif" font-size="10.00">assimilation.h</text>
</a>
</g>
</g>
<!-- Node2&#45;&gt;Node18 -->
<g id="edge21" class="edge">
<title>Node2&#45;&gt;Node18</title>
<path fill="none" stroke="midnightblue" d="M562.31,-341.6C497.76,-335.52 373.27,-321.39 334.94,-300 314.75,-288.74 298.22,-267.49 288.26,-252.36"/>
<polygon fill="midnightblue" stroke="midnightblue" points="291.21,-250.48 282.93,-243.87 285.28,-254.2 291.21,-250.48"/>
</g>
<!-- Node21 -->
<g id="node21" class="node">
<title>Node21</title>
<g id="a_node21"><a xlink:href="plant_8h.html" target="_top" xlink:title=" ">
<polygon fill="none" stroke="black" points="483.94,-280.5 483.94,-299.5 533.94,-299.5 533.94,-280.5 483.94,-280.5"/>
<text text-anchor="middle" x="508.94" y="-287.5" font-family="Helvetica,sans-Serif" font-size="10.00">plant.h</text>
</a>
</g>
</g>
<!-- Node2&#45;&gt;Node21 -->
<g id="edge26" class="edge">
<title>Node2&#45;&gt;Node21</title>
<path fill="none" stroke="midnightblue" d="M587,-336.32C572.35,-327.82 549.81,-314.73 532.7,-304.8"/>
<polygon fill="midnightblue" stroke="midnightblue" points="534.25,-301.65 523.84,-299.65 530.73,-307.7 534.25,-301.65"/>
</g>
<!-- Node27 -->
<g id="node27" class="node">
<title>Node27</title>
<g id="a_node27"><a xlink:href="climate_8h.html" target="_top" xlink:title=" ">
<polygon fill="none" stroke="black" points="649.94,-56.5 649.94,-75.5 711.94,-75.5 711.94,-56.5 649.94,-56.5"/>
<text text-anchor="middle" x="680.94" y="-63.5" font-family="Helvetica,sans-Serif" font-size="10.00">climate.h</text>
</a>
</g>
</g>
<!-- Node2&#45;&gt;Node27 -->
<g id="edge42" class="edge">
<title>Node2&#45;&gt;Node27</title>
<path fill="none" stroke="midnightblue" d="M604.39,-336.38C615.38,-297.7 660.25,-139.79 675.69,-85.47"/>
<polygon fill="midnightblue" stroke="midnightblue" points="679.15,-86.1 678.52,-75.52 672.42,-84.19 679.15,-86.1"/>
</g>
<!-- Node28 -->
<g id="node28" class="node">
<title>Node28</title>
<g id="a_node28"><a xlink:href="climate__stream_8h.html" target="_top" xlink:title=" ">
<polygon fill="none" stroke="black" points="726.94,-112.5 726.94,-131.5 828.94,-131.5 828.94,-112.5 726.94,-112.5"/>
<text text-anchor="middle" x="777.94" y="-119.5" font-family="Helvetica,sans-Serif" font-size="10.00">climate_stream.h</text>
</a>
</g>
</g>
<!-- Node2&#45;&gt;Node28 -->
<g id="edge50" class="edge">
<title>Node2&#45;&gt;Node28</title>
<path fill="none" stroke="midnightblue" d="M641.84,-341.95C695.05,-336.96 784.89,-324.99 804.94,-300 842.84,-252.78 807.44,-174.95 788.34,-140.43"/>
<polygon fill="midnightblue" stroke="midnightblue" points="791.25,-138.48 783.24,-131.54 785.18,-141.96 791.25,-138.48"/>
</g>
<!-- Node30 -->
<g id="node30" class="node">
<title>Node30</title>
<g id="a_node30"><a xlink:href="light__environment_8h.html" target="_top" xlink:title=" ">
<polygon fill="none" stroke="black" points="1054.44,-56.5 1054.44,-75.5 1169.44,-75.5 1169.44,-56.5 1054.44,-56.5"/>
<text text-anchor="middle" x="1111.94" y="-63.5" font-family="Helvetica,sans-Serif" font-size="10.00">light_environment.h</text>
</a>
</g>
</g>
<!-- Node2&#45;&gt;Node30 -->
<g id="edge59" class="edge">
<title>Node2&#45;&gt;Node30</title>
<path fill="none" stroke="midnightblue" d="M641.47,-344.96C736.04,-344.23 972.47,-338.5 1039.94,-300 1071.13,-282.2 1087.94,-270.91 1087.94,-235 1087.94,-235 1087.94,-235 1087.94,-177 1087.94,-144.06 1098.34,-106.82 1105.45,-85.21"/>
<polygon fill="midnightblue" stroke="midnightblue" points="1108.78,-86.29 1108.7,-75.7 1102.15,-84.03 1108.78,-86.29"/>
</g>
<!-- Node33 -->
<g id="node33" class="node">
<title>Node33</title>
<g id="a_node33"><a xlink:title=" ">
<polygon fill="none" stroke="#bfbfbf" points="705.94,-280.5 705.94,-299.5 795.94,-299.5 795.94,-280.5 705.94,-280.5"/>
<text text-anchor="middle" x="750.94" y="-287.5" font-family="Helvetica,sans-Serif" font-size="10.00">time_stepper.h</text>
</a>
</g>
</g>
<!-- Node2&#45;&gt;Node33 -->
<g id="edge64" class="edge">
<title>Node2&#45;&gt;Node33</title>
<path fill="none" stroke="midnightblue" d="M625.55,-336.44C650.4,-327.44 689.71,-313.19 717.69,-303.05"/>
<polygon fill="midnightblue" stroke="midnightblue" points="719.23,-306.21 727.44,-299.52 716.85,-299.63 719.23,-306.21"/>
</g>
<!-- Node6 -->
<g id="node6" class="node">
<title>Node6</title>
<g id="a_node6"><a xlink:href="initializer__v2_8h.html" target="_top" xlink:title=" ">
<polygon fill="none" stroke="black" points="442.44,-56.5 442.44,-75.5 555.44,-75.5 555.44,-56.5 442.44,-56.5"/>
<text text-anchor="middle" x="498.94" y="-63.5" font-family="Helvetica,sans-Serif" font-size="10.00">utils/initializer_v2.h</text>
</a>
</g>
</g>
<!-- Node5&#45;&gt;Node6 -->
<g id="edge5" class="edge">
<title>Node5&#45;&gt;Node6</title>
<path fill="none" stroke="midnightblue" d="M175.8,-114.16C240.62,-104.7 357.99,-87.57 432.03,-76.77"/>
<polygon fill="midnightblue" stroke="midnightblue" points="432.78,-80.19 442.17,-75.28 431.77,-73.27 432.78,-80.19"/>
</g>
<!-- Node9 -->
<g id="node9" class="node">
<title>Node9</title>
<g id="a_node9"><a xlink:title=" ">
<polygon fill="none" stroke="#bfbfbf" points="575.94,-0.5 575.94,-19.5 619.94,-19.5 619.94,-0.5 575.94,-0.5"/>
<text text-anchor="middle" x="597.94" y="-7.5" font-family="Helvetica,sans-Serif" font-size="10.00">string</text>
</a>
</g>
</g>
<!-- Node5&#45;&gt;Node9 -->
<g id="edge16" class="edge">
<title>Node5&#45;&gt;Node9</title>
<path fill="none" stroke="midnightblue" d="M175.46,-117.43C229.21,-112.32 319.77,-100.66 393.94,-76 412.42,-69.85 414.77,-63.01 432.94,-56 487.55,-34.93 505.71,-36.38 565.62,-20.28"/>
<polygon fill="midnightblue" stroke="midnightblue" points="566.89,-23.56 575.6,-17.54 565.03,-16.81 566.89,-23.56"/>
</g>
<!-- Node5&#45;&gt;Node14 -->
<g id="edge14" class="edge">
<title>Node5&#45;&gt;Node14</title>
<path fill="none" stroke="midnightblue" d="M115.93,-112.32C103.41,-103.98 84.26,-91.21 69.47,-81.35"/>
<polygon fill="midnightblue" stroke="midnightblue" points="71.18,-78.29 60.92,-75.65 67.3,-84.11 71.18,-78.29"/>
</g>
<!-- Node15 -->
<g id="node15" class="node">
<title>Node15</title>
<g id="a_node15"><a xlink:title=" ">
<polygon fill="none" stroke="#bfbfbf" points="121.44,-0.5 121.44,-19.5 168.44,-19.5 168.44,-0.5 121.44,-0.5"/>
<text text-anchor="middle" x="144.94" y="-7.5" font-family="Helvetica,sans-Serif" font-size="10.00">cmath</text>
</a>
</g>
</g>
<!-- Node5&#45;&gt;Node15 -->
<g id="edge15" class="edge">
<title>Node5&#45;&gt;Node15</title>
<path fill="none" stroke="midnightblue" d="M130.2,-112.37C132.78,-94.62 138.73,-53.67 142.23,-29.6"/>
<polygon fill="midnightblue" stroke="midnightblue" points="145.71,-29.99 143.69,-19.59 138.79,-28.98 145.71,-29.99"/>
</g>
<!-- Node16 -->
<g id="node16" class="node">
<title>Node16</title>
<g id="a_node16"><a xlink:title=" ">
<polygon fill="none" stroke="#bfbfbf" points="50.94,-0.5 50.94,-19.5 102.94,-19.5 102.94,-0.5 50.94,-0.5"/>
<text text-anchor="middle" x="76.94" y="-7.5" font-family="Helvetica,sans-Serif" font-size="10.00">cassert</text>
</a>
</g>
</g>
<!-- Node5&#45;&gt;Node16 -->
<g id="edge17" class="edge">
<title>Node5&#45;&gt;Node16</title>
<path fill="none" stroke="midnightblue" d="M124.86,-112.37C116.39,-94.46 96.76,-52.92 85.42,-28.95"/>
<polygon fill="midnightblue" stroke="midnightblue" points="88.44,-27.14 81,-19.59 82.11,-30.13 88.44,-27.14"/>
</g>
<!-- Node6&#45;&gt;Node3 -->
<g id="edge10" class="edge">
<title>Node6&#45;&gt;Node3</title>
<path fill="none" stroke="midnightblue" d="M555.58,-60.27C652.04,-52.03 845.31,-34.66 931.31,-19.76"/>
<polygon fill="midnightblue" stroke="midnightblue" points="932.04,-23.18 941.25,-17.96 930.79,-16.3 932.04,-23.18"/>
</g>
<!-- Node7 -->
<g id="node7" class="node">
<title>Node7</title>
<g id="a_node7"><a xlink:title=" ">
<polygon fill="none" stroke="#bfbfbf" points="715.94,-0.5 715.94,-19.5 775.94,-19.5 775.94,-0.5 715.94,-0.5"/>
<text text-anchor="middle" x="745.94" y="-7.5" font-family="Helvetica,sans-Serif" font-size="10.00">iostream</text>
</a>
</g>
</g>
<!-- Node6&#45;&gt;Node7 -->
<g id="edge6" class="edge">
<title>Node6&#45;&gt;Node7</title>
<path fill="none" stroke="midnightblue" d="M538.64,-56.46C580.33,-47.47 647.77,-32.87 705.94,-20 706.04,-19.98 706.14,-19.96 706.24,-19.93"/>
<polygon fill="midnightblue" stroke="midnightblue" points="706.8,-23.39 715.8,-17.81 705.28,-16.56 706.8,-23.39"/>
</g>
<!-- Node8 -->
<g id="node8" class="node">
<title>Node8</title>
<g id="a_node8"><a xlink:title=" ">
<polygon fill="none" stroke="#bfbfbf" points="513.94,-0.5 513.94,-19.5 557.94,-19.5 557.94,-0.5 513.94,-0.5"/>
<text text-anchor="middle" x="535.94" y="-7.5" font-family="Helvetica,sans-Serif" font-size="10.00">regex</text>
</a>
</g>
</g>
<!-- Node6&#45;&gt;Node8 -->
<g id="edge7" class="edge">
<title>Node6&#45;&gt;Node8</title>
<path fill="none" stroke="midnightblue" d="M505.05,-56.08C510.22,-48.53 517.79,-37.49 524.13,-28.23"/>
<polygon fill="midnightblue" stroke="midnightblue" points="527.18,-29.98 529.94,-19.75 521.4,-26.02 527.18,-29.98"/>
</g>
<!-- Node6&#45;&gt;Node9 -->
<g id="edge8" class="edge">
<title>Node6&#45;&gt;Node9</title>
<path fill="none" stroke="midnightblue" d="M514.85,-56.32C530.58,-47.74 554.88,-34.49 573.15,-24.52"/>
<polygon fill="midnightblue" stroke="midnightblue" points="574.97,-27.52 582.07,-19.65 571.62,-21.37 574.97,-27.52"/>
</g>
<!-- Node10 -->
<g id="node10" class="node">
<title>Node10</title>
<g id="a_node10"><a xlink:title=" ">
<polygon fill="none" stroke="#bfbfbf" points="868.44,-0.5 868.44,-19.5 923.44,-19.5 923.44,-0.5 868.44,-0.5"/>
<text text-anchor="middle" x="895.94" y="-7.5" font-family="Helvetica,sans-Serif" font-size="10.00">fstream</text>
</a>
</g>
</g>
<!-- Node6&#45;&gt;Node10 -->
<g id="edge9" class="edge">
<title>Node6&#45;&gt;Node10</title>
<path fill="none" stroke="midnightblue" d="M555.68,-59.93C624.85,-53.3 745.46,-40.29 858.29,-19.92"/>
<polygon fill="midnightblue" stroke="midnightblue" points="858.92,-23.37 868.13,-18.12 857.67,-16.48 858.92,-23.37"/>
</g>
<!-- Node11 -->
<g id="node11" class="node">
<title>Node11</title>
<g id="a_node11"><a xlink:title=" ">
<polygon fill="none" stroke="#bfbfbf" points="793.94,-0.5 793.94,-19.5 849.94,-19.5 849.94,-0.5 793.94,-0.5"/>
<text text-anchor="middle" x="821.94" y="-7.5" font-family="Helvetica,sans-Serif" font-size="10.00">sstream</text>
</a>
</g>
</g>
<!-- Node6&#45;&gt;Node11 -->
<g id="edge11" class="edge">
<title>Node6&#45;&gt;Node11</title>
<path fill="none" stroke="midnightblue" d="M555.62,-57.49C611.3,-49.79 698.85,-36.85 783.65,-20.12"/>
<polygon fill="midnightblue" stroke="midnightblue" points="784.59,-23.51 793.71,-18.12 783.22,-16.64 784.59,-23.51"/>
</g>
<!-- Node12 -->
<g id="node12" class="node">
<title>Node12</title>
<g id="a_node12"><a xlink:title=" ">
<polygon fill="none" stroke="#bfbfbf" points="319.44,-0.5 319.44,-19.5 384.44,-19.5 384.44,-0.5 319.44,-0.5"/>
<text text-anchor="middle" x="351.94" y="-7.5" font-family="Helvetica,sans-Serif" font-size="10.00">stdexcept</text>
</a>
</g>
</g>
<!-- Node6&#45;&gt;Node12 -->
<g id="edge12" class="edge">
<title>Node6&#45;&gt;Node12</title>
<path fill="none" stroke="midnightblue" d="M475.65,-56.44C451.13,-47.44 412.34,-33.19 384.74,-23.05"/>
<polygon fill="midnightblue" stroke="midnightblue" points="385.72,-19.68 375.12,-19.52 383.3,-26.25 385.72,-19.68"/>
</g>
<!-- Node13 -->
<g id="node13" class="node">
<title>Node13</title>
<g id="a_node13"><a xlink:title=" ">
<polygon fill="none" stroke="#bfbfbf" points="402.44,-0.5 402.44,-19.5 495.44,-19.5 495.44,-0.5 402.44,-0.5"/>
<text text-anchor="middle" x="448.94" y="-7.5" font-family="Helvetica,sans-Serif" font-size="10.00">unordered_map</text>
</a>
</g>
</g>
<!-- Node6&#45;&gt;Node13 -->
<g id="edge13" class="edge">
<title>Node6&#45;&gt;Node13</title>
<path fill="none" stroke="midnightblue" d="M490.68,-56.08C483.47,-48.3 472.83,-36.8 464.09,-27.37"/>
<polygon fill="midnightblue" stroke="midnightblue" points="466.4,-24.71 457.04,-19.75 461.27,-29.47 466.4,-24.71"/>
</g>
<!-- Node17&#45;&gt;Node5 -->
<g id="edge20" class="edge">
<title>Node17&#45;&gt;Node5</title>
<path fill="none" stroke="midnightblue" d="M114.75,-168.08C117.02,-160.85 120.31,-150.41 123.15,-141.4"/>
<polygon fill="midnightblue" stroke="midnightblue" points="126.52,-142.34 126.18,-131.75 119.84,-140.24 126.52,-142.34"/>
</g>
<!-- Node17&#45;&gt;Node15 -->
<g id="edge19" class="edge">
<title>Node17&#45;&gt;Node15</title>
<path fill="none" stroke="midnightblue" d="M94.24,-168.46C56.79,-149.24 -24.47,-100.76 7.94,-56 11.1,-51.64 71.87,-32.82 111.41,-20.94"/>
<polygon fill="midnightblue" stroke="midnightblue" points="112.62,-24.23 121.19,-18.01 110.61,-17.53 112.62,-24.23"/>
</g>
<!-- Node18&#45;&gt;Node5 -->
<g id="edge23" class="edge">
<title>Node18&#45;&gt;Node5</title>
<path fill="none" stroke="midnightblue" d="M283.49,-224.47C291.43,-211.06 303.75,-184.86 290.94,-168 278.01,-150.99 226.87,-138.71 185.46,-131.32"/>
<polygon fill="midnightblue" stroke="midnightblue" points="185.89,-127.85 175.44,-129.6 184.7,-134.75 185.89,-127.85"/>
</g>
<!-- Node18&#45;&gt;Node17 -->
<g id="edge24" class="edge">
<title>Node18&#45;&gt;Node17</title>
<path fill="none" stroke="midnightblue" d="M251.64,-224.44C223.59,-215.32 179,-200.81 147.76,-190.65"/>
<polygon fill="midnightblue" stroke="midnightblue" points="148.71,-187.28 138.12,-187.52 146.55,-193.94 148.71,-187.28"/>
</g>
<!-- Node19 -->
<g id="node19" class="node">
<title>Node19</title>
<g id="a_node19"><a xlink:title=" ">
<polygon fill="none" stroke="#bfbfbf" points="638.44,-0.5 638.44,-19.5 697.44,-19.5 697.44,-0.5 638.44,-0.5"/>
<text text-anchor="middle" x="667.94" y="-7.5" font-family="Helvetica,sans-Serif" font-size="10.00">phydro.h</text>
</a>
</g>
</g>
<!-- Node18&#45;&gt;Node19 -->
<g id="edge22" class="edge">
<title>Node18&#45;&gt;Node19</title>
<path fill="none" stroke="midnightblue" d="M294.25,-224.46C338.23,-201.35 462.79,-135.31 563.94,-76 592.74,-59.11 625.27,-38.53 646.17,-25.11"/>
<polygon fill="midnightblue" stroke="midnightblue" points="648.12,-28.02 654.63,-19.66 644.32,-22.13 648.12,-28.02"/>
</g>
<!-- Node20 -->
<g id="node20" class="node">
<title>Node20</title>
<g id="a_node20"><a xlink:href="assimilation_8tpp.html" target="_top" xlink:title=" ">
<polygon fill="none" stroke="black" points="187.44,-168.5 187.44,-187.5 282.44,-187.5 282.44,-168.5 187.44,-168.5"/>
<text text-anchor="middle" x="234.94" y="-175.5" font-family="Helvetica,sans-Serif" font-size="10.00">assimilation.tpp</text>
</a>
</g>
</g>
<!-- Node18&#45;&gt;Node20 -->
<g id="edge25" class="edge">
<title>Node18&#45;&gt;Node20</title>
<path fill="none" stroke="midnightblue" d="M270.84,-224.08C264.7,-216.38 255.67,-205.03 248.2,-195.65"/>
<polygon fill="midnightblue" stroke="midnightblue" points="250.88,-193.39 241.91,-187.75 245.4,-197.75 250.88,-193.39"/>
</g>
<!-- Node21&#45;&gt;Node5 -->
<g id="edge28" class="edge">
<title>Node21&#45;&gt;Node5</title>
<path fill="none" stroke="midnightblue" d="M483.54,-282.85C461,-276.32 428.25,-264.13 405.94,-244 377.12,-218.01 394.46,-190.64 362.94,-168 335.15,-148.04 245.56,-135.08 185.65,-128.42"/>
<polygon fill="midnightblue" stroke="midnightblue" points="185.88,-124.92 175.56,-127.32 185.13,-131.88 185.88,-124.92"/>
</g>
<!-- Node21&#45;&gt;Node6 -->
<g id="edge39" class="edge">
<title>Node21&#45;&gt;Node6</title>
<path fill="none" stroke="midnightblue" d="M524.72,-280.47C537.14,-272.77 553.54,-260.18 560.94,-244 565.48,-234.07 568.67,-201.12 558.94,-168 549.41,-135.57 527.07,-102.79 512.5,-83.71"/>
<polygon fill="midnightblue" stroke="midnightblue" points="515.17,-81.45 506.24,-75.74 509.66,-85.77 515.17,-81.45"/>
</g>
<!-- Node21&#45;&gt;Node10 -->
<g id="edge27" class="edge">
<title>Node21&#45;&gt;Node10</title>
<path fill="none" stroke="midnightblue" d="M530.95,-280.44C585.1,-258.96 728.35,-199.66 837.94,-132 872.43,-110.7 892.13,-112.42 909.94,-76 917.21,-61.13 911.94,-42.51 905.9,-29.02"/>
<polygon fill="midnightblue" stroke="midnightblue" points="908.92,-27.24 901.32,-19.85 902.65,-30.36 908.92,-27.24"/>
</g>
<!-- Node21&#45;&gt;Node17 -->
<g id="edge29" class="edge">
<title>Node21&#45;&gt;Node17</title>
<path fill="none" stroke="midnightblue" d="M483.59,-288.01C433.16,-285.39 317.23,-276.08 225.94,-244 190.77,-231.64 153.99,-208.53 132.02,-193.45"/>
<polygon fill="midnightblue" stroke="midnightblue" points="133.76,-190.4 123.56,-187.54 129.75,-196.14 133.76,-190.4"/>
</g>
<!-- Node21&#45;&gt;Node18 -->
<g id="edge30" class="edge">
<title>Node21&#45;&gt;Node18</title>
<path fill="none" stroke="midnightblue" d="M483.78,-283.12C445.57,-274.19 372.29,-257.06 324.27,-245.83"/>
<polygon fill="midnightblue" stroke="midnightblue" points="324.96,-242.4 314.43,-243.53 323.37,-249.21 324.96,-242.4"/>
</g>
<!-- Node22 -->
<g id="node22" class="node">
<title>Node22</title>
<g id="a_node22"><a xlink:href="rk4_8h.html" target="_top" xlink:title=" ">
<polygon fill="none" stroke="black" points="415.44,-224.5 415.44,-243.5 480.44,-243.5 480.44,-224.5 415.44,-224.5"/>
<text text-anchor="middle" x="447.94" y="-231.5" font-family="Helvetica,sans-Serif" font-size="10.00">utils/rk4.h</text>
</a>
</g>
</g>
<!-- Node21&#45;&gt;Node22 -->
<g id="edge31" class="edge">
<title>Node21&#45;&gt;Node22</title>
<path fill="none" stroke="midnightblue" d="M499.14,-280.32C490.12,-272.34 476.53,-260.31 465.62,-250.65"/>
<polygon fill="midnightblue" stroke="midnightblue" points="467.73,-247.84 457.92,-243.83 463.09,-253.08 467.73,-247.84"/>
</g>
<!-- Node23 -->
<g id="node23" class="node">
<title>Node23</title>
<g id="a_node23"><a xlink:href="moving__average_8h.html" target="_top" xlink:title=" ">
<polygon fill="none" stroke="black" points="254.44,-56.5 254.44,-75.5 385.44,-75.5 385.44,-56.5 254.44,-56.5"/>
<text text-anchor="middle" x="319.94" y="-63.5" font-family="Helvetica,sans-Serif" font-size="10.00">utils/moving_average.h</text>
</a>
</g>
</g>
<!-- Node21&#45;&gt;Node23 -->
<g id="edge32" class="edge">
<title>Node21&#45;&gt;Node23</title>
<path fill="none" stroke="midnightblue" d="M513.63,-280.29C524.29,-259.21 547.66,-204.52 524.94,-168 492.98,-116.63 426.36,-90.62 377.7,-77.99"/>
<polygon fill="midnightblue" stroke="midnightblue" points="378.47,-74.57 367.92,-75.56 376.79,-81.37 378.47,-74.57"/>
</g>
<!-- Node26 -->
<g id="node26" class="node">
<title>Node26</title>
<g id="a_node26"><a xlink:href="plant_8tpp.html" target="_top" xlink:title=" ">
<polygon fill="none" stroke="black" points="455.94,-168.5 455.94,-187.5 515.94,-187.5 515.94,-168.5 455.94,-168.5"/>
<text text-anchor="middle" x="485.94" y="-175.5" font-family="Helvetica,sans-Serif" font-size="10.00">plant.tpp</text>
</a>
</g>
</g>
<!-- Node21&#45;&gt;Node26 -->
<g id="edge40" class="edge">
<title>Node21&#45;&gt;Node26</title>
<path fill="none" stroke="midnightblue" d="M507.13,-280.37C503.42,-262.62 494.86,-221.67 489.83,-197.6"/>
<polygon fill="midnightblue" stroke="midnightblue" points="493.21,-196.66 487.74,-187.59 486.36,-198.1 493.21,-196.66"/>
</g>
<!-- Node23&#45;&gt;Node3 -->
<g id="edge37" class="edge">
<title>Node23&#45;&gt;Node3</title>
<path fill="none" stroke="midnightblue" d="M385.66,-59.68C401.16,-58.45 417.63,-57.16 432.94,-56 651.41,-39.42 711.02,-56.9 931.34,-19.74"/>
<polygon fill="midnightblue" stroke="midnightblue" points="932,-23.18 941.27,-18.05 930.82,-16.28 932,-23.18"/>
</g>
<!-- Node23&#45;&gt;Node7 -->
<g id="edge33" class="edge">
<title>Node23&#45;&gt;Node7</title>
<path fill="none" stroke="midnightblue" d="M385.46,-59.48C462.49,-52.5 594.04,-39.06 705.94,-20 706.04,-19.98 706.14,-19.97 706.24,-19.95"/>
<polygon fill="midnightblue" stroke="midnightblue" points="706.69,-23.43 715.87,-18.12 705.39,-16.55 706.69,-23.43"/>
</g>
<!-- Node23&#45;&gt;Node15 -->
<g id="edge35" class="edge">
<title>Node23&#45;&gt;Node15</title>
<path fill="none" stroke="midnightblue" d="M292.21,-56.44C261.29,-46.9 211.3,-31.48 178.27,-21.29"/>
<polygon fill="midnightblue" stroke="midnightblue" points="179.2,-17.91 168.61,-18.3 177.13,-24.6 179.2,-17.91"/>
</g>
<!-- Node23&#45;&gt;Node16 -->
<g id="edge36" class="edge">
<title>Node23&#45;&gt;Node16</title>
<path fill="none" stroke="midnightblue" d="M278,-56.42C238.05,-48.14 175.99,-34.99 113.34,-20.27"/>
<polygon fill="midnightblue" stroke="midnightblue" points="113.82,-16.78 103.29,-17.89 112.21,-23.6 113.82,-16.78"/>
</g>
<!-- Node24 -->
<g id="node24" class="node">
<title>Node24</title>
<g id="a_node24"><a xlink:title=" ">
<polygon fill="none" stroke="#bfbfbf" points="268.94,-0.5 268.94,-19.5 300.94,-19.5 300.94,-0.5 268.94,-0.5"/>
<text text-anchor="middle" x="284.94" y="-7.5" font-family="Helvetica,sans-Serif" font-size="10.00">list</text>
</a>
</g>
</g>
<!-- Node23&#45;&gt;Node24 -->
<g id="edge34" class="edge">
<title>Node23&#45;&gt;Node24</title>
<path fill="none" stroke="midnightblue" d="M314.16,-56.08C309.27,-48.53 302.11,-37.49 296.11,-28.23"/>
<polygon fill="midnightblue" stroke="midnightblue" points="298.99,-26.24 290.61,-19.75 293.11,-30.05 298.99,-26.24"/>
</g>
<!-- Node25 -->
<g id="node25" class="node">
<title>Node25</title>
<g id="a_node25"><a xlink:title=" ">
<polygon fill="none" stroke="#bfbfbf" points="186.94,-0.5 186.94,-19.5 250.94,-19.5 250.94,-0.5 186.94,-0.5"/>
<text text-anchor="middle" x="218.94" y="-7.5" font-family="Helvetica,sans-Serif" font-size="10.00">algorithm</text>
</a>
</g>
</g>
<!-- Node23&#45;&gt;Node25 -->
<g id="edge38" class="edge">
<title>Node23&#45;&gt;Node25</title>
<path fill="none" stroke="midnightblue" d="M303.71,-56.32C287.59,-47.7 262.64,-34.36 243.98,-24.39"/>
<polygon fill="midnightblue" stroke="midnightblue" points="245.6,-21.28 235.13,-19.65 242.3,-27.46 245.6,-21.28"/>
</g>
<!-- Node26&#45;&gt;Node15 -->
<g id="edge41" class="edge">
<title>Node26&#45;&gt;Node15</title>
<path fill="none" stroke="midnightblue" d="M455.88,-171.54C401.41,-160.58 284.43,-131.98 201.94,-76 183.19,-63.28 166.74,-42.96 156.39,-28.43"/>
<polygon fill="midnightblue" stroke="midnightblue" points="159.05,-26.12 150.51,-19.85 153.28,-30.08 159.05,-26.12"/>
</g>
<!-- Node27&#45;&gt;Node3 -->
<g id="edge48" class="edge">
<title>Node27&#45;&gt;Node3</title>
<path fill="none" stroke="midnightblue" d="M712.03,-60.34C757.87,-53.27 846.45,-38.85 931.41,-19.95"/>
<polygon fill="midnightblue" stroke="midnightblue" points="932.22,-23.35 941.21,-17.74 930.69,-16.52 932.22,-23.35"/>
</g>
<!-- Node27&#45;&gt;Node7 -->
<g id="edge46" class="edge">
<title>Node27&#45;&gt;Node7</title>
<path fill="none" stroke="midnightblue" d="M691.38,-56.32C701.09,-48.26 715.75,-36.08 727.44,-26.37"/>
<polygon fill="midnightblue" stroke="midnightblue" points="729.85,-28.92 735.31,-19.83 725.38,-23.53 729.85,-28.92"/>
</g>
<!-- Node27&#45;&gt;Node9 -->
<g id="edge43" class="edge">
<title>Node27&#45;&gt;Node9</title>
<path fill="none" stroke="midnightblue" d="M667.6,-56.32C654.78,-47.98 635.15,-35.21 620,-25.35"/>
<polygon fill="midnightblue" stroke="midnightblue" points="621.53,-22.17 611.24,-19.65 617.72,-28.04 621.53,-22.17"/>
</g>
<!-- Node27&#45;&gt;Node10 -->
<g id="edge44" class="edge">
<title>Node27&#45;&gt;Node10</title>
<path fill="none" stroke="midnightblue" d="M712.2,-57.15C751.04,-47.39 817.24,-30.77 858.68,-20.36"/>
<polygon fill="midnightblue" stroke="midnightblue" points="859.55,-23.75 868.39,-17.92 857.84,-16.96 859.55,-23.75"/>
</g>
<!-- Node27&#45;&gt;Node11 -->
<g id="edge45" class="edge">
<title>Node27&#45;&gt;Node11</title>
<path fill="none" stroke="midnightblue" d="M703.28,-56.44C726.69,-47.48 763.68,-33.31 790.13,-23.18"/>
<polygon fill="midnightblue" stroke="midnightblue" points="791.62,-26.36 799.7,-19.52 789.11,-19.82 791.62,-26.36"/>
</g>
<!-- Node27&#45;&gt;Node15 -->
<g id="edge47" class="edge">
<title>Node27&#45;&gt;Node15</title>
<path fill="none" stroke="midnightblue" d="M649.94,-62.55C552.58,-54.81 255.36,-30.84 178.63,-19.62"/>
<polygon fill="midnightblue" stroke="midnightblue" points="179.05,-16.14 168.62,-18 177.93,-23.05 179.05,-16.14"/>
</g>
<!-- Node27&#45;&gt;Node19 -->
<g id="edge49" class="edge">
<title>Node27&#45;&gt;Node19</title>
<path fill="none" stroke="midnightblue" d="M678.79,-56.08C677.07,-48.93 674.59,-38.64 672.44,-29.69"/>
<polygon fill="midnightblue" stroke="midnightblue" points="675.79,-28.65 670.05,-19.75 668.98,-30.29 675.79,-28.65"/>
</g>
<!-- Node28&#45;&gt;Node3 -->
<g id="edge56" class="edge">
<title>Node28&#45;&gt;Node3</title>
<path fill="none" stroke="midnightblue" d="M821.34,-112.46C848.49,-105.67 883.24,-94.21 909.94,-76 928.37,-63.43 944.19,-43.09 954.07,-28.51"/>
<polygon fill="midnightblue" stroke="midnightblue" points="957.15,-30.19 959.67,-19.9 951.28,-26.37 957.15,-30.19"/>
</g>
<!-- Node28&#45;&gt;Node7 -->
<g id="edge54" class="edge">
<title>Node28&#45;&gt;Node7</title>
<path fill="none" stroke="midnightblue" d="M775.17,-112.4C772.29,-103.36 767.68,-88.72 763.94,-76 759.35,-60.38 754.43,-42.55 750.9,-29.52"/>
<polygon fill="midnightblue" stroke="midnightblue" points="754.28,-28.6 748.3,-19.86 747.52,-30.42 754.28,-28.6"/>
</g>
<!-- Node28&#45;&gt;Node9 -->
<g id="edge51" class="edge">
<title>Node28&#45;&gt;Node9</title>
<path fill="none" stroke="midnightblue" d="M726.9,-112.7C699.33,-106.25 665.92,-95.06 640.94,-76 625.01,-63.85 613.13,-44.01 605.93,-29.44"/>
<polygon fill="midnightblue" stroke="midnightblue" points="608.91,-27.55 601.53,-19.95 602.56,-30.49 608.91,-27.55"/>
</g>
<!-- Node28&#45;&gt;Node10 -->
<g id="edge52" class="edge">
<title>Node28&#45;&gt;Node10</title>
<path fill="none" stroke="midnightblue" d="M829.04,-113.5C852.03,-107.37 877.25,-96.23 891.94,-76 901.59,-62.72 901.58,-43.59 899.76,-29.53"/>
<polygon fill="midnightblue" stroke="midnightblue" points="903.19,-28.81 898.07,-19.54 896.29,-29.98 903.19,-28.81"/>
</g>
<!-- Node28&#45;&gt;Node11 -->
<g id="edge53" class="edge">
<title>Node28&#45;&gt;Node11</title>
<path fill="none" stroke="midnightblue" d="M779.81,-112.38C782.7,-99.73 788.78,-75.53 796.94,-56 800.9,-46.52 806.35,-36.47 811.15,-28.29"/>
<polygon fill="midnightblue" stroke="midnightblue" points="814.18,-30.04 816.35,-19.67 808.19,-26.42 814.18,-30.04"/>
</g>
<!-- Node28&#45;&gt;Node15 -->
<g id="edge55" class="edge">
<title>Node28&#45;&gt;Node15</title>
<path fill="none" stroke="midnightblue" d="M726.93,-119.85C611.45,-116.75 333.22,-106.27 244.94,-76 213.01,-65.05 181.19,-41.69 162.29,-26.16"/>
<polygon fill="midnightblue" stroke="midnightblue" points="164.47,-23.42 154.56,-19.65 159.96,-28.77 164.47,-23.42"/>
</g>
<!-- Node28&#45;&gt;Node27 -->
<g id="edge57" class="edge">
<title>Node28&#45;&gt;Node27</title>
<path fill="none" stroke="midnightblue" d="M762.35,-112.32C746.94,-103.74 723.13,-90.49 705.23,-80.52"/>
<polygon fill="midnightblue" stroke="midnightblue" points="706.93,-77.46 696.49,-75.65 703.52,-83.58 706.93,-77.46"/>
</g>
<!-- Node29 -->
<g id="node29" class="node">
<title>Node29</title>
<g id="a_node29"><a xlink:title=" ">
<polygon fill="none" stroke="#bfbfbf" points="806.44,-56.5 806.44,-75.5 883.44,-75.5 883.44,-56.5 806.44,-56.5"/>
<text text-anchor="middle" x="844.94" y="-63.5" font-family="Helvetica,sans-Serif" font-size="10.00">csvstream.h</text>
</a>
</g>
</g>
<!-- Node28&#45;&gt;Node29 -->
<g id="edge58" class="edge">
<title>Node28&#45;&gt;Node29</title>
<path fill="none" stroke="midnightblue" d="M788.7,-112.32C798.71,-104.26 813.83,-92.08 825.87,-82.37"/>
<polygon fill="midnightblue" stroke="midnightblue" points="828.39,-84.83 833.98,-75.83 824,-79.38 828.39,-84.83"/>
</g>
<!-- Node30&#45;&gt;Node3 -->
<g id="edge61" class="edge">
<title>Node30&#45;&gt;Node3</title>
<path fill="none" stroke="midnightblue" d="M1088.65,-56.44C1064.13,-47.44 1025.34,-33.19 997.74,-23.05"/>
<polygon fill="midnightblue" stroke="midnightblue" points="998.72,-19.68 988.12,-19.52 996.3,-26.25 998.72,-19.68"/>
</g>
<!-- Node30&#45;&gt;Node7 -->
<g id="edge60" class="edge">
<title>Node30&#45;&gt;Node7</title>
<path fill="none" stroke="midnightblue" d="M1054.39,-58.67C990.99,-51.34 885.83,-38.13 786.06,-20.07"/>
<polygon fill="midnightblue" stroke="midnightblue" points="786.58,-16.6 776.12,-18.25 785.32,-23.49 786.58,-16.6"/>
</g>
<!-- Node31 -->
<g id="node31" class="node">
<title>Node31</title>
<g id="a_node31"><a xlink:title=" ">
<polygon fill="none" stroke="#bfbfbf" points="1027.94,-0.5 1027.94,-19.5 1143.94,-19.5 1143.94,-0.5 1027.94,-0.5"/>
<text text-anchor="middle" x="1085.94" y="-7.5" font-family="Helvetica,sans-Serif" font-size="10.00">environment_base.h</text>
</a>
</g>
</g>
<!-- Node30&#45;&gt;Node31 -->
<g id="edge62" class="edge">
<title>Node30&#45;&gt;Node31</title>
<path fill="none" stroke="midnightblue" d="M1107.65,-56.08C1104.09,-48.69 1098.92,-37.95 1094.52,-28.81"/>
<polygon fill="midnightblue" stroke="midnightblue" points="1097.64,-27.24 1090.15,-19.75 1091.34,-30.28 1097.64,-27.24"/>
</g>
<!-- Node32 -->
<g id="node32" class="node">
<title>Node32</title>
<g id="a_node32"><a xlink:title=" ">
<polygon fill="none" stroke="#bfbfbf" points="1161.94,-0.5 1161.94,-19.5 1217.94,-19.5 1217.94,-0.5 1161.94,-0.5"/>
<text text-anchor="middle" x="1189.94" y="-7.5" font-family="Helvetica,sans-Serif" font-size="10.00">solver.h</text>
</a>
</g>
</g>
<!-- Node30&#45;&gt;Node32 -->
<g id="edge63" class="edge">
<title>Node30&#45;&gt;Node32</title>
<path fill="none" stroke="midnightblue" d="M1124.47,-56.32C1136.53,-47.98 1154.97,-35.21 1169.21,-25.35"/>
<polygon fill="midnightblue" stroke="midnightblue" points="1171.21,-28.22 1177.44,-19.65 1167.22,-22.47 1171.21,-28.22"/>
</g>
</g>
</svg>
