<?xml version="1.0" encoding="UTF-8" standalone="no"?>
<!DOCTYPE svg PUBLIC "-//W3C//DTD SVG 1.1//EN"
 "http://www.w3.org/Graphics/SVG/1.1/DTD/svg11.dtd">
<!-- Generated by graphviz version 2.43.0 (0)
 -->
<!-- Title: inst/include/life_history.h Pages: 1 -->
<svg width="1291pt" height="364pt"
 viewBox="0.00 0.00 1290.50 364.00" xmlns="http://www.w3.org/2000/svg" xmlns:xlink="http://www.w3.org/1999/xlink">
<g id="graph0" class="graph" transform="scale(1 1) rotate(0) translate(4 360)">
<title>inst/include/life_history.h</title>
<!-- Node1 -->
<g id="node1" class="node">
<title>Node1</title>
<g id="a_node1"><a xlink:title=" ">
<polygon fill="#bfbfbf" stroke="black" points="574.5,-336.5 574.5,-355.5 712.5,-355.5 712.5,-336.5 574.5,-336.5"/>
<text text-anchor="middle" x="643.5" y="-343.5" font-family="Helvetica,sans-Serif" font-size="10.00">inst/include/life_history.h</text>
</a>
</g>
</g>
<!-- Node2 -->
<g id="node2" class="node">
<title>Node2</title>
<g id="a_node2"><a xlink:title=" ">
<polygon fill="none" stroke="#bfbfbf" points="984,-0.5 984,-19.5 1031,-19.5 1031,-0.5 984,-0.5"/>
<text text-anchor="middle" x="1007.5" y="-7.5" font-family="Helvetica,sans-Serif" font-size="10.00">vector</text>
</a>
</g>
</g>
<!-- Node1&#45;&gt;Node2 -->
<g id="edge1" class="edge">
<title>Node1&#45;&gt;Node2</title>
<path fill="none" stroke="midnightblue" d="M712.54,-340.55C828.66,-331.16 1050.5,-304.17 1050.5,-235 1050.5,-235 1050.5,-235 1050.5,-121 1050.5,-86.31 1031.72,-49.42 1018.98,-28.4"/>
<polygon fill="midnightblue" stroke="midnightblue" points="1021.77,-26.27 1013.48,-19.67 1015.85,-30 1021.77,-26.27"/>
</g>
<!-- Node3 -->
<g id="node3" class="node">
<title>Node3</title>
<g id="a_node3"><a xlink:title=" ">
<polygon fill="none" stroke="#bfbfbf" points="1117,-280.5 1117,-299.5 1174,-299.5 1174,-280.5 1117,-280.5"/>
<text text-anchor="middle" x="1145.5" y="-287.5" font-family="Helvetica,sans-Serif" font-size="10.00">ostream</text>
</a>
</g>
</g>
<!-- Node1&#45;&gt;Node3 -->
<g id="edge2" class="edge">
<title>Node1&#45;&gt;Node3</title>
<path fill="none" stroke="midnightblue" d="M712.61,-340.57C802.7,-334.27 964.98,-321.07 1102.5,-300 1103.96,-299.78 1105.45,-299.53 1106.95,-299.28"/>
<polygon fill="midnightblue" stroke="midnightblue" points="1107.7,-302.7 1116.9,-297.44 1106.43,-295.82 1107.7,-302.7"/>
</g>
<!-- Node4 -->
<g id="node4" class="node">
<title>Node4</title>
<g id="a_node4"><a xlink:href="traits__params_8h.html" target="_top" xlink:title=" ">
<polygon fill="none" stroke="black" points="114,-112.5 114,-131.5 207,-131.5 207,-112.5 114,-112.5"/>
<text text-anchor="middle" x="160.5" y="-119.5" font-family="Helvetica,sans-Serif" font-size="10.00">traits_params.h</text>
</a>
</g>
</g>
<!-- Node1&#45;&gt;Node4 -->
<g id="edge3" class="edge">
<title>Node1&#45;&gt;Node4</title>
<path fill="none" stroke="midnightblue" d="M574.34,-341.86C467.93,-336.36 269.36,-323.31 202.5,-300 115.31,-269.6 71.83,-269.01 27.5,-188 8.63,-153.52 59.77,-137.04 104.01,-129.36"/>
<polygon fill="midnightblue" stroke="midnightblue" points="104.58,-132.81 113.89,-127.76 103.46,-125.9 104.58,-132.81"/>
</g>
<!-- Node16 -->
<g id="node16" class="node">
<title>Node16</title>
<g id="a_node16"><a xlink:href="plant__architecture_8h.html" target="_top" xlink:title=" ">
<polygon fill="none" stroke="black" points="188.5,-168.5 188.5,-187.5 302.5,-187.5 302.5,-168.5 188.5,-168.5"/>
<text text-anchor="middle" x="245.5" y="-175.5" font-family="Helvetica,sans-Serif" font-size="10.00">plant_architecture.h</text>
</a>
</g>
</g>
<!-- Node1&#45;&gt;Node16 -->
<g id="edge17" class="edge">
<title>Node1&#45;&gt;Node16</title>
<path fill="none" stroke="midnightblue" d="M574.43,-338.42C522.97,-332.15 451.53,-320.52 391.5,-300 340.71,-282.64 323.54,-280.83 284.5,-244 270.33,-230.63 259.5,-210.98 252.89,-196.79"/>
<polygon fill="midnightblue" stroke="midnightblue" points="256.07,-195.33 248.84,-187.59 249.67,-198.15 256.07,-195.33"/>
</g>
<!-- Node17 -->
<g id="node17" class="node">
<title>Node17</title>
<g id="a_node17"><a xlink:href="assimilation_8h.html" target="_top" xlink:title=" ">
<polygon fill="none" stroke="black" points="124.5,-224.5 124.5,-243.5 210.5,-243.5 210.5,-224.5 124.5,-224.5"/>
<text text-anchor="middle" x="167.5" y="-231.5" font-family="Helvetica,sans-Serif" font-size="10.00">assimilation.h</text>
</a>
</g>
</g>
<!-- Node1&#45;&gt;Node17 -->
<g id="edge20" class="edge">
<title>Node1&#45;&gt;Node17</title>
<path fill="none" stroke="midnightblue" d="M574.26,-342.94C473.28,-339.02 291.23,-328.17 232.5,-300 209.89,-289.15 190.54,-267.13 178.97,-251.74"/>
<polygon fill="midnightblue" stroke="midnightblue" points="181.78,-249.64 173.1,-243.58 176.1,-253.74 181.78,-249.64"/>
</g>
<!-- Node20 -->
<g id="node20" class="node">
<title>Node20</title>
<g id="a_node20"><a xlink:href="plant_8h.html" target="_top" xlink:title=" ">
<polygon fill="none" stroke="black" points="400.5,-280.5 400.5,-299.5 450.5,-299.5 450.5,-280.5 400.5,-280.5"/>
<text text-anchor="middle" x="425.5" y="-287.5" font-family="Helvetica,sans-Serif" font-size="10.00">plant.h</text>
</a>
</g>
</g>
<!-- Node1&#45;&gt;Node20 -->
<g id="edge25" class="edge">
<title>Node1&#45;&gt;Node20</title>
<path fill="none" stroke="midnightblue" d="M608.96,-336.44C568.34,-326.38 501.29,-309.77 460.48,-299.67"/>
<polygon fill="midnightblue" stroke="midnightblue" points="461.25,-296.25 450.71,-297.24 459.57,-303.05 461.25,-296.25"/>
</g>
<!-- Node26 -->
<g id="node26" class="node">
<title>Node26</title>
<g id="a_node26"><a xlink:href="climate_8h.html" target="_top" xlink:title=" ">
<polygon fill="none" stroke="black" points="563.5,-56.5 563.5,-75.5 625.5,-75.5 625.5,-56.5 563.5,-56.5"/>
<text text-anchor="middle" x="594.5" y="-63.5" font-family="Helvetica,sans-Serif" font-size="10.00">climate.h</text>
</a>
</g>
</g>
<!-- Node1&#45;&gt;Node26 -->
<g id="edge41" class="edge">
<title>Node1&#45;&gt;Node26</title>
<path fill="none" stroke="midnightblue" d="M641.98,-336.38C635.16,-297.7 607.33,-139.79 597.75,-85.47"/>
<polygon fill="midnightblue" stroke="midnightblue" points="601.19,-84.76 596,-75.52 594.29,-85.98 601.19,-84.76"/>
</g>
<!-- Node27 -->
<g id="node27" class="node">
<title>Node27</title>
<g id="a_node27"><a xlink:href="climate__stream_8h.html" target="_top" xlink:title=" ">
<polygon fill="none" stroke="black" points="622.5,-112.5 622.5,-131.5 724.5,-131.5 724.5,-112.5 622.5,-112.5"/>
<text text-anchor="middle" x="673.5" y="-119.5" font-family="Helvetica,sans-Serif" font-size="10.00">climate_stream.h</text>
</a>
</g>
</g>
<!-- Node1&#45;&gt;Node27 -->
<g id="edge49" class="edge">
<title>Node1&#45;&gt;Node27</title>
<path fill="none" stroke="midnightblue" d="M644.68,-336.3C649.09,-303.63 664.73,-187.87 670.94,-141.96"/>
<polygon fill="midnightblue" stroke="midnightblue" points="674.43,-142.26 672.3,-131.88 667.49,-141.32 674.43,-142.26"/>
</g>
<!-- Node29 -->
<g id="node29" class="node">
<title>Node29</title>
<g id="a_node29"><a xlink:href="light__environment_8h.html" target="_top" xlink:title=" ">
<polygon fill="none" stroke="black" points="1079,-56.5 1079,-75.5 1194,-75.5 1194,-56.5 1079,-56.5"/>
<text text-anchor="middle" x="1136.5" y="-63.5" font-family="Helvetica,sans-Serif" font-size="10.00">light_environment.h</text>
</a>
</g>
</g>
<!-- Node1&#45;&gt;Node29 -->
<g id="edge58" class="edge">
<title>Node1&#45;&gt;Node29</title>
<path fill="none" stroke="midnightblue" d="M712.86,-341.56C825.25,-335.4 1037.39,-321.12 1064.5,-300 1088.79,-281.08 1088.5,-265.8 1088.5,-235 1088.5,-235 1088.5,-235 1088.5,-177 1088.5,-141.58 1109.66,-104.71 1123.88,-83.92"/>
<polygon fill="midnightblue" stroke="midnightblue" points="1126.88,-85.74 1129.83,-75.56 1121.18,-81.68 1126.88,-85.74"/>
</g>
<!-- Node32 -->
<g id="node32" class="node">
<title>Node32</title>
<g id="a_node32"><a xlink:title=" ">
<polygon fill="none" stroke="#bfbfbf" points="1192.5,-280.5 1192.5,-299.5 1282.5,-299.5 1282.5,-280.5 1192.5,-280.5"/>
<text text-anchor="middle" x="1237.5" y="-287.5" font-family="Helvetica,sans-Serif" font-size="10.00">time_stepper.h</text>
</a>
</g>
</g>
<!-- Node1&#45;&gt;Node32 -->
<g id="edge63" class="edge">
<title>Node1&#45;&gt;Node32</title>
<path fill="none" stroke="midnightblue" d="M712.6,-340.98C813.42,-334.73 1006.93,-321.26 1182.29,-299.92"/>
<polygon fill="midnightblue" stroke="midnightblue" points="1182.72,-303.39 1192.22,-298.7 1181.87,-296.45 1182.72,-303.39"/>
</g>
<!-- Node5 -->
<g id="node5" class="node">
<title>Node5</title>
<g id="a_node5"><a xlink:href="initializer__v2_8h.html" target="_top" xlink:title=" ">
<polygon fill="none" stroke="black" points="356,-56.5 356,-75.5 469,-75.5 469,-56.5 356,-56.5"/>
<text text-anchor="middle" x="412.5" y="-63.5" font-family="Helvetica,sans-Serif" font-size="10.00">utils/initializer_v2.h</text>
</a>
</g>
</g>
<!-- Node4&#45;&gt;Node5 -->
<g id="edge4" class="edge">
<title>Node4&#45;&gt;Node5</title>
<path fill="none" stroke="midnightblue" d="M200.43,-112.44C244.39,-103.02 315.13,-87.87 362.68,-77.68"/>
<polygon fill="midnightblue" stroke="midnightblue" points="363.71,-81.03 372.76,-75.52 362.25,-74.19 363.71,-81.03"/>
</g>
<!-- Node8 -->
<g id="node8" class="node">
<title>Node8</title>
<g id="a_node8"><a xlink:title=" ">
<polygon fill="none" stroke="#bfbfbf" points="513.5,-0.5 513.5,-19.5 557.5,-19.5 557.5,-0.5 513.5,-0.5"/>
<text text-anchor="middle" x="535.5" y="-7.5" font-family="Helvetica,sans-Serif" font-size="10.00">string</text>
</a>
</g>
</g>
<!-- Node4&#45;&gt;Node8 -->
<g id="edge15" class="edge">
<title>Node4&#45;&gt;Node8</title>
<path fill="none" stroke="midnightblue" d="M182.29,-112.5C216.77,-99.25 286.19,-73.39 346.5,-56 412.33,-37.01 432.42,-37.6 503.3,-19.93"/>
<polygon fill="midnightblue" stroke="midnightblue" points="504.32,-23.28 513.16,-17.43 502.6,-16.49 504.32,-23.28"/>
</g>
<!-- Node13 -->
<g id="node13" class="node">
<title>Node13</title>
<g id="a_node13"><a xlink:title=" ">
<polygon fill="none" stroke="#bfbfbf" points="124,-56.5 124,-75.5 185,-75.5 185,-56.5 124,-56.5"/>
<text text-anchor="middle" x="154.5" y="-63.5" font-family="Helvetica,sans-Serif" font-size="10.00">io_utils.h</text>
</a>
</g>
</g>
<!-- Node4&#45;&gt;Node13 -->
<g id="edge13" class="edge">
<title>Node4&#45;&gt;Node13</title>
<path fill="none" stroke="midnightblue" d="M159.51,-112.08C158.71,-104.93 157.57,-94.64 156.58,-85.69"/>
<polygon fill="midnightblue" stroke="midnightblue" points="160.06,-85.3 155.47,-75.75 153.1,-86.08 160.06,-85.3"/>
</g>
<!-- Node14 -->
<g id="node14" class="node">
<title>Node14</title>
<g id="a_node14"><a xlink:title=" ">
<polygon fill="none" stroke="#bfbfbf" points="191,-0.5 191,-19.5 238,-19.5 238,-0.5 191,-0.5"/>
<text text-anchor="middle" x="214.5" y="-7.5" font-family="Helvetica,sans-Serif" font-size="10.00">cmath</text>
</a>
</g>
</g>
<!-- Node4&#45;&gt;Node14 -->
<g id="edge14" class="edge">
<title>Node4&#45;&gt;Node14</title>
<path fill="none" stroke="midnightblue" d="M146.57,-112.33C128.6,-100.02 101.14,-76.66 114.5,-56 129.02,-33.54 157.72,-22.18 180.66,-16.5"/>
<polygon fill="midnightblue" stroke="midnightblue" points="181.72,-19.85 190.73,-14.27 180.21,-13.02 181.72,-19.85"/>
</g>
<!-- Node15 -->
<g id="node15" class="node">
<title>Node15</title>
<g id="a_node15"><a xlink:title=" ">
<polygon fill="none" stroke="#bfbfbf" points="106.5,-0.5 106.5,-19.5 158.5,-19.5 158.5,-0.5 106.5,-0.5"/>
<text text-anchor="middle" x="132.5" y="-7.5" font-family="Helvetica,sans-Serif" font-size="10.00">cassert</text>
</a>
</g>
</g>
<!-- Node4&#45;&gt;Node15 -->
<g id="edge16" class="edge">
<title>Node4&#45;&gt;Node15</title>
<path fill="none" stroke="midnightblue" d="M130.62,-112.39C112.96,-105.59 92.05,-94.15 81.5,-76 70.6,-57.24 90.38,-37.96 108.4,-25.32"/>
<polygon fill="midnightblue" stroke="midnightblue" points="110.53,-28.11 116.95,-19.68 106.68,-22.26 110.53,-28.11"/>
</g>
<!-- Node5&#45;&gt;Node2 -->
<g id="edge9" class="edge">
<title>Node5&#45;&gt;Node2</title>
<path fill="none" stroke="midnightblue" d="M469.24,-61.28C590.19,-53.2 870.06,-33.68 964.5,-20 967.57,-19.56 970.75,-19.02 973.93,-18.45"/>
<polygon fill="midnightblue" stroke="midnightblue" points="974.8,-21.84 983.94,-16.49 973.45,-14.97 974.8,-21.84"/>
</g>
<!-- Node6 -->
<g id="node6" class="node">
<title>Node6</title>
<g id="a_node6"><a xlink:title=" ">
<polygon fill="none" stroke="#bfbfbf" points="723.5,-0.5 723.5,-19.5 783.5,-19.5 783.5,-0.5 723.5,-0.5"/>
<text text-anchor="middle" x="753.5" y="-7.5" font-family="Helvetica,sans-Serif" font-size="10.00">iostream</text>
</a>
</g>
</g>
<!-- Node5&#45;&gt;Node6 -->
<g id="edge5" class="edge">
<title>Node5&#45;&gt;Node6</title>
<path fill="none" stroke="midnightblue" d="M469.22,-57.91C527.94,-50.26 622.54,-37.09 713.4,-20.09"/>
<polygon fill="midnightblue" stroke="midnightblue" points="714.14,-23.51 723.32,-18.21 712.84,-16.63 714.14,-23.51"/>
</g>
<!-- Node7 -->
<g id="node7" class="node">
<title>Node7</title>
<g id="a_node7"><a xlink:title=" ">
<polygon fill="none" stroke="#bfbfbf" points="367.5,-0.5 367.5,-19.5 411.5,-19.5 411.5,-0.5 367.5,-0.5"/>
<text text-anchor="middle" x="389.5" y="-7.5" font-family="Helvetica,sans-Serif" font-size="10.00">regex</text>
</a>
</g>
</g>
<!-- Node5&#45;&gt;Node7 -->
<g id="edge6" class="edge">
<title>Node5&#45;&gt;Node7</title>
<path fill="none" stroke="midnightblue" d="M408.7,-56.08C405.59,-48.77 401.08,-38.18 397.21,-29.1"/>
<polygon fill="midnightblue" stroke="midnightblue" points="400.37,-27.58 393.23,-19.75 393.93,-30.32 400.37,-27.58"/>
</g>
<!-- Node5&#45;&gt;Node8 -->
<g id="edge7" class="edge">
<title>Node5&#45;&gt;Node8</title>
<path fill="none" stroke="midnightblue" d="M431.99,-56.44C452.14,-47.6 483.82,-33.69 506.83,-23.59"/>
<polygon fill="midnightblue" stroke="midnightblue" points="508.35,-26.74 516.1,-19.52 505.54,-20.33 508.35,-26.74"/>
</g>
<!-- Node9 -->
<g id="node9" class="node">
<title>Node9</title>
<g id="a_node9"><a xlink:title=" ">
<polygon fill="none" stroke="#bfbfbf" points="576,-0.5 576,-19.5 631,-19.5 631,-0.5 576,-0.5"/>
<text text-anchor="middle" x="603.5" y="-7.5" font-family="Helvetica,sans-Serif" font-size="10.00">fstream</text>
</a>
</g>
</g>
<!-- Node5&#45;&gt;Node9 -->
<g id="edge8" class="edge">
<title>Node5&#45;&gt;Node9</title>
<path fill="none" stroke="midnightblue" d="M442.76,-56.44C476.22,-46.98 530.15,-31.74 566.2,-21.55"/>
<polygon fill="midnightblue" stroke="midnightblue" points="567.19,-24.9 575.86,-18.82 565.28,-18.17 567.19,-24.9"/>
</g>
<!-- Node10 -->
<g id="node10" class="node">
<title>Node10</title>
<g id="a_node10"><a xlink:title=" ">
<polygon fill="none" stroke="#bfbfbf" points="649.5,-0.5 649.5,-19.5 705.5,-19.5 705.5,-0.5 649.5,-0.5"/>
<text text-anchor="middle" x="677.5" y="-7.5" font-family="Helvetica,sans-Serif" font-size="10.00">sstream</text>
</a>
</g>
</g>
<!-- Node5&#45;&gt;Node10 -->
<g id="edge10" class="edge">
<title>Node5&#45;&gt;Node10</title>
<path fill="none" stroke="midnightblue" d="M458.26,-56.44C504.17,-47.73 576.88,-33.62 639.5,-20 639.6,-19.98 639.7,-19.96 639.8,-19.94"/>
<polygon fill="midnightblue" stroke="midnightblue" points="640.31,-23.41 649.3,-17.8 638.78,-16.58 640.31,-23.41"/>
</g>
<!-- Node11 -->
<g id="node11" class="node">
<title>Node11</title>
<g id="a_node11"><a xlink:title=" ">
<polygon fill="none" stroke="#bfbfbf" points="430,-0.5 430,-19.5 495,-19.5 495,-0.5 430,-0.5"/>
<text text-anchor="middle" x="462.5" y="-7.5" font-family="Helvetica,sans-Serif" font-size="10.00">stdexcept</text>
</a>
</g>
</g>
<!-- Node5&#45;&gt;Node11 -->
<g id="edge11" class="edge">
<title>Node5&#45;&gt;Node11</title>
<path fill="none" stroke="midnightblue" d="M420.76,-56.08C427.96,-48.3 438.61,-36.8 447.35,-27.37"/>
<polygon fill="midnightblue" stroke="midnightblue" points="450.17,-29.47 454.4,-19.75 445.03,-24.71 450.17,-29.47"/>
</g>
<!-- Node12 -->
<g id="node12" class="node">
<title>Node12</title>
<g id="a_node12"><a xlink:title=" ">
<polygon fill="none" stroke="#bfbfbf" points="256,-0.5 256,-19.5 349,-19.5 349,-0.5 256,-0.5"/>
<text text-anchor="middle" x="302.5" y="-7.5" font-family="Helvetica,sans-Serif" font-size="10.00">unordered_map</text>
</a>
</g>
</g>
<!-- Node5&#45;&gt;Node12 -->
<g id="edge12" class="edge">
<title>Node5&#45;&gt;Node12</title>
<path fill="none" stroke="midnightblue" d="M394.83,-56.32C377.11,-47.62 349.6,-34.12 329.21,-24.11"/>
<polygon fill="midnightblue" stroke="midnightblue" points="330.65,-20.92 320.13,-19.65 327.56,-27.2 330.65,-20.92"/>
</g>
<!-- Node16&#45;&gt;Node4 -->
<g id="edge19" class="edge">
<title>Node16&#45;&gt;Node4</title>
<path fill="none" stroke="midnightblue" d="M231.84,-168.32C218.58,-159.9 198.23,-146.97 182.65,-137.07"/>
<polygon fill="midnightblue" stroke="midnightblue" points="184.44,-134.06 174.12,-131.65 180.69,-139.97 184.44,-134.06"/>
</g>
<!-- Node16&#45;&gt;Node14 -->
<g id="edge18" class="edge">
<title>Node16&#45;&gt;Node14</title>
<path fill="none" stroke="midnightblue" d="M243.83,-168.08C238.95,-141.95 224.62,-65.21 217.97,-29.58"/>
<polygon fill="midnightblue" stroke="midnightblue" points="221.38,-28.76 216.1,-19.57 214.5,-30.04 221.38,-28.76"/>
</g>
<!-- Node17&#45;&gt;Node4 -->
<g id="edge22" class="edge">
<title>Node17&#45;&gt;Node4</title>
<path fill="none" stroke="midnightblue" d="M166.95,-224.37C165.82,-206.62 163.22,-165.67 161.68,-141.6"/>
<polygon fill="midnightblue" stroke="midnightblue" points="165.17,-141.35 161.05,-131.59 158.19,-141.79 165.17,-141.35"/>
</g>
<!-- Node17&#45;&gt;Node16 -->
<g id="edge23" class="edge">
<title>Node17&#45;&gt;Node16</title>
<path fill="none" stroke="midnightblue" d="M180.03,-224.32C192.09,-215.98 210.53,-203.21 224.77,-193.35"/>
<polygon fill="midnightblue" stroke="midnightblue" points="226.77,-196.22 233,-187.65 222.78,-190.47 226.77,-196.22"/>
</g>
<!-- Node18 -->
<g id="node18" class="node">
<title>Node18</title>
<g id="a_node18"><a xlink:title=" ">
<polygon fill="none" stroke="#bfbfbf" points="0,-0.5 0,-19.5 59,-19.5 59,-0.5 0,-0.5"/>
<text text-anchor="middle" x="29.5" y="-7.5" font-family="Helvetica,sans-Serif" font-size="10.00">phydro.h</text>
</a>
</g>
</g>
<!-- Node17&#45;&gt;Node18 -->
<g id="edge21" class="edge">
<title>Node17&#45;&gt;Node18</title>
<path fill="none" stroke="midnightblue" d="M124.33,-231.9C91.91,-228.52 49.46,-218.12 27.5,-188 -7.29,-140.27 11.28,-64.44 22.71,-29.61"/>
<polygon fill="midnightblue" stroke="midnightblue" points="26.13,-30.42 26.09,-19.83 19.51,-28.14 26.13,-30.42"/>
</g>
<!-- Node19 -->
<g id="node19" class="node">
<title>Node19</title>
<g id="a_node19"><a xlink:href="assimilation_8tpp.html" target="_top" xlink:title=" ">
<polygon fill="none" stroke="black" points="37,-168.5 37,-187.5 132,-187.5 132,-168.5 37,-168.5"/>
<text text-anchor="middle" x="84.5" y="-175.5" font-family="Helvetica,sans-Serif" font-size="10.00">assimilation.tpp</text>
</a>
</g>
</g>
<!-- Node17&#45;&gt;Node19 -->
<g id="edge24" class="edge">
<title>Node17&#45;&gt;Node19</title>
<path fill="none" stroke="midnightblue" d="M154.16,-224.32C141.34,-215.98 121.72,-203.21 106.56,-193.35"/>
<polygon fill="midnightblue" stroke="midnightblue" points="108.09,-190.17 97.8,-187.65 104.28,-196.04 108.09,-190.17"/>
</g>
<!-- Node20&#45;&gt;Node4 -->
<g id="edge27" class="edge">
<title>Node20&#45;&gt;Node4</title>
<path fill="none" stroke="midnightblue" d="M415.41,-280.37C405.27,-271.55 389.33,-257.3 376.5,-244 345.63,-212.02 348.76,-192.23 311.5,-168 283.17,-149.58 247.02,-138.46 217.19,-131.88"/>
<polygon fill="midnightblue" stroke="midnightblue" points="217.84,-128.44 207.34,-129.82 216.41,-135.3 217.84,-128.44"/>
</g>
<!-- Node20&#45;&gt;Node5 -->
<g id="edge38" class="edge">
<title>Node20&#45;&gt;Node5</title>
<path fill="none" stroke="midnightblue" d="M437.04,-280.49C446.98,-272.38 460.62,-259.18 466.5,-244 469.71,-235.71 467.97,-232.77 466.5,-224 457.74,-171.59 433.59,-113.24 420.76,-84.69"/>
<polygon fill="midnightblue" stroke="midnightblue" points="423.94,-83.22 416.6,-75.59 417.57,-86.14 423.94,-83.22"/>
</g>
<!-- Node20&#45;&gt;Node9 -->
<g id="edge26" class="edge">
<title>Node20&#45;&gt;Node9</title>
<path fill="none" stroke="midnightblue" d="M440.17,-280.33C452.66,-272.29 470.3,-259.29 481.5,-244 534.46,-171.69 503.95,-130.02 554.5,-56 562.26,-44.64 573.4,-34.11 583.11,-26.1"/>
<polygon fill="midnightblue" stroke="midnightblue" points="585.47,-28.69 591.14,-19.74 581.12,-23.2 585.47,-28.69"/>
</g>
<!-- Node20&#45;&gt;Node16 -->
<g id="edge28" class="edge">
<title>Node20&#45;&gt;Node16</title>
<path fill="none" stroke="midnightblue" d="M400.36,-282.1C376.52,-274.86 340.33,-262.02 312.5,-244 291.58,-230.45 271.61,-209.72 259,-195.33"/>
<polygon fill="midnightblue" stroke="midnightblue" points="261.63,-193.02 252.48,-187.69 256.31,-197.56 261.63,-193.02"/>
</g>
<!-- Node20&#45;&gt;Node17 -->
<g id="edge29" class="edge">
<title>Node20&#45;&gt;Node17</title>
<path fill="none" stroke="midnightblue" d="M400.29,-283.72C358.28,-274.93 273.13,-257.11 218.29,-245.63"/>
<polygon fill="midnightblue" stroke="midnightblue" points="218.92,-242.19 208.42,-243.56 217.49,-249.04 218.92,-242.19"/>
</g>
<!-- Node21 -->
<g id="node21" class="node">
<title>Node21</title>
<g id="a_node21"><a xlink:href="rk4_8h.html" target="_top" xlink:title=" ">
<polygon fill="none" stroke="black" points="393,-224.5 393,-243.5 458,-243.5 458,-224.5 393,-224.5"/>
<text text-anchor="middle" x="425.5" y="-231.5" font-family="Helvetica,sans-Serif" font-size="10.00">utils/rk4.h</text>
</a>
</g>
</g>
<!-- Node20&#45;&gt;Node21 -->
<g id="edge30" class="edge">
<title>Node20&#45;&gt;Node21</title>
<path fill="none" stroke="midnightblue" d="M425.5,-280.08C425.5,-273.01 425.5,-262.86 425.5,-253.99"/>
<polygon fill="midnightblue" stroke="midnightblue" points="429,-253.75 425.5,-243.75 422,-253.75 429,-253.75"/>
</g>
<!-- Node22 -->
<g id="node22" class="node">
<title>Node22</title>
<g id="a_node22"><a xlink:href="moving__average_8h.html" target="_top" xlink:title=" ">
<polygon fill="none" stroke="black" points="853,-56.5 853,-75.5 984,-75.5 984,-56.5 853,-56.5"/>
<text text-anchor="middle" x="918.5" y="-63.5" font-family="Helvetica,sans-Serif" font-size="10.00">utils/moving_average.h</text>
</a>
</g>
</g>
<!-- Node20&#45;&gt;Node22 -->
<g id="edge31" class="edge">
<title>Node20&#45;&gt;Node22</title>
<path fill="none" stroke="midnightblue" d="M448.17,-280.41C471.09,-271.62 507.48,-257.39 538.5,-244 672.65,-186.1 830.09,-110.16 891.79,-80.08"/>
<polygon fill="midnightblue" stroke="midnightblue" points="893.41,-83.19 900.86,-75.66 890.33,-76.9 893.41,-83.19"/>
</g>
<!-- Node25 -->
<g id="node25" class="node">
<title>Node25</title>
<g id="a_node25"><a xlink:href="plant_8tpp.html" target="_top" xlink:title=" ">
<polygon fill="none" stroke="black" points="358.5,-168.5 358.5,-187.5 418.5,-187.5 418.5,-168.5 358.5,-168.5"/>
<text text-anchor="middle" x="388.5" y="-175.5" font-family="Helvetica,sans-Serif" font-size="10.00">plant.tpp</text>
</a>
</g>
</g>
<!-- Node20&#45;&gt;Node25 -->
<g id="edge39" class="edge">
<title>Node20&#45;&gt;Node25</title>
<path fill="none" stroke="midnightblue" d="M413.29,-280.24C403.15,-272.14 389.46,-259.11 383.5,-244 377.66,-229.19 379.75,-211.04 382.81,-197.68"/>
<polygon fill="midnightblue" stroke="midnightblue" points="386.26,-198.34 385.46,-187.77 379.5,-196.53 386.26,-198.34"/>
</g>
<!-- Node22&#45;&gt;Node2 -->
<g id="edge36" class="edge">
<title>Node22&#45;&gt;Node2</title>
<path fill="none" stroke="midnightblue" d="M932.8,-56.32C946.68,-47.9 967.99,-34.97 984.3,-25.07"/>
<polygon fill="midnightblue" stroke="midnightblue" points="986.5,-27.83 993.24,-19.65 982.87,-21.85 986.5,-27.83"/>
</g>
<!-- Node22&#45;&gt;Node6 -->
<g id="edge32" class="edge">
<title>Node22&#45;&gt;Node6</title>
<path fill="none" stroke="midnightblue" d="M892.36,-56.44C864.48,-47.32 820.15,-32.81 789.1,-22.65"/>
<polygon fill="midnightblue" stroke="midnightblue" points="790.12,-19.3 779.52,-19.52 787.94,-25.95 790.12,-19.3"/>
</g>
<!-- Node22&#45;&gt;Node14 -->
<g id="edge34" class="edge">
<title>Node22&#45;&gt;Node14</title>
<path fill="none" stroke="midnightblue" d="M852.67,-56.88C849.57,-56.57 846.5,-56.27 843.5,-56 582.12,-32.46 510.42,-63.43 248.34,-19.97"/>
<polygon fill="midnightblue" stroke="midnightblue" points="248.58,-16.46 238.14,-18.26 247.42,-23.36 248.58,-16.46"/>
</g>
<!-- Node22&#45;&gt;Node15 -->
<g id="edge35" class="edge">
<title>Node22&#45;&gt;Node15</title>
<path fill="none" stroke="midnightblue" d="M852.68,-56.86C849.58,-56.55 846.5,-56.26 843.5,-56 549.95,-30.43 474.11,-54.69 181.5,-20 177.3,-19.5 172.91,-18.87 168.56,-18.16"/>
<polygon fill="midnightblue" stroke="midnightblue" points="169.05,-14.69 158.6,-16.43 167.85,-21.59 169.05,-14.69"/>
</g>
<!-- Node23 -->
<g id="node23" class="node">
<title>Node23</title>
<g id="a_node23"><a xlink:title=" ">
<polygon fill="none" stroke="#bfbfbf" points="841.5,-0.5 841.5,-19.5 873.5,-19.5 873.5,-0.5 841.5,-0.5"/>
<text text-anchor="middle" x="857.5" y="-7.5" font-family="Helvetica,sans-Serif" font-size="10.00">list</text>
</a>
</g>
</g>
<!-- Node22&#45;&gt;Node23 -->
<g id="edge33" class="edge">
<title>Node22&#45;&gt;Node23</title>
<path fill="none" stroke="midnightblue" d="M908.7,-56.32C899.68,-48.34 886.09,-36.31 875.18,-26.65"/>
<polygon fill="midnightblue" stroke="midnightblue" points="877.29,-23.84 867.48,-19.83 872.65,-29.08 877.29,-23.84"/>
</g>
<!-- Node24 -->
<g id="node24" class="node">
<title>Node24</title>
<g id="a_node24"><a xlink:title=" ">
<polygon fill="none" stroke="#bfbfbf" points="891.5,-0.5 891.5,-19.5 955.5,-19.5 955.5,-0.5 891.5,-0.5"/>
<text text-anchor="middle" x="923.5" y="-7.5" font-family="Helvetica,sans-Serif" font-size="10.00">algorithm</text>
</a>
</g>
</g>
<!-- Node22&#45;&gt;Node24 -->
<g id="edge37" class="edge">
<title>Node22&#45;&gt;Node24</title>
<path fill="none" stroke="midnightblue" d="M919.33,-56.08C919.98,-49.01 920.92,-38.86 921.74,-29.99"/>
<polygon fill="midnightblue" stroke="midnightblue" points="925.25,-30.03 922.69,-19.75 918.28,-29.39 925.25,-30.03"/>
</g>
<!-- Node25&#45;&gt;Node14 -->
<g id="edge40" class="edge">
<title>Node25&#45;&gt;Node14</title>
<path fill="none" stroke="midnightblue" d="M379.15,-168.08C351.04,-141.27 267.11,-61.19 231.15,-26.89"/>
<polygon fill="midnightblue" stroke="midnightblue" points="233.13,-23.94 223.48,-19.57 228.3,-29 233.13,-23.94"/>
</g>
<!-- Node26&#45;&gt;Node2 -->
<g id="edge47" class="edge">
<title>Node26&#45;&gt;Node2</title>
<path fill="none" stroke="midnightblue" d="M625.81,-62.1C689.72,-55.99 839.68,-40.61 964.5,-20 967.56,-19.49 970.74,-18.92 973.91,-18.32"/>
<polygon fill="midnightblue" stroke="midnightblue" points="974.79,-21.71 983.91,-16.32 973.42,-14.85 974.79,-21.71"/>
</g>
<!-- Node26&#45;&gt;Node6 -->
<g id="edge45" class="edge">
<title>Node26&#45;&gt;Node6</title>
<path fill="none" stroke="midnightblue" d="M619.69,-56.44C646.44,-47.36 688.9,-32.94 718.81,-22.78"/>
<polygon fill="midnightblue" stroke="midnightblue" points="720.08,-26.05 728.42,-19.52 717.83,-19.42 720.08,-26.05"/>
</g>
<!-- Node26&#45;&gt;Node8 -->
<g id="edge42" class="edge">
<title>Node26&#45;&gt;Node8</title>
<path fill="none" stroke="midnightblue" d="M585.02,-56.32C576.3,-48.34 563.16,-36.31 552.6,-26.65"/>
<polygon fill="midnightblue" stroke="midnightblue" points="554.89,-24 545.15,-19.83 550.17,-29.17 554.89,-24"/>
</g>
<!-- Node26&#45;&gt;Node9 -->
<g id="edge43" class="edge">
<title>Node26&#45;&gt;Node9</title>
<path fill="none" stroke="midnightblue" d="M595.99,-56.08C597.18,-48.93 598.89,-38.64 600.38,-29.69"/>
<polygon fill="midnightblue" stroke="midnightblue" points="603.85,-30.19 602.04,-19.75 596.95,-29.04 603.85,-30.19"/>
</g>
<!-- Node26&#45;&gt;Node10 -->
<g id="edge44" class="edge">
<title>Node26&#45;&gt;Node10</title>
<path fill="none" stroke="midnightblue" d="M607.84,-56.32C620.66,-47.98 640.28,-35.21 655.44,-25.35"/>
<polygon fill="midnightblue" stroke="midnightblue" points="657.72,-28.04 664.2,-19.65 653.91,-22.17 657.72,-28.04"/>
</g>
<!-- Node26&#45;&gt;Node14 -->
<g id="edge46" class="edge">
<title>Node26&#45;&gt;Node14</title>
<path fill="none" stroke="midnightblue" d="M563.05,-62.48C503.33,-57.36 369.31,-44.29 248,-20.07"/>
<polygon fill="midnightblue" stroke="midnightblue" points="248.67,-16.63 238.17,-18.07 247.28,-23.49 248.67,-16.63"/>
</g>
<!-- Node26&#45;&gt;Node18 -->
<g id="edge48" class="edge">
<title>Node26&#45;&gt;Node18</title>
<path fill="none" stroke="midnightblue" d="M563.34,-62.63C484.98,-56.57 273.37,-39.59 97.5,-20 88.38,-18.98 78.6,-17.77 69.37,-16.56"/>
<polygon fill="midnightblue" stroke="midnightblue" points="69.63,-13.06 59.26,-15.21 68.71,-20 69.63,-13.06"/>
</g>
<!-- Node27&#45;&gt;Node2 -->
<g id="edge55" class="edge">
<title>Node27&#45;&gt;Node2</title>
<path fill="none" stroke="midnightblue" d="M724.7,-120.6C804.76,-118.89 954.37,-110.96 992.5,-76 1005.15,-64.4 1008.18,-44.44 1008.49,-29.69"/>
<polygon fill="midnightblue" stroke="midnightblue" points="1011.99,-29.59 1008.31,-19.66 1004.99,-29.72 1011.99,-29.59"/>
</g>
<!-- Node27&#45;&gt;Node6 -->
<g id="edge53" class="edge">
<title>Node27&#45;&gt;Node6</title>
<path fill="none" stroke="midnightblue" d="M679.78,-112.37C692.98,-94.22 723.83,-51.8 741.14,-27.99"/>
<polygon fill="midnightblue" stroke="midnightblue" points="744.2,-29.74 747.25,-19.59 738.54,-25.62 744.2,-29.74"/>
</g>
<!-- Node27&#45;&gt;Node8 -->
<g id="edge50" class="edge">
<title>Node27&#45;&gt;Node8</title>
<path fill="none" stroke="midnightblue" d="M622.48,-112.54C598.87,-106.18 572.21,-95.13 554.5,-76 542.9,-63.47 538.35,-44.25 536.58,-29.95"/>
<polygon fill="midnightblue" stroke="midnightblue" points="540.05,-29.42 535.68,-19.77 533.07,-30.04 540.05,-29.42"/>
</g>
<!-- Node27&#45;&gt;Node9 -->
<g id="edge51" class="edge">
<title>Node27&#45;&gt;Node9</title>
<path fill="none" stroke="midnightblue" d="M668.62,-112.48C661.39,-99.96 647.32,-75.92 634.5,-56 628.39,-46.51 621.27,-36.12 615.39,-27.72"/>
<polygon fill="midnightblue" stroke="midnightblue" points="618.23,-25.67 609.61,-19.52 612.51,-29.71 618.23,-25.67"/>
</g>
<!-- Node27&#45;&gt;Node10 -->
<g id="edge52" class="edge">
<title>Node27&#45;&gt;Node10</title>
<path fill="none" stroke="midnightblue" d="M673.81,-112.37C674.46,-94.62 675.95,-53.67 676.82,-29.6"/>
<polygon fill="midnightblue" stroke="midnightblue" points="680.32,-29.71 677.19,-19.59 673.33,-29.46 680.32,-29.71"/>
</g>
<!-- Node27&#45;&gt;Node14 -->
<g id="edge54" class="edge">
<title>Node27&#45;&gt;Node14</title>
<path fill="none" stroke="midnightblue" d="M622.28,-119.01C556.97,-115.34 441.16,-104.99 346.5,-76 340.99,-74.31 277.71,-42.73 240.81,-24.22"/>
<polygon fill="midnightblue" stroke="midnightblue" points="242.11,-20.96 231.61,-19.6 238.97,-27.22 242.11,-20.96"/>
</g>
<!-- Node27&#45;&gt;Node26 -->
<g id="edge56" class="edge">
<title>Node27&#45;&gt;Node26</title>
<path fill="none" stroke="midnightblue" d="M660.81,-112.32C648.6,-103.98 629.92,-91.21 615.5,-81.35"/>
<polygon fill="midnightblue" stroke="midnightblue" points="617.39,-78.41 607.16,-75.65 613.44,-84.19 617.39,-78.41"/>
</g>
<!-- Node28 -->
<g id="node28" class="node">
<title>Node28</title>
<g id="a_node28"><a xlink:title=" ">
<polygon fill="none" stroke="#bfbfbf" points="758,-56.5 758,-75.5 835,-75.5 835,-56.5 758,-56.5"/>
<text text-anchor="middle" x="796.5" y="-63.5" font-family="Helvetica,sans-Serif" font-size="10.00">csvstream.h</text>
</a>
</g>
</g>
<!-- Node27&#45;&gt;Node28 -->
<g id="edge57" class="edge">
<title>Node27&#45;&gt;Node28</title>
<path fill="none" stroke="midnightblue" d="M692.99,-112.44C713.14,-103.6 744.82,-89.69 767.83,-79.59"/>
<polygon fill="midnightblue" stroke="midnightblue" points="769.35,-82.74 777.1,-75.52 766.54,-76.33 769.35,-82.74"/>
</g>
<!-- Node29&#45;&gt;Node2 -->
<g id="edge60" class="edge">
<title>Node29&#45;&gt;Node2</title>
<path fill="none" stroke="midnightblue" d="M1116.06,-56.44C1094.83,-47.56 1061.4,-33.56 1037.25,-23.45"/>
<polygon fill="midnightblue" stroke="midnightblue" points="1038.42,-20.15 1027.84,-19.52 1035.72,-26.61 1038.42,-20.15"/>
</g>
<!-- Node29&#45;&gt;Node6 -->
<g id="edge59" class="edge">
<title>Node29&#45;&gt;Node6</title>
<path fill="none" stroke="midnightblue" d="M1078.75,-56.86C1000.23,-45.79 861.81,-26.27 793.68,-16.66"/>
<polygon fill="midnightblue" stroke="midnightblue" points="794.15,-13.2 783.76,-15.27 793.17,-20.13 794.15,-13.2"/>
</g>
<!-- Node30 -->
<g id="node30" class="node">
<title>Node30</title>
<g id="a_node30"><a xlink:title=" ">
<polygon fill="none" stroke="#bfbfbf" points="1066.5,-0.5 1066.5,-19.5 1182.5,-19.5 1182.5,-0.5 1066.5,-0.5"/>
<text text-anchor="middle" x="1124.5" y="-7.5" font-family="Helvetica,sans-Serif" font-size="10.00">environment_base.h</text>
</a>
</g>
</g>
<!-- Node29&#45;&gt;Node30 -->
<g id="edge61" class="edge">
<title>Node29&#45;&gt;Node30</title>
<path fill="none" stroke="midnightblue" d="M1134.52,-56.08C1132.93,-48.93 1130.64,-38.64 1128.65,-29.69"/>
<polygon fill="midnightblue" stroke="midnightblue" points="1132.03,-28.75 1126.44,-19.75 1125.2,-30.27 1132.03,-28.75"/>
</g>
<!-- Node31 -->
<g id="node31" class="node">
<title>Node31</title>
<g id="a_node31"><a xlink:title=" ">
<polygon fill="none" stroke="#bfbfbf" points="1200.5,-0.5 1200.5,-19.5 1256.5,-19.5 1256.5,-0.5 1200.5,-0.5"/>
<text text-anchor="middle" x="1228.5" y="-7.5" font-family="Helvetica,sans-Serif" font-size="10.00">solver.h</text>
</a>
</g>
</g>
<!-- Node29&#45;&gt;Node31 -->
<g id="edge62" class="edge">
<title>Node29&#45;&gt;Node31</title>
<path fill="none" stroke="midnightblue" d="M1151.28,-56.32C1165.77,-47.82 1188.07,-34.73 1204.99,-24.8"/>
<polygon fill="midnightblue" stroke="midnightblue" points="1206.9,-27.74 1213.76,-19.65 1203.36,-21.7 1206.9,-27.74"/>
</g>
</g>
</svg>
