<?xml version="1.0" encoding="UTF-8" standalone="no"?>
<!DOCTYPE svg PUBLIC "-//W3C//DTD SVG 1.1//EN"
 "http://www.w3.org/Graphics/SVG/1.1/DTD/svg11.dtd">
<!-- Generated by graphviz version 2.43.0 (0)
 -->
<!-- Title: inst/include/light_environment.h Pages: 1 -->
<svg width="966pt" height="285pt"
 viewBox="0.00 0.00 965.74 285.00" xmlns="http://www.w3.org/2000/svg" xmlns:xlink="http://www.w3.org/1999/xlink">
<g id="graph0" class="graph" transform="scale(1 1) rotate(0) translate(4 281)">
<title>inst/include/light_environment.h</title>
<!-- Node1 -->
<g id="node1" class="node">
<title>Node1</title>
<g id="a_node1"><a xlink:title=" ">
<polygon fill="#bfbfbf" stroke="black" points="395.24,-246.5 395.24,-276.5 493.24,-276.5 493.24,-246.5 395.24,-246.5"/>
<text text-anchor="start" x="403.24" y="-264.5" font-family="Helvetica,sans-Serif" font-size="10.00">inst/include/light</text>
<text text-anchor="middle" x="444.24" y="-253.5" font-family="Helvetica,sans-Serif" font-size="10.00">_environment.h</text>
</a>
</g>
</g>
<!-- Node2 -->
<g id="node2" class="node">
<title>Node2</title>
<g id="a_node2"><a xlink:href="community__properties_8cpp.html" target="_top" xlink:title=" ">
<polygon fill="none" stroke="black" points="172.24,-0.5 172.24,-19.5 336.24,-19.5 336.24,-0.5 172.24,-0.5"/>
<text text-anchor="middle" x="254.24" y="-7.5" font-family="Helvetica,sans-Serif" font-size="10.00">src/community_properties.cpp</text>
</a>
</g>
</g>
<!-- Node1&#45;&gt;Node2 -->
<g id="edge1" class="edge">
<title>Node1&#45;&gt;Node2</title>
<path fill="none" stroke="midnightblue" d="M385,-254.77C277.68,-243.03 57.93,-212.32 12.24,-154 -45.54,-80.24 119.47,-36.68 205.59,-19.51"/>
<polygon fill="midnightblue" stroke="midnightblue" points="384.71,-258.26 395.03,-255.85 385.46,-251.3 384.71,-258.26"/>
</g>
<!-- Node3 -->
<g id="node3" class="node">
<title>Node3</title>
<g id="a_node3"><a xlink:href="light__environment_8cpp.html" target="_top" xlink:title=" ">
<polygon fill="none" stroke="black" points="21.74,-129 21.74,-148 164.74,-148 164.74,-129 21.74,-129"/>
<text text-anchor="middle" x="93.24" y="-136" font-family="Helvetica,sans-Serif" font-size="10.00">src/light_environment.cpp</text>
</a>
</g>
</g>
<!-- Node1&#45;&gt;Node3 -->
<g id="edge2" class="edge">
<title>Node1&#45;&gt;Node3</title>
<path fill="none" stroke="midnightblue" d="M393.4,-242.98C316.98,-216.63 175.36,-167.81 118.16,-148.09"/>
<polygon fill="midnightblue" stroke="midnightblue" points="392.69,-246.43 403.29,-246.38 394.97,-239.81 392.69,-246.43"/>
</g>
<!-- Node4 -->
<g id="node4" class="node">
<title>Node4</title>
<g id="a_node4"><a xlink:href="r__interface_8cpp.html" target="_top" xlink:title=" ">
<polygon fill="none" stroke="black" points="640.74,-0.5 640.74,-19.5 747.74,-19.5 747.74,-0.5 640.74,-0.5"/>
<text text-anchor="middle" x="694.24" y="-7.5" font-family="Helvetica,sans-Serif" font-size="10.00">src/r_interface.cpp</text>
</a>
</g>
</g>
<!-- Node1&#45;&gt;Node4 -->
<g id="edge3" class="edge">
<title>Node1&#45;&gt;Node4</title>
<path fill="none" stroke="midnightblue" d="M503.08,-245.27C550.83,-229.93 616.39,-201.57 655.24,-154 689.09,-112.54 693.68,-44.05 694.21,-19.82"/>
<polygon fill="midnightblue" stroke="midnightblue" points="501.99,-241.94 493.48,-248.26 504.07,-248.63 501.99,-241.94"/>
</g>
<!-- Node5 -->
<g id="node5" class="node">
<title>Node5</title>
<g id="a_node5"><a xlink:href="life__history_8h.html" target="_top" xlink:title=" ">
<polygon fill="none" stroke="black" points="726.24,-190.5 726.24,-209.5 864.24,-209.5 864.24,-190.5 726.24,-190.5"/>
<text text-anchor="middle" x="795.24" y="-197.5" font-family="Helvetica,sans-Serif" font-size="10.00">inst/include/life_history.h</text>
</a>
</g>
</g>
<!-- Node1&#45;&gt;Node5 -->
<g id="edge4" class="edge">
<title>Node1&#45;&gt;Node5</title>
<path fill="none" stroke="midnightblue" d="M503.51,-250.45C571.32,-238.96 681.19,-220.33 744.98,-209.52"/>
<polygon fill="midnightblue" stroke="midnightblue" points="502.69,-247.04 493.41,-252.16 503.86,-253.94 502.69,-247.04"/>
</g>
<!-- Node8 -->
<g id="node8" class="node">
<title>Node8</title>
<g id="a_node8"><a xlink:href="pspm__interface_8h.html" target="_top" xlink:title=" ">
<polygon fill="none" stroke="black" points="363.74,-190.5 363.74,-209.5 524.74,-209.5 524.74,-190.5 363.74,-190.5"/>
<text text-anchor="middle" x="444.24" y="-197.5" font-family="Helvetica,sans-Serif" font-size="10.00">inst/include/pspm_interface.h</text>
</a>
</g>
</g>
<!-- Node1&#45;&gt;Node8 -->
<g id="edge8" class="edge">
<title>Node1&#45;&gt;Node8</title>
<path fill="none" stroke="midnightblue" d="M444.24,-236.29C444.24,-226.86 444.24,-216.65 444.24,-209.66"/>
<polygon fill="midnightblue" stroke="midnightblue" points="440.74,-236.4 444.24,-246.4 447.74,-236.4 440.74,-236.4"/>
</g>
<!-- Node5&#45;&gt;Node4 -->
<g id="edge6" class="edge">
<title>Node5&#45;&gt;Node4</title>
<path fill="none" stroke="midnightblue" d="M774.28,-184.07C764.34,-176.1 752.98,-165.56 745.24,-154 714.87,-108.67 700.27,-43.15 695.79,-19.73"/>
<polygon fill="midnightblue" stroke="midnightblue" points="772.45,-187.08 782.52,-190.38 776.7,-181.52 772.45,-187.08"/>
</g>
<!-- Node6 -->
<g id="node6" class="node">
<title>Node6</title>
<g id="a_node6"><a xlink:href="life__history_8cpp.html" target="_top" xlink:title=" ">
<polygon fill="none" stroke="black" points="753.74,-129 753.74,-148 860.74,-148 860.74,-129 753.74,-129"/>
<text text-anchor="middle" x="807.24" y="-136" font-family="Helvetica,sans-Serif" font-size="10.00">src/life_history.cpp</text>
</a>
</g>
</g>
<!-- Node5&#45;&gt;Node6 -->
<g id="edge5" class="edge">
<title>Node5&#45;&gt;Node6</title>
<path fill="none" stroke="midnightblue" d="M798.94,-180.66C801.13,-169.77 803.81,-156.49 805.52,-148.01"/>
<polygon fill="midnightblue" stroke="midnightblue" points="795.5,-179.98 796.96,-190.48 802.37,-181.36 795.5,-179.98"/>
</g>
<!-- Node7 -->
<g id="node7" class="node">
<title>Node7</title>
<g id="a_node7"><a xlink:href="lho_8cpp.html" target="_top" xlink:title=" ">
<polygon fill="none" stroke="black" points="878.74,-129 878.74,-148 957.74,-148 957.74,-129 878.74,-129"/>
<text text-anchor="middle" x="918.24" y="-136" font-family="Helvetica,sans-Serif" font-size="10.00">tests/lho.cpp</text>
</a>
</g>
</g>
<!-- Node5&#45;&gt;Node7 -->
<g id="edge7" class="edge">
<title>Node5&#45;&gt;Node7</title>
<path fill="none" stroke="midnightblue" d="M822.07,-186.02C845.92,-174.48 880.11,-157.94 900.65,-148.01"/>
<polygon fill="midnightblue" stroke="midnightblue" points="820.34,-182.97 812.86,-190.48 823.39,-189.27 820.34,-182.97"/>
</g>
<!-- Node8&#45;&gt;Node3 -->
<g id="edge9" class="edge">
<title>Node8&#45;&gt;Node3</title>
<path fill="none" stroke="midnightblue" d="M382.04,-188.85C327.3,-179.87 245.43,-166.3 174.24,-154 163.26,-152.1 151.45,-150.01 140.34,-148.03"/>
<polygon fill="midnightblue" stroke="midnightblue" points="381.51,-192.31 391.94,-190.47 382.64,-185.4 381.51,-192.31"/>
</g>
<!-- Node8&#45;&gt;Node4 -->
<g id="edge11" class="edge">
<title>Node8&#45;&gt;Node4</title>
<path fill="none" stroke="midnightblue" d="M535.3,-193.67C568.25,-187.72 603.81,-176.14 630.24,-154 666.7,-123.46 653.63,-99.33 673.24,-56 679,-43.28 685.88,-28.64 690.15,-19.6"/>
<polygon fill="midnightblue" stroke="midnightblue" points="534.47,-190.26 525.17,-195.34 535.61,-197.17 534.47,-190.26"/>
</g>
<!-- Node9 -->
<g id="node9" class="node">
<title>Node9</title>
<g id="a_node9"><a xlink:href="pspm__interface_8cpp.html" target="_top" xlink:title=" ">
<polygon fill="none" stroke="black" points="183.24,-129 183.24,-148 313.24,-148 313.24,-129 183.24,-129"/>
<text text-anchor="middle" x="248.24" y="-136" font-family="Helvetica,sans-Serif" font-size="10.00">src/pspm_interface.cpp</text>
</a>
</g>
</g>
<!-- Node8&#45;&gt;Node9 -->
<g id="edge10" class="edge">
<title>Node8&#45;&gt;Node9</title>
<path fill="none" stroke="midnightblue" d="M406.45,-187.53C368.36,-175.96 310.45,-158.38 276.27,-148.01"/>
<polygon fill="midnightblue" stroke="midnightblue" points="405.57,-190.92 416.16,-190.48 407.6,-184.22 405.57,-190.92"/>
</g>
<!-- Node10 -->
<g id="node10" class="node">
<title>Node10</title>
<g id="a_node10"><a xlink:href="community__properties_8h.html" target="_top" xlink:title=" ">
<polygon fill="none" stroke="black" points="331.74,-123.5 331.74,-153.5 462.74,-153.5 462.74,-123.5 331.74,-123.5"/>
<text text-anchor="start" x="339.74" y="-141.5" font-family="Helvetica,sans-Serif" font-size="10.00">inst/include/community</text>
<text text-anchor="middle" x="397.24" y="-130.5" font-family="Helvetica,sans-Serif" font-size="10.00">_properties.h</text>
</a>
</g>
</g>
<!-- Node8&#45;&gt;Node10 -->
<g id="edge12" class="edge">
<title>Node8&#45;&gt;Node10</title>
<path fill="none" stroke="midnightblue" d="M431.23,-182.53C424.03,-173.42 415.18,-162.21 408.32,-153.52"/>
<polygon fill="midnightblue" stroke="midnightblue" points="428.56,-184.8 437.51,-190.48 434.05,-180.46 428.56,-184.8"/>
</g>
<!-- Node11 -->
<g id="node11" class="node">
<title>Node11</title>
<g id="a_node11"><a xlink:href="plantfate__patch_8h.html" target="_top" xlink:title=" ">
<polygon fill="none" stroke="black" points="422.24,-56.5 422.24,-86.5 542.24,-86.5 542.24,-56.5 422.24,-56.5"/>
<text text-anchor="start" x="430.24" y="-74.5" font-family="Helvetica,sans-Serif" font-size="10.00">inst/include/plantfate</text>
<text text-anchor="middle" x="482.24" y="-63.5" font-family="Helvetica,sans-Serif" font-size="10.00">_patch.h</text>
</a>
</g>
</g>
<!-- Node8&#45;&gt;Node11 -->
<g id="edge19" class="edge">
<title>Node8&#45;&gt;Node11</title>
<path fill="none" stroke="midnightblue" d="M456.83,-181.78C462.12,-173.72 467.82,-163.76 471.24,-154 479.18,-131.37 481.43,-103.34 482.05,-86.75"/>
<polygon fill="midnightblue" stroke="midnightblue" points="453.79,-180.02 450.99,-190.24 459.55,-184 453.79,-180.02"/>
</g>
<!-- Node14 -->
<g id="node14" class="node">
<title>Node14</title>
<g id="a_node14"><a xlink:href="state__restore_8h.html" target="_top" xlink:title=" ">
<polygon fill="none" stroke="black" points="519.74,-123.5 519.74,-153.5 620.74,-153.5 620.74,-123.5 519.74,-123.5"/>
<text text-anchor="start" x="527.74" y="-141.5" font-family="Helvetica,sans-Serif" font-size="10.00">inst/include/state</text>
<text text-anchor="middle" x="570.24" y="-130.5" font-family="Helvetica,sans-Serif" font-size="10.00">_restore.h</text>
</a>
</g>
</g>
<!-- Node8&#45;&gt;Node14 -->
<g id="edge20" class="edge">
<title>Node8&#45;&gt;Node14</title>
<path fill="none" stroke="midnightblue" d="M471.34,-186.2C491.71,-176.58 519.58,-163.42 540.54,-153.52"/>
<polygon fill="midnightblue" stroke="midnightblue" points="469.84,-183.04 462.29,-190.48 472.83,-189.37 469.84,-183.04"/>
</g>
<!-- Node10&#45;&gt;Node2 -->
<g id="edge13" class="edge">
<title>Node10&#45;&gt;Node2</title>
<path fill="none" stroke="midnightblue" d="M373.86,-116.82C342.09,-88.72 286.69,-39.7 264.17,-19.79"/>
<polygon fill="midnightblue" stroke="midnightblue" points="371.58,-119.47 381.39,-123.48 376.22,-114.23 371.58,-119.47"/>
</g>
<!-- Node10&#45;&gt;Node11 -->
<g id="edge14" class="edge">
<title>Node10&#45;&gt;Node11</title>
<path fill="none" stroke="midnightblue" d="M423.83,-117.17C436.83,-107.23 452.14,-95.51 463.83,-86.58"/>
<polygon fill="midnightblue" stroke="midnightblue" points="421.5,-114.54 415.68,-123.4 425.75,-120.1 421.5,-114.54"/>
</g>
<!-- Node11&#45;&gt;Node2 -->
<g id="edge15" class="edge">
<title>Node11&#45;&gt;Node2</title>
<path fill="none" stroke="midnightblue" d="M418.71,-53.92C375.87,-42.74 321.1,-28.45 286.83,-19.51"/>
<polygon fill="midnightblue" stroke="midnightblue" points="417.94,-57.34 428.49,-56.47 419.7,-50.56 417.94,-57.34"/>
</g>
<!-- Node11&#45;&gt;Node4 -->
<g id="edge17" class="edge">
<title>Node11&#45;&gt;Node4</title>
<path fill="none" stroke="midnightblue" d="M542.06,-53.71C581.79,-42.56 632.27,-28.39 663.93,-19.51"/>
<polygon fill="midnightblue" stroke="midnightblue" points="540.89,-50.4 532.21,-56.47 542.79,-57.14 540.89,-50.4"/>
</g>
<!-- Node12 -->
<g id="node12" class="node">
<title>Node12</title>
<g id="a_node12"><a xlink:href="plantfate__patch_8cpp.html" target="_top" xlink:title=" ">
<polygon fill="none" stroke="black" points="354.74,-0.5 354.74,-19.5 485.74,-19.5 485.74,-0.5 354.74,-0.5"/>
<text text-anchor="middle" x="420.24" y="-7.5" font-family="Helvetica,sans-Serif" font-size="10.00">src/plantfate_patch.cpp</text>
</a>
</g>
</g>
<!-- Node11&#45;&gt;Node12 -->
<g id="edge16" class="edge">
<title>Node11&#45;&gt;Node12</title>
<path fill="none" stroke="midnightblue" d="M460.15,-49.3C449.51,-39.09 437.34,-27.41 429.26,-19.66"/>
<polygon fill="midnightblue" stroke="midnightblue" points="457.91,-52 467.55,-56.4 462.75,-46.95 457.91,-52"/>
</g>
<!-- Node13 -->
<g id="node13" class="node">
<title>Node13</title>
<g id="a_node13"><a xlink:href="state__restore_8cpp.html" target="_top" xlink:title=" ">
<polygon fill="none" stroke="black" points="503.74,-0.5 503.74,-19.5 622.74,-19.5 622.74,-0.5 503.74,-0.5"/>
<text text-anchor="middle" x="563.24" y="-7.5" font-family="Helvetica,sans-Serif" font-size="10.00">src/state_restore.cpp</text>
</a>
</g>
</g>
<!-- Node11&#45;&gt;Node13 -->
<g id="edge18" class="edge">
<title>Node11&#45;&gt;Node13</title>
<path fill="none" stroke="midnightblue" d="M509.89,-50.19C524.07,-39.77 540.6,-27.63 551.45,-19.66"/>
<polygon fill="midnightblue" stroke="midnightblue" points="507.42,-47.66 501.43,-56.4 511.57,-53.3 507.42,-47.66"/>
</g>
<!-- Node14&#45;&gt;Node11 -->
<g id="edge22" class="edge">
<title>Node14&#45;&gt;Node11</title>
<path fill="none" stroke="midnightblue" d="M543.1,-117.45C529.56,-107.45 513.51,-95.6 501.3,-86.58"/>
<polygon fill="midnightblue" stroke="midnightblue" points="541.02,-120.27 551.14,-123.4 545.18,-114.64 541.02,-120.27"/>
</g>
<!-- Node14&#45;&gt;Node13 -->
<g id="edge21" class="edge">
<title>Node14&#45;&gt;Node13</title>
<path fill="none" stroke="midnightblue" d="M568.89,-113.14C567.31,-84.62 564.78,-38.86 563.73,-19.79"/>
<polygon fill="midnightblue" stroke="midnightblue" points="565.42,-113.69 569.46,-123.48 572.41,-113.3 565.42,-113.69"/>
</g>
</g>
</svg>
