<?xml version="1.0" encoding="UTF-8" standalone="no"?>
<!DOCTYPE svg PUBLIC "-//W3C//DTD SVG 1.1//EN"
 "http://www.w3.org/Graphics/SVG/1.1/DTD/svg11.dtd">
<!-- Generated by graphviz version 2.43.0 (0)
 -->
<!-- Title: src/light_environment.cpp Pages: 1 -->
<svg width="1453pt" height="420pt"
 viewBox="0.00 0.00 1452.50 420.00" xmlns="http://www.w3.org/2000/svg" xmlns:xlink="http://www.w3.org/1999/xlink">
<g id="graph0" class="graph" transform="scale(1 1) rotate(0) translate(4 416)">
<title>src/light_environment.cpp</title>
<!-- Node1 -->
<g id="node1" class="node">
<title>Node1</title>
<g id="a_node1"><a xlink:title=" ">
<polygon fill="#bfbfbf" stroke="black" points="226.5,-392.5 226.5,-411.5 369.5,-411.5 369.5,-392.5 226.5,-392.5"/>
<text text-anchor="middle" x="298" y="-399.5" font-family="Helvetica,sans-Serif" font-size="10.00">src/light_environment.cpp</text>
</a>
</g>
</g>
<!-- Node2 -->
<g id="node2" class="node">
<title>Node2</title>
<g id="a_node2"><a xlink:title=" ">
<polygon fill="none" stroke="#bfbfbf" points="380,-0.5 380,-19.5 440,-19.5 440,-0.5 380,-0.5"/>
<text text-anchor="middle" x="410" y="-7.5" font-family="Helvetica,sans-Serif" font-size="10.00">iostream</text>
</a>
</g>
</g>
<!-- Node1&#45;&gt;Node2 -->
<g id="edge1" class="edge">
<title>Node1&#45;&gt;Node2</title>
<path fill="none" stroke="midnightblue" d="M226.28,-398.7C177.41,-394.5 112.64,-383.58 62,-356 26.94,-336.9 0,-330.92 0,-291 0,-291 0,-291 0,-121 0,-73.79 40.48,-74.29 84,-56 180.59,-15.4 306.09,-9.88 369.51,-10.01"/>
<polygon fill="midnightblue" stroke="midnightblue" points="369.85,-13.51 379.88,-10.08 369.9,-6.51 369.85,-13.51"/>
</g>
<!-- Node3 -->
<g id="node3" class="node">
<title>Node3</title>
<g id="a_node3"><a xlink:title=" ">
<polygon fill="none" stroke="#bfbfbf" points="1135.5,-56.5 1135.5,-75.5 1182.5,-75.5 1182.5,-56.5 1135.5,-56.5"/>
<text text-anchor="middle" x="1159" y="-63.5" font-family="Helvetica,sans-Serif" font-size="10.00">cmath</text>
</a>
</g>
</g>
<!-- Node1&#45;&gt;Node3 -->
<g id="edge2" class="edge">
<title>Node1&#45;&gt;Node3</title>
<path fill="none" stroke="midnightblue" d="M369.52,-400.55C596.7,-398.18 1287,-383.37 1287,-291 1287,-291 1287,-291 1287,-233 1287,-164.56 1217.92,-107.09 1181.26,-81.41"/>
<polygon fill="midnightblue" stroke="midnightblue" points="1182.93,-78.31 1172.7,-75.58 1178.99,-84.1 1182.93,-78.31"/>
</g>
<!-- Node4 -->
<g id="node4" class="node">
<title>Node4</title>
<g id="a_node4"><a xlink:title=" ">
<polygon fill="none" stroke="#bfbfbf" points="458.5,-0.5 458.5,-19.5 505.5,-19.5 505.5,-0.5 458.5,-0.5"/>
<text text-anchor="middle" x="482" y="-7.5" font-family="Helvetica,sans-Serif" font-size="10.00">vector</text>
</a>
</g>
</g>
<!-- Node1&#45;&gt;Node4 -->
<g id="edge3" class="edge">
<title>Node1&#45;&gt;Node4</title>
<path fill="none" stroke="midnightblue" d="M226.23,-395C161.37,-385.18 76,-359.28 76,-291 76,-291 76,-291 76,-121 76,47.56 273.98,-54.2 448.4,-19.83"/>
<polygon fill="midnightblue" stroke="midnightblue" points="449.21,-23.23 458.27,-17.73 447.76,-16.39 449.21,-23.23"/>
</g>
<!-- Node5 -->
<g id="node5" class="node">
<title>Node5</title>
<g id="a_node5"><a xlink:href="light__environment_8h.html" target="_top" xlink:title=" ">
<polygon fill="none" stroke="black" points="142.5,-168.5 142.5,-187.5 257.5,-187.5 257.5,-168.5 142.5,-168.5"/>
<text text-anchor="middle" x="200" y="-175.5" font-family="Helvetica,sans-Serif" font-size="10.00">light_environment.h</text>
</a>
</g>
</g>
<!-- Node1&#45;&gt;Node5 -->
<g id="edge4" class="edge">
<title>Node1&#45;&gt;Node5</title>
<path fill="none" stroke="midnightblue" d="M288.58,-392.32C271.58,-376.03 235.94,-339 219,-300 204.23,-265.99 200.76,-222.17 200.06,-197.68"/>
<polygon fill="midnightblue" stroke="midnightblue" points="203.56,-197.56 199.9,-187.62 196.56,-197.68 203.56,-197.56"/>
</g>
<!-- Node8 -->
<g id="node8" class="node">
<title>Node8</title>
<g id="a_node8"><a xlink:href="adaptive__species_8h.html" target="_top" xlink:title=" ">
<polygon fill="none" stroke="black" points="481,-168.5 481,-187.5 591,-187.5 591,-168.5 481,-168.5"/>
<text text-anchor="middle" x="536" y="-175.5" font-family="Helvetica,sans-Serif" font-size="10.00">adaptive_species.h</text>
</a>
</g>
</g>
<!-- Node1&#45;&gt;Node8 -->
<g id="edge9" class="edge">
<title>Node1&#45;&gt;Node8</title>
<path fill="none" stroke="midnightblue" d="M355.11,-392.5C382.25,-386.12 413.76,-375.06 437,-356 489.8,-312.7 519.42,-233.42 530.67,-197.53"/>
<polygon fill="midnightblue" stroke="midnightblue" points="534.05,-198.46 533.58,-187.87 527.35,-196.44 534.05,-198.46"/>
</g>
<!-- Node16 -->
<g id="node16" class="node">
<title>Node16</title>
<g id="a_node16"><a xlink:href="pspm__interface_8h.html" target="_top" xlink:title=" ">
<polygon fill="none" stroke="black" points="326.5,-336.5 326.5,-355.5 427.5,-355.5 427.5,-336.5 326.5,-336.5"/>
<text text-anchor="middle" x="377" y="-343.5" font-family="Helvetica,sans-Serif" font-size="10.00">pspm_interface.h</text>
</a>
</g>
</g>
<!-- Node1&#45;&gt;Node16 -->
<g id="edge22" class="edge">
<title>Node1&#45;&gt;Node16</title>
<path fill="none" stroke="midnightblue" d="M310.69,-392.32C322.9,-383.98 341.58,-371.21 356,-361.35"/>
<polygon fill="midnightblue" stroke="midnightblue" points="358.06,-364.19 364.34,-355.65 354.11,-358.41 358.06,-364.19"/>
</g>
<!-- Node5&#45;&gt;Node2 -->
<g id="edge5" class="edge">
<title>Node5&#45;&gt;Node2</title>
<path fill="none" stroke="midnightblue" d="M155.3,-168.48C134.77,-162.09 112.3,-151.02 100,-132 81.66,-103.64 77.9,-81.54 100,-56 134.41,-16.23 293.76,-10.87 369.63,-10.62"/>
<polygon fill="midnightblue" stroke="midnightblue" points="369.76,-14.12 379.76,-10.62 369.76,-7.12 369.76,-14.12"/>
</g>
<!-- Node5&#45;&gt;Node4 -->
<g id="edge6" class="edge">
<title>Node5&#45;&gt;Node4</title>
<path fill="none" stroke="midnightblue" d="M179,-168.4C153.53,-156.72 115.96,-134.67 133,-112 135.45,-108.74 361.78,-44.81 448.61,-20.38"/>
<polygon fill="midnightblue" stroke="midnightblue" points="449.8,-23.68 458.48,-17.6 447.91,-16.94 449.8,-23.68"/>
</g>
<!-- Node6 -->
<g id="node6" class="node">
<title>Node6</title>
<g id="a_node6"><a xlink:title=" ">
<polygon fill="none" stroke="#bfbfbf" points="142,-112.5 142,-131.5 258,-131.5 258,-112.5 142,-112.5"/>
<text text-anchor="middle" x="200" y="-119.5" font-family="Helvetica,sans-Serif" font-size="10.00">environment_base.h</text>
</a>
</g>
</g>
<!-- Node5&#45;&gt;Node6 -->
<g id="edge7" class="edge">
<title>Node5&#45;&gt;Node6</title>
<path fill="none" stroke="midnightblue" d="M200,-168.08C200,-161.01 200,-150.86 200,-141.99"/>
<polygon fill="midnightblue" stroke="midnightblue" points="203.5,-141.75 200,-131.75 196.5,-141.75 203.5,-141.75"/>
</g>
<!-- Node7 -->
<g id="node7" class="node">
<title>Node7</title>
<g id="a_node7"><a xlink:title=" ">
<polygon fill="none" stroke="#bfbfbf" points="276,-112.5 276,-131.5 332,-131.5 332,-112.5 276,-112.5"/>
<text text-anchor="middle" x="304" y="-119.5" font-family="Helvetica,sans-Serif" font-size="10.00">solver.h</text>
</a>
</g>
</g>
<!-- Node5&#45;&gt;Node7 -->
<g id="edge8" class="edge">
<title>Node5&#45;&gt;Node7</title>
<path fill="none" stroke="midnightblue" d="M216.71,-168.32C233.31,-159.7 259,-146.36 278.22,-136.39"/>
<polygon fill="midnightblue" stroke="midnightblue" points="280.07,-139.37 287.33,-131.65 276.84,-133.16 280.07,-139.37"/>
</g>
<!-- Node8&#45;&gt;Node4 -->
<g id="edge11" class="edge">
<title>Node8&#45;&gt;Node4</title>
<path fill="none" stroke="midnightblue" d="M533.1,-168.08C524.56,-141.83 499.42,-64.55 487.89,-29.12"/>
<polygon fill="midnightblue" stroke="midnightblue" points="491.21,-27.99 484.79,-19.57 484.55,-30.16 491.21,-27.99"/>
</g>
<!-- Node8&#45;&gt;Node7 -->
<g id="edge10" class="edge">
<title>Node8&#45;&gt;Node7</title>
<path fill="none" stroke="midnightblue" d="M498.22,-168.42C460.99,-159.93 402.21,-146.46 342.29,-132.29"/>
<polygon fill="midnightblue" stroke="midnightblue" points="342.81,-128.81 332.27,-129.91 341.2,-135.62 342.81,-128.81"/>
</g>
<!-- Node9 -->
<g id="node9" class="node">
<title>Node9</title>
<g id="a_node9"><a xlink:title=" ">
<polygon fill="none" stroke="#bfbfbf" points="926,-0.5 926,-19.5 970,-19.5 970,-0.5 926,-0.5"/>
<text text-anchor="middle" x="948" y="-7.5" font-family="Helvetica,sans-Serif" font-size="10.00">string</text>
</a>
</g>
</g>
<!-- Node8&#45;&gt;Node9 -->
<g id="edge12" class="edge">
<title>Node8&#45;&gt;Node9</title>
<path fill="none" stroke="midnightblue" d="M532.84,-168.28C525.47,-146.23 509.86,-87.72 539,-56 564.39,-28.36 823.78,-15.77 915.82,-12.15"/>
<polygon fill="midnightblue" stroke="midnightblue" points="916.08,-15.64 925.94,-11.76 915.82,-8.65 916.08,-15.64"/>
</g>
<!-- Node10 -->
<g id="node10" class="node">
<title>Node10</title>
<g id="a_node10"><a xlink:title=" ">
<polygon fill="none" stroke="#bfbfbf" points="1017.5,-56.5 1017.5,-75.5 1078.5,-75.5 1078.5,-56.5 1017.5,-56.5"/>
<text text-anchor="middle" x="1048" y="-63.5" font-family="Helvetica,sans-Serif" font-size="10.00">io_utils.h</text>
</a>
</g>
</g>
<!-- Node8&#45;&gt;Node10 -->
<g id="edge13" class="edge">
<title>Node8&#45;&gt;Node10</title>
<path fill="none" stroke="midnightblue" d="M591.02,-171.35C651.91,-164.51 752.72,-151.43 838,-132 901.6,-117.51 973.88,-93.4 1014.9,-78.97"/>
<polygon fill="midnightblue" stroke="midnightblue" points="1016.13,-82.24 1024.39,-75.61 1013.79,-75.65 1016.13,-82.24"/>
</g>
<!-- Node11 -->
<g id="node11" class="node">
<title>Node11</title>
<g id="a_node11"><a xlink:href="moving__average_8h.html" target="_top" xlink:title=" ">
<polygon fill="none" stroke="black" points="564.5,-112.5 564.5,-131.5 695.5,-131.5 695.5,-112.5 564.5,-112.5"/>
<text text-anchor="middle" x="630" y="-119.5" font-family="Helvetica,sans-Serif" font-size="10.00">utils/moving_average.h</text>
</a>
</g>
</g>
<!-- Node8&#45;&gt;Node11 -->
<g id="edge14" class="edge">
<title>Node8&#45;&gt;Node11</title>
<path fill="none" stroke="midnightblue" d="M551.1,-168.32C565.9,-159.82 588.69,-146.73 605.98,-136.8"/>
<polygon fill="midnightblue" stroke="midnightblue" points="608.01,-139.67 614.93,-131.65 604.52,-133.6 608.01,-139.67"/>
</g>
<!-- Node15 -->
<g id="node15" class="node">
<title>Node15</title>
<g id="a_node15"><a xlink:href="adaptive__species_8tpp.html" target="_top" xlink:title=" ">
<polygon fill="none" stroke="black" points="350,-112.5 350,-131.5 470,-131.5 470,-112.5 350,-112.5"/>
<text text-anchor="middle" x="410" y="-119.5" font-family="Helvetica,sans-Serif" font-size="10.00">adaptive_species.tpp</text>
</a>
</g>
</g>
<!-- Node8&#45;&gt;Node15 -->
<g id="edge21" class="edge">
<title>Node8&#45;&gt;Node15</title>
<path fill="none" stroke="midnightblue" d="M516.03,-168.44C495.39,-159.6 462.94,-145.69 439.37,-135.59"/>
<polygon fill="midnightblue" stroke="midnightblue" points="440.44,-132.24 429.87,-131.52 437.68,-138.67 440.44,-132.24"/>
</g>
<!-- Node11&#45;&gt;Node2 -->
<g id="edge15" class="edge">
<title>Node11&#45;&gt;Node2</title>
<path fill="none" stroke="midnightblue" d="M603.59,-112.36C579.68,-104.16 543.74,-90.9 514,-76 483.65,-60.8 450.77,-39.33 430.28,-25.29"/>
<polygon fill="midnightblue" stroke="midnightblue" points="432.26,-22.4 422.05,-19.59 428.28,-28.16 432.26,-22.4"/>
</g>
<!-- Node11&#45;&gt;Node3 -->
<g id="edge17" class="edge">
<title>Node11&#45;&gt;Node3</title>
<path fill="none" stroke="midnightblue" d="M695.67,-115.13C784.65,-107.05 948.46,-91.7 1088,-76 1100.22,-74.63 1113.61,-72.97 1125.43,-71.45"/>
<polygon fill="midnightblue" stroke="midnightblue" points="1125.89,-74.92 1135.35,-70.17 1124.99,-67.98 1125.89,-74.92"/>
</g>
<!-- Node11&#45;&gt;Node4 -->
<g id="edge19" class="edge">
<title>Node11&#45;&gt;Node4</title>
<path fill="none" stroke="midnightblue" d="M606.51,-112.37C587.24,-104.62 559.83,-92 539,-76 521.03,-62.2 504.44,-42.08 493.84,-27.88"/>
<polygon fill="midnightblue" stroke="midnightblue" points="496.5,-25.58 487.79,-19.54 490.83,-29.69 496.5,-25.58"/>
</g>
<!-- Node12 -->
<g id="node12" class="node">
<title>Node12</title>
<g id="a_node12"><a xlink:title=" ">
<polygon fill="none" stroke="#bfbfbf" points="548,-56.5 548,-75.5 580,-75.5 580,-56.5 548,-56.5"/>
<text text-anchor="middle" x="564" y="-63.5" font-family="Helvetica,sans-Serif" font-size="10.00">list</text>
</a>
</g>
</g>
<!-- Node11&#45;&gt;Node12 -->
<g id="edge16" class="edge">
<title>Node11&#45;&gt;Node12</title>
<path fill="none" stroke="midnightblue" d="M619.4,-112.32C609.54,-104.26 594.65,-92.08 582.78,-82.37"/>
<polygon fill="midnightblue" stroke="midnightblue" points="584.75,-79.46 574.8,-75.83 580.32,-84.88 584.75,-79.46"/>
</g>
<!-- Node13 -->
<g id="node13" class="node">
<title>Node13</title>
<g id="a_node13"><a xlink:title=" ">
<polygon fill="none" stroke="#bfbfbf" points="680,-56.5 680,-75.5 732,-75.5 732,-56.5 680,-56.5"/>
<text text-anchor="middle" x="706" y="-63.5" font-family="Helvetica,sans-Serif" font-size="10.00">cassert</text>
</a>
</g>
</g>
<!-- Node11&#45;&gt;Node13 -->
<g id="edge18" class="edge">
<title>Node11&#45;&gt;Node13</title>
<path fill="none" stroke="midnightblue" d="M642.21,-112.32C653.78,-104.11 671.38,-91.6 685.16,-81.81"/>
<polygon fill="midnightblue" stroke="midnightblue" points="687.44,-84.48 693.57,-75.83 683.39,-78.77 687.44,-84.48"/>
</g>
<!-- Node14 -->
<g id="node14" class="node">
<title>Node14</title>
<g id="a_node14"><a xlink:title=" ">
<polygon fill="none" stroke="#bfbfbf" points="598,-56.5 598,-75.5 662,-75.5 662,-56.5 598,-56.5"/>
<text text-anchor="middle" x="630" y="-63.5" font-family="Helvetica,sans-Serif" font-size="10.00">algorithm</text>
</a>
</g>
</g>
<!-- Node11&#45;&gt;Node14 -->
<g id="edge20" class="edge">
<title>Node11&#45;&gt;Node14</title>
<path fill="none" stroke="midnightblue" d="M630,-112.08C630,-105.01 630,-94.86 630,-85.99"/>
<polygon fill="midnightblue" stroke="midnightblue" points="633.5,-85.75 630,-75.75 626.5,-85.75 633.5,-85.75"/>
</g>
<!-- Node16&#45;&gt;Node5 -->
<g id="edge25" class="edge">
<title>Node16&#45;&gt;Node5</title>
<path fill="none" stroke="midnightblue" d="M373.31,-336.27C367.44,-323.05 354.97,-297.64 339,-280 304.86,-242.29 254.52,-210 224.71,-192.64"/>
<polygon fill="midnightblue" stroke="midnightblue" points="226.22,-189.47 215.8,-187.54 222.75,-195.55 226.22,-189.47"/>
</g>
<!-- Node16&#45;&gt;Node7 -->
<g id="edge24" class="edge">
<title>Node16&#45;&gt;Node7</title>
<path fill="none" stroke="midnightblue" d="M374.93,-336.1C371.95,-323.51 366.12,-299.84 360,-280 344.34,-229.24 322.35,-170.56 311.15,-141.41"/>
<polygon fill="midnightblue" stroke="midnightblue" points="314.3,-139.83 307.43,-131.76 307.77,-142.35 314.3,-139.83"/>
</g>
<!-- Node17 -->
<g id="node17" class="node">
<title>Node17</title>
<g id="a_node17"><a xlink:title=" ">
<polygon fill="none" stroke="#bfbfbf" points="228,-280.5 228,-299.5 330,-299.5 330,-280.5 228,-280.5"/>
<text text-anchor="middle" x="279" y="-287.5" font-family="Helvetica,sans-Serif" font-size="10.00">individual_base.h</text>
</a>
</g>
</g>
<!-- Node16&#45;&gt;Node17 -->
<g id="edge23" class="edge">
<title>Node16&#45;&gt;Node17</title>
<path fill="none" stroke="midnightblue" d="M361.25,-336.32C345.68,-327.74 321.62,-314.49 303.54,-304.52"/>
<polygon fill="midnightblue" stroke="midnightblue" points="305.15,-301.42 294.71,-299.65 301.78,-307.55 305.15,-301.42"/>
</g>
<!-- Node18 -->
<g id="node18" class="node">
<title>Node18</title>
<g id="a_node18"><a xlink:href="climate_8h.html" target="_top" xlink:title=" ">
<polygon fill="none" stroke="black" points="767,-112.5 767,-131.5 829,-131.5 829,-112.5 767,-112.5"/>
<text text-anchor="middle" x="798" y="-119.5" font-family="Helvetica,sans-Serif" font-size="10.00">climate.h</text>
</a>
</g>
</g>
<!-- Node16&#45;&gt;Node18 -->
<g id="edge26" class="edge">
<title>Node16&#45;&gt;Node18</title>
<path fill="none" stroke="midnightblue" d="M393.25,-336.43C457.44,-302.58 693.77,-177.96 772.38,-136.51"/>
<polygon fill="midnightblue" stroke="midnightblue" points="774.36,-139.42 781.58,-131.66 771.1,-133.23 774.36,-139.42"/>
</g>
<!-- Node22 -->
<g id="node22" class="node">
<title>Node22</title>
<g id="a_node22"><a xlink:href="plant_8h.html" target="_top" xlink:title=" ">
<polygon fill="none" stroke="black" points="978,-280.5 978,-299.5 1028,-299.5 1028,-280.5 978,-280.5"/>
<text text-anchor="middle" x="1003" y="-287.5" font-family="Helvetica,sans-Serif" font-size="10.00">plant.h</text>
</a>
</g>
</g>
<!-- Node16&#45;&gt;Node22 -->
<g id="edge34" class="edge">
<title>Node16&#45;&gt;Node22</title>
<path fill="none" stroke="midnightblue" d="M427.7,-340.63C550.67,-330.02 862.43,-303.13 967.67,-294.05"/>
<polygon fill="midnightblue" stroke="midnightblue" points="968.11,-297.52 977.77,-293.18 967.51,-290.55 968.11,-297.52"/>
</g>
<!-- Node18&#45;&gt;Node2 -->
<g id="edge30" class="edge">
<title>Node18&#45;&gt;Node2</title>
<path fill="none" stroke="midnightblue" d="M793.35,-112.47C784.99,-98.07 765.94,-69.2 741,-56 625.83,4.98 578.39,-42.33 450,-20 449.9,-19.98 449.8,-19.96 449.7,-19.95"/>
<polygon fill="midnightblue" stroke="midnightblue" points="450.56,-16.55 440.08,-18.1 449.24,-23.42 450.56,-16.55"/>
</g>
<!-- Node18&#45;&gt;Node3 -->
<g id="edge31" class="edge">
<title>Node18&#45;&gt;Node3</title>
<path fill="none" stroke="midnightblue" d="M829.09,-116.35C896.44,-106.28 1055.34,-82.51 1125.13,-72.07"/>
<polygon fill="midnightblue" stroke="midnightblue" points="1125.78,-75.51 1135.15,-70.57 1124.74,-68.59 1125.78,-75.51"/>
</g>
<!-- Node18&#45;&gt;Node4 -->
<g id="edge32" class="edge">
<title>Node18&#45;&gt;Node4</title>
<path fill="none" stroke="midnightblue" d="M797.48,-112.25C796.15,-98.05 791.33,-70.16 774,-56 735.07,-24.2 584.57,-14.71 516.17,-12.02"/>
<polygon fill="midnightblue" stroke="midnightblue" points="516.05,-8.51 505.93,-11.64 515.79,-15.5 516.05,-8.51"/>
</g>
<!-- Node18&#45;&gt;Node9 -->
<g id="edge27" class="edge">
<title>Node18&#45;&gt;Node9</title>
<path fill="none" stroke="midnightblue" d="M804.84,-112.1C815.51,-98.66 837.25,-72.97 860,-56 877.64,-42.84 899.69,-31.57 917.31,-23.6"/>
<polygon fill="midnightblue" stroke="midnightblue" points="918.84,-26.76 926.58,-19.53 916.02,-20.35 918.84,-26.76"/>
</g>
<!-- Node19 -->
<g id="node19" class="node">
<title>Node19</title>
<g id="a_node19"><a xlink:title=" ">
<polygon fill="none" stroke="#bfbfbf" points="1057.5,-0.5 1057.5,-19.5 1112.5,-19.5 1112.5,-0.5 1057.5,-0.5"/>
<text text-anchor="middle" x="1085" y="-7.5" font-family="Helvetica,sans-Serif" font-size="10.00">fstream</text>
</a>
</g>
</g>
<!-- Node18&#45;&gt;Node19 -->
<g id="edge28" class="edge">
<title>Node18&#45;&gt;Node19</title>
<path fill="none" stroke="midnightblue" d="M808.41,-112.49C825.86,-98.64 862.62,-71.22 898,-56 947.35,-34.77 1008.52,-22.45 1047.17,-16.23"/>
<polygon fill="midnightblue" stroke="midnightblue" points="1048.1,-19.63 1057.44,-14.63 1047.03,-12.71 1048.1,-19.63"/>
</g>
<!-- Node20 -->
<g id="node20" class="node">
<title>Node20</title>
<g id="a_node20"><a xlink:title=" ">
<polygon fill="none" stroke="#bfbfbf" points="1131,-0.5 1131,-19.5 1187,-19.5 1187,-0.5 1131,-0.5"/>
<text text-anchor="middle" x="1159" y="-7.5" font-family="Helvetica,sans-Serif" font-size="10.00">sstream</text>
</a>
</g>
</g>
<!-- Node18&#45;&gt;Node20 -->
<g id="edge29" class="edge">
<title>Node18&#45;&gt;Node20</title>
<path fill="none" stroke="midnightblue" d="M816.65,-112.38C835.87,-103.44 866.65,-88.99 893,-76 910.47,-67.39 913.57,-62.32 932,-56 1010.36,-29.11 1036.14,-37.49 1120.96,-20.1"/>
<polygon fill="midnightblue" stroke="midnightblue" points="1121.69,-23.52 1130.75,-18.03 1120.25,-16.67 1121.69,-23.52"/>
</g>
<!-- Node21 -->
<g id="node21" class="node">
<title>Node21</title>
<g id="a_node21"><a xlink:title=" ">
<polygon fill="none" stroke="#bfbfbf" points="940.5,-56.5 940.5,-75.5 999.5,-75.5 999.5,-56.5 940.5,-56.5"/>
<text text-anchor="middle" x="970" y="-63.5" font-family="Helvetica,sans-Serif" font-size="10.00">phydro.h</text>
</a>
</g>
</g>
<!-- Node18&#45;&gt;Node21 -->
<g id="edge33" class="edge">
<title>Node18&#45;&gt;Node21</title>
<path fill="none" stroke="midnightblue" d="M825.25,-112.44C854.44,-103.28 900.92,-88.69 933.31,-78.52"/>
<polygon fill="midnightblue" stroke="midnightblue" points="934.38,-81.85 942.87,-75.52 932.28,-75.17 934.38,-81.85"/>
</g>
<!-- Node22&#45;&gt;Node11 -->
<g id="edge59" class="edge">
<title>Node22&#45;&gt;Node11</title>
<path fill="none" stroke="midnightblue" d="M977.93,-286.98C937.76,-283 857.16,-271.98 795,-244 734.27,-216.67 673.99,-164.47 646.08,-138.49"/>
<polygon fill="midnightblue" stroke="midnightblue" points="648.46,-135.93 638.79,-131.61 643.66,-141.02 648.46,-135.93"/>
</g>
<!-- Node22&#45;&gt;Node19 -->
<g id="edge35" class="edge">
<title>Node22&#45;&gt;Node19</title>
<path fill="none" stroke="midnightblue" d="M1028.27,-288.69C1064.86,-286.98 1133.01,-278.92 1177,-244 1202.53,-223.73 1211,-211.6 1211,-179 1211,-179 1211,-179 1211,-121 1211,-90.9 1212.04,-78.46 1192,-56 1182.23,-45.05 1148.96,-32 1122.08,-22.78"/>
<polygon fill="midnightblue" stroke="midnightblue" points="1123.11,-19.43 1112.52,-19.57 1120.88,-26.07 1123.11,-19.43"/>
</g>
<!-- Node23 -->
<g id="node23" class="node">
<title>Node23</title>
<g id="a_node23"><a xlink:href="traits__params_8h.html" target="_top" xlink:title=" ">
<polygon fill="none" stroke="black" points="1004.5,-112.5 1004.5,-131.5 1097.5,-131.5 1097.5,-112.5 1004.5,-112.5"/>
<text text-anchor="middle" x="1051" y="-119.5" font-family="Helvetica,sans-Serif" font-size="10.00">traits_params.h</text>
</a>
</g>
</g>
<!-- Node22&#45;&gt;Node23 -->
<g id="edge36" class="edge">
<title>Node22&#45;&gt;Node23</title>
<path fill="none" stroke="midnightblue" d="M1003.14,-280.48C1003.72,-260.27 1006.7,-208.14 1022,-168 1025.8,-158.03 1032.02,-147.95 1037.73,-139.87"/>
<polygon fill="midnightblue" stroke="midnightblue" points="1040.65,-141.82 1043.8,-131.7 1035.03,-137.64 1040.65,-141.82"/>
</g>
<!-- Node24 -->
<g id="node24" class="node">
<title>Node24</title>
<g id="a_node24"><a xlink:href="initializer__v2_8h.html" target="_top" xlink:title=" ">
<polygon fill="none" stroke="black" points="1239.5,-56.5 1239.5,-75.5 1352.5,-75.5 1352.5,-56.5 1239.5,-56.5"/>
<text text-anchor="middle" x="1296" y="-63.5" font-family="Helvetica,sans-Serif" font-size="10.00">utils/initializer_v2.h</text>
</a>
</g>
</g>
<!-- Node22&#45;&gt;Node24 -->
<g id="edge60" class="edge">
<title>Node22&#45;&gt;Node24</title>
<path fill="none" stroke="midnightblue" d="M1028.2,-286.88C1079.82,-282.08 1195.24,-268.8 1225,-244 1274.35,-202.88 1289.68,-122.43 1294.21,-85.88"/>
<polygon fill="midnightblue" stroke="midnightblue" points="1297.72,-85.98 1295.33,-75.66 1290.76,-85.22 1297.72,-85.98"/>
</g>
<!-- Node28 -->
<g id="node28" class="node">
<title>Node28</title>
<g id="a_node28"><a xlink:href="plant__architecture_8h.html" target="_top" xlink:title=" ">
<polygon fill="none" stroke="black" points="1031,-168.5 1031,-187.5 1145,-187.5 1145,-168.5 1031,-168.5"/>
<text text-anchor="middle" x="1088" y="-175.5" font-family="Helvetica,sans-Serif" font-size="10.00">plant_architecture.h</text>
</a>
</g>
</g>
<!-- Node22&#45;&gt;Node28 -->
<g id="edge50" class="edge">
<title>Node22&#45;&gt;Node28</title>
<path fill="none" stroke="midnightblue" d="M1009.67,-280.37C1023.76,-262.14 1056.76,-219.43 1075.11,-195.68"/>
<polygon fill="midnightblue" stroke="midnightblue" points="1078.02,-197.64 1081.36,-187.59 1072.48,-193.36 1078.02,-197.64"/>
</g>
<!-- Node29 -->
<g id="node29" class="node">
<title>Node29</title>
<g id="a_node29"><a xlink:href="assimilation_8h.html" target="_top" xlink:title=" ">
<polygon fill="none" stroke="black" points="887,-224.5 887,-243.5 973,-243.5 973,-224.5 887,-224.5"/>
<text text-anchor="middle" x="930" y="-231.5" font-family="Helvetica,sans-Serif" font-size="10.00">assimilation.h</text>
</a>
</g>
</g>
<!-- Node22&#45;&gt;Node29 -->
<g id="edge53" class="edge">
<title>Node22&#45;&gt;Node29</title>
<path fill="none" stroke="midnightblue" d="M991.27,-280.32C980.16,-272.11 963.26,-259.6 950.02,-249.81"/>
<polygon fill="midnightblue" stroke="midnightblue" points="952.06,-246.97 941.94,-243.83 947.9,-252.59 952.06,-246.97"/>
</g>
<!-- Node31 -->
<g id="node31" class="node">
<title>Node31</title>
<g id="a_node31"><a xlink:href="rk4_8h.html" target="_top" xlink:title=" ">
<polygon fill="none" stroke="black" points="803.5,-224.5 803.5,-243.5 868.5,-243.5 868.5,-224.5 803.5,-224.5"/>
<text text-anchor="middle" x="836" y="-231.5" font-family="Helvetica,sans-Serif" font-size="10.00">utils/rk4.h</text>
</a>
</g>
</g>
<!-- Node22&#45;&gt;Node31 -->
<g id="edge58" class="edge">
<title>Node22&#45;&gt;Node31</title>
<path fill="none" stroke="midnightblue" d="M978,-280.92C950,-271.86 904.37,-257.11 872.41,-246.77"/>
<polygon fill="midnightblue" stroke="midnightblue" points="873.15,-243.33 862.55,-243.59 870.99,-249.99 873.15,-243.33"/>
</g>
<!-- Node32 -->
<g id="node32" class="node">
<title>Node32</title>
<g id="a_node32"><a xlink:href="plant_8tpp.html" target="_top" xlink:title=" ">
<polygon fill="none" stroke="black" points="1108,-224.5 1108,-243.5 1168,-243.5 1168,-224.5 1108,-224.5"/>
<text text-anchor="middle" x="1138" y="-231.5" font-family="Helvetica,sans-Serif" font-size="10.00">plant.tpp</text>
</a>
</g>
</g>
<!-- Node22&#45;&gt;Node32 -->
<g id="edge61" class="edge">
<title>Node22&#45;&gt;Node32</title>
<path fill="none" stroke="midnightblue" d="M1024.39,-280.44C1046.71,-271.52 1081.9,-257.44 1107.21,-247.32"/>
<polygon fill="midnightblue" stroke="midnightblue" points="1108.72,-250.48 1116.71,-243.52 1106.12,-243.98 1108.72,-250.48"/>
</g>
<!-- Node23&#45;&gt;Node3 -->
<g id="edge47" class="edge">
<title>Node23&#45;&gt;Node3</title>
<path fill="none" stroke="midnightblue" d="M1068.35,-112.32C1085.67,-103.66 1112.52,-90.24 1132.5,-80.25"/>
<polygon fill="midnightblue" stroke="midnightblue" points="1134.31,-83.26 1141.69,-75.65 1131.18,-77 1134.31,-83.26"/>
</g>
<!-- Node23&#45;&gt;Node9 -->
<g id="edge48" class="edge">
<title>Node23&#45;&gt;Node9</title>
<path fill="none" stroke="midnightblue" d="M1062.23,-112.42C1077.62,-99.62 1101.84,-74.99 1088,-56 1063.51,-22.4 1013.51,-13.34 980.38,-11.19"/>
<polygon fill="midnightblue" stroke="midnightblue" points="980.42,-7.69 970.27,-10.72 980.09,-14.68 980.42,-7.69"/>
</g>
<!-- Node23&#45;&gt;Node10 -->
<g id="edge46" class="edge">
<title>Node23&#45;&gt;Node10</title>
<path fill="none" stroke="midnightblue" d="M1050.5,-112.08C1050.11,-105.01 1049.55,-94.86 1049.05,-85.99"/>
<polygon fill="midnightblue" stroke="midnightblue" points="1052.54,-85.54 1048.49,-75.75 1045.55,-85.93 1052.54,-85.54"/>
</g>
<!-- Node23&#45;&gt;Node13 -->
<g id="edge49" class="edge">
<title>Node23&#45;&gt;Node13</title>
<path fill="none" stroke="midnightblue" d="M1004.47,-113.72C934.92,-102.83 805.31,-82.54 742.28,-72.68"/>
<polygon fill="midnightblue" stroke="midnightblue" points="742.46,-69.16 732.04,-71.08 741.38,-76.08 742.46,-69.16"/>
</g>
<!-- Node23&#45;&gt;Node24 -->
<g id="edge37" class="edge">
<title>Node23&#45;&gt;Node24</title>
<path fill="none" stroke="midnightblue" d="M1089.82,-112.44C1132.56,-103.02 1201.33,-87.87 1247.57,-77.68"/>
<polygon fill="midnightblue" stroke="midnightblue" points="1248.35,-81.09 1257.36,-75.52 1246.84,-74.25 1248.35,-81.09"/>
</g>
<!-- Node24&#45;&gt;Node2 -->
<g id="edge38" class="edge">
<title>Node24&#45;&gt;Node2</title>
<path fill="none" stroke="midnightblue" d="M1239.36,-59.71C1224,-58.38 1207.37,-57.04 1192,-56 862.58,-33.76 777.17,-64.4 450,-20 449.9,-19.99 449.8,-19.97 449.7,-19.96"/>
<polygon fill="midnightblue" stroke="midnightblue" points="450.48,-16.54 440.04,-18.34 449.33,-23.45 450.48,-16.54"/>
</g>
<!-- Node24&#45;&gt;Node4 -->
<g id="edge42" class="edge">
<title>Node24&#45;&gt;Node4</title>
<path fill="none" stroke="midnightblue" d="M1239.34,-59.86C1223.99,-58.53 1207.36,-57.15 1192,-56 931.78,-36.5 617.49,-18.54 515.62,-12.85"/>
<polygon fill="midnightblue" stroke="midnightblue" points="515.79,-9.36 505.61,-12.3 515.4,-16.35 515.79,-9.36"/>
</g>
<!-- Node24&#45;&gt;Node9 -->
<g id="edge40" class="edge">
<title>Node24&#45;&gt;Node9</title>
<path fill="none" stroke="midnightblue" d="M1240.86,-56.44C1167.27,-45.03 1039.36,-25.18 979.98,-15.96"/>
<polygon fill="midnightblue" stroke="midnightblue" points="980.48,-12.5 970.06,-14.42 979.4,-19.41 980.48,-12.5"/>
</g>
<!-- Node24&#45;&gt;Node19 -->
<g id="edge41" class="edge">
<title>Node24&#45;&gt;Node19</title>
<path fill="none" stroke="midnightblue" d="M1262.57,-56.44C1224.4,-46.68 1162.14,-30.74 1122.4,-20.57"/>
<polygon fill="midnightblue" stroke="midnightblue" points="1123.12,-17.14 1112.56,-18.05 1121.38,-23.92 1123.12,-17.14"/>
</g>
<!-- Node24&#45;&gt;Node20 -->
<g id="edge43" class="edge">
<title>Node24&#45;&gt;Node20</title>
<path fill="none" stroke="midnightblue" d="M1274.29,-56.44C1251.65,-47.52 1215.93,-33.44 1190.25,-23.32"/>
<polygon fill="midnightblue" stroke="midnightblue" points="1191.19,-19.93 1180.61,-19.52 1188.63,-26.44 1191.19,-19.93"/>
</g>
<!-- Node25 -->
<g id="node25" class="node">
<title>Node25</title>
<g id="a_node25"><a xlink:title=" ">
<polygon fill="none" stroke="#bfbfbf" points="1317,-0.5 1317,-19.5 1361,-19.5 1361,-0.5 1317,-0.5"/>
<text text-anchor="middle" x="1339" y="-7.5" font-family="Helvetica,sans-Serif" font-size="10.00">regex</text>
</a>
</g>
</g>
<!-- Node24&#45;&gt;Node25 -->
<g id="edge39" class="edge">
<title>Node24&#45;&gt;Node25</title>
<path fill="none" stroke="midnightblue" d="M1303.1,-56.08C1309.24,-48.38 1318.27,-37.03 1325.74,-27.65"/>
<polygon fill="midnightblue" stroke="midnightblue" points="1328.54,-29.75 1332.03,-19.75 1323.06,-25.39 1328.54,-29.75"/>
</g>
<!-- Node26 -->
<g id="node26" class="node">
<title>Node26</title>
<g id="a_node26"><a xlink:title=" ">
<polygon fill="none" stroke="#bfbfbf" points="1379.5,-0.5 1379.5,-19.5 1444.5,-19.5 1444.5,-0.5 1379.5,-0.5"/>
<text text-anchor="middle" x="1412" y="-7.5" font-family="Helvetica,sans-Serif" font-size="10.00">stdexcept</text>
</a>
</g>
</g>
<!-- Node24&#45;&gt;Node26 -->
<g id="edge44" class="edge">
<title>Node24&#45;&gt;Node26</title>
<path fill="none" stroke="midnightblue" d="M1314.38,-56.44C1333.22,-47.68 1362.73,-33.94 1384.38,-23.86"/>
<polygon fill="midnightblue" stroke="midnightblue" points="1386.12,-26.91 1393.71,-19.52 1383.16,-20.56 1386.12,-26.91"/>
</g>
<!-- Node27 -->
<g id="node27" class="node">
<title>Node27</title>
<g id="a_node27"><a xlink:title=" ">
<polygon fill="none" stroke="#bfbfbf" points="1205.5,-0.5 1205.5,-19.5 1298.5,-19.5 1298.5,-0.5 1205.5,-0.5"/>
<text text-anchor="middle" x="1252" y="-7.5" font-family="Helvetica,sans-Serif" font-size="10.00">unordered_map</text>
</a>
</g>
</g>
<!-- Node24&#45;&gt;Node27 -->
<g id="edge45" class="edge">
<title>Node24&#45;&gt;Node27</title>
<path fill="none" stroke="midnightblue" d="M1288.73,-56.08C1282.46,-48.38 1273.21,-37.03 1265.57,-27.65"/>
<polygon fill="midnightblue" stroke="midnightblue" points="1268.16,-25.29 1259.13,-19.75 1262.73,-29.71 1268.16,-25.29"/>
</g>
<!-- Node28&#45;&gt;Node3 -->
<g id="edge51" class="edge">
<title>Node28&#45;&gt;Node3</title>
<path fill="none" stroke="midnightblue" d="M1093.57,-168.37C1105.24,-150.3 1132.42,-108.18 1147.83,-84.31"/>
<polygon fill="midnightblue" stroke="midnightblue" points="1150.97,-85.89 1153.45,-75.59 1145.09,-82.1 1150.97,-85.89"/>
</g>
<!-- Node28&#45;&gt;Node23 -->
<g id="edge52" class="edge">
<title>Node28&#45;&gt;Node23</title>
<path fill="none" stroke="midnightblue" d="M1081.89,-168.08C1076.72,-160.53 1069.15,-149.49 1062.81,-140.23"/>
<polygon fill="midnightblue" stroke="midnightblue" points="1065.54,-138.02 1057,-131.75 1059.76,-141.98 1065.54,-138.02"/>
</g>
<!-- Node29&#45;&gt;Node21 -->
<g id="edge54" class="edge">
<title>Node29&#45;&gt;Node21</title>
<path fill="none" stroke="midnightblue" d="M907.97,-224.35C884.17,-213.54 851.01,-193.32 862,-168 879,-128.82 919.53,-97.9 945.81,-81.06"/>
<polygon fill="midnightblue" stroke="midnightblue" points="947.8,-83.95 954.45,-75.7 944.11,-78 947.8,-83.95"/>
</g>
<!-- Node29&#45;&gt;Node23 -->
<g id="edge55" class="edge">
<title>Node29&#45;&gt;Node23</title>
<path fill="none" stroke="midnightblue" d="M911.87,-224.32C888.96,-212.2 854.4,-189.26 871,-168 886.14,-148.6 947.33,-136.33 994.2,-129.59"/>
<polygon fill="midnightblue" stroke="midnightblue" points="994.84,-133.03 1004.27,-128.19 993.88,-126.1 994.84,-133.03"/>
</g>
<!-- Node29&#45;&gt;Node28 -->
<g id="edge56" class="edge">
<title>Node29&#45;&gt;Node28</title>
<path fill="none" stroke="midnightblue" d="M955.04,-224.44C981.62,-215.36 1023.81,-200.94 1053.52,-190.78"/>
<polygon fill="midnightblue" stroke="midnightblue" points="1054.75,-194.06 1063.08,-187.52 1052.49,-187.44 1054.75,-194.06"/>
</g>
<!-- Node30 -->
<g id="node30" class="node">
<title>Node30</title>
<g id="a_node30"><a xlink:href="assimilation_8tpp.html" target="_top" xlink:title=" ">
<polygon fill="none" stroke="black" points="879.5,-168.5 879.5,-187.5 974.5,-187.5 974.5,-168.5 879.5,-168.5"/>
<text text-anchor="middle" x="927" y="-175.5" font-family="Helvetica,sans-Serif" font-size="10.00">assimilation.tpp</text>
</a>
</g>
</g>
<!-- Node29&#45;&gt;Node30 -->
<g id="edge57" class="edge">
<title>Node29&#45;&gt;Node30</title>
<path fill="none" stroke="midnightblue" d="M929.5,-224.08C929.11,-217.01 928.55,-206.86 928.05,-197.99"/>
<polygon fill="midnightblue" stroke="midnightblue" points="931.54,-197.54 927.49,-187.75 924.55,-197.93 931.54,-197.54"/>
</g>
<!-- Node32&#45;&gt;Node3 -->
<g id="edge62" class="edge">
<title>Node32&#45;&gt;Node3</title>
<path fill="none" stroke="midnightblue" d="M1142,-224.26C1145.86,-215.35 1151.48,-201.02 1154,-188 1160.91,-152.35 1160.77,-109.72 1159.95,-85.76"/>
<polygon fill="midnightblue" stroke="midnightblue" points="1163.44,-85.45 1159.52,-75.61 1156.45,-85.75 1163.44,-85.45"/>
</g>
</g>
</svg>
