<?xml version="1.0" encoding="UTF-8" standalone="no"?>
<!DOCTYPE svg PUBLIC "-//W3C//DTD SVG 1.1//EN"
 "http://www.w3.org/Graphics/SVG/1.1/DTD/svg11.dtd">
<!-- Generated by graphviz version 2.43.0 (0)
 -->
<!-- Title: inst/include/utils/moving_average.h Pages: 1 -->
<svg width="926pt" height="352pt"
 viewBox="0.00 0.00 926.27 352.00" xmlns="http://www.w3.org/2000/svg" xmlns:xlink="http://www.w3.org/1999/xlink">
<g id="graph0" class="graph" transform="scale(1 1) rotate(0) translate(4 348)">
<title>inst/include/utils/moving_average.h</title>
<!-- Node1 -->
<g id="node1" class="node">
<title>Node1</title>
<g id="a_node1"><a xlink:title=" ">
<polygon fill="#bfbfbf" stroke="black" points="449.5,-313.5 449.5,-343.5 559.5,-343.5 559.5,-313.5 449.5,-313.5"/>
<text text-anchor="start" x="457.5" y="-331.5" font-family="Helvetica,sans-Serif" font-size="10.00">inst/include/utils</text>
<text text-anchor="middle" x="504.5" y="-320.5" font-family="Helvetica,sans-Serif" font-size="10.00">/moving_average.h</text>
</a>
</g>
</g>
<!-- Node2 -->
<g id="node2" class="node">
<title>Node2</title>
<g id="a_node2"><a xlink:href="adaptive__species_8h.html" target="_top" xlink:title=" ">
<polygon fill="none" stroke="black" points="604,-190.5 604,-220.5 723,-220.5 723,-190.5 604,-190.5"/>
<text text-anchor="start" x="612" y="-208.5" font-family="Helvetica,sans-Serif" font-size="10.00">inst/include/adaptive</text>
<text text-anchor="middle" x="663.5" y="-197.5" font-family="Helvetica,sans-Serif" font-size="10.00">_species.h</text>
</a>
</g>
</g>
<!-- Node1&#45;&gt;Node2 -->
<g id="edge1" class="edge">
<title>Node1&#45;&gt;Node2</title>
<path fill="none" stroke="midnightblue" d="M531.17,-307.21C563.46,-282.63 617.01,-241.88 645.07,-220.53"/>
<polygon fill="midnightblue" stroke="midnightblue" points="528.89,-304.54 523.05,-313.38 533.13,-310.11 528.89,-304.54"/>
</g>
<!-- Node12 -->
<g id="node12" class="node">
<title>Node12</title>
<g id="a_node12"><a xlink:href="plant_8h.html" target="_top" xlink:title=" ">
<polygon fill="none" stroke="black" points="408.5,-257.5 408.5,-276.5 518.5,-276.5 518.5,-257.5 408.5,-257.5"/>
<text text-anchor="middle" x="463.5" y="-264.5" font-family="Helvetica,sans-Serif" font-size="10.00">inst/include/plant.h</text>
</a>
</g>
</g>
<!-- Node1&#45;&gt;Node12 -->
<g id="edge15" class="edge">
<title>Node1&#45;&gt;Node12</title>
<path fill="none" stroke="midnightblue" d="M489.07,-305.1C482.23,-295.19 474.6,-284.11 469.47,-276.66"/>
<polygon fill="midnightblue" stroke="midnightblue" points="486.23,-307.15 494.78,-313.4 491.99,-303.18 486.23,-307.15"/>
</g>
<!-- Node3 -->
<g id="node3" class="node">
<title>Node3</title>
<g id="a_node3"><a xlink:href="light__environment_8cpp.html" target="_top" xlink:title=" ">
<polygon fill="none" stroke="black" points="754,-129 754,-148 897,-148 897,-129 754,-129"/>
<text text-anchor="middle" x="825.5" y="-136" font-family="Helvetica,sans-Serif" font-size="10.00">src/light_environment.cpp</text>
</a>
</g>
</g>
<!-- Node2&#45;&gt;Node3 -->
<g id="edge2" class="edge">
<title>Node2&#45;&gt;Node3</title>
<path fill="none" stroke="midnightblue" d="M708.06,-186.62C739.42,-174.04 779.98,-157.77 804.3,-148.01"/>
<polygon fill="midnightblue" stroke="midnightblue" points="706.63,-183.42 698.65,-190.4 709.24,-189.92 706.63,-183.42"/>
</g>
<!-- Node4 -->
<g id="node4" class="node">
<title>Node4</title>
<g id="a_node4"><a xlink:href="pspm__interface_8cpp.html" target="_top" xlink:title=" ">
<polygon fill="none" stroke="black" points="456.5,-129 456.5,-148 586.5,-148 586.5,-129 456.5,-129"/>
<text text-anchor="middle" x="521.5" y="-136" font-family="Helvetica,sans-Serif" font-size="10.00">src/pspm_interface.cpp</text>
</a>
</g>
</g>
<!-- Node2&#45;&gt;Node4 -->
<g id="edge3" class="edge">
<title>Node2&#45;&gt;Node4</title>
<path fill="none" stroke="midnightblue" d="M623.37,-186.13C596.04,-173.62 561.13,-157.64 540.08,-148.01"/>
<polygon fill="midnightblue" stroke="midnightblue" points="622.14,-189.42 632.69,-190.4 625.05,-183.05 622.14,-189.42"/>
</g>
<!-- Node5 -->
<g id="node5" class="node">
<title>Node5</title>
<g id="a_node5"><a xlink:href="community__properties_8h.html" target="_top" xlink:title=" ">
<polygon fill="none" stroke="black" points="605,-123.5 605,-153.5 736,-153.5 736,-123.5 605,-123.5"/>
<text text-anchor="start" x="613" y="-141.5" font-family="Helvetica,sans-Serif" font-size="10.00">inst/include/community</text>
<text text-anchor="middle" x="670.5" y="-130.5" font-family="Helvetica,sans-Serif" font-size="10.00">_properties.h</text>
</a>
</g>
</g>
<!-- Node2&#45;&gt;Node5 -->
<g id="edge4" class="edge">
<title>Node2&#45;&gt;Node5</title>
<path fill="none" stroke="midnightblue" d="M666.1,-180.4C667.07,-171.37 668.14,-161.41 668.98,-153.58"/>
<polygon fill="midnightblue" stroke="midnightblue" points="662.61,-180.08 665.02,-190.4 669.57,-180.83 662.61,-180.08"/>
</g>
<!-- Node7 -->
<g id="node7" class="node">
<title>Node7</title>
<g id="a_node7"><a xlink:href="plantfate__patch_8h.html" target="_top" xlink:title=" ">
<polygon fill="none" stroke="black" points="428.5,-56.5 428.5,-86.5 548.5,-86.5 548.5,-56.5 428.5,-56.5"/>
<text text-anchor="start" x="436.5" y="-74.5" font-family="Helvetica,sans-Serif" font-size="10.00">inst/include/plantfate</text>
<text text-anchor="middle" x="488.5" y="-63.5" font-family="Helvetica,sans-Serif" font-size="10.00">_patch.h</text>
</a>
</g>
</g>
<!-- Node2&#45;&gt;Node7 -->
<g id="edge11" class="edge">
<title>Node2&#45;&gt;Node7</title>
<path fill="none" stroke="midnightblue" d="M733.31,-202.86C822.32,-198.37 958.8,-181.99 906.5,-123 883.16,-96.68 658.57,-81.39 548.59,-75.42"/>
<polygon fill="midnightblue" stroke="midnightblue" points="733.07,-199.36 723.24,-203.33 733.39,-206.36 733.07,-199.36"/>
</g>
<!-- Node11 -->
<g id="node11" class="node">
<title>Node11</title>
<g id="a_node11"><a xlink:href="state__restore_8h.html" target="_top" xlink:title=" ">
<polygon fill="none" stroke="black" points="337,-123.5 337,-153.5 438,-153.5 438,-123.5 337,-123.5"/>
<text text-anchor="start" x="345" y="-141.5" font-family="Helvetica,sans-Serif" font-size="10.00">inst/include/state</text>
<text text-anchor="middle" x="387.5" y="-130.5" font-family="Helvetica,sans-Serif" font-size="10.00">_restore.h</text>
</a>
</g>
</g>
<!-- Node2&#45;&gt;Node11 -->
<g id="edge12" class="edge">
<title>Node2&#45;&gt;Node11</title>
<path fill="none" stroke="midnightblue" d="M593.95,-188.38C551.6,-178.53 496.41,-165.63 447.5,-154 444.48,-153.28 441.37,-152.54 438.23,-151.79"/>
<polygon fill="midnightblue" stroke="midnightblue" points="593.35,-191.83 603.88,-190.69 594.93,-185.01 593.35,-191.83"/>
</g>
<!-- Node6 -->
<g id="node6" class="node">
<title>Node6</title>
<g id="a_node6"><a xlink:href="community__properties_8cpp.html" target="_top" xlink:title=" ">
<polygon fill="none" stroke="black" points="599.5,-0.5 599.5,-19.5 763.5,-19.5 763.5,-0.5 599.5,-0.5"/>
<text text-anchor="middle" x="681.5" y="-7.5" font-family="Helvetica,sans-Serif" font-size="10.00">src/community_properties.cpp</text>
</a>
</g>
</g>
<!-- Node5&#45;&gt;Node6 -->
<g id="edge5" class="edge">
<title>Node5&#45;&gt;Node6</title>
<path fill="none" stroke="midnightblue" d="M672.59,-113.51C675.06,-85.02 679.07,-38.94 680.74,-19.79"/>
<polygon fill="midnightblue" stroke="midnightblue" points="669.1,-113.21 671.72,-123.48 676.07,-113.82 669.1,-113.21"/>
</g>
<!-- Node5&#45;&gt;Node7 -->
<g id="edge6" class="edge">
<title>Node5&#45;&gt;Node7</title>
<path fill="none" stroke="midnightblue" d="M621.37,-119.96C592.06,-109.48 555.32,-96.37 527.91,-86.58"/>
<polygon fill="midnightblue" stroke="midnightblue" points="620.41,-123.33 631.01,-123.4 622.77,-116.74 620.41,-123.33"/>
</g>
<!-- Node7&#45;&gt;Node6 -->
<g id="edge7" class="edge">
<title>Node7&#45;&gt;Node6</title>
<path fill="none" stroke="midnightblue" d="M544.1,-53.36C580,-42.29 625.17,-28.37 653.7,-19.57"/>
<polygon fill="midnightblue" stroke="midnightblue" points="542.76,-50.11 534.24,-56.4 544.83,-56.8 542.76,-50.11"/>
</g>
<!-- Node8 -->
<g id="node8" class="node">
<title>Node8</title>
<g id="a_node8"><a xlink:href="plantfate__patch_8cpp.html" target="_top" xlink:title=" ">
<polygon fill="none" stroke="black" points="450,-0.5 450,-19.5 581,-19.5 581,-0.5 450,-0.5"/>
<text text-anchor="middle" x="515.5" y="-7.5" font-family="Helvetica,sans-Serif" font-size="10.00">src/plantfate_patch.cpp</text>
</a>
</g>
</g>
<!-- Node7&#45;&gt;Node8 -->
<g id="edge8" class="edge">
<title>Node7&#45;&gt;Node8</title>
<path fill="none" stroke="midnightblue" d="M499.07,-47.2C503.47,-37.52 508.29,-26.88 511.57,-19.66"/>
<polygon fill="midnightblue" stroke="midnightblue" points="495.84,-45.85 494.9,-56.4 502.22,-48.74 495.84,-45.85"/>
</g>
<!-- Node9 -->
<g id="node9" class="node">
<title>Node9</title>
<g id="a_node9"><a xlink:href="r__interface_8cpp.html" target="_top" xlink:title=" ">
<polygon fill="none" stroke="black" points="188,-0.5 188,-19.5 295,-19.5 295,-0.5 188,-0.5"/>
<text text-anchor="middle" x="241.5" y="-7.5" font-family="Helvetica,sans-Serif" font-size="10.00">src/r_interface.cpp</text>
</a>
</g>
</g>
<!-- Node7&#45;&gt;Node9 -->
<g id="edge9" class="edge">
<title>Node7&#45;&gt;Node9</title>
<path fill="none" stroke="midnightblue" d="M420.27,-54.06C373.76,-42.86 314.09,-28.49 276.81,-19.51"/>
<polygon fill="midnightblue" stroke="midnightblue" points="419.74,-57.54 430.28,-56.47 421.38,-50.73 419.74,-57.54"/>
</g>
<!-- Node10 -->
<g id="node10" class="node">
<title>Node10</title>
<g id="a_node10"><a xlink:href="state__restore_8cpp.html" target="_top" xlink:title=" ">
<polygon fill="none" stroke="black" points="313,-0.5 313,-19.5 432,-19.5 432,-0.5 313,-0.5"/>
<text text-anchor="middle" x="372.5" y="-7.5" font-family="Helvetica,sans-Serif" font-size="10.00">src/state_restore.cpp</text>
</a>
</g>
</g>
<!-- Node7&#45;&gt;Node10 -->
<g id="edge10" class="edge">
<title>Node7&#45;&gt;Node10</title>
<path fill="none" stroke="midnightblue" d="M452.03,-51.8C431.07,-41.04 405.73,-28.05 389.38,-19.66"/>
<polygon fill="midnightblue" stroke="midnightblue" points="450.51,-54.95 461.01,-56.4 453.71,-48.72 450.51,-54.95"/>
</g>
<!-- Node11&#45;&gt;Node7 -->
<g id="edge14" class="edge">
<title>Node11&#45;&gt;Node7</title>
<path fill="none" stroke="midnightblue" d="M418.21,-117.73C433.84,-107.68 452.47,-95.68 466.63,-86.58"/>
<polygon fill="midnightblue" stroke="midnightblue" points="415.93,-115.04 409.42,-123.4 419.72,-120.93 415.93,-115.04"/>
</g>
<!-- Node11&#45;&gt;Node10 -->
<g id="edge13" class="edge">
<title>Node11&#45;&gt;Node10</title>
<path fill="none" stroke="midnightblue" d="M384.66,-113.51C381.28,-85.02 375.81,-38.94 373.54,-19.79"/>
<polygon fill="midnightblue" stroke="midnightblue" points="381.18,-113.96 385.84,-123.48 388.14,-113.14 381.18,-113.96"/>
</g>
<!-- Node13 -->
<g id="node13" class="node">
<title>Node13</title>
<g id="a_node13"><a xlink:href="plant_8cpp.html" target="_top" xlink:title=" ">
<polygon fill="none" stroke="black" points="493,-196 493,-215 572,-215 572,-196 493,-196"/>
<text text-anchor="middle" x="532.5" y="-203" font-family="Helvetica,sans-Serif" font-size="10.00">src/plant.cpp</text>
</a>
</g>
</g>
<!-- Node12&#45;&gt;Node13 -->
<g id="edge16" class="edge">
<title>Node12&#45;&gt;Node13</title>
<path fill="none" stroke="midnightblue" d="M481.3,-250.65C494.46,-239.31 511.88,-224.28 522.63,-215.01"/>
<polygon fill="midnightblue" stroke="midnightblue" points="478.67,-248.29 473.39,-257.48 483.24,-253.6 478.67,-248.29"/>
</g>
<!-- Node14 -->
<g id="node14" class="node">
<title>Node14</title>
<g id="a_node14"><a xlink:href="life__history_8h.html" target="_top" xlink:title=" ">
<polygon fill="none" stroke="black" points="130.5,-196 130.5,-215 268.5,-215 268.5,-196 130.5,-196"/>
<text text-anchor="middle" x="199.5" y="-203" font-family="Helvetica,sans-Serif" font-size="10.00">inst/include/life_history.h</text>
</a>
</g>
</g>
<!-- Node12&#45;&gt;Node14 -->
<g id="edge17" class="edge">
<title>Node12&#45;&gt;Node14</title>
<path fill="none" stroke="midnightblue" d="M415.84,-255.26C364.63,-243.72 284.27,-225.61 237.25,-215.01"/>
<polygon fill="midnightblue" stroke="midnightblue" points="415.15,-258.69 425.68,-257.48 416.69,-251.86 415.15,-258.69"/>
</g>
<!-- Node17 -->
<g id="node17" class="node">
<title>Node17</title>
<g id="a_node17"><a xlink:href="pspm__interface_8h.html" target="_top" xlink:title=" ">
<polygon fill="none" stroke="black" points="314,-196 314,-215 475,-215 475,-196 314,-196"/>
<text text-anchor="middle" x="394.5" y="-203" font-family="Helvetica,sans-Serif" font-size="10.00">inst/include/pspm_interface.h</text>
</a>
</g>
</g>
<!-- Node12&#45;&gt;Node17 -->
<g id="edge21" class="edge">
<title>Node12&#45;&gt;Node17</title>
<path fill="none" stroke="midnightblue" d="M445.7,-250.65C432.54,-239.31 415.12,-224.28 404.37,-215.01"/>
<polygon fill="midnightblue" stroke="midnightblue" points="443.76,-253.6 453.61,-257.48 448.33,-248.29 443.76,-253.6"/>
</g>
<!-- Node14&#45;&gt;Node9 -->
<g id="edge19" class="edge">
<title>Node14&#45;&gt;Node9</title>
<path fill="none" stroke="midnightblue" d="M204.5,-186.03C207.02,-176.49 210.05,-164.65 212.5,-154 224.14,-103.39 235.73,-42.14 239.89,-19.74"/>
<polygon fill="midnightblue" stroke="midnightblue" points="201.05,-185.39 201.84,-195.96 207.81,-187.2 201.05,-185.39"/>
</g>
<!-- Node15 -->
<g id="node15" class="node">
<title>Node15</title>
<g id="a_node15"><a xlink:href="life__history_8cpp.html" target="_top" xlink:title=" ">
<polygon fill="none" stroke="black" points="0,-129 0,-148 107,-148 107,-129 0,-129"/>
<text text-anchor="middle" x="53.5" y="-136" font-family="Helvetica,sans-Serif" font-size="10.00">src/life_history.cpp</text>
</a>
</g>
</g>
<!-- Node14&#45;&gt;Node15 -->
<g id="edge18" class="edge">
<title>Node14&#45;&gt;Node15</title>
<path fill="none" stroke="midnightblue" d="M170.93,-191.78C142.02,-178.91 98.1,-159.35 72.97,-148.17"/>
<polygon fill="midnightblue" stroke="midnightblue" points="169.55,-195 180.11,-195.87 172.4,-188.6 169.55,-195"/>
</g>
<!-- Node16 -->
<g id="node16" class="node">
<title>Node16</title>
<g id="a_node16"><a xlink:href="lho_8cpp.html" target="_top" xlink:title=" ">
<polygon fill="none" stroke="black" points="125,-129 125,-148 204,-148 204,-129 125,-129"/>
<text text-anchor="middle" x="164.5" y="-136" font-family="Helvetica,sans-Serif" font-size="10.00">tests/lho.cpp</text>
</a>
</g>
</g>
<!-- Node14&#45;&gt;Node16 -->
<g id="edge20" class="edge">
<title>Node14&#45;&gt;Node16</title>
<path fill="none" stroke="midnightblue" d="M189.9,-186.66C183.15,-174.13 174.41,-157.91 169.15,-148.13"/>
<polygon fill="midnightblue" stroke="midnightblue" points="186.96,-188.59 194.78,-195.73 193.12,-185.27 186.96,-188.59"/>
</g>
<!-- Node17&#45;&gt;Node3 -->
<g id="edge22" class="edge">
<title>Node17&#45;&gt;Node3</title>
<path fill="none" stroke="midnightblue" d="M456.43,-194.33C465.83,-192.84 475.42,-191.36 484.5,-190 600.31,-172.69 629.86,-172.45 745.5,-154 756.79,-152.2 768.95,-150.09 780.29,-148.04"/>
<polygon fill="midnightblue" stroke="midnightblue" points="455.67,-190.91 446.34,-195.94 456.77,-197.82 455.67,-190.91"/>
</g>
<!-- Node17&#45;&gt;Node4 -->
<g id="edge23" class="edge">
<title>Node17&#45;&gt;Node4</title>
<path fill="none" stroke="midnightblue" d="M420.34,-191.27C445.5,-178.4 482.99,-159.21 504.57,-148.17"/>
<polygon fill="midnightblue" stroke="midnightblue" points="418.67,-188.2 411.36,-195.87 421.86,-194.43 418.67,-188.2"/>
</g>
<!-- Node17&#45;&gt;Node5 -->
<g id="edge25" class="edge">
<title>Node17&#45;&gt;Node5</title>
<path fill="none" stroke="midnightblue" d="M440.71,-193.62C487.42,-182.62 559.78,-165.58 610.8,-153.56"/>
<polygon fill="midnightblue" stroke="midnightblue" points="439.8,-190.24 430.87,-195.94 441.4,-197.05 439.8,-190.24"/>
</g>
<!-- Node17&#45;&gt;Node7 -->
<g id="edge26" class="edge">
<title>Node17&#45;&gt;Node7</title>
<path fill="none" stroke="midnightblue" d="M366.23,-190.83C352.12,-182.36 336.42,-170.02 328.5,-154 322.4,-141.65 320.35,-134.11 328.5,-123 351.23,-91.99 393.06,-79.53 428.25,-74.74"/>
<polygon fill="midnightblue" stroke="midnightblue" points="364.73,-194.01 375.17,-195.84 368.15,-187.9 364.73,-194.01"/>
</g>
<!-- Node17&#45;&gt;Node9 -->
<g id="edge24" class="edge">
<title>Node17&#45;&gt;Node9</title>
<path fill="none" stroke="midnightblue" d="M367.92,-191.16C352.13,-182.25 332.51,-169.37 318.5,-154 278.99,-110.65 252.85,-43.34 244.44,-19.63"/>
<polygon fill="midnightblue" stroke="midnightblue" points="366.25,-194.23 376.71,-195.93 369.59,-188.08 366.25,-194.23"/>
</g>
<!-- Node17&#45;&gt;Node11 -->
<g id="edge27" class="edge">
<title>Node17&#45;&gt;Node11</title>
<path fill="none" stroke="midnightblue" d="M392.48,-185.74C391.38,-175.49 390.03,-163 389.02,-153.59"/>
<polygon fill="midnightblue" stroke="midnightblue" points="389.01,-186.17 393.56,-195.73 395.97,-185.42 389.01,-186.17"/>
</g>
</g>
</svg>
