<?xml version="1.0" encoding="UTF-8" standalone="no"?>
<!DOCTYPE svg PUBLIC "-//W3C//DTD SVG 1.1//EN"
 "http://www.w3.org/Graphics/SVG/1.1/DTD/svg11.dtd">
<!-- Generated by graphviz version 2.43.0 (0)
 -->
<!-- Title: inst/include/plantfate_patch.h Pages: 1 -->
<svg width="1547pt" height="487pt"
 viewBox="0.00 0.00 1547.45 487.00" xmlns="http://www.w3.org/2000/svg" xmlns:xlink="http://www.w3.org/1999/xlink">
<g id="graph0" class="graph" transform="scale(1 1) rotate(0) translate(4 483)">
<title>inst/include/plantfate_patch.h</title>
<!-- Node1 -->
<g id="node1" class="node">
<title>Node1</title>
<g id="a_node1"><a xlink:title=" ">
<polygon fill="#bfbfbf" stroke="black" points="875,-448.5 875,-478.5 995,-478.5 995,-448.5 875,-448.5"/>
<text text-anchor="start" x="883" y="-466.5" font-family="Helvetica,sans-Serif" font-size="10.00">inst/include/plantfate</text>
<text text-anchor="middle" x="935" y="-455.5" font-family="Helvetica,sans-Serif" font-size="10.00">_patch.h</text>
</a>
</g>
</g>
<!-- Node2 -->
<g id="node2" class="node">
<title>Node2</title>
<g id="a_node2"><a xlink:title=" ">
<polygon fill="none" stroke="#bfbfbf" points="984.5,-0.5 984.5,-19.5 1031.5,-19.5 1031.5,-0.5 984.5,-0.5"/>
<text text-anchor="middle" x="1008" y="-7.5" font-family="Helvetica,sans-Serif" font-size="10.00">vector</text>
</a>
</g>
</g>
<!-- Node1&#45;&gt;Node2 -->
<g id="edge1" class="edge">
<title>Node1&#45;&gt;Node2</title>
<path fill="none" stroke="midnightblue" d="M995.02,-455.84C1097.67,-442.77 1296,-409.43 1296,-347 1296,-347 1296,-347 1296,-289 1296,-182.8 1319.38,-129.79 1243,-56 1214.73,-28.69 1099.86,-17.17 1041.86,-13.01"/>
<polygon fill="midnightblue" stroke="midnightblue" points="1041.94,-9.51 1031.72,-12.32 1041.46,-16.5 1041.94,-9.51"/>
</g>
<!-- Node3 -->
<g id="node3" class="node">
<title>Node3</title>
<g id="a_node3"><a xlink:title=" ">
<polygon fill="none" stroke="#bfbfbf" points="492,-0.5 492,-19.5 552,-19.5 552,-0.5 492,-0.5"/>
<text text-anchor="middle" x="522" y="-7.5" font-family="Helvetica,sans-Serif" font-size="10.00">iostream</text>
</a>
</g>
</g>
<!-- Node1&#45;&gt;Node3 -->
<g id="edge2" class="edge">
<title>Node1&#45;&gt;Node3</title>
<path fill="none" stroke="midnightblue" d="M874.78,-460.34C685.64,-452.78 116,-423.64 116,-347 116,-347 116,-347 116,-121 116,-90.9 111.88,-75.28 135,-56 194.37,-6.49 404.68,-32.31 481,-20 481.22,-19.97 481.43,-19.93 481.65,-19.89"/>
<polygon fill="midnightblue" stroke="midnightblue" points="482.42,-23.31 491.62,-18.07 481.16,-16.43 482.42,-23.31"/>
</g>
<!-- Node4 -->
<g id="node4" class="node">
<title>Node4</title>
<g id="a_node4"><a xlink:title=" ">
<polygon fill="none" stroke="#bfbfbf" points="1152.5,-0.5 1152.5,-19.5 1207.5,-19.5 1207.5,-0.5 1152.5,-0.5"/>
<text text-anchor="middle" x="1180" y="-7.5" font-family="Helvetica,sans-Serif" font-size="10.00">fstream</text>
</a>
</g>
</g>
<!-- Node1&#45;&gt;Node4 -->
<g id="edge3" class="edge">
<title>Node1&#45;&gt;Node4</title>
<path fill="none" stroke="midnightblue" d="M995.15,-459.44C1107.84,-453.18 1346.47,-437.36 1425,-412 1480.13,-394.2 1538,-404.94 1538,-347 1538,-347 1538,-347 1538,-121 1538,-90.9 1541.84,-75.6 1519,-56 1496.42,-36.63 1301.4,-20.01 1217.8,-13.7"/>
<polygon fill="midnightblue" stroke="midnightblue" points="1217.94,-10.2 1207.7,-12.95 1217.42,-17.18 1217.94,-10.2"/>
</g>
<!-- Node5 -->
<g id="node5" class="node">
<title>Node5</title>
<g id="a_node5"><a xlink:title=" ">
<polygon fill="none" stroke="#bfbfbf" points="196.5,-0.5 196.5,-19.5 243.5,-19.5 243.5,-0.5 196.5,-0.5"/>
<text text-anchor="middle" x="220" y="-7.5" font-family="Helvetica,sans-Serif" font-size="10.00">cmath</text>
</a>
</g>
</g>
<!-- Node1&#45;&gt;Node5 -->
<g id="edge4" class="edge">
<title>Node1&#45;&gt;Node5</title>
<path fill="none" stroke="midnightblue" d="M874.73,-461.41C667.95,-456.9 0,-435.48 0,-347 0,-347 0,-347 0,-121 0,-38.65 124.84,-17.95 186.44,-12.75"/>
<polygon fill="midnightblue" stroke="midnightblue" points="186.75,-16.23 196.46,-11.99 186.22,-9.25 186.75,-16.23"/>
</g>
<!-- Node6 -->
<g id="node6" class="node">
<title>Node6</title>
<g id="a_node6"><a xlink:title=" ">
<polygon fill="none" stroke="#bfbfbf" points="644,-392.5 644,-411.5 700,-411.5 700,-392.5 644,-392.5"/>
<text text-anchor="middle" x="672" y="-399.5" font-family="Helvetica,sans-Serif" font-size="10.00">numeric</text>
</a>
</g>
</g>
<!-- Node1&#45;&gt;Node6 -->
<g id="edge5" class="edge">
<title>Node1&#45;&gt;Node6</title>
<path fill="none" stroke="midnightblue" d="M874.79,-449.19C829.45,-439.12 765.78,-424.87 710,-412 709.9,-411.98 709.8,-411.95 709.7,-411.93"/>
<polygon fill="midnightblue" stroke="midnightblue" points="710.75,-408.58 700.21,-409.72 709.16,-415.4 710.75,-408.58"/>
</g>
<!-- Node7 -->
<g id="node7" class="node">
<title>Node7</title>
<g id="a_node7"><a xlink:title=" ">
<polygon fill="none" stroke="#bfbfbf" points="718.5,-392.5 718.5,-411.5 783.5,-411.5 783.5,-392.5 718.5,-392.5"/>
<text text-anchor="middle" x="751" y="-399.5" font-family="Helvetica,sans-Serif" font-size="10.00">functional</text>
</a>
</g>
</g>
<!-- Node1&#45;&gt;Node7 -->
<g id="edge6" class="edge">
<title>Node1&#45;&gt;Node7</title>
<path fill="none" stroke="midnightblue" d="M891.39,-448.4C859.6,-438.12 817.03,-424.35 787.13,-414.68"/>
<polygon fill="midnightblue" stroke="midnightblue" points="788.1,-411.32 777.51,-411.57 785.94,-417.98 788.1,-411.32"/>
</g>
<!-- Node8 -->
<g id="node8" class="node">
<title>Node8</title>
<g id="a_node8"><a xlink:title=" ">
<polygon fill="none" stroke="#bfbfbf" points="560,-224.5 560,-243.5 616,-243.5 616,-224.5 560,-224.5"/>
<text text-anchor="middle" x="588" y="-231.5" font-family="Helvetica,sans-Serif" font-size="10.00">solver.h</text>
</a>
</g>
</g>
<!-- Node1&#45;&gt;Node8 -->
<g id="edge7" class="edge">
<title>Node1&#45;&gt;Node8</title>
<path fill="none" stroke="midnightblue" d="M874.93,-461.63C810.73,-458.69 707.21,-448.11 626,-412 553.19,-379.63 520.52,-371.82 486,-300 482.15,-291.99 481.15,-287.45 486,-280 493.57,-268.39 524.59,-255.69 550.45,-246.75"/>
<polygon fill="midnightblue" stroke="midnightblue" points="551.69,-250.02 560.05,-243.52 549.46,-243.39 551.69,-250.02"/>
</g>
<!-- Node9 -->
<g id="node9" class="node">
<title>Node9</title>
<g id="a_node9"><a xlink:title=" ">
<polygon fill="none" stroke="#bfbfbf" points="956,-392.5 956,-411.5 1046,-411.5 1046,-392.5 956,-392.5"/>
<text text-anchor="middle" x="1001" y="-399.5" font-family="Helvetica,sans-Serif" font-size="10.00">time_stepper.h</text>
</a>
</g>
</g>
<!-- Node1&#45;&gt;Node9 -->
<g id="edge8" class="edge">
<title>Node1&#45;&gt;Node9</title>
<path fill="none" stroke="midnightblue" d="M950.64,-448.4C960.63,-439.4 973.58,-427.72 983.85,-418.47"/>
<polygon fill="midnightblue" stroke="midnightblue" points="986.31,-420.95 991.4,-411.66 981.63,-415.75 986.31,-420.95"/>
</g>
<!-- Node10 -->
<g id="node10" class="node">
<title>Node10</title>
<g id="a_node10"><a xlink:href="pspm__interface_8h.html" target="_top" xlink:title=" ">
<polygon fill="none" stroke="black" points="617.5,-336.5 617.5,-355.5 718.5,-355.5 718.5,-336.5 617.5,-336.5"/>
<text text-anchor="middle" x="668" y="-343.5" font-family="Helvetica,sans-Serif" font-size="10.00">pspm_interface.h</text>
</a>
</g>
</g>
<!-- Node1&#45;&gt;Node10 -->
<g id="edge9" class="edge">
<title>Node1&#45;&gt;Node10</title>
<path fill="none" stroke="midnightblue" d="M874.88,-461.21C796.3,-458.11 665.1,-447.59 635,-412 622.45,-397.16 636.83,-376.74 650.35,-362.77"/>
<polygon fill="midnightblue" stroke="midnightblue" points="652.85,-365.22 657.59,-355.75 647.98,-360.19 652.85,-365.22"/>
</g>
<!-- Node34 -->
<g id="node34" class="node">
<title>Node34</title>
<g id="a_node34"><a xlink:href="community__properties_8h.html" target="_top" xlink:title=" ">
<polygon fill="none" stroke="black" points="802,-392.5 802,-411.5 938,-411.5 938,-392.5 802,-392.5"/>
<text text-anchor="middle" x="870" y="-399.5" font-family="Helvetica,sans-Serif" font-size="10.00">community_properties.h</text>
</a>
</g>
</g>
<!-- Node1&#45;&gt;Node34 -->
<g id="edge60" class="edge">
<title>Node1&#45;&gt;Node34</title>
<path fill="none" stroke="midnightblue" d="M919.6,-448.4C909.76,-439.4 897.01,-427.72 886.89,-418.47"/>
<polygon fill="midnightblue" stroke="midnightblue" points="889.2,-415.83 879.46,-411.66 884.47,-420.99 889.2,-415.83"/>
</g>
<!-- Node35 -->
<g id="node35" class="node">
<title>Node35</title>
<g id="a_node35"><a xlink:href="adaptive__species_8h.html" target="_top" xlink:title=" ">
<polygon fill="none" stroke="black" points="1001,-280.5 1001,-299.5 1111,-299.5 1111,-280.5 1001,-280.5"/>
<text text-anchor="middle" x="1056" y="-287.5" font-family="Helvetica,sans-Serif" font-size="10.00">adaptive_species.h</text>
</a>
</g>
</g>
<!-- Node1&#45;&gt;Node35 -->
<g id="edge72" class="edge">
<title>Node1&#45;&gt;Node35</title>
<path fill="none" stroke="midnightblue" d="M995.22,-457.55C1055.54,-451.19 1142.32,-437.77 1163,-412 1195.57,-371.42 1124.72,-326.1 1083.25,-304.23"/>
<polygon fill="midnightblue" stroke="midnightblue" points="1084.65,-301.02 1074.16,-299.56 1081.46,-307.24 1084.65,-301.02"/>
</g>
<!-- Node38 -->
<g id="node38" class="node">
<title>Node38</title>
<g id="a_node38"><a xlink:href="state__restore_8h.html" target="_top" xlink:title=" ">
<polygon fill="none" stroke="black" points="1064,-392.5 1064,-411.5 1154,-411.5 1154,-392.5 1064,-392.5"/>
<text text-anchor="middle" x="1109" y="-399.5" font-family="Helvetica,sans-Serif" font-size="10.00">state_restore.h</text>
</a>
</g>
</g>
<!-- Node1&#45;&gt;Node38 -->
<g id="edge73" class="edge">
<title>Node1&#45;&gt;Node38</title>
<path fill="none" stroke="midnightblue" d="M976.24,-448.4C1006.17,-438.16 1046.21,-424.47 1074.47,-414.81"/>
<polygon fill="midnightblue" stroke="midnightblue" points="1075.61,-418.12 1083.94,-411.57 1073.34,-411.49 1075.61,-418.12"/>
</g>
<!-- Node39 -->
<g id="node39" class="node">
<title>Node39</title>
<g id="a_node39"><a xlink:href="climate__stream_8h.html" target="_top" xlink:title=" ">
<polygon fill="none" stroke="black" points="1077,-112.5 1077,-131.5 1179,-131.5 1179,-112.5 1077,-112.5"/>
<text text-anchor="middle" x="1128" y="-119.5" font-family="Helvetica,sans-Serif" font-size="10.00">climate_stream.h</text>
</a>
</g>
</g>
<!-- Node1&#45;&gt;Node39 -->
<g id="edge79" class="edge">
<title>Node1&#45;&gt;Node39</title>
<path fill="none" stroke="midnightblue" d="M995.03,-455.78C1057.94,-447.76 1151.65,-432.79 1181,-412 1208.49,-392.52 1220,-380.69 1220,-347 1220,-347 1220,-347 1220,-233 1220,-190.5 1179.09,-155.77 1151.83,-137.34"/>
<polygon fill="midnightblue" stroke="midnightblue" points="1153.49,-134.24 1143.19,-131.73 1149.67,-140.11 1153.49,-134.24"/>
</g>
<!-- Node41 -->
<g id="node41" class="node">
<title>Node41</title>
<g id="a_node41"><a xlink:href="plantfate__config_8h.html" target="_top" xlink:title=" ">
<polygon fill="none" stroke="black" points="1404.5,-56.5 1404.5,-75.5 1509.5,-75.5 1509.5,-56.5 1404.5,-56.5"/>
<text text-anchor="middle" x="1457" y="-63.5" font-family="Helvetica,sans-Serif" font-size="10.00">plantfate_config.h</text>
</a>
</g>
</g>
<!-- Node1&#45;&gt;Node41 -->
<g id="edge88" class="edge">
<title>Node1&#45;&gt;Node41</title>
<path fill="none" stroke="midnightblue" d="M995.2,-461.88C1133.47,-458.84 1462,-441.66 1462,-347 1462,-347 1462,-347 1462,-177 1462,-144.91 1459.85,-107.62 1458.37,-85.74"/>
<polygon fill="midnightblue" stroke="midnightblue" points="1461.85,-85.28 1457.65,-75.55 1454.86,-85.77 1461.85,-85.28"/>
</g>
<!-- Node10&#45;&gt;Node8 -->
<g id="edge11" class="edge">
<title>Node10&#45;&gt;Node8</title>
<path fill="none" stroke="midnightblue" d="M661.72,-336.37C648.52,-318.22 617.67,-275.8 600.36,-251.99"/>
<polygon fill="midnightblue" stroke="midnightblue" points="602.96,-249.62 594.25,-243.59 597.3,-253.74 602.96,-249.62"/>
</g>
<!-- Node11 -->
<g id="node11" class="node">
<title>Node11</title>
<g id="a_node11"><a xlink:title=" ">
<polygon fill="none" stroke="#bfbfbf" points="495,-280.5 495,-299.5 597,-299.5 597,-280.5 495,-280.5"/>
<text text-anchor="middle" x="546" y="-287.5" font-family="Helvetica,sans-Serif" font-size="10.00">individual_base.h</text>
</a>
</g>
</g>
<!-- Node10&#45;&gt;Node11 -->
<g id="edge10" class="edge">
<title>Node10&#45;&gt;Node11</title>
<path fill="none" stroke="midnightblue" d="M648.67,-336.44C628.68,-327.6 597.26,-313.69 574.44,-303.59"/>
<polygon fill="midnightblue" stroke="midnightblue" points="575.8,-300.36 565.24,-299.52 572.97,-306.76 575.8,-300.36"/>
</g>
<!-- Node12 -->
<g id="node12" class="node">
<title>Node12</title>
<g id="a_node12"><a xlink:href="light__environment_8h.html" target="_top" xlink:title=" ">
<polygon fill="none" stroke="black" points="653.5,-280.5 653.5,-299.5 768.5,-299.5 768.5,-280.5 653.5,-280.5"/>
<text text-anchor="middle" x="711" y="-287.5" font-family="Helvetica,sans-Serif" font-size="10.00">light_environment.h</text>
</a>
</g>
</g>
<!-- Node10&#45;&gt;Node12 -->
<g id="edge12" class="edge">
<title>Node10&#45;&gt;Node12</title>
<path fill="none" stroke="midnightblue" d="M675.1,-336.08C681.24,-328.38 690.27,-317.03 697.74,-307.65"/>
<polygon fill="midnightblue" stroke="midnightblue" points="700.54,-309.75 704.03,-299.75 695.06,-305.39 700.54,-309.75"/>
</g>
<!-- Node14 -->
<g id="node14" class="node">
<title>Node14</title>
<g id="a_node14"><a xlink:href="climate_8h.html" target="_top" xlink:title=" ">
<polygon fill="none" stroke="black" points="924,-56.5 924,-75.5 986,-75.5 986,-56.5 924,-56.5"/>
<text text-anchor="middle" x="955" y="-63.5" font-family="Helvetica,sans-Serif" font-size="10.00">climate.h</text>
</a>
</g>
</g>
<!-- Node10&#45;&gt;Node14 -->
<g id="edge17" class="edge">
<title>Node10&#45;&gt;Node14</title>
<path fill="none" stroke="midnightblue" d="M718.94,-336.9C773.15,-325.59 857.63,-299.79 906,-244 946.16,-197.68 953.63,-121.1 954.87,-85.84"/>
<polygon fill="midnightblue" stroke="midnightblue" points="958.37,-85.64 955.09,-75.57 951.37,-85.49 958.37,-85.64"/>
</g>
<!-- Node18 -->
<g id="node18" class="node">
<title>Node18</title>
<g id="a_node18"><a xlink:href="plant_8h.html" target="_top" xlink:title=" ">
<polygon fill="none" stroke="black" points="324,-280.5 324,-299.5 374,-299.5 374,-280.5 324,-280.5"/>
<text text-anchor="middle" x="349" y="-287.5" font-family="Helvetica,sans-Serif" font-size="10.00">plant.h</text>
</a>
</g>
</g>
<!-- Node10&#45;&gt;Node18 -->
<g id="edge25" class="edge">
<title>Node10&#45;&gt;Node18</title>
<path fill="none" stroke="midnightblue" d="M617.45,-336.44C552.29,-325.41 440.65,-306.51 384.07,-296.94"/>
<polygon fill="midnightblue" stroke="midnightblue" points="384.62,-293.48 374.17,-295.26 383.45,-300.38 384.62,-293.48"/>
</g>
<!-- Node12&#45;&gt;Node2 -->
<g id="edge14" class="edge">
<title>Node12&#45;&gt;Node2</title>
<path fill="none" stroke="midnightblue" d="M734.98,-280.47C753.5,-272.99 778.93,-260.7 797,-244 869.44,-177.03 841.52,-121.82 915,-56 932.29,-40.51 955.87,-29.18 974.96,-21.76"/>
<polygon fill="midnightblue" stroke="midnightblue" points="976.32,-24.99 984.48,-18.24 973.89,-18.43 976.32,-24.99"/>
</g>
<!-- Node12&#45;&gt;Node3 -->
<g id="edge13" class="edge">
<title>Node12&#45;&gt;Node3</title>
<path fill="none" stroke="midnightblue" d="M699.42,-280.45C688.79,-272.13 673.2,-258.61 663,-244 626.52,-191.75 647.87,-160.9 607,-112 588.26,-89.58 571.08,-98.12 552,-76 540.34,-62.49 532.32,-43.68 527.53,-29.77"/>
<polygon fill="midnightblue" stroke="midnightblue" points="530.74,-28.32 524.37,-19.86 524.07,-30.45 530.74,-28.32"/>
</g>
<!-- Node12&#45;&gt;Node8 -->
<g id="edge16" class="edge">
<title>Node12&#45;&gt;Node8</title>
<path fill="none" stroke="midnightblue" d="M691.51,-280.44C671.36,-271.6 639.68,-257.69 616.67,-247.59"/>
<polygon fill="midnightblue" stroke="midnightblue" points="617.96,-244.33 607.4,-243.52 615.15,-250.74 617.96,-244.33"/>
</g>
<!-- Node13 -->
<g id="node13" class="node">
<title>Node13</title>
<g id="a_node13"><a xlink:title=" ">
<polygon fill="none" stroke="#bfbfbf" points="672,-224.5 672,-243.5 788,-243.5 788,-224.5 672,-224.5"/>
<text text-anchor="middle" x="730" y="-231.5" font-family="Helvetica,sans-Serif" font-size="10.00">environment_base.h</text>
</a>
</g>
</g>
<!-- Node12&#45;&gt;Node13 -->
<g id="edge15" class="edge">
<title>Node12&#45;&gt;Node13</title>
<path fill="none" stroke="midnightblue" d="M714.14,-280.08C716.68,-272.85 720.36,-262.41 723.53,-253.4"/>
<polygon fill="midnightblue" stroke="midnightblue" points="726.9,-254.35 726.92,-243.75 720.3,-252.02 726.9,-254.35"/>
</g>
<!-- Node14&#45;&gt;Node2 -->
<g id="edge23" class="edge">
<title>Node14&#45;&gt;Node2</title>
<path fill="none" stroke="midnightblue" d="M963.75,-56.08C971.47,-48.22 982.9,-36.57 992.22,-27.08"/>
<polygon fill="midnightblue" stroke="midnightblue" points="994.9,-29.34 999.41,-19.75 989.91,-24.44 994.9,-29.34"/>
</g>
<!-- Node14&#45;&gt;Node3 -->
<g id="edge21" class="edge">
<title>Node14&#45;&gt;Node3</title>
<path fill="none" stroke="midnightblue" d="M923.6,-58.33C919.05,-57.47 914.41,-56.67 910,-56 756.26,-32.73 715.45,-45.11 562,-20 561.9,-19.98 561.8,-19.97 561.7,-19.95"/>
<polygon fill="midnightblue" stroke="midnightblue" points="562.54,-16.55 552.07,-18.17 561.26,-23.43 562.54,-16.55"/>
</g>
<!-- Node14&#45;&gt;Node4 -->
<g id="edge19" class="edge">
<title>Node14&#45;&gt;Node4</title>
<path fill="none" stroke="midnightblue" d="M986.29,-57.49C1027.09,-47.7 1098.41,-30.58 1142.19,-20.07"/>
<polygon fill="midnightblue" stroke="midnightblue" points="1143.26,-23.42 1152.16,-17.68 1141.62,-16.61 1143.26,-23.42"/>
</g>
<!-- Node14&#45;&gt;Node5 -->
<g id="edge22" class="edge">
<title>Node14&#45;&gt;Node5</title>
<path fill="none" stroke="midnightblue" d="M923.92,-62.6C899.48,-60.74 864.58,-58.12 834,-56 585.19,-38.75 521.76,-48.54 274,-20 267.43,-19.24 260.45,-18.23 253.75,-17.16"/>
<polygon fill="midnightblue" stroke="midnightblue" points="254.02,-13.66 243.58,-15.46 252.87,-20.56 254.02,-13.66"/>
</g>
<!-- Node15 -->
<g id="node15" class="node">
<title>Node15</title>
<g id="a_node15"><a xlink:title=" ">
<polygon fill="none" stroke="#bfbfbf" points="1316,-0.5 1316,-19.5 1360,-19.5 1360,-0.5 1316,-0.5"/>
<text text-anchor="middle" x="1338" y="-7.5" font-family="Helvetica,sans-Serif" font-size="10.00">string</text>
</a>
</g>
</g>
<!-- Node14&#45;&gt;Node15 -->
<g id="edge18" class="edge">
<title>Node14&#45;&gt;Node15</title>
<path fill="none" stroke="midnightblue" d="M986.02,-60.63C1057.48,-50.55 1233.12,-25.79 1305.76,-15.55"/>
<polygon fill="midnightblue" stroke="midnightblue" points="1306.29,-19.01 1315.7,-14.14 1305.31,-12.07 1306.29,-19.01"/>
</g>
<!-- Node16 -->
<g id="node16" class="node">
<title>Node16</title>
<g id="a_node16"><a xlink:title=" ">
<polygon fill="none" stroke="#bfbfbf" points="910,-0.5 910,-19.5 966,-19.5 966,-0.5 910,-0.5"/>
<text text-anchor="middle" x="938" y="-7.5" font-family="Helvetica,sans-Serif" font-size="10.00">sstream</text>
</a>
</g>
</g>
<!-- Node14&#45;&gt;Node16 -->
<g id="edge20" class="edge">
<title>Node14&#45;&gt;Node16</title>
<path fill="none" stroke="midnightblue" d="M952.19,-56.08C949.92,-48.85 946.63,-38.41 943.79,-29.4"/>
<polygon fill="midnightblue" stroke="midnightblue" points="947.1,-28.24 940.75,-19.75 940.42,-30.34 947.1,-28.24"/>
</g>
<!-- Node17 -->
<g id="node17" class="node">
<title>Node17</title>
<g id="a_node17"><a xlink:title=" ">
<polygon fill="none" stroke="#bfbfbf" points="681.5,-0.5 681.5,-19.5 740.5,-19.5 740.5,-0.5 681.5,-0.5"/>
<text text-anchor="middle" x="711" y="-7.5" font-family="Helvetica,sans-Serif" font-size="10.00">phydro.h</text>
</a>
</g>
</g>
<!-- Node14&#45;&gt;Node17 -->
<g id="edge24" class="edge">
<title>Node14&#45;&gt;Node17</title>
<path fill="none" stroke="midnightblue" d="M923.72,-58.24C885.38,-49.94 818.18,-35.3 750.75,-20.15"/>
<polygon fill="midnightblue" stroke="midnightblue" points="751.33,-16.69 740.8,-17.91 749.79,-23.52 751.33,-16.69"/>
</g>
<!-- Node18&#45;&gt;Node4 -->
<g id="edge26" class="edge">
<title>Node18&#45;&gt;Node4</title>
<path fill="none" stroke="midnightblue" d="M374.17,-282.81C405.28,-274.92 459.65,-260.32 505,-244 525.98,-236.45 530.18,-231.98 551,-224 745.24,-149.57 798.2,-143.37 995,-76 1047.99,-57.86 1109.28,-36.19 1146.32,-23.02"/>
<polygon fill="midnightblue" stroke="midnightblue" points="1147.85,-26.19 1156.09,-19.54 1145.5,-19.59 1147.85,-26.19"/>
</g>
<!-- Node19 -->
<g id="node19" class="node">
<title>Node19</title>
<g id="a_node19"><a xlink:href="traits__params_8h.html" target="_top" xlink:title=" ">
<polygon fill="none" stroke="black" points="504.5,-112.5 504.5,-131.5 597.5,-131.5 597.5,-112.5 504.5,-112.5"/>
<text text-anchor="middle" x="551" y="-119.5" font-family="Helvetica,sans-Serif" font-size="10.00">traits_params.h</text>
</a>
</g>
</g>
<!-- Node18&#45;&gt;Node19 -->
<g id="edge27" class="edge">
<title>Node18&#45;&gt;Node19</title>
<path fill="none" stroke="midnightblue" d="M371.5,-280.42C406.41,-266.09 473.86,-234.25 515,-188 527.43,-174.02 537.33,-155.02 543.58,-141.17"/>
<polygon fill="midnightblue" stroke="midnightblue" points="546.89,-142.33 547.63,-131.76 540.46,-139.56 546.89,-142.33"/>
</g>
<!-- Node20 -->
<g id="node20" class="node">
<title>Node20</title>
<g id="a_node20"><a xlink:href="initializer__v2_8h.html" target="_top" xlink:title=" ">
<polygon fill="none" stroke="black" points="560.5,-56.5 560.5,-75.5 673.5,-75.5 673.5,-56.5 560.5,-56.5"/>
<text text-anchor="middle" x="617" y="-63.5" font-family="Helvetica,sans-Serif" font-size="10.00">utils/initializer_v2.h</text>
</a>
</g>
</g>
<!-- Node18&#45;&gt;Node20 -->
<g id="edge57" class="edge">
<title>Node18&#45;&gt;Node20</title>
<path fill="none" stroke="midnightblue" d="M374.09,-282.8C400.17,-275.72 441.62,-262.65 474,-244 540.96,-205.42 569.15,-199.38 607,-132 614.95,-117.85 617.15,-99.36 617.54,-85.73"/>
<polygon fill="midnightblue" stroke="midnightblue" points="621.04,-85.61 617.53,-75.61 614.04,-85.62 621.04,-85.61"/>
</g>
<!-- Node26 -->
<g id="node26" class="node">
<title>Node26</title>
<g id="a_node26"><a xlink:href="plant__architecture_8h.html" target="_top" xlink:title=" ">
<polygon fill="none" stroke="black" points="220,-168.5 220,-187.5 334,-187.5 334,-168.5 220,-168.5"/>
<text text-anchor="middle" x="277" y="-175.5" font-family="Helvetica,sans-Serif" font-size="10.00">plant_architecture.h</text>
</a>
</g>
</g>
<!-- Node18&#45;&gt;Node26 -->
<g id="edge41" class="edge">
<title>Node18&#45;&gt;Node26</title>
<path fill="none" stroke="midnightblue" d="M343.35,-280.37C331.47,-262.22 303.71,-219.8 288.12,-195.99"/>
<polygon fill="midnightblue" stroke="midnightblue" points="291.03,-194.04 282.62,-187.59 285.17,-197.88 291.03,-194.04"/>
</g>
<!-- Node27 -->
<g id="node27" class="node">
<title>Node27</title>
<g id="a_node27"><a xlink:href="assimilation_8h.html" target="_top" xlink:title=" ">
<polygon fill="none" stroke="black" points="342,-224.5 342,-243.5 428,-243.5 428,-224.5 342,-224.5"/>
<text text-anchor="middle" x="385" y="-231.5" font-family="Helvetica,sans-Serif" font-size="10.00">assimilation.h</text>
</a>
</g>
</g>
<!-- Node18&#45;&gt;Node27 -->
<g id="edge44" class="edge">
<title>Node18&#45;&gt;Node27</title>
<path fill="none" stroke="midnightblue" d="M354.94,-280.08C359.98,-272.53 367.34,-261.49 373.51,-252.23"/>
<polygon fill="midnightblue" stroke="midnightblue" points="376.53,-254.01 379.17,-243.75 370.71,-250.13 376.53,-254.01"/>
</g>
<!-- Node29 -->
<g id="node29" class="node">
<title>Node29</title>
<g id="a_node29"><a xlink:href="rk4_8h.html" target="_top" xlink:title=" ">
<polygon fill="none" stroke="black" points="220.5,-224.5 220.5,-243.5 285.5,-243.5 285.5,-224.5 220.5,-224.5"/>
<text text-anchor="middle" x="253" y="-231.5" font-family="Helvetica,sans-Serif" font-size="10.00">utils/rk4.h</text>
</a>
</g>
</g>
<!-- Node18&#45;&gt;Node29 -->
<g id="edge49" class="edge">
<title>Node18&#45;&gt;Node29</title>
<path fill="none" stroke="midnightblue" d="M333.58,-280.32C318.46,-271.82 295.18,-258.73 277.53,-248.8"/>
<polygon fill="midnightblue" stroke="midnightblue" points="278.82,-245.51 268.39,-243.65 275.39,-251.61 278.82,-245.51"/>
</g>
<!-- Node30 -->
<g id="node30" class="node">
<title>Node30</title>
<g id="a_node30"><a xlink:href="moving__average_8h.html" target="_top" xlink:title=" ">
<polygon fill="none" stroke="black" points="334.5,-56.5 334.5,-75.5 465.5,-75.5 465.5,-56.5 334.5,-56.5"/>
<text text-anchor="middle" x="400" y="-63.5" font-family="Helvetica,sans-Serif" font-size="10.00">utils/moving_average.h</text>
</a>
</g>
</g>
<!-- Node18&#45;&gt;Node30 -->
<g id="edge50" class="edge">
<title>Node18&#45;&gt;Node30</title>
<path fill="none" stroke="midnightblue" d="M323.8,-288.9C291.86,-287.24 237.86,-279.05 212,-244 191.94,-216.82 193.63,-196.97 211,-168 240.88,-118.16 304.65,-91.54 349.84,-78.36"/>
<polygon fill="midnightblue" stroke="midnightblue" points="351.05,-81.65 359.75,-75.59 349.17,-74.91 351.05,-81.65"/>
</g>
<!-- Node33 -->
<g id="node33" class="node">
<title>Node33</title>
<g id="a_node33"><a xlink:href="plant_8tpp.html" target="_top" xlink:title=" ">
<polygon fill="none" stroke="black" points="28,-168.5 28,-187.5 88,-187.5 88,-168.5 28,-168.5"/>
<text text-anchor="middle" x="58" y="-175.5" font-family="Helvetica,sans-Serif" font-size="10.00">plant.tpp</text>
</a>
</g>
</g>
<!-- Node18&#45;&gt;Node33 -->
<g id="edge58" class="edge">
<title>Node18&#45;&gt;Node33</title>
<path fill="none" stroke="midnightblue" d="M323.77,-284.33C289.87,-277.62 228.09,-263.83 178,-244 142.18,-229.82 103.45,-207.43 79.96,-192.98"/>
<polygon fill="midnightblue" stroke="midnightblue" points="81.5,-189.82 71.17,-187.5 77.8,-195.76 81.5,-189.82"/>
</g>
<!-- Node19&#45;&gt;Node5 -->
<g id="edge38" class="edge">
<title>Node19&#45;&gt;Node5</title>
<path fill="none" stroke="midnightblue" d="M504.17,-118.46C454.07,-114.36 373.15,-103.68 309,-76 281.17,-63.99 253.71,-41.96 236.81,-26.91"/>
<polygon fill="midnightblue" stroke="midnightblue" points="238.74,-23.92 228.99,-19.76 234.01,-29.09 238.74,-23.92"/>
</g>
<!-- Node19&#45;&gt;Node15 -->
<g id="edge39" class="edge">
<title>Node19&#45;&gt;Node15</title>
<path fill="none" stroke="midnightblue" d="M580.03,-112.44C607.08,-104.15 648.34,-90.7 683,-76 700.93,-68.39 703.24,-61.26 722,-56 934.4,3.52 997.01,-36.18 1217,-20 1247.01,-17.79 1281.21,-15.25 1305.57,-13.43"/>
<polygon fill="midnightblue" stroke="midnightblue" points="1305.99,-16.91 1315.7,-12.67 1305.47,-9.92 1305.99,-16.91"/>
</g>
<!-- Node19&#45;&gt;Node20 -->
<g id="edge28" class="edge">
<title>Node19&#45;&gt;Node20</title>
<path fill="none" stroke="midnightblue" d="M561.6,-112.32C571.46,-104.26 586.35,-92.08 598.22,-82.37"/>
<polygon fill="midnightblue" stroke="midnightblue" points="600.68,-84.88 606.2,-75.83 596.25,-79.46 600.68,-84.88"/>
</g>
<!-- Node24 -->
<g id="node24" class="node">
<title>Node24</title>
<g id="a_node24"><a xlink:title=" ">
<polygon fill="none" stroke="#bfbfbf" points="730.5,-56.5 730.5,-75.5 791.5,-75.5 791.5,-56.5 730.5,-56.5"/>
<text text-anchor="middle" x="761" y="-63.5" font-family="Helvetica,sans-Serif" font-size="10.00">io_utils.h</text>
</a>
</g>
</g>
<!-- Node19&#45;&gt;Node24 -->
<g id="edge37" class="edge">
<title>Node19&#45;&gt;Node24</title>
<path fill="none" stroke="midnightblue" d="M584.28,-112.44C621.19,-102.95 680.77,-87.63 720.4,-77.44"/>
<polygon fill="midnightblue" stroke="midnightblue" points="721.46,-80.78 730.27,-74.9 719.72,-74 721.46,-80.78"/>
</g>
<!-- Node25 -->
<g id="node25" class="node">
<title>Node25</title>
<g id="a_node25"><a xlink:title=" ">
<polygon fill="none" stroke="#bfbfbf" points="283,-0.5 283,-19.5 335,-19.5 335,-0.5 283,-0.5"/>
<text text-anchor="middle" x="309" y="-7.5" font-family="Helvetica,sans-Serif" font-size="10.00">cassert</text>
</a>
</g>
</g>
<!-- Node19&#45;&gt;Node25 -->
<g id="edge40" class="edge">
<title>Node19&#45;&gt;Node25</title>
<path fill="none" stroke="midnightblue" d="M504.29,-117.43C446.1,-112.02 351.21,-99.78 326,-76 313.55,-64.25 309.78,-44.61 308.84,-29.99"/>
<polygon fill="midnightblue" stroke="midnightblue" points="312.33,-29.49 308.58,-19.58 305.33,-29.67 312.33,-29.49"/>
</g>
<!-- Node20&#45;&gt;Node2 -->
<g id="edge33" class="edge">
<title>Node20&#45;&gt;Node2</title>
<path fill="none" stroke="midnightblue" d="M673.58,-57.82C678.46,-57.2 683.32,-56.59 688,-56 812.31,-40.33 847.14,-44.73 974.18,-19.9"/>
<polygon fill="midnightblue" stroke="midnightblue" points="975.17,-23.27 984.3,-17.89 973.81,-16.4 975.17,-23.27"/>
</g>
<!-- Node20&#45;&gt;Node3 -->
<g id="edge29" class="edge">
<title>Node20&#45;&gt;Node3</title>
<path fill="none" stroke="midnightblue" d="M601.74,-56.32C586.78,-47.82 563.75,-34.73 546.27,-24.8"/>
<polygon fill="midnightblue" stroke="midnightblue" points="547.65,-21.55 537.23,-19.65 544.19,-27.64 547.65,-21.55"/>
</g>
<!-- Node20&#45;&gt;Node4 -->
<g id="edge32" class="edge">
<title>Node20&#45;&gt;Node4</title>
<path fill="none" stroke="midnightblue" d="M673.56,-57.65C678.44,-57.07 683.31,-56.51 688,-56 857.3,-37.53 1059.93,-20.64 1142.36,-13.99"/>
<polygon fill="midnightblue" stroke="midnightblue" points="1142.81,-17.47 1152.5,-13.18 1142.25,-10.49 1142.81,-17.47"/>
</g>
<!-- Node20&#45;&gt;Node15 -->
<g id="edge31" class="edge">
<title>Node20&#45;&gt;Node15</title>
<path fill="none" stroke="midnightblue" d="M673.55,-57.53C678.43,-56.98 683.3,-56.46 688,-56 922.55,-33.17 981.94,-36.74 1217,-20 1247.02,-17.86 1281.21,-15.31 1305.58,-13.47"/>
<polygon fill="midnightblue" stroke="midnightblue" points="1305.99,-16.95 1315.7,-12.7 1305.47,-9.97 1305.99,-16.95"/>
</g>
<!-- Node20&#45;&gt;Node16 -->
<g id="edge34" class="edge">
<title>Node20&#45;&gt;Node16</title>
<path fill="none" stroke="midnightblue" d="M673.57,-56.62C729.84,-48.1 818.57,-34.18 895,-20 896.5,-19.72 898.03,-19.43 899.57,-19.13"/>
<polygon fill="midnightblue" stroke="midnightblue" points="900.7,-22.48 909.82,-17.09 899.33,-15.61 900.7,-22.48"/>
</g>
<!-- Node21 -->
<g id="node21" class="node">
<title>Node21</title>
<g id="a_node21"><a xlink:title=" ">
<polygon fill="none" stroke="#bfbfbf" points="842,-0.5 842,-19.5 886,-19.5 886,-0.5 842,-0.5"/>
<text text-anchor="middle" x="864" y="-7.5" font-family="Helvetica,sans-Serif" font-size="10.00">regex</text>
</a>
</g>
</g>
<!-- Node20&#45;&gt;Node21 -->
<g id="edge30" class="edge">
<title>Node20&#45;&gt;Node21</title>
<path fill="none" stroke="midnightblue" d="M663.16,-56.45C704.91,-48.48 768.27,-35.8 831.9,-20.13"/>
<polygon fill="midnightblue" stroke="midnightblue" points="832.84,-23.5 841.7,-17.7 831.16,-16.71 832.84,-23.5"/>
</g>
<!-- Node22 -->
<g id="node22" class="node">
<title>Node22</title>
<g id="a_node22"><a xlink:title=" ">
<polygon fill="none" stroke="#bfbfbf" points="758.5,-0.5 758.5,-19.5 823.5,-19.5 823.5,-0.5 758.5,-0.5"/>
<text text-anchor="middle" x="791" y="-7.5" font-family="Helvetica,sans-Serif" font-size="10.00">stdexcept</text>
</a>
</g>
</g>
<!-- Node20&#45;&gt;Node22 -->
<g id="edge35" class="edge">
<title>Node20&#45;&gt;Node22</title>
<path fill="none" stroke="midnightblue" d="M644.57,-56.44C674.1,-47.28 721.12,-32.69 753.88,-22.52"/>
<polygon fill="midnightblue" stroke="midnightblue" points="755.04,-25.82 763.56,-19.52 752.97,-19.14 755.04,-25.82"/>
</g>
<!-- Node23 -->
<g id="node23" class="node">
<title>Node23</title>
<g id="a_node23"><a xlink:title=" ">
<polygon fill="none" stroke="#bfbfbf" points="570.5,-0.5 570.5,-19.5 663.5,-19.5 663.5,-0.5 570.5,-0.5"/>
<text text-anchor="middle" x="617" y="-7.5" font-family="Helvetica,sans-Serif" font-size="10.00">unordered_map</text>
</a>
</g>
</g>
<!-- Node20&#45;&gt;Node23 -->
<g id="edge36" class="edge">
<title>Node20&#45;&gt;Node23</title>
<path fill="none" stroke="midnightblue" d="M617,-56.08C617,-49.01 617,-38.86 617,-29.99"/>
<polygon fill="midnightblue" stroke="midnightblue" points="620.5,-29.75 617,-19.75 613.5,-29.75 620.5,-29.75"/>
</g>
<!-- Node26&#45;&gt;Node5 -->
<g id="edge42" class="edge">
<title>Node26&#45;&gt;Node5</title>
<path fill="none" stroke="midnightblue" d="M253.76,-168.49C220.36,-154.84 160.04,-124.53 135,-76 121.46,-49.75 157.54,-31.03 186.82,-20.61"/>
<polygon fill="midnightblue" stroke="midnightblue" points="188.04,-23.9 196.41,-17.4 185.81,-17.26 188.04,-23.9"/>
</g>
<!-- Node26&#45;&gt;Node19 -->
<g id="edge43" class="edge">
<title>Node26&#45;&gt;Node19</title>
<path fill="none" stroke="midnightblue" d="M320.42,-168.44C368.52,-158.96 446.09,-143.67 497.81,-133.48"/>
<polygon fill="midnightblue" stroke="midnightblue" points="498.65,-136.88 507.79,-131.52 497.3,-130.02 498.65,-136.88"/>
</g>
<!-- Node27&#45;&gt;Node17 -->
<g id="edge45" class="edge">
<title>Node27&#45;&gt;Node17</title>
<path fill="none" stroke="midnightblue" d="M404.43,-224.46C420.19,-216.76 442.14,-204.17 457,-188 482.69,-160.04 473.64,-142.68 496,-112 516.73,-83.55 521.64,-73.81 552,-56 562.42,-49.89 627.92,-32.35 671.54,-21.06"/>
<polygon fill="midnightblue" stroke="midnightblue" points="672.48,-24.43 681.29,-18.54 670.74,-17.65 672.48,-24.43"/>
</g>
<!-- Node27&#45;&gt;Node19 -->
<g id="edge46" class="edge">
<title>Node27&#45;&gt;Node19</title>
<path fill="none" stroke="midnightblue" d="M413.36,-224.42C435.47,-216.91 466.28,-204.61 490,-188 509.31,-174.47 527.25,-154.02 538.6,-139.68"/>
<polygon fill="midnightblue" stroke="midnightblue" points="541.45,-141.72 544.77,-131.66 535.9,-137.45 541.45,-141.72"/>
</g>
<!-- Node27&#45;&gt;Node26 -->
<g id="edge47" class="edge">
<title>Node27&#45;&gt;Node26</title>
<path fill="none" stroke="midnightblue" d="M367.65,-224.32C350.33,-215.66 323.48,-202.24 303.5,-192.25"/>
<polygon fill="midnightblue" stroke="midnightblue" points="304.82,-189 294.31,-187.65 301.69,-195.26 304.82,-189"/>
</g>
<!-- Node28 -->
<g id="node28" class="node">
<title>Node28</title>
<g id="a_node28"><a xlink:href="assimilation_8tpp.html" target="_top" xlink:title=" ">
<polygon fill="none" stroke="black" points="352.5,-168.5 352.5,-187.5 447.5,-187.5 447.5,-168.5 352.5,-168.5"/>
<text text-anchor="middle" x="400" y="-175.5" font-family="Helvetica,sans-Serif" font-size="10.00">assimilation.tpp</text>
</a>
</g>
</g>
<!-- Node27&#45;&gt;Node28 -->
<g id="edge48" class="edge">
<title>Node27&#45;&gt;Node28</title>
<path fill="none" stroke="midnightblue" d="M387.48,-224.08C389.49,-216.85 392.39,-206.41 394.89,-197.4"/>
<polygon fill="midnightblue" stroke="midnightblue" points="398.26,-198.32 397.57,-187.75 391.52,-196.45 398.26,-198.32"/>
</g>
<!-- Node30&#45;&gt;Node2 -->
<g id="edge55" class="edge">
<title>Node30&#45;&gt;Node2</title>
<path fill="none" stroke="midnightblue" d="M465.52,-60.57C599.12,-51.44 896.3,-30.61 974.43,-19.58"/>
<polygon fill="midnightblue" stroke="midnightblue" points="974.99,-23.04 984.33,-18.03 973.91,-16.12 974.99,-23.04"/>
</g>
<!-- Node30&#45;&gt;Node3 -->
<g id="edge51" class="edge">
<title>Node30&#45;&gt;Node3</title>
<path fill="none" stroke="midnightblue" d="M419.33,-56.44C439.32,-47.6 470.74,-33.69 493.56,-23.59"/>
<polygon fill="midnightblue" stroke="midnightblue" points="495.03,-26.76 502.76,-19.52 492.2,-20.36 495.03,-26.76"/>
</g>
<!-- Node30&#45;&gt;Node5 -->
<g id="edge53" class="edge">
<title>Node30&#45;&gt;Node5</title>
<path fill="none" stroke="midnightblue" d="M371.48,-56.44C339.41,-46.82 287.38,-31.21 253.43,-21.03"/>
<polygon fill="midnightblue" stroke="midnightblue" points="254.1,-17.57 243.51,-18.05 252.08,-24.28 254.1,-17.57"/>
</g>
<!-- Node30&#45;&gt;Node25 -->
<g id="edge54" class="edge">
<title>Node30&#45;&gt;Node25</title>
<path fill="none" stroke="midnightblue" d="M385.38,-56.32C371.05,-47.82 348.99,-34.73 332.25,-24.8"/>
<polygon fill="midnightblue" stroke="midnightblue" points="333.97,-21.75 323.58,-19.65 330.4,-27.77 333.97,-21.75"/>
</g>
<!-- Node31 -->
<g id="node31" class="node">
<title>Node31</title>
<g id="a_node31"><a xlink:title=" ">
<polygon fill="none" stroke="#bfbfbf" points="358,-0.5 358,-19.5 390,-19.5 390,-0.5 358,-0.5"/>
<text text-anchor="middle" x="374" y="-7.5" font-family="Helvetica,sans-Serif" font-size="10.00">list</text>
</a>
</g>
</g>
<!-- Node30&#45;&gt;Node31 -->
<g id="edge52" class="edge">
<title>Node30&#45;&gt;Node31</title>
<path fill="none" stroke="midnightblue" d="M395.71,-56.08C392.15,-48.69 386.98,-37.95 382.58,-28.81"/>
<polygon fill="midnightblue" stroke="midnightblue" points="385.71,-27.24 378.21,-19.75 379.4,-30.28 385.71,-27.24"/>
</g>
<!-- Node32 -->
<g id="node32" class="node">
<title>Node32</title>
<g id="a_node32"><a xlink:title=" ">
<polygon fill="none" stroke="#bfbfbf" points="408,-0.5 408,-19.5 472,-19.5 472,-0.5 408,-0.5"/>
<text text-anchor="middle" x="440" y="-7.5" font-family="Helvetica,sans-Serif" font-size="10.00">algorithm</text>
</a>
</g>
</g>
<!-- Node30&#45;&gt;Node32 -->
<g id="edge56" class="edge">
<title>Node30&#45;&gt;Node32</title>
<path fill="none" stroke="midnightblue" d="M406.61,-56.08C412.26,-48.46 420.54,-37.26 427.45,-27.94"/>
<polygon fill="midnightblue" stroke="midnightblue" points="430.38,-29.87 433.52,-19.75 424.75,-25.7 430.38,-29.87"/>
</g>
<!-- Node33&#45;&gt;Node5 -->
<g id="edge59" class="edge">
<title>Node33&#45;&gt;Node5</title>
<path fill="none" stroke="midnightblue" d="M61.01,-168.23C68.84,-146.56 91.8,-89.77 128,-56 144.72,-40.41 167.85,-29.12 186.74,-21.76"/>
<polygon fill="midnightblue" stroke="midnightblue" points="188.01,-25.02 196.17,-18.26 185.58,-18.45 188.01,-25.02"/>
</g>
<!-- Node34&#45;&gt;Node10 -->
<g id="edge61" class="edge">
<title>Node34&#45;&gt;Node10</title>
<path fill="none" stroke="midnightblue" d="M837.99,-392.44C803.27,-383.16 747.71,-368.31 709.62,-358.13"/>
<polygon fill="midnightblue" stroke="midnightblue" points="710.42,-354.72 699.86,-355.52 708.61,-361.48 710.42,-354.72"/>
</g>
<!-- Node34&#45;&gt;Node35 -->
<g id="edge62" class="edge">
<title>Node34&#45;&gt;Node35</title>
<path fill="none" stroke="midnightblue" d="M884.6,-392.37C916.65,-373.41 993.44,-328 1032.42,-304.94"/>
<polygon fill="midnightblue" stroke="midnightblue" points="1034.65,-307.69 1041.47,-299.59 1031.08,-301.67 1034.65,-307.69"/>
</g>
<!-- Node37 -->
<g id="node37" class="node">
<title>Node37</title>
<g id="a_node37"><a xlink:href="sequence_8h.html" target="_top" xlink:title=" ">
<polygon fill="none" stroke="black" points="144,-56.5 144,-75.5 240,-75.5 240,-56.5 144,-56.5"/>
<text text-anchor="middle" x="192" y="-63.5" font-family="Helvetica,sans-Serif" font-size="10.00">utils/sequence.h</text>
</a>
</g>
</g>
<!-- Node34&#45;&gt;Node37 -->
<g id="edge69" class="edge">
<title>Node34&#45;&gt;Node37</title>
<path fill="none" stroke="midnightblue" d="M818.94,-392.47C766.29,-383.61 681.84,-369.22 609,-356 421.87,-322.05 299.71,-403.42 196,-244 163.92,-194.7 177.57,-120.2 186.5,-85.72"/>
<polygon fill="midnightblue" stroke="midnightblue" points="189.99,-86.23 189.28,-75.66 183.25,-84.37 189.99,-86.23"/>
</g>
<!-- Node35&#45;&gt;Node2 -->
<g id="edge64" class="edge">
<title>Node35&#45;&gt;Node2</title>
<path fill="none" stroke="midnightblue" d="M1079.79,-280.5C1095.72,-273.41 1115.46,-261.61 1125,-244 1129.23,-236.18 1127.43,-232.55 1125,-224 1111.83,-177.74 1091.38,-174.04 1068,-132 1048.05,-96.12 1027.32,-52.72 1016.21,-28.87"/>
<polygon fill="midnightblue" stroke="midnightblue" points="1019.32,-27.26 1011.95,-19.65 1012.97,-30.2 1019.32,-27.26"/>
</g>
<!-- Node35&#45;&gt;Node8 -->
<g id="edge63" class="edge">
<title>Node35&#45;&gt;Node8</title>
<path fill="none" stroke="midnightblue" d="M1000.99,-282.8C924.98,-274.2 783.56,-258.14 663,-244 651.01,-242.59 637.95,-241.04 626.13,-239.62"/>
<polygon fill="midnightblue" stroke="midnightblue" points="626.48,-236.13 616.13,-238.41 625.64,-243.08 626.48,-236.13"/>
</g>
<!-- Node35&#45;&gt;Node15 -->
<g id="edge65" class="edge">
<title>Node35&#45;&gt;Node15</title>
<path fill="none" stroke="midnightblue" d="M1111.16,-282.54C1212.74,-267.33 1427.35,-219.04 1519,-76 1554,-21.37 1431.56,-12.22 1370.54,-10.99"/>
<polygon fill="midnightblue" stroke="midnightblue" points="1370.31,-7.48 1360.26,-10.84 1370.21,-14.48 1370.31,-7.48"/>
</g>
<!-- Node35&#45;&gt;Node24 -->
<g id="edge66" class="edge">
<title>Node35&#45;&gt;Node24</title>
<path fill="none" stroke="midnightblue" d="M1041.65,-280.35C1027.45,-271.63 1005.26,-257.55 987,-244 913.8,-189.67 903.2,-166.33 830,-112 815.16,-100.99 797.73,-89.63 784.1,-81.08"/>
<polygon fill="midnightblue" stroke="midnightblue" points="785.69,-77.95 775.35,-75.65 782,-83.9 785.69,-77.95"/>
</g>
<!-- Node35&#45;&gt;Node30 -->
<g id="edge67" class="edge">
<title>Node35&#45;&gt;Node30</title>
<path fill="none" stroke="midnightblue" d="M1037.56,-280.48C977.06,-252.78 778.58,-164.1 607,-112 558.24,-97.19 501.61,-85.23 459.92,-77.37"/>
<polygon fill="midnightblue" stroke="midnightblue" points="460.4,-73.9 449.93,-75.51 459.12,-80.78 460.4,-73.9"/>
</g>
<!-- Node36 -->
<g id="node36" class="node">
<title>Node36</title>
<g id="a_node36"><a xlink:href="adaptive__species_8tpp.html" target="_top" xlink:title=" ">
<polygon fill="none" stroke="black" points="996,-224.5 996,-243.5 1116,-243.5 1116,-224.5 996,-224.5"/>
<text text-anchor="middle" x="1056" y="-231.5" font-family="Helvetica,sans-Serif" font-size="10.00">adaptive_species.tpp</text>
</a>
</g>
</g>
<!-- Node35&#45;&gt;Node36 -->
<g id="edge68" class="edge">
<title>Node35&#45;&gt;Node36</title>
<path fill="none" stroke="midnightblue" d="M1056,-280.08C1056,-273.01 1056,-262.86 1056,-253.99"/>
<polygon fill="midnightblue" stroke="midnightblue" points="1059.5,-253.75 1056,-243.75 1052.5,-253.75 1059.5,-253.75"/>
</g>
<!-- Node37&#45;&gt;Node2 -->
<g id="edge70" class="edge">
<title>Node37&#45;&gt;Node2</title>
<path fill="none" stroke="midnightblue" d="M240.06,-61.64C265.58,-59.88 297.49,-57.75 326,-56 610.97,-38.53 688.04,-65.61 974.07,-19.76"/>
<polygon fill="midnightblue" stroke="midnightblue" points="975.03,-23.15 984.34,-18.09 973.91,-16.24 975.03,-23.15"/>
</g>
<!-- Node37&#45;&gt;Node5 -->
<g id="edge71" class="edge">
<title>Node37&#45;&gt;Node5</title>
<path fill="none" stroke="midnightblue" d="M196.62,-56.08C200.46,-48.69 206.02,-37.95 210.76,-28.81"/>
<polygon fill="midnightblue" stroke="midnightblue" points="213.97,-30.24 215.46,-19.75 207.75,-27.02 213.97,-30.24"/>
</g>
<!-- Node38&#45;&gt;Node4 -->
<g id="edge74" class="edge">
<title>Node38&#45;&gt;Node4</title>
<path fill="none" stroke="midnightblue" d="M1114.63,-392.45C1138.14,-356.16 1228.61,-210.63 1258,-76 1259.9,-67.32 1262.45,-63.7 1258,-56 1249.06,-40.53 1232.56,-29.9 1217.03,-22.88"/>
<polygon fill="midnightblue" stroke="midnightblue" points="1218.14,-19.55 1207.56,-18.96 1215.46,-26.02 1218.14,-19.55"/>
</g>
<!-- Node38&#45;&gt;Node10 -->
<g id="edge78" class="edge">
<title>Node38&#45;&gt;Node10</title>
<path fill="none" stroke="midnightblue" d="M1063.94,-393.32C1060.92,-392.86 1057.92,-392.41 1055,-392 940.02,-375.74 805.21,-361.05 728.88,-353.14"/>
<polygon fill="midnightblue" stroke="midnightblue" points="728.81,-349.61 718.51,-352.07 728.09,-356.58 728.81,-349.61"/>
</g>
<!-- Node38&#45;&gt;Node15 -->
<g id="edge75" class="edge">
<title>Node38&#45;&gt;Node15</title>
<path fill="none" stroke="midnightblue" d="M1136.27,-392.47C1220.65,-364.24 1475.51,-264.75 1536,-76 1538.71,-67.54 1541.55,-62.95 1536,-56 1515.62,-30.47 1420.99,-18.32 1370.29,-13.56"/>
<polygon fill="midnightblue" stroke="midnightblue" points="1370.45,-10.06 1360.18,-12.65 1369.82,-17.03 1370.45,-10.06"/>
</g>
<!-- Node38&#45;&gt;Node20 -->
<g id="edge76" class="edge">
<title>Node38&#45;&gt;Node20</title>
<path fill="none" stroke="midnightblue" d="M1096.34,-392.41C1029.95,-347.33 721.7,-138.08 638.01,-81.26"/>
<polygon fill="midnightblue" stroke="midnightblue" points="639.81,-78.26 629.57,-75.54 635.88,-84.05 639.81,-78.26"/>
</g>
<!-- Node38&#45;&gt;Node35 -->
<g id="edge77" class="edge">
<title>Node38&#45;&gt;Node35</title>
<path fill="none" stroke="midnightblue" d="M1104.84,-392.37C1096.17,-374.38 1076.02,-332.55 1064.49,-308.63"/>
<polygon fill="midnightblue" stroke="midnightblue" points="1067.63,-307.08 1060.14,-299.59 1061.33,-310.12 1067.63,-307.08"/>
</g>
<!-- Node39&#45;&gt;Node2 -->
<g id="edge85" class="edge">
<title>Node39&#45;&gt;Node2</title>
<path fill="none" stroke="midnightblue" d="M1120.36,-112.19C1109.02,-99.3 1086.83,-74.81 1066,-56 1054.09,-45.25 1039.87,-34.19 1028.48,-25.72"/>
<polygon fill="midnightblue" stroke="midnightblue" points="1030.55,-22.9 1020.42,-19.8 1026.41,-28.54 1030.55,-22.9"/>
</g>
<!-- Node39&#45;&gt;Node3 -->
<g id="edge83" class="edge">
<title>Node39&#45;&gt;Node3</title>
<path fill="none" stroke="midnightblue" d="M1085.47,-112.46C1042.41,-103.7 973.95,-89.5 915,-76 878.85,-67.72 870.44,-62.89 834,-56 714.18,-33.35 682.05,-41.41 562,-20 561.9,-19.98 561.8,-19.96 561.7,-19.95"/>
<polygon fill="midnightblue" stroke="midnightblue" points="562.57,-16.55 552.08,-18.07 561.23,-23.42 562.57,-16.55"/>
</g>
<!-- Node39&#45;&gt;Node4 -->
<g id="edge81" class="edge">
<title>Node39&#45;&gt;Node4</title>
<path fill="none" stroke="midnightblue" d="M1179.2,-114.24C1202.76,-108.28 1228.62,-97.07 1243,-76 1256.63,-56.04 1231.14,-36.6 1208.62,-24.26"/>
<polygon fill="midnightblue" stroke="midnightblue" points="1210.08,-21.07 1199.59,-19.58 1206.86,-27.29 1210.08,-21.07"/>
</g>
<!-- Node39&#45;&gt;Node5 -->
<g id="edge84" class="edge">
<title>Node39&#45;&gt;Node5</title>
<path fill="none" stroke="midnightblue" d="M1076.83,-119.22C1016.97,-115.77 915.66,-105.66 834,-76 817.88,-70.15 817.35,-61.18 801,-56 577.18,14.84 507.17,-47.33 274,-20 267.43,-19.23 260.45,-18.21 253.76,-17.14"/>
<polygon fill="midnightblue" stroke="midnightblue" points="254.03,-13.64 243.59,-15.44 252.87,-20.54 254.03,-13.64"/>
</g>
<!-- Node39&#45;&gt;Node14 -->
<g id="edge86" class="edge">
<title>Node39&#45;&gt;Node14</title>
<path fill="none" stroke="midnightblue" d="M1100.59,-112.44C1071.23,-103.28 1024.48,-88.69 991.9,-78.52"/>
<polygon fill="midnightblue" stroke="midnightblue" points="992.87,-75.16 982.28,-75.52 990.79,-81.84 992.87,-75.16"/>
</g>
<!-- Node39&#45;&gt;Node15 -->
<g id="edge80" class="edge">
<title>Node39&#45;&gt;Node15</title>
<path fill="none" stroke="midnightblue" d="M1163.06,-112.45C1190.05,-105.04 1227.74,-92.84 1258,-76 1282.28,-62.49 1306.53,-41.46 1321.86,-27"/>
<polygon fill="midnightblue" stroke="midnightblue" points="1324.63,-29.19 1329.4,-19.73 1319.77,-24.15 1324.63,-29.19"/>
</g>
<!-- Node39&#45;&gt;Node16 -->
<g id="edge82" class="edge">
<title>Node39&#45;&gt;Node16</title>
<path fill="none" stroke="midnightblue" d="M1113.09,-112.37C1080.21,-93.33 1001.24,-47.62 961.58,-24.65"/>
<polygon fill="midnightblue" stroke="midnightblue" points="963.25,-21.57 952.84,-19.59 959.74,-27.63 963.25,-21.57"/>
</g>
<!-- Node40 -->
<g id="node40" class="node">
<title>Node40</title>
<g id="a_node40"><a xlink:title=" ">
<polygon fill="none" stroke="#bfbfbf" points="1156.5,-56.5 1156.5,-75.5 1233.5,-75.5 1233.5,-56.5 1156.5,-56.5"/>
<text text-anchor="middle" x="1195" y="-63.5" font-family="Helvetica,sans-Serif" font-size="10.00">csvstream.h</text>
</a>
</g>
</g>
<!-- Node39&#45;&gt;Node40 -->
<g id="edge87" class="edge">
<title>Node39&#45;&gt;Node40</title>
<path fill="none" stroke="midnightblue" d="M1138.76,-112.32C1148.77,-104.26 1163.89,-92.08 1175.93,-82.37"/>
<polygon fill="midnightblue" stroke="midnightblue" points="1178.45,-84.83 1184.04,-75.83 1174.06,-79.38 1178.45,-84.83"/>
</g>
<!-- Node41&#45;&gt;Node2 -->
<g id="edge89" class="edge">
<title>Node41&#45;&gt;Node2</title>
<path fill="none" stroke="midnightblue" d="M1404.17,-58.65C1310.96,-47.44 1119.82,-24.45 1042.05,-15.09"/>
<polygon fill="midnightblue" stroke="midnightblue" points="1042.19,-11.59 1031.85,-13.87 1041.36,-18.54 1042.19,-11.59"/>
</g>
<!-- Node41&#45;&gt;Node15 -->
<g id="edge90" class="edge">
<title>Node41&#45;&gt;Node15</title>
<path fill="none" stroke="midnightblue" d="M1438.14,-56.44C1418.73,-47.64 1388.27,-33.81 1366.04,-23.72"/>
<polygon fill="midnightblue" stroke="midnightblue" points="1367.32,-20.46 1356.77,-19.52 1364.43,-26.84 1367.32,-20.46"/>
</g>
</g>
</svg>
