<?xml version="1.0" encoding="UTF-8" standalone="no"?>
<!DOCTYPE svg PUBLIC "-//W3C//DTD SVG 1.1//EN"
 "http://www.w3.org/Graphics/SVG/1.1/DTD/svg11.dtd">
<!-- Generated by graphviz version 2.43.0 (0)
 -->
<!-- Title: inst/include/plantfate_patch.h Pages: 1 -->
<svg width="584pt" height="95pt"
 viewBox="0.00 0.00 583.50 95.00" xmlns="http://www.w3.org/2000/svg" xmlns:xlink="http://www.w3.org/1999/xlink">
<g id="graph0" class="graph" transform="scale(1 1) rotate(0) translate(4 91)">
<title>inst/include/plantfate_patch.h</title>
<!-- Node1 -->
<g id="node1" class="node">
<title>Node1</title>
<g id="a_node1"><a xlink:title=" ">
<polygon fill="#bfbfbf" stroke="black" points="256,-56.5 256,-86.5 376,-86.5 376,-56.5 256,-56.5"/>
<text text-anchor="start" x="264" y="-74.5" font-family="Helvetica,sans-Serif" font-size="10.00">inst/include/plantfate</text>
<text text-anchor="middle" x="316" y="-63.5" font-family="Helvetica,sans-Serif" font-size="10.00">_patch.h</text>
</a>
</g>
</g>
<!-- Node2 -->
<g id="node2" class="node">
<title>Node2</title>
<g id="a_node2"><a xlink:href="community__properties_8cpp.html" target="_top" xlink:title=" ">
<polygon fill="none" stroke="black" points="0,-0.5 0,-19.5 164,-19.5 164,-0.5 0,-0.5"/>
<text text-anchor="middle" x="82" y="-7.5" font-family="Helvetica,sans-Serif" font-size="10.00">src/community_properties.cpp</text>
</a>
</g>
</g>
<!-- Node1&#45;&gt;Node2 -->
<g id="edge1" class="edge">
<title>Node1&#45;&gt;Node2</title>
<path fill="none" stroke="midnightblue" d="M251.08,-53.99C207.06,-42.8 150.69,-28.47 115.45,-19.51"/>
<polygon fill="midnightblue" stroke="midnightblue" points="250.29,-57.4 260.84,-56.47 252.01,-50.62 250.29,-57.4"/>
</g>
<!-- Node3 -->
<g id="node3" class="node">
<title>Node3</title>
<g id="a_node3"><a xlink:href="plantfate__patch_8cpp.html" target="_top" xlink:title=" ">
<polygon fill="none" stroke="black" points="182.5,-0.5 182.5,-19.5 313.5,-19.5 313.5,-0.5 182.5,-0.5"/>
<text text-anchor="middle" x="248" y="-7.5" font-family="Helvetica,sans-Serif" font-size="10.00">src/plantfate_patch.cpp</text>
</a>
</g>
</g>
<!-- Node1&#45;&gt;Node3 -->
<g id="edge2" class="edge">
<title>Node1&#45;&gt;Node3</title>
<path fill="none" stroke="midnightblue" d="M292.11,-49.6C280.36,-39.32 266.84,-27.48 257.89,-19.66"/>
<polygon fill="midnightblue" stroke="midnightblue" points="290.05,-52.45 299.88,-56.4 294.66,-47.18 290.05,-52.45"/>
</g>
<!-- Node4 -->
<g id="node4" class="node">
<title>Node4</title>
<g id="a_node4"><a xlink:href="r__interface_8cpp.html" target="_top" xlink:title=" ">
<polygon fill="none" stroke="black" points="331.5,-0.5 331.5,-19.5 438.5,-19.5 438.5,-0.5 331.5,-0.5"/>
<text text-anchor="middle" x="385" y="-7.5" font-family="Helvetica,sans-Serif" font-size="10.00">src/r_interface.cpp</text>
</a>
</g>
</g>
<!-- Node1&#45;&gt;Node4 -->
<g id="edge3" class="edge">
<title>Node1&#45;&gt;Node4</title>
<path fill="none" stroke="midnightblue" d="M340.24,-49.6C352.16,-39.32 365.89,-27.48 374.96,-19.66"/>
<polygon fill="midnightblue" stroke="midnightblue" points="337.64,-47.22 332.35,-56.4 342.21,-52.52 337.64,-47.22"/>
</g>
<!-- Node5 -->
<g id="node5" class="node">
<title>Node5</title>
<g id="a_node5"><a xlink:href="state__restore_8cpp.html" target="_top" xlink:title=" ">
<polygon fill="none" stroke="black" points="456.5,-0.5 456.5,-19.5 575.5,-19.5 575.5,-0.5 456.5,-0.5"/>
<text text-anchor="middle" x="516" y="-7.5" font-family="Helvetica,sans-Serif" font-size="10.00">src/state_restore.cpp</text>
</a>
</g>
</g>
<!-- Node1&#45;&gt;Node5 -->
<g id="edge4" class="edge">
<title>Node1&#45;&gt;Node5</title>
<path fill="none" stroke="midnightblue" d="M372.91,-53.57C410.32,-42.44 457.67,-28.35 487.41,-19.51"/>
<polygon fill="midnightblue" stroke="midnightblue" points="371.73,-50.27 363.14,-56.47 373.73,-56.98 371.73,-50.27"/>
</g>
</g>
</svg>
