<?xml version="1.0" encoding="UTF-8" standalone="no"?>
<!DOCTYPE svg PUBLIC "-//W3C//DTD SVG 1.1//EN"
 "http://www.w3.org/Graphics/SVG/1.1/DTD/svg11.dtd">
<!-- Generated by graphviz version 2.43.0 (0)
 -->
<!-- Title: src/plant_architecture.cpp Pages: 1 -->
<svg width="616pt" height="252pt"
 viewBox="0.00 0.00 616.00 252.00" xmlns="http://www.w3.org/2000/svg" xmlns:xlink="http://www.w3.org/1999/xlink">
<g id="graph0" class="graph" transform="scale(1 1) rotate(0) translate(4 248)">
<title>src/plant_architecture.cpp</title>
<!-- Node1 -->
<g id="node1" class="node">
<title>Node1</title>
<g id="a_node1"><a xlink:title=" ">
<polygon fill="#bfbfbf" stroke="black" points="397.5,-224.5 397.5,-243.5 540.5,-243.5 540.5,-224.5 397.5,-224.5"/>
<text text-anchor="middle" x="469" y="-231.5" font-family="Helvetica,sans-Serif" font-size="10.00">src/plant_architecture.cpp</text>
</a>
</g>
</g>
<!-- Node2 -->
<g id="node2" class="node">
<title>Node2</title>
<g id="a_node2"><a xlink:href="plant__architecture_8h.html" target="_top" xlink:title=" ">
<polygon fill="none" stroke="black" points="327,-168.5 327,-187.5 441,-187.5 441,-168.5 327,-168.5"/>
<text text-anchor="middle" x="384" y="-175.5" font-family="Helvetica,sans-Serif" font-size="10.00">plant_architecture.h</text>
</a>
</g>
</g>
<!-- Node1&#45;&gt;Node2 -->
<g id="edge1" class="edge">
<title>Node1&#45;&gt;Node2</title>
<path fill="none" stroke="midnightblue" d="M455.34,-224.32C442.08,-215.9 421.73,-202.97 406.15,-193.07"/>
<polygon fill="midnightblue" stroke="midnightblue" points="407.94,-190.06 397.62,-187.65 404.19,-195.97 407.94,-190.06"/>
</g>
<!-- Node3 -->
<g id="node3" class="node">
<title>Node3</title>
<g id="a_node3"><a xlink:title=" ">
<polygon fill="none" stroke="#bfbfbf" points="445.5,-56.5 445.5,-75.5 492.5,-75.5 492.5,-56.5 445.5,-56.5"/>
<text text-anchor="middle" x="469" y="-63.5" font-family="Helvetica,sans-Serif" font-size="10.00">cmath</text>
</a>
</g>
</g>
<!-- Node1&#45;&gt;Node3 -->
<g id="edge21" class="edge">
<title>Node1&#45;&gt;Node3</title>
<path fill="none" stroke="midnightblue" d="M469,-224.08C469,-197.95 469,-121.21 469,-85.58"/>
<polygon fill="midnightblue" stroke="midnightblue" points="472.5,-85.57 469,-75.57 465.5,-85.57 472.5,-85.57"/>
</g>
<!-- Node4 -->
<g id="node4" class="node">
<title>Node4</title>
<g id="a_node4"><a xlink:href="traits__params_8h.html" target="_top" xlink:title=" ">
<polygon fill="none" stroke="black" points="279.5,-112.5 279.5,-131.5 372.5,-131.5 372.5,-112.5 279.5,-112.5"/>
<text text-anchor="middle" x="326" y="-119.5" font-family="Helvetica,sans-Serif" font-size="10.00">traits_params.h</text>
</a>
</g>
</g>
<!-- Node1&#45;&gt;Node4 -->
<g id="edge20" class="edge">
<title>Node1&#45;&gt;Node4</title>
<path fill="none" stroke="midnightblue" d="M397.19,-229.69C367.78,-224.35 336.39,-212.67 318,-188 308.04,-174.63 312.11,-155.26 317.41,-141.14"/>
<polygon fill="midnightblue" stroke="midnightblue" points="320.79,-142.12 321.49,-131.55 314.35,-139.38 320.79,-142.12"/>
</g>
<!-- Node16 -->
<g id="node16" class="node">
<title>Node16</title>
<g id="a_node16"><a xlink:href="rk4_8h.html" target="_top" xlink:title=" ">
<polygon fill="none" stroke="black" points="497.5,-168.5 497.5,-187.5 562.5,-187.5 562.5,-168.5 497.5,-168.5"/>
<text text-anchor="middle" x="530" y="-175.5" font-family="Helvetica,sans-Serif" font-size="10.00">utils/rk4.h</text>
</a>
</g>
</g>
<!-- Node1&#45;&gt;Node16 -->
<g id="edge17" class="edge">
<title>Node1&#45;&gt;Node16</title>
<path fill="none" stroke="midnightblue" d="M478.8,-224.32C487.82,-216.34 501.41,-204.31 512.32,-194.65"/>
<polygon fill="midnightblue" stroke="midnightblue" points="514.85,-197.08 520.02,-187.83 510.21,-191.84 514.85,-197.08"/>
</g>
<!-- Node17 -->
<g id="node17" class="node">
<title>Node17</title>
<g id="a_node17"><a xlink:href="incbeta_8h.html" target="_top" xlink:title=" ">
<polygon fill="none" stroke="black" points="522,-112.5 522,-131.5 608,-131.5 608,-112.5 522,-112.5"/>
<text text-anchor="middle" x="565" y="-119.5" font-family="Helvetica,sans-Serif" font-size="10.00">utils/incbeta.h</text>
</a>
</g>
</g>
<!-- Node1&#45;&gt;Node17 -->
<g id="edge18" class="edge">
<title>Node1&#45;&gt;Node17</title>
<path fill="none" stroke="midnightblue" d="M516.33,-224.42C537.1,-218.05 559.55,-207.02 572,-188 581.01,-174.23 577.57,-155.2 572.89,-141.29"/>
<polygon fill="midnightblue" stroke="midnightblue" points="576.1,-139.9 569.25,-131.82 569.57,-142.41 576.1,-139.9"/>
</g>
<!-- Node2&#45;&gt;Node3 -->
<g id="edge2" class="edge">
<title>Node2&#45;&gt;Node3</title>
<path fill="none" stroke="midnightblue" d="M390.67,-168.37C404.76,-150.14 437.76,-107.43 456.11,-83.68"/>
<polygon fill="midnightblue" stroke="midnightblue" points="459.02,-85.64 462.36,-75.59 453.48,-81.36 459.02,-85.64"/>
</g>
<!-- Node2&#45;&gt;Node4 -->
<g id="edge3" class="edge">
<title>Node2&#45;&gt;Node4</title>
<path fill="none" stroke="midnightblue" d="M374.68,-168.32C366.11,-160.34 353.19,-148.31 342.81,-138.65"/>
<polygon fill="midnightblue" stroke="midnightblue" points="345.19,-136.09 335.49,-131.83 340.42,-141.21 345.19,-136.09"/>
</g>
<!-- Node4&#45;&gt;Node3 -->
<g id="edge14" class="edge">
<title>Node4&#45;&gt;Node3</title>
<path fill="none" stroke="midnightblue" d="M348.66,-112.44C372.4,-103.48 409.91,-89.31 436.74,-79.18"/>
<polygon fill="midnightblue" stroke="midnightblue" points="438.33,-82.32 446.45,-75.52 435.86,-75.77 438.33,-82.32"/>
</g>
<!-- Node5 -->
<g id="node5" class="node">
<title>Node5</title>
<g id="a_node5"><a xlink:href="initializer__v2_8h.html" target="_top" xlink:title=" ">
<polygon fill="none" stroke="black" points="164.5,-56.5 164.5,-75.5 277.5,-75.5 277.5,-56.5 164.5,-56.5"/>
<text text-anchor="middle" x="221" y="-63.5" font-family="Helvetica,sans-Serif" font-size="10.00">utils/initializer_v2.h</text>
</a>
</g>
</g>
<!-- Node4&#45;&gt;Node5 -->
<g id="edge4" class="edge">
<title>Node4&#45;&gt;Node5</title>
<path fill="none" stroke="midnightblue" d="M309.13,-112.32C292.29,-103.66 266.19,-90.24 246.76,-80.25"/>
<polygon fill="midnightblue" stroke="midnightblue" points="248.32,-77.12 237.83,-75.65 245.12,-83.34 248.32,-77.12"/>
</g>
<!-- Node8 -->
<g id="node8" class="node">
<title>Node8</title>
<g id="a_node8"><a xlink:title=" ">
<polygon fill="none" stroke="#bfbfbf" points="0,-0.5 0,-19.5 44,-19.5 44,-0.5 0,-0.5"/>
<text text-anchor="middle" x="22" y="-7.5" font-family="Helvetica,sans-Serif" font-size="10.00">string</text>
</a>
</g>
</g>
<!-- Node4&#45;&gt;Node8 -->
<g id="edge15" class="edge">
<title>Node4&#45;&gt;Node8</title>
<path fill="none" stroke="midnightblue" d="M284.53,-112.5C249.45,-104.74 198.16,-92.05 155,-76 115.52,-61.32 72.09,-38.8 45.94,-24.49"/>
<polygon fill="midnightblue" stroke="midnightblue" points="47.57,-21.4 37.13,-19.62 44.18,-27.52 47.57,-21.4"/>
</g>
<!-- Node14 -->
<g id="node14" class="node">
<title>Node14</title>
<g id="a_node14"><a xlink:title=" ">
<polygon fill="none" stroke="#bfbfbf" points="295.5,-56.5 295.5,-75.5 356.5,-75.5 356.5,-56.5 295.5,-56.5"/>
<text text-anchor="middle" x="326" y="-63.5" font-family="Helvetica,sans-Serif" font-size="10.00">io_utils.h</text>
</a>
</g>
</g>
<!-- Node4&#45;&gt;Node14 -->
<g id="edge13" class="edge">
<title>Node4&#45;&gt;Node14</title>
<path fill="none" stroke="midnightblue" d="M326,-112.08C326,-105.01 326,-94.86 326,-85.99"/>
<polygon fill="midnightblue" stroke="midnightblue" points="329.5,-85.75 326,-75.75 322.5,-85.75 329.5,-85.75"/>
</g>
<!-- Node15 -->
<g id="node15" class="node">
<title>Node15</title>
<g id="a_node15"><a xlink:title=" ">
<polygon fill="none" stroke="#bfbfbf" points="375,-56.5 375,-75.5 427,-75.5 427,-56.5 375,-56.5"/>
<text text-anchor="middle" x="401" y="-63.5" font-family="Helvetica,sans-Serif" font-size="10.00">cassert</text>
</a>
</g>
</g>
<!-- Node4&#45;&gt;Node15 -->
<g id="edge16" class="edge">
<title>Node4&#45;&gt;Node15</title>
<path fill="none" stroke="midnightblue" d="M338.05,-112.32C349.46,-104.11 366.83,-91.6 380.43,-81.81"/>
<polygon fill="midnightblue" stroke="midnightblue" points="382.66,-84.52 388.73,-75.83 378.57,-78.84 382.66,-84.52"/>
</g>
<!-- Node6 -->
<g id="node6" class="node">
<title>Node6</title>
<g id="a_node6"><a xlink:title=" ">
<polygon fill="none" stroke="#bfbfbf" points="532,-0.5 532,-19.5 592,-19.5 592,-0.5 532,-0.5"/>
<text text-anchor="middle" x="562" y="-7.5" font-family="Helvetica,sans-Serif" font-size="10.00">iostream</text>
</a>
</g>
</g>
<!-- Node5&#45;&gt;Node6 -->
<g id="edge5" class="edge">
<title>Node5&#45;&gt;Node6</title>
<path fill="none" stroke="midnightblue" d="M277.74,-57.02C351.52,-46.56 476.36,-28.53 522,-20 522.1,-19.98 522.2,-19.96 522.3,-19.94"/>
<polygon fill="midnightblue" stroke="midnightblue" points="522.79,-23.42 531.91,-18.02 521.41,-16.55 522.79,-23.42"/>
</g>
<!-- Node7 -->
<g id="node7" class="node">
<title>Node7</title>
<g id="a_node7"><a xlink:title=" ">
<polygon fill="none" stroke="#bfbfbf" points="62,-0.5 62,-19.5 106,-19.5 106,-0.5 62,-0.5"/>
<text text-anchor="middle" x="84" y="-7.5" font-family="Helvetica,sans-Serif" font-size="10.00">regex</text>
</a>
</g>
</g>
<!-- Node5&#45;&gt;Node7 -->
<g id="edge6" class="edge">
<title>Node5&#45;&gt;Node7</title>
<path fill="none" stroke="midnightblue" d="M199.29,-56.44C176.65,-47.52 140.93,-33.44 115.25,-23.32"/>
<polygon fill="midnightblue" stroke="midnightblue" points="116.19,-19.93 105.61,-19.52 113.63,-26.44 116.19,-19.93"/>
</g>
<!-- Node5&#45;&gt;Node8 -->
<g id="edge7" class="edge">
<title>Node5&#45;&gt;Node8</title>
<path fill="none" stroke="midnightblue" d="M188.42,-56.49C156.52,-48.11 106.29,-34.78 54.1,-20.27"/>
<polygon fill="midnightblue" stroke="midnightblue" points="54.91,-16.86 44.34,-17.54 53.03,-23.6 54.91,-16.86"/>
</g>
<!-- Node9 -->
<g id="node9" class="node">
<title>Node9</title>
<g id="a_node9"><a xlink:title=" ">
<polygon fill="none" stroke="#bfbfbf" points="124.5,-0.5 124.5,-19.5 179.5,-19.5 179.5,-0.5 124.5,-0.5"/>
<text text-anchor="middle" x="152" y="-7.5" font-family="Helvetica,sans-Serif" font-size="10.00">fstream</text>
</a>
</g>
</g>
<!-- Node5&#45;&gt;Node9 -->
<g id="edge8" class="edge">
<title>Node5&#45;&gt;Node9</title>
<path fill="none" stroke="midnightblue" d="M209.91,-56.32C199.51,-48.18 183.74,-35.84 171.28,-26.09"/>
<polygon fill="midnightblue" stroke="midnightblue" points="173.32,-23.24 163.29,-19.83 169.01,-28.75 173.32,-23.24"/>
</g>
<!-- Node10 -->
<g id="node10" class="node">
<title>Node10</title>
<g id="a_node10"><a xlink:title=" ">
<polygon fill="none" stroke="#bfbfbf" points="197.5,-0.5 197.5,-19.5 244.5,-19.5 244.5,-0.5 197.5,-0.5"/>
<text text-anchor="middle" x="221" y="-7.5" font-family="Helvetica,sans-Serif" font-size="10.00">vector</text>
</a>
</g>
</g>
<!-- Node5&#45;&gt;Node10 -->
<g id="edge9" class="edge">
<title>Node5&#45;&gt;Node10</title>
<path fill="none" stroke="midnightblue" d="M221,-56.08C221,-49.01 221,-38.86 221,-29.99"/>
<polygon fill="midnightblue" stroke="midnightblue" points="224.5,-29.75 221,-19.75 217.5,-29.75 224.5,-29.75"/>
</g>
<!-- Node11 -->
<g id="node11" class="node">
<title>Node11</title>
<g id="a_node11"><a xlink:title=" ">
<polygon fill="none" stroke="#bfbfbf" points="263,-0.5 263,-19.5 319,-19.5 319,-0.5 263,-0.5"/>
<text text-anchor="middle" x="291" y="-7.5" font-family="Helvetica,sans-Serif" font-size="10.00">sstream</text>
</a>
</g>
</g>
<!-- Node5&#45;&gt;Node11 -->
<g id="edge10" class="edge">
<title>Node5&#45;&gt;Node11</title>
<path fill="none" stroke="midnightblue" d="M232.25,-56.32C242.8,-48.18 258.8,-35.84 271.44,-26.09"/>
<polygon fill="midnightblue" stroke="midnightblue" points="273.77,-28.71 279.55,-19.83 269.49,-23.17 273.77,-28.71"/>
</g>
<!-- Node12 -->
<g id="node12" class="node">
<title>Node12</title>
<g id="a_node12"><a xlink:title=" ">
<polygon fill="none" stroke="#bfbfbf" points="337.5,-0.5 337.5,-19.5 402.5,-19.5 402.5,-0.5 337.5,-0.5"/>
<text text-anchor="middle" x="370" y="-7.5" font-family="Helvetica,sans-Serif" font-size="10.00">stdexcept</text>
</a>
</g>
</g>
<!-- Node5&#45;&gt;Node12 -->
<g id="edge11" class="edge">
<title>Node5&#45;&gt;Node12</title>
<path fill="none" stroke="midnightblue" d="M244.61,-56.44C269.46,-47.44 308.77,-33.19 336.75,-23.05"/>
<polygon fill="midnightblue" stroke="midnightblue" points="338.29,-26.21 346.5,-19.52 335.91,-19.63 338.29,-26.21"/>
</g>
<!-- Node13 -->
<g id="node13" class="node">
<title>Node13</title>
<g id="a_node13"><a xlink:title=" ">
<polygon fill="none" stroke="#bfbfbf" points="420.5,-0.5 420.5,-19.5 513.5,-19.5 513.5,-0.5 420.5,-0.5"/>
<text text-anchor="middle" x="467" y="-7.5" font-family="Helvetica,sans-Serif" font-size="10.00">unordered_map</text>
</a>
</g>
</g>
<!-- Node5&#45;&gt;Node13 -->
<g id="edge12" class="edge">
<title>Node5&#45;&gt;Node13</title>
<path fill="none" stroke="midnightblue" d="M259.98,-56.44C302.89,-47.02 371.95,-31.87 418.37,-21.68"/>
<polygon fill="midnightblue" stroke="midnightblue" points="419.19,-25.08 428.2,-19.52 417.69,-18.24 419.19,-25.08"/>
</g>
<!-- Node17&#45;&gt;Node3 -->
<g id="edge19" class="edge">
<title>Node17&#45;&gt;Node3</title>
<path fill="none" stroke="midnightblue" d="M549.58,-112.32C534.46,-103.82 511.18,-90.73 493.53,-80.8"/>
<polygon fill="midnightblue" stroke="midnightblue" points="494.82,-77.51 484.39,-75.65 491.39,-83.61 494.82,-77.51"/>
</g>
</g>
</svg>
