<?xml version="1.0" encoding="UTF-8" standalone="no"?>
<!DOCTYPE svg PUBLIC "-//W3C//DTD SVG 1.1//EN"
 "http://www.w3.org/Graphics/SVG/1.1/DTD/svg11.dtd">
<!-- Generated by graphviz version 2.43.0 (0)
 -->
<!-- Title: inst/include/plant_architecture.h Pages: 1 -->
<svg width="1028pt" height="397pt"
 viewBox="0.00 0.00 1028.00 397.00" xmlns="http://www.w3.org/2000/svg" xmlns:xlink="http://www.w3.org/1999/xlink">
<g id="graph0" class="graph" transform="scale(1 1) rotate(0) translate(4 393)">
<title>inst/include/plant_architecture.h</title>
<!-- Node1 -->
<g id="node1" class="node">
<title>Node1</title>
<g id="a_node1"><a xlink:title=" ">
<polygon fill="#bfbfbf" stroke="black" points="184,-358.5 184,-388.5 285,-388.5 285,-358.5 184,-358.5"/>
<text text-anchor="start" x="192" y="-376.5" font-family="Helvetica,sans-Serif" font-size="10.00">inst/include/plant</text>
<text text-anchor="middle" x="234.5" y="-365.5" font-family="Helvetica,sans-Serif" font-size="10.00">_architecture.h</text>
</a>
</g>
</g>
<!-- Node2 -->
<g id="node2" class="node">
<title>Node2</title>
<g id="a_node2"><a xlink:href="plant__architecture_8cpp.html" target="_top" xlink:title=" ">
<polygon fill="none" stroke="black" points="0,-302.5 0,-321.5 143,-321.5 143,-302.5 0,-302.5"/>
<text text-anchor="middle" x="71.5" y="-309.5" font-family="Helvetica,sans-Serif" font-size="10.00">src/plant_architecture.cpp</text>
</a>
</g>
</g>
<!-- Node1&#45;&gt;Node2 -->
<g id="edge1" class="edge">
<title>Node1&#45;&gt;Node2</title>
<path fill="none" stroke="midnightblue" d="M186.4,-354.94C156.37,-343.98 119.02,-330.35 95.22,-321.66"/>
<polygon fill="midnightblue" stroke="midnightblue" points="185.28,-358.26 195.87,-358.4 187.68,-351.68 185.28,-358.26"/>
</g>
<!-- Node3 -->
<g id="node3" class="node">
<title>Node3</title>
<g id="a_node3"><a xlink:href="assimilation_8h.html" target="_top" xlink:title=" ">
<polygon fill="none" stroke="black" points="225,-302.5 225,-321.5 370,-321.5 370,-302.5 225,-302.5"/>
<text text-anchor="middle" x="297.5" y="-309.5" font-family="Helvetica,sans-Serif" font-size="10.00">inst/include/assimilation.h</text>
</a>
</g>
</g>
<!-- Node1&#45;&gt;Node3 -->
<g id="edge2" class="edge">
<title>Node1&#45;&gt;Node3</title>
<path fill="none" stroke="midnightblue" d="M256.95,-351.3C267.76,-341.09 280.13,-329.41 288.33,-321.66"/>
<polygon fill="midnightblue" stroke="midnightblue" points="254.3,-348.99 249.43,-358.4 259.1,-354.08 254.3,-348.99"/>
</g>
<!-- Node5 -->
<g id="node5" class="node">
<title>Node5</title>
<g id="a_node5"><a xlink:href="life__history_8h.html" target="_top" xlink:title=" ">
<polygon fill="none" stroke="black" points="197.5,-190.5 197.5,-209.5 335.5,-209.5 335.5,-190.5 197.5,-190.5"/>
<text text-anchor="middle" x="266.5" y="-197.5" font-family="Helvetica,sans-Serif" font-size="10.00">inst/include/life_history.h</text>
</a>
</g>
</g>
<!-- Node1&#45;&gt;Node5 -->
<g id="edge26" class="edge">
<title>Node1&#45;&gt;Node5</title>
<path fill="none" stroke="midnightblue" d="M215.62,-349.97C196.15,-323.81 171.15,-279.94 190.5,-246 200.75,-228.02 221.33,-216.49 238.48,-209.6"/>
<polygon fill="midnightblue" stroke="midnightblue" points="213.05,-352.36 221.94,-358.12 218.58,-348.07 213.05,-352.36"/>
</g>
<!-- Node9 -->
<g id="node9" class="node">
<title>Node9</title>
<g id="a_node9"><a xlink:href="plant_8h.html" target="_top" xlink:title=" ">
<polygon fill="none" stroke="black" points="369.5,-246.5 369.5,-265.5 479.5,-265.5 479.5,-246.5 369.5,-246.5"/>
<text text-anchor="middle" x="424.5" y="-253.5" font-family="Helvetica,sans-Serif" font-size="10.00">inst/include/plant.h</text>
</a>
</g>
</g>
<!-- Node1&#45;&gt;Node9 -->
<g id="edge27" class="edge">
<title>Node1&#45;&gt;Node9</title>
<path fill="none" stroke="midnightblue" d="M295.24,-360.46C322.93,-352.8 354.93,-340.68 379.5,-322 399.6,-306.71 414.05,-279.82 420.59,-265.9"/>
<polygon fill="midnightblue" stroke="midnightblue" points="294.04,-357.16 285.26,-363.09 295.82,-363.93 294.04,-357.16"/>
</g>
<!-- Node4 -->
<g id="node4" class="node">
<title>Node4</title>
<g id="a_node4"><a xlink:href="assimilation_8cpp.html" target="_top" xlink:title=" ">
<polygon fill="none" stroke="black" points="199.5,-246.5 199.5,-265.5 313.5,-265.5 313.5,-246.5 199.5,-246.5"/>
<text text-anchor="middle" x="256.5" y="-253.5" font-family="Helvetica,sans-Serif" font-size="10.00">src/assimilation.cpp</text>
</a>
</g>
</g>
<!-- Node3&#45;&gt;Node4 -->
<g id="edge3" class="edge">
<title>Node3&#45;&gt;Node4</title>
<path fill="none" stroke="midnightblue" d="M284.48,-293.86C277.38,-284.5 268.9,-273.33 263.14,-265.75"/>
<polygon fill="midnightblue" stroke="midnightblue" points="281.89,-296.24 290.73,-302.08 287.47,-292 281.89,-296.24"/>
</g>
<!-- Node3&#45;&gt;Node5 -->
<g id="edge4" class="edge">
<title>Node3&#45;&gt;Node5</title>
<path fill="none" stroke="midnightblue" d="M311.56,-294.2C320.89,-280.89 330.14,-261.95 322.5,-246 314.58,-229.47 297.29,-217.08 284,-209.54"/>
<polygon fill="midnightblue" stroke="midnightblue" points="308.58,-292.33 305.29,-302.4 314.14,-296.58 308.58,-292.33"/>
</g>
<!-- Node3&#45;&gt;Node9 -->
<g id="edge8" class="edge">
<title>Node3&#45;&gt;Node9</title>
<path fill="none" stroke="midnightblue" d="M326.89,-298.5C350.7,-288.38 383.61,-274.39 404.47,-265.52"/>
<polygon fill="midnightblue" stroke="midnightblue" points="325.46,-295.31 317.62,-302.44 328.2,-301.75 325.46,-295.31"/>
</g>
<!-- Node6 -->
<g id="node6" class="node">
<title>Node6</title>
<g id="a_node6"><a xlink:href="life__history_8cpp.html" target="_top" xlink:title=" ">
<polygon fill="none" stroke="black" points="68,-129 68,-148 175,-148 175,-129 68,-129"/>
<text text-anchor="middle" x="121.5" y="-136" font-family="Helvetica,sans-Serif" font-size="10.00">src/life_history.cpp</text>
</a>
</g>
</g>
<!-- Node5&#45;&gt;Node6 -->
<g id="edge5" class="edge">
<title>Node5&#45;&gt;Node6</title>
<path fill="none" stroke="midnightblue" d="M236.36,-186.63C208.19,-175.07 166.88,-158.12 142.24,-148.01"/>
<polygon fill="midnightblue" stroke="midnightblue" points="235.14,-189.92 245.73,-190.48 237.8,-183.44 235.14,-189.92"/>
</g>
<!-- Node7 -->
<g id="node7" class="node">
<title>Node7</title>
<g id="a_node7"><a xlink:href="r__interface_8cpp.html" target="_top" xlink:title=" ">
<polygon fill="none" stroke="black" points="285,-0.5 285,-19.5 392,-19.5 392,-0.5 285,-0.5"/>
<text text-anchor="middle" x="338.5" y="-7.5" font-family="Helvetica,sans-Serif" font-size="10.00">src/r_interface.cpp</text>
</a>
</g>
</g>
<!-- Node5&#45;&gt;Node7 -->
<g id="edge6" class="edge">
<title>Node5&#45;&gt;Node7</title>
<path fill="none" stroke="midnightblue" d="M273.39,-181.01C288.52,-141.5 324.18,-48.38 335.2,-19.62"/>
<polygon fill="midnightblue" stroke="midnightblue" points="270.09,-179.84 269.78,-190.43 276.63,-182.35 270.09,-179.84"/>
</g>
<!-- Node8 -->
<g id="node8" class="node">
<title>Node8</title>
<g id="a_node8"><a xlink:href="lho_8cpp.html" target="_top" xlink:title=" ">
<polygon fill="none" stroke="black" points="193,-129 193,-148 272,-148 272,-129 193,-129"/>
<text text-anchor="middle" x="232.5" y="-136" font-family="Helvetica,sans-Serif" font-size="10.00">tests/lho.cpp</text>
</a>
</g>
</g>
<!-- Node5&#45;&gt;Node8 -->
<g id="edge7" class="edge">
<title>Node5&#45;&gt;Node8</title>
<path fill="none" stroke="midnightblue" d="M256.6,-181.67C250.28,-170.61 242.36,-156.75 237.36,-148.01"/>
<polygon fill="midnightblue" stroke="midnightblue" points="253.63,-183.53 261.63,-190.48 259.71,-180.06 253.63,-183.53"/>
</g>
<!-- Node9&#45;&gt;Node5 -->
<g id="edge10" class="edge">
<title>Node9&#45;&gt;Node5</title>
<path fill="none" stroke="midnightblue" d="M389.89,-243.17C360.14,-233 317.95,-218.59 291.42,-209.52"/>
<polygon fill="midnightblue" stroke="midnightblue" points="388.87,-246.52 399.46,-246.44 391.13,-239.9 388.87,-246.52"/>
</g>
<!-- Node10 -->
<g id="node10" class="node">
<title>Node10</title>
<g id="a_node10"><a xlink:href="plant_8cpp.html" target="_top" xlink:title=" ">
<polygon fill="none" stroke="black" points="385,-190.5 385,-209.5 464,-209.5 464,-190.5 385,-190.5"/>
<text text-anchor="middle" x="424.5" y="-197.5" font-family="Helvetica,sans-Serif" font-size="10.00">src/plant.cpp</text>
</a>
</g>
</g>
<!-- Node9&#45;&gt;Node10 -->
<g id="edge9" class="edge">
<title>Node9&#45;&gt;Node10</title>
<path fill="none" stroke="midnightblue" d="M424.5,-235.8C424.5,-226.91 424.5,-216.78 424.5,-209.75"/>
<polygon fill="midnightblue" stroke="midnightblue" points="421,-236.08 424.5,-246.08 428,-236.08 421,-236.08"/>
</g>
<!-- Node11 -->
<g id="node11" class="node">
<title>Node11</title>
<g id="a_node11"><a xlink:href="pspm__interface_8h.html" target="_top" xlink:title=" ">
<polygon fill="none" stroke="black" points="513,-190.5 513,-209.5 674,-209.5 674,-190.5 513,-190.5"/>
<text text-anchor="middle" x="593.5" y="-197.5" font-family="Helvetica,sans-Serif" font-size="10.00">inst/include/pspm_interface.h</text>
</a>
</g>
</g>
<!-- Node9&#45;&gt;Node11 -->
<g id="edge11" class="edge">
<title>Node9&#45;&gt;Node11</title>
<path fill="none" stroke="midnightblue" d="M461.1,-243.3C492.95,-233.13 538.34,-218.62 566.85,-209.52"/>
<polygon fill="midnightblue" stroke="midnightblue" points="459.74,-240.07 451.28,-246.44 461.87,-246.73 459.74,-240.07"/>
</g>
<!-- Node11&#45;&gt;Node7 -->
<g id="edge14" class="edge">
<title>Node11&#45;&gt;Node7</title>
<path fill="none" stroke="midnightblue" d="M502.45,-192.52C444.73,-186.43 377.33,-174.98 357.5,-154 321.54,-115.96 331.63,-44.72 336.55,-19.84"/>
<polygon fill="midnightblue" stroke="midnightblue" points="502.43,-196.04 512.73,-193.56 503.13,-189.07 502.43,-196.04"/>
</g>
<!-- Node12 -->
<g id="node12" class="node">
<title>Node12</title>
<g id="a_node12"><a xlink:href="light__environment_8cpp.html" target="_top" xlink:title=" ">
<polygon fill="none" stroke="black" points="367,-129 367,-148 510,-148 510,-129 367,-129"/>
<text text-anchor="middle" x="438.5" y="-136" font-family="Helvetica,sans-Serif" font-size="10.00">src/light_environment.cpp</text>
</a>
</g>
</g>
<!-- Node11&#45;&gt;Node12 -->
<g id="edge12" class="edge">
<title>Node11&#45;&gt;Node12</title>
<path fill="none" stroke="midnightblue" d="M561.67,-186.78C531.55,-175.22 487.12,-158.16 460.67,-148.01"/>
<polygon fill="midnightblue" stroke="midnightblue" points="560.7,-190.16 571.29,-190.48 563.21,-183.62 560.7,-190.16"/>
</g>
<!-- Node13 -->
<g id="node13" class="node">
<title>Node13</title>
<g id="a_node13"><a xlink:href="pspm__interface_8cpp.html" target="_top" xlink:title=" ">
<polygon fill="none" stroke="black" points="528.5,-129 528.5,-148 658.5,-148 658.5,-129 528.5,-129"/>
<text text-anchor="middle" x="593.5" y="-136" font-family="Helvetica,sans-Serif" font-size="10.00">src/pspm_interface.cpp</text>
</a>
</g>
</g>
<!-- Node11&#45;&gt;Node13 -->
<g id="edge13" class="edge">
<title>Node11&#45;&gt;Node13</title>
<path fill="none" stroke="midnightblue" d="M593.5,-180.32C593.5,-169.5 593.5,-156.4 593.5,-148.01"/>
<polygon fill="midnightblue" stroke="midnightblue" points="590,-180.48 593.5,-190.48 597,-180.48 590,-180.48"/>
</g>
<!-- Node14 -->
<g id="node14" class="node">
<title>Node14</title>
<g id="a_node14"><a xlink:href="community__properties_8h.html" target="_top" xlink:title=" ">
<polygon fill="none" stroke="black" points="677,-123.5 677,-153.5 808,-153.5 808,-123.5 677,-123.5"/>
<text text-anchor="start" x="685" y="-141.5" font-family="Helvetica,sans-Serif" font-size="10.00">inst/include/community</text>
<text text-anchor="middle" x="742.5" y="-130.5" font-family="Helvetica,sans-Serif" font-size="10.00">_properties.h</text>
</a>
</g>
</g>
<!-- Node11&#45;&gt;Node14 -->
<g id="edge15" class="edge">
<title>Node11&#45;&gt;Node14</title>
<path fill="none" stroke="midnightblue" d="M624.25,-186.72C648.44,-177.06 682.14,-163.6 707.38,-153.52"/>
<polygon fill="midnightblue" stroke="midnightblue" points="622.84,-183.52 614.85,-190.48 625.43,-190.02 622.84,-183.52"/>
</g>
<!-- Node16 -->
<g id="node16" class="node">
<title>Node16</title>
<g id="a_node16"><a xlink:href="plantfate__patch_8h.html" target="_top" xlink:title=" ">
<polygon fill="none" stroke="black" points="757.5,-56.5 757.5,-86.5 877.5,-86.5 877.5,-56.5 757.5,-56.5"/>
<text text-anchor="start" x="765.5" y="-74.5" font-family="Helvetica,sans-Serif" font-size="10.00">inst/include/plantfate</text>
<text text-anchor="middle" x="817.5" y="-63.5" font-family="Helvetica,sans-Serif" font-size="10.00">_patch.h</text>
</a>
</g>
</g>
<!-- Node11&#45;&gt;Node16 -->
<g id="edge22" class="edge">
<title>Node11&#45;&gt;Node16</title>
<path fill="none" stroke="midnightblue" d="M684.27,-192.3C738.66,-186.19 800.46,-174.8 817.5,-154 833.01,-135.06 827.56,-104.5 822.39,-86.67"/>
<polygon fill="midnightblue" stroke="midnightblue" points="683.79,-188.83 674.22,-193.38 684.53,-195.79 683.79,-188.83"/>
</g>
<!-- Node19 -->
<g id="node19" class="node">
<title>Node19</title>
<g id="a_node19"><a xlink:href="state__restore_8h.html" target="_top" xlink:title=" ">
<polygon fill="none" stroke="black" points="865,-123.5 865,-153.5 966,-153.5 966,-123.5 865,-123.5"/>
<text text-anchor="start" x="873" y="-141.5" font-family="Helvetica,sans-Serif" font-size="10.00">inst/include/state</text>
<text text-anchor="middle" x="915.5" y="-130.5" font-family="Helvetica,sans-Serif" font-size="10.00">_restore.h</text>
</a>
</g>
</g>
<!-- Node11&#45;&gt;Node19 -->
<g id="edge23" class="edge">
<title>Node11&#45;&gt;Node19</title>
<path fill="none" stroke="midnightblue" d="M656.4,-188.82C708.52,-180.18 784.49,-167.14 850.5,-154 855.15,-153.07 859.98,-152.07 864.81,-151.05"/>
<polygon fill="midnightblue" stroke="midnightblue" points="655.59,-185.4 646.3,-190.49 656.74,-192.31 655.59,-185.4"/>
</g>
<!-- Node15 -->
<g id="node15" class="node">
<title>Node15</title>
<g id="a_node15"><a xlink:href="community__properties_8cpp.html" target="_top" xlink:title=" ">
<polygon fill="none" stroke="black" points="569.5,-0.5 569.5,-19.5 733.5,-19.5 733.5,-0.5 569.5,-0.5"/>
<text text-anchor="middle" x="651.5" y="-7.5" font-family="Helvetica,sans-Serif" font-size="10.00">src/community_properties.cpp</text>
</a>
</g>
</g>
<!-- Node14&#45;&gt;Node15 -->
<g id="edge16" class="edge">
<title>Node14&#45;&gt;Node15</title>
<path fill="none" stroke="midnightblue" d="M726.32,-115C705.92,-86.65 671.84,-39.28 657.82,-19.79"/>
<polygon fill="midnightblue" stroke="midnightblue" points="723.73,-117.41 732.41,-123.48 729.42,-113.32 723.73,-117.41"/>
</g>
<!-- Node14&#45;&gt;Node16 -->
<g id="edge17" class="edge">
<title>Node14&#45;&gt;Node16</title>
<path fill="none" stroke="midnightblue" d="M766.62,-116.6C777.94,-106.78 791.14,-95.34 801.26,-86.58"/>
<polygon fill="midnightblue" stroke="midnightblue" points="764.04,-114.2 758.77,-123.4 768.62,-119.49 764.04,-114.2"/>
</g>
<!-- Node16&#45;&gt;Node7 -->
<g id="edge20" class="edge">
<title>Node16&#45;&gt;Node7</title>
<path fill="none" stroke="midnightblue" d="M747.36,-61.79C650.84,-49.8 479.14,-28.47 392.17,-17.67"/>
<polygon fill="midnightblue" stroke="midnightblue" points="746.96,-65.27 757.32,-63.02 747.83,-58.32 746.96,-65.27"/>
</g>
<!-- Node16&#45;&gt;Node15 -->
<g id="edge18" class="edge">
<title>Node16&#45;&gt;Node15</title>
<path fill="none" stroke="midnightblue" d="M768.52,-52.94C737.93,-41.98 699.9,-28.35 675.65,-19.66"/>
<polygon fill="midnightblue" stroke="midnightblue" points="767.57,-56.32 778.16,-56.4 769.93,-49.73 767.57,-56.32"/>
</g>
<!-- Node17 -->
<g id="node17" class="node">
<title>Node17</title>
<g id="a_node17"><a xlink:href="plantfate__patch_8cpp.html" target="_top" xlink:title=" ">
<polygon fill="none" stroke="black" points="752,-0.5 752,-19.5 883,-19.5 883,-0.5 752,-0.5"/>
<text text-anchor="middle" x="817.5" y="-7.5" font-family="Helvetica,sans-Serif" font-size="10.00">src/plantfate_patch.cpp</text>
</a>
</g>
</g>
<!-- Node16&#45;&gt;Node17 -->
<g id="edge19" class="edge">
<title>Node16&#45;&gt;Node17</title>
<path fill="none" stroke="midnightblue" d="M817.5,-46.29C817.5,-36.86 817.5,-26.65 817.5,-19.66"/>
<polygon fill="midnightblue" stroke="midnightblue" points="814,-46.4 817.5,-56.4 821,-46.4 814,-46.4"/>
</g>
<!-- Node18 -->
<g id="node18" class="node">
<title>Node18</title>
<g id="a_node18"><a xlink:href="state__restore_8cpp.html" target="_top" xlink:title=" ">
<polygon fill="none" stroke="black" points="901,-0.5 901,-19.5 1020,-19.5 1020,-0.5 901,-0.5"/>
<text text-anchor="middle" x="960.5" y="-7.5" font-family="Helvetica,sans-Serif" font-size="10.00">src/state_restore.cpp</text>
</a>
</g>
</g>
<!-- Node16&#45;&gt;Node18 -->
<g id="edge21" class="edge">
<title>Node16&#45;&gt;Node18</title>
<path fill="none" stroke="midnightblue" d="M860.72,-52.52C886.89,-41.63 919.08,-28.23 939.69,-19.66"/>
<polygon fill="midnightblue" stroke="midnightblue" points="859.28,-49.33 851.39,-56.4 861.97,-55.79 859.28,-49.33"/>
</g>
<!-- Node19&#45;&gt;Node16 -->
<g id="edge25" class="edge">
<title>Node19&#45;&gt;Node16</title>
<path fill="none" stroke="midnightblue" d="M885.7,-117.73C870.53,-107.68 852.46,-95.68 838.72,-86.58"/>
<polygon fill="midnightblue" stroke="midnightblue" points="883.97,-120.79 894.24,-123.4 887.84,-114.95 883.97,-120.79"/>
</g>
<!-- Node19&#45;&gt;Node18 -->
<g id="edge24" class="edge">
<title>Node19&#45;&gt;Node18</title>
<path fill="none" stroke="midnightblue" d="M923.9,-113.89C934.02,-85.43 950.53,-39.03 957.37,-19.79"/>
<polygon fill="midnightblue" stroke="midnightblue" points="920.54,-112.88 920.49,-123.48 927.14,-115.23 920.54,-112.88"/>
</g>
</g>
</svg>
