<?xml version="1.0" encoding="UTF-8" standalone="no"?>
<!DOCTYPE svg PUBLIC "-//W3C//DTD SVG 1.1//EN"
 "http://www.w3.org/Graphics/SVG/1.1/DTD/svg11.dtd">
<!-- Generated by graphviz version 2.43.0 (0)
 -->
<!-- Title: inst/include/plant.h Pages: 1 -->
<svg width="769pt" height="308pt"
 viewBox="0.00 0.00 769.00 308.00" xmlns="http://www.w3.org/2000/svg" xmlns:xlink="http://www.w3.org/1999/xlink">
<g id="graph0" class="graph" transform="scale(1 1) rotate(0) translate(4 304)">
<title>inst/include/plant.h</title>
<!-- Node1 -->
<g id="node1" class="node">
<title>Node1</title>
<g id="a_node1"><a xlink:title=" ">
<polygon fill="#bfbfbf" stroke="black" points="309.5,-280.5 309.5,-299.5 419.5,-299.5 419.5,-280.5 309.5,-280.5"/>
<text text-anchor="middle" x="364.5" y="-287.5" font-family="Helvetica,sans-Serif" font-size="10.00">inst/include/plant.h</text>
</a>
</g>
</g>
<!-- Node2 -->
<g id="node2" class="node">
<title>Node2</title>
<g id="a_node2"><a xlink:title=" ">
<polygon fill="none" stroke="#bfbfbf" points="0,-0.5 0,-19.5 55,-19.5 55,-0.5 0,-0.5"/>
<text text-anchor="middle" x="27.5" y="-7.5" font-family="Helvetica,sans-Serif" font-size="10.00">fstream</text>
</a>
</g>
</g>
<!-- Node1&#45;&gt;Node2 -->
<g id="edge1" class="edge">
<title>Node1&#45;&gt;Node2</title>
<path fill="none" stroke="midnightblue" d="M309.39,-284.3C245.98,-275.52 150.5,-250.43 150.5,-179 150.5,-179 150.5,-179 150.5,-121 150.5,-72.48 96.66,-40.01 60.23,-23.6"/>
<polygon fill="midnightblue" stroke="midnightblue" points="61.49,-20.33 50.92,-19.58 58.72,-26.76 61.49,-20.33"/>
</g>
<!-- Node3 -->
<g id="node3" class="node">
<title>Node3</title>
<g id="a_node3"><a xlink:href="traits__params_8h.html" target="_top" xlink:title=" ">
<polygon fill="none" stroke="black" points="301,-112.5 301,-131.5 394,-131.5 394,-112.5 301,-112.5"/>
<text text-anchor="middle" x="347.5" y="-119.5" font-family="Helvetica,sans-Serif" font-size="10.00">traits_params.h</text>
</a>
</g>
</g>
<!-- Node1&#45;&gt;Node3 -->
<g id="edge2" class="edge">
<title>Node1&#45;&gt;Node3</title>
<path fill="none" stroke="midnightblue" d="M347.55,-280.34C320.8,-265.59 269.77,-232.78 249.5,-188 237.57,-161.65 268.86,-144.56 299.18,-134.55"/>
<polygon fill="midnightblue" stroke="midnightblue" points="300.41,-137.83 308.94,-131.54 298.35,-131.14 300.41,-137.83"/>
</g>
<!-- Node4 -->
<g id="node4" class="node">
<title>Node4</title>
<g id="a_node4"><a xlink:href="initializer__v2_8h.html" target="_top" xlink:title=" ">
<polygon fill="none" stroke="black" points="189,-56.5 189,-75.5 302,-75.5 302,-56.5 189,-56.5"/>
<text text-anchor="middle" x="245.5" y="-63.5" font-family="Helvetica,sans-Serif" font-size="10.00">utils/initializer_v2.h</text>
</a>
</g>
</g>
<!-- Node1&#45;&gt;Node4 -->
<g id="edge32" class="edge">
<title>Node1&#45;&gt;Node4</title>
<path fill="none" stroke="midnightblue" d="M333.94,-280.44C313.58,-273.44 287.37,-261.75 269.5,-244 226.81,-201.61 235.04,-121.82 241.53,-85.66"/>
<polygon fill="midnightblue" stroke="midnightblue" points="245.02,-86.04 243.51,-75.55 238.15,-84.69 245.02,-86.04"/>
</g>
<!-- Node15 -->
<g id="node15" class="node">
<title>Node15</title>
<g id="a_node15"><a xlink:href="plant__architecture_8h.html" target="_top" xlink:title=" ">
<polygon fill="none" stroke="black" points="258.5,-168.5 258.5,-187.5 372.5,-187.5 372.5,-168.5 258.5,-168.5"/>
<text text-anchor="middle" x="315.5" y="-175.5" font-family="Helvetica,sans-Serif" font-size="10.00">plant_architecture.h</text>
</a>
</g>
</g>
<!-- Node1&#45;&gt;Node15 -->
<g id="edge16" class="edge">
<title>Node1&#45;&gt;Node15</title>
<path fill="none" stroke="midnightblue" d="M360.66,-280.37C352.68,-262.46 334.17,-220.92 323.5,-196.95"/>
<polygon fill="midnightblue" stroke="midnightblue" points="326.59,-195.3 319.33,-187.59 320.2,-198.15 326.59,-195.3"/>
</g>
<!-- Node16 -->
<g id="node16" class="node">
<title>Node16</title>
<g id="a_node16"><a xlink:href="assimilation_8h.html" target="_top" xlink:title=" ">
<polygon fill="none" stroke="black" points="357.5,-224.5 357.5,-243.5 443.5,-243.5 443.5,-224.5 357.5,-224.5"/>
<text text-anchor="middle" x="400.5" y="-231.5" font-family="Helvetica,sans-Serif" font-size="10.00">assimilation.h</text>
</a>
</g>
</g>
<!-- Node1&#45;&gt;Node16 -->
<g id="edge19" class="edge">
<title>Node1&#45;&gt;Node16</title>
<path fill="none" stroke="midnightblue" d="M370.44,-280.08C375.48,-272.53 382.84,-261.49 389.01,-252.23"/>
<polygon fill="midnightblue" stroke="midnightblue" points="392.03,-254.01 394.67,-243.75 386.21,-250.13 392.03,-254.01"/>
</g>
<!-- Node19 -->
<g id="node19" class="node">
<title>Node19</title>
<g id="a_node19"><a xlink:href="rk4_8h.html" target="_top" xlink:title=" ">
<polygon fill="none" stroke="black" points="696,-224.5 696,-243.5 761,-243.5 761,-224.5 696,-224.5"/>
<text text-anchor="middle" x="728.5" y="-231.5" font-family="Helvetica,sans-Serif" font-size="10.00">utils/rk4.h</text>
</a>
</g>
</g>
<!-- Node1&#45;&gt;Node19 -->
<g id="edge24" class="edge">
<title>Node1&#45;&gt;Node19</title>
<path fill="none" stroke="midnightblue" d="M419.6,-282C482.93,-273.76 589.93,-259.26 681.5,-244 682.96,-243.76 684.44,-243.5 685.94,-243.24"/>
<polygon fill="midnightblue" stroke="midnightblue" points="686.7,-246.66 695.92,-241.45 685.46,-239.77 686.7,-246.66"/>
</g>
<!-- Node20 -->
<g id="node20" class="node">
<title>Node20</title>
<g id="a_node20"><a xlink:href="moving__average_8h.html" target="_top" xlink:title=" ">
<polygon fill="none" stroke="black" points="591,-112.5 591,-131.5 722,-131.5 722,-112.5 591,-112.5"/>
<text text-anchor="middle" x="656.5" y="-119.5" font-family="Helvetica,sans-Serif" font-size="10.00">utils/moving_average.h</text>
</a>
</g>
</g>
<!-- Node1&#45;&gt;Node20 -->
<g id="edge25" class="edge">
<title>Node1&#45;&gt;Node20</title>
<path fill="none" stroke="midnightblue" d="M419.54,-286.41C463.94,-282.24 526.65,-271.5 574.5,-244 614.71,-220.89 639.3,-169.12 650.08,-141.38"/>
<polygon fill="midnightblue" stroke="midnightblue" points="653.46,-142.32 653.64,-131.73 646.89,-139.89 653.46,-142.32"/>
</g>
<!-- Node23 -->
<g id="node23" class="node">
<title>Node23</title>
<g id="a_node23"><a xlink:href="plant_8tpp.html" target="_top" xlink:title=" ">
<polygon fill="none" stroke="black" points="507.5,-112.5 507.5,-131.5 567.5,-131.5 567.5,-112.5 507.5,-112.5"/>
<text text-anchor="middle" x="537.5" y="-119.5" font-family="Helvetica,sans-Serif" font-size="10.00">plant.tpp</text>
</a>
</g>
</g>
<!-- Node1&#45;&gt;Node23 -->
<g id="edge33" class="edge">
<title>Node1&#45;&gt;Node23</title>
<path fill="none" stroke="midnightblue" d="M419.57,-283.77C478.15,-274.94 568.08,-251.27 610.5,-188 624.98,-166.41 595.99,-147.38 570.37,-135.58"/>
<polygon fill="midnightblue" stroke="midnightblue" points="571.74,-132.36 561.17,-131.57 568.94,-138.78 571.74,-132.36"/>
</g>
<!-- Node3&#45;&gt;Node4 -->
<g id="edge3" class="edge">
<title>Node3&#45;&gt;Node4</title>
<path fill="none" stroke="midnightblue" d="M331.11,-112.32C314.83,-103.7 289.63,-90.36 270.78,-80.39"/>
<polygon fill="midnightblue" stroke="midnightblue" points="272.32,-77.24 261.85,-75.65 269.05,-83.43 272.32,-77.24"/>
</g>
<!-- Node7 -->
<g id="node7" class="node">
<title>Node7</title>
<g id="a_node7"><a xlink:title=" ">
<polygon fill="none" stroke="#bfbfbf" points="403.5,-0.5 403.5,-19.5 447.5,-19.5 447.5,-0.5 403.5,-0.5"/>
<text text-anchor="middle" x="425.5" y="-7.5" font-family="Helvetica,sans-Serif" font-size="10.00">string</text>
</a>
</g>
</g>
<!-- Node3&#45;&gt;Node7 -->
<g id="edge14" class="edge">
<title>Node3&#45;&gt;Node7</title>
<path fill="none" stroke="midnightblue" d="M345.47,-112.27C342.89,-99.06 339.96,-73.65 350.5,-56 360.1,-39.91 377.87,-28.88 393.71,-21.76"/>
<polygon fill="midnightblue" stroke="midnightblue" points="395.32,-24.89 403.22,-17.83 392.65,-18.42 395.32,-24.89"/>
</g>
<!-- Node12 -->
<g id="node12" class="node">
<title>Node12</title>
<g id="a_node12"><a xlink:title=" ">
<polygon fill="none" stroke="#bfbfbf" points="359,-56.5 359,-75.5 420,-75.5 420,-56.5 359,-56.5"/>
<text text-anchor="middle" x="389.5" y="-63.5" font-family="Helvetica,sans-Serif" font-size="10.00">io_utils.h</text>
</a>
</g>
</g>
<!-- Node3&#45;&gt;Node12 -->
<g id="edge12" class="edge">
<title>Node3&#45;&gt;Node12</title>
<path fill="none" stroke="midnightblue" d="M354.44,-112.08C360.43,-104.38 369.25,-93.03 376.55,-83.65"/>
<polygon fill="midnightblue" stroke="midnightblue" points="379.32,-85.79 382.69,-75.75 373.79,-81.5 379.32,-85.79"/>
</g>
<!-- Node13 -->
<g id="node13" class="node">
<title>Node13</title>
<g id="a_node13"><a xlink:title=" ">
<polygon fill="none" stroke="#bfbfbf" points="509,-56.5 509,-75.5 556,-75.5 556,-56.5 509,-56.5"/>
<text text-anchor="middle" x="532.5" y="-63.5" font-family="Helvetica,sans-Serif" font-size="10.00">cmath</text>
</a>
</g>
</g>
<!-- Node3&#45;&gt;Node13 -->
<g id="edge13" class="edge">
<title>Node3&#45;&gt;Node13</title>
<path fill="none" stroke="midnightblue" d="M376.81,-112.44C410.1,-102.73 464.31,-86.9 499.18,-76.73"/>
<polygon fill="midnightblue" stroke="midnightblue" points="500.28,-80.05 508.9,-73.89 498.32,-73.33 500.28,-80.05"/>
</g>
<!-- Node14 -->
<g id="node14" class="node">
<title>Node14</title>
<g id="a_node14"><a xlink:title=" ">
<polygon fill="none" stroke="#bfbfbf" points="438.5,-56.5 438.5,-75.5 490.5,-75.5 490.5,-56.5 438.5,-56.5"/>
<text text-anchor="middle" x="464.5" y="-63.5" font-family="Helvetica,sans-Serif" font-size="10.00">cassert</text>
</a>
</g>
</g>
<!-- Node3&#45;&gt;Node14 -->
<g id="edge15" class="edge">
<title>Node3&#45;&gt;Node14</title>
<path fill="none" stroke="midnightblue" d="M366.04,-112.44C385.12,-103.64 415.07,-89.81 436.94,-79.72"/>
<polygon fill="midnightblue" stroke="midnightblue" points="438.43,-82.88 446.05,-75.52 435.5,-76.53 438.43,-82.88"/>
</g>
<!-- Node4&#45;&gt;Node2 -->
<g id="edge7" class="edge">
<title>Node4&#45;&gt;Node2</title>
<path fill="none" stroke="midnightblue" d="M210.94,-56.48C176.33,-47.95 121.27,-34.35 64.82,-20.32"/>
<polygon fill="midnightblue" stroke="midnightblue" points="65.56,-16.9 55.02,-17.89 63.88,-23.7 65.56,-16.9"/>
</g>
<!-- Node5 -->
<g id="node5" class="node">
<title>Node5</title>
<g id="a_node5"><a xlink:title=" ">
<polygon fill="none" stroke="#bfbfbf" points="537.5,-0.5 537.5,-19.5 597.5,-19.5 597.5,-0.5 537.5,-0.5"/>
<text text-anchor="middle" x="567.5" y="-7.5" font-family="Helvetica,sans-Serif" font-size="10.00">iostream</text>
</a>
</g>
</g>
<!-- Node4&#45;&gt;Node5 -->
<g id="edge4" class="edge">
<title>Node4&#45;&gt;Node5</title>
<path fill="none" stroke="midnightblue" d="M296.52,-56.44C360.59,-45.7 469.18,-27.49 527.55,-17.7"/>
<polygon fill="midnightblue" stroke="midnightblue" points="528.21,-21.14 537.5,-16.03 527.06,-14.23 528.21,-21.14"/>
</g>
<!-- Node6 -->
<g id="node6" class="node">
<title>Node6</title>
<g id="a_node6"><a xlink:title=" ">
<polygon fill="none" stroke="#bfbfbf" points="267.5,-0.5 267.5,-19.5 311.5,-19.5 311.5,-0.5 267.5,-0.5"/>
<text text-anchor="middle" x="289.5" y="-7.5" font-family="Helvetica,sans-Serif" font-size="10.00">regex</text>
</a>
</g>
</g>
<!-- Node4&#45;&gt;Node6 -->
<g id="edge5" class="edge">
<title>Node4&#45;&gt;Node6</title>
<path fill="none" stroke="midnightblue" d="M252.77,-56.08C259.04,-48.38 268.29,-37.03 275.93,-27.65"/>
<polygon fill="midnightblue" stroke="midnightblue" points="278.77,-29.71 282.37,-19.75 273.34,-25.29 278.77,-29.71"/>
</g>
<!-- Node4&#45;&gt;Node7 -->
<g id="edge6" class="edge">
<title>Node4&#45;&gt;Node7</title>
<path fill="none" stroke="midnightblue" d="M274.02,-56.44C306.54,-46.69 359.58,-30.78 393.49,-20.6"/>
<polygon fill="midnightblue" stroke="midnightblue" points="394.78,-23.87 403.35,-17.64 392.77,-17.17 394.78,-23.87"/>
</g>
<!-- Node8 -->
<g id="node8" class="node">
<title>Node8</title>
<g id="a_node8"><a xlink:title=" ">
<polygon fill="none" stroke="#bfbfbf" points="652,-0.5 652,-19.5 699,-19.5 699,-0.5 652,-0.5"/>
<text text-anchor="middle" x="675.5" y="-7.5" font-family="Helvetica,sans-Serif" font-size="10.00">vector</text>
</a>
</g>
</g>
<!-- Node4&#45;&gt;Node8 -->
<g id="edge8" class="edge">
<title>Node4&#45;&gt;Node8</title>
<path fill="none" stroke="midnightblue" d="M302.1,-58.05C373.19,-49.29 498.9,-33.72 606.5,-20 617.94,-18.54 630.45,-16.92 641.63,-15.46"/>
<polygon fill="midnightblue" stroke="midnightblue" points="642.41,-18.88 651.87,-14.12 641.5,-11.94 642.41,-18.88"/>
</g>
<!-- Node9 -->
<g id="node9" class="node">
<title>Node9</title>
<g id="a_node9"><a xlink:title=" ">
<polygon fill="none" stroke="#bfbfbf" points="329.5,-0.5 329.5,-19.5 385.5,-19.5 385.5,-0.5 329.5,-0.5"/>
<text text-anchor="middle" x="357.5" y="-7.5" font-family="Helvetica,sans-Serif" font-size="10.00">sstream</text>
</a>
</g>
</g>
<!-- Node4&#45;&gt;Node9 -->
<g id="edge9" class="edge">
<title>Node4&#45;&gt;Node9</title>
<path fill="none" stroke="midnightblue" d="M263.49,-56.32C281.54,-47.62 309.55,-34.12 330.3,-24.11"/>
<polygon fill="midnightblue" stroke="midnightblue" points="332.06,-27.15 339.55,-19.65 329.02,-20.84 332.06,-27.15"/>
</g>
<!-- Node10 -->
<g id="node10" class="node">
<title>Node10</title>
<g id="a_node10"><a xlink:title=" ">
<polygon fill="none" stroke="#bfbfbf" points="73,-0.5 73,-19.5 138,-19.5 138,-0.5 73,-0.5"/>
<text text-anchor="middle" x="105.5" y="-7.5" font-family="Helvetica,sans-Serif" font-size="10.00">stdexcept</text>
</a>
</g>
</g>
<!-- Node4&#45;&gt;Node10 -->
<g id="edge10" class="edge">
<title>Node4&#45;&gt;Node10</title>
<path fill="none" stroke="midnightblue" d="M223.32,-56.44C200.07,-47.48 163.35,-33.31 137.08,-23.18"/>
<polygon fill="midnightblue" stroke="midnightblue" points="138.17,-19.85 127.58,-19.52 135.65,-26.38 138.17,-19.85"/>
</g>
<!-- Node11 -->
<g id="node11" class="node">
<title>Node11</title>
<g id="a_node11"><a xlink:title=" ">
<polygon fill="none" stroke="#bfbfbf" points="156,-0.5 156,-19.5 249,-19.5 249,-0.5 156,-0.5"/>
<text text-anchor="middle" x="202.5" y="-7.5" font-family="Helvetica,sans-Serif" font-size="10.00">unordered_map</text>
</a>
</g>
</g>
<!-- Node4&#45;&gt;Node11 -->
<g id="edge11" class="edge">
<title>Node4&#45;&gt;Node11</title>
<path fill="none" stroke="midnightblue" d="M238.4,-56.08C232.26,-48.38 223.23,-37.03 215.76,-27.65"/>
<polygon fill="midnightblue" stroke="midnightblue" points="218.44,-25.39 209.47,-19.75 212.96,-29.75 218.44,-25.39"/>
</g>
<!-- Node15&#45;&gt;Node3 -->
<g id="edge18" class="edge">
<title>Node15&#45;&gt;Node3</title>
<path fill="none" stroke="midnightblue" d="M320.78,-168.08C325.21,-160.61 331.66,-149.72 337.12,-140.52"/>
<polygon fill="midnightblue" stroke="midnightblue" points="340.23,-142.14 342.31,-131.75 334.21,-138.57 340.23,-142.14"/>
</g>
<!-- Node15&#45;&gt;Node13 -->
<g id="edge17" class="edge">
<title>Node15&#45;&gt;Node13</title>
<path fill="none" stroke="midnightblue" d="M332.53,-168.37C370.32,-149.21 461.41,-103.04 506.43,-80.22"/>
<polygon fill="midnightblue" stroke="midnightblue" points="508.21,-83.23 515.55,-75.59 505.05,-76.99 508.21,-83.23"/>
</g>
<!-- Node16&#45;&gt;Node3 -->
<g id="edge21" class="edge">
<title>Node16&#45;&gt;Node3</title>
<path fill="none" stroke="midnightblue" d="M398.98,-224.21C396.54,-211.36 391,-186.91 381.5,-168 376.34,-157.74 368.78,-147.44 362.09,-139.28"/>
<polygon fill="midnightblue" stroke="midnightblue" points="364.73,-136.99 355.58,-131.66 359.41,-141.54 364.73,-136.99"/>
</g>
<!-- Node16&#45;&gt;Node15 -->
<g id="edge22" class="edge">
<title>Node16&#45;&gt;Node15</title>
<path fill="none" stroke="midnightblue" d="M386.84,-224.32C373.58,-215.9 353.23,-202.97 337.65,-193.07"/>
<polygon fill="midnightblue" stroke="midnightblue" points="339.44,-190.06 329.12,-187.65 335.69,-195.97 339.44,-190.06"/>
</g>
<!-- Node17 -->
<g id="node17" class="node">
<title>Node17</title>
<g id="a_node17"><a xlink:title=" ">
<polygon fill="none" stroke="#bfbfbf" points="429,-168.5 429,-187.5 488,-187.5 488,-168.5 429,-168.5"/>
<text text-anchor="middle" x="458.5" y="-175.5" font-family="Helvetica,sans-Serif" font-size="10.00">phydro.h</text>
</a>
</g>
</g>
<!-- Node16&#45;&gt;Node17 -->
<g id="edge20" class="edge">
<title>Node16&#45;&gt;Node17</title>
<path fill="none" stroke="midnightblue" d="M409.82,-224.32C418.39,-216.34 431.31,-204.31 441.69,-194.65"/>
<polygon fill="midnightblue" stroke="midnightblue" points="444.08,-197.21 449.01,-187.83 439.31,-192.09 444.08,-197.21"/>
</g>
<!-- Node18 -->
<g id="node18" class="node">
<title>Node18</title>
<g id="a_node18"><a xlink:href="assimilation_8tpp.html" target="_top" xlink:title=" ">
<polygon fill="none" stroke="black" points="506,-168.5 506,-187.5 601,-187.5 601,-168.5 506,-168.5"/>
<text text-anchor="middle" x="553.5" y="-175.5" font-family="Helvetica,sans-Serif" font-size="10.00">assimilation.tpp</text>
</a>
</g>
</g>
<!-- Node16&#45;&gt;Node18 -->
<g id="edge23" class="edge">
<title>Node16&#45;&gt;Node18</title>
<path fill="none" stroke="midnightblue" d="M424.74,-224.44C450.37,-215.4 490.99,-201.06 519.74,-190.92"/>
<polygon fill="midnightblue" stroke="midnightblue" points="521.11,-194.15 529.37,-187.52 518.78,-187.54 521.11,-194.15"/>
</g>
<!-- Node20&#45;&gt;Node5 -->
<g id="edge26" class="edge">
<title>Node20&#45;&gt;Node5</title>
<path fill="none" stroke="midnightblue" d="M668.88,-112.39C685.5,-99.75 711.43,-75.56 697.5,-56 677.3,-27.63 637.94,-16.98 607.8,-13.07"/>
<polygon fill="midnightblue" stroke="midnightblue" points="607.89,-9.56 597.56,-11.95 607.12,-16.51 607.89,-9.56"/>
</g>
<!-- Node20&#45;&gt;Node8 -->
<g id="edge30" class="edge">
<title>Node20&#45;&gt;Node8</title>
<path fill="none" stroke="midnightblue" d="M683.43,-112.36C700.22,-105.41 720.48,-93.82 730.5,-76 741.49,-56.45 720.13,-37.23 700.9,-24.83"/>
<polygon fill="midnightblue" stroke="midnightblue" points="702.71,-21.83 692.34,-19.63 699.07,-27.81 702.71,-21.83"/>
</g>
<!-- Node20&#45;&gt;Node13 -->
<g id="edge28" class="edge">
<title>Node20&#45;&gt;Node13</title>
<path fill="none" stroke="midnightblue" d="M636.85,-112.44C616.54,-103.6 584.6,-89.69 561.4,-79.59"/>
<polygon fill="midnightblue" stroke="midnightblue" points="562.62,-76.3 552.06,-75.52 559.83,-82.72 562.62,-76.3"/>
</g>
<!-- Node20&#45;&gt;Node14 -->
<g id="edge29" class="edge">
<title>Node20&#45;&gt;Node14</title>
<path fill="none" stroke="midnightblue" d="M626.08,-112.44C591.96,-102.85 536.67,-87.3 500.45,-77.11"/>
<polygon fill="midnightblue" stroke="midnightblue" points="501.34,-73.73 490.77,-74.39 499.45,-80.47 501.34,-73.73"/>
</g>
<!-- Node21 -->
<g id="node21" class="node">
<title>Node21</title>
<g id="a_node21"><a xlink:title=" ">
<polygon fill="none" stroke="#bfbfbf" points="574.5,-56.5 574.5,-75.5 606.5,-75.5 606.5,-56.5 574.5,-56.5"/>
<text text-anchor="middle" x="590.5" y="-63.5" font-family="Helvetica,sans-Serif" font-size="10.00">list</text>
</a>
</g>
</g>
<!-- Node20&#45;&gt;Node21 -->
<g id="edge27" class="edge">
<title>Node20&#45;&gt;Node21</title>
<path fill="none" stroke="midnightblue" d="M645.9,-112.32C636.04,-104.26 621.15,-92.08 609.28,-82.37"/>
<polygon fill="midnightblue" stroke="midnightblue" points="611.25,-79.46 601.3,-75.83 606.82,-84.88 611.25,-79.46"/>
</g>
<!-- Node22 -->
<g id="node22" class="node">
<title>Node22</title>
<g id="a_node22"><a xlink:title=" ">
<polygon fill="none" stroke="#bfbfbf" points="624.5,-56.5 624.5,-75.5 688.5,-75.5 688.5,-56.5 624.5,-56.5"/>
<text text-anchor="middle" x="656.5" y="-63.5" font-family="Helvetica,sans-Serif" font-size="10.00">algorithm</text>
</a>
</g>
</g>
<!-- Node20&#45;&gt;Node22 -->
<g id="edge31" class="edge">
<title>Node20&#45;&gt;Node22</title>
<path fill="none" stroke="midnightblue" d="M656.5,-112.08C656.5,-105.01 656.5,-94.86 656.5,-85.99"/>
<polygon fill="midnightblue" stroke="midnightblue" points="660,-85.75 656.5,-75.75 653,-85.75 660,-85.75"/>
</g>
<!-- Node23&#45;&gt;Node13 -->
<g id="edge34" class="edge">
<title>Node23&#45;&gt;Node13</title>
<path fill="none" stroke="midnightblue" d="M536.67,-112.08C536.02,-105.01 535.08,-94.86 534.26,-85.99"/>
<polygon fill="midnightblue" stroke="midnightblue" points="537.72,-85.39 533.31,-75.75 530.75,-86.03 537.72,-85.39"/>
</g>
</g>
</svg>
