<?xml version="1.0" encoding="UTF-8" standalone="no"?>
<!DOCTYPE svg PUBLIC "-//W3C//DTD SVG 1.1//EN"
 "http://www.w3.org/Graphics/SVG/1.1/DTD/svg11.dtd">
<!-- Generated by graphviz version 2.43.0 (0)
 -->
<!-- Title: inst/include/plant_architecture.h Pages: 1 -->
<svg width="600pt" height="207pt"
 viewBox="0.00 0.00 599.50 207.00" xmlns="http://www.w3.org/2000/svg" xmlns:xlink="http://www.w3.org/1999/xlink">
<g id="graph0" class="graph" transform="scale(1 1) rotate(0) translate(4 203)">
<title>inst/include/plant_architecture.h</title>
<!-- Node1 -->
<g id="node1" class="node">
<title>Node1</title>
<g id="a_node1"><a xlink:title=" ">
<polygon fill="#bfbfbf" stroke="black" points="110.5,-168.5 110.5,-198.5 211.5,-198.5 211.5,-168.5 110.5,-168.5"/>
<text text-anchor="start" x="118.5" y="-186.5" font-family="Helvetica,sans-Serif" font-size="10.00">inst/include/plant</text>
<text text-anchor="middle" x="161" y="-175.5" font-family="Helvetica,sans-Serif" font-size="10.00">_architecture.h</text>
</a>
</g>
</g>
<!-- Node2 -->
<g id="node2" class="node">
<title>Node2</title>
<g id="a_node2"><a xlink:title=" ">
<polygon fill="none" stroke="#bfbfbf" points="69.5,-56.5 69.5,-75.5 116.5,-75.5 116.5,-56.5 69.5,-56.5"/>
<text text-anchor="middle" x="93" y="-63.5" font-family="Helvetica,sans-Serif" font-size="10.00">cmath</text>
</a>
</g>
</g>
<!-- Node1&#45;&gt;Node2 -->
<g id="edge1" class="edge">
<title>Node1&#45;&gt;Node2</title>
<path fill="none" stroke="midnightblue" d="M152.66,-168.34C140.19,-147.15 116.69,-107.24 103.21,-84.34"/>
<polygon fill="midnightblue" stroke="midnightblue" points="106.19,-82.51 98.1,-75.67 100.16,-86.06 106.19,-82.51"/>
</g>
<!-- Node3 -->
<g id="node3" class="node">
<title>Node3</title>
<g id="a_node3"><a xlink:href="traits__params_8h.html" target="_top" xlink:title=" ">
<polygon fill="none" stroke="black" points="167.5,-112.5 167.5,-131.5 260.5,-131.5 260.5,-112.5 167.5,-112.5"/>
<text text-anchor="middle" x="214" y="-119.5" font-family="Helvetica,sans-Serif" font-size="10.00">traits_params.h</text>
</a>
</g>
</g>
<!-- Node1&#45;&gt;Node3 -->
<g id="edge2" class="edge">
<title>Node1&#45;&gt;Node3</title>
<path fill="none" stroke="midnightblue" d="M173.56,-168.4C181.34,-159.66 191.36,-148.41 199.48,-139.3"/>
<polygon fill="midnightblue" stroke="midnightblue" points="202.25,-141.45 206.29,-131.66 197.02,-136.8 202.25,-141.45"/>
</g>
<!-- Node3&#45;&gt;Node2 -->
<g id="edge13" class="edge">
<title>Node3&#45;&gt;Node2</title>
<path fill="none" stroke="midnightblue" d="M194.83,-112.44C175.09,-103.64 144.11,-89.81 121.51,-79.72"/>
<polygon fill="midnightblue" stroke="midnightblue" points="122.64,-76.4 112.08,-75.52 119.79,-82.79 122.64,-76.4"/>
</g>
<!-- Node4 -->
<g id="node4" class="node">
<title>Node4</title>
<g id="a_node4"><a xlink:href="initializer__v2_8h.html" target="_top" xlink:title=" ">
<polygon fill="none" stroke="black" points="173.5,-56.5 173.5,-75.5 286.5,-75.5 286.5,-56.5 173.5,-56.5"/>
<text text-anchor="middle" x="230" y="-63.5" font-family="Helvetica,sans-Serif" font-size="10.00">utils/initializer_v2.h</text>
</a>
</g>
</g>
<!-- Node3&#45;&gt;Node4 -->
<g id="edge3" class="edge">
<title>Node3&#45;&gt;Node4</title>
<path fill="none" stroke="midnightblue" d="M216.64,-112.08C218.79,-104.85 221.88,-94.41 224.55,-85.4"/>
<polygon fill="midnightblue" stroke="midnightblue" points="227.92,-86.33 227.41,-75.75 221.21,-84.34 227.92,-86.33"/>
</g>
<!-- Node7 -->
<g id="node7" class="node">
<title>Node7</title>
<g id="a_node7"><a xlink:title=" ">
<polygon fill="none" stroke="#bfbfbf" points="0,-0.5 0,-19.5 44,-19.5 44,-0.5 0,-0.5"/>
<text text-anchor="middle" x="22" y="-7.5" font-family="Helvetica,sans-Serif" font-size="10.00">string</text>
</a>
</g>
</g>
<!-- Node3&#45;&gt;Node7 -->
<g id="edge14" class="edge">
<title>Node3&#45;&gt;Node7</title>
<path fill="none" stroke="midnightblue" d="M203.96,-112.39C188.15,-99.1 156.12,-73.34 126,-56 102.74,-42.61 74.75,-30.72 53.66,-22.52"/>
<polygon fill="midnightblue" stroke="midnightblue" points="54.8,-19.21 44.21,-18.92 52.31,-25.75 54.8,-19.21"/>
</g>
<!-- Node13 -->
<g id="node13" class="node">
<title>Node13</title>
<g id="a_node13"><a xlink:title=" ">
<polygon fill="none" stroke="#bfbfbf" points="304.5,-56.5 304.5,-75.5 365.5,-75.5 365.5,-56.5 304.5,-56.5"/>
<text text-anchor="middle" x="335" y="-63.5" font-family="Helvetica,sans-Serif" font-size="10.00">io_utils.h</text>
</a>
</g>
</g>
<!-- Node3&#45;&gt;Node13 -->
<g id="edge12" class="edge">
<title>Node3&#45;&gt;Node13</title>
<path fill="none" stroke="midnightblue" d="M233.17,-112.44C252.91,-103.64 283.89,-89.81 306.49,-79.72"/>
<polygon fill="midnightblue" stroke="midnightblue" points="308.21,-82.79 315.92,-75.52 305.36,-76.4 308.21,-82.79"/>
</g>
<!-- Node14 -->
<g id="node14" class="node">
<title>Node14</title>
<g id="a_node14"><a xlink:title=" ">
<polygon fill="none" stroke="#bfbfbf" points="384,-56.5 384,-75.5 436,-75.5 436,-56.5 384,-56.5"/>
<text text-anchor="middle" x="410" y="-63.5" font-family="Helvetica,sans-Serif" font-size="10.00">cassert</text>
</a>
</g>
</g>
<!-- Node3&#45;&gt;Node14 -->
<g id="edge15" class="edge">
<title>Node3&#45;&gt;Node14</title>
<path fill="none" stroke="midnightblue" d="M245.06,-112.44C280.08,-102.79 336.96,-87.12 373.93,-76.94"/>
<polygon fill="midnightblue" stroke="midnightblue" points="375.08,-80.25 383.79,-74.22 373.22,-73.5 375.08,-80.25"/>
</g>
<!-- Node5 -->
<g id="node5" class="node">
<title>Node5</title>
<g id="a_node5"><a xlink:title=" ">
<polygon fill="none" stroke="#bfbfbf" points="62,-0.5 62,-19.5 122,-19.5 122,-0.5 62,-0.5"/>
<text text-anchor="middle" x="92" y="-7.5" font-family="Helvetica,sans-Serif" font-size="10.00">iostream</text>
</a>
</g>
</g>
<!-- Node4&#45;&gt;Node5 -->
<g id="edge4" class="edge">
<title>Node4&#45;&gt;Node5</title>
<path fill="none" stroke="midnightblue" d="M208.13,-56.44C185.22,-47.48 149.02,-33.31 123.13,-23.18"/>
<polygon fill="midnightblue" stroke="midnightblue" points="124.35,-19.9 113.76,-19.52 121.8,-26.42 124.35,-19.9"/>
</g>
<!-- Node6 -->
<g id="node6" class="node">
<title>Node6</title>
<g id="a_node6"><a xlink:title=" ">
<polygon fill="none" stroke="#bfbfbf" points="140,-0.5 140,-19.5 184,-19.5 184,-0.5 140,-0.5"/>
<text text-anchor="middle" x="162" y="-7.5" font-family="Helvetica,sans-Serif" font-size="10.00">regex</text>
</a>
</g>
</g>
<!-- Node4&#45;&gt;Node6 -->
<g id="edge5" class="edge">
<title>Node4&#45;&gt;Node6</title>
<path fill="none" stroke="midnightblue" d="M219.07,-56.32C208.83,-48.18 193.28,-35.84 181,-26.09"/>
<polygon fill="midnightblue" stroke="midnightblue" points="183.13,-23.31 173.12,-19.83 178.78,-28.79 183.13,-23.31"/>
</g>
<!-- Node4&#45;&gt;Node7 -->
<g id="edge6" class="edge">
<title>Node4&#45;&gt;Node7</title>
<path fill="none" stroke="midnightblue" d="M194.98,-56.47C161.23,-48.16 108.5,-34.97 54.13,-20.25"/>
<polygon fill="midnightblue" stroke="midnightblue" points="54.89,-16.83 44.33,-17.58 53.06,-23.58 54.89,-16.83"/>
</g>
<!-- Node8 -->
<g id="node8" class="node">
<title>Node8</title>
<g id="a_node8"><a xlink:title=" ">
<polygon fill="none" stroke="#bfbfbf" points="202.5,-0.5 202.5,-19.5 257.5,-19.5 257.5,-0.5 202.5,-0.5"/>
<text text-anchor="middle" x="230" y="-7.5" font-family="Helvetica,sans-Serif" font-size="10.00">fstream</text>
</a>
</g>
</g>
<!-- Node4&#45;&gt;Node8 -->
<g id="edge7" class="edge">
<title>Node4&#45;&gt;Node8</title>
<path fill="none" stroke="midnightblue" d="M230,-56.08C230,-49.01 230,-38.86 230,-29.99"/>
<polygon fill="midnightblue" stroke="midnightblue" points="233.5,-29.75 230,-19.75 226.5,-29.75 233.5,-29.75"/>
</g>
<!-- Node9 -->
<g id="node9" class="node">
<title>Node9</title>
<g id="a_node9"><a xlink:title=" ">
<polygon fill="none" stroke="#bfbfbf" points="275.5,-0.5 275.5,-19.5 322.5,-19.5 322.5,-0.5 275.5,-0.5"/>
<text text-anchor="middle" x="299" y="-7.5" font-family="Helvetica,sans-Serif" font-size="10.00">vector</text>
</a>
</g>
</g>
<!-- Node4&#45;&gt;Node9 -->
<g id="edge8" class="edge">
<title>Node4&#45;&gt;Node9</title>
<path fill="none" stroke="midnightblue" d="M241.09,-56.32C251.49,-48.18 267.26,-35.84 279.72,-26.09"/>
<polygon fill="midnightblue" stroke="midnightblue" points="281.99,-28.75 287.71,-19.83 277.68,-23.24 281.99,-28.75"/>
</g>
<!-- Node10 -->
<g id="node10" class="node">
<title>Node10</title>
<g id="a_node10"><a xlink:title=" ">
<polygon fill="none" stroke="#bfbfbf" points="341,-0.5 341,-19.5 397,-19.5 397,-0.5 341,-0.5"/>
<text text-anchor="middle" x="369" y="-7.5" font-family="Helvetica,sans-Serif" font-size="10.00">sstream</text>
</a>
</g>
</g>
<!-- Node4&#45;&gt;Node10 -->
<g id="edge9" class="edge">
<title>Node4&#45;&gt;Node10</title>
<path fill="none" stroke="midnightblue" d="M252.02,-56.44C275.1,-47.48 311.56,-33.31 337.64,-23.18"/>
<polygon fill="midnightblue" stroke="midnightblue" points="339.02,-26.4 347.08,-19.52 336.49,-19.88 339.02,-26.4"/>
</g>
<!-- Node11 -->
<g id="node11" class="node">
<title>Node11</title>
<g id="a_node11"><a xlink:title=" ">
<polygon fill="none" stroke="#bfbfbf" points="415.5,-0.5 415.5,-19.5 480.5,-19.5 480.5,-0.5 415.5,-0.5"/>
<text text-anchor="middle" x="448" y="-7.5" font-family="Helvetica,sans-Serif" font-size="10.00">stdexcept</text>
</a>
</g>
</g>
<!-- Node4&#45;&gt;Node11 -->
<g id="edge10" class="edge">
<title>Node4&#45;&gt;Node11</title>
<path fill="none" stroke="midnightblue" d="M264.54,-56.44C302.81,-46.96 364.52,-31.68 405.67,-21.49"/>
<polygon fill="midnightblue" stroke="midnightblue" points="406.53,-24.88 415.4,-19.08 404.85,-18.08 406.53,-24.88"/>
</g>
<!-- Node12 -->
<g id="node12" class="node">
<title>Node12</title>
<g id="a_node12"><a xlink:title=" ">
<polygon fill="none" stroke="#bfbfbf" points="498.5,-0.5 498.5,-19.5 591.5,-19.5 591.5,-0.5 498.5,-0.5"/>
<text text-anchor="middle" x="545" y="-7.5" font-family="Helvetica,sans-Serif" font-size="10.00">unordered_map</text>
</a>
</g>
</g>
<!-- Node4&#45;&gt;Node12 -->
<g id="edge11" class="edge">
<title>Node4&#45;&gt;Node12</title>
<path fill="none" stroke="midnightblue" d="M279.91,-56.44C336.65,-46.72 429.08,-30.87 488.44,-20.7"/>
<polygon fill="midnightblue" stroke="midnightblue" points="489.14,-24.13 498.4,-18.99 487.95,-17.23 489.14,-24.13"/>
</g>
</g>
</svg>
