<?xml version="1.0" encoding="UTF-8" standalone="no"?>
<!DOCTYPE svg PUBLIC "-//W3C//DTD SVG 1.1//EN"
 "http://www.w3.org/Graphics/SVG/1.1/DTD/svg11.dtd">
<!-- Generated by graphviz version 2.43.0 (0)
 -->
<!-- Title: inst/include/pspm_interface.h Pages: 1 -->
<svg width="1163pt" height="364pt"
 viewBox="0.00 0.00 1163.35 364.00" xmlns="http://www.w3.org/2000/svg" xmlns:xlink="http://www.w3.org/1999/xlink">
<g id="graph0" class="graph" transform="scale(1 1) rotate(0) translate(4 360)">
<title>inst/include/pspm_interface.h</title>
<!-- Node1 -->
<g id="node1" class="node">
<title>Node1</title>
<g id="a_node1"><a xlink:title=" ">
<polygon fill="#bfbfbf" stroke="black" points="137.5,-336.5 137.5,-355.5 298.5,-355.5 298.5,-336.5 137.5,-336.5"/>
<text text-anchor="middle" x="218" y="-343.5" font-family="Helvetica,sans-Serif" font-size="10.00">inst/include/pspm_interface.h</text>
</a>
</g>
</g>
<!-- Node2 -->
<g id="node2" class="node">
<title>Node2</title>
<g id="a_node2"><a xlink:title=" ">
<polygon fill="none" stroke="#bfbfbf" points="2,-280.5 2,-299.5 104,-299.5 104,-280.5 2,-280.5"/>
<text text-anchor="middle" x="53" y="-287.5" font-family="Helvetica,sans-Serif" font-size="10.00">individual_base.h</text>
</a>
</g>
</g>
<!-- Node1&#45;&gt;Node2 -->
<g id="edge1" class="edge">
<title>Node1&#45;&gt;Node2</title>
<path fill="none" stroke="midnightblue" d="M191.86,-336.44C163.98,-327.32 119.65,-312.81 88.6,-302.65"/>
<polygon fill="midnightblue" stroke="midnightblue" points="89.62,-299.3 79.02,-299.52 87.44,-305.95 89.62,-299.3"/>
</g>
<!-- Node3 -->
<g id="node3" class="node">
<title>Node3</title>
<g id="a_node3"><a xlink:title=" ">
<polygon fill="none" stroke="#bfbfbf" points="0,-224.5 0,-243.5 56,-243.5 56,-224.5 0,-224.5"/>
<text text-anchor="middle" x="28" y="-231.5" font-family="Helvetica,sans-Serif" font-size="10.00">solver.h</text>
</a>
</g>
</g>
<!-- Node1&#45;&gt;Node3 -->
<g id="edge2" class="edge">
<title>Node1&#45;&gt;Node3</title>
<path fill="none" stroke="midnightblue" d="M204.58,-336.29C184.79,-323.53 146.48,-299.2 113,-280 93.63,-268.89 71.29,-257.11 54.38,-248.39"/>
<polygon fill="midnightblue" stroke="midnightblue" points="55.61,-245.08 45.12,-243.63 52.42,-251.31 55.61,-245.08"/>
</g>
<!-- Node4 -->
<g id="node4" class="node">
<title>Node4</title>
<g id="a_node4"><a xlink:href="light__environment_8h.html" target="_top" xlink:title=" ">
<polygon fill="none" stroke="black" points="160.5,-280.5 160.5,-299.5 275.5,-299.5 275.5,-280.5 160.5,-280.5"/>
<text text-anchor="middle" x="218" y="-287.5" font-family="Helvetica,sans-Serif" font-size="10.00">light_environment.h</text>
</a>
</g>
</g>
<!-- Node1&#45;&gt;Node4 -->
<g id="edge3" class="edge">
<title>Node1&#45;&gt;Node4</title>
<path fill="none" stroke="midnightblue" d="M218,-336.08C218,-329.01 218,-318.86 218,-309.99"/>
<polygon fill="midnightblue" stroke="midnightblue" points="221.5,-309.75 218,-299.75 214.5,-309.75 221.5,-309.75"/>
</g>
<!-- Node8 -->
<g id="node8" class="node">
<title>Node8</title>
<g id="a_node8"><a xlink:href="climate_8h.html" target="_top" xlink:title=" ">
<polygon fill="none" stroke="black" points="333,-112.5 333,-131.5 395,-131.5 395,-112.5 333,-112.5"/>
<text text-anchor="middle" x="364" y="-119.5" font-family="Helvetica,sans-Serif" font-size="10.00">climate.h</text>
</a>
</g>
</g>
<!-- Node1&#45;&gt;Node8 -->
<g id="edge8" class="edge">
<title>Node1&#45;&gt;Node8</title>
<path fill="none" stroke="midnightblue" d="M235.7,-336.44C250.26,-328.64 270.62,-315.93 284,-300 325.5,-250.58 349.66,-176.14 359.21,-141.7"/>
<polygon fill="midnightblue" stroke="midnightblue" points="362.7,-142.21 361.9,-131.65 355.93,-140.41 362.7,-142.21"/>
</g>
<!-- Node14 -->
<g id="node14" class="node">
<title>Node14</title>
<g id="a_node14"><a xlink:href="plant_8h.html" target="_top" xlink:title=" ">
<polygon fill="none" stroke="black" points="758,-280.5 758,-299.5 808,-299.5 808,-280.5 758,-280.5"/>
<text text-anchor="middle" x="783" y="-287.5" font-family="Helvetica,sans-Serif" font-size="10.00">plant.h</text>
</a>
</g>
</g>
<!-- Node1&#45;&gt;Node14 -->
<g id="edge16" class="edge">
<title>Node1&#45;&gt;Node14</title>
<path fill="none" stroke="midnightblue" d="M298.65,-337.29C423.61,-325.35 658.86,-302.86 747.77,-294.37"/>
<polygon fill="midnightblue" stroke="midnightblue" points="748.25,-297.84 757.87,-293.4 747.58,-290.87 748.25,-297.84"/>
</g>
<!-- Node4&#45;&gt;Node3 -->
<g id="edge7" class="edge">
<title>Node4&#45;&gt;Node3</title>
<path fill="none" stroke="midnightblue" d="M187.89,-280.44C154.8,-271.04 101.58,-255.91 65.73,-245.72"/>
<polygon fill="midnightblue" stroke="midnightblue" points="66.68,-242.36 56.11,-242.99 64.77,-249.09 66.68,-242.36"/>
</g>
<!-- Node5 -->
<g id="node5" class="node">
<title>Node5</title>
<g id="a_node5"><a xlink:title=" ">
<polygon fill="none" stroke="#bfbfbf" points="385,-0.5 385,-19.5 445,-19.5 445,-0.5 385,-0.5"/>
<text text-anchor="middle" x="415" y="-7.5" font-family="Helvetica,sans-Serif" font-size="10.00">iostream</text>
</a>
</g>
</g>
<!-- Node4&#45;&gt;Node5 -->
<g id="edge4" class="edge">
<title>Node4&#45;&gt;Node5</title>
<path fill="none" stroke="midnightblue" d="M223.28,-280.23C233.73,-262.04 256,-218.6 256,-179 256,-179 256,-179 256,-121 256,-63.3 327.68,-33.5 374.79,-20.14"/>
<polygon fill="midnightblue" stroke="midnightblue" points="375.98,-23.44 384.72,-17.46 374.15,-16.68 375.98,-23.44"/>
</g>
<!-- Node6 -->
<g id="node6" class="node">
<title>Node6</title>
<g id="a_node6"><a xlink:title=" ">
<polygon fill="none" stroke="#bfbfbf" points="280.5,-0.5 280.5,-19.5 327.5,-19.5 327.5,-0.5 280.5,-0.5"/>
<text text-anchor="middle" x="304" y="-7.5" font-family="Helvetica,sans-Serif" font-size="10.00">vector</text>
</a>
</g>
</g>
<!-- Node4&#45;&gt;Node6 -->
<g id="edge5" class="edge">
<title>Node4&#45;&gt;Node6</title>
<path fill="none" stroke="midnightblue" d="M218,-280.44C218,-261.94 218,-216.81 218,-179 218,-179 218,-179 218,-121 218,-90.2 223.4,-80.55 242,-56 251.69,-43.2 266.03,-32.47 278.48,-24.7"/>
<polygon fill="midnightblue" stroke="midnightblue" points="280.29,-27.69 287.11,-19.58 276.72,-21.67 280.29,-27.69"/>
</g>
<!-- Node7 -->
<g id="node7" class="node">
<title>Node7</title>
<g id="a_node7"><a xlink:title=" ">
<polygon fill="none" stroke="#bfbfbf" points="74,-224.5 74,-243.5 190,-243.5 190,-224.5 74,-224.5"/>
<text text-anchor="middle" x="132" y="-231.5" font-family="Helvetica,sans-Serif" font-size="10.00">environment_base.h</text>
</a>
</g>
</g>
<!-- Node4&#45;&gt;Node7 -->
<g id="edge6" class="edge">
<title>Node4&#45;&gt;Node7</title>
<path fill="none" stroke="midnightblue" d="M204.18,-280.32C190.77,-271.9 170.18,-258.97 154.41,-249.07"/>
<polygon fill="midnightblue" stroke="midnightblue" points="156.11,-246.01 145.78,-243.65 152.39,-251.94 156.11,-246.01"/>
</g>
<!-- Node8&#45;&gt;Node5 -->
<g id="edge12" class="edge">
<title>Node8&#45;&gt;Node5</title>
<path fill="none" stroke="midnightblue" d="M360.08,-112.5C354.74,-99.57 346.82,-74.55 356,-56 362.6,-42.66 375.26,-32.19 387.17,-24.73"/>
<polygon fill="midnightblue" stroke="midnightblue" points="389.12,-27.64 396.02,-19.6 385.61,-21.59 389.12,-27.64"/>
</g>
<!-- Node8&#45;&gt;Node6 -->
<g id="edge14" class="edge">
<title>Node8&#45;&gt;Node6</title>
<path fill="none" stroke="midnightblue" d="M359.29,-112.37C349.48,-94.38 326.66,-52.55 313.61,-28.63"/>
<polygon fill="midnightblue" stroke="midnightblue" points="316.55,-26.69 308.69,-19.59 310.4,-30.05 316.55,-26.69"/>
</g>
<!-- Node9 -->
<g id="node9" class="node">
<title>Node9</title>
<g id="a_node9"><a xlink:title=" ">
<polygon fill="none" stroke="#bfbfbf" points="567,-0.5 567,-19.5 611,-19.5 611,-0.5 567,-0.5"/>
<text text-anchor="middle" x="589" y="-7.5" font-family="Helvetica,sans-Serif" font-size="10.00">string</text>
</a>
</g>
</g>
<!-- Node8&#45;&gt;Node9 -->
<g id="edge9" class="edge">
<title>Node8&#45;&gt;Node9</title>
<path fill="none" stroke="midnightblue" d="M370.05,-112.43C380.34,-98.5 402.63,-70.96 428,-56 439.17,-49.41 513.17,-30.1 556.86,-19.03"/>
<polygon fill="midnightblue" stroke="midnightblue" points="557.9,-22.38 566.74,-16.54 556.19,-15.6 557.9,-22.38"/>
</g>
<!-- Node10 -->
<g id="node10" class="node">
<title>Node10</title>
<g id="a_node10"><a xlink:title=" ">
<polygon fill="none" stroke="#bfbfbf" points="990.5,-0.5 990.5,-19.5 1045.5,-19.5 1045.5,-0.5 990.5,-0.5"/>
<text text-anchor="middle" x="1018" y="-7.5" font-family="Helvetica,sans-Serif" font-size="10.00">fstream</text>
</a>
</g>
</g>
<!-- Node8&#45;&gt;Node10 -->
<g id="edge10" class="edge">
<title>Node8&#45;&gt;Node10</title>
<path fill="none" stroke="midnightblue" d="M395.31,-120.12C511.69,-116.64 915.3,-102.74 966,-76 985.71,-65.6 1000.55,-44.14 1009.23,-28.72"/>
<polygon fill="midnightblue" stroke="midnightblue" points="1012.45,-30.12 1014.03,-19.64 1006.26,-26.84 1012.45,-30.12"/>
</g>
<!-- Node11 -->
<g id="node11" class="node">
<title>Node11</title>
<g id="a_node11"><a xlink:title=" ">
<polygon fill="none" stroke="#bfbfbf" points="483,-0.5 483,-19.5 539,-19.5 539,-0.5 483,-0.5"/>
<text text-anchor="middle" x="511" y="-7.5" font-family="Helvetica,sans-Serif" font-size="10.00">sstream</text>
</a>
</g>
</g>
<!-- Node8&#45;&gt;Node11 -->
<g id="edge11" class="edge">
<title>Node8&#45;&gt;Node11</title>
<path fill="none" stroke="midnightblue" d="M365.82,-112.18C369.11,-98.37 377.31,-71.63 394,-56 415.78,-35.6 447.79,-24.14 472.82,-17.9"/>
<polygon fill="midnightblue" stroke="midnightblue" points="473.78,-21.27 482.73,-15.61 472.2,-14.45 473.78,-21.27"/>
</g>
<!-- Node12 -->
<g id="node12" class="node">
<title>Node12</title>
<g id="a_node12"><a xlink:title=" ">
<polygon fill="none" stroke="#bfbfbf" points="513.5,-56.5 513.5,-75.5 560.5,-75.5 560.5,-56.5 513.5,-56.5"/>
<text text-anchor="middle" x="537" y="-63.5" font-family="Helvetica,sans-Serif" font-size="10.00">cmath</text>
</a>
</g>
</g>
<!-- Node8&#45;&gt;Node12 -->
<g id="edge13" class="edge">
<title>Node8&#45;&gt;Node12</title>
<path fill="none" stroke="midnightblue" d="M391.41,-112.44C421.89,-102.93 471.12,-87.56 503.77,-77.37"/>
<polygon fill="midnightblue" stroke="midnightblue" points="504.83,-80.71 513.33,-74.39 502.74,-74.03 504.83,-80.71"/>
</g>
<!-- Node13 -->
<g id="node13" class="node">
<title>Node13</title>
<g id="a_node13"><a xlink:title=" ">
<polygon fill="none" stroke="#bfbfbf" points="436.5,-56.5 436.5,-75.5 495.5,-75.5 495.5,-56.5 436.5,-56.5"/>
<text text-anchor="middle" x="466" y="-63.5" font-family="Helvetica,sans-Serif" font-size="10.00">phydro.h</text>
</a>
</g>
</g>
<!-- Node8&#45;&gt;Node13 -->
<g id="edge15" class="edge">
<title>Node8&#45;&gt;Node13</title>
<path fill="none" stroke="midnightblue" d="M380.39,-112.32C396.67,-103.7 421.87,-90.36 440.72,-80.39"/>
<polygon fill="midnightblue" stroke="midnightblue" points="442.45,-83.43 449.65,-75.65 439.18,-77.24 442.45,-83.43"/>
</g>
<!-- Node14&#45;&gt;Node10 -->
<g id="edge17" class="edge">
<title>Node14&#45;&gt;Node10</title>
<path fill="none" stroke="midnightblue" d="M808.28,-287.04C892,-279.84 1155,-251.48 1155,-179 1155,-179 1155,-179 1155,-121 1155,-90.9 1156.41,-78.12 1136,-56 1115.06,-33.31 1081.46,-21.97 1055.45,-16.35"/>
<polygon fill="midnightblue" stroke="midnightblue" points="1056.04,-12.9 1045.55,-14.41 1054.69,-19.77 1056.04,-12.9"/>
</g>
<!-- Node15 -->
<g id="node15" class="node">
<title>Node15</title>
<g id="a_node15"><a xlink:href="traits__params_8h.html" target="_top" xlink:title=" ">
<polygon fill="none" stroke="black" points="620.5,-112.5 620.5,-131.5 713.5,-131.5 713.5,-112.5 620.5,-112.5"/>
<text text-anchor="middle" x="667" y="-119.5" font-family="Helvetica,sans-Serif" font-size="10.00">traits_params.h</text>
</a>
</g>
</g>
<!-- Node14&#45;&gt;Node15 -->
<g id="edge18" class="edge">
<title>Node14&#45;&gt;Node15</title>
<path fill="none" stroke="midnightblue" d="M784.2,-280.34C786.68,-258.91 790.12,-202.64 764,-168 752.12,-152.24 733.38,-141.81 715.52,-135"/>
<polygon fill="midnightblue" stroke="midnightblue" points="716.34,-131.58 705.74,-131.58 714.02,-138.19 716.34,-131.58"/>
</g>
<!-- Node16 -->
<g id="node16" class="node">
<title>Node16</title>
<g id="a_node16"><a xlink:href="initializer__v2_8h.html" target="_top" xlink:title=" ">
<polygon fill="none" stroke="black" points="843.5,-56.5 843.5,-75.5 956.5,-75.5 956.5,-56.5 843.5,-56.5"/>
<text text-anchor="middle" x="900" y="-63.5" font-family="Helvetica,sans-Serif" font-size="10.00">utils/initializer_v2.h</text>
</a>
</g>
</g>
<!-- Node14&#45;&gt;Node16 -->
<g id="edge48" class="edge">
<title>Node14&#45;&gt;Node16</title>
<path fill="none" stroke="midnightblue" d="M808.17,-289.25C841,-288.05 897.4,-280.41 924,-244 959.46,-195.46 927.45,-118.93 909.82,-84.64"/>
<polygon fill="midnightblue" stroke="midnightblue" points="912.9,-82.97 905.1,-75.79 906.72,-86.26 912.9,-82.97"/>
</g>
<!-- Node22 -->
<g id="node22" class="node">
<title>Node22</title>
<g id="a_node22"><a xlink:href="plant__architecture_8h.html" target="_top" xlink:title=" ">
<polygon fill="none" stroke="black" points="641,-168.5 641,-187.5 755,-187.5 755,-168.5 641,-168.5"/>
<text text-anchor="middle" x="698" y="-175.5" font-family="Helvetica,sans-Serif" font-size="10.00">plant_architecture.h</text>
</a>
</g>
</g>
<!-- Node14&#45;&gt;Node22 -->
<g id="edge32" class="edge">
<title>Node14&#45;&gt;Node22</title>
<path fill="none" stroke="midnightblue" d="M776.33,-280.37C762.24,-262.14 729.24,-219.43 710.89,-195.68"/>
<polygon fill="midnightblue" stroke="midnightblue" points="713.52,-193.36 704.64,-187.59 707.98,-197.64 713.52,-193.36"/>
</g>
<!-- Node23 -->
<g id="node23" class="node">
<title>Node23</title>
<g id="a_node23"><a xlink:href="assimilation_8h.html" target="_top" xlink:title=" ">
<polygon fill="none" stroke="black" points="570,-224.5 570,-243.5 656,-243.5 656,-224.5 570,-224.5"/>
<text text-anchor="middle" x="613" y="-231.5" font-family="Helvetica,sans-Serif" font-size="10.00">assimilation.h</text>
</a>
</g>
</g>
<!-- Node14&#45;&gt;Node23 -->
<g id="edge35" class="edge">
<title>Node14&#45;&gt;Node23</title>
<path fill="none" stroke="midnightblue" d="M757.92,-281.03C729.29,-271.94 682.22,-256.99 649.52,-246.6"/>
<polygon fill="midnightblue" stroke="midnightblue" points="650.46,-243.23 639.87,-243.54 648.34,-249.9 650.46,-243.23"/>
</g>
<!-- Node25 -->
<g id="node25" class="node">
<title>Node25</title>
<g id="a_node25"><a xlink:href="rk4_8h.html" target="_top" xlink:title=" ">
<polygon fill="none" stroke="black" points="849.5,-224.5 849.5,-243.5 914.5,-243.5 914.5,-224.5 849.5,-224.5"/>
<text text-anchor="middle" x="882" y="-231.5" font-family="Helvetica,sans-Serif" font-size="10.00">utils/rk4.h</text>
</a>
</g>
</g>
<!-- Node14&#45;&gt;Node25 -->
<g id="edge40" class="edge">
<title>Node14&#45;&gt;Node25</title>
<path fill="none" stroke="midnightblue" d="M798.91,-280.32C814.64,-271.74 838.94,-258.49 857.21,-248.52"/>
<polygon fill="midnightblue" stroke="midnightblue" points="859.03,-251.52 866.13,-243.65 855.68,-245.37 859.03,-251.52"/>
</g>
<!-- Node26 -->
<g id="node26" class="node">
<title>Node26</title>
<g id="a_node26"><a xlink:href="moving__average_8h.html" target="_top" xlink:title=" ">
<polygon fill="none" stroke="black" points="749.5,-112.5 749.5,-131.5 880.5,-131.5 880.5,-112.5 749.5,-112.5"/>
<text text-anchor="middle" x="815" y="-119.5" font-family="Helvetica,sans-Serif" font-size="10.00">utils/moving_average.h</text>
</a>
</g>
</g>
<!-- Node14&#45;&gt;Node26 -->
<g id="edge41" class="edge">
<title>Node14&#45;&gt;Node26</title>
<path fill="none" stroke="midnightblue" d="M786.08,-280.48C789.23,-271.51 794.05,-256.92 797,-244 805.17,-208.24 810.51,-165.65 813.12,-141.72"/>
<polygon fill="midnightblue" stroke="midnightblue" points="816.62,-141.9 814.18,-131.59 809.66,-141.17 816.62,-141.9"/>
</g>
<!-- Node29 -->
<g id="node29" class="node">
<title>Node29</title>
<g id="a_node29"><a xlink:href="plant_8tpp.html" target="_top" xlink:title=" ">
<polygon fill="none" stroke="black" points="373,-168.5 373,-187.5 433,-187.5 433,-168.5 373,-168.5"/>
<text text-anchor="middle" x="403" y="-175.5" font-family="Helvetica,sans-Serif" font-size="10.00">plant.tpp</text>
</a>
</g>
</g>
<!-- Node14&#45;&gt;Node29 -->
<g id="edge49" class="edge">
<title>Node14&#45;&gt;Node29</title>
<path fill="none" stroke="midnightblue" d="M757.98,-285.52C716.46,-279.39 630.98,-265.28 561,-244 513.63,-229.6 460.85,-206.34 429.86,-191.9"/>
<polygon fill="midnightblue" stroke="midnightblue" points="431.14,-188.63 420.6,-187.54 428.16,-194.97 431.14,-188.63"/>
</g>
<!-- Node15&#45;&gt;Node9 -->
<g id="edge30" class="edge">
<title>Node15&#45;&gt;Node9</title>
<path fill="none" stroke="midnightblue" d="M651.25,-112.49C638.15,-104.64 619.94,-91.83 609,-76 599.46,-62.19 594.34,-43.67 591.68,-29.93"/>
<polygon fill="midnightblue" stroke="midnightblue" points="595.08,-29.01 589.98,-19.72 588.18,-30.16 595.08,-29.01"/>
</g>
<!-- Node15&#45;&gt;Node12 -->
<g id="edge29" class="edge">
<title>Node15&#45;&gt;Node12</title>
<path fill="none" stroke="midnightblue" d="M646.4,-112.44C625.01,-103.56 591.32,-89.56 566.98,-79.45"/>
<polygon fill="midnightblue" stroke="midnightblue" points="568.08,-76.12 557.5,-75.52 565.39,-82.58 568.08,-76.12"/>
</g>
<!-- Node15&#45;&gt;Node16 -->
<g id="edge19" class="edge">
<title>Node15&#45;&gt;Node16</title>
<path fill="none" stroke="midnightblue" d="M703.92,-112.44C744.4,-103.06 809.42,-87.99 853.38,-77.8"/>
<polygon fill="midnightblue" stroke="midnightblue" points="854.3,-81.18 863.25,-75.52 852.72,-74.36 854.3,-81.18"/>
</g>
<!-- Node20 -->
<g id="node20" class="node">
<title>Node20</title>
<g id="a_node20"><a xlink:title=" ">
<polygon fill="none" stroke="#bfbfbf" points="617.5,-56.5 617.5,-75.5 678.5,-75.5 678.5,-56.5 617.5,-56.5"/>
<text text-anchor="middle" x="648" y="-63.5" font-family="Helvetica,sans-Serif" font-size="10.00">io_utils.h</text>
</a>
</g>
</g>
<!-- Node15&#45;&gt;Node20 -->
<g id="edge28" class="edge">
<title>Node15&#45;&gt;Node20</title>
<path fill="none" stroke="midnightblue" d="M663.86,-112.08C661.32,-104.85 657.64,-94.41 654.47,-85.4"/>
<polygon fill="midnightblue" stroke="midnightblue" points="657.7,-84.02 651.08,-75.75 651.1,-86.35 657.7,-84.02"/>
</g>
<!-- Node21 -->
<g id="node21" class="node">
<title>Node21</title>
<g id="a_node21"><a xlink:title=" ">
<polygon fill="none" stroke="#bfbfbf" points="697,-56.5 697,-75.5 749,-75.5 749,-56.5 697,-56.5"/>
<text text-anchor="middle" x="723" y="-63.5" font-family="Helvetica,sans-Serif" font-size="10.00">cassert</text>
</a>
</g>
</g>
<!-- Node15&#45;&gt;Node21 -->
<g id="edge31" class="edge">
<title>Node15&#45;&gt;Node21</title>
<path fill="none" stroke="midnightblue" d="M676,-112.32C684.19,-104.42 696.51,-92.55 706.47,-82.94"/>
<polygon fill="midnightblue" stroke="midnightblue" points="709.07,-85.29 713.84,-75.83 704.21,-80.26 709.07,-85.29"/>
</g>
<!-- Node16&#45;&gt;Node5 -->
<g id="edge20" class="edge">
<title>Node16&#45;&gt;Node5</title>
<path fill="none" stroke="midnightblue" d="M843.43,-57.7C838.55,-57.11 833.69,-56.54 829,-56 671.43,-38.03 631.33,-39.96 474,-20 468.01,-19.24 461.68,-18.36 455.49,-17.45"/>
<polygon fill="midnightblue" stroke="midnightblue" points="455.69,-13.94 445.28,-15.92 454.65,-20.86 455.69,-13.94"/>
</g>
<!-- Node16&#45;&gt;Node6 -->
<g id="edge24" class="edge">
<title>Node16&#45;&gt;Node6</title>
<path fill="none" stroke="midnightblue" d="M843.21,-60.25C717.16,-49.68 421.52,-24.8 376,-20 363.5,-18.68 349.81,-17.02 337.75,-15.49"/>
<polygon fill="midnightblue" stroke="midnightblue" points="338.01,-12 327.65,-14.19 337.12,-18.94 338.01,-12"/>
</g>
<!-- Node16&#45;&gt;Node9 -->
<g id="edge22" class="edge">
<title>Node16&#45;&gt;Node9</title>
<path fill="none" stroke="midnightblue" d="M850.72,-56.44C786.49,-45.29 675.95,-26.1 621.39,-16.62"/>
<polygon fill="midnightblue" stroke="midnightblue" points="621.71,-13.13 611.26,-14.86 620.51,-20.02 621.71,-13.13"/>
</g>
<!-- Node16&#45;&gt;Node10 -->
<g id="edge23" class="edge">
<title>Node16&#45;&gt;Node10</title>
<path fill="none" stroke="midnightblue" d="M918.7,-56.44C937.94,-47.64 968.15,-33.81 990.2,-23.72"/>
<polygon fill="midnightblue" stroke="midnightblue" points="991.75,-26.86 999.39,-19.52 988.84,-20.5 991.75,-26.86"/>
</g>
<!-- Node16&#45;&gt;Node11 -->
<g id="edge25" class="edge">
<title>Node16&#45;&gt;Node11</title>
<path fill="none" stroke="midnightblue" d="M843.44,-57.74C753.57,-46.18 585.49,-24.44 558,-20 555.15,-19.54 552.22,-19.04 549.27,-18.52"/>
<polygon fill="midnightblue" stroke="midnightblue" points="549.75,-15.05 539.29,-16.69 548.49,-21.94 549.75,-15.05"/>
</g>
<!-- Node17 -->
<g id="node17" class="node">
<title>Node17</title>
<g id="a_node17"><a xlink:title=" ">
<polygon fill="none" stroke="#bfbfbf" points="845,-0.5 845,-19.5 889,-19.5 889,-0.5 845,-0.5"/>
<text text-anchor="middle" x="867" y="-7.5" font-family="Helvetica,sans-Serif" font-size="10.00">regex</text>
</a>
</g>
</g>
<!-- Node16&#45;&gt;Node17 -->
<g id="edge21" class="edge">
<title>Node16&#45;&gt;Node17</title>
<path fill="none" stroke="midnightblue" d="M894.55,-56.08C889.99,-48.61 883.33,-37.72 877.71,-28.52"/>
<polygon fill="midnightblue" stroke="midnightblue" points="880.55,-26.46 872.35,-19.75 874.58,-30.11 880.55,-26.46"/>
</g>
<!-- Node18 -->
<g id="node18" class="node">
<title>Node18</title>
<g id="a_node18"><a xlink:title=" ">
<polygon fill="none" stroke="#bfbfbf" points="907.5,-0.5 907.5,-19.5 972.5,-19.5 972.5,-0.5 907.5,-0.5"/>
<text text-anchor="middle" x="940" y="-7.5" font-family="Helvetica,sans-Serif" font-size="10.00">stdexcept</text>
</a>
</g>
</g>
<!-- Node16&#45;&gt;Node18 -->
<g id="edge26" class="edge">
<title>Node16&#45;&gt;Node18</title>
<path fill="none" stroke="midnightblue" d="M906.61,-56.08C912.26,-48.46 920.54,-37.26 927.45,-27.94"/>
<polygon fill="midnightblue" stroke="midnightblue" points="930.38,-29.87 933.52,-19.75 924.75,-25.7 930.38,-29.87"/>
</g>
<!-- Node19 -->
<g id="node19" class="node">
<title>Node19</title>
<g id="a_node19"><a xlink:title=" ">
<polygon fill="none" stroke="#bfbfbf" points="733.5,-0.5 733.5,-19.5 826.5,-19.5 826.5,-0.5 733.5,-0.5"/>
<text text-anchor="middle" x="780" y="-7.5" font-family="Helvetica,sans-Serif" font-size="10.00">unordered_map</text>
</a>
</g>
</g>
<!-- Node16&#45;&gt;Node19 -->
<g id="edge27" class="edge">
<title>Node16&#45;&gt;Node19</title>
<path fill="none" stroke="midnightblue" d="M880.99,-56.44C861.41,-47.64 830.69,-33.81 808.27,-23.72"/>
<polygon fill="midnightblue" stroke="midnightblue" points="809.48,-20.43 798.93,-19.52 806.61,-26.81 809.48,-20.43"/>
</g>
<!-- Node22&#45;&gt;Node12 -->
<g id="edge33" class="edge">
<title>Node22&#45;&gt;Node12</title>
<path fill="none" stroke="midnightblue" d="M678.48,-168.38C660.56,-160.1 633.59,-146.71 612,-132 590.13,-117.1 567.51,-96.69 552.91,-82.74"/>
<polygon fill="midnightblue" stroke="midnightblue" points="555.3,-80.17 545.68,-75.73 550.43,-85.2 555.3,-80.17"/>
</g>
<!-- Node22&#45;&gt;Node15 -->
<g id="edge34" class="edge">
<title>Node22&#45;&gt;Node15</title>
<path fill="none" stroke="midnightblue" d="M692.88,-168.08C688.59,-160.61 682.34,-149.72 677.06,-140.52"/>
<polygon fill="midnightblue" stroke="midnightblue" points="680.04,-138.68 672.02,-131.75 673.97,-142.17 680.04,-138.68"/>
</g>
<!-- Node23&#45;&gt;Node13 -->
<g id="edge36" class="edge">
<title>Node23&#45;&gt;Node13</title>
<path fill="none" stroke="midnightblue" d="M573.77,-224.47C539.33,-216.16 492.92,-202.65 481,-188 457.27,-158.82 459.25,-111.85 462.69,-85.84"/>
<polygon fill="midnightblue" stroke="midnightblue" points="466.17,-86.22 464.23,-75.8 459.26,-85.16 466.17,-86.22"/>
</g>
<!-- Node23&#45;&gt;Node15 -->
<g id="edge37" class="edge">
<title>Node23&#45;&gt;Node15</title>
<path fill="none" stroke="midnightblue" d="M614.48,-224.2C616.89,-211.32 622.36,-186.84 632,-168 637.28,-157.67 645.07,-147.36 651.96,-139.22"/>
<polygon fill="midnightblue" stroke="midnightblue" points="654.68,-141.43 658.67,-131.61 649.43,-136.8 654.68,-141.43"/>
</g>
<!-- Node23&#45;&gt;Node22 -->
<g id="edge38" class="edge">
<title>Node23&#45;&gt;Node22</title>
<path fill="none" stroke="midnightblue" d="M626.66,-224.32C639.92,-215.9 660.27,-202.97 675.85,-193.07"/>
<polygon fill="midnightblue" stroke="midnightblue" points="677.81,-195.97 684.38,-187.65 674.06,-190.06 677.81,-195.97"/>
</g>
<!-- Node24 -->
<g id="node24" class="node">
<title>Node24</title>
<g id="a_node24"><a xlink:href="assimilation_8tpp.html" target="_top" xlink:title=" ">
<polygon fill="none" stroke="black" points="489.5,-168.5 489.5,-187.5 584.5,-187.5 584.5,-168.5 489.5,-168.5"/>
<text text-anchor="middle" x="537" y="-175.5" font-family="Helvetica,sans-Serif" font-size="10.00">assimilation.tpp</text>
</a>
</g>
</g>
<!-- Node23&#45;&gt;Node24 -->
<g id="edge39" class="edge">
<title>Node23&#45;&gt;Node24</title>
<path fill="none" stroke="midnightblue" d="M600.79,-224.32C589.22,-216.11 571.62,-203.6 557.84,-193.81"/>
<polygon fill="midnightblue" stroke="midnightblue" points="559.61,-190.77 549.43,-187.83 555.56,-196.48 559.61,-190.77"/>
</g>
<!-- Node26&#45;&gt;Node5 -->
<g id="edge42" class="edge">
<title>Node26&#45;&gt;Node5</title>
<path fill="none" stroke="midnightblue" d="M814.55,-112.18C813.3,-97.86 808.61,-69.81 791,-56 735.21,-12.25 544.28,-29.35 474,-20 468.01,-19.2 461.69,-18.3 455.5,-17.39"/>
<polygon fill="midnightblue" stroke="midnightblue" points="455.7,-13.88 445.29,-15.85 454.65,-20.8 455.7,-13.88"/>
</g>
<!-- Node26&#45;&gt;Node6 -->
<g id="edge46" class="edge">
<title>Node26&#45;&gt;Node6</title>
<path fill="none" stroke="midnightblue" d="M810.39,-112.4C802.09,-97.88 783.13,-68.84 758,-56 682.07,-17.2 460.76,-29.29 376,-20 363.51,-18.63 349.81,-16.96 337.76,-15.43"/>
<polygon fill="midnightblue" stroke="midnightblue" points="338.02,-11.94 327.65,-14.14 337.13,-18.88 338.02,-11.94"/>
</g>
<!-- Node26&#45;&gt;Node12 -->
<g id="edge44" class="edge">
<title>Node26&#45;&gt;Node12</title>
<path fill="none" stroke="midnightblue" d="M770.95,-112.44C715.35,-101.64 620.92,-83.3 570.72,-73.55"/>
<polygon fill="midnightblue" stroke="midnightblue" points="571.19,-70.08 560.71,-71.6 569.86,-76.95 571.19,-70.08"/>
</g>
<!-- Node26&#45;&gt;Node21 -->
<g id="edge45" class="edge">
<title>Node26&#45;&gt;Node21</title>
<path fill="none" stroke="midnightblue" d="M800.22,-112.32C785.73,-103.82 763.43,-90.73 746.51,-80.8"/>
<polygon fill="midnightblue" stroke="midnightblue" points="748.14,-77.7 737.74,-75.65 744.6,-83.74 748.14,-77.7"/>
</g>
<!-- Node27 -->
<g id="node27" class="node">
<title>Node27</title>
<g id="a_node27"><a xlink:title=" ">
<polygon fill="none" stroke="#bfbfbf" points="1013,-56.5 1013,-75.5 1045,-75.5 1045,-56.5 1013,-56.5"/>
<text text-anchor="middle" x="1029" y="-63.5" font-family="Helvetica,sans-Serif" font-size="10.00">list</text>
</a>
</g>
</g>
<!-- Node26&#45;&gt;Node27 -->
<g id="edge43" class="edge">
<title>Node26&#45;&gt;Node27</title>
<path fill="none" stroke="midnightblue" d="M852.5,-112.43C889.79,-103.76 948.55,-89.73 999,-76 1000.27,-75.65 1001.57,-75.29 1002.87,-74.92"/>
<polygon fill="midnightblue" stroke="midnightblue" points="1004.23,-78.17 1012.85,-72.01 1002.27,-71.45 1004.23,-78.17"/>
</g>
<!-- Node28 -->
<g id="node28" class="node">
<title>Node28</title>
<g id="a_node28"><a xlink:title=" ">
<polygon fill="none" stroke="#bfbfbf" points="1063,-56.5 1063,-75.5 1127,-75.5 1127,-56.5 1063,-56.5"/>
<text text-anchor="middle" x="1095" y="-63.5" font-family="Helvetica,sans-Serif" font-size="10.00">algorithm</text>
</a>
</g>
</g>
<!-- Node26&#45;&gt;Node28 -->
<g id="edge47" class="edge">
<title>Node26&#45;&gt;Node28</title>
<path fill="none" stroke="midnightblue" d="M862.7,-112.45C908.83,-104.09 980.96,-90.76 1052.68,-76.22"/>
<polygon fill="midnightblue" stroke="midnightblue" points="1053.69,-79.59 1062.79,-74.17 1052.29,-72.73 1053.69,-79.59"/>
</g>
<!-- Node29&#45;&gt;Node12 -->
<g id="edge50" class="edge">
<title>Node29&#45;&gt;Node12</title>
<path fill="none" stroke="midnightblue" d="M413.51,-168.37C436.22,-149.73 490.06,-105.53 518.56,-82.13"/>
<polygon fill="midnightblue" stroke="midnightblue" points="521.03,-84.64 526.53,-75.59 516.58,-79.23 521.03,-84.64"/>
</g>
</g>
</svg>
