<?xml version="1.0" encoding="UTF-8" standalone="no"?>
<!DOCTYPE svg PUBLIC "-//W3C//DTD SVG 1.1//EN"
 "http://www.w3.org/Graphics/SVG/1.1/DTD/svg11.dtd">
<!-- Generated by graphviz version 2.43.0 (0)
 -->
<!-- Title: inst/include/pspm_interface.h Pages: 1 -->
<svg width="790pt" height="218pt"
 viewBox="0.00 0.00 790.00 218.00" xmlns="http://www.w3.org/2000/svg" xmlns:xlink="http://www.w3.org/1999/xlink">
<g id="graph0" class="graph" transform="scale(1 1) rotate(0) translate(4 214)">
<title>inst/include/pspm_interface.h</title>
<!-- Node1 -->
<g id="node1" class="node">
<title>Node1</title>
<g id="a_node1"><a xlink:title=" ">
<polygon fill="#bfbfbf" stroke="black" points="286,-190.5 286,-209.5 447,-209.5 447,-190.5 286,-190.5"/>
<text text-anchor="middle" x="366.5" y="-197.5" font-family="Helvetica,sans-Serif" font-size="10.00">inst/include/pspm_interface.h</text>
</a>
</g>
</g>
<!-- Node2 -->
<g id="node2" class="node">
<title>Node2</title>
<g id="a_node2"><a xlink:href="light__environment_8cpp.html" target="_top" xlink:title=" ">
<polygon fill="none" stroke="black" points="0,-129 0,-148 143,-148 143,-129 0,-129"/>
<text text-anchor="middle" x="71.5" y="-136" font-family="Helvetica,sans-Serif" font-size="10.00">src/light_environment.cpp</text>
</a>
</g>
</g>
<!-- Node1&#45;&gt;Node2 -->
<g id="edge1" class="edge">
<title>Node1&#45;&gt;Node2</title>
<path fill="none" stroke="midnightblue" d="M314.31,-188.47C257.14,-176.94 166.55,-158.67 113.69,-148.01"/>
<polygon fill="midnightblue" stroke="midnightblue" points="313.74,-191.93 324.23,-190.48 315.12,-185.07 313.74,-191.93"/>
</g>
<!-- Node3 -->
<g id="node3" class="node">
<title>Node3</title>
<g id="a_node3"><a xlink:href="pspm__interface_8cpp.html" target="_top" xlink:title=" ">
<polygon fill="none" stroke="black" points="161.5,-129 161.5,-148 291.5,-148 291.5,-129 161.5,-129"/>
<text text-anchor="middle" x="226.5" y="-136" font-family="Helvetica,sans-Serif" font-size="10.00">src/pspm_interface.cpp</text>
</a>
</g>
</g>
<!-- Node1&#45;&gt;Node3 -->
<g id="edge2" class="edge">
<title>Node1&#45;&gt;Node3</title>
<path fill="none" stroke="midnightblue" d="M337.04,-186.48C309.85,-174.92 270.21,-158.08 246.52,-148.01"/>
<polygon fill="midnightblue" stroke="midnightblue" points="335.87,-189.78 346.44,-190.48 338.61,-183.34 335.87,-189.78"/>
</g>
<!-- Node4 -->
<g id="node4" class="node">
<title>Node4</title>
<g id="a_node4"><a xlink:href="r__interface_8cpp.html" target="_top" xlink:title=" ">
<polygon fill="none" stroke="black" points="206,-0.5 206,-19.5 313,-19.5 313,-0.5 206,-0.5"/>
<text text-anchor="middle" x="259.5" y="-7.5" font-family="Helvetica,sans-Serif" font-size="10.00">src/r_interface.cpp</text>
</a>
</g>
</g>
<!-- Node1&#45;&gt;Node4 -->
<g id="edge3" class="edge">
<title>Node1&#45;&gt;Node4</title>
<path fill="none" stroke="midnightblue" d="M355.61,-181.97C350.34,-173.61 343.98,-163.34 338.5,-154 309.07,-103.85 276.12,-42.32 264.15,-19.79"/>
<polygon fill="midnightblue" stroke="midnightblue" points="352.68,-183.89 361,-190.45 358.59,-180.14 352.68,-183.89"/>
</g>
<!-- Node5 -->
<g id="node5" class="node">
<title>Node5</title>
<g id="a_node5"><a xlink:href="community__properties_8h.html" target="_top" xlink:title=" ">
<polygon fill="none" stroke="black" points="348,-123.5 348,-153.5 479,-153.5 479,-123.5 348,-123.5"/>
<text text-anchor="start" x="356" y="-141.5" font-family="Helvetica,sans-Serif" font-size="10.00">inst/include/community</text>
<text text-anchor="middle" x="413.5" y="-130.5" font-family="Helvetica,sans-Serif" font-size="10.00">_properties.h</text>
</a>
</g>
</g>
<!-- Node1&#45;&gt;Node5 -->
<g id="edge4" class="edge">
<title>Node1&#45;&gt;Node5</title>
<path fill="none" stroke="midnightblue" d="M379.51,-182.53C386.71,-173.42 395.56,-162.21 402.42,-153.52"/>
<polygon fill="midnightblue" stroke="midnightblue" points="376.69,-180.46 373.23,-190.48 382.18,-184.8 376.69,-180.46"/>
</g>
<!-- Node7 -->
<g id="node7" class="node">
<title>Node7</title>
<g id="a_node7"><a xlink:href="plantfate__patch_8h.html" target="_top" xlink:title=" ">
<polygon fill="none" stroke="black" points="447.5,-56.5 447.5,-86.5 567.5,-86.5 567.5,-56.5 447.5,-56.5"/>
<text text-anchor="start" x="455.5" y="-74.5" font-family="Helvetica,sans-Serif" font-size="10.00">inst/include/plantfate</text>
<text text-anchor="middle" x="507.5" y="-63.5" font-family="Helvetica,sans-Serif" font-size="10.00">_patch.h</text>
</a>
</g>
</g>
<!-- Node1&#45;&gt;Node7 -->
<g id="edge11" class="edge">
<title>Node1&#45;&gt;Node7</title>
<path fill="none" stroke="midnightblue" d="M430.92,-187.56C451.56,-180.93 472.83,-170.47 487.5,-154 504.26,-135.18 507.5,-104.58 507.84,-86.71"/>
<polygon fill="midnightblue" stroke="midnightblue" points="429.8,-184.24 421.2,-190.43 431.78,-190.96 429.8,-184.24"/>
</g>
<!-- Node10 -->
<g id="node10" class="node">
<title>Node10</title>
<g id="a_node10"><a xlink:href="state__restore_8h.html" target="_top" xlink:title=" ">
<polygon fill="none" stroke="black" points="536,-123.5 536,-153.5 637,-153.5 637,-123.5 536,-123.5"/>
<text text-anchor="start" x="544" y="-141.5" font-family="Helvetica,sans-Serif" font-size="10.00">inst/include/state</text>
<text text-anchor="middle" x="586.5" y="-130.5" font-family="Helvetica,sans-Serif" font-size="10.00">_restore.h</text>
</a>
</g>
</g>
<!-- Node1&#45;&gt;Node10 -->
<g id="edge12" class="edge">
<title>Node1&#45;&gt;Node10</title>
<path fill="none" stroke="midnightblue" d="M407.79,-187.83C444.11,-178.01 497.07,-163.69 535.92,-153.18"/>
<polygon fill="midnightblue" stroke="midnightblue" points="406.76,-184.49 398.02,-190.48 408.59,-191.24 406.76,-184.49"/>
</g>
<!-- Node6 -->
<g id="node6" class="node">
<title>Node6</title>
<g id="a_node6"><a xlink:href="community__properties_8cpp.html" target="_top" xlink:title=" ">
<polygon fill="none" stroke="black" points="331.5,-0.5 331.5,-19.5 495.5,-19.5 495.5,-0.5 331.5,-0.5"/>
<text text-anchor="middle" x="413.5" y="-7.5" font-family="Helvetica,sans-Serif" font-size="10.00">src/community_properties.cpp</text>
</a>
</g>
</g>
<!-- Node5&#45;&gt;Node6 -->
<g id="edge5" class="edge">
<title>Node5&#45;&gt;Node6</title>
<path fill="none" stroke="midnightblue" d="M413.5,-113.14C413.5,-84.62 413.5,-38.86 413.5,-19.79"/>
<polygon fill="midnightblue" stroke="midnightblue" points="410,-113.48 413.5,-123.48 417,-113.48 410,-113.48"/>
</g>
<!-- Node5&#45;&gt;Node7 -->
<g id="edge6" class="edge">
<title>Node5&#45;&gt;Node7</title>
<path fill="none" stroke="midnightblue" d="M442.49,-117.45C456.95,-107.45 474.09,-95.6 487.14,-86.58"/>
<polygon fill="midnightblue" stroke="midnightblue" points="440.13,-114.83 433.9,-123.4 444.11,-120.59 440.13,-114.83"/>
</g>
<!-- Node7&#45;&gt;Node4 -->
<g id="edge9" class="edge">
<title>Node7&#45;&gt;Node4</title>
<path fill="none" stroke="midnightblue" d="M439.28,-54.13C392.55,-42.92 332.46,-28.5 294.96,-19.51"/>
<polygon fill="midnightblue" stroke="midnightblue" points="438.5,-57.55 449.04,-56.47 440.13,-50.74 438.5,-57.55"/>
</g>
<!-- Node7&#45;&gt;Node6 -->
<g id="edge7" class="edge">
<title>Node7&#45;&gt;Node6</title>
<path fill="none" stroke="midnightblue" d="M476.34,-50.78C459.68,-40.23 440.01,-27.78 427.18,-19.66"/>
<polygon fill="midnightblue" stroke="midnightblue" points="474.9,-54.01 485.22,-56.4 478.65,-48.09 474.9,-54.01"/>
</g>
<!-- Node8 -->
<g id="node8" class="node">
<title>Node8</title>
<g id="a_node8"><a xlink:href="plantfate__patch_8cpp.html" target="_top" xlink:title=" ">
<polygon fill="none" stroke="black" points="514,-0.5 514,-19.5 645,-19.5 645,-0.5 514,-0.5"/>
<text text-anchor="middle" x="579.5" y="-7.5" font-family="Helvetica,sans-Serif" font-size="10.00">src/plantfate_patch.cpp</text>
</a>
</g>
</g>
<!-- Node7&#45;&gt;Node8 -->
<g id="edge8" class="edge">
<title>Node7&#45;&gt;Node8</title>
<path fill="none" stroke="midnightblue" d="M532.44,-49.89C544.96,-39.54 559.46,-27.56 569.02,-19.66"/>
<polygon fill="midnightblue" stroke="midnightblue" points="530.04,-47.33 524.56,-56.4 534.5,-52.73 530.04,-47.33"/>
</g>
<!-- Node9 -->
<g id="node9" class="node">
<title>Node9</title>
<g id="a_node9"><a xlink:href="state__restore_8cpp.html" target="_top" xlink:title=" ">
<polygon fill="none" stroke="black" points="663,-0.5 663,-19.5 782,-19.5 782,-0.5 663,-0.5"/>
<text text-anchor="middle" x="722.5" y="-7.5" font-family="Helvetica,sans-Serif" font-size="10.00">src/state_restore.cpp</text>
</a>
</g>
</g>
<!-- Node7&#45;&gt;Node9 -->
<g id="edge10" class="edge">
<title>Node7&#45;&gt;Node9</title>
<path fill="none" stroke="midnightblue" d="M567.91,-53.78C608.24,-42.62 659.59,-28.41 691.76,-19.51"/>
<polygon fill="midnightblue" stroke="midnightblue" points="566.88,-50.43 558.18,-56.47 568.75,-57.18 566.88,-50.43"/>
</g>
<!-- Node10&#45;&gt;Node7 -->
<g id="edge14" class="edge">
<title>Node10&#45;&gt;Node7</title>
<path fill="none" stroke="midnightblue" d="M561.44,-116.88C549.44,-107.01 535.37,-95.43 524.61,-86.58"/>
<polygon fill="midnightblue" stroke="midnightblue" points="559.41,-119.75 569.36,-123.4 563.86,-114.34 559.41,-119.75"/>
</g>
<!-- Node10&#45;&gt;Node9 -->
<g id="edge13" class="edge">
<title>Node10&#45;&gt;Node9</title>
<path fill="none" stroke="midnightblue" d="M609.12,-116.46C639.39,-88.3 691.73,-39.62 713.05,-19.79"/>
<polygon fill="midnightblue" stroke="midnightblue" points="606.51,-114.11 601.57,-123.48 611.28,-119.23 606.51,-114.11"/>
</g>
</g>
</svg>
