<?xml version="1.0" encoding="UTF-8" standalone="no"?>
<!DOCTYPE svg PUBLIC "-//W3C//DTD SVG 1.1//EN"
 "http://www.w3.org/Graphics/SVG/1.1/DTD/svg11.dtd">
<!-- Generated by graphviz version 2.43.0 (0)
 -->
<!-- Title: src/pspm_interface.cpp Pages: 1 -->
<svg width="1237pt" height="420pt"
 viewBox="0.00 0.00 1236.50 420.00" xmlns="http://www.w3.org/2000/svg" xmlns:xlink="http://www.w3.org/1999/xlink">
<g id="graph0" class="graph" transform="scale(1 1) rotate(0) translate(4 416)">
<title>src/pspm_interface.cpp</title>
<!-- Node1 -->
<g id="node1" class="node">
<title>Node1</title>
<g id="a_node1"><a xlink:title=" ">
<polygon fill="#bfbfbf" stroke="black" points="837,-392.5 837,-411.5 967,-411.5 967,-392.5 837,-392.5"/>
<text text-anchor="middle" x="902" y="-399.5" font-family="Helvetica,sans-Serif" font-size="10.00">src/pspm_interface.cpp</text>
</a>
</g>
</g>
<!-- Node2 -->
<g id="node2" class="node">
<title>Node2</title>
<g id="a_node2"><a xlink:href="pspm__interface_8h.html" target="_top" xlink:title=" ">
<polygon fill="none" stroke="black" points="677.5,-336.5 677.5,-355.5 778.5,-355.5 778.5,-336.5 677.5,-336.5"/>
<text text-anchor="middle" x="728" y="-343.5" font-family="Helvetica,sans-Serif" font-size="10.00">pspm_interface.h</text>
</a>
</g>
</g>
<!-- Node1&#45;&gt;Node2 -->
<g id="edge1" class="edge">
<title>Node1&#45;&gt;Node2</title>
<path fill="none" stroke="midnightblue" d="M874.43,-392.44C844.9,-383.28 797.88,-368.69 765.12,-358.52"/>
<polygon fill="midnightblue" stroke="midnightblue" points="766.03,-355.14 755.44,-355.52 763.96,-361.82 766.03,-355.14"/>
</g>
<!-- Node31 -->
<g id="node31" class="node">
<title>Node31</title>
<g id="a_node31"><a xlink:href="adaptive__species_8h.html" target="_top" xlink:title=" ">
<polygon fill="none" stroke="black" points="865,-112.5 865,-131.5 975,-131.5 975,-112.5 865,-112.5"/>
<text text-anchor="middle" x="920" y="-119.5" font-family="Helvetica,sans-Serif" font-size="10.00">adaptive_species.h</text>
</a>
</g>
</g>
<!-- Node1&#45;&gt;Node31 -->
<g id="edge52" class="edge">
<title>Node1&#45;&gt;Node31</title>
<path fill="none" stroke="midnightblue" d="M902,-392.44C902,-373.94 902,-328.81 902,-291 902,-291 902,-291 902,-233 902,-200.54 909.73,-163.38 915.06,-141.63"/>
<polygon fill="midnightblue" stroke="midnightblue" points="918.49,-142.32 917.57,-131.76 911.71,-140.59 918.49,-142.32"/>
</g>
<!-- Node33 -->
<g id="node33" class="node">
<title>Node33</title>
<g id="a_node33"><a xlink:title=" ">
<polygon fill="none" stroke="#bfbfbf" points="930,-336.5 930,-355.5 986,-355.5 986,-336.5 930,-336.5"/>
<text text-anchor="middle" x="958" y="-343.5" font-family="Helvetica,sans-Serif" font-size="10.00">iomanip</text>
</a>
</g>
</g>
<!-- Node1&#45;&gt;Node33 -->
<g id="edge59" class="edge">
<title>Node1&#45;&gt;Node33</title>
<path fill="none" stroke="midnightblue" d="M911,-392.32C919.19,-384.42 931.51,-372.55 941.47,-362.94"/>
<polygon fill="midnightblue" stroke="midnightblue" points="944.07,-365.29 948.84,-355.83 939.21,-360.26 944.07,-365.29"/>
</g>
<!-- Node3 -->
<g id="node3" class="node">
<title>Node3</title>
<g id="a_node3"><a xlink:title=" ">
<polygon fill="none" stroke="#bfbfbf" points="716,-280.5 716,-299.5 818,-299.5 818,-280.5 716,-280.5"/>
<text text-anchor="middle" x="767" y="-287.5" font-family="Helvetica,sans-Serif" font-size="10.00">individual_base.h</text>
</a>
</g>
</g>
<!-- Node2&#45;&gt;Node3 -->
<g id="edge2" class="edge">
<title>Node2&#45;&gt;Node3</title>
<path fill="none" stroke="midnightblue" d="M734.44,-336.08C739.95,-328.46 748.03,-317.26 754.76,-307.94"/>
<polygon fill="midnightblue" stroke="midnightblue" points="757.66,-309.91 760.68,-299.75 751.99,-305.81 757.66,-309.91"/>
</g>
<!-- Node4 -->
<g id="node4" class="node">
<title>Node4</title>
<g id="a_node4"><a xlink:title=" ">
<polygon fill="none" stroke="#bfbfbf" points="809,-56.5 809,-75.5 865,-75.5 865,-56.5 809,-56.5"/>
<text text-anchor="middle" x="837" y="-63.5" font-family="Helvetica,sans-Serif" font-size="10.00">solver.h</text>
</a>
</g>
</g>
<!-- Node2&#45;&gt;Node4 -->
<g id="edge3" class="edge">
<title>Node2&#45;&gt;Node4</title>
<path fill="none" stroke="midnightblue" d="M770.9,-336.46C791.41,-330.03 814.22,-318.94 827,-300 872.52,-232.52 852.72,-127.34 842.11,-85.28"/>
<polygon fill="midnightblue" stroke="midnightblue" points="845.49,-84.36 839.54,-75.59 838.72,-86.15 845.49,-84.36"/>
</g>
<!-- Node5 -->
<g id="node5" class="node">
<title>Node5</title>
<g id="a_node5"><a xlink:href="light__environment_8h.html" target="_top" xlink:title=" ">
<polygon fill="none" stroke="black" points="630.5,-112.5 630.5,-131.5 745.5,-131.5 745.5,-112.5 630.5,-112.5"/>
<text text-anchor="middle" x="688" y="-119.5" font-family="Helvetica,sans-Serif" font-size="10.00">light_environment.h</text>
</a>
</g>
</g>
<!-- Node2&#45;&gt;Node5 -->
<g id="edge4" class="edge">
<title>Node2&#45;&gt;Node5</title>
<path fill="none" stroke="midnightblue" d="M722.92,-336.37C717.98,-327.54 710.7,-313.29 707,-300 691.41,-244.05 688.47,-174.87 688.01,-142.02"/>
<polygon fill="midnightblue" stroke="midnightblue" points="691.51,-141.64 687.93,-131.66 684.51,-141.69 691.51,-141.64"/>
</g>
<!-- Node9 -->
<g id="node9" class="node">
<title>Node9</title>
<g id="a_node9"><a xlink:href="climate_8h.html" target="_top" xlink:title=" ">
<polygon fill="none" stroke="black" points="231,-56.5 231,-75.5 293,-75.5 293,-56.5 231,-56.5"/>
<text text-anchor="middle" x="262" y="-63.5" font-family="Helvetica,sans-Serif" font-size="10.00">climate.h</text>
</a>
</g>
</g>
<!-- Node2&#45;&gt;Node9 -->
<g id="edge9" class="edge">
<title>Node2&#45;&gt;Node9</title>
<path fill="none" stroke="midnightblue" d="M721.86,-336.31C704.17,-311.46 652.88,-240.79 630,-224 540.24,-158.13 499,-176.62 397,-132 358.58,-115.19 315.02,-93.78 288.02,-80.22"/>
<polygon fill="midnightblue" stroke="midnightblue" points="289.37,-76.98 278.86,-75.61 286.22,-83.24 289.37,-76.98"/>
</g>
<!-- Node15 -->
<g id="node15" class="node">
<title>Node15</title>
<g id="a_node15"><a xlink:href="plant_8h.html" target="_top" xlink:title=" ">
<polygon fill="none" stroke="black" points="465,-280.5 465,-299.5 515,-299.5 515,-280.5 465,-280.5"/>
<text text-anchor="middle" x="490" y="-287.5" font-family="Helvetica,sans-Serif" font-size="10.00">plant.h</text>
</a>
</g>
</g>
<!-- Node2&#45;&gt;Node15 -->
<g id="edge17" class="edge">
<title>Node2&#45;&gt;Node15</title>
<path fill="none" stroke="midnightblue" d="M690.29,-336.44C644.91,-326.15 569.31,-308.99 525.11,-298.97"/>
<polygon fill="midnightblue" stroke="midnightblue" points="525.65,-295.5 515.12,-296.7 524.1,-302.33 525.65,-295.5"/>
</g>
<!-- Node5&#45;&gt;Node4 -->
<g id="edge8" class="edge">
<title>Node5&#45;&gt;Node4</title>
<path fill="none" stroke="midnightblue" d="M711.61,-112.44C736.46,-103.44 775.77,-89.19 803.75,-79.05"/>
<polygon fill="midnightblue" stroke="midnightblue" points="805.29,-82.21 813.5,-75.52 802.91,-75.63 805.29,-82.21"/>
</g>
<!-- Node6 -->
<g id="node6" class="node">
<title>Node6</title>
<g id="a_node6"><a xlink:title=" ">
<polygon fill="none" stroke="#bfbfbf" points="635,-0.5 635,-19.5 695,-19.5 695,-0.5 635,-0.5"/>
<text text-anchor="middle" x="665" y="-7.5" font-family="Helvetica,sans-Serif" font-size="10.00">iostream</text>
</a>
</g>
</g>
<!-- Node5&#45;&gt;Node6 -->
<g id="edge5" class="edge">
<title>Node5&#45;&gt;Node6</title>
<path fill="none" stroke="midnightblue" d="M686.2,-112.37C682.48,-94.62 673.92,-53.67 668.89,-29.6"/>
<polygon fill="midnightblue" stroke="midnightblue" points="672.27,-28.66 666.8,-19.59 665.42,-30.1 672.27,-28.66"/>
</g>
<!-- Node7 -->
<g id="node7" class="node">
<title>Node7</title>
<g id="a_node7"><a xlink:title=" ">
<polygon fill="none" stroke="#bfbfbf" points="757.5,-0.5 757.5,-19.5 804.5,-19.5 804.5,-0.5 757.5,-0.5"/>
<text text-anchor="middle" x="781" y="-7.5" font-family="Helvetica,sans-Serif" font-size="10.00">vector</text>
</a>
</g>
</g>
<!-- Node5&#45;&gt;Node7 -->
<g id="edge6" class="edge">
<title>Node5&#45;&gt;Node7</title>
<path fill="none" stroke="midnightblue" d="M710.16,-112.43C726.42,-105.08 747.88,-92.96 761,-76 771.37,-62.59 776.4,-43.77 778.82,-29.83"/>
<polygon fill="midnightblue" stroke="midnightblue" points="782.29,-30.29 780.25,-19.89 775.36,-29.29 782.29,-30.29"/>
</g>
<!-- Node8 -->
<g id="node8" class="node">
<title>Node8</title>
<g id="a_node8"><a xlink:title=" ">
<polygon fill="none" stroke="#bfbfbf" points="519,-56.5 519,-75.5 635,-75.5 635,-56.5 519,-56.5"/>
<text text-anchor="middle" x="577" y="-63.5" font-family="Helvetica,sans-Serif" font-size="10.00">environment_base.h</text>
</a>
</g>
</g>
<!-- Node5&#45;&gt;Node8 -->
<g id="edge7" class="edge">
<title>Node5&#45;&gt;Node8</title>
<path fill="none" stroke="midnightblue" d="M670.17,-112.32C652.28,-103.62 624.52,-90.12 603.95,-80.11"/>
<polygon fill="midnightblue" stroke="midnightblue" points="605.31,-76.88 594.79,-75.65 602.25,-83.18 605.31,-76.88"/>
</g>
<!-- Node9&#45;&gt;Node6 -->
<g id="edge13" class="edge">
<title>Node9&#45;&gt;Node6</title>
<path fill="none" stroke="midnightblue" d="M293.38,-57.6C296.28,-57.01 299.19,-56.47 302,-56 441.69,-32.6 481.4,-43.8 624.79,-20.02"/>
<polygon fill="midnightblue" stroke="midnightblue" points="625.56,-23.44 634.84,-18.33 624.39,-16.54 625.56,-23.44"/>
</g>
<!-- Node9&#45;&gt;Node7 -->
<g id="edge15" class="edge">
<title>Node9&#45;&gt;Node7</title>
<path fill="none" stroke="midnightblue" d="M293.37,-57.53C296.28,-56.96 299.19,-56.44 302,-56 479.22,-28.25 525.57,-38.41 704,-20 718.16,-18.54 733.75,-16.75 747.19,-15.15"/>
<polygon fill="midnightblue" stroke="midnightblue" points="747.92,-18.59 757.43,-13.92 747.08,-11.64 747.92,-18.59"/>
</g>
<!-- Node10 -->
<g id="node10" class="node">
<title>Node10</title>
<g id="a_node10"><a xlink:title=" ">
<polygon fill="none" stroke="#bfbfbf" points="573,-0.5 573,-19.5 617,-19.5 617,-0.5 573,-0.5"/>
<text text-anchor="middle" x="595" y="-7.5" font-family="Helvetica,sans-Serif" font-size="10.00">string</text>
</a>
</g>
</g>
<!-- Node9&#45;&gt;Node10 -->
<g id="edge10" class="edge">
<title>Node9&#45;&gt;Node10</title>
<path fill="none" stroke="midnightblue" d="M293.39,-57.67C296.3,-57.08 299.2,-56.51 302,-56 414.07,-35.7 446.6,-43.45 562.72,-19.76"/>
<polygon fill="midnightblue" stroke="midnightblue" points="563.64,-23.15 572.72,-17.69 562.21,-16.29 563.64,-23.15"/>
</g>
<!-- Node11 -->
<g id="node11" class="node">
<title>Node11</title>
<g id="a_node11"><a xlink:title=" ">
<polygon fill="none" stroke="#bfbfbf" points="167.5,-0.5 167.5,-19.5 222.5,-19.5 222.5,-0.5 167.5,-0.5"/>
<text text-anchor="middle" x="195" y="-7.5" font-family="Helvetica,sans-Serif" font-size="10.00">fstream</text>
</a>
</g>
</g>
<!-- Node9&#45;&gt;Node11 -->
<g id="edge11" class="edge">
<title>Node9&#45;&gt;Node11</title>
<path fill="none" stroke="midnightblue" d="M251.24,-56.32C241.23,-48.26 226.11,-36.08 214.07,-26.37"/>
<polygon fill="midnightblue" stroke="midnightblue" points="215.94,-23.38 205.96,-19.83 211.55,-28.83 215.94,-23.38"/>
</g>
<!-- Node12 -->
<g id="node12" class="node">
<title>Node12</title>
<g id="a_node12"><a xlink:title=" ">
<polygon fill="none" stroke="#bfbfbf" points="241,-0.5 241,-19.5 297,-19.5 297,-0.5 241,-0.5"/>
<text text-anchor="middle" x="269" y="-7.5" font-family="Helvetica,sans-Serif" font-size="10.00">sstream</text>
</a>
</g>
</g>
<!-- Node9&#45;&gt;Node12 -->
<g id="edge12" class="edge">
<title>Node9&#45;&gt;Node12</title>
<path fill="none" stroke="midnightblue" d="M263.16,-56.08C264.08,-48.93 265.42,-38.64 266.58,-29.69"/>
<polygon fill="midnightblue" stroke="midnightblue" points="270.05,-30.12 267.87,-19.75 263.11,-29.22 270.05,-30.12"/>
</g>
<!-- Node13 -->
<g id="node13" class="node">
<title>Node13</title>
<g id="a_node13"><a xlink:title=" ">
<polygon fill="none" stroke="#bfbfbf" points="102.5,-0.5 102.5,-19.5 149.5,-19.5 149.5,-0.5 102.5,-0.5"/>
<text text-anchor="middle" x="126" y="-7.5" font-family="Helvetica,sans-Serif" font-size="10.00">cmath</text>
</a>
</g>
</g>
<!-- Node9&#45;&gt;Node13 -->
<g id="edge14" class="edge">
<title>Node9&#45;&gt;Node13</title>
<path fill="none" stroke="midnightblue" d="M240.45,-56.44C217.97,-47.52 182.51,-33.44 157.02,-23.32"/>
<polygon fill="midnightblue" stroke="midnightblue" points="158.03,-19.95 147.45,-19.52 155.45,-26.46 158.03,-19.95"/>
</g>
<!-- Node14 -->
<g id="node14" class="node">
<title>Node14</title>
<g id="a_node14"><a xlink:title=" ">
<polygon fill="none" stroke="#bfbfbf" points="23.5,-0.5 23.5,-19.5 82.5,-19.5 82.5,-0.5 23.5,-0.5"/>
<text text-anchor="middle" x="53" y="-7.5" font-family="Helvetica,sans-Serif" font-size="10.00">phydro.h</text>
</a>
</g>
</g>
<!-- Node9&#45;&gt;Node14 -->
<g id="edge16" class="edge">
<title>Node9&#45;&gt;Node14</title>
<path fill="none" stroke="midnightblue" d="M230.71,-56.92C193.86,-47.4 132.61,-31.57 92.52,-21.21"/>
<polygon fill="midnightblue" stroke="midnightblue" points="93.37,-17.81 82.81,-18.7 91.61,-24.59 93.37,-17.81"/>
</g>
<!-- Node15&#45;&gt;Node11 -->
<g id="edge18" class="edge">
<title>Node15&#45;&gt;Node11</title>
<path fill="none" stroke="midnightblue" d="M464.64,-288.21C416.96,-285.96 311.41,-277.29 230,-244 189.49,-227.44 169.32,-226.76 149,-188 120.55,-133.74 161.12,-60.72 182.83,-28.05"/>
<polygon fill="midnightblue" stroke="midnightblue" points="185.85,-29.83 188.62,-19.61 180.08,-25.87 185.85,-29.83"/>
</g>
<!-- Node16 -->
<g id="node16" class="node">
<title>Node16</title>
<g id="a_node16"><a xlink:href="traits__params_8h.html" target="_top" xlink:title=" ">
<polygon fill="none" stroke="black" points="406.5,-112.5 406.5,-131.5 499.5,-131.5 499.5,-112.5 406.5,-112.5"/>
<text text-anchor="middle" x="453" y="-119.5" font-family="Helvetica,sans-Serif" font-size="10.00">traits_params.h</text>
</a>
</g>
</g>
<!-- Node15&#45;&gt;Node16 -->
<g id="edge19" class="edge">
<title>Node15&#45;&gt;Node16</title>
<path fill="none" stroke="midnightblue" d="M488.01,-280.08C482.19,-253.95 465.08,-177.21 457.14,-141.58"/>
<polygon fill="midnightblue" stroke="midnightblue" points="460.5,-140.57 454.91,-131.57 453.67,-142.09 460.5,-140.57"/>
</g>
<!-- Node17 -->
<g id="node17" class="node">
<title>Node17</title>
<g id="a_node17"><a xlink:href="initializer__v2_8h.html" target="_top" xlink:title=" ">
<polygon fill="none" stroke="black" points="311.5,-56.5 311.5,-75.5 424.5,-75.5 424.5,-56.5 311.5,-56.5"/>
<text text-anchor="middle" x="368" y="-63.5" font-family="Helvetica,sans-Serif" font-size="10.00">utils/initializer_v2.h</text>
</a>
</g>
</g>
<!-- Node15&#45;&gt;Node17 -->
<g id="edge49" class="edge">
<title>Node15&#45;&gt;Node17</title>
<path fill="none" stroke="midnightblue" d="M494.63,-280.2C508.56,-252.39 546.75,-165.16 508,-112 491.06,-88.76 461.91,-77.26 434.58,-71.66"/>
<polygon fill="midnightblue" stroke="midnightblue" points="435.09,-68.2 424.63,-69.86 433.84,-75.09 435.09,-68.2"/>
</g>
<!-- Node23 -->
<g id="node23" class="node">
<title>Node23</title>
<g id="a_node23"><a xlink:href="plant__architecture_8h.html" target="_top" xlink:title=" ">
<polygon fill="none" stroke="black" points="310,-168.5 310,-187.5 424,-187.5 424,-168.5 310,-168.5"/>
<text text-anchor="middle" x="367" y="-175.5" font-family="Helvetica,sans-Serif" font-size="10.00">plant_architecture.h</text>
</a>
</g>
</g>
<!-- Node15&#45;&gt;Node23 -->
<g id="edge33" class="edge">
<title>Node15&#45;&gt;Node23</title>
<path fill="none" stroke="midnightblue" d="M480.35,-280.37C459.6,-261.81 410.51,-217.91 384.26,-194.44"/>
<polygon fill="midnightblue" stroke="midnightblue" points="386.39,-191.65 376.61,-187.59 381.73,-196.87 386.39,-191.65"/>
</g>
<!-- Node24 -->
<g id="node24" class="node">
<title>Node24</title>
<g id="a_node24"><a xlink:href="assimilation_8h.html" target="_top" xlink:title=" ">
<polygon fill="none" stroke="black" points="239,-224.5 239,-243.5 325,-243.5 325,-224.5 239,-224.5"/>
<text text-anchor="middle" x="282" y="-231.5" font-family="Helvetica,sans-Serif" font-size="10.00">assimilation.h</text>
</a>
</g>
</g>
<!-- Node15&#45;&gt;Node24 -->
<g id="edge36" class="edge">
<title>Node15&#45;&gt;Node24</title>
<path fill="none" stroke="midnightblue" d="M464.91,-282.49C430.2,-273.47 367.04,-257.08 324.79,-246.11"/>
<polygon fill="midnightblue" stroke="midnightblue" points="325.62,-242.71 315.06,-243.58 323.86,-249.48 325.62,-242.71"/>
</g>
<!-- Node26 -->
<g id="node26" class="node">
<title>Node26</title>
<g id="a_node26"><a xlink:href="rk4_8h.html" target="_top" xlink:title=" ">
<polygon fill="none" stroke="black" points="556.5,-224.5 556.5,-243.5 621.5,-243.5 621.5,-224.5 556.5,-224.5"/>
<text text-anchor="middle" x="589" y="-231.5" font-family="Helvetica,sans-Serif" font-size="10.00">utils/rk4.h</text>
</a>
</g>
</g>
<!-- Node15&#45;&gt;Node26 -->
<g id="edge41" class="edge">
<title>Node15&#45;&gt;Node26</title>
<path fill="none" stroke="midnightblue" d="M505.91,-280.32C521.64,-271.74 545.94,-258.49 564.21,-248.52"/>
<polygon fill="midnightblue" stroke="midnightblue" points="566.03,-251.52 573.13,-243.65 562.68,-245.37 566.03,-251.52"/>
</g>
<!-- Node27 -->
<g id="node27" class="node">
<title>Node27</title>
<g id="a_node27"><a xlink:href="moving__average_8h.html" target="_top" xlink:title=" ">
<polygon fill="none" stroke="black" points="1097.5,-56.5 1097.5,-75.5 1228.5,-75.5 1228.5,-56.5 1097.5,-56.5"/>
<text text-anchor="middle" x="1163" y="-63.5" font-family="Helvetica,sans-Serif" font-size="10.00">utils/moving_average.h</text>
</a>
</g>
</g>
<!-- Node15&#45;&gt;Node27 -->
<g id="edge42" class="edge">
<title>Node15&#45;&gt;Node27</title>
<path fill="none" stroke="midnightblue" d="M515.05,-281.43C587.81,-259.37 805.31,-192.81 984,-132 1035.78,-114.38 1095.4,-92.38 1131.09,-79.03"/>
<polygon fill="midnightblue" stroke="midnightblue" points="1132.36,-82.29 1140.5,-75.5 1129.91,-75.74 1132.36,-82.29"/>
</g>
<!-- Node30 -->
<g id="node30" class="node">
<title>Node30</title>
<g id="a_node30"><a xlink:href="plant_8tpp.html" target="_top" xlink:title=" ">
<polygon fill="none" stroke="black" points="0,-168.5 0,-187.5 60,-187.5 60,-168.5 0,-168.5"/>
<text text-anchor="middle" x="30" y="-175.5" font-family="Helvetica,sans-Serif" font-size="10.00">plant.tpp</text>
</a>
</g>
</g>
<!-- Node15&#45;&gt;Node30 -->
<g id="edge50" class="edge">
<title>Node15&#45;&gt;Node30</title>
<path fill="none" stroke="midnightblue" d="M464.81,-287.68C391.56,-283.58 179.83,-269.75 116,-244 88.21,-232.79 61.55,-210.18 45.47,-194.81"/>
<polygon fill="midnightblue" stroke="midnightblue" points="47.66,-192.06 38.07,-187.54 42.75,-197.04 47.66,-192.06"/>
</g>
<!-- Node16&#45;&gt;Node10 -->
<g id="edge31" class="edge">
<title>Node16&#45;&gt;Node10</title>
<path fill="none" stroke="midnightblue" d="M453.93,-112.2C455.84,-98.43 461.43,-71.73 477,-56 483.36,-49.57 530.51,-32.75 563.24,-21.59"/>
<polygon fill="midnightblue" stroke="midnightblue" points="564.53,-24.85 572.88,-18.33 562.29,-18.22 564.53,-24.85"/>
</g>
<!-- Node16&#45;&gt;Node13 -->
<g id="edge30" class="edge">
<title>Node16&#45;&gt;Node13</title>
<path fill="none" stroke="midnightblue" d="M406.27,-117.44C358.45,-112.53 282.75,-101.24 222,-76 192.29,-63.66 162.25,-41.39 143.88,-26.4"/>
<polygon fill="midnightblue" stroke="midnightblue" points="145.77,-23.42 135.85,-19.7 141.29,-28.79 145.77,-23.42"/>
</g>
<!-- Node16&#45;&gt;Node17 -->
<g id="edge20" class="edge">
<title>Node16&#45;&gt;Node17</title>
<path fill="none" stroke="midnightblue" d="M439.34,-112.32C426.08,-103.9 405.73,-90.97 390.15,-81.07"/>
<polygon fill="midnightblue" stroke="midnightblue" points="391.94,-78.06 381.62,-75.65 388.19,-83.97 391.94,-78.06"/>
</g>
<!-- Node21 -->
<g id="node21" class="node">
<title>Node21</title>
<g id="a_node21"><a xlink:title=" ">
<polygon fill="none" stroke="#bfbfbf" points="691.5,-56.5 691.5,-75.5 752.5,-75.5 752.5,-56.5 691.5,-56.5"/>
<text text-anchor="middle" x="722" y="-63.5" font-family="Helvetica,sans-Serif" font-size="10.00">io_utils.h</text>
</a>
</g>
</g>
<!-- Node16&#45;&gt;Node21 -->
<g id="edge29" class="edge">
<title>Node16&#45;&gt;Node21</title>
<path fill="none" stroke="midnightblue" d="M495.62,-112.44C546.63,-102.2 631.4,-85.19 681.46,-75.14"/>
<polygon fill="midnightblue" stroke="midnightblue" points="682.17,-78.56 691.29,-73.16 680.8,-71.7 682.17,-78.56"/>
</g>
<!-- Node22 -->
<g id="node22" class="node">
<title>Node22</title>
<g id="a_node22"><a xlink:title=" ">
<polygon fill="none" stroke="#bfbfbf" points="950,-0.5 950,-19.5 1002,-19.5 1002,-0.5 950,-0.5"/>
<text text-anchor="middle" x="976" y="-7.5" font-family="Helvetica,sans-Serif" font-size="10.00">cassert</text>
</a>
</g>
</g>
<!-- Node16&#45;&gt;Node22 -->
<g id="edge32" class="edge">
<title>Node16&#45;&gt;Node22</title>
<path fill="none" stroke="midnightblue" d="M457.61,-112.4C465.92,-97.89 484.89,-68.87 510,-56 547.94,-36.56 836.74,-18.75 939.69,-12.97"/>
<polygon fill="midnightblue" stroke="midnightblue" points="940.11,-16.45 949.9,-12.4 939.72,-9.46 940.11,-16.45"/>
</g>
<!-- Node17&#45;&gt;Node6 -->
<g id="edge21" class="edge">
<title>Node17&#45;&gt;Node6</title>
<path fill="none" stroke="midnightblue" d="M422.02,-56.45C472.08,-48.33 548.86,-35.38 624.61,-20.2"/>
<polygon fill="midnightblue" stroke="midnightblue" points="625.69,-23.55 634.8,-18.14 624.31,-16.69 625.69,-23.55"/>
</g>
<!-- Node17&#45;&gt;Node7 -->
<g id="edge25" class="edge">
<title>Node17&#45;&gt;Node7</title>
<path fill="none" stroke="midnightblue" d="M424.56,-57.6C511.76,-46.2 676.37,-24.68 747.2,-15.42"/>
<polygon fill="midnightblue" stroke="midnightblue" points="747.88,-18.86 757.34,-14.09 746.97,-11.92 747.88,-18.86"/>
</g>
<!-- Node17&#45;&gt;Node10 -->
<g id="edge23" class="edge">
<title>Node17&#45;&gt;Node10</title>
<path fill="none" stroke="midnightblue" d="M407.35,-56.49C444.75,-48.28 502.79,-35.21 562.65,-19.99"/>
<polygon fill="midnightblue" stroke="midnightblue" points="563.84,-23.3 572.66,-17.43 562.1,-16.52 563.84,-23.3"/>
</g>
<!-- Node17&#45;&gt;Node11 -->
<g id="edge24" class="edge">
<title>Node17&#45;&gt;Node11</title>
<path fill="none" stroke="midnightblue" d="M340.59,-56.44C311.23,-47.28 264.48,-32.69 231.9,-22.52"/>
<polygon fill="midnightblue" stroke="midnightblue" points="232.87,-19.16 222.28,-19.52 230.79,-25.84 232.87,-19.16"/>
</g>
<!-- Node17&#45;&gt;Node12 -->
<g id="edge26" class="edge">
<title>Node17&#45;&gt;Node12</title>
<path fill="none" stroke="midnightblue" d="M352.09,-56.32C336.36,-47.74 312.06,-34.49 293.79,-24.52"/>
<polygon fill="midnightblue" stroke="midnightblue" points="295.32,-21.37 284.87,-19.65 291.97,-27.52 295.32,-21.37"/>
</g>
<!-- Node18 -->
<g id="node18" class="node">
<title>Node18</title>
<g id="a_node18"><a xlink:title=" ">
<polygon fill="none" stroke="#bfbfbf" points="427,-0.5 427,-19.5 471,-19.5 471,-0.5 427,-0.5"/>
<text text-anchor="middle" x="449" y="-7.5" font-family="Helvetica,sans-Serif" font-size="10.00">regex</text>
</a>
</g>
</g>
<!-- Node17&#45;&gt;Node18 -->
<g id="edge22" class="edge">
<title>Node17&#45;&gt;Node18</title>
<path fill="none" stroke="midnightblue" d="M381.01,-56.32C393.53,-47.98 412.68,-35.21 427.47,-25.35"/>
<polygon fill="midnightblue" stroke="midnightblue" points="429.64,-28.11 436.02,-19.65 425.76,-22.29 429.64,-28.11"/>
</g>
<!-- Node19 -->
<g id="node19" class="node">
<title>Node19</title>
<g id="a_node19"><a xlink:title=" ">
<polygon fill="none" stroke="#bfbfbf" points="489.5,-0.5 489.5,-19.5 554.5,-19.5 554.5,-0.5 489.5,-0.5"/>
<text text-anchor="middle" x="522" y="-7.5" font-family="Helvetica,sans-Serif" font-size="10.00">stdexcept</text>
</a>
</g>
</g>
<!-- Node17&#45;&gt;Node19 -->
<g id="edge27" class="edge">
<title>Node17&#45;&gt;Node19</title>
<path fill="none" stroke="midnightblue" d="M392.4,-56.44C418.2,-47.4 459.08,-33.06 488.02,-22.92"/>
<polygon fill="midnightblue" stroke="midnightblue" points="489.43,-26.13 497.71,-19.52 487.12,-19.52 489.43,-26.13"/>
</g>
<!-- Node20 -->
<g id="node20" class="node">
<title>Node20</title>
<g id="a_node20"><a xlink:title=" ">
<polygon fill="none" stroke="#bfbfbf" points="315.5,-0.5 315.5,-19.5 408.5,-19.5 408.5,-0.5 315.5,-0.5"/>
<text text-anchor="middle" x="362" y="-7.5" font-family="Helvetica,sans-Serif" font-size="10.00">unordered_map</text>
</a>
</g>
</g>
<!-- Node17&#45;&gt;Node20 -->
<g id="edge28" class="edge">
<title>Node17&#45;&gt;Node20</title>
<path fill="none" stroke="midnightblue" d="M367.01,-56.08C366.21,-48.93 365.07,-38.64 364.08,-29.69"/>
<polygon fill="midnightblue" stroke="midnightblue" points="367.56,-29.3 362.97,-19.75 360.6,-30.08 367.56,-29.3"/>
</g>
<!-- Node23&#45;&gt;Node13 -->
<g id="edge34" class="edge">
<title>Node23&#45;&gt;Node13</title>
<path fill="none" stroke="midnightblue" d="M345.81,-168.44C309.8,-153.26 235.36,-119.13 182,-76 164.7,-62.02 148.54,-42.24 138.06,-28.18"/>
<polygon fill="midnightblue" stroke="midnightblue" points="140.75,-25.92 132.05,-19.88 135.08,-30.03 140.75,-25.92"/>
</g>
<!-- Node23&#45;&gt;Node16 -->
<g id="edge35" class="edge">
<title>Node23&#45;&gt;Node16</title>
<path fill="none" stroke="midnightblue" d="M380.82,-168.32C394.23,-159.9 414.82,-146.97 430.59,-137.07"/>
<polygon fill="midnightblue" stroke="midnightblue" points="432.61,-139.94 439.22,-131.65 428.89,-134.01 432.61,-139.94"/>
</g>
<!-- Node24&#45;&gt;Node14 -->
<g id="edge37" class="edge">
<title>Node24&#45;&gt;Node14</title>
<path fill="none" stroke="midnightblue" d="M238.75,-226.75C210.57,-220.81 174.45,-209.44 149,-188 97.15,-144.32 68.76,-65.24 58.05,-29.46"/>
<polygon fill="midnightblue" stroke="midnightblue" points="61.41,-28.48 55.28,-19.84 54.68,-30.42 61.41,-28.48"/>
</g>
<!-- Node24&#45;&gt;Node16 -->
<g id="edge38" class="edge">
<title>Node24&#45;&gt;Node16</title>
<path fill="none" stroke="midnightblue" d="M282.04,-224.1C282.6,-210.2 285.73,-183.32 301,-168 325.98,-142.93 364.21,-131.7 396.08,-126.72"/>
<polygon fill="midnightblue" stroke="midnightblue" points="396.76,-130.16 406.18,-125.31 395.8,-123.22 396.76,-130.16"/>
</g>
<!-- Node24&#45;&gt;Node23 -->
<g id="edge39" class="edge">
<title>Node24&#45;&gt;Node23</title>
<path fill="none" stroke="midnightblue" d="M295.66,-224.32C308.92,-215.9 329.27,-202.97 344.85,-193.07"/>
<polygon fill="midnightblue" stroke="midnightblue" points="346.81,-195.97 353.38,-187.65 343.06,-190.06 346.81,-195.97"/>
</g>
<!-- Node25 -->
<g id="node25" class="node">
<title>Node25</title>
<g id="a_node25"><a xlink:href="assimilation_8tpp.html" target="_top" xlink:title=" ">
<polygon fill="none" stroke="black" points="158.5,-168.5 158.5,-187.5 253.5,-187.5 253.5,-168.5 158.5,-168.5"/>
<text text-anchor="middle" x="206" y="-175.5" font-family="Helvetica,sans-Serif" font-size="10.00">assimilation.tpp</text>
</a>
</g>
</g>
<!-- Node24&#45;&gt;Node25 -->
<g id="edge40" class="edge">
<title>Node24&#45;&gt;Node25</title>
<path fill="none" stroke="midnightblue" d="M269.79,-224.32C258.22,-216.11 240.62,-203.6 226.84,-193.81"/>
<polygon fill="midnightblue" stroke="midnightblue" points="228.61,-190.77 218.43,-187.83 224.56,-196.48 228.61,-190.77"/>
</g>
<!-- Node27&#45;&gt;Node6 -->
<g id="edge43" class="edge">
<title>Node27&#45;&gt;Node6</title>
<path fill="none" stroke="midnightblue" d="M1097.16,-57.05C1094.06,-56.69 1091,-56.34 1088,-56 937,-38.95 899.09,-36.19 748,-20 734.1,-18.51 718.9,-16.87 705.35,-15.4"/>
<polygon fill="midnightblue" stroke="midnightblue" points="705.67,-11.91 695.35,-14.31 704.92,-18.87 705.67,-11.91"/>
</g>
<!-- Node27&#45;&gt;Node7 -->
<g id="edge47" class="edge">
<title>Node27&#45;&gt;Node7</title>
<path fill="none" stroke="midnightblue" d="M1102.47,-56.44C1021.16,-44.95 879.43,-24.91 814.83,-15.78"/>
<polygon fill="midnightblue" stroke="midnightblue" points="815.17,-12.3 804.78,-14.36 814.19,-19.23 815.17,-12.3"/>
</g>
<!-- Node27&#45;&gt;Node13 -->
<g id="edge45" class="edge">
<title>Node27&#45;&gt;Node13</title>
<path fill="none" stroke="midnightblue" d="M1097.18,-56.8C1094.08,-56.51 1091.01,-56.24 1088,-56 678.97,-23.59 568.37,-83.46 159.65,-19.89"/>
<polygon fill="midnightblue" stroke="midnightblue" points="160.05,-16.41 149.63,-18.31 158.96,-23.32 160.05,-16.41"/>
</g>
<!-- Node27&#45;&gt;Node22 -->
<g id="edge46" class="edge">
<title>Node27&#45;&gt;Node22</title>
<path fill="none" stroke="midnightblue" d="M1133.37,-56.44C1100.47,-46.94 1047.36,-31.61 1012.07,-21.41"/>
<polygon fill="midnightblue" stroke="midnightblue" points="1012.75,-17.97 1002.17,-18.56 1010.81,-24.7 1012.75,-17.97"/>
</g>
<!-- Node28 -->
<g id="node28" class="node">
<title>Node28</title>
<g id="a_node28"><a xlink:title=" ">
<polygon fill="none" stroke="#bfbfbf" points="1114,-0.5 1114,-19.5 1146,-19.5 1146,-0.5 1114,-0.5"/>
<text text-anchor="middle" x="1130" y="-7.5" font-family="Helvetica,sans-Serif" font-size="10.00">list</text>
</a>
</g>
</g>
<!-- Node27&#45;&gt;Node28 -->
<g id="edge44" class="edge">
<title>Node27&#45;&gt;Node28</title>
<path fill="none" stroke="midnightblue" d="M1157.55,-56.08C1152.99,-48.61 1146.33,-37.72 1140.71,-28.52"/>
<polygon fill="midnightblue" stroke="midnightblue" points="1143.55,-26.46 1135.35,-19.75 1137.58,-30.11 1143.55,-26.46"/>
</g>
<!-- Node29 -->
<g id="node29" class="node">
<title>Node29</title>
<g id="a_node29"><a xlink:title=" ">
<polygon fill="none" stroke="#bfbfbf" points="1164,-0.5 1164,-19.5 1228,-19.5 1228,-0.5 1164,-0.5"/>
<text text-anchor="middle" x="1196" y="-7.5" font-family="Helvetica,sans-Serif" font-size="10.00">algorithm</text>
</a>
</g>
</g>
<!-- Node27&#45;&gt;Node29 -->
<g id="edge48" class="edge">
<title>Node27&#45;&gt;Node29</title>
<path fill="none" stroke="midnightblue" d="M1168.45,-56.08C1173.01,-48.61 1179.67,-37.72 1185.29,-28.52"/>
<polygon fill="midnightblue" stroke="midnightblue" points="1188.42,-30.11 1190.65,-19.75 1182.45,-26.46 1188.42,-30.11"/>
</g>
<!-- Node30&#45;&gt;Node13 -->
<g id="edge51" class="edge">
<title>Node30&#45;&gt;Node13</title>
<path fill="none" stroke="midnightblue" d="M35.16,-168.08C50.4,-141.72 95.42,-63.88 115.79,-28.66"/>
<polygon fill="midnightblue" stroke="midnightblue" points="119.07,-29.98 121.04,-19.57 113.01,-26.47 119.07,-29.98"/>
</g>
<!-- Node31&#45;&gt;Node4 -->
<g id="edge53" class="edge">
<title>Node31&#45;&gt;Node4</title>
<path fill="none" stroke="midnightblue" d="M906.66,-112.32C893.84,-103.98 874.22,-91.21 859.06,-81.35"/>
<polygon fill="midnightblue" stroke="midnightblue" points="860.59,-78.17 850.3,-75.65 856.78,-84.04 860.59,-78.17"/>
</g>
<!-- Node31&#45;&gt;Node7 -->
<g id="edge54" class="edge">
<title>Node31&#45;&gt;Node7</title>
<path fill="none" stroke="midnightblue" d="M920.78,-112.27C921.5,-98.59 920.84,-72.02 907,-56 883.8,-29.15 843.43,-18.32 814.64,-13.95"/>
<polygon fill="midnightblue" stroke="midnightblue" points="814.98,-10.47 804.61,-12.62 814.06,-17.41 814.98,-10.47"/>
</g>
<!-- Node31&#45;&gt;Node10 -->
<g id="edge55" class="edge">
<title>Node31&#45;&gt;Node10</title>
<path fill="none" stroke="midnightblue" d="M916.48,-112.09C910.27,-97.66 895.93,-69.43 874,-56 781.71,0.52 737.39,-41.07 627.07,-19.88"/>
<polygon fill="midnightblue" stroke="midnightblue" points="627.76,-16.45 617.26,-17.86 626.35,-23.3 627.76,-16.45"/>
</g>
<!-- Node31&#45;&gt;Node21 -->
<g id="edge56" class="edge">
<title>Node31&#45;&gt;Node21</title>
<path fill="none" stroke="midnightblue" d="M888.63,-112.44C854.54,-103.15 799.96,-88.26 762.62,-78.08"/>
<polygon fill="midnightblue" stroke="midnightblue" points="763.14,-74.59 752.58,-75.34 761.3,-81.35 763.14,-74.59"/>
</g>
<!-- Node31&#45;&gt;Node27 -->
<g id="edge57" class="edge">
<title>Node31&#45;&gt;Node27</title>
<path fill="none" stroke="midnightblue" d="M958.5,-112.44C1000.81,-103.04 1068.82,-87.93 1114.67,-77.74"/>
<polygon fill="midnightblue" stroke="midnightblue" points="1115.67,-81.1 1124.68,-75.52 1114.15,-74.27 1115.67,-81.1"/>
</g>
<!-- Node32 -->
<g id="node32" class="node">
<title>Node32</title>
<g id="a_node32"><a xlink:href="adaptive__species_8tpp.html" target="_top" xlink:title=" ">
<polygon fill="none" stroke="black" points="959,-56.5 959,-75.5 1079,-75.5 1079,-56.5 959,-56.5"/>
<text text-anchor="middle" x="1019" y="-63.5" font-family="Helvetica,sans-Serif" font-size="10.00">adaptive_species.tpp</text>
</a>
</g>
</g>
<!-- Node31&#45;&gt;Node32 -->
<g id="edge58" class="edge">
<title>Node31&#45;&gt;Node32</title>
<path fill="none" stroke="midnightblue" d="M935.91,-112.32C951.64,-103.74 975.94,-90.49 994.21,-80.52"/>
<polygon fill="midnightblue" stroke="midnightblue" points="996.03,-83.52 1003.13,-75.65 992.68,-77.37 996.03,-83.52"/>
</g>
</g>
</svg>
