<?xml version="1.0" encoding="UTF-8" standalone="no"?>
<!DOCTYPE svg PUBLIC "-//W3C//DTD SVG 1.1//EN"
 "http://www.w3.org/Graphics/SVG/1.1/DTD/svg11.dtd">
<!-- Generated by graphviz version 2.43.0 (0)
 -->
<!-- Title: RCPP_MODULE Pages: 1 -->
<svg width="853pt" height="1718pt"
 viewBox="0.00 0.00 853.00 1717.50" xmlns="http://www.w3.org/2000/svg" xmlns:xlink="http://www.w3.org/1999/xlink">
<g id="graph0" class="graph" transform="scale(1 1) rotate(0) translate(4 1713.5)">
<title>RCPP_MODULE</title>
<!-- Node1 -->
<g id="node1" class="node">
<title>Node1</title>
<g id="a_node1"><a xlink:title=" ">
<polygon fill="#bfbfbf" stroke="black" points="0,-465.5 0,-484.5 90,-484.5 90,-465.5 0,-465.5"/>
<text text-anchor="middle" x="45" y="-472.5" font-family="Helvetica,sans-Serif" font-size="10.00">RCPP_MODULE</text>
</a>
</g>
</g>
<!-- Node2 -->
<g id="node2" class="node">
<title>Node2</title>
<g id="a_node2"><a xlink:href="classpfate_1_1LifeHistoryOptimizer.html#a34aebe9641428e3d0bcb1d59ec936e8f" target="_top" xlink:title=" ">
<polygon fill="none" stroke="black" points="130.5,-1441 130.5,-1471 279.5,-1471 279.5,-1441 130.5,-1441"/>
<text text-anchor="start" x="138.5" y="-1459" font-family="Helvetica,sans-Serif" font-size="10.00">pfate::LifeHistoryOptimizer</text>
<text text-anchor="middle" x="205" y="-1448" font-family="Helvetica,sans-Serif" font-size="10.00">::calcFitness</text>
</a>
</g>
</g>
<!-- Node1&#45;&gt;Node2 -->
<g id="edge1" class="edge">
<title>Node1&#45;&gt;Node2</title>
<path fill="none" stroke="midnightblue" d="M46.02,-484.59C46.36,-569.88 51.35,-1199.6 126,-1370 137.15,-1395.46 158.92,-1418.44 176.63,-1434.23"/>
<polygon fill="midnightblue" stroke="midnightblue" points="174.57,-1437.08 184.43,-1440.96 179.15,-1431.78 174.57,-1437.08"/>
</g>
<!-- Node3 -->
<g id="node3" class="node">
<title>Node3</title>
<g id="a_node3"><a xlink:href="classpfate_1_1LifeHistoryOptimizer.html#ad68ae2c0d92d28dbe0cc5d5ef03a695b" target="_top" xlink:title=" ">
<polygon fill="none" stroke="black" points="323,-1498 323,-1528 472,-1528 472,-1498 323,-1498"/>
<text text-anchor="start" x="331" y="-1516" font-family="Helvetica,sans-Serif" font-size="10.00">pfate::LifeHistoryOptimizer</text>
<text text-anchor="middle" x="397.5" y="-1505" font-family="Helvetica,sans-Serif" font-size="10.00">::grow_for_dt</text>
</a>
</g>
</g>
<!-- Node1&#45;&gt;Node3 -->
<g id="edge24" class="edge">
<title>Node1&#45;&gt;Node3</title>
<path fill="none" stroke="midnightblue" d="M46.2,-484.94C47.89,-563.47 61.43,-1084.26 126,-1225 181.51,-1345.98 308.27,-1449.02 366.39,-1491.81"/>
<polygon fill="midnightblue" stroke="midnightblue" points="364.63,-1494.86 374.78,-1497.92 368.75,-1489.21 364.63,-1494.86"/>
</g>
<!-- Node38 -->
<g id="node13" class="node">
<title>Node38</title>
<g id="a_node13"><a xlink:href="classpfate_1_1Patch.html#ab76971ff4ca9bf75128d6bbe186d9456" target="_top" xlink:title=" ">
<polygon fill="none" stroke="black" points="151.5,-754.5 151.5,-773.5 258.5,-773.5 258.5,-754.5 151.5,-754.5"/>
<text text-anchor="middle" x="205" y="-761.5" font-family="Helvetica,sans-Serif" font-size="10.00">pfate::Patch::close</text>
</a>
</g>
</g>
<!-- Node1&#45;&gt;Node38 -->
<g id="edge13" class="edge">
<title>Node1&#45;&gt;Node38</title>
<path fill="none" stroke="midnightblue" d="M45.69,-484.58C44.98,-523.41 47.75,-670.5 126,-745 130.64,-749.41 136.12,-752.86 142,-755.53"/>
<polygon fill="midnightblue" stroke="midnightblue" points="140.91,-758.86 151.5,-759.14 143.39,-752.32 140.91,-758.86"/>
</g>
<!-- Node42 -->
<g id="node16" class="node">
<title>Node42</title>
<g id="a_node16"><a xlink:href="classpfate_1_1LifeHistoryOptimizer.html#ac9004c61872dc9fce0db50b54092f9a0" target="_top" xlink:title=" ">
<polygon fill="none" stroke="black" points="130.5,-705 130.5,-735 279.5,-735 279.5,-705 130.5,-705"/>
<text text-anchor="start" x="138.5" y="-723" font-family="Helvetica,sans-Serif" font-size="10.00">pfate::LifeHistoryOptimizer</text>
<text text-anchor="middle" x="205" y="-712" font-family="Helvetica,sans-Serif" font-size="10.00">::get_header</text>
</a>
</g>
</g>
<!-- Node1&#45;&gt;Node42 -->
<g id="edge16" class="edge">
<title>Node1&#45;&gt;Node42</title>
<path fill="none" stroke="midnightblue" d="M46.54,-484.57C48.98,-518.6 61.88,-634.94 126,-696 127.12,-697.07 128.29,-698.09 129.5,-699.07"/>
<polygon fill="midnightblue" stroke="midnightblue" points="127.77,-702.12 138,-704.87 131.72,-696.34 127.77,-702.12"/>
</g>
<!-- Node43 -->
<g id="node17" class="node">
<title>Node43</title>
<g id="a_node17"><a xlink:href="classpfate_1_1LifeHistoryOptimizer.html#a05951c4085bd4f5a06fbbb66b8c3092d" target="_top" xlink:title=" ">
<polygon fill="none" stroke="black" points="130.5,-656 130.5,-686 279.5,-686 279.5,-656 130.5,-656"/>
<text text-anchor="start" x="138.5" y="-674" font-family="Helvetica,sans-Serif" font-size="10.00">pfate::LifeHistoryOptimizer</text>
<text text-anchor="middle" x="205" y="-663" font-family="Helvetica,sans-Serif" font-size="10.00">::get_state</text>
</a>
</g>
</g>
<!-- Node1&#45;&gt;Node43 -->
<g id="edge17" class="edge">
<title>Node1&#45;&gt;Node43</title>
<path fill="none" stroke="midnightblue" d="M47.69,-484.84C53.24,-514.1 73.62,-601.34 126,-647 127.36,-648.18 128.77,-649.31 130.24,-650.38"/>
<polygon fill="midnightblue" stroke="midnightblue" points="128.76,-653.58 139.09,-655.92 132.47,-647.65 128.76,-653.58"/>
</g>
<!-- Node46 -->
<g id="node23" class="node">
<title>Node46</title>
<g id="a_node23"><a xlink:href="classpfate_1_1LifeHistoryOptimizer.html#a498360fd80194590570542dcecd524c7" target="_top" xlink:title=" ">
<polygon fill="none" stroke="black" points="130.5,-1185 130.5,-1215 279.5,-1215 279.5,-1185 130.5,-1185"/>
<text text-anchor="start" x="138.5" y="-1203" font-family="Helvetica,sans-Serif" font-size="10.00">pfate::LifeHistoryOptimizer</text>
<text text-anchor="middle" x="205" y="-1192" font-family="Helvetica,sans-Serif" font-size="10.00">::init</text>
</a>
</g>
</g>
<!-- Node1&#45;&gt;Node46 -->
<g id="edge25" class="edge">
<title>Node1&#45;&gt;Node46</title>
<path fill="none" stroke="midnightblue" d="M46.88,-484.74C51.68,-536.39 76.35,-783.2 126,-979 144.53,-1052.08 177.1,-1135.15 193.68,-1175.46"/>
<polygon fill="midnightblue" stroke="midnightblue" points="190.47,-1176.86 197.53,-1184.76 196.94,-1174.18 190.47,-1176.86"/>
</g>
<!-- Node54 -->
<g id="node30" class="node">
<title>Node54</title>
<g id="a_node30"><a xlink:href="classpfate_1_1Patch.html#ad2e4b86b03a6a6834a363bf19c1d9587" target="_top" xlink:title=" ">
<polygon fill="none" stroke="black" points="156.5,-950.5 156.5,-969.5 253.5,-969.5 253.5,-950.5 156.5,-950.5"/>
<text text-anchor="middle" x="205" y="-957.5" font-family="Helvetica,sans-Serif" font-size="10.00">pfate::Patch::init</text>
</a>
</g>
</g>
<!-- Node1&#45;&gt;Node54 -->
<g id="edge34" class="edge">
<title>Node1&#45;&gt;Node54</title>
<path fill="none" stroke="midnightblue" d="M47.93,-484.75C55.69,-523.25 86.09,-668.2 126,-783 146.6,-842.25 178.66,-909.26 194.49,-941.17"/>
<polygon fill="midnightblue" stroke="midnightblue" points="191.43,-942.87 199.03,-950.24 197.69,-939.74 191.43,-942.87"/>
</g>
<!-- Node65 -->
<g id="node36" class="node">
<title>Node65</title>
<g id="a_node36"><a xlink:href="classpfate_1_1LifeHistoryOptimizer.html#a60eea13e196d80026972af2f3001e77f" target="_top" xlink:title=" ">
<polygon fill="none" stroke="black" points="130.5,-607 130.5,-637 279.5,-637 279.5,-607 130.5,-607"/>
<text text-anchor="start" x="138.5" y="-625" font-family="Helvetica,sans-Serif" font-size="10.00">pfate::LifeHistoryOptimizer</text>
<text text-anchor="middle" x="205" y="-614" font-family="Helvetica,sans-Serif" font-size="10.00">::init_co2</text>
</a>
</g>
</g>
<!-- Node1&#45;&gt;Node65 -->
<g id="edge44" class="edge">
<title>Node1&#45;&gt;Node65</title>
<path fill="none" stroke="midnightblue" d="M49.56,-484.63C58.6,-507.76 84.72,-566.86 126,-598 127.84,-599.39 129.76,-600.69 131.74,-601.93"/>
<polygon fill="midnightblue" stroke="midnightblue" points="130.33,-605.14 140.78,-606.86 133.68,-599 130.33,-605.14"/>
</g>
<!-- Node67 -->
<g id="node38" class="node">
<title>Node67</title>
<g id="a_node38"><a xlink:href="classplant_1_1PlantTraits.html#af1b5c6670167f20bf2d5f3e0001fd1d7" target="_top" xlink:title=" ">
<polygon fill="none" stroke="black" points="155.5,-558 155.5,-588 254.5,-588 254.5,-558 155.5,-558"/>
<text text-anchor="start" x="163.5" y="-576" font-family="Helvetica,sans-Serif" font-size="10.00">plant::PlantTraits</text>
<text text-anchor="middle" x="205" y="-565" font-family="Helvetica,sans-Serif" font-size="10.00">::print</text>
</a>
</g>
</g>
<!-- Node1&#45;&gt;Node67 -->
<g id="edge46" class="edge">
<title>Node1&#45;&gt;Node67</title>
<path fill="none" stroke="midnightblue" d="M53.83,-484.63C67.09,-500.33 95.5,-531.44 126,-549 132.02,-552.47 138.6,-555.49 145.3,-558.1"/>
<polygon fill="midnightblue" stroke="midnightblue" points="144.56,-561.56 155.15,-561.65 146.93,-554.97 144.56,-561.56"/>
</g>
<!-- Node68 -->
<g id="node39" class="node">
<title>Node68</title>
<g id="a_node39"><a xlink:href="classplant_1_1PlantParameters.html#ac7416aef692bccb9fe19bf7baa2c1326" target="_top" xlink:title=" ">
<polygon fill="none" stroke="black" points="141,-509 141,-539 269,-539 269,-509 141,-509"/>
<text text-anchor="start" x="149" y="-527" font-family="Helvetica,sans-Serif" font-size="10.00">plant::PlantParameters</text>
<text text-anchor="middle" x="205" y="-516" font-family="Helvetica,sans-Serif" font-size="10.00">::print</text>
</a>
</g>
</g>
<!-- Node1&#45;&gt;Node68 -->
<g id="edge47" class="edge">
<title>Node1&#45;&gt;Node68</title>
<path fill="none" stroke="midnightblue" d="M76.38,-484.53C91.32,-489.21 109.6,-494.91 126,-500 132.13,-501.9 138.53,-503.88 144.91,-505.85"/>
<polygon fill="midnightblue" stroke="midnightblue" points="144.3,-509.32 154.89,-508.93 146.37,-502.63 144.3,-509.32"/>
</g>
<!-- Node69 -->
<g id="node40" class="node">
<title>Node69</title>
<g id="a_node40"><a xlink:href="classpfate_1_1env_1_1Climate.html#a14147e113abc14eb88ed139502b1b93e" target="_top" xlink:title=" ">
<polygon fill="none" stroke="black" points="150,-460 150,-490 260,-490 260,-460 150,-460"/>
<text text-anchor="start" x="158" y="-478" font-family="Helvetica,sans-Serif" font-size="10.00">pfate::env::Climate</text>
<text text-anchor="middle" x="205" y="-467" font-family="Helvetica,sans-Serif" font-size="10.00">::print</text>
</a>
</g>
</g>
<!-- Node1&#45;&gt;Node69 -->
<g id="edge48" class="edge">
<title>Node1&#45;&gt;Node69</title>
<path fill="none" stroke="midnightblue" d="M90.01,-475C105.36,-475 122.92,-475 139.58,-475"/>
<polygon fill="midnightblue" stroke="midnightblue" points="139.81,-478.5 149.81,-475 139.81,-471.5 139.81,-478.5"/>
</g>
<!-- Node70 -->
<g id="node41" class="node">
<title>Node70</title>
<g id="a_node41"><a xlink:href="classpfate_1_1env_1_1LightEnvironment.html#a4e860fde582057e21537d5d6747f4dbc" target="_top" xlink:title=" ">
<polygon fill="none" stroke="black" points="126,-411 126,-441 284,-441 284,-411 126,-411"/>
<text text-anchor="start" x="134" y="-429" font-family="Helvetica,sans-Serif" font-size="10.00">pfate::env::LightEnvironment</text>
<text text-anchor="middle" x="205" y="-418" font-family="Helvetica,sans-Serif" font-size="10.00">::print</text>
</a>
</g>
</g>
<!-- Node1&#45;&gt;Node70 -->
<g id="edge49" class="edge">
<title>Node1&#45;&gt;Node70</title>
<path fill="none" stroke="midnightblue" d="M76.84,-465.44C96.41,-459.37 122.35,-451.32 145.69,-444.08"/>
<polygon fill="midnightblue" stroke="midnightblue" points="147,-447.34 155.51,-441.04 144.93,-440.66 147,-447.34"/>
</g>
<!-- Node71 -->
<g id="node42" class="node">
<title>Node71</title>
<g id="a_node42"><a xlink:href="classpfate_1_1ErgodicEnvironment.html#a342c3ec04d748bdf6ddb0fc863aedbaa" target="_top" xlink:title=" ">
<polygon fill="none" stroke="black" points="324.5,-340 324.5,-370 470.5,-370 470.5,-340 324.5,-340"/>
<text text-anchor="start" x="332.5" y="-358" font-family="Helvetica,sans-Serif" font-size="10.00">pfate::ErgodicEnvironment</text>
<text text-anchor="middle" x="397.5" y="-347" font-family="Helvetica,sans-Serif" font-size="10.00">::print</text>
</a>
</g>
</g>
<!-- Node1&#45;&gt;Node71 -->
<g id="edge50" class="edge">
<title>Node1&#45;&gt;Node71</title>
<path fill="none" stroke="midnightblue" d="M48.79,-465.26C56.41,-440.8 80.1,-376.9 126,-352 189.96,-317.3 275.59,-325.7 333.23,-337.75"/>
<polygon fill="midnightblue" stroke="midnightblue" points="332.78,-341.23 343.3,-339.95 334.27,-334.39 332.78,-341.23"/>
</g>
<!-- Node72 -->
<g id="node43" class="node">
<title>Node72</title>
<g id="a_node43"><a xlink:href="classpfate_1_1LifeHistoryOptimizer.html#ae55d76e297c7f599d00bea55334c517d" target="_top" xlink:title=" ">
<polygon fill="none" stroke="red" points="130.5,-362 130.5,-392 279.5,-392 279.5,-362 130.5,-362"/>
<text text-anchor="start" x="138.5" y="-380" font-family="Helvetica,sans-Serif" font-size="10.00">pfate::LifeHistoryOptimizer</text>
<text text-anchor="middle" x="205" y="-369" font-family="Helvetica,sans-Serif" font-size="10.00">::printMeta</text>
</a>
</g>
</g>
<!-- Node1&#45;&gt;Node72 -->
<g id="edge51" class="edge">
<title>Node1&#45;&gt;Node72</title>
<path fill="none" stroke="midnightblue" d="M54.32,-465.04C67.83,-449.46 96.06,-419.34 126,-402 129.67,-399.88 133.54,-397.91 137.52,-396.09"/>
<polygon fill="midnightblue" stroke="midnightblue" points="139.1,-399.22 146.95,-392.1 136.37,-392.77 139.1,-399.22"/>
</g>
<!-- Node74 -->
<g id="node44" class="node">
<title>Node74</title>
<g id="a_node44"><a xlink:href="classpfate_1_1LifeHistoryOptimizer.html#a6442e1e047113ab3f96e56d80d7080f8" target="_top" xlink:title=" ">
<polygon fill="none" stroke="black" points="130.5,-274 130.5,-304 279.5,-304 279.5,-274 130.5,-274"/>
<text text-anchor="start" x="138.5" y="-292" font-family="Helvetica,sans-Serif" font-size="10.00">pfate::LifeHistoryOptimizer</text>
<text text-anchor="middle" x="205" y="-281" font-family="Helvetica,sans-Serif" font-size="10.00">::set_a_metFile</text>
</a>
</g>
</g>
<!-- Node1&#45;&gt;Node74 -->
<g id="edge53" class="edge">
<title>Node1&#45;&gt;Node74</title>
<path fill="none" stroke="midnightblue" d="M48.31,-465.46C55.3,-438.59 78.68,-361.52 126,-319 130.36,-315.09 135.28,-311.66 140.48,-308.67"/>
<polygon fill="midnightblue" stroke="midnightblue" points="142.17,-311.73 149.44,-304.03 138.95,-305.52 142.17,-311.73"/>
</g>
<!-- Node75 -->
<g id="node45" class="node">
<title>Node75</title>
<g id="a_node45"><a xlink:href="classpfate_1_1Patch.html#a65bb4cfd0e87dd7017811a6ff1737722" target="_top" xlink:title=" ">
<polygon fill="none" stroke="black" points="151.5,-225 151.5,-255 258.5,-255 258.5,-225 151.5,-225"/>
<text text-anchor="start" x="159.5" y="-243" font-family="Helvetica,sans-Serif" font-size="10.00">pfate::Patch::set_a</text>
<text text-anchor="middle" x="205" y="-232" font-family="Helvetica,sans-Serif" font-size="10.00">_metFile</text>
</a>
</g>
</g>
<!-- Node1&#45;&gt;Node75 -->
<g id="edge54" class="edge">
<title>Node1&#45;&gt;Node75</title>
<path fill="none" stroke="midnightblue" d="M46.73,-465.4C49.76,-432.31 64.28,-321.89 126,-264 130.68,-259.61 136.14,-256.02 141.97,-253.09"/>
<polygon fill="midnightblue" stroke="midnightblue" points="143.59,-256.2 151.36,-249 140.79,-249.79 143.59,-256.2"/>
</g>
<!-- Node76 -->
<g id="node46" class="node">
<title>Node76</title>
<g id="a_node46"><a xlink:href="classpfate_1_1LifeHistoryOptimizer.html#a1d2e17e81685eb71837d11069ecb22c7" target="_top" xlink:title=" ">
<polygon fill="none" stroke="black" points="130.5,-176 130.5,-206 279.5,-206 279.5,-176 130.5,-176"/>
<text text-anchor="start" x="138.5" y="-194" font-family="Helvetica,sans-Serif" font-size="10.00">pfate::LifeHistoryOptimizer</text>
<text text-anchor="middle" x="205" y="-183" font-family="Helvetica,sans-Serif" font-size="10.00">::set_co2File</text>
</a>
</g>
</g>
<!-- Node1&#45;&gt;Node76 -->
<g id="edge55" class="edge">
<title>Node1&#45;&gt;Node76</title>
<path fill="none" stroke="midnightblue" d="M45.94,-465.38C46.25,-427.68 52.53,-288.47 126,-215 126.96,-214.04 127.95,-213.12 128.98,-212.24"/>
<polygon fill="midnightblue" stroke="midnightblue" points="131.37,-214.83 137.45,-206.16 127.28,-209.15 131.37,-214.83"/>
</g>
<!-- Node77 -->
<g id="node47" class="node">
<title>Node77</title>
<g id="a_node47"><a xlink:href="classpfate_1_1Patch.html#ae3329fc40060265528e302fd75bd3b20" target="_top" xlink:title=" ">
<polygon fill="none" stroke="black" points="137.5,-137.5 137.5,-156.5 272.5,-156.5 272.5,-137.5 137.5,-137.5"/>
<text text-anchor="middle" x="205" y="-144.5" font-family="Helvetica,sans-Serif" font-size="10.00">pfate::Patch::set_co2File</text>
</a>
</g>
</g>
<!-- Node1&#45;&gt;Node77 -->
<g id="edge56" class="edge">
<title>Node1&#45;&gt;Node77</title>
<path fill="none" stroke="midnightblue" d="M47.16,-465.39C53.07,-418.04 81.31,-210.06 126,-166 127.45,-164.57 128.99,-163.24 130.61,-162"/>
<polygon fill="midnightblue" stroke="midnightblue" points="132.62,-164.87 139.22,-156.59 128.9,-158.95 132.62,-164.87"/>
</g>
<!-- Node78 -->
<g id="node48" class="node">
<title>Node78</title>
<g id="a_node48"><a xlink:href="classpfate_1_1LifeHistoryOptimizer.html#a4423e3179c1224d26d25520a707afcc1" target="_top" xlink:title=" ">
<polygon fill="none" stroke="black" points="130.5,-88 130.5,-118 279.5,-118 279.5,-88 130.5,-88"/>
<text text-anchor="start" x="138.5" y="-106" font-family="Helvetica,sans-Serif" font-size="10.00">pfate::LifeHistoryOptimizer</text>
<text text-anchor="middle" x="205" y="-95" font-family="Helvetica,sans-Serif" font-size="10.00">::set_i_metFile</text>
</a>
</g>
</g>
<!-- Node1&#45;&gt;Node78 -->
<g id="edge57" class="edge">
<title>Node1&#45;&gt;Node78</title>
<path fill="none" stroke="midnightblue" d="M46.95,-465.32C52.11,-414.59 78.29,-179.87 126,-128 127.22,-126.67 128.52,-125.41 129.88,-124.21"/>
<polygon fill="midnightblue" stroke="midnightblue" points="132.24,-126.82 138.24,-118.08 128.1,-121.17 132.24,-126.82"/>
</g>
<!-- Node79 -->
<g id="node49" class="node">
<title>Node79</title>
<g id="a_node49"><a xlink:href="classpfate_1_1Patch.html#ab87c46fbd0576bb7031cb3ca8dbe7126" target="_top" xlink:title=" ">
<polygon fill="none" stroke="black" points="153,-39 153,-69 257,-69 257,-39 153,-39"/>
<text text-anchor="start" x="161" y="-57" font-family="Helvetica,sans-Serif" font-size="10.00">pfate::Patch::set_i</text>
<text text-anchor="middle" x="205" y="-46" font-family="Helvetica,sans-Serif" font-size="10.00">_metFile</text>
</a>
</g>
</g>
<!-- Node1&#45;&gt;Node79 -->
<g id="edge58" class="edge">
<title>Node1&#45;&gt;Node79</title>
<path fill="none" stroke="midnightblue" d="M46.63,-465.4C50.4,-410.63 71.75,-137.95 126,-78 130.9,-72.58 136.99,-68.38 143.6,-65.11"/>
<polygon fill="midnightblue" stroke="midnightblue" points="145,-68.32 152.85,-61.21 142.28,-61.87 145,-68.32"/>
</g>
<!-- Node80 -->
<g id="node50" class="node">
<title>Node80</title>
<g id="a_node50"><a xlink:href="classpfate_1_1Patch.html#ae003bee4119e3a1122c9e1f8ebc9de28" target="_top" xlink:title="Simulate patch dynamics TODO: Evntually, this function should be moved to a higher controller,...">
<polygon fill="none" stroke="black" points="143,-0.5 143,-19.5 267,-19.5 267,-0.5 143,-0.5"/>
<text text-anchor="middle" x="205" y="-7.5" font-family="Helvetica,sans-Serif" font-size="10.00">pfate::Patch::simulate</text>
</a>
</g>
</g>
<!-- Node1&#45;&gt;Node80 -->
<g id="edge59" class="edge">
<title>Node1&#45;&gt;Node80</title>
<path fill="none" stroke="midnightblue" d="M46.34,-465.35C48.64,-406.41 63.62,-95.33 126,-29 128.34,-26.51 130.95,-24.33 133.75,-22.41"/>
<polygon fill="midnightblue" stroke="midnightblue" points="135.64,-25.36 142.66,-17.42 132.22,-19.25 135.64,-25.36"/>
</g>
<!-- Node2&#45;&gt;Node3 -->
<g id="edge2" class="edge">
<title>Node2&#45;&gt;Node3</title>
<path fill="none" stroke="midnightblue" d="M256.3,-1471.05C280.93,-1478.42 310.77,-1487.35 336.57,-1495.07"/>
<polygon fill="midnightblue" stroke="midnightblue" points="335.66,-1498.45 346.25,-1497.96 337.67,-1491.74 335.66,-1498.45"/>
</g>
<!-- Node4 -->
<g id="node4" class="node">
<title>Node4</title>
<g id="a_node4"><a xlink:href="group__libpspm__interface.html#ga6c9356733f84aca1d7bc6980bc97f157" target="_top" xlink:title=" ">
<polygon fill="none" stroke="red" points="527.5,-1542 527.5,-1572 643.5,-1572 643.5,-1542 527.5,-1542"/>
<text text-anchor="start" x="535.5" y="-1560" font-family="Helvetica,sans-Serif" font-size="10.00">plant::Plant::calc</text>
<text text-anchor="middle" x="585.5" y="-1549" font-family="Helvetica,sans-Serif" font-size="10.00">_demographic_rates</text>
</a>
</g>
</g>
<!-- Node3&#45;&gt;Node4 -->
<g id="edge3" class="edge">
<title>Node3&#45;&gt;Node4</title>
<path fill="none" stroke="midnightblue" d="M461.99,-1528.02C479.84,-1532.24 499.3,-1536.85 517.36,-1541.12"/>
<polygon fill="midnightblue" stroke="midnightblue" points="516.69,-1544.55 527.22,-1543.45 518.3,-1537.74 516.69,-1544.55"/>
</g>
<!-- Node5 -->
<g id="node5" class="node">
<title>Node5</title>
<g id="a_node5"><a xlink:href="group__libpspm__interface.html#ga35a2b0d4d10c6dd2125bae36fb2f20a9" target="_top" xlink:title=" ">
<polygon fill="none" stroke="black" points="696,-1525.5 696,-1544.5 845,-1544.5 845,-1525.5 696,-1525.5"/>
<text text-anchor="middle" x="770.5" y="-1532.5" font-family="Helvetica,sans-Serif" font-size="10.00">plant::Plant::fecundity_rate</text>
</a>
</g>
</g>
<!-- Node3&#45;&gt;Node5 -->
<g id="edge5" class="edge">
<title>Node3&#45;&gt;Node5</title>
<path fill="none" stroke="midnightblue" d="M472.24,-1517.37C533.82,-1521.02 621.6,-1526.23 685.8,-1530.04"/>
<polygon fill="midnightblue" stroke="midnightblue" points="685.71,-1533.54 695.9,-1530.64 686.12,-1526.55 685.71,-1533.54"/>
</g>
<!-- Node31 -->
<g id="node6" class="node">
<title>Node31</title>
<g id="a_node6"><a xlink:href="classpfate_1_1LifeHistoryOptimizer.html#a641e49a2bc1086fe64d1e0fe2fa47311" target="_top" xlink:title=" ">
<polygon fill="none" stroke="black" points="511,-1454 511,-1484 660,-1484 660,-1454 511,-1454"/>
<text text-anchor="start" x="519" y="-1472" font-family="Helvetica,sans-Serif" font-size="10.00">pfate::LifeHistoryOptimizer</text>
<text text-anchor="middle" x="585.5" y="-1461" font-family="Helvetica,sans-Serif" font-size="10.00">::get_rates</text>
</a>
</g>
</g>
<!-- Node3&#45;&gt;Node31 -->
<g id="edge6" class="edge">
<title>Node3&#45;&gt;Node31</title>
<path fill="none" stroke="midnightblue" d="M461.99,-1497.98C477.76,-1494.25 494.8,-1490.22 511.01,-1486.38"/>
<polygon fill="midnightblue" stroke="midnightblue" points="512.05,-1489.73 520.98,-1484.03 510.44,-1482.92 512.05,-1489.73"/>
</g>
<!-- Node30 -->
<g id="node7" class="node">
<title>Node30</title>
<g id="a_node7"><a xlink:href="classplant_1_1PlantArchitecture.html#a4ee1ef386497f18eb1f7d2ef2db3cff3" target="_top" xlink:title=" ">
<polygon fill="none" stroke="black" points="520,-1679 520,-1709 651,-1709 651,-1679 520,-1679"/>
<text text-anchor="start" x="528" y="-1697" font-family="Helvetica,sans-Serif" font-size="10.00">plant::PlantArchitecture</text>
<text text-anchor="middle" x="585.5" y="-1686" font-family="Helvetica,sans-Serif" font-size="10.00">::get_size</text>
</a>
</g>
</g>
<!-- Node3&#45;&gt;Node30 -->
<g id="edge7" class="edge">
<title>Node3&#45;&gt;Node30</title>
<path fill="none" stroke="midnightblue" d="M405.47,-1528.28C420.39,-1559.31 458.39,-1630.08 511,-1669 513.52,-1670.86 516.19,-1672.6 518.96,-1674.2"/>
<polygon fill="midnightblue" stroke="midnightblue" points="517.59,-1677.44 528.08,-1678.93 520.81,-1671.22 517.59,-1677.44"/>
</g>
<!-- Node32 -->
<g id="node8" class="node">
<title>Node32</title>
<g id="a_node8"><a xlink:href="rk4_8h.html#a3d0ee2e6387dc2895fd9a41509912863" target="_top" xlink:title=" ">
<polygon fill="none" stroke="black" points="567.5,-1640.5 567.5,-1659.5 603.5,-1659.5 603.5,-1640.5 567.5,-1640.5"/>
<text text-anchor="middle" x="585.5" y="-1647.5" font-family="Helvetica,sans-Serif" font-size="10.00">RK4</text>
</a>
</g>
</g>
<!-- Node3&#45;&gt;Node32 -->
<g id="edge8" class="edge">
<title>Node3&#45;&gt;Node32</title>
<path fill="none" stroke="midnightblue" d="M408.67,-1528.25C426.37,-1553.59 465.36,-1604.19 511,-1631 525.17,-1639.33 542.98,-1644.05 557.52,-1646.7"/>
<polygon fill="midnightblue" stroke="midnightblue" points="557,-1650.17 567.43,-1648.29 558.11,-1643.25 557,-1650.17"/>
</g>
<!-- Node33 -->
<g id="node9" class="node">
<title>Node33</title>
<g id="a_node9"><a xlink:href="classpfate_1_1LifeHistoryOptimizer.html#a72fdc4d5a3ac119efcb676a1f4436156" target="_top" xlink:title=" ">
<polygon fill="none" stroke="black" points="511,-1405 511,-1435 660,-1435 660,-1405 511,-1405"/>
<text text-anchor="start" x="519" y="-1423" font-family="Helvetica,sans-Serif" font-size="10.00">pfate::LifeHistoryOptimizer</text>
<text text-anchor="middle" x="585.5" y="-1412" font-family="Helvetica,sans-Serif" font-size="10.00">::set_state</text>
</a>
</g>
</g>
<!-- Node3&#45;&gt;Node33 -->
<g id="edge9" class="edge">
<title>Node3&#45;&gt;Node33</title>
<path fill="none" stroke="midnightblue" d="M420.13,-1497.99C442.23,-1483.12 477.9,-1460.41 511,-1445 515.69,-1442.82 520.63,-1440.72 525.63,-1438.75"/>
<polygon fill="midnightblue" stroke="midnightblue" points="527.18,-1441.91 535.29,-1435.09 524.7,-1435.36 527.18,-1441.91"/>
</g>
<!-- Node35 -->
<g id="node12" class="node">
<title>Node35</title>
<g id="a_node12"><a xlink:href="classpfate_1_1LifeHistoryOptimizer.html#ad2f441a77b37f12f0cc15cd89977412e" target="_top" xlink:title=" ">
<polygon fill="none" stroke="red" points="511,-1591 511,-1621 660,-1621 660,-1591 511,-1591"/>
<text text-anchor="start" x="519" y="-1609" font-family="Helvetica,sans-Serif" font-size="10.00">pfate::LifeHistoryOptimizer</text>
<text text-anchor="middle" x="585.5" y="-1598" font-family="Helvetica,sans-Serif" font-size="10.00">::update_climate</text>
</a>
</g>
</g>
<!-- Node3&#45;&gt;Node35 -->
<g id="edge12" class="edge">
<title>Node3&#45;&gt;Node35</title>
<path fill="none" stroke="midnightblue" d="M419.64,-1528.06C441.65,-1543.22 477.51,-1566.53 511,-1582 515.09,-1583.89 519.36,-1585.69 523.71,-1587.41"/>
<polygon fill="midnightblue" stroke="midnightblue" points="522.7,-1590.76 533.29,-1591 525.16,-1584.21 522.7,-1590.76"/>
</g>
<!-- Node4&#45;&gt;Node5 -->
<g id="edge4" class="edge">
<title>Node4&#45;&gt;Node5</title>
<path fill="none" stroke="midnightblue" d="M643.65,-1550.13C656.98,-1548.53 671.45,-1546.79 685.68,-1545.08"/>
<polygon fill="midnightblue" stroke="midnightblue" points="686.46,-1548.51 695.97,-1543.84 685.62,-1541.56 686.46,-1548.51"/>
</g>
<!-- Node24 -->
<g id="node10" class="node">
<title>Node24</title>
<g id="a_node10"><a xlink:href="classplant_1_1PlantArchitecture.html#a6765e3aee8ac12969e1e47aed2aea2da" target="_top" xlink:title="Set the crown LAI and properties that change with LAI.">
<polygon fill="none" stroke="black" points="705,-1383 705,-1413 836,-1413 836,-1383 705,-1383"/>
<text text-anchor="start" x="713" y="-1401" font-family="Helvetica,sans-Serif" font-size="10.00">plant::PlantArchitecture</text>
<text text-anchor="middle" x="770.5" y="-1390" font-family="Helvetica,sans-Serif" font-size="10.00">::set_lai</text>
</a>
</g>
</g>
<!-- Node33&#45;&gt;Node24 -->
<g id="edge10" class="edge">
<title>Node33&#45;&gt;Node24</title>
<path fill="none" stroke="midnightblue" d="M660.14,-1411.15C671.59,-1409.77 683.42,-1408.35 694.89,-1406.97"/>
<polygon fill="midnightblue" stroke="midnightblue" points="695.34,-1410.44 704.85,-1405.77 694.51,-1403.49 695.34,-1410.44"/>
</g>
<!-- Node34 -->
<g id="node11" class="node">
<title>Node34</title>
<g id="a_node11"><a xlink:href="classplant_1_1Plant.html#a1157bce8a29e6a26f2e5d4cc30909aea" target="_top" xlink:title="Set size (diameter and all associated variables) from x.">
<polygon fill="none" stroke="black" points="711.5,-1311.5 711.5,-1330.5 829.5,-1330.5 829.5,-1311.5 711.5,-1311.5"/>
<text text-anchor="middle" x="770.5" y="-1318.5" font-family="Helvetica,sans-Serif" font-size="10.00">plant::Plant::set_size</text>
</a>
</g>
</g>
<!-- Node33&#45;&gt;Node34 -->
<g id="edge11" class="edge">
<title>Node33&#45;&gt;Node34</title>
<path fill="none" stroke="midnightblue" d="M614.29,-1404.96C649.12,-1386.13 708.37,-1354.07 742.72,-1335.49"/>
<polygon fill="midnightblue" stroke="midnightblue" points="744.57,-1338.47 751.7,-1330.63 741.24,-1332.31 744.57,-1338.47"/>
</g>
<!-- Node39 -->
<g id="node14" class="node">
<title>Node39</title>
<g id="a_node14"><a xlink:href="classpfate_1_1CommunityProperties.html#a9adebb940a7212442167bd4a5be57442" target="_top" xlink:title=" ">
<polygon fill="none" stroke="black" points="320,-721 320,-751 475,-751 475,-721 320,-721"/>
<text text-anchor="start" x="328" y="-739" font-family="Helvetica,sans-Serif" font-size="10.00">pfate::CommunityProperties</text>
<text text-anchor="middle" x="397.5" y="-728" font-family="Helvetica,sans-Serif" font-size="10.00">::closeStreams</text>
</a>
</g>
</g>
<!-- Node38&#45;&gt;Node39 -->
<g id="edge14" class="edge">
<title>Node38&#45;&gt;Node39</title>
<path fill="none" stroke="midnightblue" d="M258.56,-756.27C274.39,-753.95 292.21,-751.33 309.65,-748.76"/>
<polygon fill="midnightblue" stroke="midnightblue" points="310.48,-752.18 319.86,-747.26 309.46,-745.26 310.48,-752.18"/>
</g>
<!-- Node40 -->
<g id="node15" class="node">
<title>Node40</title>
<g id="a_node15"><a xlink:href="namespacepfate.html#aa3b7425f62503d7549ea5237bccee611" target="_top" xlink:title=" ">
<polygon fill="none" stroke="red" points="349,-770.5 349,-789.5 446,-789.5 446,-770.5 349,-770.5"/>
<text text-anchor="middle" x="397.5" y="-777.5" font-family="Helvetica,sans-Serif" font-size="10.00">pfate::saveState</text>
</a>
</g>
</g>
<!-- Node38&#45;&gt;Node40 -->
<g id="edge15" class="edge">
<title>Node38&#45;&gt;Node40</title>
<path fill="none" stroke="midnightblue" d="M258.56,-768.41C283.44,-770.5 313.21,-773 338.72,-775.15"/>
<polygon fill="midnightblue" stroke="midnightblue" points="338.74,-778.66 349,-776.01 339.32,-771.69 338.74,-778.66"/>
</g>
<!-- Node44 -->
<g id="node18" class="node">
<title>Node44</title>
<g id="a_node18"><a xlink:href="classplant_1_1PlantArchitecture.html#aaf65bbe9f64372d21b76509f0463f944" target="_top" xlink:title="Get biomass in various carbon pools.">
<polygon fill="none" stroke="black" points="332,-497 332,-527 463,-527 463,-497 332,-497"/>
<text text-anchor="start" x="340" y="-515" font-family="Helvetica,sans-Serif" font-size="10.00">plant::PlantArchitecture</text>
<text text-anchor="middle" x="397.5" y="-504" font-family="Helvetica,sans-Serif" font-size="10.00">::coarse_root_mass</text>
</a>
</g>
</g>
<!-- Node43&#45;&gt;Node44 -->
<g id="edge18" class="edge">
<title>Node43&#45;&gt;Node44</title>
<path fill="none" stroke="midnightblue" d="M272.12,-655.99C276.43,-653.45 280.46,-650.48 284,-647 320.7,-610.95 283.62,-573.37 320,-537 321.45,-535.56 322.98,-534.19 324.58,-532.91"/>
<polygon fill="midnightblue" stroke="midnightblue" points="326.78,-535.64 333.09,-527.13 322.85,-529.85 326.78,-535.64"/>
</g>
<!-- Node23 -->
<g id="node19" class="node">
<title>Node23</title>
<g id="a_node19"><a xlink:href="classplant_1_1PlantArchitecture.html#a1fea368ef9182afc3aedfb76bcc4b3ee" target="_top" xlink:title="Get biomass in various carbon pools.">
<polygon fill="none" stroke="black" points="520,-587 520,-617 651,-617 651,-587 520,-587"/>
<text text-anchor="start" x="528" y="-605" font-family="Helvetica,sans-Serif" font-size="10.00">plant::PlantArchitecture</text>
<text text-anchor="middle" x="585.5" y="-594" font-family="Helvetica,sans-Serif" font-size="10.00">::stem_mass</text>
</a>
</g>
</g>
<!-- Node43&#45;&gt;Node23 -->
<g id="edge23" class="edge">
<title>Node43&#45;&gt;Node23</title>
<path fill="none" stroke="midnightblue" d="M279.53,-682.9C334.53,-689.1 410.96,-691.95 475,-673 507.41,-663.41 539.24,-640.88 560.15,-623.76"/>
<polygon fill="midnightblue" stroke="midnightblue" points="562.47,-626.38 567.88,-617.26 557.97,-621.02 562.47,-626.38"/>
</g>
<!-- Node45 -->
<g id="node20" class="node">
<title>Node45</title>
<g id="a_node20"><a xlink:href="classplant_1_1Plant.html#a0e254502cb2bb6edf6e0e86e0db268d7" target="_top" xlink:title="Get plant biomass.">
<polygon fill="none" stroke="black" points="327.5,-644.5 327.5,-663.5 467.5,-663.5 467.5,-644.5 327.5,-644.5"/>
<text text-anchor="middle" x="397.5" y="-651.5" font-family="Helvetica,sans-Serif" font-size="10.00">plant::Plant::get_biomass</text>
</a>
</g>
</g>
<!-- Node43&#45;&gt;Node45 -->
<g id="edge20" class="edge">
<title>Node43&#45;&gt;Node45</title>
<path fill="none" stroke="midnightblue" d="M279.65,-664.43C291.92,-663.33 304.7,-662.19 317.1,-661.09"/>
<polygon fill="midnightblue" stroke="midnightblue" points="317.77,-664.54 327.42,-660.16 317.14,-657.57 317.77,-664.54"/>
</g>
<!-- Node16 -->
<g id="node21" class="node">
<title>Node16</title>
<g id="a_node21"><a xlink:href="classplant_1_1PlantArchitecture.html#a36ebf17a1799f27ce12bd27f637f88a9" target="_top" xlink:title="Get biomass in various carbon pools.">
<polygon fill="none" stroke="black" points="332,-595 332,-625 463,-625 463,-595 332,-595"/>
<text text-anchor="start" x="340" y="-613" font-family="Helvetica,sans-Serif" font-size="10.00">plant::PlantArchitecture</text>
<text text-anchor="middle" x="397.5" y="-602" font-family="Helvetica,sans-Serif" font-size="10.00">::leaf_mass</text>
</a>
</g>
</g>
<!-- Node43&#45;&gt;Node16 -->
<g id="edge21" class="edge">
<title>Node43&#45;&gt;Node16</title>
<path fill="none" stroke="midnightblue" d="M255.57,-655.94C265.02,-653.01 274.83,-649.94 284,-647 300.06,-641.85 303.98,-640.29 320,-635 326.75,-632.77 333.84,-630.44 340.86,-628.14"/>
<polygon fill="midnightblue" stroke="midnightblue" points="341.95,-631.47 350.37,-625.03 339.78,-624.81 341.95,-631.47"/>
</g>
<!-- Node19 -->
<g id="node22" class="node">
<title>Node19</title>
<g id="a_node22"><a xlink:href="classplant_1_1PlantArchitecture.html#af767ab32b2c9aff347144ce7dff349be" target="_top" xlink:title="Get biomass in various carbon pools.">
<polygon fill="none" stroke="black" points="332,-546 332,-576 463,-576 463,-546 332,-546"/>
<text text-anchor="start" x="340" y="-564" font-family="Helvetica,sans-Serif" font-size="10.00">plant::PlantArchitecture</text>
<text text-anchor="middle" x="397.5" y="-553" font-family="Helvetica,sans-Serif" font-size="10.00">::root_mass</text>
</a>
</g>
</g>
<!-- Node43&#45;&gt;Node19 -->
<g id="edge22" class="edge">
<title>Node43&#45;&gt;Node19</title>
<path fill="none" stroke="midnightblue" d="M269.77,-655.88C274.84,-653.36 279.66,-650.42 284,-647 308.71,-627.5 295.46,-605.71 320,-586 322.25,-584.2 324.63,-582.52 327.11,-580.96"/>
<polygon fill="midnightblue" stroke="midnightblue" points="328.81,-584.02 335.86,-576.12 325.42,-577.9 328.81,-584.02"/>
</g>
<!-- Node44&#45;&gt;Node23 -->
<g id="edge19" class="edge">
<title>Node44&#45;&gt;Node23</title>
<path fill="none" stroke="midnightblue" d="M449.71,-527C458.28,-530 466.98,-533.36 475,-537 502.66,-549.54 532.16,-567.34 553.57,-581.14"/>
<polygon fill="midnightblue" stroke="midnightblue" points="551.93,-584.25 562.22,-586.79 555.76,-578.39 551.93,-584.25"/>
</g>
<!-- Node46&#45;&gt;Node24 -->
<g id="edge32" class="edge">
<title>Node46&#45;&gt;Node24</title>
<path fill="none" stroke="midnightblue" d="M276.91,-1215.08C279.44,-1216.85 281.82,-1218.81 284,-1221 328.12,-1265.31 272.24,-1316.65 320,-1357 347.92,-1380.59 573.87,-1391.57 694.39,-1395.79"/>
<polygon fill="midnightblue" stroke="midnightblue" points="694.54,-1399.3 704.65,-1396.15 694.78,-1392.3 694.54,-1399.3"/>
</g>
<!-- Node46&#45;&gt;Node34 -->
<g id="edge33" class="edge">
<title>Node46&#45;&gt;Node34</title>
<path fill="none" stroke="midnightblue" d="M273.67,-1215.06C277.28,-1216.83 280.75,-1218.8 284,-1221 306.08,-1235.95 296.87,-1255.72 320,-1269 383.28,-1305.33 591.39,-1316.32 700.84,-1319.61"/>
<polygon fill="midnightblue" stroke="midnightblue" points="701.02,-1323.12 711.11,-1319.9 701.22,-1316.12 701.02,-1323.12"/>
</g>
<!-- Node47 -->
<g id="node24" class="node">
<title>Node47</title>
<g id="a_node24"><a xlink:href="classpfate_1_1env_1_1ClimateStream.html#af886bf0c88d29c9460067a124c000f3d" target="_top" xlink:title=" ">
<polygon fill="none" stroke="black" points="324.5,-1141 324.5,-1171 470.5,-1171 470.5,-1141 324.5,-1141"/>
<text text-anchor="start" x="332.5" y="-1159" font-family="Helvetica,sans-Serif" font-size="10.00">pfate::env::ClimateStream</text>
<text text-anchor="middle" x="397.5" y="-1148" font-family="Helvetica,sans-Serif" font-size="10.00">::init</text>
</a>
</g>
</g>
<!-- Node46&#45;&gt;Node47 -->
<g id="edge26" class="edge">
<title>Node46&#45;&gt;Node47</title>
<path fill="none" stroke="midnightblue" d="M271.03,-1184.98C287.18,-1181.25 304.63,-1177.22 321.23,-1173.38"/>
<polygon fill="midnightblue" stroke="midnightblue" points="322.49,-1176.69 331.44,-1171.03 320.91,-1169.87 322.49,-1176.69"/>
</g>
<!-- Node48 -->
<g id="node25" class="node">
<title>Node48</title>
<g id="a_node25"><a xlink:href="classplant_1_1Plant.html#a99d31208f7afa12bc10ee138bf190ef8" target="_top" xlink:title="This function initializes the plant (traits, par, and geometry) from params and traits objects.">
<polygon fill="none" stroke="black" points="538.5,-1094.5 538.5,-1113.5 632.5,-1113.5 632.5,-1094.5 538.5,-1094.5"/>
<text text-anchor="middle" x="585.5" y="-1101.5" font-family="Helvetica,sans-Serif" font-size="10.00">plant::Plant::init</text>
</a>
</g>
</g>
<!-- Node46&#45;&gt;Node48 -->
<g id="edge27" class="edge">
<title>Node46&#45;&gt;Node48</title>
<path fill="none" stroke="midnightblue" d="M279.52,-1205.26C334.84,-1206.76 411.7,-1203.51 475,-1181 511.57,-1168 547.02,-1139.19 567.25,-1120.74"/>
<polygon fill="midnightblue" stroke="midnightblue" points="569.8,-1123.15 574.71,-1113.76 565.02,-1118.04 569.8,-1123.15"/>
</g>
<!-- Node49 -->
<g id="node26" class="node">
<title>Node49</title>
<g id="a_node26"><a xlink:href="classplant_1_1Plant.html#a7a9395b79102cb623073ac8540f0f5ea" target="_top" xlink:title="Probability of survival during dispersal.">
<polygon fill="none" stroke="black" points="333.5,-1317 333.5,-1347 461.5,-1347 461.5,-1317 333.5,-1317"/>
<text text-anchor="start" x="341.5" y="-1335" font-family="Helvetica,sans-Serif" font-size="10.00">plant::Plant::p_survival</text>
<text text-anchor="middle" x="397.5" y="-1324" font-family="Helvetica,sans-Serif" font-size="10.00">_dispersal</text>
</a>
</g>
</g>
<!-- Node46&#45;&gt;Node49 -->
<g id="edge28" class="edge">
<title>Node46&#45;&gt;Node49</title>
<path fill="none" stroke="midnightblue" d="M219.41,-1215.01C239.47,-1236.69 279.29,-1276.94 320,-1302 326.58,-1306.05 333.79,-1309.73 341.09,-1313.01"/>
<polygon fill="midnightblue" stroke="midnightblue" points="339.75,-1316.24 350.32,-1316.96 342.5,-1309.81 339.75,-1316.24"/>
</g>
<!-- Node50 -->
<g id="node27" class="node">
<title>Node50</title>
<g id="a_node27"><a xlink:href="classplant_1_1Plant.html#a03c45eaaabce7ff0287598818dc4847f" target="_top" xlink:title="Probability of survival during germination (i.e. until recruitment stage)">
<polygon fill="none" stroke="red" points="333.5,-1229 333.5,-1259 461.5,-1259 461.5,-1229 333.5,-1229"/>
<text text-anchor="start" x="341.5" y="-1247" font-family="Helvetica,sans-Serif" font-size="10.00">plant::Plant::p_survival</text>
<text text-anchor="middle" x="397.5" y="-1236" font-family="Helvetica,sans-Serif" font-size="10.00">_germination</text>
</a>
</g>
</g>
<!-- Node46&#45;&gt;Node50 -->
<g id="edge29" class="edge">
<title>Node46&#45;&gt;Node50</title>
<path fill="none" stroke="midnightblue" d="M271.03,-1215.02C287.88,-1218.91 306.13,-1223.13 323.37,-1227.11"/>
<polygon fill="midnightblue" stroke="midnightblue" points="322.85,-1230.58 333.38,-1229.42 324.42,-1223.76 322.85,-1230.58"/>
</g>
<!-- Node51 -->
<g id="node28" class="node">
<title>Node51</title>
<g id="a_node28"><a xlink:href="classpfate_1_1env_1_1Climate.html#ad15a02a1fa35c5d34d8b46f4a58421fb" target="_top" xlink:title="Set acclimation timescale.">
<polygon fill="none" stroke="black" points="333.5,-1092 333.5,-1122 461.5,-1122 461.5,-1092 333.5,-1092"/>
<text text-anchor="start" x="341.5" y="-1110" font-family="Helvetica,sans-Serif" font-size="10.00">pfate::env::Climate</text>
<text text-anchor="middle" x="397.5" y="-1099" font-family="Helvetica,sans-Serif" font-size="10.00">::set_acclim_timescale</text>
</a>
</g>
</g>
<!-- Node46&#45;&gt;Node51 -->
<g id="edge30" class="edge">
<title>Node46&#45;&gt;Node51</title>
<path fill="none" stroke="midnightblue" d="M227.91,-1184.92C250.3,-1170.01 286.44,-1147.27 320,-1132 324.93,-1129.76 330.12,-1127.62 335.38,-1125.61"/>
<polygon fill="midnightblue" stroke="midnightblue" points="336.69,-1128.86 344.87,-1122.13 334.28,-1122.29 336.69,-1128.86"/>
</g>
<!-- Node52 -->
<g id="node29" class="node">
<title>Node52</title>
<g id="a_node29"><a xlink:href="classpfate_1_1env_1_1Climate.html#a75a84463176cf6c2c86192959fdb686b" target="_top" xlink:title=" ">
<polygon fill="none" stroke="red" points="342.5,-1043 342.5,-1073 452.5,-1073 452.5,-1043 342.5,-1043"/>
<text text-anchor="start" x="350.5" y="-1061" font-family="Helvetica,sans-Serif" font-size="10.00">pfate::env::Climate</text>
<text text-anchor="middle" x="397.5" y="-1050" font-family="Helvetica,sans-Serif" font-size="10.00">::set_elevation</text>
</a>
</g>
</g>
<!-- Node46&#45;&gt;Node52 -->
<g id="edge31" class="edge">
<title>Node46&#45;&gt;Node52</title>
<path fill="none" stroke="midnightblue" d="M216.87,-1184.8C235.33,-1160.02 275.23,-1110.89 320,-1083 324.08,-1080.46 328.45,-1078.14 332.96,-1076.05"/>
<polygon fill="midnightblue" stroke="midnightblue" points="334.52,-1079.19 342.35,-1072.04 331.77,-1072.75 334.52,-1079.19"/>
</g>
<!-- Node54&#45;&gt;Node47 -->
<g id="edge37" class="edge">
<title>Node54&#45;&gt;Node47</title>
<path fill="none" stroke="midnightblue" d="M209.73,-969.86C221.32,-999.18 259.58,-1086.57 320,-1132 321.85,-1133.39 323.79,-1134.71 325.79,-1135.95"/>
<polygon fill="midnightblue" stroke="midnightblue" points="324.45,-1139.2 334.91,-1140.91 327.8,-1133.05 324.45,-1139.2"/>
</g>
<!-- Node54&#45;&gt;Node51 -->
<g id="edge41" class="edge">
<title>Node54&#45;&gt;Node51</title>
<path fill="none" stroke="midnightblue" d="M212.21,-969.57C227.63,-992.58 270.04,-1051.42 320,-1083 322.62,-1084.66 325.37,-1086.21 328.19,-1087.66"/>
<polygon fill="midnightblue" stroke="midnightblue" points="326.9,-1090.92 337.45,-1091.95 329.85,-1084.57 326.9,-1090.92"/>
</g>
<!-- Node54&#45;&gt;Node52 -->
<g id="edge42" class="edge">
<title>Node54&#45;&gt;Node52</title>
<path fill="none" stroke="midnightblue" d="M218.33,-969.63C238.56,-985.04 280.5,-1015.41 320,-1034 324.08,-1035.92 328.35,-1037.74 332.7,-1039.45"/>
<polygon fill="midnightblue" stroke="midnightblue" points="331.7,-1042.81 342.29,-1043.02 334.14,-1036.25 331.7,-1042.81"/>
</g>
<!-- Node55 -->
<g id="node31" class="node">
<title>Node55</title>
<g id="a_node31"><a xlink:href="classpfate_1_1Patch.html#ac014924ea9c6590fa2031788057cf271" target="_top" xlink:title=" ">
<polygon fill="none" stroke="red" points="329,-994 329,-1024 466,-1024 466,-994 329,-994"/>
<text text-anchor="start" x="337" y="-1012" font-family="Helvetica,sans-Serif" font-size="10.00">pfate::Patch::addSpecies</text>
<text text-anchor="middle" x="397.5" y="-1001" font-family="Helvetica,sans-Serif" font-size="10.00">AndProbes</text>
</a>
</g>
</g>
<!-- Node54&#45;&gt;Node55 -->
<g id="edge35" class="edge">
<title>Node54&#45;&gt;Node55</title>
<path fill="none" stroke="midnightblue" d="M243.18,-969.56C267.3,-975.77 299.45,-984.04 328.08,-991.4"/>
<polygon fill="midnightblue" stroke="midnightblue" points="327.48,-994.86 338.04,-993.96 329.23,-988.08 327.48,-994.86"/>
</g>
<!-- Node60 -->
<g id="node32" class="node">
<title>Node60</title>
<g id="a_node32"><a xlink:href="classpfate_1_1CommunityProperties.html#ac56567794c0dd3291d53070d6ba419b0" target="_top" xlink:title=" ">
<polygon fill="none" stroke="black" points="320,-896 320,-926 475,-926 475,-896 320,-896"/>
<text text-anchor="start" x="328" y="-914" font-family="Helvetica,sans-Serif" font-size="10.00">pfate::CommunityProperties</text>
<text text-anchor="middle" x="397.5" y="-903" font-family="Helvetica,sans-Serif" font-size="10.00">::openStreams</text>
</a>
</g>
</g>
<!-- Node54&#45;&gt;Node60 -->
<g id="edge38" class="edge">
<title>Node54&#45;&gt;Node60</title>
<path fill="none" stroke="midnightblue" d="M243.18,-950.44C267.3,-944.23 299.45,-935.96 328.08,-928.6"/>
<polygon fill="midnightblue" stroke="midnightblue" points="329.23,-931.92 338.04,-926.04 327.48,-925.14 329.23,-931.92"/>
</g>
<!-- Node61 -->
<g id="node33" class="node">
<title>Node61</title>
<g id="a_node33"><a xlink:href="classpfate_1_1Patch.html#ab58a899c33839507b147bc7a59a2d5c2" target="_top" xlink:title=" ">
<polygon fill="none" stroke="black" points="332.5,-847 332.5,-877 462.5,-877 462.5,-847 332.5,-847"/>
<text text-anchor="start" x="340.5" y="-865" font-family="Helvetica,sans-Serif" font-size="10.00">pfate::Patch::readTraits</text>
<text text-anchor="middle" x="397.5" y="-854" font-family="Helvetica,sans-Serif" font-size="10.00">FromFile</text>
</a>
</g>
</g>
<!-- Node54&#45;&gt;Node61 -->
<g id="edge39" class="edge">
<title>Node54&#45;&gt;Node61</title>
<path fill="none" stroke="midnightblue" d="M218.71,-950.32C239.13,-935.13 280.93,-905.52 320,-887 324.69,-884.78 329.64,-882.67 334.66,-880.69"/>
<polygon fill="midnightblue" stroke="midnightblue" points="336.23,-883.84 344.37,-877.06 333.77,-877.29 336.23,-883.84"/>
</g>
<!-- Node62 -->
<g id="node34" class="node">
<title>Node62</title>
<g id="a_node34"><a xlink:href="namespacepfate.html#acf2c2a4b2aac6abc0c2c61691e3b0f21" target="_top" xlink:title=" ">
<polygon fill="none" stroke="red" points="343.5,-808.5 343.5,-827.5 451.5,-827.5 451.5,-808.5 343.5,-808.5"/>
<text text-anchor="middle" x="397.5" y="-815.5" font-family="Helvetica,sans-Serif" font-size="10.00">pfate::restoreState</text>
</a>
</g>
</g>
<!-- Node54&#45;&gt;Node62 -->
<g id="edge40" class="edge">
<title>Node54&#45;&gt;Node62</title>
<path fill="none" stroke="midnightblue" d="M212.14,-950.35C227.39,-927.19 269.45,-868.13 320,-838 324.46,-835.34 329.26,-833.04 334.22,-831.03"/>
<polygon fill="midnightblue" stroke="midnightblue" points="335.67,-834.23 343.88,-827.54 333.29,-827.65 335.67,-834.23"/>
</g>
<!-- Node64 -->
<g id="node35" class="node">
<title>Node64</title>
<g id="a_node35"><a xlink:href="classplant_1_1PlantParameters.html#a7a0dc41bcb06a66292f3040918893c4b" target="_top" xlink:title=" ">
<polygon fill="none" stroke="black" points="333.5,-945 333.5,-975 461.5,-975 461.5,-945 333.5,-945"/>
<text text-anchor="start" x="341.5" y="-963" font-family="Helvetica,sans-Serif" font-size="10.00">plant::PlantParameters</text>
<text text-anchor="middle" x="397.5" y="-952" font-family="Helvetica,sans-Serif" font-size="10.00">::set_tscale</text>
</a>
</g>
</g>
<!-- Node54&#45;&gt;Node64 -->
<g id="edge43" class="edge">
<title>Node54&#45;&gt;Node64</title>
<path fill="none" stroke="midnightblue" d="M253.58,-960C274.6,-960 299.8,-960 323.15,-960"/>
<polygon fill="midnightblue" stroke="midnightblue" points="323.37,-963.5 333.37,-960 323.37,-956.5 323.37,-963.5"/>
</g>
<!-- Node55&#45;&gt;Node48 -->
<g id="edge36" class="edge">
<title>Node55&#45;&gt;Node48</title>
<path fill="none" stroke="midnightblue" d="M450.63,-1024.07C458.92,-1027.02 467.3,-1030.35 475,-1034 507.65,-1049.46 542.3,-1072.97 563.67,-1088.41"/>
<polygon fill="midnightblue" stroke="midnightblue" points="561.83,-1091.4 571.97,-1094.48 565.97,-1085.75 561.83,-1091.4"/>
</g>
<!-- Node66 -->
<g id="node37" class="node">
<title>Node66</title>
<g id="a_node37"><a xlink:href="classpfate_1_1env_1_1Climate.html#a3d9a39f6414b58b2239ed12b2d413d2b" target="_top" xlink:title=" ">
<polygon fill="none" stroke="black" points="342.5,-448 342.5,-478 452.5,-478 452.5,-448 342.5,-448"/>
<text text-anchor="start" x="350.5" y="-466" font-family="Helvetica,sans-Serif" font-size="10.00">pfate::env::Climate</text>
<text text-anchor="middle" x="397.5" y="-455" font-family="Helvetica,sans-Serif" font-size="10.00">::init_co2</text>
</a>
</g>
</g>
<!-- Node65&#45;&gt;Node66 -->
<g id="edge45" class="edge">
<title>Node65&#45;&gt;Node66</title>
<path fill="none" stroke="midnightblue" d="M272.12,-606.99C276.43,-604.45 280.46,-601.48 284,-598 320.7,-561.95 283.62,-524.37 320,-488 323.89,-484.11 328.39,-480.83 333.23,-478.05"/>
<polygon fill="midnightblue" stroke="midnightblue" points="334.83,-481.17 342.23,-473.59 331.72,-474.9 334.83,-481.17"/>
</g>
<!-- Node72&#45;&gt;Node71 -->
<g id="edge52" class="edge">
<title>Node72&#45;&gt;Node71</title>
<path fill="none" stroke="midnightblue" d="M279.65,-368.49C290.99,-367.18 302.76,-365.83 314.27,-364.5"/>
<polygon fill="midnightblue" stroke="midnightblue" points="314.77,-367.96 324.3,-363.34 313.96,-361.01 314.77,-367.96"/>
</g>
</g>
</svg>
