<?xml version="1.0" encoding="UTF-8" standalone="no"?>
<!DOCTYPE svg PUBLIC "-//W3C//DTD SVG 1.1//EN"
 "http://www.w3.org/Graphics/SVG/1.1/DTD/svg11.dtd">
<!-- Generated by graphviz version 2.43.0 (0)
 -->
<!-- Title: RK4 Pages: 1 -->
<svg width="540pt" height="132pt"
 viewBox="0.00 0.00 540.00 132.00" xmlns="http://www.w3.org/2000/svg" xmlns:xlink="http://www.w3.org/1999/xlink">
<g id="graph0" class="graph" transform="scale(1 1) rotate(0) translate(4 128)">
<title>RK4</title>
<!-- Node1 -->
<g id="node1" class="node">
<title>Node1</title>
<g id="a_node1"><a xlink:title=" ">
<polygon fill="#bfbfbf" stroke="black" points="496,-30 496,-49 532,-49 532,-30 496,-30"/>
<text text-anchor="middle" x="514" y="-37" font-family="Helvetica,sans-Serif" font-size="10.00">RK4</text>
</a>
</g>
</g>
<!-- Node2 -->
<g id="node2" class="node">
<title>Node2</title>
<g id="a_node2"><a xlink:href="classpfate_1_1LifeHistoryOptimizer.html#ad68ae2c0d92d28dbe0cc5d5ef03a695b" target="_top" xlink:title=" ">
<polygon fill="none" stroke="black" points="311,-49.5 311,-79.5 460,-79.5 460,-49.5 311,-49.5"/>
<text text-anchor="start" x="319" y="-67.5" font-family="Helvetica,sans-Serif" font-size="10.00">pfate::LifeHistoryOptimizer</text>
<text text-anchor="middle" x="385.5" y="-56.5" font-family="Helvetica,sans-Serif" font-size="10.00">::grow_for_dt</text>
</a>
</g>
</g>
<!-- Node1&#45;&gt;Node2 -->
<g id="edge1" class="edge">
<title>Node1&#45;&gt;Node2</title>
<path fill="none" stroke="midnightblue" d="M486.05,-44.83C478.24,-46.37 469.3,-48.14 460.07,-49.96"/>
<polygon fill="midnightblue" stroke="midnightblue" points="486.81,-48.24 495.94,-42.87 485.45,-41.38 486.81,-48.24"/>
</g>
<!-- Node6 -->
<g id="node6" class="node">
<title>Node6</title>
<g id="a_node6"><a xlink:href="classplant_1_1PlantArchitecture.html#afb649f77f93a938b777aef361638b08b" target="_top" xlink:title=" ">
<polygon fill="none" stroke="black" points="320,-0.5 320,-30.5 451,-30.5 451,-0.5 320,-0.5"/>
<text text-anchor="start" x="328" y="-18.5" font-family="Helvetica,sans-Serif" font-size="10.00">plant::PlantArchitecture</text>
<text text-anchor="middle" x="385.5" y="-7.5" font-family="Helvetica,sans-Serif" font-size="10.00">::grow_for_dt</text>
</a>
</g>
</g>
<!-- Node1&#45;&gt;Node6 -->
<g id="edge6" class="edge">
<title>Node1&#45;&gt;Node6</title>
<path fill="none" stroke="midnightblue" d="M486.01,-34.38C475.74,-32.43 463.54,-30.12 451.27,-27.79"/>
<polygon fill="midnightblue" stroke="midnightblue" points="485.46,-37.84 495.94,-36.26 486.77,-30.96 485.46,-37.84"/>
</g>
<!-- Node3 -->
<g id="node3" class="node">
<title>Node3</title>
<g id="a_node3"><a xlink:href="classpfate_1_1LifeHistoryOptimizer.html#a34aebe9641428e3d0bcb1d59ec936e8f" target="_top" xlink:title=" ">
<polygon fill="none" stroke="black" points="126,-93.5 126,-123.5 275,-123.5 275,-93.5 126,-93.5"/>
<text text-anchor="start" x="134" y="-111.5" font-family="Helvetica,sans-Serif" font-size="10.00">pfate::LifeHistoryOptimizer</text>
<text text-anchor="middle" x="200.5" y="-100.5" font-family="Helvetica,sans-Serif" font-size="10.00">::calcFitness</text>
</a>
</g>
</g>
<!-- Node2&#45;&gt;Node3 -->
<g id="edge2" class="edge">
<title>Node2&#45;&gt;Node3</title>
<path fill="none" stroke="midnightblue" d="M312.23,-81.88C296.28,-85.71 279.52,-89.74 264,-93.47"/>
<polygon fill="midnightblue" stroke="midnightblue" points="313.13,-85.26 322.03,-79.52 311.49,-78.45 313.13,-85.26"/>
</g>
<!-- Node4 -->
<g id="node4" class="node">
<title>Node4</title>
<g id="a_node4"><a xlink:href="r__interface_8cpp.html#a7897b94cdc1a829775ac5241571cd456" target="_top" xlink:title=" ">
<polygon fill="none" stroke="black" points="0,-77 0,-96 90,-96 90,-77 0,-77"/>
<text text-anchor="middle" x="45" y="-84" font-family="Helvetica,sans-Serif" font-size="10.00">RCPP_MODULE</text>
</a>
</g>
</g>
<!-- Node2&#45;&gt;Node4 -->
<g id="edge5" class="edge">
<title>Node2&#45;&gt;Node4</title>
<path fill="none" stroke="midnightblue" d="M300.57,-69.95C233.93,-74.29 143.4,-80.17 90.19,-83.63"/>
<polygon fill="midnightblue" stroke="midnightblue" points="300.88,-73.44 310.63,-69.3 300.43,-66.46 300.88,-73.44"/>
</g>
<!-- Node5 -->
<g id="node5" class="node">
<title>Node5</title>
<g id="a_node5"><a xlink:href="lho_8cpp.html#ae66f6b31b5ad750f1fe042a706a4e3d4" target="_top" xlink:title=" ">
<polygon fill="none" stroke="black" points="180,-17 180,-36 221,-36 221,-17 180,-17"/>
<text text-anchor="middle" x="200.5" y="-24" font-family="Helvetica,sans-Serif" font-size="10.00">main</text>
</a>
</g>
</g>
<!-- Node2&#45;&gt;Node5 -->
<g id="edge4" class="edge">
<title>Node2&#45;&gt;Node5</title>
<path fill="none" stroke="midnightblue" d="M302.04,-47.38C271.95,-41.13 240.55,-34.61 221.01,-30.55"/>
<polygon fill="midnightblue" stroke="midnightblue" points="301.67,-50.88 312.17,-49.48 303.09,-44.02 301.67,-50.88"/>
</g>
<!-- Node3&#45;&gt;Node4 -->
<g id="edge3" class="edge">
<title>Node3&#45;&gt;Node4</title>
<path fill="none" stroke="midnightblue" d="M115.93,-96.52C107.12,-95.26 98.43,-94.01 90.33,-92.85"/>
<polygon fill="midnightblue" stroke="midnightblue" points="115.5,-100 125.9,-97.95 116.49,-93.07 115.5,-100"/>
</g>
</g>
</svg>
