<?xml version="1.0" encoding="UTF-8" standalone="no"?>
<!DOCTYPE svg PUBLIC "-//W3C//DTD SVG 1.1//EN"
 "http://www.w3.org/Graphics/SVG/1.1/DTD/svg11.dtd">
<!-- Generated by graphviz version 2.43.0 (0)
 -->
<!-- Title: inst/include/utils/rk4.h Pages: 1 -->
<svg width="978pt" height="341pt"
 viewBox="0.00 0.00 978.00 341.00" xmlns="http://www.w3.org/2000/svg" xmlns:xlink="http://www.w3.org/1999/xlink">
<g id="graph0" class="graph" transform="scale(1 1) rotate(0) translate(4 337)">
<title>inst/include/utils/rk4.h</title>
<!-- Node1 -->
<g id="node1" class="node">
<title>Node1</title>
<g id="a_node1"><a xlink:title=" ">
<polygon fill="#bfbfbf" stroke="black" points="95,-302.5 95,-332.5 192,-332.5 192,-302.5 95,-302.5"/>
<text text-anchor="start" x="103" y="-320.5" font-family="Helvetica,sans-Serif" font-size="10.00">inst/include/utils</text>
<text text-anchor="middle" x="143.5" y="-309.5" font-family="Helvetica,sans-Serif" font-size="10.00">/rk4.h</text>
</a>
</g>
</g>
<!-- Node2 -->
<g id="node2" class="node">
<title>Node2</title>
<g id="a_node2"><a xlink:href="plant__architecture_8cpp.html" target="_top" xlink:title=" ">
<polygon fill="none" stroke="black" points="0,-246.5 0,-265.5 143,-265.5 143,-246.5 0,-246.5"/>
<text text-anchor="middle" x="71.5" y="-253.5" font-family="Helvetica,sans-Serif" font-size="10.00">src/plant_architecture.cpp</text>
</a>
</g>
</g>
<!-- Node1&#45;&gt;Node2 -->
<g id="edge1" class="edge">
<title>Node1&#45;&gt;Node2</title>
<path fill="none" stroke="midnightblue" d="M118.56,-295.89C106.04,-285.54 91.54,-273.56 81.98,-265.66"/>
<polygon fill="midnightblue" stroke="midnightblue" points="116.5,-298.73 126.44,-302.4 120.96,-293.33 116.5,-298.73"/>
</g>
<!-- Node3 -->
<g id="node3" class="node">
<title>Node3</title>
<g id="a_node3"><a xlink:href="plant_8h.html" target="_top" xlink:title=" ">
<polygon fill="none" stroke="black" points="161.5,-246.5 161.5,-265.5 271.5,-265.5 271.5,-246.5 161.5,-246.5"/>
<text text-anchor="middle" x="216.5" y="-253.5" font-family="Helvetica,sans-Serif" font-size="10.00">inst/include/plant.h</text>
</a>
</g>
</g>
<!-- Node1&#45;&gt;Node3 -->
<g id="edge2" class="edge">
<title>Node1&#45;&gt;Node3</title>
<path fill="none" stroke="midnightblue" d="M168.78,-295.89C181.48,-285.54 196.19,-273.56 205.88,-265.66"/>
<polygon fill="midnightblue" stroke="midnightblue" points="166.34,-293.37 160.8,-302.4 170.76,-298.79 166.34,-293.37"/>
</g>
<!-- Node4 -->
<g id="node4" class="node">
<title>Node4</title>
<g id="a_node4"><a xlink:href="plant_8cpp.html" target="_top" xlink:title=" ">
<polygon fill="none" stroke="black" points="50,-190.5 50,-209.5 129,-209.5 129,-190.5 50,-190.5"/>
<text text-anchor="middle" x="89.5" y="-197.5" font-family="Helvetica,sans-Serif" font-size="10.00">src/plant.cpp</text>
</a>
</g>
</g>
<!-- Node3&#45;&gt;Node4 -->
<g id="edge3" class="edge">
<title>Node3&#45;&gt;Node4</title>
<path fill="none" stroke="midnightblue" d="M187.11,-242.5C163.3,-232.38 130.39,-218.39 109.53,-209.52"/>
<polygon fill="midnightblue" stroke="midnightblue" points="185.8,-245.75 196.38,-246.44 188.54,-239.31 185.8,-245.75"/>
</g>
<!-- Node5 -->
<g id="node5" class="node">
<title>Node5</title>
<g id="a_node5"><a xlink:href="life__history_8h.html" target="_top" xlink:title=" ">
<polygon fill="none" stroke="black" points="147.5,-190.5 147.5,-209.5 285.5,-209.5 285.5,-190.5 147.5,-190.5"/>
<text text-anchor="middle" x="216.5" y="-197.5" font-family="Helvetica,sans-Serif" font-size="10.00">inst/include/life_history.h</text>
</a>
</g>
</g>
<!-- Node3&#45;&gt;Node5 -->
<g id="edge4" class="edge">
<title>Node3&#45;&gt;Node5</title>
<path fill="none" stroke="midnightblue" d="M216.5,-235.8C216.5,-226.91 216.5,-216.78 216.5,-209.75"/>
<polygon fill="midnightblue" stroke="midnightblue" points="213,-236.08 216.5,-246.08 220,-236.08 213,-236.08"/>
</g>
<!-- Node9 -->
<g id="node9" class="node">
<title>Node9</title>
<g id="a_node9"><a xlink:href="pspm__interface_8h.html" target="_top" xlink:title=" ">
<polygon fill="none" stroke="black" points="463,-190.5 463,-209.5 624,-209.5 624,-190.5 463,-190.5"/>
<text text-anchor="middle" x="543.5" y="-197.5" font-family="Helvetica,sans-Serif" font-size="10.00">inst/include/pspm_interface.h</text>
</a>
</g>
</g>
<!-- Node3&#45;&gt;Node9 -->
<g id="edge8" class="edge">
<title>Node3&#45;&gt;Node9</title>
<path fill="none" stroke="midnightblue" d="M278.32,-244.79C340.11,-234.59 434.03,-219.08 491.93,-209.52"/>
<polygon fill="midnightblue" stroke="midnightblue" points="277.61,-241.36 268.31,-246.44 278.75,-248.27 277.61,-241.36"/>
</g>
<!-- Node6 -->
<g id="node6" class="node">
<title>Node6</title>
<g id="a_node6"><a xlink:href="life__history_8cpp.html" target="_top" xlink:title=" ">
<polygon fill="none" stroke="black" points="18,-129 18,-148 125,-148 125,-129 18,-129"/>
<text text-anchor="middle" x="71.5" y="-136" font-family="Helvetica,sans-Serif" font-size="10.00">src/life_history.cpp</text>
</a>
</g>
</g>
<!-- Node5&#45;&gt;Node6 -->
<g id="edge5" class="edge">
<title>Node5&#45;&gt;Node6</title>
<path fill="none" stroke="midnightblue" d="M186.36,-186.63C158.19,-175.07 116.88,-158.12 92.24,-148.01"/>
<polygon fill="midnightblue" stroke="midnightblue" points="185.14,-189.92 195.73,-190.48 187.8,-183.44 185.14,-189.92"/>
</g>
<!-- Node7 -->
<g id="node7" class="node">
<title>Node7</title>
<g id="a_node7"><a xlink:href="r__interface_8cpp.html" target="_top" xlink:title=" ">
<polygon fill="none" stroke="black" points="235,-0.5 235,-19.5 342,-19.5 342,-0.5 235,-0.5"/>
<text text-anchor="middle" x="288.5" y="-7.5" font-family="Helvetica,sans-Serif" font-size="10.00">src/r_interface.cpp</text>
</a>
</g>
</g>
<!-- Node5&#45;&gt;Node7 -->
<g id="edge6" class="edge">
<title>Node5&#45;&gt;Node7</title>
<path fill="none" stroke="midnightblue" d="M223.39,-181.01C238.52,-141.5 274.18,-48.38 285.2,-19.62"/>
<polygon fill="midnightblue" stroke="midnightblue" points="220.09,-179.84 219.78,-190.43 226.63,-182.35 220.09,-179.84"/>
</g>
<!-- Node8 -->
<g id="node8" class="node">
<title>Node8</title>
<g id="a_node8"><a xlink:href="lho_8cpp.html" target="_top" xlink:title=" ">
<polygon fill="none" stroke="black" points="143,-129 143,-148 222,-148 222,-129 143,-129"/>
<text text-anchor="middle" x="182.5" y="-136" font-family="Helvetica,sans-Serif" font-size="10.00">tests/lho.cpp</text>
</a>
</g>
</g>
<!-- Node5&#45;&gt;Node8 -->
<g id="edge7" class="edge">
<title>Node5&#45;&gt;Node8</title>
<path fill="none" stroke="midnightblue" d="M206.6,-181.67C200.28,-170.61 192.36,-156.75 187.36,-148.01"/>
<polygon fill="midnightblue" stroke="midnightblue" points="203.63,-183.53 211.63,-190.48 209.71,-180.06 203.63,-183.53"/>
</g>
<!-- Node9&#45;&gt;Node7 -->
<g id="edge11" class="edge">
<title>Node9&#45;&gt;Node7</title>
<path fill="none" stroke="midnightblue" d="M452.45,-192.52C394.73,-186.43 327.33,-174.98 307.5,-154 271.54,-115.96 281.63,-44.72 286.55,-19.84"/>
<polygon fill="midnightblue" stroke="midnightblue" points="452.43,-196.04 462.73,-193.56 453.13,-189.07 452.43,-196.04"/>
</g>
<!-- Node10 -->
<g id="node10" class="node">
<title>Node10</title>
<g id="a_node10"><a xlink:href="light__environment_8cpp.html" target="_top" xlink:title=" ">
<polygon fill="none" stroke="black" points="317,-129 317,-148 460,-148 460,-129 317,-129"/>
<text text-anchor="middle" x="388.5" y="-136" font-family="Helvetica,sans-Serif" font-size="10.00">src/light_environment.cpp</text>
</a>
</g>
</g>
<!-- Node9&#45;&gt;Node10 -->
<g id="edge9" class="edge">
<title>Node9&#45;&gt;Node10</title>
<path fill="none" stroke="midnightblue" d="M511.67,-186.78C481.55,-175.22 437.12,-158.16 410.67,-148.01"/>
<polygon fill="midnightblue" stroke="midnightblue" points="510.7,-190.16 521.29,-190.48 513.21,-183.62 510.7,-190.16"/>
</g>
<!-- Node11 -->
<g id="node11" class="node">
<title>Node11</title>
<g id="a_node11"><a xlink:href="pspm__interface_8cpp.html" target="_top" xlink:title=" ">
<polygon fill="none" stroke="black" points="478.5,-129 478.5,-148 608.5,-148 608.5,-129 478.5,-129"/>
<text text-anchor="middle" x="543.5" y="-136" font-family="Helvetica,sans-Serif" font-size="10.00">src/pspm_interface.cpp</text>
</a>
</g>
</g>
<!-- Node9&#45;&gt;Node11 -->
<g id="edge10" class="edge">
<title>Node9&#45;&gt;Node11</title>
<path fill="none" stroke="midnightblue" d="M543.5,-180.32C543.5,-169.5 543.5,-156.4 543.5,-148.01"/>
<polygon fill="midnightblue" stroke="midnightblue" points="540,-180.48 543.5,-190.48 547,-180.48 540,-180.48"/>
</g>
<!-- Node12 -->
<g id="node12" class="node">
<title>Node12</title>
<g id="a_node12"><a xlink:href="community__properties_8h.html" target="_top" xlink:title=" ">
<polygon fill="none" stroke="black" points="627,-123.5 627,-153.5 758,-153.5 758,-123.5 627,-123.5"/>
<text text-anchor="start" x="635" y="-141.5" font-family="Helvetica,sans-Serif" font-size="10.00">inst/include/community</text>
<text text-anchor="middle" x="692.5" y="-130.5" font-family="Helvetica,sans-Serif" font-size="10.00">_properties.h</text>
</a>
</g>
</g>
<!-- Node9&#45;&gt;Node12 -->
<g id="edge12" class="edge">
<title>Node9&#45;&gt;Node12</title>
<path fill="none" stroke="midnightblue" d="M574.25,-186.72C598.44,-177.06 632.14,-163.6 657.38,-153.52"/>
<polygon fill="midnightblue" stroke="midnightblue" points="572.84,-183.52 564.85,-190.48 575.43,-190.02 572.84,-183.52"/>
</g>
<!-- Node14 -->
<g id="node14" class="node">
<title>Node14</title>
<g id="a_node14"><a xlink:href="plantfate__patch_8h.html" target="_top" xlink:title=" ">
<polygon fill="none" stroke="black" points="707.5,-56.5 707.5,-86.5 827.5,-86.5 827.5,-56.5 707.5,-56.5"/>
<text text-anchor="start" x="715.5" y="-74.5" font-family="Helvetica,sans-Serif" font-size="10.00">inst/include/plantfate</text>
<text text-anchor="middle" x="767.5" y="-63.5" font-family="Helvetica,sans-Serif" font-size="10.00">_patch.h</text>
</a>
</g>
</g>
<!-- Node9&#45;&gt;Node14 -->
<g id="edge19" class="edge">
<title>Node9&#45;&gt;Node14</title>
<path fill="none" stroke="midnightblue" d="M634.07,-192.15C688.11,-185.97 749.45,-174.58 766.5,-154 782.12,-135.15 777.09,-104.56 772.18,-86.7"/>
<polygon fill="midnightblue" stroke="midnightblue" points="633.64,-188.67 624.08,-193.24 634.4,-195.63 633.64,-188.67"/>
</g>
<!-- Node17 -->
<g id="node17" class="node">
<title>Node17</title>
<g id="a_node17"><a xlink:href="state__restore_8h.html" target="_top" xlink:title=" ">
<polygon fill="none" stroke="black" points="815,-123.5 815,-153.5 916,-153.5 916,-123.5 815,-123.5"/>
<text text-anchor="start" x="823" y="-141.5" font-family="Helvetica,sans-Serif" font-size="10.00">inst/include/state</text>
<text text-anchor="middle" x="865.5" y="-130.5" font-family="Helvetica,sans-Serif" font-size="10.00">_restore.h</text>
</a>
</g>
</g>
<!-- Node9&#45;&gt;Node17 -->
<g id="edge20" class="edge">
<title>Node9&#45;&gt;Node17</title>
<path fill="none" stroke="midnightblue" d="M606.4,-188.82C658.52,-180.18 734.49,-167.14 800.5,-154 805.15,-153.07 809.98,-152.07 814.81,-151.05"/>
<polygon fill="midnightblue" stroke="midnightblue" points="605.59,-185.4 596.3,-190.49 606.74,-192.31 605.59,-185.4"/>
</g>
<!-- Node13 -->
<g id="node13" class="node">
<title>Node13</title>
<g id="a_node13"><a xlink:href="community__properties_8cpp.html" target="_top" xlink:title=" ">
<polygon fill="none" stroke="black" points="519.5,-0.5 519.5,-19.5 683.5,-19.5 683.5,-0.5 519.5,-0.5"/>
<text text-anchor="middle" x="601.5" y="-7.5" font-family="Helvetica,sans-Serif" font-size="10.00">src/community_properties.cpp</text>
</a>
</g>
</g>
<!-- Node12&#45;&gt;Node13 -->
<g id="edge13" class="edge">
<title>Node12&#45;&gt;Node13</title>
<path fill="none" stroke="midnightblue" d="M676.32,-115C655.92,-86.65 621.84,-39.28 607.82,-19.79"/>
<polygon fill="midnightblue" stroke="midnightblue" points="673.73,-117.41 682.41,-123.48 679.42,-113.32 673.73,-117.41"/>
</g>
<!-- Node12&#45;&gt;Node14 -->
<g id="edge14" class="edge">
<title>Node12&#45;&gt;Node14</title>
<path fill="none" stroke="midnightblue" d="M716.62,-116.6C727.94,-106.78 741.14,-95.34 751.26,-86.58"/>
<polygon fill="midnightblue" stroke="midnightblue" points="714.04,-114.2 708.77,-123.4 718.62,-119.49 714.04,-114.2"/>
</g>
<!-- Node14&#45;&gt;Node7 -->
<g id="edge17" class="edge">
<title>Node14&#45;&gt;Node7</title>
<path fill="none" stroke="midnightblue" d="M697.36,-61.79C600.84,-49.8 429.14,-28.47 342.17,-17.67"/>
<polygon fill="midnightblue" stroke="midnightblue" points="696.96,-65.27 707.32,-63.02 697.83,-58.32 696.96,-65.27"/>
</g>
<!-- Node14&#45;&gt;Node13 -->
<g id="edge15" class="edge">
<title>Node14&#45;&gt;Node13</title>
<path fill="none" stroke="midnightblue" d="M718.52,-52.94C687.93,-41.98 649.9,-28.35 625.65,-19.66"/>
<polygon fill="midnightblue" stroke="midnightblue" points="717.57,-56.32 728.16,-56.4 719.93,-49.73 717.57,-56.32"/>
</g>
<!-- Node15 -->
<g id="node15" class="node">
<title>Node15</title>
<g id="a_node15"><a xlink:href="plantfate__patch_8cpp.html" target="_top" xlink:title=" ">
<polygon fill="none" stroke="black" points="702,-0.5 702,-19.5 833,-19.5 833,-0.5 702,-0.5"/>
<text text-anchor="middle" x="767.5" y="-7.5" font-family="Helvetica,sans-Serif" font-size="10.00">src/plantfate_patch.cpp</text>
</a>
</g>
</g>
<!-- Node14&#45;&gt;Node15 -->
<g id="edge16" class="edge">
<title>Node14&#45;&gt;Node15</title>
<path fill="none" stroke="midnightblue" d="M767.5,-46.29C767.5,-36.86 767.5,-26.65 767.5,-19.66"/>
<polygon fill="midnightblue" stroke="midnightblue" points="764,-46.4 767.5,-56.4 771,-46.4 764,-46.4"/>
</g>
<!-- Node16 -->
<g id="node16" class="node">
<title>Node16</title>
<g id="a_node16"><a xlink:href="state__restore_8cpp.html" target="_top" xlink:title=" ">
<polygon fill="none" stroke="black" points="851,-0.5 851,-19.5 970,-19.5 970,-0.5 851,-0.5"/>
<text text-anchor="middle" x="910.5" y="-7.5" font-family="Helvetica,sans-Serif" font-size="10.00">src/state_restore.cpp</text>
</a>
</g>
</g>
<!-- Node14&#45;&gt;Node16 -->
<g id="edge18" class="edge">
<title>Node14&#45;&gt;Node16</title>
<path fill="none" stroke="midnightblue" d="M810.72,-52.52C836.89,-41.63 869.08,-28.23 889.69,-19.66"/>
<polygon fill="midnightblue" stroke="midnightblue" points="809.28,-49.33 801.39,-56.4 811.97,-55.79 809.28,-49.33"/>
</g>
<!-- Node17&#45;&gt;Node14 -->
<g id="edge22" class="edge">
<title>Node17&#45;&gt;Node14</title>
<path fill="none" stroke="midnightblue" d="M835.7,-117.73C820.53,-107.68 802.46,-95.68 788.72,-86.58"/>
<polygon fill="midnightblue" stroke="midnightblue" points="833.97,-120.79 844.24,-123.4 837.84,-114.95 833.97,-120.79"/>
</g>
<!-- Node17&#45;&gt;Node16 -->
<g id="edge21" class="edge">
<title>Node17&#45;&gt;Node16</title>
<path fill="none" stroke="midnightblue" d="M873.9,-113.89C884.02,-85.43 900.53,-39.03 907.37,-19.79"/>
<polygon fill="midnightblue" stroke="midnightblue" points="870.54,-112.88 870.49,-123.48 877.14,-115.23 870.54,-112.88"/>
</g>
</g>
</svg>
