<?xml version="1.0" encoding="UTF-8" standalone="no"?>
<!DOCTYPE svg PUBLIC "-//W3C//DTD SVG 1.1//EN"
 "http://www.w3.org/Graphics/SVG/1.1/DTD/svg11.dtd">
<!-- Generated by graphviz version 2.43.0 (0)
 -->
<!-- Title: inst/include/state_restore.h Pages: 1 -->
<svg width="584pt" height="162pt"
 viewBox="0.00 0.00 584.00 162.00" xmlns="http://www.w3.org/2000/svg" xmlns:xlink="http://www.w3.org/1999/xlink">
<g id="graph0" class="graph" transform="scale(1 1) rotate(0) translate(4 158)">
<title>inst/include/state_restore.h</title>
<!-- Node1 -->
<g id="node1" class="node">
<title>Node1</title>
<g id="a_node1"><a xlink:title=" ">
<polygon fill="#bfbfbf" stroke="black" points="89,-123.5 89,-153.5 190,-153.5 190,-123.5 89,-123.5"/>
<text text-anchor="start" x="97" y="-141.5" font-family="Helvetica,sans-Serif" font-size="10.00">inst/include/state</text>
<text text-anchor="middle" x="139.5" y="-130.5" font-family="Helvetica,sans-Serif" font-size="10.00">_restore.h</text>
</a>
</g>
</g>
<!-- Node2 -->
<g id="node2" class="node">
<title>Node2</title>
<g id="a_node2"><a xlink:href="state__restore_8cpp.html" target="_top" xlink:title=" ">
<polygon fill="none" stroke="black" points="0,-0.5 0,-19.5 119,-19.5 119,-0.5 0,-0.5"/>
<text text-anchor="middle" x="59.5" y="-7.5" font-family="Helvetica,sans-Serif" font-size="10.00">src/state_restore.cpp</text>
</a>
</g>
</g>
<!-- Node1&#45;&gt;Node2 -->
<g id="edge1" class="edge">
<title>Node1&#45;&gt;Node2</title>
<path fill="none" stroke="midnightblue" d="M125.27,-115C107.34,-86.65 77.39,-39.28 65.06,-19.79"/>
<polygon fill="midnightblue" stroke="midnightblue" points="122.33,-116.9 130.63,-123.48 128.25,-113.16 122.33,-116.9"/>
</g>
<!-- Node3 -->
<g id="node3" class="node">
<title>Node3</title>
<g id="a_node3"><a xlink:href="plantfate__patch_8h.html" target="_top" xlink:title=" ">
<polygon fill="none" stroke="black" points="159.5,-56.5 159.5,-86.5 279.5,-86.5 279.5,-56.5 159.5,-56.5"/>
<text text-anchor="start" x="167.5" y="-74.5" font-family="Helvetica,sans-Serif" font-size="10.00">inst/include/plantfate</text>
<text text-anchor="middle" x="219.5" y="-63.5" font-family="Helvetica,sans-Serif" font-size="10.00">_patch.h</text>
</a>
</g>
</g>
<!-- Node1&#45;&gt;Node3 -->
<g id="edge2" class="edge">
<title>Node1&#45;&gt;Node3</title>
<path fill="none" stroke="midnightblue" d="M164.87,-116.88C177.03,-107.01 191.28,-95.43 202.18,-86.58"/>
<polygon fill="midnightblue" stroke="midnightblue" points="162.41,-114.37 156.86,-123.4 166.83,-119.81 162.41,-114.37"/>
</g>
<!-- Node3&#45;&gt;Node2 -->
<g id="edge6" class="edge">
<title>Node3&#45;&gt;Node2</title>
<path fill="none" stroke="midnightblue" d="M171.91,-52.8C142.49,-41.86 106.05,-28.31 82.78,-19.66"/>
<polygon fill="midnightblue" stroke="midnightblue" points="170.99,-56.19 181.58,-56.4 173.43,-49.63 170.99,-56.19"/>
</g>
<!-- Node4 -->
<g id="node4" class="node">
<title>Node4</title>
<g id="a_node4"><a xlink:href="community__properties_8cpp.html" target="_top" xlink:title=" ">
<polygon fill="none" stroke="black" points="137.5,-0.5 137.5,-19.5 301.5,-19.5 301.5,-0.5 137.5,-0.5"/>
<text text-anchor="middle" x="219.5" y="-7.5" font-family="Helvetica,sans-Serif" font-size="10.00">src/community_properties.cpp</text>
</a>
</g>
</g>
<!-- Node3&#45;&gt;Node4 -->
<g id="edge3" class="edge">
<title>Node3&#45;&gt;Node4</title>
<path fill="none" stroke="midnightblue" d="M219.5,-46.29C219.5,-36.86 219.5,-26.65 219.5,-19.66"/>
<polygon fill="midnightblue" stroke="midnightblue" points="216,-46.4 219.5,-56.4 223,-46.4 216,-46.4"/>
</g>
<!-- Node5 -->
<g id="node5" class="node">
<title>Node5</title>
<g id="a_node5"><a xlink:href="plantfate__patch_8cpp.html" target="_top" xlink:title=" ">
<polygon fill="none" stroke="black" points="320,-0.5 320,-19.5 451,-19.5 451,-0.5 320,-0.5"/>
<text text-anchor="middle" x="385.5" y="-7.5" font-family="Helvetica,sans-Serif" font-size="10.00">src/plantfate_patch.cpp</text>
</a>
</g>
</g>
<!-- Node3&#45;&gt;Node5 -->
<g id="edge4" class="edge">
<title>Node3&#45;&gt;Node5</title>
<path fill="none" stroke="midnightblue" d="M268.48,-52.94C299.07,-41.98 337.1,-28.35 361.35,-19.66"/>
<polygon fill="midnightblue" stroke="midnightblue" points="267.07,-49.73 258.84,-56.4 269.43,-56.32 267.07,-49.73"/>
</g>
<!-- Node6 -->
<g id="node6" class="node">
<title>Node6</title>
<g id="a_node6"><a xlink:href="r__interface_8cpp.html" target="_top" xlink:title=" ">
<polygon fill="none" stroke="black" points="469,-0.5 469,-19.5 576,-19.5 576,-0.5 469,-0.5"/>
<text text-anchor="middle" x="522.5" y="-7.5" font-family="Helvetica,sans-Serif" font-size="10.00">src/r_interface.cpp</text>
</a>
</g>
</g>
<!-- Node3&#45;&gt;Node6 -->
<g id="edge5" class="edge">
<title>Node3&#45;&gt;Node6</title>
<path fill="none" stroke="midnightblue" d="M289.63,-56.73C348.11,-45.24 429.59,-29.25 479.04,-19.53"/>
<polygon fill="midnightblue" stroke="midnightblue" points="288.86,-53.31 279.73,-58.67 290.21,-60.18 288.86,-53.31"/>
</g>
</g>
</svg>
