<?xml version="1.0" encoding="UTF-8" standalone="no"?>
<!DOCTYPE svg PUBLIC "-//W3C//DTD SVG 1.1//EN"
 "http://www.w3.org/Graphics/SVG/1.1/DTD/svg11.dtd">
<!-- Generated by graphviz version 2.43.0 (0)
 -->
<!-- Title: inst/include/state_restore.h Pages: 1 -->
<svg width="1333pt" height="431pt"
 viewBox="0.00 0.00 1332.94 431.00" xmlns="http://www.w3.org/2000/svg" xmlns:xlink="http://www.w3.org/1999/xlink">
<g id="graph0" class="graph" transform="scale(1 1) rotate(0) translate(4 427)">
<title>inst/include/state_restore.h</title>
<!-- Node1 -->
<g id="node1" class="node">
<title>Node1</title>
<g id="a_node1"><a xlink:title=" ">
<polygon fill="#bfbfbf" stroke="black" points="1023.94,-392.5 1023.94,-422.5 1124.94,-422.5 1124.94,-392.5 1023.94,-392.5"/>
<text text-anchor="start" x="1031.94" y="-410.5" font-family="Helvetica,sans-Serif" font-size="10.00">inst/include/state</text>
<text text-anchor="middle" x="1074.44" y="-399.5" font-family="Helvetica,sans-Serif" font-size="10.00">_restore.h</text>
</a>
</g>
</g>
<!-- Node2 -->
<g id="node2" class="node">
<title>Node2</title>
<g id="a_node2"><a xlink:title=" ">
<polygon fill="none" stroke="#bfbfbf" points="1269.94,-0.5 1269.94,-19.5 1324.94,-19.5 1324.94,-0.5 1269.94,-0.5"/>
<text text-anchor="middle" x="1297.44" y="-7.5" font-family="Helvetica,sans-Serif" font-size="10.00">fstream</text>
</a>
</g>
</g>
<!-- Node1&#45;&gt;Node2 -->
<g id="edge1" class="edge">
<title>Node1&#45;&gt;Node2</title>
<path fill="none" stroke="midnightblue" d="M1125.32,-397.87C1180.99,-385.16 1262.44,-355.55 1262.44,-291 1262.44,-291 1262.44,-291 1262.44,-121 1262.44,-87.07 1277.75,-49.91 1288.12,-28.63"/>
<polygon fill="midnightblue" stroke="midnightblue" points="1291.32,-30.05 1292.72,-19.54 1285.08,-26.88 1291.32,-30.05"/>
</g>
<!-- Node3 -->
<g id="node3" class="node">
<title>Node3</title>
<g id="a_node3"><a xlink:title=" ">
<polygon fill="none" stroke="#bfbfbf" points="951.44,-0.5 951.44,-19.5 995.44,-19.5 995.44,-0.5 951.44,-0.5"/>
<text text-anchor="middle" x="973.44" y="-7.5" font-family="Helvetica,sans-Serif" font-size="10.00">string</text>
</a>
</g>
</g>
<!-- Node1&#45;&gt;Node3 -->
<g id="edge2" class="edge">
<title>Node1&#45;&gt;Node3</title>
<path fill="none" stroke="midnightblue" d="M1105.49,-392.42C1140.15,-374.33 1191.44,-339.38 1191.44,-291 1191.44,-291 1191.44,-291 1191.44,-121 1191.44,-82.28 1166.3,-76.47 1133.44,-56 1085.49,-26.12 1063.92,-35.21 1005.2,-20.07"/>
<polygon fill="midnightblue" stroke="midnightblue" points="1006.02,-16.66 995.45,-17.42 1004.18,-23.42 1006.02,-16.66"/>
</g>
<!-- Node4 -->
<g id="node4" class="node">
<title>Node4</title>
<g id="a_node4"><a xlink:href="initializer__v2_8h.html" target="_top" xlink:title=" ">
<polygon fill="none" stroke="black" points="1011.94,-56.5 1011.94,-75.5 1124.94,-75.5 1124.94,-56.5 1011.94,-56.5"/>
<text text-anchor="middle" x="1068.44" y="-63.5" font-family="Helvetica,sans-Serif" font-size="10.00">utils/initializer_v2.h</text>
</a>
</g>
</g>
<!-- Node1&#45;&gt;Node4 -->
<g id="edge3" class="edge">
<title>Node1&#45;&gt;Node4</title>
<path fill="none" stroke="midnightblue" d="M1074.44,-392.28C1074.44,-370.48 1074.44,-327.49 1074.44,-291 1074.44,-291 1074.44,-291 1074.44,-177 1074.44,-144.9 1071.86,-107.61 1070.09,-85.73"/>
<polygon fill="midnightblue" stroke="midnightblue" points="1073.56,-85.22 1069.23,-75.55 1066.58,-85.81 1073.56,-85.22"/>
</g>
<!-- Node11 -->
<g id="node11" class="node">
<title>Node11</title>
<g id="a_node11"><a xlink:href="adaptive__species_8h.html" target="_top" xlink:title=" ">
<polygon fill="none" stroke="black" points="347.44,-112.5 347.44,-131.5 457.44,-131.5 457.44,-112.5 347.44,-112.5"/>
<text text-anchor="middle" x="402.44" y="-119.5" font-family="Helvetica,sans-Serif" font-size="10.00">adaptive_species.h</text>
</a>
</g>
</g>
<!-- Node1&#45;&gt;Node11 -->
<g id="edge12" class="edge">
<title>Node1&#45;&gt;Node11</title>
<path fill="none" stroke="midnightblue" d="M1023.76,-404.99C840.55,-398.88 223.44,-372.26 223.44,-291 223.44,-291 223.44,-291 223.44,-233 223.44,-175.77 290.67,-147.38 342.73,-133.96"/>
<polygon fill="midnightblue" stroke="midnightblue" points="343.7,-137.33 352.58,-131.55 342.03,-130.53 343.7,-137.33"/>
</g>
<!-- Node20 -->
<g id="node20" class="node">
<title>Node20</title>
<g id="a_node20"><a xlink:href="pspm__interface_8h.html" target="_top" xlink:title=" ">
<polygon fill="none" stroke="black" points="536.94,-336.5 536.94,-355.5 637.94,-355.5 637.94,-336.5 536.94,-336.5"/>
<text text-anchor="middle" x="587.44" y="-343.5" font-family="Helvetica,sans-Serif" font-size="10.00">pspm_interface.h</text>
</a>
</g>
</g>
<!-- Node1&#45;&gt;Node20 -->
<g id="edge25" class="edge">
<title>Node1&#45;&gt;Node20</title>
<path fill="none" stroke="midnightblue" d="M1023.7,-400.3C933.35,-389.26 744.99,-366.25 648.01,-354.4"/>
<polygon fill="midnightblue" stroke="midnightblue" points="648.42,-350.92 638.07,-353.19 647.57,-357.87 648.42,-350.92"/>
</g>
<!-- Node4&#45;&gt;Node2 -->
<g id="edge7" class="edge">
<title>Node4&#45;&gt;Node2</title>
<path fill="none" stroke="midnightblue" d="M1105.27,-56.46C1141.9,-47.95 1199.96,-34.41 1259.6,-20.19"/>
<polygon fill="midnightblue" stroke="midnightblue" points="1260.65,-23.53 1269.57,-17.81 1259.03,-16.72 1260.65,-23.53"/>
</g>
<!-- Node4&#45;&gt;Node3 -->
<g id="edge6" class="edge">
<title>Node4&#45;&gt;Node3</title>
<path fill="none" stroke="midnightblue" d="M1053.18,-56.32C1038.22,-47.82 1015.19,-34.73 997.71,-24.8"/>
<polygon fill="midnightblue" stroke="midnightblue" points="999.09,-21.55 988.67,-19.65 995.63,-27.64 999.09,-21.55"/>
</g>
<!-- Node5 -->
<g id="node5" class="node">
<title>Node5</title>
<g id="a_node5"><a xlink:title=" ">
<polygon fill="none" stroke="#bfbfbf" points="721.44,-0.5 721.44,-19.5 781.44,-19.5 781.44,-0.5 721.44,-0.5"/>
<text text-anchor="middle" x="751.44" y="-7.5" font-family="Helvetica,sans-Serif" font-size="10.00">iostream</text>
</a>
</g>
</g>
<!-- Node4&#45;&gt;Node5 -->
<g id="edge4" class="edge">
<title>Node4&#45;&gt;Node5</title>
<path fill="none" stroke="midnightblue" d="M1011.81,-56.96C957.69,-49.02 873.61,-36.02 791.62,-20.13"/>
<polygon fill="midnightblue" stroke="midnightblue" points="792.12,-16.66 781.63,-18.18 790.78,-23.53 792.12,-16.66"/>
</g>
<!-- Node6 -->
<g id="node6" class="node">
<title>Node6</title>
<g id="a_node6"><a xlink:title=" ">
<polygon fill="none" stroke="#bfbfbf" points="1013.44,-0.5 1013.44,-19.5 1057.44,-19.5 1057.44,-0.5 1013.44,-0.5"/>
<text text-anchor="middle" x="1035.44" y="-7.5" font-family="Helvetica,sans-Serif" font-size="10.00">regex</text>
</a>
</g>
</g>
<!-- Node4&#45;&gt;Node6 -->
<g id="edge5" class="edge">
<title>Node4&#45;&gt;Node6</title>
<path fill="none" stroke="midnightblue" d="M1062.99,-56.08C1058.43,-48.61 1051.77,-37.72 1046.15,-28.52"/>
<polygon fill="midnightblue" stroke="midnightblue" points="1048.99,-26.46 1040.79,-19.75 1043.02,-30.11 1048.99,-26.46"/>
</g>
<!-- Node7 -->
<g id="node7" class="node">
<title>Node7</title>
<g id="a_node7"><a xlink:title=" ">
<polygon fill="none" stroke="#bfbfbf" points="437.94,-0.5 437.94,-19.5 484.94,-19.5 484.94,-0.5 437.94,-0.5"/>
<text text-anchor="middle" x="461.44" y="-7.5" font-family="Helvetica,sans-Serif" font-size="10.00">vector</text>
</a>
</g>
</g>
<!-- Node4&#45;&gt;Node7 -->
<g id="edge8" class="edge">
<title>Node4&#45;&gt;Node7</title>
<path fill="none" stroke="midnightblue" d="M1011.75,-61.16C883.21,-52.39 575.21,-30.85 495.21,-19.61"/>
<polygon fill="midnightblue" stroke="midnightblue" points="495.54,-16.12 485.11,-18.03 494.45,-23.03 495.54,-16.12"/>
</g>
<!-- Node8 -->
<g id="node8" class="node">
<title>Node8</title>
<g id="a_node8"><a xlink:title=" ">
<polygon fill="none" stroke="#bfbfbf" points="877.44,-0.5 877.44,-19.5 933.44,-19.5 933.44,-0.5 877.44,-0.5"/>
<text text-anchor="middle" x="905.44" y="-7.5" font-family="Helvetica,sans-Serif" font-size="10.00">sstream</text>
</a>
</g>
</g>
<!-- Node4&#45;&gt;Node8 -->
<g id="edge9" class="edge">
<title>Node4&#45;&gt;Node8</title>
<path fill="none" stroke="midnightblue" d="M1042.61,-56.44C1015.19,-47.36 971.66,-32.94 941.01,-22.78"/>
<polygon fill="midnightblue" stroke="midnightblue" points="941.74,-19.34 931.15,-19.52 939.54,-25.98 941.74,-19.34"/>
</g>
<!-- Node9 -->
<g id="node9" class="node">
<title>Node9</title>
<g id="a_node9"><a xlink:title=" ">
<polygon fill="none" stroke="#bfbfbf" points="1075.94,-0.5 1075.94,-19.5 1140.94,-19.5 1140.94,-0.5 1075.94,-0.5"/>
<text text-anchor="middle" x="1108.44" y="-7.5" font-family="Helvetica,sans-Serif" font-size="10.00">stdexcept</text>
</a>
</g>
</g>
<!-- Node4&#45;&gt;Node9 -->
<g id="edge10" class="edge">
<title>Node4&#45;&gt;Node9</title>
<path fill="none" stroke="midnightblue" d="M1075.05,-56.08C1080.7,-48.46 1088.99,-37.26 1095.89,-27.94"/>
<polygon fill="midnightblue" stroke="midnightblue" points="1098.82,-29.87 1101.96,-19.75 1093.19,-25.7 1098.82,-29.87"/>
</g>
<!-- Node10 -->
<g id="node10" class="node">
<title>Node10</title>
<g id="a_node10"><a xlink:title=" ">
<polygon fill="none" stroke="#bfbfbf" points="1158.94,-0.5 1158.94,-19.5 1251.94,-19.5 1251.94,-0.5 1158.94,-0.5"/>
<text text-anchor="middle" x="1205.44" y="-7.5" font-family="Helvetica,sans-Serif" font-size="10.00">unordered_map</text>
</a>
</g>
</g>
<!-- Node4&#45;&gt;Node10 -->
<g id="edge11" class="edge">
<title>Node4&#45;&gt;Node10</title>
<path fill="none" stroke="midnightblue" d="M1090.15,-56.44C1112.8,-47.52 1148.51,-33.44 1174.19,-23.32"/>
<polygon fill="midnightblue" stroke="midnightblue" points="1175.82,-26.44 1183.84,-19.52 1173.25,-19.93 1175.82,-26.44"/>
</g>
<!-- Node11&#45;&gt;Node3 -->
<g id="edge15" class="edge">
<title>Node11&#45;&gt;Node3</title>
<path fill="none" stroke="midnightblue" d="M457.66,-118.85C584.01,-113.57 886.37,-98.69 926.44,-76 944.95,-65.52 958.11,-44.4 965.71,-29.08"/>
<polygon fill="midnightblue" stroke="midnightblue" points="969.07,-30.14 970.08,-19.59 962.71,-27.21 969.07,-30.14"/>
</g>
<!-- Node11&#45;&gt;Node7 -->
<g id="edge14" class="edge">
<title>Node11&#45;&gt;Node7</title>
<path fill="none" stroke="midnightblue" d="M397.04,-112.44C389.6,-99.46 378.2,-74.34 388.44,-56 397.01,-40.64 413.22,-29.88 428.19,-22.74"/>
<polygon fill="midnightblue" stroke="midnightblue" points="429.99,-25.77 437.75,-18.55 427.19,-19.35 429.99,-25.77"/>
</g>
<!-- Node12 -->
<g id="node12" class="node">
<title>Node12</title>
<g id="a_node12"><a xlink:title=" ">
<polygon fill="none" stroke="#bfbfbf" points="147.44,-56.5 147.44,-75.5 203.44,-75.5 203.44,-56.5 147.44,-56.5"/>
<text text-anchor="middle" x="175.44" y="-63.5" font-family="Helvetica,sans-Serif" font-size="10.00">solver.h</text>
</a>
</g>
</g>
<!-- Node11&#45;&gt;Node12 -->
<g id="edge13" class="edge">
<title>Node11&#45;&gt;Node12</title>
<path fill="none" stroke="midnightblue" d="M366,-112.44C329.76,-103.91 272.3,-90.34 213.54,-76.25"/>
<polygon fill="midnightblue" stroke="midnightblue" points="214.26,-72.83 203.72,-73.9 212.63,-79.63 214.26,-72.83"/>
</g>
<!-- Node13 -->
<g id="node13" class="node">
<title>Node13</title>
<g id="a_node13"><a xlink:title=" ">
<polygon fill="none" stroke="#bfbfbf" points="585.94,-56.5 585.94,-75.5 646.94,-75.5 646.94,-56.5 585.94,-56.5"/>
<text text-anchor="middle" x="616.44" y="-63.5" font-family="Helvetica,sans-Serif" font-size="10.00">io_utils.h</text>
</a>
</g>
</g>
<!-- Node11&#45;&gt;Node13 -->
<g id="edge16" class="edge">
<title>Node11&#45;&gt;Node13</title>
<path fill="none" stroke="midnightblue" d="M436.35,-112.44C474.27,-102.88 535.65,-87.39 576.03,-77.2"/>
<polygon fill="midnightblue" stroke="midnightblue" points="576.97,-80.57 585.81,-74.73 575.26,-73.78 576.97,-80.57"/>
</g>
<!-- Node14 -->
<g id="node14" class="node">
<title>Node14</title>
<g id="a_node14"><a xlink:href="moving__average_8h.html" target="_top" xlink:title=" ">
<polygon fill="none" stroke="black" points="397.94,-56.5 397.94,-75.5 528.94,-75.5 528.94,-56.5 397.94,-56.5"/>
<text text-anchor="middle" x="463.44" y="-63.5" font-family="Helvetica,sans-Serif" font-size="10.00">utils/moving_average.h</text>
</a>
</g>
</g>
<!-- Node11&#45;&gt;Node14 -->
<g id="edge17" class="edge">
<title>Node11&#45;&gt;Node14</title>
<path fill="none" stroke="midnightblue" d="M412.24,-112.32C421.26,-104.34 434.85,-92.31 445.76,-82.65"/>
<polygon fill="midnightblue" stroke="midnightblue" points="448.29,-85.08 453.46,-75.83 443.66,-79.84 448.29,-85.08"/>
</g>
<!-- Node19 -->
<g id="node19" class="node">
<title>Node19</title>
<g id="a_node19"><a xlink:href="adaptive__species_8tpp.html" target="_top" xlink:title=" ">
<polygon fill="none" stroke="black" points="221.44,-56.5 221.44,-75.5 341.44,-75.5 341.44,-56.5 221.44,-56.5"/>
<text text-anchor="middle" x="281.44" y="-63.5" font-family="Helvetica,sans-Serif" font-size="10.00">adaptive_species.tpp</text>
</a>
</g>
</g>
<!-- Node11&#45;&gt;Node19 -->
<g id="edge24" class="edge">
<title>Node11&#45;&gt;Node19</title>
<path fill="none" stroke="midnightblue" d="M383.27,-112.44C363.53,-103.64 332.56,-89.81 309.95,-79.72"/>
<polygon fill="midnightblue" stroke="midnightblue" points="311.08,-76.4 300.52,-75.52 308.23,-82.79 311.08,-76.4"/>
</g>
<!-- Node14&#45;&gt;Node5 -->
<g id="edge18" class="edge">
<title>Node14&#45;&gt;Node5</title>
<path fill="none" stroke="midnightblue" d="M513.91,-56.48C564.1,-47.86 643.26,-33.85 711.44,-20 711.54,-19.98 711.64,-19.96 711.74,-19.94"/>
<polygon fill="midnightblue" stroke="midnightblue" points="712.27,-23.41 721.33,-17.92 710.82,-16.56 712.27,-23.41"/>
</g>
<!-- Node14&#45;&gt;Node7 -->
<g id="edge22" class="edge">
<title>Node14&#45;&gt;Node7</title>
<path fill="none" stroke="midnightblue" d="M463.11,-56.08C462.85,-49.01 462.47,-38.86 462.14,-29.99"/>
<polygon fill="midnightblue" stroke="midnightblue" points="465.63,-29.61 461.77,-19.75 458.64,-29.87 465.63,-29.61"/>
</g>
<!-- Node15 -->
<g id="node15" class="node">
<title>Node15</title>
<g id="a_node15"><a xlink:title=" ">
<polygon fill="none" stroke="#bfbfbf" points="387.44,-0.5 387.44,-19.5 419.44,-19.5 419.44,-0.5 387.44,-0.5"/>
<text text-anchor="middle" x="403.44" y="-7.5" font-family="Helvetica,sans-Serif" font-size="10.00">list</text>
</a>
</g>
</g>
<!-- Node14&#45;&gt;Node15 -->
<g id="edge19" class="edge">
<title>Node14&#45;&gt;Node15</title>
<path fill="none" stroke="midnightblue" d="M453.8,-56.32C444.93,-48.34 431.57,-36.31 420.83,-26.65"/>
<polygon fill="midnightblue" stroke="midnightblue" points="423.03,-23.92 413.26,-19.83 418.35,-29.13 423.03,-23.92"/>
</g>
<!-- Node16 -->
<g id="node16" class="node">
<title>Node16</title>
<g id="a_node16"><a xlink:title=" ">
<polygon fill="none" stroke="#bfbfbf" points="655.94,-0.5 655.94,-19.5 702.94,-19.5 702.94,-0.5 655.94,-0.5"/>
<text text-anchor="middle" x="679.44" y="-7.5" font-family="Helvetica,sans-Serif" font-size="10.00">cmath</text>
</a>
</g>
</g>
<!-- Node14&#45;&gt;Node16 -->
<g id="edge20" class="edge">
<title>Node14&#45;&gt;Node16</title>
<path fill="none" stroke="midnightblue" d="M499.28,-56.47C534.2,-48.09 589.04,-34.78 645.8,-20.12"/>
<polygon fill="midnightblue" stroke="midnightblue" points="646.87,-23.46 655.67,-17.56 645.11,-16.68 646.87,-23.46"/>
</g>
<!-- Node17 -->
<g id="node17" class="node">
<title>Node17</title>
<g id="a_node17"><a xlink:title=" ">
<polygon fill="none" stroke="#bfbfbf" points="585.44,-0.5 585.44,-19.5 637.44,-19.5 637.44,-0.5 585.44,-0.5"/>
<text text-anchor="middle" x="611.44" y="-7.5" font-family="Helvetica,sans-Serif" font-size="10.00">cassert</text>
</a>
</g>
</g>
<!-- Node14&#45;&gt;Node17 -->
<g id="edge21" class="edge">
<title>Node14&#45;&gt;Node17</title>
<path fill="none" stroke="midnightblue" d="M486.89,-56.44C511.57,-47.44 550.63,-33.19 578.42,-23.05"/>
<polygon fill="midnightblue" stroke="midnightblue" points="579.91,-26.23 588.1,-19.52 577.51,-19.66 579.91,-26.23"/>
</g>
<!-- Node18 -->
<g id="node18" class="node">
<title>Node18</title>
<g id="a_node18"><a xlink:title=" ">
<polygon fill="none" stroke="#bfbfbf" points="503.44,-0.5 503.44,-19.5 567.44,-19.5 567.44,-0.5 503.44,-0.5"/>
<text text-anchor="middle" x="535.44" y="-7.5" font-family="Helvetica,sans-Serif" font-size="10.00">algorithm</text>
</a>
</g>
</g>
<!-- Node14&#45;&gt;Node18 -->
<g id="edge23" class="edge">
<title>Node14&#45;&gt;Node18</title>
<path fill="none" stroke="midnightblue" d="M475.01,-56.32C485.86,-48.18 502.32,-35.84 515.33,-26.09"/>
<polygon fill="midnightblue" stroke="midnightblue" points="517.76,-28.63 523.66,-19.83 513.56,-23.03 517.76,-28.63"/>
</g>
<!-- Node20&#45;&gt;Node12 -->
<g id="edge27" class="edge">
<title>Node20&#45;&gt;Node12</title>
<path fill="none" stroke="midnightblue" d="M536.92,-341.57C468.13,-336.1 349.4,-323.51 313.44,-300 233.27,-247.59 193.3,-131.03 180.32,-85.62"/>
<polygon fill="midnightblue" stroke="midnightblue" points="183.62,-84.4 177.6,-75.69 176.87,-86.26 183.62,-84.4"/>
</g>
<!-- Node21 -->
<g id="node21" class="node">
<title>Node21</title>
<g id="a_node21"><a xlink:title=" ">
<polygon fill="none" stroke="#bfbfbf" points="322.44,-280.5 322.44,-299.5 424.44,-299.5 424.44,-280.5 322.44,-280.5"/>
<text text-anchor="middle" x="373.44" y="-287.5" font-family="Helvetica,sans-Serif" font-size="10.00">individual_base.h</text>
</a>
</g>
</g>
<!-- Node20&#45;&gt;Node21 -->
<g id="edge26" class="edge">
<title>Node20&#45;&gt;Node21</title>
<path fill="none" stroke="midnightblue" d="M553.53,-336.44C516.59,-327.12 457.39,-312.18 417.02,-302"/>
<polygon fill="midnightblue" stroke="midnightblue" points="417.74,-298.57 407.19,-299.52 416.03,-305.36 417.74,-298.57"/>
</g>
<!-- Node22 -->
<g id="node22" class="node">
<title>Node22</title>
<g id="a_node22"><a xlink:href="light__environment_8h.html" target="_top" xlink:title=" ">
<polygon fill="none" stroke="black" points="213.94,-112.5 213.94,-131.5 328.94,-131.5 328.94,-112.5 213.94,-112.5"/>
<text text-anchor="middle" x="271.44" y="-119.5" font-family="Helvetica,sans-Serif" font-size="10.00">light_environment.h</text>
</a>
</g>
</g>
<!-- Node20&#45;&gt;Node22 -->
<g id="edge28" class="edge">
<title>Node20&#45;&gt;Node22</title>
<path fill="none" stroke="midnightblue" d="M575.05,-336.3C526.97,-302.52 352.39,-179.87 292.09,-137.51"/>
<polygon fill="midnightblue" stroke="midnightblue" points="293.94,-134.53 283.74,-131.64 289.91,-140.25 293.94,-134.53"/>
</g>
<!-- Node24 -->
<g id="node24" class="node">
<title>Node24</title>
<g id="a_node24"><a xlink:href="climate_8h.html" target="_top" xlink:title=" ">
<polygon fill="none" stroke="black" points="855.44,-56.5 855.44,-75.5 917.44,-75.5 917.44,-56.5 855.44,-56.5"/>
<text text-anchor="middle" x="886.44" y="-63.5" font-family="Helvetica,sans-Serif" font-size="10.00">climate.h</text>
</a>
</g>
</g>
<!-- Node20&#45;&gt;Node24 -->
<g id="edge33" class="edge">
<title>Node20&#45;&gt;Node24</title>
<path fill="none" stroke="midnightblue" d="M638.02,-340.36C704.28,-331.85 820.8,-308.24 895.44,-244 923.35,-219.98 935.65,-204.11 928.44,-168 922.3,-137.23 906.59,-104.12 896.23,-84.49"/>
<polygon fill="midnightblue" stroke="midnightblue" points="899.22,-82.66 891.37,-75.55 893.06,-86 899.22,-82.66"/>
</g>
<!-- Node26 -->
<g id="node26" class="node">
<title>Node26</title>
<g id="a_node26"><a xlink:href="plant_8h.html" target="_top" xlink:title=" ">
<polygon fill="none" stroke="black" points="697.44,-280.5 697.44,-299.5 747.44,-299.5 747.44,-280.5 697.44,-280.5"/>
<text text-anchor="middle" x="722.44" y="-287.5" font-family="Helvetica,sans-Serif" font-size="10.00">plant.h</text>
</a>
</g>
</g>
<!-- Node20&#45;&gt;Node26 -->
<g id="edge41" class="edge">
<title>Node20&#45;&gt;Node26</title>
<path fill="none" stroke="midnightblue" d="M608.83,-336.44C631.15,-327.52 666.34,-313.44 691.65,-303.32"/>
<polygon fill="midnightblue" stroke="midnightblue" points="693.17,-306.48 701.15,-299.52 690.57,-299.98 693.17,-306.48"/>
</g>
<!-- Node22&#45;&gt;Node5 -->
<g id="edge29" class="edge">
<title>Node22&#45;&gt;Node5</title>
<path fill="none" stroke="midnightblue" d="M327.41,-112.47C399.49,-101.33 517.88,-82.5 537.44,-76 555.93,-69.86 558.23,-62.91 576.44,-56 600.93,-46.7 667.93,-30.39 711.57,-20.17"/>
<polygon fill="midnightblue" stroke="midnightblue" points="712.36,-23.57 721.31,-17.89 710.77,-16.76 712.36,-23.57"/>
</g>
<!-- Node22&#45;&gt;Node7 -->
<g id="edge30" class="edge">
<title>Node22&#45;&gt;Node7</title>
<path fill="none" stroke="midnightblue" d="M213.72,-119.67C143.4,-116.68 30.7,-107.05 4.44,-76 -1.3,-69.21 -1.57,-62.55 4.44,-56 34.87,-22.88 348.9,-27.66 427.58,-19.39"/>
<polygon fill="midnightblue" stroke="midnightblue" points="428.33,-22.82 437.77,-18.01 427.39,-15.89 428.33,-22.82"/>
</g>
<!-- Node22&#45;&gt;Node12 -->
<g id="edge32" class="edge">
<title>Node22&#45;&gt;Node12</title>
<path fill="none" stroke="midnightblue" d="M256.02,-112.32C240.9,-103.82 217.63,-90.73 199.97,-80.8"/>
<polygon fill="midnightblue" stroke="midnightblue" points="201.26,-77.51 190.83,-75.65 197.83,-83.61 201.26,-77.51"/>
</g>
<!-- Node23 -->
<g id="node23" class="node">
<title>Node23</title>
<g id="a_node23"><a xlink:title=" ">
<polygon fill="none" stroke="#bfbfbf" points="13.44,-56.5 13.44,-75.5 129.44,-75.5 129.44,-56.5 13.44,-56.5"/>
<text text-anchor="middle" x="71.44" y="-63.5" font-family="Helvetica,sans-Serif" font-size="10.00">environment_base.h</text>
</a>
</g>
</g>
<!-- Node22&#45;&gt;Node23 -->
<g id="edge31" class="edge">
<title>Node22&#45;&gt;Node23</title>
<path fill="none" stroke="midnightblue" d="M239.75,-112.44C205.37,-103.16 150.36,-88.31 112.65,-78.13"/>
<polygon fill="midnightblue" stroke="midnightblue" points="113.55,-74.74 102.98,-75.52 111.73,-81.5 113.55,-74.74"/>
</g>
<!-- Node24&#45;&gt;Node2 -->
<g id="edge35" class="edge">
<title>Node24&#45;&gt;Node2</title>
<path fill="none" stroke="midnightblue" d="M917.66,-62.51C980.51,-57.22 1126.93,-43.53 1259.7,-19.93"/>
<polygon fill="midnightblue" stroke="midnightblue" points="1260.42,-23.36 1269.64,-18.14 1259.17,-16.47 1260.42,-23.36"/>
</g>
<!-- Node24&#45;&gt;Node3 -->
<g id="edge34" class="edge">
<title>Node24&#45;&gt;Node3</title>
<path fill="none" stroke="midnightblue" d="M900.42,-56.32C913.99,-47.9 934.82,-34.97 950.77,-25.07"/>
<polygon fill="midnightblue" stroke="midnightblue" points="952.85,-27.9 959.5,-19.65 949.16,-21.95 952.85,-27.9"/>
</g>
<!-- Node24&#45;&gt;Node5 -->
<g id="edge37" class="edge">
<title>Node24&#45;&gt;Node5</title>
<path fill="none" stroke="midnightblue" d="M865.05,-56.44C842.73,-47.52 807.54,-33.44 782.23,-23.32"/>
<polygon fill="midnightblue" stroke="midnightblue" points="783.32,-19.98 772.73,-19.52 780.72,-26.48 783.32,-19.98"/>
</g>
<!-- Node24&#45;&gt;Node7 -->
<g id="edge39" class="edge">
<title>Node24&#45;&gt;Node7</title>
<path fill="none" stroke="midnightblue" d="M855.2,-63.03C790.04,-58.58 634.8,-46.19 495.16,-19.85"/>
<polygon fill="midnightblue" stroke="midnightblue" points="495.61,-16.37 485.13,-17.92 494.3,-23.24 495.61,-16.37"/>
</g>
<!-- Node24&#45;&gt;Node8 -->
<g id="edge36" class="edge">
<title>Node24&#45;&gt;Node8</title>
<path fill="none" stroke="midnightblue" d="M889.58,-56.08C892.12,-48.85 895.8,-38.41 898.97,-29.4"/>
<polygon fill="midnightblue" stroke="midnightblue" points="902.35,-30.35 902.36,-19.75 895.74,-28.02 902.35,-30.35"/>
</g>
<!-- Node24&#45;&gt;Node16 -->
<g id="edge38" class="edge">
<title>Node24&#45;&gt;Node16</title>
<path fill="none" stroke="midnightblue" d="M855.29,-57.08C822.36,-48.67 768.64,-34.87 712.91,-20.1"/>
<polygon fill="midnightblue" stroke="midnightblue" points="713.79,-16.71 703.22,-17.53 711.99,-23.48 713.79,-16.71"/>
</g>
<!-- Node25 -->
<g id="node25" class="node">
<title>Node25</title>
<g id="a_node25"><a xlink:title=" ">
<polygon fill="none" stroke="#bfbfbf" points="799.94,-0.5 799.94,-19.5 858.94,-19.5 858.94,-0.5 799.94,-0.5"/>
<text text-anchor="middle" x="829.44" y="-7.5" font-family="Helvetica,sans-Serif" font-size="10.00">phydro.h</text>
</a>
</g>
</g>
<!-- Node24&#45;&gt;Node25 -->
<g id="edge40" class="edge">
<title>Node24&#45;&gt;Node25</title>
<path fill="none" stroke="midnightblue" d="M877.28,-56.32C868.94,-48.42 856.41,-36.55 846.26,-26.94"/>
<polygon fill="midnightblue" stroke="midnightblue" points="848.43,-24.17 838.77,-19.83 843.62,-29.25 848.43,-24.17"/>
</g>
<!-- Node26&#45;&gt;Node2 -->
<g id="edge42" class="edge">
<title>Node26&#45;&gt;Node2</title>
<path fill="none" stroke="midnightblue" d="M747.7,-286.12C786.61,-281.07 863.05,-268.73 923.44,-244 1071,-183.57 1226.22,-67.08 1278.79,-25.88"/>
<polygon fill="midnightblue" stroke="midnightblue" points="1281.18,-28.45 1286.87,-19.51 1276.85,-22.96 1281.18,-28.45"/>
</g>
<!-- Node26&#45;&gt;Node4 -->
<g id="edge59" class="edge">
<title>Node26&#45;&gt;Node4</title>
<path fill="none" stroke="midnightblue" d="M747.53,-286.73C782.69,-282.65 847.66,-271.72 895.44,-244 968.8,-201.45 1031.87,-119.3 1056.92,-83.91"/>
<polygon fill="midnightblue" stroke="midnightblue" points="1059.86,-85.81 1062.7,-75.6 1054.11,-81.81 1059.86,-85.81"/>
</g>
<!-- Node26&#45;&gt;Node14 -->
<g id="edge58" class="edge">
<title>Node26&#45;&gt;Node14</title>
<path fill="none" stroke="midnightblue" d="M697.3,-283.68C671.81,-277.38 632.14,-265 603.44,-244 541.85,-198.95 492.94,-119.99 473.07,-84.8"/>
<polygon fill="midnightblue" stroke="midnightblue" points="475.95,-82.79 468.05,-75.73 469.83,-86.18 475.95,-82.79"/>
</g>
<!-- Node27 -->
<g id="node27" class="node">
<title>Node27</title>
<g id="a_node27"><a xlink:href="traits__params_8h.html" target="_top" xlink:title=" ">
<polygon fill="none" stroke="black" points="623.94,-112.5 623.94,-131.5 716.94,-131.5 716.94,-112.5 623.94,-112.5"/>
<text text-anchor="middle" x="670.44" y="-119.5" font-family="Helvetica,sans-Serif" font-size="10.00">traits_params.h</text>
</a>
</g>
</g>
<!-- Node26&#45;&gt;Node27 -->
<g id="edge43" class="edge">
<title>Node26&#45;&gt;Node27</title>
<path fill="none" stroke="midnightblue" d="M698.15,-280.42C663.93,-266.85 602.87,-236.84 577.44,-188 564.23,-162.62 595.96,-145.11 625.88,-134.71"/>
<polygon fill="midnightblue" stroke="midnightblue" points="627.05,-138.02 635.47,-131.59 624.88,-131.36 627.05,-138.02"/>
</g>
<!-- Node28 -->
<g id="node28" class="node">
<title>Node28</title>
<g id="a_node28"><a xlink:href="plant__architecture_8h.html" target="_top" xlink:title=" ">
<polygon fill="none" stroke="black" points="594.44,-168.5 594.44,-187.5 708.44,-187.5 708.44,-168.5 594.44,-168.5"/>
<text text-anchor="middle" x="651.44" y="-175.5" font-family="Helvetica,sans-Serif" font-size="10.00">plant_architecture.h</text>
</a>
</g>
</g>
<!-- Node26&#45;&gt;Node28 -->
<g id="edge49" class="edge">
<title>Node26&#45;&gt;Node28</title>
<path fill="none" stroke="midnightblue" d="M708.52,-280.31C696.74,-272.27 680.25,-259.27 670.44,-244 661.41,-229.93 656.55,-211.44 654.01,-197.78"/>
<polygon fill="midnightblue" stroke="midnightblue" points="657.43,-196.96 652.39,-187.64 650.51,-198.07 657.43,-196.96"/>
</g>
<!-- Node29 -->
<g id="node29" class="node">
<title>Node29</title>
<g id="a_node29"><a xlink:href="assimilation_8h.html" target="_top" xlink:title=" ">
<polygon fill="none" stroke="black" points="679.44,-224.5 679.44,-243.5 765.44,-243.5 765.44,-224.5 679.44,-224.5"/>
<text text-anchor="middle" x="722.44" y="-231.5" font-family="Helvetica,sans-Serif" font-size="10.00">assimilation.h</text>
</a>
</g>
</g>
<!-- Node26&#45;&gt;Node29 -->
<g id="edge52" class="edge">
<title>Node26&#45;&gt;Node29</title>
<path fill="none" stroke="midnightblue" d="M722.44,-280.08C722.44,-273.01 722.44,-262.86 722.44,-253.99"/>
<polygon fill="midnightblue" stroke="midnightblue" points="725.94,-253.75 722.44,-243.75 718.94,-253.75 725.94,-253.75"/>
</g>
<!-- Node31 -->
<g id="node31" class="node">
<title>Node31</title>
<g id="a_node31"><a xlink:href="rk4_8h.html" target="_top" xlink:title=" ">
<polygon fill="none" stroke="black" points="821.94,-224.5 821.94,-243.5 886.94,-243.5 886.94,-224.5 821.94,-224.5"/>
<text text-anchor="middle" x="854.44" y="-231.5" font-family="Helvetica,sans-Serif" font-size="10.00">utils/rk4.h</text>
</a>
</g>
</g>
<!-- Node26&#45;&gt;Node31 -->
<g id="edge57" class="edge">
<title>Node26&#45;&gt;Node31</title>
<path fill="none" stroke="midnightblue" d="M743.36,-280.44C765.18,-271.52 799.59,-257.44 824.33,-247.32"/>
<polygon fill="midnightblue" stroke="midnightblue" points="825.69,-250.54 833.62,-243.52 823.04,-244.06 825.69,-250.54"/>
</g>
<!-- Node32 -->
<g id="node32" class="node">
<title>Node32</title>
<g id="a_node32"><a xlink:href="plant_8tpp.html" target="_top" xlink:title=" ">
<polygon fill="none" stroke="black" points="840.44,-168.5 840.44,-187.5 900.44,-187.5 900.44,-168.5 840.44,-168.5"/>
<text text-anchor="middle" x="870.44" y="-175.5" font-family="Helvetica,sans-Serif" font-size="10.00">plant.tpp</text>
</a>
</g>
</g>
<!-- Node26&#45;&gt;Node32 -->
<g id="edge60" class="edge">
<title>Node26&#45;&gt;Node32</title>
<path fill="none" stroke="midnightblue" d="M734.05,-280.37C759.24,-261.65 819.11,-217.15 850.49,-193.83"/>
<polygon fill="midnightblue" stroke="midnightblue" points="852.94,-196.37 858.88,-187.59 848.77,-190.75 852.94,-196.37"/>
</g>
<!-- Node27&#45;&gt;Node3 -->
<g id="edge47" class="edge">
<title>Node27&#45;&gt;Node3</title>
<path fill="none" stroke="midnightblue" d="M717.21,-119.97C789.94,-117.36 925.33,-108.2 959.44,-76 971.88,-64.26 974.61,-44.32 974.7,-29.62"/>
<polygon fill="midnightblue" stroke="midnightblue" points="978.2,-29.5 974.38,-19.62 971.2,-29.73 978.2,-29.5"/>
</g>
<!-- Node27&#45;&gt;Node4 -->
<g id="edge44" class="edge">
<title>Node27&#45;&gt;Node4</title>
<path fill="none" stroke="midnightblue" d="M717.27,-114.65C787.72,-105.09 921.27,-86.97 1001.84,-76.04"/>
<polygon fill="midnightblue" stroke="midnightblue" points="1002.44,-79.49 1011.88,-74.67 1001.5,-72.55 1002.44,-79.49"/>
</g>
<!-- Node27&#45;&gt;Node13 -->
<g id="edge45" class="edge">
<title>Node27&#45;&gt;Node13</title>
<path fill="none" stroke="midnightblue" d="M661.52,-112.08C653.66,-104.22 642.01,-92.57 632.52,-83.08"/>
<polygon fill="midnightblue" stroke="midnightblue" points="634.74,-80.35 625.19,-75.75 629.79,-85.3 634.74,-80.35"/>
</g>
<!-- Node27&#45;&gt;Node16 -->
<g id="edge46" class="edge">
<title>Node27&#45;&gt;Node16</title>
<path fill="none" stroke="midnightblue" d="M675.32,-112.37C680,-103.55 686.75,-89.3 689.44,-76 692.59,-60.44 689.37,-42.6 685.77,-29.56"/>
<polygon fill="midnightblue" stroke="midnightblue" points="689.07,-28.4 682.78,-19.88 682.39,-30.47 689.07,-28.4"/>
</g>
<!-- Node27&#45;&gt;Node17 -->
<g id="edge48" class="edge">
<title>Node27&#45;&gt;Node17</title>
<path fill="none" stroke="midnightblue" d="M669.94,-112.48C668.87,-99.54 665.56,-74.49 655.44,-56 649.26,-44.7 639.44,-34.26 630.64,-26.29"/>
<polygon fill="midnightblue" stroke="midnightblue" points="632.85,-23.57 622.99,-19.71 628.29,-28.88 632.85,-23.57"/>
</g>
<!-- Node28&#45;&gt;Node16 -->
<g id="edge50" class="edge">
<title>Node28&#45;&gt;Node16</title>
<path fill="none" stroke="midnightblue" d="M678.37,-168.36C695.16,-161.41 715.42,-149.82 725.44,-132 745.26,-96.76 714.5,-51.29 694.47,-27.38"/>
<polygon fill="midnightblue" stroke="midnightblue" points="696.9,-24.83 687.69,-19.6 691.62,-29.44 696.9,-24.83"/>
</g>
<!-- Node28&#45;&gt;Node27 -->
<g id="edge51" class="edge">
<title>Node28&#45;&gt;Node27</title>
<path fill="none" stroke="midnightblue" d="M654.58,-168.08C657.12,-160.85 660.8,-150.41 663.97,-141.4"/>
<polygon fill="midnightblue" stroke="midnightblue" points="667.35,-142.35 667.36,-131.75 660.74,-140.02 667.35,-142.35"/>
</g>
<!-- Node29&#45;&gt;Node25 -->
<g id="edge53" class="edge">
<title>Node29&#45;&gt;Node25</title>
<path fill="none" stroke="midnightblue" d="M765.63,-228.72C815.18,-222.82 891.88,-210.29 909.44,-188 934.84,-155.76 899.03,-191.23 846.44,-76 839.63,-61.08 835.17,-42.94 832.54,-29.61"/>
<polygon fill="midnightblue" stroke="midnightblue" points="835.97,-28.95 830.74,-19.73 829.09,-30.2 835.97,-28.95"/>
</g>
<!-- Node29&#45;&gt;Node27 -->
<g id="edge54" class="edge">
<title>Node29&#45;&gt;Node27</title>
<path fill="none" stroke="midnightblue" d="M679.19,-231.5C647.57,-227.86 606.66,-217.3 585.44,-188 568.78,-164.99 602.37,-146.27 632.11,-134.93"/>
<polygon fill="midnightblue" stroke="midnightblue" points="633.35,-138.2 641.56,-131.51 630.97,-131.62 633.35,-138.2"/>
</g>
<!-- Node29&#45;&gt;Node28 -->
<g id="edge55" class="edge">
<title>Node29&#45;&gt;Node28</title>
<path fill="none" stroke="midnightblue" d="M711.03,-224.32C700.33,-216.18 684.1,-203.84 671.28,-194.09"/>
<polygon fill="midnightblue" stroke="midnightblue" points="673.13,-191.1 663.06,-187.83 668.9,-196.67 673.13,-191.1"/>
</g>
<!-- Node30 -->
<g id="node30" class="node">
<title>Node30</title>
<g id="a_node30"><a xlink:href="assimilation_8tpp.html" target="_top" xlink:title=" ">
<polygon fill="none" stroke="black" points="726.94,-168.5 726.94,-187.5 821.94,-187.5 821.94,-168.5 726.94,-168.5"/>
<text text-anchor="middle" x="774.44" y="-175.5" font-family="Helvetica,sans-Serif" font-size="10.00">assimilation.tpp</text>
</a>
</g>
</g>
<!-- Node29&#45;&gt;Node30 -->
<g id="edge56" class="edge">
<title>Node29&#45;&gt;Node30</title>
<path fill="none" stroke="midnightblue" d="M731.03,-224.08C738.6,-216.22 749.82,-204.57 758.96,-195.08"/>
<polygon fill="midnightblue" stroke="midnightblue" points="761.6,-197.38 766.01,-187.75 756.56,-192.53 761.6,-197.38"/>
</g>
<!-- Node32&#45;&gt;Node16 -->
<g id="edge61" class="edge">
<title>Node32&#45;&gt;Node16</title>
<path fill="none" stroke="midnightblue" d="M861,-168.35C839.04,-148.31 782.76,-97.23 734.44,-56 722.59,-45.89 709.05,-34.81 698.37,-26.17"/>
<polygon fill="midnightblue" stroke="midnightblue" points="700.49,-23.38 690.51,-19.83 696.1,-28.83 700.49,-23.38"/>
</g>
</g>
</svg>
