<?xml version="1.0" encoding="UTF-8" standalone="no"?>
<!DOCTYPE svg PUBLIC "-//W3C//DTD SVG 1.1//EN"
 "http://www.w3.org/Graphics/SVG/1.1/DTD/svg11.dtd">
<!-- Generated by graphviz version 2.43.0 (0)
 -->
<!-- Title: src/state_restore.cpp Pages: 1 -->
<svg width="1800pt" height="532pt"
 viewBox="0.00 0.00 1800.00 532.00" xmlns="http://www.w3.org/2000/svg" xmlns:xlink="http://www.w3.org/1999/xlink">
<g id="graph0" class="graph" transform="scale(1 1) rotate(0) translate(4 528)">
<title>src/state_restore.cpp</title>
<!-- Node1 -->
<g id="node1" class="node">
<title>Node1</title>
<g id="a_node1"><a xlink:title=" ">
<polygon fill="#bfbfbf" stroke="black" points="1178.5,-504.5 1178.5,-523.5 1297.5,-523.5 1297.5,-504.5 1178.5,-504.5"/>
<text text-anchor="middle" x="1238" y="-511.5" font-family="Helvetica,sans-Serif" font-size="10.00">src/state_restore.cpp</text>
</a>
</g>
</g>
<!-- Node2 -->
<g id="node2" class="node">
<title>Node2</title>
<g id="a_node2"><a xlink:href="state__restore_8h.html" target="_top" xlink:title=" ">
<polygon fill="none" stroke="black" points="1333,-392.5 1333,-411.5 1423,-411.5 1423,-392.5 1333,-392.5"/>
<text text-anchor="middle" x="1378" y="-399.5" font-family="Helvetica,sans-Serif" font-size="10.00">state_restore.h</text>
</a>
</g>
</g>
<!-- Node1&#45;&gt;Node2 -->
<g id="edge1" class="edge">
<title>Node1&#45;&gt;Node2</title>
<path fill="none" stroke="midnightblue" d="M1238.17,-504.23C1238.89,-490.49 1242.26,-463.83 1257,-448 1274.24,-429.48 1299.8,-418.55 1322.99,-412.1"/>
<polygon fill="midnightblue" stroke="midnightblue" points="1323.93,-415.48 1332.75,-409.61 1322.2,-408.69 1323.93,-415.48"/>
</g>
<!-- Node34 -->
<g id="node34" class="node">
<title>Node34</title>
<g id="a_node34"><a xlink:href="plantfate__patch_8h.html" target="_top" xlink:title=" ">
<polygon fill="none" stroke="black" points="968,-448.5 968,-467.5 1070,-467.5 1070,-448.5 968,-448.5"/>
<text text-anchor="middle" x="1019" y="-455.5" font-family="Helvetica,sans-Serif" font-size="10.00">plantfate_patch.h</text>
</a>
</g>
</g>
<!-- Node1&#45;&gt;Node34 -->
<g id="edge63" class="edge">
<title>Node1&#45;&gt;Node34</title>
<path fill="none" stroke="midnightblue" d="M1203.3,-504.44C1165.42,-495.1 1104.65,-480.12 1063.34,-469.93"/>
<polygon fill="midnightblue" stroke="midnightblue" points="1064.09,-466.51 1053.54,-467.52 1062.41,-473.31 1064.09,-466.51"/>
</g>
<!-- Node43 -->
<g id="node43" class="node">
<title>Node43</title>
<g id="a_node43"><a xlink:title=" ">
<polygon fill="none" stroke="#bfbfbf" points="1266,-448.5 1266,-467.5 1334,-467.5 1334,-448.5 1266,-448.5"/>
<text text-anchor="middle" x="1300" y="-455.5" font-family="Helvetica,sans-Serif" font-size="10.00">filesystem</text>
</a>
</g>
</g>
<!-- Node1&#45;&gt;Node43 -->
<g id="edge93" class="edge">
<title>Node1&#45;&gt;Node43</title>
<path fill="none" stroke="midnightblue" d="M1247.96,-504.32C1257.13,-496.34 1270.94,-484.31 1282.03,-474.65"/>
<polygon fill="midnightblue" stroke="midnightblue" points="1284.62,-477.04 1289.86,-467.83 1280.02,-471.76 1284.62,-477.04"/>
</g>
<!-- Node3 -->
<g id="node3" class="node">
<title>Node3</title>
<g id="a_node3"><a xlink:title=" ">
<polygon fill="none" stroke="#bfbfbf" points="1669.5,-0.5 1669.5,-19.5 1724.5,-19.5 1724.5,-0.5 1669.5,-0.5"/>
<text text-anchor="middle" x="1697" y="-7.5" font-family="Helvetica,sans-Serif" font-size="10.00">fstream</text>
</a>
</g>
</g>
<!-- Node2&#45;&gt;Node3 -->
<g id="edge2" class="edge">
<title>Node2&#45;&gt;Node3</title>
<path fill="none" stroke="midnightblue" d="M1423.35,-397.35C1523.36,-388.04 1754,-359.18 1754,-291 1754,-291 1754,-291 1754,-121 1754,-84.3 1728.68,-47.66 1711.79,-27.3"/>
<polygon fill="midnightblue" stroke="midnightblue" points="1714.35,-24.9 1705.17,-19.62 1709.05,-29.48 1714.35,-24.9"/>
</g>
<!-- Node4 -->
<g id="node4" class="node">
<title>Node4</title>
<g id="a_node4"><a xlink:title=" ">
<polygon fill="none" stroke="#bfbfbf" points="1504,-0.5 1504,-19.5 1548,-19.5 1548,-0.5 1504,-0.5"/>
<text text-anchor="middle" x="1526" y="-7.5" font-family="Helvetica,sans-Serif" font-size="10.00">string</text>
</a>
</g>
</g>
<!-- Node2&#45;&gt;Node4 -->
<g id="edge3" class="edge">
<title>Node2&#45;&gt;Node4</title>
<path fill="none" stroke="midnightblue" d="M1423.04,-401.49C1497.95,-399.68 1640,-383.99 1640,-291 1640,-291 1640,-291 1640,-121 1640,-74.11 1589.45,-40.89 1555.67,-23.93"/>
<polygon fill="midnightblue" stroke="midnightblue" points="1557.17,-20.77 1546.64,-19.58 1554.13,-27.07 1557.17,-20.77"/>
</g>
<!-- Node5 -->
<g id="node5" class="node">
<title>Node5</title>
<g id="a_node5"><a xlink:href="initializer__v2_8h.html" target="_top" xlink:title=" ">
<polygon fill="none" stroke="black" points="1288.5,-56.5 1288.5,-75.5 1401.5,-75.5 1401.5,-56.5 1288.5,-56.5"/>
<text text-anchor="middle" x="1345" y="-63.5" font-family="Helvetica,sans-Serif" font-size="10.00">utils/initializer_v2.h</text>
</a>
</g>
</g>
<!-- Node2&#45;&gt;Node5 -->
<g id="edge4" class="edge">
<title>Node2&#45;&gt;Node5</title>
<path fill="none" stroke="midnightblue" d="M1383.7,-392.29C1394.97,-374.2 1419,-330.95 1419,-291 1419,-291 1419,-291 1419,-177 1419,-137.61 1385.93,-101.73 1364,-82.26"/>
<polygon fill="midnightblue" stroke="midnightblue" points="1366.12,-79.47 1356.24,-75.64 1361.57,-84.79 1366.12,-79.47"/>
</g>
<!-- Node12 -->
<g id="node12" class="node">
<title>Node12</title>
<g id="a_node12"><a xlink:href="adaptive__species_8h.html" target="_top" xlink:title=" ">
<polygon fill="none" stroke="black" points="478,-280.5 478,-299.5 588,-299.5 588,-280.5 478,-280.5"/>
<text text-anchor="middle" x="533" y="-287.5" font-family="Helvetica,sans-Serif" font-size="10.00">adaptive_species.h</text>
</a>
</g>
</g>
<!-- Node2&#45;&gt;Node12 -->
<g id="edge13" class="edge">
<title>Node2&#45;&gt;Node12</title>
<path fill="none" stroke="midnightblue" d="M1332.79,-393.77C1253.13,-381.16 1082.54,-354.7 938,-336 818.48,-320.54 678.69,-305.73 598.53,-297.55"/>
<polygon fill="midnightblue" stroke="midnightblue" points="598.4,-294.02 588.1,-296.49 597.7,-300.98 598.4,-294.02"/>
</g>
<!-- Node21 -->
<g id="node21" class="node">
<title>Node21</title>
<g id="a_node21"><a xlink:href="pspm__interface_8h.html" target="_top" xlink:title=" ">
<polygon fill="none" stroke="black" points="828.5,-336.5 828.5,-355.5 929.5,-355.5 929.5,-336.5 828.5,-336.5"/>
<text text-anchor="middle" x="879" y="-343.5" font-family="Helvetica,sans-Serif" font-size="10.00">pspm_interface.h</text>
</a>
</g>
</g>
<!-- Node2&#45;&gt;Node21 -->
<g id="edge26" class="edge">
<title>Node2&#45;&gt;Node21</title>
<path fill="none" stroke="midnightblue" d="M1332.84,-396.11C1242.84,-386.37 1041.11,-364.54 939.67,-353.57"/>
<polygon fill="midnightblue" stroke="midnightblue" points="939.9,-350.07 929.59,-352.47 939.15,-357.03 939.9,-350.07"/>
</g>
<!-- Node5&#45;&gt;Node3 -->
<g id="edge8" class="edge">
<title>Node5&#45;&gt;Node3</title>
<path fill="none" stroke="midnightblue" d="M1400.78,-56.44C1472.98,-45.37 1596.89,-26.36 1659.07,-16.82"/>
<polygon fill="midnightblue" stroke="midnightblue" points="1659.87,-20.24 1669.22,-15.26 1658.81,-13.32 1659.87,-20.24"/>
</g>
<!-- Node5&#45;&gt;Node4 -->
<g id="edge7" class="edge">
<title>Node5&#45;&gt;Node4</title>
<path fill="none" stroke="midnightblue" d="M1373.68,-56.44C1406.38,-46.69 1459.71,-30.78 1493.81,-20.6"/>
<polygon fill="midnightblue" stroke="midnightblue" points="1495.15,-23.86 1503.73,-17.64 1493.15,-17.15 1495.15,-23.86"/>
</g>
<!-- Node6 -->
<g id="node6" class="node">
<title>Node6</title>
<g id="a_node6"><a xlink:title=" ">
<polygon fill="none" stroke="#bfbfbf" points="410,-0.5 410,-19.5 470,-19.5 470,-0.5 410,-0.5"/>
<text text-anchor="middle" x="440" y="-7.5" font-family="Helvetica,sans-Serif" font-size="10.00">iostream</text>
</a>
</g>
</g>
<!-- Node5&#45;&gt;Node6 -->
<g id="edge5" class="edge">
<title>Node5&#45;&gt;Node6</title>
<path fill="none" stroke="midnightblue" d="M1288.35,-59.79C1272.99,-58.46 1256.37,-57.1 1241,-56 949.66,-35.22 598.14,-18.29 480.53,-12.84"/>
<polygon fill="midnightblue" stroke="midnightblue" points="480.36,-9.33 470.21,-12.37 480.04,-16.32 480.36,-9.33"/>
</g>
<!-- Node7 -->
<g id="node7" class="node">
<title>Node7</title>
<g id="a_node7"><a xlink:title=" ">
<polygon fill="none" stroke="#bfbfbf" points="1442,-0.5 1442,-19.5 1486,-19.5 1486,-0.5 1442,-0.5"/>
<text text-anchor="middle" x="1464" y="-7.5" font-family="Helvetica,sans-Serif" font-size="10.00">regex</text>
</a>
</g>
</g>
<!-- Node5&#45;&gt;Node7 -->
<g id="edge6" class="edge">
<title>Node5&#45;&gt;Node7</title>
<path fill="none" stroke="midnightblue" d="M1363.86,-56.44C1383.27,-47.64 1413.73,-33.81 1435.96,-23.72"/>
<polygon fill="midnightblue" stroke="midnightblue" points="1437.57,-26.84 1445.23,-19.52 1434.68,-20.46 1437.57,-26.84"/>
</g>
<!-- Node8 -->
<g id="node8" class="node">
<title>Node8</title>
<g id="a_node8"><a xlink:title=" ">
<polygon fill="none" stroke="#bfbfbf" points="690.5,-0.5 690.5,-19.5 737.5,-19.5 737.5,-0.5 690.5,-0.5"/>
<text text-anchor="middle" x="714" y="-7.5" font-family="Helvetica,sans-Serif" font-size="10.00">vector</text>
</a>
</g>
</g>
<!-- Node5&#45;&gt;Node8 -->
<g id="edge9" class="edge">
<title>Node5&#45;&gt;Node8</title>
<path fill="none" stroke="midnightblue" d="M1288.33,-60.07C1272.97,-58.74 1256.35,-57.31 1241,-56 1051.24,-39.79 1003.73,-36.54 814,-20 792.02,-18.08 767.33,-15.86 747.99,-14.11"/>
<polygon fill="midnightblue" stroke="midnightblue" points="748.11,-10.6 737.84,-13.18 747.48,-17.58 748.11,-10.6"/>
</g>
<!-- Node9 -->
<g id="node9" class="node">
<title>Node9</title>
<g id="a_node9"><a xlink:title=" ">
<polygon fill="none" stroke="#bfbfbf" points="1173,-0.5 1173,-19.5 1229,-19.5 1229,-0.5 1173,-0.5"/>
<text text-anchor="middle" x="1201" y="-7.5" font-family="Helvetica,sans-Serif" font-size="10.00">sstream</text>
</a>
</g>
</g>
<!-- Node5&#45;&gt;Node9 -->
<g id="edge10" class="edge">
<title>Node5&#45;&gt;Node9</title>
<path fill="none" stroke="midnightblue" d="M1322.18,-56.44C1298.17,-47.44 1260.17,-33.19 1233.13,-23.05"/>
<polygon fill="midnightblue" stroke="midnightblue" points="1234.3,-19.75 1223.71,-19.52 1231.84,-26.3 1234.3,-19.75"/>
</g>
<!-- Node10 -->
<g id="node10" class="node">
<title>Node10</title>
<g id="a_node10"><a xlink:title=" ">
<polygon fill="none" stroke="#bfbfbf" points="1247.5,-0.5 1247.5,-19.5 1312.5,-19.5 1312.5,-0.5 1247.5,-0.5"/>
<text text-anchor="middle" x="1280" y="-7.5" font-family="Helvetica,sans-Serif" font-size="10.00">stdexcept</text>
</a>
</g>
</g>
<!-- Node5&#45;&gt;Node10 -->
<g id="edge11" class="edge">
<title>Node5&#45;&gt;Node10</title>
<path fill="none" stroke="midnightblue" d="M1334.56,-56.32C1324.85,-48.26 1310.18,-36.08 1298.5,-26.37"/>
<polygon fill="midnightblue" stroke="midnightblue" points="1300.56,-23.53 1290.63,-19.83 1296.09,-28.92 1300.56,-23.53"/>
</g>
<!-- Node11 -->
<g id="node11" class="node">
<title>Node11</title>
<g id="a_node11"><a xlink:title=" ">
<polygon fill="none" stroke="#bfbfbf" points="1330.5,-0.5 1330.5,-19.5 1423.5,-19.5 1423.5,-0.5 1330.5,-0.5"/>
<text text-anchor="middle" x="1377" y="-7.5" font-family="Helvetica,sans-Serif" font-size="10.00">unordered_map</text>
</a>
</g>
</g>
<!-- Node5&#45;&gt;Node11 -->
<g id="edge12" class="edge">
<title>Node5&#45;&gt;Node11</title>
<path fill="none" stroke="midnightblue" d="M1350.28,-56.08C1354.71,-48.61 1361.16,-37.72 1366.62,-28.52"/>
<polygon fill="midnightblue" stroke="midnightblue" points="1369.73,-30.14 1371.81,-19.75 1363.71,-26.57 1369.73,-30.14"/>
</g>
<!-- Node12&#45;&gt;Node4 -->
<g id="edge16" class="edge">
<title>Node12&#45;&gt;Node4</title>
<path fill="none" stroke="midnightblue" d="M588.25,-285.99C690.02,-280.02 903.18,-265.37 974,-244 992.27,-238.49 994.23,-230.97 1012,-224 1070.81,-200.92 1522.58,-126.15 1561,-76 1572.97,-60.38 1557.99,-40.11 1544.08,-26.39"/>
<polygon fill="midnightblue" stroke="midnightblue" points="1546.36,-23.73 1536.64,-19.51 1541.61,-28.87 1546.36,-23.73"/>
</g>
<!-- Node12&#45;&gt;Node8 -->
<g id="edge15" class="edge">
<title>Node12&#45;&gt;Node8</title>
<path fill="none" stroke="midnightblue" d="M477.87,-283.54C446.09,-277.98 407.01,-266.73 379,-244 307.06,-185.63 227.04,-124.87 289,-56 315.07,-27.02 584.67,-15.3 680.46,-12.03"/>
<polygon fill="midnightblue" stroke="midnightblue" points="680.6,-15.52 690.47,-11.69 680.36,-8.53 680.6,-15.52"/>
</g>
<!-- Node13 -->
<g id="node13" class="node">
<title>Node13</title>
<g id="a_node13"><a xlink:title=" ">
<polygon fill="none" stroke="#bfbfbf" points="276,-224.5 276,-243.5 332,-243.5 332,-224.5 276,-224.5"/>
<text text-anchor="middle" x="304" y="-231.5" font-family="Helvetica,sans-Serif" font-size="10.00">solver.h</text>
</a>
</g>
</g>
<!-- Node12&#45;&gt;Node13 -->
<g id="edge14" class="edge">
<title>Node12&#45;&gt;Node13</title>
<path fill="none" stroke="midnightblue" d="M496.71,-280.44C454.45,-270.48 384.95,-254.09 341.97,-243.95"/>
<polygon fill="midnightblue" stroke="midnightblue" points="342.71,-240.53 332.17,-241.64 341.1,-247.35 342.71,-240.53"/>
</g>
<!-- Node14 -->
<g id="node14" class="node">
<title>Node14</title>
<g id="a_node14"><a xlink:title=" ">
<polygon fill="none" stroke="#bfbfbf" points="548.5,-56.5 548.5,-75.5 609.5,-75.5 609.5,-56.5 548.5,-56.5"/>
<text text-anchor="middle" x="579" y="-63.5" font-family="Helvetica,sans-Serif" font-size="10.00">io_utils.h</text>
</a>
</g>
</g>
<!-- Node12&#45;&gt;Node14 -->
<g id="edge17" class="edge">
<title>Node12&#45;&gt;Node14</title>
<path fill="none" stroke="midnightblue" d="M534.8,-280.3C541.57,-247.63 565.56,-131.87 575.07,-85.96"/>
<polygon fill="midnightblue" stroke="midnightblue" points="578.56,-86.39 577.16,-75.88 571.7,-84.97 578.56,-86.39"/>
</g>
<!-- Node15 -->
<g id="node15" class="node">
<title>Node15</title>
<g id="a_node15"><a xlink:href="moving__average_8h.html" target="_top" xlink:title=" ">
<polygon fill="none" stroke="black" points="362.5,-112.5 362.5,-131.5 493.5,-131.5 493.5,-112.5 362.5,-112.5"/>
<text text-anchor="middle" x="428" y="-119.5" font-family="Helvetica,sans-Serif" font-size="10.00">utils/moving_average.h</text>
</a>
</g>
</g>
<!-- Node12&#45;&gt;Node15 -->
<g id="edge18" class="edge">
<title>Node12&#45;&gt;Node15</title>
<path fill="none" stroke="midnightblue" d="M532.17,-280.12C530.67,-267.14 526.69,-242.54 517,-224 498.82,-189.23 466.21,-156.63 445.92,-138.31"/>
<polygon fill="midnightblue" stroke="midnightblue" points="448.11,-135.57 438.3,-131.58 443.48,-140.82 448.11,-135.57"/>
</g>
<!-- Node20 -->
<g id="node20" class="node">
<title>Node20</title>
<g id="a_node20"><a xlink:href="adaptive__species_8tpp.html" target="_top" xlink:title=" ">
<polygon fill="none" stroke="black" points="388,-224.5 388,-243.5 508,-243.5 508,-224.5 388,-224.5"/>
<text text-anchor="middle" x="448" y="-231.5" font-family="Helvetica,sans-Serif" font-size="10.00">adaptive_species.tpp</text>
</a>
</g>
</g>
<!-- Node12&#45;&gt;Node20 -->
<g id="edge25" class="edge">
<title>Node12&#45;&gt;Node20</title>
<path fill="none" stroke="midnightblue" d="M519.34,-280.32C506.08,-271.9 485.73,-258.97 470.15,-249.07"/>
<polygon fill="midnightblue" stroke="midnightblue" points="471.94,-246.06 461.62,-243.65 468.19,-251.97 471.94,-246.06"/>
</g>
<!-- Node15&#45;&gt;Node6 -->
<g id="edge19" class="edge">
<title>Node15&#45;&gt;Node6</title>
<path fill="none" stroke="midnightblue" d="M362.34,-116.39C305.48,-109.8 236.64,-93.92 266,-56 282.25,-35.01 353.75,-22.05 399.89,-15.71"/>
<polygon fill="midnightblue" stroke="midnightblue" points="400.43,-19.17 409.89,-14.38 399.51,-12.23 400.43,-19.17"/>
</g>
<!-- Node15&#45;&gt;Node8 -->
<g id="edge23" class="edge">
<title>Node15&#45;&gt;Node8</title>
<path fill="none" stroke="midnightblue" d="M372.81,-112.41C326.83,-103 272.79,-85.21 299,-56 324.34,-27.76 585.96,-15.61 680.31,-12.12"/>
<polygon fill="midnightblue" stroke="midnightblue" points="680.58,-15.61 690.45,-11.76 680.33,-8.62 680.58,-15.61"/>
</g>
<!-- Node16 -->
<g id="node16" class="node">
<title>Node16</title>
<g id="a_node16"><a xlink:title=" ">
<polygon fill="none" stroke="#bfbfbf" points="390,-56.5 390,-75.5 422,-75.5 422,-56.5 390,-56.5"/>
<text text-anchor="middle" x="406" y="-63.5" font-family="Helvetica,sans-Serif" font-size="10.00">list</text>
</a>
</g>
</g>
<!-- Node15&#45;&gt;Node16 -->
<g id="edge20" class="edge">
<title>Node15&#45;&gt;Node16</title>
<path fill="none" stroke="midnightblue" d="M424.37,-112.08C421.39,-104.77 417.07,-94.18 413.38,-85.1"/>
<polygon fill="midnightblue" stroke="midnightblue" points="416.58,-83.69 409.57,-75.75 410.1,-86.33 416.58,-83.69"/>
</g>
<!-- Node17 -->
<g id="node17" class="node">
<title>Node17</title>
<g id="a_node17"><a xlink:title=" ">
<polygon fill="none" stroke="#bfbfbf" points="823.5,-0.5 823.5,-19.5 870.5,-19.5 870.5,-0.5 823.5,-0.5"/>
<text text-anchor="middle" x="847" y="-7.5" font-family="Helvetica,sans-Serif" font-size="10.00">cmath</text>
</a>
</g>
</g>
<!-- Node15&#45;&gt;Node17 -->
<g id="edge21" class="edge">
<title>Node15&#45;&gt;Node17</title>
<path fill="none" stroke="midnightblue" d="M430.81,-112.05C435.88,-97.56 448.02,-69.25 469,-56 483.5,-46.84 722.98,-22.95 813.08,-14.24"/>
<polygon fill="midnightblue" stroke="midnightblue" points="813.69,-17.7 823.3,-13.25 813.01,-10.73 813.69,-17.7"/>
</g>
<!-- Node18 -->
<g id="node18" class="node">
<title>Node18</title>
<g id="a_node18"><a xlink:title=" ">
<polygon fill="none" stroke="#bfbfbf" points="478,-56.5 478,-75.5 530,-75.5 530,-56.5 478,-56.5"/>
<text text-anchor="middle" x="504" y="-63.5" font-family="Helvetica,sans-Serif" font-size="10.00">cassert</text>
</a>
</g>
</g>
<!-- Node15&#45;&gt;Node18 -->
<g id="edge22" class="edge">
<title>Node15&#45;&gt;Node18</title>
<path fill="none" stroke="midnightblue" d="M440.21,-112.32C451.78,-104.11 469.38,-91.6 483.16,-81.81"/>
<polygon fill="midnightblue" stroke="midnightblue" points="485.44,-84.48 491.57,-75.83 481.39,-78.77 485.44,-84.48"/>
</g>
<!-- Node19 -->
<g id="node19" class="node">
<title>Node19</title>
<g id="a_node19"><a xlink:title=" ">
<polygon fill="none" stroke="#bfbfbf" points="308,-56.5 308,-75.5 372,-75.5 372,-56.5 308,-56.5"/>
<text text-anchor="middle" x="340" y="-63.5" font-family="Helvetica,sans-Serif" font-size="10.00">algorithm</text>
</a>
</g>
</g>
<!-- Node15&#45;&gt;Node19 -->
<g id="edge24" class="edge">
<title>Node15&#45;&gt;Node19</title>
<path fill="none" stroke="midnightblue" d="M413.86,-112.32C400.13,-103.9 379.06,-90.97 362.94,-81.07"/>
<polygon fill="midnightblue" stroke="midnightblue" points="364.46,-77.9 354.1,-75.65 360.8,-83.87 364.46,-77.9"/>
</g>
<!-- Node21&#45;&gt;Node13 -->
<g id="edge28" class="edge">
<title>Node21&#45;&gt;Node13</title>
<path fill="none" stroke="midnightblue" d="M828.39,-343.76C750.22,-340.87 595.87,-331.36 469,-300 418.35,-287.48 362.45,-263.05 330.45,-247.97"/>
<polygon fill="midnightblue" stroke="midnightblue" points="331.85,-244.76 321.32,-243.61 328.84,-251.08 331.85,-244.76"/>
</g>
<!-- Node22 -->
<g id="node22" class="node">
<title>Node22</title>
<g id="a_node22"><a xlink:title=" ">
<polygon fill="none" stroke="#bfbfbf" points="912,-280.5 912,-299.5 1014,-299.5 1014,-280.5 912,-280.5"/>
<text text-anchor="middle" x="963" y="-287.5" font-family="Helvetica,sans-Serif" font-size="10.00">individual_base.h</text>
</a>
</g>
</g>
<!-- Node21&#45;&gt;Node22 -->
<g id="edge27" class="edge">
<title>Node21&#45;&gt;Node22</title>
<path fill="none" stroke="midnightblue" d="M892.5,-336.32C905.6,-327.9 925.71,-314.97 941.11,-305.07"/>
<polygon fill="midnightblue" stroke="midnightblue" points="943.02,-308.01 949.54,-299.65 939.23,-302.12 943.02,-308.01"/>
</g>
<!-- Node23 -->
<g id="node23" class="node">
<title>Node23</title>
<g id="a_node23"><a xlink:href="light__environment_8h.html" target="_top" xlink:title=" ">
<polygon fill="none" stroke="black" points="142.5,-280.5 142.5,-299.5 257.5,-299.5 257.5,-280.5 142.5,-280.5"/>
<text text-anchor="middle" x="200" y="-287.5" font-family="Helvetica,sans-Serif" font-size="10.00">light_environment.h</text>
</a>
</g>
</g>
<!-- Node21&#45;&gt;Node23 -->
<g id="edge29" class="edge">
<title>Node21&#45;&gt;Node23</title>
<path fill="none" stroke="midnightblue" d="M828.24,-340.96C707.77,-331.38 404.48,-307.26 268.19,-296.42"/>
<polygon fill="midnightblue" stroke="midnightblue" points="268.13,-292.91 257.88,-295.6 267.57,-299.89 268.13,-292.91"/>
</g>
<!-- Node25 -->
<g id="node25" class="node">
<title>Node25</title>
<g id="a_node25"><a xlink:href="climate_8h.html" target="_top" xlink:title=" ">
<polygon fill="none" stroke="black" points="1170,-56.5 1170,-75.5 1232,-75.5 1232,-56.5 1170,-56.5"/>
<text text-anchor="middle" x="1201" y="-63.5" font-family="Helvetica,sans-Serif" font-size="10.00">climate.h</text>
</a>
</g>
</g>
<!-- Node21&#45;&gt;Node25 -->
<g id="edge34" class="edge">
<title>Node21&#45;&gt;Node25</title>
<path fill="none" stroke="midnightblue" d="M919.63,-336.43C949.34,-329.2 990.04,-317.24 1023,-300 1058.92,-281.21 1068.13,-274.35 1095,-244 1140.42,-192.7 1177.15,-119.23 1192.81,-85.37"/>
<polygon fill="midnightblue" stroke="midnightblue" points="1196.19,-86.4 1197.14,-75.85 1189.82,-83.5 1196.19,-86.4"/>
</g>
<!-- Node27 -->
<g id="node27" class="node">
<title>Node27</title>
<g id="a_node27"><a xlink:href="plant_8h.html" target="_top" xlink:title=" ">
<polygon fill="none" stroke="black" points="844,-280.5 844,-299.5 894,-299.5 894,-280.5 844,-280.5"/>
<text text-anchor="middle" x="869" y="-287.5" font-family="Helvetica,sans-Serif" font-size="10.00">plant.h</text>
</a>
</g>
</g>
<!-- Node21&#45;&gt;Node27 -->
<g id="edge42" class="edge">
<title>Node21&#45;&gt;Node27</title>
<path fill="none" stroke="midnightblue" d="M877.35,-336.08C876.02,-328.93 874.12,-318.64 872.46,-309.69"/>
<polygon fill="midnightblue" stroke="midnightblue" points="875.88,-308.95 870.62,-299.75 869,-310.22 875.88,-308.95"/>
</g>
<!-- Node23&#45;&gt;Node6 -->
<g id="edge30" class="edge">
<title>Node23&#45;&gt;Node6</title>
<path fill="none" stroke="midnightblue" d="M155.3,-280.48C134.77,-274.09 112.3,-263.02 100,-244 54.63,-173.83 44.93,-118.84 100,-56 119.52,-33.73 314.05,-18.89 399.78,-13.39"/>
<polygon fill="midnightblue" stroke="midnightblue" points="400.16,-16.87 409.92,-12.75 399.72,-9.89 400.16,-16.87"/>
</g>
<!-- Node23&#45;&gt;Node8 -->
<g id="edge31" class="edge">
<title>Node23&#45;&gt;Node8</title>
<path fill="none" stroke="midnightblue" d="M180.21,-280.36C165.18,-272.82 145.08,-260.51 133,-244 115.22,-219.71 114,-209.1 114,-179 114,-179 114,-179 114,-121 114,-45.07 198.35,-74.48 272,-56 420.67,-18.69 604.87,-12.19 679.85,-11.15"/>
<polygon fill="midnightblue" stroke="midnightblue" points="680.15,-14.64 690.11,-11.03 680.07,-7.64 680.15,-14.64"/>
</g>
<!-- Node23&#45;&gt;Node13 -->
<g id="edge33" class="edge">
<title>Node23&#45;&gt;Node13</title>
<path fill="none" stroke="midnightblue" d="M216.71,-280.32C233.31,-271.7 259,-258.36 278.22,-248.39"/>
<polygon fill="midnightblue" stroke="midnightblue" points="280.07,-251.37 287.33,-243.65 276.84,-245.16 280.07,-251.37"/>
</g>
<!-- Node24 -->
<g id="node24" class="node">
<title>Node24</title>
<g id="a_node24"><a xlink:title=" ">
<polygon fill="none" stroke="#bfbfbf" points="142,-224.5 142,-243.5 258,-243.5 258,-224.5 142,-224.5"/>
<text text-anchor="middle" x="200" y="-231.5" font-family="Helvetica,sans-Serif" font-size="10.00">environment_base.h</text>
</a>
</g>
</g>
<!-- Node23&#45;&gt;Node24 -->
<g id="edge32" class="edge">
<title>Node23&#45;&gt;Node24</title>
<path fill="none" stroke="midnightblue" d="M200,-280.08C200,-273.01 200,-262.86 200,-253.99"/>
<polygon fill="midnightblue" stroke="midnightblue" points="203.5,-253.75 200,-243.75 196.5,-253.75 203.5,-253.75"/>
</g>
<!-- Node25&#45;&gt;Node3 -->
<g id="edge36" class="edge">
<title>Node25&#45;&gt;Node3</title>
<path fill="none" stroke="midnightblue" d="M1232.12,-61.35C1246.4,-59.7 1263.56,-57.72 1279,-56 1419.01,-40.39 1585.5,-22.74 1658.96,-15"/>
<polygon fill="midnightblue" stroke="midnightblue" points="1659.53,-18.46 1669.11,-13.93 1658.8,-11.49 1659.53,-18.46"/>
</g>
<!-- Node25&#45;&gt;Node4 -->
<g id="edge35" class="edge">
<title>Node25&#45;&gt;Node4</title>
<path fill="none" stroke="midnightblue" d="M1232.15,-61.59C1284.35,-55.58 1392.91,-41.84 1493.7,-20.05"/>
<polygon fill="midnightblue" stroke="midnightblue" points="1494.72,-23.4 1503.74,-17.84 1493.22,-16.57 1494.72,-23.4"/>
</g>
<!-- Node25&#45;&gt;Node6 -->
<g id="edge38" class="edge">
<title>Node25&#45;&gt;Node6</title>
<path fill="none" stroke="midnightblue" d="M1169.89,-61.11C1155.36,-59.38 1137.81,-57.42 1122,-56 878.91,-34.15 586.18,-18.36 480.51,-13"/>
<polygon fill="midnightblue" stroke="midnightblue" points="480.45,-9.49 470.29,-12.48 480.1,-16.48 480.45,-9.49"/>
</g>
<!-- Node25&#45;&gt;Node8 -->
<g id="edge40" class="edge">
<title>Node25&#45;&gt;Node8</title>
<path fill="none" stroke="midnightblue" d="M1169.86,-61.43C1155.32,-59.76 1137.78,-57.77 1122,-56 983.24,-40.44 817.87,-22.34 747.92,-14.7"/>
<polygon fill="midnightblue" stroke="midnightblue" points="748.24,-11.21 737.92,-13.61 747.48,-18.17 748.24,-11.21"/>
</g>
<!-- Node25&#45;&gt;Node9 -->
<g id="edge37" class="edge">
<title>Node25&#45;&gt;Node9</title>
<path fill="none" stroke="midnightblue" d="M1201,-56.08C1201,-49.01 1201,-38.86 1201,-29.99"/>
<polygon fill="midnightblue" stroke="midnightblue" points="1204.5,-29.75 1201,-19.75 1197.5,-29.75 1204.5,-29.75"/>
</g>
<!-- Node25&#45;&gt;Node17 -->
<g id="edge39" class="edge">
<title>Node25&#45;&gt;Node17</title>
<path fill="none" stroke="midnightblue" d="M1169.57,-58.49C1165.02,-57.62 1160.4,-56.76 1156,-56 1056.38,-38.8 937.93,-22.78 880.95,-15.35"/>
<polygon fill="midnightblue" stroke="midnightblue" points="881.08,-11.84 870.71,-14.02 880.18,-18.78 881.08,-11.84"/>
</g>
<!-- Node26 -->
<g id="node26" class="node">
<title>Node26</title>
<g id="a_node26"><a xlink:title=" ">
<polygon fill="none" stroke="#bfbfbf" points="985.5,-0.5 985.5,-19.5 1044.5,-19.5 1044.5,-0.5 985.5,-0.5"/>
<text text-anchor="middle" x="1015" y="-7.5" font-family="Helvetica,sans-Serif" font-size="10.00">phydro.h</text>
</a>
</g>
</g>
<!-- Node25&#45;&gt;Node26 -->
<g id="edge41" class="edge">
<title>Node25&#45;&gt;Node26</title>
<path fill="none" stroke="midnightblue" d="M1171.53,-56.44C1139.83,-47.24 1089.27,-32.56 1054.23,-22.39"/>
<polygon fill="midnightblue" stroke="midnightblue" points="1054.91,-18.94 1044.33,-19.52 1052.96,-25.67 1054.91,-18.94"/>
</g>
<!-- Node27&#45;&gt;Node3 -->
<g id="edge43" class="edge">
<title>Node27&#45;&gt;Node3</title>
<path fill="none" stroke="midnightblue" d="M894.18,-282C897.14,-281.28 900.13,-280.59 903,-280 1009.5,-258.05 1038.49,-265.92 1145,-244 1304.97,-211.08 1346.94,-200.94 1495,-132 1543.3,-109.51 1555.32,-103.42 1601,-76 1627.97,-59.81 1657.78,-39.17 1676.92,-25.54"/>
<polygon fill="midnightblue" stroke="midnightblue" points="1679.06,-28.31 1685.15,-19.64 1674.98,-22.62 1679.06,-28.31"/>
</g>
<!-- Node27&#45;&gt;Node5 -->
<g id="edge60" class="edge">
<title>Node27&#45;&gt;Node5</title>
<path fill="none" stroke="midnightblue" d="M894.2,-282.11C897.16,-281.37 900.14,-280.65 903,-280 987.69,-260.88 1012.45,-270.9 1095,-244 1205.01,-208.15 1257.57,-222.22 1330,-132 1340.53,-118.89 1343.94,-99.74 1344.92,-85.62"/>
<polygon fill="midnightblue" stroke="midnightblue" points="1348.42,-85.71 1345.27,-75.59 1341.42,-85.46 1348.42,-85.71"/>
</g>
<!-- Node27&#45;&gt;Node15 -->
<g id="edge59" class="edge">
<title>Node27&#45;&gt;Node15</title>
<path fill="none" stroke="midnightblue" d="M843.9,-281.35C816.12,-272.76 770.09,-258.16 731,-244 629.47,-207.22 511.13,-158.12 457.32,-135.44"/>
<polygon fill="midnightblue" stroke="midnightblue" points="458.61,-132.19 448.04,-131.53 455.89,-138.64 458.61,-132.19"/>
</g>
<!-- Node28 -->
<g id="node28" class="node">
<title>Node28</title>
<g id="a_node28"><a xlink:href="traits__params_8h.html" target="_top" xlink:title=" ">
<polygon fill="none" stroke="black" points="763.5,-112.5 763.5,-131.5 856.5,-131.5 856.5,-112.5 763.5,-112.5"/>
<text text-anchor="middle" x="810" y="-119.5" font-family="Helvetica,sans-Serif" font-size="10.00">traits_params.h</text>
</a>
</g>
</g>
<!-- Node27&#45;&gt;Node28 -->
<g id="edge44" class="edge">
<title>Node27&#45;&gt;Node28</title>
<path fill="none" stroke="midnightblue" d="M858.07,-280.45C838.87,-264.65 799.73,-228.75 785,-188 779.11,-171.71 787.64,-153.3 796.29,-140.24"/>
<polygon fill="midnightblue" stroke="midnightblue" points="799.39,-141.94 802.41,-131.79 793.72,-137.84 799.39,-141.94"/>
</g>
<!-- Node29 -->
<g id="node29" class="node">
<title>Node29</title>
<g id="a_node29"><a xlink:href="plant__architecture_8h.html" target="_top" xlink:title=" ">
<polygon fill="none" stroke="black" points="794,-168.5 794,-187.5 908,-187.5 908,-168.5 794,-168.5"/>
<text text-anchor="middle" x="851" y="-175.5" font-family="Helvetica,sans-Serif" font-size="10.00">plant_architecture.h</text>
</a>
</g>
</g>
<!-- Node27&#45;&gt;Node29 -->
<g id="edge50" class="edge">
<title>Node27&#45;&gt;Node29</title>
<path fill="none" stroke="midnightblue" d="M867.59,-280.37C864.68,-262.62 857.98,-221.67 854.04,-197.6"/>
<polygon fill="midnightblue" stroke="midnightblue" points="857.47,-196.89 852.41,-187.59 850.57,-198.03 857.47,-196.89"/>
</g>
<!-- Node30 -->
<g id="node30" class="node">
<title>Node30</title>
<g id="a_node30"><a xlink:href="assimilation_8h.html" target="_top" xlink:title=" ">
<polygon fill="none" stroke="black" points="879,-224.5 879,-243.5 965,-243.5 965,-224.5 879,-224.5"/>
<text text-anchor="middle" x="922" y="-231.5" font-family="Helvetica,sans-Serif" font-size="10.00">assimilation.h</text>
</a>
</g>
</g>
<!-- Node27&#45;&gt;Node30 -->
<g id="edge53" class="edge">
<title>Node27&#45;&gt;Node30</title>
<path fill="none" stroke="midnightblue" d="M877.75,-280.08C885.47,-272.22 896.9,-260.57 906.22,-251.08"/>
<polygon fill="midnightblue" stroke="midnightblue" points="908.9,-253.34 913.41,-243.75 903.91,-248.44 908.9,-253.34"/>
</g>
<!-- Node32 -->
<g id="node32" class="node">
<title>Node32</title>
<g id="a_node32"><a xlink:href="rk4_8h.html" target="_top" xlink:title=" ">
<polygon fill="none" stroke="black" points="1021.5,-224.5 1021.5,-243.5 1086.5,-243.5 1086.5,-224.5 1021.5,-224.5"/>
<text text-anchor="middle" x="1054" y="-231.5" font-family="Helvetica,sans-Serif" font-size="10.00">utils/rk4.h</text>
</a>
</g>
</g>
<!-- Node27&#45;&gt;Node32 -->
<g id="edge58" class="edge">
<title>Node27&#45;&gt;Node32</title>
<path fill="none" stroke="midnightblue" d="M894.34,-281.6C925.45,-272.52 978.57,-257.02 1014.93,-246.41"/>
<polygon fill="midnightblue" stroke="midnightblue" points="1016.09,-249.71 1024.71,-243.55 1014.13,-242.99 1016.09,-249.71"/>
</g>
<!-- Node33 -->
<g id="node33" class="node">
<title>Node33</title>
<g id="a_node33"><a xlink:href="plant_8tpp.html" target="_top" xlink:title=" ">
<polygon fill="none" stroke="black" points="678,-168.5 678,-187.5 738,-187.5 738,-168.5 678,-168.5"/>
<text text-anchor="middle" x="708" y="-175.5" font-family="Helvetica,sans-Serif" font-size="10.00">plant.tpp</text>
</a>
</g>
</g>
<!-- Node27&#45;&gt;Node33 -->
<g id="edge61" class="edge">
<title>Node27&#45;&gt;Node33</title>
<path fill="none" stroke="midnightblue" d="M843.96,-284.01C818.64,-277.98 779.43,-265.8 752,-244 736.2,-231.45 723.96,-211.67 716.45,-197.23"/>
<polygon fill="midnightblue" stroke="midnightblue" points="719.38,-195.26 711.83,-187.83 713.1,-198.35 719.38,-195.26"/>
</g>
<!-- Node28&#45;&gt;Node4 -->
<g id="edge48" class="edge">
<title>Node28&#45;&gt;Node4</title>
<path fill="none" stroke="midnightblue" d="M856.6,-120.11C978.87,-117.34 1306.61,-107.17 1410,-76 1419.76,-73.06 1471.33,-43.2 1502.32,-24.99"/>
<polygon fill="midnightblue" stroke="midnightblue" points="1504.37,-27.85 1511.22,-19.76 1500.82,-21.82 1504.37,-27.85"/>
</g>
<!-- Node28&#45;&gt;Node5 -->
<g id="edge45" class="edge">
<title>Node28&#45;&gt;Node5</title>
<path fill="none" stroke="midnightblue" d="M856.54,-116.3C951.58,-106.71 1168.23,-84.84 1278.24,-73.74"/>
<polygon fill="midnightblue" stroke="midnightblue" points="1278.63,-77.22 1288.23,-72.73 1277.93,-70.25 1278.63,-77.22"/>
</g>
<!-- Node28&#45;&gt;Node14 -->
<g id="edge46" class="edge">
<title>Node28&#45;&gt;Node14</title>
<path fill="none" stroke="midnightblue" d="M773.4,-112.44C731.47,-102.64 662.97,-86.63 619.48,-76.46"/>
<polygon fill="midnightblue" stroke="midnightblue" points="620.06,-73.01 609.53,-74.14 618.47,-79.82 620.06,-73.01"/>
</g>
<!-- Node28&#45;&gt;Node17 -->
<g id="edge47" class="edge">
<title>Node28&#45;&gt;Node17</title>
<path fill="none" stroke="midnightblue" d="M812.9,-112.37C818.9,-94.54 832.77,-53.3 840.85,-29.27"/>
<polygon fill="midnightblue" stroke="midnightblue" points="844.24,-30.19 844.11,-19.59 837.6,-27.95 844.24,-30.19"/>
</g>
<!-- Node28&#45;&gt;Node18 -->
<g id="edge49" class="edge">
<title>Node28&#45;&gt;Node18</title>
<path fill="none" stroke="midnightblue" d="M763.25,-114.5C711.12,-106.98 624.11,-93.58 540.26,-76.12"/>
<polygon fill="midnightblue" stroke="midnightblue" points="540.82,-72.66 530.32,-74.03 539.38,-79.51 540.82,-72.66"/>
</g>
<!-- Node29&#45;&gt;Node17 -->
<g id="edge51" class="edge">
<title>Node29&#45;&gt;Node17</title>
<path fill="none" stroke="midnightblue" d="M854.6,-168.22C858.06,-159.28 863.03,-144.94 865,-132 870.54,-95.57 860.3,-52.93 853.13,-29.24"/>
<polygon fill="midnightblue" stroke="midnightblue" points="856.4,-27.98 850.02,-19.51 849.73,-30.1 856.4,-27.98"/>
</g>
<!-- Node29&#45;&gt;Node28 -->
<g id="edge52" class="edge">
<title>Node29&#45;&gt;Node28</title>
<path fill="none" stroke="midnightblue" d="M844.23,-168.08C838.44,-160.46 829.94,-149.26 822.86,-139.94"/>
<polygon fill="midnightblue" stroke="midnightblue" points="825.48,-137.6 816.64,-131.75 819.9,-141.83 825.48,-137.6"/>
</g>
<!-- Node30&#45;&gt;Node26 -->
<g id="edge54" class="edge">
<title>Node30&#45;&gt;Node26</title>
<path fill="none" stroke="midnightblue" d="M965.07,-225.53C1003.52,-217.88 1055.63,-204.75 1068,-188 1073.28,-180.85 1070.81,-176.43 1068,-168 1051.84,-119.51 1015.16,-124.49 999,-76 993.78,-60.34 999.28,-42.05 1005.21,-28.87"/>
<polygon fill="midnightblue" stroke="midnightblue" points="1008.53,-30.05 1009.86,-19.54 1002.26,-26.93 1008.53,-30.05"/>
</g>
<!-- Node30&#45;&gt;Node28 -->
<g id="edge55" class="edge">
<title>Node30&#45;&gt;Node28</title>
<path fill="none" stroke="midnightblue" d="M923.93,-224.48C926.43,-211.08 929.18,-184.89 917,-168 904.9,-151.22 885.3,-140.66 866.16,-134.03"/>
<polygon fill="midnightblue" stroke="midnightblue" points="867.12,-130.67 856.53,-131 865.02,-137.34 867.12,-130.67"/>
</g>
<!-- Node30&#45;&gt;Node29 -->
<g id="edge56" class="edge">
<title>Node30&#45;&gt;Node29</title>
<path fill="none" stroke="midnightblue" d="M910.59,-224.32C899.89,-216.18 883.66,-203.84 870.84,-194.09"/>
<polygon fill="midnightblue" stroke="midnightblue" points="872.69,-191.1 862.61,-187.83 868.46,-196.67 872.69,-191.1"/>
</g>
<!-- Node31 -->
<g id="node31" class="node">
<title>Node31</title>
<g id="a_node31"><a xlink:href="assimilation_8tpp.html" target="_top" xlink:title=" ">
<polygon fill="none" stroke="black" points="964.5,-168.5 964.5,-187.5 1059.5,-187.5 1059.5,-168.5 964.5,-168.5"/>
<text text-anchor="middle" x="1012" y="-175.5" font-family="Helvetica,sans-Serif" font-size="10.00">assimilation.tpp</text>
</a>
</g>
</g>
<!-- Node30&#45;&gt;Node31 -->
<g id="edge57" class="edge">
<title>Node30&#45;&gt;Node31</title>
<path fill="none" stroke="midnightblue" d="M936.46,-224.32C950.5,-215.9 972.05,-202.97 988.54,-193.07"/>
<polygon fill="midnightblue" stroke="midnightblue" points="990.8,-195.8 997.58,-187.65 987.2,-189.8 990.8,-195.8"/>
</g>
<!-- Node33&#45;&gt;Node17 -->
<g id="edge62" class="edge">
<title>Node33&#45;&gt;Node17</title>
<path fill="none" stroke="midnightblue" d="M713.62,-168.33C721.97,-155.62 738.35,-131.35 754,-112 779.56,-80.4 812.33,-46.09 831.36,-26.7"/>
<polygon fill="midnightblue" stroke="midnightblue" points="833.86,-29.15 838.39,-19.58 828.88,-24.23 833.86,-29.15"/>
</g>
<!-- Node34&#45;&gt;Node2 -->
<g id="edge80" class="edge">
<title>Node34&#45;&gt;Node2</title>
<path fill="none" stroke="midnightblue" d="M1070.23,-449.35C1129.96,-440.43 1231.65,-425.21 1319,-412 1320.27,-411.81 1321.55,-411.61 1322.84,-411.42"/>
<polygon fill="midnightblue" stroke="midnightblue" points="1323.54,-414.85 1332.9,-409.89 1322.49,-407.93 1323.54,-414.85"/>
</g>
<!-- Node34&#45;&gt;Node3 -->
<g id="edge66" class="edge">
<title>Node34&#45;&gt;Node3</title>
<path fill="none" stroke="midnightblue" d="M1070.02,-455.13C1242.33,-448.15 1792,-420.16 1792,-347 1792,-347 1792,-347 1792,-121 1792,-77.74 1749.39,-43.09 1721.25,-24.91"/>
<polygon fill="midnightblue" stroke="midnightblue" points="1723.03,-21.9 1712.69,-19.6 1719.34,-27.85 1723.03,-21.9"/>
</g>
<!-- Node34&#45;&gt;Node6 -->
<g id="edge65" class="edge">
<title>Node34&#45;&gt;Node6</title>
<path fill="none" stroke="midnightblue" d="M967.8,-457.46C801.73,-458.47 279.4,-457.83 118,-412 60.4,-395.64 0,-406.87 0,-347 0,-347 0,-347 0,-121 0,-74.49 39.12,-74.01 82,-56 138.59,-32.23 318.3,-18.48 399.49,-13.34"/>
<polygon fill="midnightblue" stroke="midnightblue" points="400.05,-16.82 409.81,-12.7 399.61,-9.83 400.05,-16.82"/>
</g>
<!-- Node34&#45;&gt;Node8 -->
<g id="edge64" class="edge">
<title>Node34&#45;&gt;Node8</title>
<path fill="none" stroke="midnightblue" d="M967.98,-456.69C766.62,-454.82 38,-441.53 38,-347 38,-347 38,-347 38,-177 38,-108.63 72.71,-88.25 133,-56 181.28,-30.17 563.41,-15.85 680.21,-12.04"/>
<polygon fill="midnightblue" stroke="midnightblue" points="680.47,-15.53 690.35,-11.71 680.24,-8.54 680.47,-15.53"/>
</g>
<!-- Node34&#45;&gt;Node12 -->
<g id="edge79" class="edge">
<title>Node34&#45;&gt;Node12</title>
<path fill="none" stroke="midnightblue" d="M967.9,-454.04C880.38,-448.44 705.76,-434.75 649,-412 610.39,-396.52 602.24,-386.55 574,-356 560.74,-341.65 549.23,-322.45 541.81,-308.64"/>
<polygon fill="midnightblue" stroke="midnightblue" points="544.88,-306.95 537.17,-299.68 538.66,-310.17 544.88,-306.95"/>
</g>
<!-- Node34&#45;&gt;Node13 -->
<g id="edge70" class="edge">
<title>Node34&#45;&gt;Node13</title>
<path fill="none" stroke="midnightblue" d="M967.7,-457.78C888.59,-457.57 732.89,-451.54 608,-412 490.1,-374.67 368.51,-285.65 322.83,-250.07"/>
<polygon fill="midnightblue" stroke="midnightblue" points="324.76,-247.13 314.74,-243.7 320.43,-252.63 324.76,-247.13"/>
</g>
<!-- Node34&#45;&gt;Node17 -->
<g id="edge67" class="edge">
<title>Node34&#45;&gt;Node17</title>
<path fill="none" stroke="midnightblue" d="M1008.56,-448.24C999.58,-439.97 987.25,-426.66 982,-412 979,-403.63 979.15,-400.42 982,-392 1008.51,-313.6 1068.49,-322.4 1095,-244 1102.05,-223.15 1087.74,-173.58 1084,-168 1033.32,-92.28 932.49,-44.13 880.2,-23.16"/>
<polygon fill="midnightblue" stroke="midnightblue" points="881.3,-19.83 870.71,-19.44 878.75,-26.35 881.3,-19.83"/>
</g>
<!-- Node34&#45;&gt;Node21 -->
<g id="edge72" class="edge">
<title>Node34&#45;&gt;Node21</title>
<path fill="none" stroke="midnightblue" d="M1004.01,-448.42C989.47,-439.85 967.03,-425.99 949,-412 929.07,-396.53 908.1,-376.49 894.37,-362.78"/>
<polygon fill="midnightblue" stroke="midnightblue" points="896.71,-360.16 887.19,-355.52 891.73,-365.09 896.71,-360.16"/>
</g>
<!-- Node35 -->
<g id="node35" class="node">
<title>Node35</title>
<g id="a_node35"><a xlink:title=" ">
<polygon fill="none" stroke="#bfbfbf" points="991,-392.5 991,-411.5 1047,-411.5 1047,-392.5 991,-392.5"/>
<text text-anchor="middle" x="1019" y="-399.5" font-family="Helvetica,sans-Serif" font-size="10.00">numeric</text>
</a>
</g>
</g>
<!-- Node34&#45;&gt;Node35 -->
<g id="edge68" class="edge">
<title>Node34&#45;&gt;Node35</title>
<path fill="none" stroke="midnightblue" d="M1019,-448.08C1019,-441.01 1019,-430.86 1019,-421.99"/>
<polygon fill="midnightblue" stroke="midnightblue" points="1022.5,-421.75 1019,-411.75 1015.5,-421.75 1022.5,-421.75"/>
</g>
<!-- Node36 -->
<g id="node36" class="node">
<title>Node36</title>
<g id="a_node36"><a xlink:title=" ">
<polygon fill="none" stroke="#bfbfbf" points="1065.5,-392.5 1065.5,-411.5 1130.5,-411.5 1130.5,-392.5 1065.5,-392.5"/>
<text text-anchor="middle" x="1098" y="-399.5" font-family="Helvetica,sans-Serif" font-size="10.00">functional</text>
</a>
</g>
</g>
<!-- Node34&#45;&gt;Node36 -->
<g id="edge69" class="edge">
<title>Node34&#45;&gt;Node36</title>
<path fill="none" stroke="midnightblue" d="M1031.69,-448.32C1043.9,-439.98 1062.58,-427.21 1077,-417.35"/>
<polygon fill="midnightblue" stroke="midnightblue" points="1079.06,-420.19 1085.34,-411.65 1075.11,-414.41 1079.06,-420.19"/>
</g>
<!-- Node37 -->
<g id="node37" class="node">
<title>Node37</title>
<g id="a_node37"><a xlink:title=" ">
<polygon fill="none" stroke="#bfbfbf" points="1149,-392.5 1149,-411.5 1239,-411.5 1239,-392.5 1149,-392.5"/>
<text text-anchor="middle" x="1194" y="-399.5" font-family="Helvetica,sans-Serif" font-size="10.00">time_stepper.h</text>
</a>
</g>
</g>
<!-- Node34&#45;&gt;Node37 -->
<g id="edge71" class="edge">
<title>Node34&#45;&gt;Node37</title>
<path fill="none" stroke="midnightblue" d="M1046.73,-448.44C1076.43,-439.28 1123.72,-424.69 1156.67,-414.52"/>
<polygon fill="midnightblue" stroke="midnightblue" points="1157.88,-417.81 1166.4,-411.52 1155.81,-411.12 1157.88,-417.81"/>
</g>
<!-- Node38 -->
<g id="node38" class="node">
<title>Node38</title>
<g id="a_node38"><a xlink:href="community__properties_8h.html" target="_top" xlink:title=" ">
<polygon fill="none" stroke="black" points="658,-392.5 658,-411.5 794,-411.5 794,-392.5 658,-392.5"/>
<text text-anchor="middle" x="726" y="-399.5" font-family="Helvetica,sans-Serif" font-size="10.00">community_properties.h</text>
</a>
</g>
</g>
<!-- Node34&#45;&gt;Node38 -->
<g id="edge73" class="edge">
<title>Node34&#45;&gt;Node38</title>
<path fill="none" stroke="midnightblue" d="M972.57,-448.44C920.92,-438.92 837.49,-423.55 782.19,-413.36"/>
<polygon fill="midnightblue" stroke="midnightblue" points="782.68,-409.89 772.21,-411.52 781.41,-416.77 782.68,-409.89"/>
</g>
<!-- Node40 -->
<g id="node40" class="node">
<title>Node40</title>
<g id="a_node40"><a xlink:href="climate__stream_8h.html" target="_top" xlink:title=" ">
<polygon fill="none" stroke="black" points="1219,-112.5 1219,-131.5 1321,-131.5 1321,-112.5 1219,-112.5"/>
<text text-anchor="middle" x="1270" y="-119.5" font-family="Helvetica,sans-Serif" font-size="10.00">climate_stream.h</text>
</a>
</g>
</g>
<!-- Node34&#45;&gt;Node40 -->
<g id="edge81" class="edge">
<title>Node34&#45;&gt;Node40</title>
<path fill="none" stroke="midnightblue" d="M1070.05,-454.21C1137.01,-449.56 1249.68,-438.04 1281,-412 1304.68,-392.31 1305,-377.8 1305,-347 1305,-347 1305,-347 1305,-233 1305,-199.07 1289.69,-161.91 1279.32,-140.63"/>
<polygon fill="midnightblue" stroke="midnightblue" points="1282.36,-138.88 1274.72,-131.54 1276.12,-142.05 1282.36,-138.88"/>
</g>
<!-- Node42 -->
<g id="node42" class="node">
<title>Node42</title>
<g id="a_node42"><a xlink:href="plantfate__config_8h.html" target="_top" xlink:title=" ">
<polygon fill="none" stroke="black" points="1008.5,-56.5 1008.5,-75.5 1113.5,-75.5 1113.5,-56.5 1008.5,-56.5"/>
<text text-anchor="middle" x="1061" y="-63.5" font-family="Helvetica,sans-Serif" font-size="10.00">plantfate_config.h</text>
</a>
</g>
</g>
<!-- Node34&#45;&gt;Node42 -->
<g id="edge90" class="edge">
<title>Node34&#45;&gt;Node42</title>
<path fill="none" stroke="midnightblue" d="M1070.04,-453.09C1129.39,-447.52 1222.5,-435.3 1248,-412 1270.22,-391.7 1267,-377.1 1267,-347 1267,-347 1267,-347 1267,-289 1267,-185.12 1144.3,-109.35 1088.3,-80.18"/>
<polygon fill="midnightblue" stroke="midnightblue" points="1089.78,-77.01 1079.28,-75.59 1086.6,-83.25 1089.78,-77.01"/>
</g>
<!-- Node38&#45;&gt;Node12 -->
<g id="edge75" class="edge">
<title>Node38&#45;&gt;Node12</title>
<path fill="none" stroke="midnightblue" d="M691.15,-392.47C665.31,-385.2 629.89,-373.17 602,-356 580.44,-342.73 559.88,-321.94 546.9,-307.46"/>
<polygon fill="midnightblue" stroke="midnightblue" points="549.4,-305 540.18,-299.77 544.12,-309.6 549.4,-305"/>
</g>
<!-- Node38&#45;&gt;Node21 -->
<g id="edge74" class="edge">
<title>Node38&#45;&gt;Node21</title>
<path fill="none" stroke="midnightblue" d="M750.24,-392.44C775.87,-383.4 816.49,-369.06 845.24,-358.92"/>
<polygon fill="midnightblue" stroke="midnightblue" points="846.61,-362.15 854.87,-355.52 844.28,-355.54 846.61,-362.15"/>
</g>
<!-- Node39 -->
<g id="node39" class="node">
<title>Node39</title>
<g id="a_node39"><a xlink:href="sequence_8h.html" target="_top" xlink:title=" ">
<polygon fill="none" stroke="black" points="666,-56.5 666,-75.5 762,-75.5 762,-56.5 666,-56.5"/>
<text text-anchor="middle" x="714" y="-63.5" font-family="Helvetica,sans-Serif" font-size="10.00">utils/sequence.h</text>
</a>
</g>
</g>
<!-- Node38&#45;&gt;Node39 -->
<g id="edge76" class="edge">
<title>Node38&#45;&gt;Node39</title>
<path fill="none" stroke="midnightblue" d="M720.89,-392.16C703.73,-361.37 650.29,-255.98 669,-168 675.59,-137 692.4,-103.97 703.5,-84.43"/>
<polygon fill="midnightblue" stroke="midnightblue" points="706.55,-86.16 708.57,-75.76 700.5,-82.63 706.55,-86.16"/>
</g>
<!-- Node39&#45;&gt;Node8 -->
<g id="edge77" class="edge">
<title>Node39&#45;&gt;Node8</title>
<path fill="none" stroke="midnightblue" d="M714,-56.08C714,-49.01 714,-38.86 714,-29.99"/>
<polygon fill="midnightblue" stroke="midnightblue" points="717.5,-29.75 714,-19.75 710.5,-29.75 717.5,-29.75"/>
</g>
<!-- Node39&#45;&gt;Node17 -->
<g id="edge78" class="edge">
<title>Node39&#45;&gt;Node17</title>
<path fill="none" stroke="midnightblue" d="M735.07,-56.44C757.06,-47.52 791.73,-33.44 816.66,-23.32"/>
<polygon fill="midnightblue" stroke="midnightblue" points="818.08,-26.52 826.02,-19.52 815.44,-20.04 818.08,-26.52"/>
</g>
<!-- Node40&#45;&gt;Node3 -->
<g id="edge83" class="edge">
<title>Node40&#45;&gt;Node3</title>
<path fill="none" stroke="midnightblue" d="M1321.22,-117.62C1380.15,-112.71 1479.31,-101.24 1561,-76 1602.42,-63.2 1647.18,-39.75 1673.62,-24.79"/>
<polygon fill="midnightblue" stroke="midnightblue" points="1675.56,-27.71 1682.49,-19.7 1672.07,-21.64 1675.56,-27.71"/>
</g>
<!-- Node40&#45;&gt;Node4 -->
<g id="edge82" class="edge">
<title>Node40&#45;&gt;Node4</title>
<path fill="none" stroke="midnightblue" d="M1321.28,-120.18C1392.55,-117.83 1516,-108.98 1544,-76 1555.44,-62.53 1547.13,-42.35 1538.39,-28.05"/>
<polygon fill="midnightblue" stroke="midnightblue" points="1541.24,-26.02 1532.78,-19.64 1535.41,-29.9 1541.24,-26.02"/>
</g>
<!-- Node40&#45;&gt;Node6 -->
<g id="edge85" class="edge">
<title>Node40&#45;&gt;Node6</title>
<path fill="none" stroke="midnightblue" d="M1218.78,-119.86C1091.24,-116.6 762.18,-105.51 657,-76 638.24,-70.74 636.23,-62.88 618,-56 572.13,-38.69 517.12,-25.94 480.51,-18.51"/>
<polygon fill="midnightblue" stroke="midnightblue" points="480.73,-14.99 470.24,-16.47 479.36,-21.85 480.73,-14.99"/>
</g>
<!-- Node40&#45;&gt;Node8 -->
<g id="edge87" class="edge">
<title>Node40&#45;&gt;Node8</title>
<path fill="none" stroke="midnightblue" d="M1218.89,-113.44C1164.28,-105.15 1075.28,-91.02 999,-76 907.5,-57.99 800.52,-32.34 747.43,-19.31"/>
<polygon fill="midnightblue" stroke="midnightblue" points="748.09,-15.86 737.54,-16.87 746.42,-22.66 748.09,-15.86"/>
</g>
<!-- Node40&#45;&gt;Node9 -->
<g id="edge84" class="edge">
<title>Node40&#45;&gt;Node9</title>
<path fill="none" stroke="midnightblue" d="M1267.04,-112.16C1262.5,-99.23 1253.06,-74.69 1241,-56 1234.28,-45.59 1225.21,-35.18 1217.41,-26.99"/>
<polygon fill="midnightblue" stroke="midnightblue" points="1219.67,-24.3 1210.16,-19.63 1214.68,-29.21 1219.67,-24.3"/>
</g>
<!-- Node40&#45;&gt;Node17 -->
<g id="edge86" class="edge">
<title>Node40&#45;&gt;Node17</title>
<path fill="none" stroke="midnightblue" d="M1247.64,-112.39C1225.44,-103.7 1190.55,-89.65 1161,-76 1143.32,-67.83 1140.5,-62.09 1122,-56 1037.95,-28.33 933.63,-17.23 880.9,-13.14"/>
<polygon fill="midnightblue" stroke="midnightblue" points="881,-9.64 870.77,-12.4 880.48,-16.62 881,-9.64"/>
</g>
<!-- Node40&#45;&gt;Node25 -->
<g id="edge88" class="edge">
<title>Node40&#45;&gt;Node25</title>
<path fill="none" stroke="midnightblue" d="M1258.91,-112.32C1248.51,-104.18 1232.74,-91.84 1220.28,-82.09"/>
<polygon fill="midnightblue" stroke="midnightblue" points="1222.32,-79.24 1212.29,-75.83 1218.01,-84.75 1222.32,-79.24"/>
</g>
<!-- Node41 -->
<g id="node41" class="node">
<title>Node41</title>
<g id="a_node41"><a xlink:title=" ">
<polygon fill="none" stroke="#bfbfbf" points="1458.5,-56.5 1458.5,-75.5 1535.5,-75.5 1535.5,-56.5 1458.5,-56.5"/>
<text text-anchor="middle" x="1497" y="-63.5" font-family="Helvetica,sans-Serif" font-size="10.00">csvstream.h</text>
</a>
</g>
</g>
<!-- Node40&#45;&gt;Node41 -->
<g id="edge89" class="edge">
<title>Node40&#45;&gt;Node41</title>
<path fill="none" stroke="midnightblue" d="M1305.97,-112.44C1345.32,-103.08 1408.49,-88.06 1451.31,-77.87"/>
<polygon fill="midnightblue" stroke="midnightblue" points="1452.28,-81.24 1461.2,-75.52 1450.66,-74.43 1452.28,-81.24"/>
</g>
<!-- Node42&#45;&gt;Node4 -->
<g id="edge92" class="edge">
<title>Node42&#45;&gt;Node4</title>
<path fill="none" stroke="midnightblue" d="M1113.7,-60.07C1214.82,-50.54 1431.03,-29.78 1493.88,-19.72"/>
<polygon fill="midnightblue" stroke="midnightblue" points="1494.53,-23.16 1503.77,-17.97 1493.31,-16.27 1494.53,-23.16"/>
</g>
<!-- Node42&#45;&gt;Node8 -->
<g id="edge91" class="edge">
<title>Node42&#45;&gt;Node8</title>
<path fill="none" stroke="midnightblue" d="M1008.3,-56.8C936.04,-45.55 808.29,-25.67 747.7,-16.24"/>
<polygon fill="midnightblue" stroke="midnightblue" points="747.95,-12.74 737.54,-14.66 746.88,-19.66 747.95,-12.74"/>
</g>
</g>
</svg>
