<?xml version="1.0" encoding="UTF-8" standalone="no"?>
<!DOCTYPE svg PUBLIC "-//W3C//DTD SVG 1.1//EN"
 "http://www.w3.org/Graphics/SVG/1.1/DTD/svg11.dtd">
<!-- Generated by graphviz version 2.43.0 (0)
 -->
<!-- Title: inst/include/traits_params.h Pages: 1 -->
<svg width="1085pt" height="464pt"
 viewBox="0.00 0.00 1084.50 464.00" xmlns="http://www.w3.org/2000/svg" xmlns:xlink="http://www.w3.org/1999/xlink">
<g id="graph0" class="graph" transform="scale(1 1) rotate(0) translate(4 460)">
<title>inst/include/traits_params.h</title>
<!-- Node1 -->
<g id="node1" class="node">
<title>Node1</title>
<g id="a_node1"><a xlink:title=" ">
<polygon fill="#bfbfbf" stroke="black" points="731,-425.5 731,-455.5 832,-455.5 832,-425.5 731,-425.5"/>
<text text-anchor="start" x="739" y="-443.5" font-family="Helvetica,sans-Serif" font-size="10.00">inst/include/traits</text>
<text text-anchor="middle" x="781.5" y="-432.5" font-family="Helvetica,sans-Serif" font-size="10.00">_params.h</text>
</a>
</g>
</g>
<!-- Node2 -->
<g id="node2" class="node">
<title>Node2</title>
<g id="a_node2"><a xlink:href="plant__architecture_8cpp.html" target="_top" xlink:title=" ">
<polygon fill="none" stroke="black" points="471,-302.5 471,-321.5 614,-321.5 614,-302.5 471,-302.5"/>
<text text-anchor="middle" x="542.5" y="-309.5" font-family="Helvetica,sans-Serif" font-size="10.00">src/plant_architecture.cpp</text>
</a>
</g>
</g>
<!-- Node1&#45;&gt;Node2 -->
<g id="edge1" class="edge">
<title>Node1&#45;&gt;Node2</title>
<path fill="none" stroke="midnightblue" d="M720.77,-427.59C689.36,-419.7 651.25,-407.36 620.5,-389 589.49,-370.49 561.33,-337.29 549.04,-321.63"/>
<polygon fill="midnightblue" stroke="midnightblue" points="720.18,-431.04 730.72,-429.99 721.82,-424.24 720.18,-431.04"/>
</g>
<!-- Node3 -->
<g id="node3" class="node">
<title>Node3</title>
<g id="a_node3"><a xlink:href="r__interface_8cpp.html" target="_top" xlink:title=" ">
<polygon fill="none" stroke="black" points="607,-0.5 607,-19.5 714,-19.5 714,-0.5 607,-0.5"/>
<text text-anchor="middle" x="660.5" y="-7.5" font-family="Helvetica,sans-Serif" font-size="10.00">src/r_interface.cpp</text>
</a>
</g>
</g>
<!-- Node1&#45;&gt;Node3 -->
<g id="edge2" class="edge">
<title>Node1&#45;&gt;Node3</title>
<path fill="none" stroke="midnightblue" d="M828.94,-421.3C871.23,-401.62 926.5,-365.8 926.5,-313 926.5,-313 926.5,-313 926.5,-137.5 926.5,-44.3 791.69,-19.69 714.01,-13.24"/>
<polygon fill="midnightblue" stroke="midnightblue" points="827.29,-418.21 819.6,-425.49 830.15,-424.59 827.29,-418.21"/>
</g>
<!-- Node4 -->
<g id="node4" class="node">
<title>Node4</title>
<g id="a_node4"><a xlink:href="traits__params_8cpp.html" target="_top" xlink:title=" ">
<polygon fill="none" stroke="black" points="954.5,-364 954.5,-383 1076.5,-383 1076.5,-364 954.5,-364"/>
<text text-anchor="middle" x="1015.5" y="-371" font-family="Helvetica,sans-Serif" font-size="10.00">src/traits_params.cpp</text>
</a>
</g>
</g>
<!-- Node1&#45;&gt;Node4 -->
<g id="edge3" class="edge">
<title>Node1&#45;&gt;Node4</title>
<path fill="none" stroke="midnightblue" d="M841.8,-422.75C887.56,-410.04 948.59,-393.09 984.8,-383.03"/>
<polygon fill="midnightblue" stroke="midnightblue" points="840.68,-419.43 831.99,-425.48 842.56,-426.17 840.68,-419.43"/>
</g>
<!-- Node5 -->
<g id="node5" class="node">
<title>Node5</title>
<g id="a_node5"><a xlink:href="assimilation_8h.html" target="_top" xlink:title=" ">
<polygon fill="none" stroke="black" points="709,-302.5 709,-321.5 854,-321.5 854,-302.5 709,-302.5"/>
<text text-anchor="middle" x="781.5" y="-309.5" font-family="Helvetica,sans-Serif" font-size="10.00">inst/include/assimilation.h</text>
</a>
</g>
</g>
<!-- Node1&#45;&gt;Node5 -->
<g id="edge4" class="edge">
<title>Node1&#45;&gt;Node5</title>
<path fill="none" stroke="midnightblue" d="M781.5,-415.14C781.5,-386.62 781.5,-340.86 781.5,-321.79"/>
<polygon fill="midnightblue" stroke="midnightblue" points="778,-415.48 781.5,-425.48 785,-415.48 778,-415.48"/>
</g>
<!-- Node7 -->
<g id="node7" class="node">
<title>Node7</title>
<g id="a_node7"><a xlink:href="life__history_8h.html" target="_top" xlink:title=" ">
<polygon fill="none" stroke="black" points="678.5,-190.5 678.5,-209.5 816.5,-209.5 816.5,-190.5 678.5,-190.5"/>
<text text-anchor="middle" x="747.5" y="-197.5" font-family="Helvetica,sans-Serif" font-size="10.00">inst/include/life_history.h</text>
</a>
</g>
</g>
<!-- Node1&#45;&gt;Node7 -->
<g id="edge28" class="edge">
<title>Node1&#45;&gt;Node7</title>
<path fill="none" stroke="midnightblue" d="M806.16,-418.47C832.73,-393.17 870.37,-348.29 863.5,-302 859.68,-276.27 863.64,-265.56 846.5,-246 830.33,-227.54 805.05,-216.22 784.09,-209.56"/>
<polygon fill="midnightblue" stroke="midnightblue" points="803.65,-416.02 798.67,-425.37 808.39,-421.17 803.65,-416.02"/>
</g>
<!-- Node10 -->
<g id="node10" class="node">
<title>Node10</title>
<g id="a_node10"><a xlink:href="plant_8h.html" target="_top" xlink:title=" ">
<polygon fill="none" stroke="black" points="542.5,-246.5 542.5,-265.5 652.5,-265.5 652.5,-246.5 542.5,-246.5"/>
<text text-anchor="middle" x="597.5" y="-253.5" font-family="Helvetica,sans-Serif" font-size="10.00">inst/include/plant.h</text>
</a>
</g>
</g>
<!-- Node1&#45;&gt;Node10 -->
<g id="edge29" class="edge">
<title>Node1&#45;&gt;Node10</title>
<path fill="none" stroke="midnightblue" d="M720.86,-438.51C643.5,-433.46 513.51,-411.33 461.5,-322 440.9,-286.61 496.31,-270.19 542.5,-262.78"/>
<polygon fill="midnightblue" stroke="midnightblue" points="720.77,-442.01 730.95,-439.09 721.17,-435.02 720.77,-442.01"/>
</g>
<!-- Node21 -->
<g id="node21" class="node">
<title>Node21</title>
<g id="a_node21"><a xlink:href="plant__architecture_8h.html" target="_top" xlink:title=" ">
<polygon fill="none" stroke="black" points="630,-358.5 630,-388.5 731,-388.5 731,-358.5 630,-358.5"/>
<text text-anchor="start" x="638" y="-376.5" font-family="Helvetica,sans-Serif" font-size="10.00">inst/include/plant</text>
<text text-anchor="middle" x="680.5" y="-365.5" font-family="Helvetica,sans-Serif" font-size="10.00">_architecture.h</text>
</a>
</g>
</g>
<!-- Node1&#45;&gt;Node21 -->
<g id="edge30" class="edge">
<title>Node1&#45;&gt;Node21</title>
<path fill="none" stroke="midnightblue" d="M750.79,-419.73C735.16,-409.68 716.53,-397.68 702.37,-388.58"/>
<polygon fill="midnightblue" stroke="midnightblue" points="749.28,-422.93 759.58,-425.4 753.07,-417.04 749.28,-422.93"/>
</g>
<!-- Node6 -->
<g id="node6" class="node">
<title>Node6</title>
<g id="a_node6"><a xlink:href="assimilation_8cpp.html" target="_top" xlink:title=" ">
<polygon fill="none" stroke="black" points="708.5,-246.5 708.5,-265.5 822.5,-265.5 822.5,-246.5 708.5,-246.5"/>
<text text-anchor="middle" x="765.5" y="-253.5" font-family="Helvetica,sans-Serif" font-size="10.00">src/assimilation.cpp</text>
</a>
</g>
</g>
<!-- Node5&#45;&gt;Node6 -->
<g id="edge5" class="edge">
<title>Node5&#45;&gt;Node6</title>
<path fill="none" stroke="midnightblue" d="M775.99,-292.4C773.31,-283.36 770.22,-272.94 768.09,-265.75"/>
<polygon fill="midnightblue" stroke="midnightblue" points="772.66,-293.49 778.86,-302.08 779.37,-291.5 772.66,-293.49"/>
</g>
<!-- Node5&#45;&gt;Node7 -->
<g id="edge6" class="edge">
<title>Node5&#45;&gt;Node7</title>
<path fill="none" stroke="midnightblue" d="M805.02,-296.75C822.88,-284.03 842.62,-264.58 831.5,-246 820.45,-227.55 798.96,-216.23 780.49,-209.56"/>
<polygon fill="midnightblue" stroke="midnightblue" points="802.91,-293.96 796.54,-302.43 806.8,-299.77 802.91,-293.96"/>
</g>
<!-- Node5&#45;&gt;Node10 -->
<g id="edge10" class="edge">
<title>Node5&#45;&gt;Node10</title>
<path fill="none" stroke="midnightblue" d="M742.55,-299.57C707.84,-289.38 657.82,-274.7 626.52,-265.52"/>
<polygon fill="midnightblue" stroke="midnightblue" points="741.76,-302.99 752.34,-302.44 743.73,-296.27 741.76,-302.99"/>
</g>
<!-- Node7&#45;&gt;Node3 -->
<g id="edge8" class="edge">
<title>Node7&#45;&gt;Node3</title>
<path fill="none" stroke="midnightblue" d="M720.21,-185.53C707.7,-177.97 693.83,-167.35 685.5,-154 657.74,-109.53 658.59,-42.92 659.88,-19.51"/>
<polygon fill="midnightblue" stroke="midnightblue" points="718.56,-188.61 728.98,-190.49 722,-182.52 718.56,-188.61"/>
</g>
<!-- Node8 -->
<g id="node8" class="node">
<title>Node8</title>
<g id="a_node8"><a xlink:href="life__history_8cpp.html" target="_top" xlink:title=" ">
<polygon fill="none" stroke="black" points="694,-129 694,-148 801,-148 801,-129 694,-129"/>
<text text-anchor="middle" x="747.5" y="-136" font-family="Helvetica,sans-Serif" font-size="10.00">src/life_history.cpp</text>
</a>
</g>
</g>
<!-- Node7&#45;&gt;Node8 -->
<g id="edge7" class="edge">
<title>Node7&#45;&gt;Node8</title>
<path fill="none" stroke="midnightblue" d="M747.5,-180.32C747.5,-169.5 747.5,-156.4 747.5,-148.01"/>
<polygon fill="midnightblue" stroke="midnightblue" points="744,-180.48 747.5,-190.48 751,-180.48 744,-180.48"/>
</g>
<!-- Node9 -->
<g id="node9" class="node">
<title>Node9</title>
<g id="a_node9"><a xlink:href="lho_8cpp.html" target="_top" xlink:title=" ">
<polygon fill="none" stroke="black" points="819,-129 819,-148 898,-148 898,-129 819,-129"/>
<text text-anchor="middle" x="858.5" y="-136" font-family="Helvetica,sans-Serif" font-size="10.00">tests/lho.cpp</text>
</a>
</g>
</g>
<!-- Node7&#45;&gt;Node9 -->
<g id="edge9" class="edge">
<title>Node7&#45;&gt;Node9</title>
<path fill="none" stroke="midnightblue" d="M772.29,-185.71C793.79,-174.19 824.26,-157.86 842.63,-148.01"/>
<polygon fill="midnightblue" stroke="midnightblue" points="770.56,-182.67 763.4,-190.48 773.87,-188.84 770.56,-182.67"/>
</g>
<!-- Node10&#45;&gt;Node7 -->
<g id="edge12" class="edge">
<title>Node10&#45;&gt;Node7</title>
<path fill="none" stroke="midnightblue" d="M630.72,-243.04C658.95,-232.88 698.76,-218.55 723.84,-209.52"/>
<polygon fill="midnightblue" stroke="midnightblue" points="629.49,-239.76 621.27,-246.44 631.86,-246.35 629.49,-239.76"/>
</g>
<!-- Node11 -->
<g id="node11" class="node">
<title>Node11</title>
<g id="a_node11"><a xlink:href="plant_8cpp.html" target="_top" xlink:title=" ">
<polygon fill="none" stroke="black" points="558,-190.5 558,-209.5 637,-209.5 637,-190.5 558,-190.5"/>
<text text-anchor="middle" x="597.5" y="-197.5" font-family="Helvetica,sans-Serif" font-size="10.00">src/plant.cpp</text>
</a>
</g>
</g>
<!-- Node10&#45;&gt;Node11 -->
<g id="edge11" class="edge">
<title>Node10&#45;&gt;Node11</title>
<path fill="none" stroke="midnightblue" d="M597.5,-235.8C597.5,-226.91 597.5,-216.78 597.5,-209.75"/>
<polygon fill="midnightblue" stroke="midnightblue" points="594,-236.08 597.5,-246.08 601,-236.08 594,-236.08"/>
</g>
<!-- Node12 -->
<g id="node12" class="node">
<title>Node12</title>
<g id="a_node12"><a xlink:href="pspm__interface_8h.html" target="_top" xlink:title=" ">
<polygon fill="none" stroke="black" points="304,-190.5 304,-209.5 465,-209.5 465,-190.5 304,-190.5"/>
<text text-anchor="middle" x="384.5" y="-197.5" font-family="Helvetica,sans-Serif" font-size="10.00">inst/include/pspm_interface.h</text>
</a>
</g>
</g>
<!-- Node10&#45;&gt;Node12 -->
<g id="edge13" class="edge">
<title>Node10&#45;&gt;Node12</title>
<path fill="none" stroke="midnightblue" d="M553.95,-243.96C513.72,-233.76 454.8,-218.82 418.09,-209.52"/>
<polygon fill="midnightblue" stroke="midnightblue" points="553.2,-247.38 563.75,-246.44 554.92,-240.59 553.2,-247.38"/>
</g>
<!-- Node12&#45;&gt;Node3 -->
<g id="edge16" class="edge">
<title>Node12&#45;&gt;Node3</title>
<path fill="none" stroke="midnightblue" d="M475.17,-189.7C527.77,-182.62 587.48,-171.12 607.5,-154 649.76,-117.86 658.35,-44.79 660.07,-19.69"/>
<polygon fill="midnightblue" stroke="midnightblue" points="474.56,-186.25 465.1,-191.02 475.47,-193.19 474.56,-186.25"/>
</g>
<!-- Node13 -->
<g id="node13" class="node">
<title>Node13</title>
<g id="a_node13"><a xlink:href="light__environment_8cpp.html" target="_top" xlink:title=" ">
<polygon fill="none" stroke="black" points="158,-129 158,-148 301,-148 301,-129 158,-129"/>
<text text-anchor="middle" x="229.5" y="-136" font-family="Helvetica,sans-Serif" font-size="10.00">src/light_environment.cpp</text>
</a>
</g>
</g>
<!-- Node12&#45;&gt;Node13 -->
<g id="edge14" class="edge">
<title>Node12&#45;&gt;Node13</title>
<path fill="none" stroke="midnightblue" d="M352.67,-186.78C322.55,-175.22 278.12,-158.16 251.67,-148.01"/>
<polygon fill="midnightblue" stroke="midnightblue" points="351.7,-190.16 362.29,-190.48 354.21,-183.62 351.7,-190.16"/>
</g>
<!-- Node14 -->
<g id="node14" class="node">
<title>Node14</title>
<g id="a_node14"><a xlink:href="pspm__interface_8cpp.html" target="_top" xlink:title=" ">
<polygon fill="none" stroke="black" points="319.5,-129 319.5,-148 449.5,-148 449.5,-129 319.5,-129"/>
<text text-anchor="middle" x="384.5" y="-136" font-family="Helvetica,sans-Serif" font-size="10.00">src/pspm_interface.cpp</text>
</a>
</g>
</g>
<!-- Node12&#45;&gt;Node14 -->
<g id="edge15" class="edge">
<title>Node12&#45;&gt;Node14</title>
<path fill="none" stroke="midnightblue" d="M384.5,-180.32C384.5,-169.5 384.5,-156.4 384.5,-148.01"/>
<polygon fill="midnightblue" stroke="midnightblue" points="381,-180.48 384.5,-190.48 388,-180.48 381,-180.48"/>
</g>
<!-- Node15 -->
<g id="node15" class="node">
<title>Node15</title>
<g id="a_node15"><a xlink:href="community__properties_8h.html" target="_top" xlink:title=" ">
<polygon fill="none" stroke="black" points="468,-123.5 468,-153.5 599,-153.5 599,-123.5 468,-123.5"/>
<text text-anchor="start" x="476" y="-141.5" font-family="Helvetica,sans-Serif" font-size="10.00">inst/include/community</text>
<text text-anchor="middle" x="533.5" y="-130.5" font-family="Helvetica,sans-Serif" font-size="10.00">_properties.h</text>
</a>
</g>
</g>
<!-- Node12&#45;&gt;Node15 -->
<g id="edge17" class="edge">
<title>Node12&#45;&gt;Node15</title>
<path fill="none" stroke="midnightblue" d="M415.25,-186.72C439.44,-177.06 473.14,-163.6 498.38,-153.52"/>
<polygon fill="midnightblue" stroke="midnightblue" points="413.84,-183.52 405.85,-190.48 416.43,-190.02 413.84,-183.52"/>
</g>
<!-- Node17 -->
<g id="node17" class="node">
<title>Node17</title>
<g id="a_node17"><a xlink:href="plantfate__patch_8h.html" target="_top" xlink:title=" ">
<polygon fill="none" stroke="black" points="252.5,-56.5 252.5,-86.5 372.5,-86.5 372.5,-56.5 252.5,-56.5"/>
<text text-anchor="start" x="260.5" y="-74.5" font-family="Helvetica,sans-Serif" font-size="10.00">inst/include/plantfate</text>
<text text-anchor="middle" x="312.5" y="-63.5" font-family="Helvetica,sans-Serif" font-size="10.00">_patch.h</text>
</a>
</g>
</g>
<!-- Node12&#45;&gt;Node17 -->
<g id="edge24" class="edge">
<title>Node12&#45;&gt;Node17</title>
<path fill="none" stroke="midnightblue" d="M293.8,-193.44C235.39,-187.75 167.04,-176.41 148.5,-154 115.06,-113.58 192.85,-91.41 252.39,-80.75"/>
<polygon fill="midnightblue" stroke="midnightblue" points="293.54,-196.93 303.82,-194.37 294.19,-189.96 293.54,-196.93"/>
</g>
<!-- Node20 -->
<g id="node20" class="node">
<title>Node20</title>
<g id="a_node20"><a xlink:href="state__restore_8h.html" target="_top" xlink:title=" ">
<polygon fill="none" stroke="black" points="0,-123.5 0,-153.5 101,-153.5 101,-123.5 0,-123.5"/>
<text text-anchor="start" x="8" y="-141.5" font-family="Helvetica,sans-Serif" font-size="10.00">inst/include/state</text>
<text text-anchor="middle" x="50.5" y="-130.5" font-family="Helvetica,sans-Serif" font-size="10.00">_restore.h</text>
</a>
</g>
</g>
<!-- Node12&#45;&gt;Node20 -->
<g id="edge25" class="edge">
<title>Node12&#45;&gt;Node20</title>
<path fill="none" stroke="midnightblue" d="M318.29,-188.94C263.73,-180.41 184.41,-167.44 115.5,-154 110.85,-153.09 106.02,-152.1 101.19,-151.08"/>
<polygon fill="midnightblue" stroke="midnightblue" points="317.76,-192.4 328.18,-190.48 318.84,-185.48 317.76,-192.4"/>
</g>
<!-- Node16 -->
<g id="node16" class="node">
<title>Node16</title>
<g id="a_node16"><a xlink:href="community__properties_8cpp.html" target="_top" xlink:title=" ">
<polygon fill="none" stroke="black" points="415.5,-0.5 415.5,-19.5 579.5,-19.5 579.5,-0.5 415.5,-0.5"/>
<text text-anchor="middle" x="497.5" y="-7.5" font-family="Helvetica,sans-Serif" font-size="10.00">src/community_properties.cpp</text>
</a>
</g>
</g>
<!-- Node15&#45;&gt;Node16 -->
<g id="edge18" class="edge">
<title>Node15&#45;&gt;Node16</title>
<path fill="none" stroke="midnightblue" d="M526.67,-113.51C518.57,-85.02 505.45,-38.94 500,-19.79"/>
<polygon fill="midnightblue" stroke="midnightblue" points="523.41,-114.82 529.51,-123.48 530.14,-112.9 523.41,-114.82"/>
</g>
<!-- Node15&#45;&gt;Node17 -->
<g id="edge19" class="edge">
<title>Node15&#45;&gt;Node17</title>
<path fill="none" stroke="midnightblue" d="M475.97,-120.58C440.08,-110.02 394.41,-96.59 360.48,-86.61"/>
<polygon fill="midnightblue" stroke="midnightblue" points="475.24,-124.01 485.82,-123.48 477.21,-117.3 475.24,-124.01"/>
</g>
<!-- Node17&#45;&gt;Node3 -->
<g id="edge22" class="edge">
<title>Node17&#45;&gt;Node3</title>
<path fill="none" stroke="midnightblue" d="M382.86,-58.47C450.45,-46.91 550.86,-29.75 610.59,-19.53"/>
<polygon fill="midnightblue" stroke="midnightblue" points="381.99,-55.07 372.72,-60.2 383.17,-61.97 381.99,-55.07"/>
</g>
<!-- Node17&#45;&gt;Node16 -->
<g id="edge20" class="edge">
<title>Node17&#45;&gt;Node16</title>
<path fill="none" stroke="midnightblue" d="M366.23,-53.22C400.58,-42.17 443.62,-28.33 470.85,-19.57"/>
<polygon fill="midnightblue" stroke="midnightblue" points="364.79,-50.01 356.34,-56.4 366.93,-56.67 364.79,-50.01"/>
</g>
<!-- Node18 -->
<g id="node18" class="node">
<title>Node18</title>
<g id="a_node18"><a xlink:href="plantfate__patch_8cpp.html" target="_top" xlink:title=" ">
<polygon fill="none" stroke="black" points="247,-0.5 247,-19.5 378,-19.5 378,-0.5 247,-0.5"/>
<text text-anchor="middle" x="312.5" y="-7.5" font-family="Helvetica,sans-Serif" font-size="10.00">src/plantfate_patch.cpp</text>
</a>
</g>
</g>
<!-- Node17&#45;&gt;Node18 -->
<g id="edge21" class="edge">
<title>Node17&#45;&gt;Node18</title>
<path fill="none" stroke="midnightblue" d="M312.5,-46.29C312.5,-36.86 312.5,-26.65 312.5,-19.66"/>
<polygon fill="midnightblue" stroke="midnightblue" points="309,-46.4 312.5,-56.4 316,-46.4 309,-46.4"/>
</g>
<!-- Node19 -->
<g id="node19" class="node">
<title>Node19</title>
<g id="a_node19"><a xlink:href="state__restore_8cpp.html" target="_top" xlink:title=" ">
<polygon fill="none" stroke="black" points="72,-0.5 72,-19.5 191,-19.5 191,-0.5 72,-0.5"/>
<text text-anchor="middle" x="131.5" y="-7.5" font-family="Helvetica,sans-Serif" font-size="10.00">src/state_restore.cpp</text>
</a>
</g>
</g>
<!-- Node17&#45;&gt;Node19 -->
<g id="edge23" class="edge">
<title>Node17&#45;&gt;Node19</title>
<path fill="none" stroke="midnightblue" d="M259.93,-53.22C226.33,-42.17 184.21,-28.33 157.57,-19.57"/>
<polygon fill="midnightblue" stroke="midnightblue" points="259.01,-56.6 269.61,-56.4 261.2,-49.95 259.01,-56.6"/>
</g>
<!-- Node20&#45;&gt;Node17 -->
<g id="edge27" class="edge">
<title>Node20&#45;&gt;Node17</title>
<path fill="none" stroke="midnightblue" d="M110.92,-122.51C154.54,-111.69 213.03,-97.18 255.77,-86.57"/>
<polygon fill="midnightblue" stroke="midnightblue" points="109.88,-119.16 101.02,-124.97 111.56,-125.96 109.88,-119.16"/>
</g>
<!-- Node20&#45;&gt;Node19 -->
<g id="edge26" class="edge">
<title>Node20&#45;&gt;Node19</title>
<path fill="none" stroke="midnightblue" d="M64.91,-115C83.06,-86.65 113.39,-39.28 125.87,-19.79"/>
<polygon fill="midnightblue" stroke="midnightblue" points="61.92,-113.17 59.48,-123.48 67.82,-116.94 61.92,-113.17"/>
</g>
<!-- Node21&#45;&gt;Node2 -->
<g id="edge31" class="edge">
<title>Node21&#45;&gt;Node2</title>
<path fill="none" stroke="midnightblue" d="M638.45,-354.37C613.26,-343.51 582.39,-330.2 562.58,-321.66"/>
<polygon fill="midnightblue" stroke="midnightblue" points="637.23,-357.65 647.8,-358.4 640,-351.23 637.23,-357.65"/>
</g>
<!-- Node21&#45;&gt;Node5 -->
<g id="edge32" class="edge">
<title>Node21&#45;&gt;Node5</title>
<path fill="none" stroke="midnightblue" d="M713.48,-353.07C731.49,-342.46 752.88,-329.86 766.8,-321.66"/>
<polygon fill="midnightblue" stroke="midnightblue" points="711.28,-350.31 704.44,-358.4 714.83,-356.34 711.28,-350.31"/>
</g>
<!-- Node21&#45;&gt;Node7 -->
<g id="edge33" class="edge">
<title>Node21&#45;&gt;Node7</title>
<path fill="none" stroke="midnightblue" d="M679.54,-347.97C679.52,-321.36 682.52,-278.35 699.5,-246 707.57,-230.63 722.98,-217.64 734.17,-209.63"/>
<polygon fill="midnightblue" stroke="midnightblue" points="676.04,-348.35 679.7,-358.29 683.04,-348.24 676.04,-348.35"/>
</g>
<!-- Node21&#45;&gt;Node10 -->
<g id="edge34" class="edge">
<title>Node21&#45;&gt;Node10</title>
<path fill="none" stroke="midnightblue" d="M664.28,-349.92C645.78,-324.18 616.45,-283.37 603.73,-265.67"/>
<polygon fill="midnightblue" stroke="midnightblue" points="661.64,-352.26 670.32,-358.34 667.33,-348.17 661.64,-352.26"/>
</g>
</g>
</svg>
